%TF.GenerationSoftware,KiCad,Pcbnew,(5.1.2)-1*%
%TF.CreationDate,2019-05-07T13:27:01+02:00*%
%TF.ProjectId,nfc-door,6e66632d-646f-46f7-922e-6b696361645f,rev?*%
%TF.SameCoordinates,Original*%
%TF.FileFunction,Soldermask,Top*%
%TF.FilePolarity,Negative*%
%FSLAX46Y46*%
G04 Gerber Fmt 4.6, Leading zero omitted, Abs format (unit mm)*
G04 Created by KiCad (PCBNEW (5.1.2)-1) date 2019-05-07 13:27:01*
%MOMM*%
%LPD*%
G04 APERTURE LIST*
%ADD10C,0.100000*%
G04 APERTURE END LIST*
D10*
G36*
X130527560Y-149187759D02*
G01*
X131018928Y-149391290D01*
X131018930Y-149391291D01*
X131461150Y-149686773D01*
X131837227Y-150062850D01*
X132132709Y-150505070D01*
X132132710Y-150505072D01*
X132336241Y-150996440D01*
X132440000Y-151518072D01*
X132440000Y-152049928D01*
X132336241Y-152571560D01*
X132157515Y-153003043D01*
X132132709Y-153062930D01*
X131837227Y-153505150D01*
X131461150Y-153881227D01*
X131018930Y-154176709D01*
X131018929Y-154176710D01*
X131018928Y-154176710D01*
X130527560Y-154380241D01*
X130005928Y-154484000D01*
X129474072Y-154484000D01*
X128952440Y-154380241D01*
X128461072Y-154176710D01*
X128461071Y-154176710D01*
X128461070Y-154176709D01*
X128018850Y-153881227D01*
X127642773Y-153505150D01*
X127347291Y-153062930D01*
X127322485Y-153003043D01*
X127143759Y-152571560D01*
X127040000Y-152049928D01*
X127040000Y-151518072D01*
X127143759Y-150996440D01*
X127347290Y-150505072D01*
X127347291Y-150505070D01*
X127642773Y-150062850D01*
X128018850Y-149686773D01*
X128461070Y-149391291D01*
X128461072Y-149391290D01*
X128952440Y-149187759D01*
X129474072Y-149084000D01*
X130005928Y-149084000D01*
X130527560Y-149187759D01*
X130527560Y-149187759D01*
G37*
G36*
X80777560Y-149187759D02*
G01*
X81268928Y-149391290D01*
X81268930Y-149391291D01*
X81711150Y-149686773D01*
X82087227Y-150062850D01*
X82382709Y-150505070D01*
X82382710Y-150505072D01*
X82586241Y-150996440D01*
X82690000Y-151518072D01*
X82690000Y-152049928D01*
X82586241Y-152571560D01*
X82407515Y-153003043D01*
X82382709Y-153062930D01*
X82087227Y-153505150D01*
X81711150Y-153881227D01*
X81268930Y-154176709D01*
X81268929Y-154176710D01*
X81268928Y-154176710D01*
X80777560Y-154380241D01*
X80255928Y-154484000D01*
X79724072Y-154484000D01*
X79202440Y-154380241D01*
X78711072Y-154176710D01*
X78711071Y-154176710D01*
X78711070Y-154176709D01*
X78268850Y-153881227D01*
X77892773Y-153505150D01*
X77597291Y-153062930D01*
X77572485Y-153003043D01*
X77393759Y-152571560D01*
X77290000Y-152049928D01*
X77290000Y-151518072D01*
X77393759Y-150996440D01*
X77597290Y-150505072D01*
X77597291Y-150505070D01*
X77892773Y-150062850D01*
X78268850Y-149686773D01*
X78711070Y-149391291D01*
X78711072Y-149391290D01*
X79202440Y-149187759D01*
X79724072Y-149084000D01*
X80255928Y-149084000D01*
X80777560Y-149187759D01*
X80777560Y-149187759D01*
G37*
G36*
X90555638Y-150299916D02*
G01*
X90709034Y-150346449D01*
X90762992Y-150362817D01*
X90954084Y-150464957D01*
X91121581Y-150602419D01*
X91259043Y-150769916D01*
X91361183Y-150961008D01*
X91361184Y-150961012D01*
X91424084Y-151168363D01*
X91440000Y-151329965D01*
X91440000Y-152138036D01*
X91424084Y-152299638D01*
X91395159Y-152394988D01*
X91361183Y-152506992D01*
X91259043Y-152698084D01*
X91165023Y-152812646D01*
X91121581Y-152865581D01*
X90954084Y-153003042D01*
X90954080Y-153003044D01*
X90954079Y-153003045D01*
X90762991Y-153105183D01*
X90709033Y-153121551D01*
X90555637Y-153168084D01*
X90340000Y-153189322D01*
X90124362Y-153168084D01*
X89970966Y-153121551D01*
X89917008Y-153105183D01*
X89725916Y-153003043D01*
X89589445Y-152891043D01*
X89558419Y-152865581D01*
X89420958Y-152698084D01*
X89420955Y-152698079D01*
X89318817Y-152506991D01*
X89284841Y-152394987D01*
X89255916Y-152299637D01*
X89240000Y-152138035D01*
X89240000Y-151329964D01*
X89255916Y-151168362D01*
X89289891Y-151056364D01*
X89318817Y-150961009D01*
X89420958Y-150769917D01*
X89558420Y-150602419D01*
X89725917Y-150464957D01*
X89917009Y-150362817D01*
X89970967Y-150346449D01*
X90124363Y-150299916D01*
X90340000Y-150278678D01*
X90555638Y-150299916D01*
X90555638Y-150299916D01*
G37*
G36*
X87055638Y-150299916D02*
G01*
X87209034Y-150346449D01*
X87262992Y-150362817D01*
X87454084Y-150464957D01*
X87621581Y-150602419D01*
X87759043Y-150769916D01*
X87861183Y-150961008D01*
X87861184Y-150961012D01*
X87924084Y-151168363D01*
X87940000Y-151329965D01*
X87940000Y-152138036D01*
X87924084Y-152299638D01*
X87895159Y-152394988D01*
X87861183Y-152506992D01*
X87759043Y-152698084D01*
X87665023Y-152812646D01*
X87621581Y-152865581D01*
X87454084Y-153003042D01*
X87454080Y-153003044D01*
X87454079Y-153003045D01*
X87262991Y-153105183D01*
X87209033Y-153121551D01*
X87055637Y-153168084D01*
X86840000Y-153189322D01*
X86624362Y-153168084D01*
X86470966Y-153121551D01*
X86417008Y-153105183D01*
X86225916Y-153003043D01*
X86089445Y-152891043D01*
X86058419Y-152865581D01*
X85920958Y-152698084D01*
X85920955Y-152698079D01*
X85818817Y-152506991D01*
X85784841Y-152394987D01*
X85755916Y-152299637D01*
X85740000Y-152138035D01*
X85740000Y-151329964D01*
X85755916Y-151168362D01*
X85789891Y-151056364D01*
X85818817Y-150961009D01*
X85920958Y-150769917D01*
X86058420Y-150602419D01*
X86225917Y-150464957D01*
X86417009Y-150362817D01*
X86470967Y-150346449D01*
X86624363Y-150299916D01*
X86840000Y-150278678D01*
X87055638Y-150299916D01*
X87055638Y-150299916D01*
G37*
G36*
X114555638Y-150299916D02*
G01*
X114709034Y-150346449D01*
X114762992Y-150362817D01*
X114954084Y-150464957D01*
X115121581Y-150602419D01*
X115259043Y-150769916D01*
X115361183Y-150961008D01*
X115361184Y-150961012D01*
X115424084Y-151168363D01*
X115440000Y-151329965D01*
X115440000Y-152138036D01*
X115424084Y-152299638D01*
X115395159Y-152394988D01*
X115361183Y-152506992D01*
X115259043Y-152698084D01*
X115165023Y-152812646D01*
X115121581Y-152865581D01*
X114954084Y-153003042D01*
X114954080Y-153003044D01*
X114954079Y-153003045D01*
X114762991Y-153105183D01*
X114709033Y-153121551D01*
X114555637Y-153168084D01*
X114340000Y-153189322D01*
X114124362Y-153168084D01*
X113970966Y-153121551D01*
X113917008Y-153105183D01*
X113725916Y-153003043D01*
X113589445Y-152891043D01*
X113558419Y-152865581D01*
X113420958Y-152698084D01*
X113420955Y-152698079D01*
X113318817Y-152506991D01*
X113284841Y-152394987D01*
X113255916Y-152299637D01*
X113240000Y-152138035D01*
X113240000Y-151329964D01*
X113255916Y-151168362D01*
X113289891Y-151056364D01*
X113318817Y-150961009D01*
X113420958Y-150769917D01*
X113558420Y-150602419D01*
X113725917Y-150464957D01*
X113917009Y-150362817D01*
X113970967Y-150346449D01*
X114124363Y-150299916D01*
X114340000Y-150278678D01*
X114555638Y-150299916D01*
X114555638Y-150299916D01*
G37*
G36*
X111055638Y-150299916D02*
G01*
X111209034Y-150346449D01*
X111262992Y-150362817D01*
X111454084Y-150464957D01*
X111621581Y-150602419D01*
X111759043Y-150769916D01*
X111861183Y-150961008D01*
X111861184Y-150961012D01*
X111924084Y-151168363D01*
X111940000Y-151329965D01*
X111940000Y-152138036D01*
X111924084Y-152299638D01*
X111895159Y-152394988D01*
X111861183Y-152506992D01*
X111759043Y-152698084D01*
X111665023Y-152812646D01*
X111621581Y-152865581D01*
X111454084Y-153003042D01*
X111454080Y-153003044D01*
X111454079Y-153003045D01*
X111262991Y-153105183D01*
X111209033Y-153121551D01*
X111055637Y-153168084D01*
X110840000Y-153189322D01*
X110624362Y-153168084D01*
X110470966Y-153121551D01*
X110417008Y-153105183D01*
X110225916Y-153003043D01*
X110089445Y-152891043D01*
X110058419Y-152865581D01*
X109920958Y-152698084D01*
X109920955Y-152698079D01*
X109818817Y-152506991D01*
X109784841Y-152394987D01*
X109755916Y-152299637D01*
X109740000Y-152138035D01*
X109740000Y-151329964D01*
X109755916Y-151168362D01*
X109789891Y-151056364D01*
X109818817Y-150961009D01*
X109920958Y-150769917D01*
X110058420Y-150602419D01*
X110225917Y-150464957D01*
X110417009Y-150362817D01*
X110470967Y-150346449D01*
X110624363Y-150299916D01*
X110840000Y-150278678D01*
X111055638Y-150299916D01*
X111055638Y-150299916D01*
G37*
G36*
X100555638Y-150299916D02*
G01*
X100709034Y-150346449D01*
X100762992Y-150362817D01*
X100954084Y-150464957D01*
X101121581Y-150602419D01*
X101259043Y-150769916D01*
X101361183Y-150961008D01*
X101361184Y-150961012D01*
X101424084Y-151168363D01*
X101440000Y-151329965D01*
X101440000Y-152138036D01*
X101424084Y-152299638D01*
X101395159Y-152394988D01*
X101361183Y-152506992D01*
X101259043Y-152698084D01*
X101165023Y-152812646D01*
X101121581Y-152865581D01*
X100954084Y-153003042D01*
X100954080Y-153003044D01*
X100954079Y-153003045D01*
X100762991Y-153105183D01*
X100709033Y-153121551D01*
X100555637Y-153168084D01*
X100340000Y-153189322D01*
X100124362Y-153168084D01*
X99970966Y-153121551D01*
X99917008Y-153105183D01*
X99725916Y-153003043D01*
X99589445Y-152891043D01*
X99558419Y-152865581D01*
X99420958Y-152698084D01*
X99420955Y-152698079D01*
X99318817Y-152506991D01*
X99284841Y-152394987D01*
X99255916Y-152299637D01*
X99240000Y-152138035D01*
X99240000Y-151329964D01*
X99255916Y-151168362D01*
X99289891Y-151056364D01*
X99318817Y-150961009D01*
X99420958Y-150769917D01*
X99558420Y-150602419D01*
X99725917Y-150464957D01*
X99917009Y-150362817D01*
X99970967Y-150346449D01*
X100124363Y-150299916D01*
X100340000Y-150278678D01*
X100555638Y-150299916D01*
X100555638Y-150299916D01*
G37*
G36*
X104055638Y-150299916D02*
G01*
X104209034Y-150346449D01*
X104262992Y-150362817D01*
X104454084Y-150464957D01*
X104621581Y-150602419D01*
X104759043Y-150769916D01*
X104861183Y-150961008D01*
X104861184Y-150961012D01*
X104924084Y-151168363D01*
X104940000Y-151329965D01*
X104940000Y-152138036D01*
X104924084Y-152299638D01*
X104895159Y-152394988D01*
X104861183Y-152506992D01*
X104759043Y-152698084D01*
X104665023Y-152812646D01*
X104621581Y-152865581D01*
X104454084Y-153003042D01*
X104454080Y-153003044D01*
X104454079Y-153003045D01*
X104262991Y-153105183D01*
X104209033Y-153121551D01*
X104055637Y-153168084D01*
X103840000Y-153189322D01*
X103624362Y-153168084D01*
X103470966Y-153121551D01*
X103417008Y-153105183D01*
X103225916Y-153003043D01*
X103089445Y-152891043D01*
X103058419Y-152865581D01*
X102920958Y-152698084D01*
X102920955Y-152698079D01*
X102818817Y-152506991D01*
X102784841Y-152394987D01*
X102755916Y-152299637D01*
X102740000Y-152138035D01*
X102740000Y-151329964D01*
X102755916Y-151168362D01*
X102789891Y-151056364D01*
X102818817Y-150961009D01*
X102920958Y-150769917D01*
X103058420Y-150602419D01*
X103225917Y-150464957D01*
X103417009Y-150362817D01*
X103470967Y-150346449D01*
X103624363Y-150299916D01*
X103840000Y-150278678D01*
X104055638Y-150299916D01*
X104055638Y-150299916D01*
G37*
G36*
X97055638Y-150299916D02*
G01*
X97209034Y-150346449D01*
X97262992Y-150362817D01*
X97454084Y-150464957D01*
X97621581Y-150602419D01*
X97759043Y-150769916D01*
X97861183Y-150961008D01*
X97861184Y-150961012D01*
X97924084Y-151168363D01*
X97940000Y-151329965D01*
X97940000Y-152138036D01*
X97924084Y-152299638D01*
X97895159Y-152394988D01*
X97861183Y-152506992D01*
X97759043Y-152698084D01*
X97665023Y-152812646D01*
X97621581Y-152865581D01*
X97454084Y-153003042D01*
X97454080Y-153003044D01*
X97454079Y-153003045D01*
X97262991Y-153105183D01*
X97209033Y-153121551D01*
X97055637Y-153168084D01*
X96840000Y-153189322D01*
X96624362Y-153168084D01*
X96470966Y-153121551D01*
X96417008Y-153105183D01*
X96225916Y-153003043D01*
X96089445Y-152891043D01*
X96058419Y-152865581D01*
X95920958Y-152698084D01*
X95920955Y-152698079D01*
X95818817Y-152506991D01*
X95784841Y-152394987D01*
X95755916Y-152299637D01*
X95740000Y-152138035D01*
X95740000Y-151329964D01*
X95755916Y-151168362D01*
X95789891Y-151056364D01*
X95818817Y-150961009D01*
X95920958Y-150769917D01*
X96058420Y-150602419D01*
X96225917Y-150464957D01*
X96417009Y-150362817D01*
X96470967Y-150346449D01*
X96624363Y-150299916D01*
X96840000Y-150278678D01*
X97055638Y-150299916D01*
X97055638Y-150299916D01*
G37*
G36*
X107555638Y-150299916D02*
G01*
X107709034Y-150346449D01*
X107762992Y-150362817D01*
X107954084Y-150464957D01*
X108121581Y-150602419D01*
X108259043Y-150769916D01*
X108361183Y-150961008D01*
X108361184Y-150961012D01*
X108424084Y-151168363D01*
X108440000Y-151329965D01*
X108440000Y-152138036D01*
X108424084Y-152299638D01*
X108395159Y-152394988D01*
X108361183Y-152506992D01*
X108259043Y-152698084D01*
X108165023Y-152812646D01*
X108121581Y-152865581D01*
X107954084Y-153003042D01*
X107954080Y-153003044D01*
X107954079Y-153003045D01*
X107762991Y-153105183D01*
X107709033Y-153121551D01*
X107555637Y-153168084D01*
X107340000Y-153189322D01*
X107124362Y-153168084D01*
X106970966Y-153121551D01*
X106917008Y-153105183D01*
X106725916Y-153003043D01*
X106589445Y-152891043D01*
X106558419Y-152865581D01*
X106420958Y-152698084D01*
X106420955Y-152698079D01*
X106318817Y-152506991D01*
X106284841Y-152394987D01*
X106255916Y-152299637D01*
X106240000Y-152138035D01*
X106240000Y-151329964D01*
X106255916Y-151168362D01*
X106289891Y-151056364D01*
X106318817Y-150961009D01*
X106420958Y-150769917D01*
X106558420Y-150602419D01*
X106725917Y-150464957D01*
X106917009Y-150362817D01*
X106970967Y-150346449D01*
X107124363Y-150299916D01*
X107340000Y-150278678D01*
X107555638Y-150299916D01*
X107555638Y-150299916D01*
G37*
G36*
X121855638Y-150187916D02*
G01*
X122009034Y-150234449D01*
X122062992Y-150250817D01*
X122254084Y-150352957D01*
X122421581Y-150490419D01*
X122559043Y-150657916D01*
X122661183Y-150849008D01*
X122661184Y-150849012D01*
X122724084Y-151056363D01*
X122740000Y-151217965D01*
X122740000Y-152026036D01*
X122724084Y-152187638D01*
X122677551Y-152341034D01*
X122661183Y-152394992D01*
X122559043Y-152586084D01*
X122467130Y-152698079D01*
X122421581Y-152753581D01*
X122254084Y-152891042D01*
X122254080Y-152891044D01*
X122254079Y-152891045D01*
X122062991Y-152993183D01*
X122030490Y-153003042D01*
X121855637Y-153056084D01*
X121640000Y-153077322D01*
X121424362Y-153056084D01*
X121249509Y-153003042D01*
X121217008Y-152993183D01*
X121025916Y-152891043D01*
X120911354Y-152797023D01*
X120858419Y-152753581D01*
X120720958Y-152586084D01*
X120713195Y-152571561D01*
X120618817Y-152394991D01*
X120589892Y-152299638D01*
X120555916Y-152187637D01*
X120540000Y-152026035D01*
X120540000Y-151217964D01*
X120555916Y-151056362D01*
X120584842Y-150961008D01*
X120618817Y-150849009D01*
X120720958Y-150657917D01*
X120858420Y-150490419D01*
X121025917Y-150352957D01*
X121217009Y-150250817D01*
X121270967Y-150234449D01*
X121424363Y-150187916D01*
X121640000Y-150166678D01*
X121855638Y-150187916D01*
X121855638Y-150187916D01*
G37*
G36*
X125355638Y-150187916D02*
G01*
X125509034Y-150234449D01*
X125562992Y-150250817D01*
X125754084Y-150352957D01*
X125921581Y-150490419D01*
X126059043Y-150657916D01*
X126161183Y-150849008D01*
X126161184Y-150849012D01*
X126224084Y-151056363D01*
X126240000Y-151217965D01*
X126240000Y-152026036D01*
X126224084Y-152187638D01*
X126177551Y-152341034D01*
X126161183Y-152394992D01*
X126059043Y-152586084D01*
X125967130Y-152698079D01*
X125921581Y-152753581D01*
X125754084Y-152891042D01*
X125754080Y-152891044D01*
X125754079Y-152891045D01*
X125562991Y-152993183D01*
X125530490Y-153003042D01*
X125355637Y-153056084D01*
X125140000Y-153077322D01*
X124924362Y-153056084D01*
X124749509Y-153003042D01*
X124717008Y-152993183D01*
X124525916Y-152891043D01*
X124411354Y-152797023D01*
X124358419Y-152753581D01*
X124220958Y-152586084D01*
X124213195Y-152571561D01*
X124118817Y-152394991D01*
X124089892Y-152299638D01*
X124055916Y-152187637D01*
X124040000Y-152026035D01*
X124040000Y-151217964D01*
X124055916Y-151056362D01*
X124084842Y-150961008D01*
X124118817Y-150849009D01*
X124220958Y-150657917D01*
X124358420Y-150490419D01*
X124525917Y-150352957D01*
X124717009Y-150250817D01*
X124770967Y-150234449D01*
X124924363Y-150187916D01*
X125140000Y-150166678D01*
X125355638Y-150187916D01*
X125355638Y-150187916D01*
G37*
G36*
X109583000Y-145103818D02*
G01*
X109575053Y-145108066D01*
X109556111Y-145123611D01*
X109540566Y-145142553D01*
X109529015Y-145164164D01*
X109521902Y-145187613D01*
X109519500Y-145211999D01*
X109519500Y-147563500D01*
X106960500Y-147563500D01*
X106960500Y-145211999D01*
X106958098Y-145187613D01*
X106950985Y-145164164D01*
X106939434Y-145142553D01*
X106923889Y-145123611D01*
X106904947Y-145108066D01*
X106897000Y-145103818D01*
X106897000Y-142401000D01*
X109583000Y-142401000D01*
X109583000Y-145103818D01*
X109583000Y-145103818D01*
G37*
G36*
X103940000Y-147384000D02*
G01*
X102740000Y-147384000D01*
X102740000Y-146084000D01*
X103940000Y-146084000D01*
X103940000Y-147384000D01*
X103940000Y-147384000D01*
G37*
G36*
X96440000Y-147384000D02*
G01*
X95240000Y-147384000D01*
X95240000Y-146084000D01*
X96440000Y-146084000D01*
X96440000Y-147384000D01*
X96440000Y-147384000D01*
G37*
G36*
X93833000Y-144103818D02*
G01*
X93825053Y-144108066D01*
X93806111Y-144123611D01*
X93790566Y-144142553D01*
X93779015Y-144164164D01*
X93771902Y-144187613D01*
X93769500Y-144211999D01*
X93769500Y-146563500D01*
X91210500Y-146563500D01*
X91210500Y-144211999D01*
X91208098Y-144187613D01*
X91200985Y-144164164D01*
X91189434Y-144142553D01*
X91173889Y-144123611D01*
X91154947Y-144108066D01*
X91147000Y-144103818D01*
X91147000Y-141401000D01*
X93833000Y-141401000D01*
X93833000Y-144103818D01*
X93833000Y-144103818D01*
G37*
G36*
X88095000Y-146310000D02*
G01*
X84995000Y-146310000D01*
X84995000Y-142710000D01*
X88095000Y-142710000D01*
X88095000Y-146310000D01*
X88095000Y-146310000D01*
G37*
G36*
X80195000Y-146310000D02*
G01*
X77095000Y-146310000D01*
X77095000Y-142710000D01*
X80195000Y-142710000D01*
X80195000Y-146310000D01*
X80195000Y-146310000D01*
G37*
G36*
X90490000Y-145484000D02*
G01*
X88490000Y-145484000D01*
X88490000Y-144084000D01*
X90490000Y-144084000D01*
X90490000Y-145484000D01*
X90490000Y-145484000D01*
G37*
G36*
X95490000Y-145384000D02*
G01*
X94290000Y-145384000D01*
X94290000Y-144084000D01*
X95490000Y-144084000D01*
X95490000Y-145384000D01*
X95490000Y-145384000D01*
G37*
G36*
X104890000Y-145384000D02*
G01*
X103690000Y-145384000D01*
X103690000Y-144084000D01*
X104890000Y-144084000D01*
X104890000Y-145384000D01*
X104890000Y-145384000D01*
G37*
G36*
X102990000Y-145384000D02*
G01*
X101790000Y-145384000D01*
X101790000Y-144084000D01*
X102990000Y-144084000D01*
X102990000Y-145384000D01*
X102990000Y-145384000D01*
G37*
G36*
X97390000Y-145384000D02*
G01*
X96190000Y-145384000D01*
X96190000Y-144084000D01*
X97390000Y-144084000D01*
X97390000Y-145384000D01*
X97390000Y-145384000D01*
G37*
G36*
X97430000Y-143455000D02*
G01*
X96330000Y-143455000D01*
X96330000Y-141755000D01*
X97430000Y-141755000D01*
X97430000Y-143455000D01*
X97430000Y-143455000D01*
G37*
G36*
X95530000Y-143455000D02*
G01*
X94430000Y-143455000D01*
X94430000Y-141755000D01*
X95530000Y-141755000D01*
X95530000Y-143455000D01*
X95530000Y-143455000D01*
G37*
G36*
X105050000Y-143455000D02*
G01*
X103950000Y-143455000D01*
X103950000Y-141755000D01*
X105050000Y-141755000D01*
X105050000Y-143455000D01*
X105050000Y-143455000D01*
G37*
G36*
X103150000Y-143455000D02*
G01*
X102050000Y-143455000D01*
X102050000Y-141755000D01*
X103150000Y-141755000D01*
X103150000Y-143455000D01*
X103150000Y-143455000D01*
G37*
G36*
X127797714Y-140775788D02*
G01*
X127915241Y-140787363D01*
X128141442Y-140855981D01*
X128141445Y-140855982D01*
X128349910Y-140967408D01*
X128532634Y-141117366D01*
X128682592Y-141300090D01*
X128794018Y-141508555D01*
X128794019Y-141508558D01*
X128862637Y-141734759D01*
X128885806Y-141970000D01*
X128862637Y-142205241D01*
X128794019Y-142431442D01*
X128794018Y-142431445D01*
X128682592Y-142639910D01*
X128532634Y-142822634D01*
X128349910Y-142972592D01*
X128141445Y-143084018D01*
X128141442Y-143084019D01*
X127915241Y-143152637D01*
X127797714Y-143164212D01*
X127738951Y-143170000D01*
X127621049Y-143170000D01*
X127562286Y-143164212D01*
X127444759Y-143152637D01*
X127218558Y-143084019D01*
X127218555Y-143084018D01*
X127010090Y-142972592D01*
X126827366Y-142822634D01*
X126677408Y-142639910D01*
X126565982Y-142431445D01*
X126565981Y-142431442D01*
X126497363Y-142205241D01*
X126474194Y-141970000D01*
X126497363Y-141734759D01*
X126565981Y-141508558D01*
X126565982Y-141508555D01*
X126677408Y-141300090D01*
X126827366Y-141117366D01*
X127010090Y-140967408D01*
X127218555Y-140855982D01*
X127218558Y-140855981D01*
X127444759Y-140787363D01*
X127562286Y-140775788D01*
X127621049Y-140770000D01*
X127738951Y-140770000D01*
X127797714Y-140775788D01*
X127797714Y-140775788D01*
G37*
G36*
X122717714Y-140775788D02*
G01*
X122835241Y-140787363D01*
X123061442Y-140855981D01*
X123061445Y-140855982D01*
X123269910Y-140967408D01*
X123452634Y-141117366D01*
X123602592Y-141300090D01*
X123714018Y-141508555D01*
X123714019Y-141508558D01*
X123782637Y-141734759D01*
X123805806Y-141970000D01*
X123782637Y-142205241D01*
X123714019Y-142431442D01*
X123714018Y-142431445D01*
X123602592Y-142639910D01*
X123452634Y-142822634D01*
X123269910Y-142972592D01*
X123061445Y-143084018D01*
X123061442Y-143084019D01*
X122835241Y-143152637D01*
X122717714Y-143164212D01*
X122658951Y-143170000D01*
X122541049Y-143170000D01*
X122482286Y-143164212D01*
X122364759Y-143152637D01*
X122138558Y-143084019D01*
X122138555Y-143084018D01*
X121930090Y-142972592D01*
X121747366Y-142822634D01*
X121597408Y-142639910D01*
X121485982Y-142431445D01*
X121485981Y-142431442D01*
X121417363Y-142205241D01*
X121394194Y-141970000D01*
X121417363Y-141734759D01*
X121485981Y-141508558D01*
X121485982Y-141508555D01*
X121597408Y-141300090D01*
X121747366Y-141117366D01*
X121930090Y-140967408D01*
X122138555Y-140855982D01*
X122138558Y-140855981D01*
X122364759Y-140787363D01*
X122482286Y-140775788D01*
X122541049Y-140770000D01*
X122658951Y-140770000D01*
X122717714Y-140775788D01*
X122717714Y-140775788D01*
G37*
G36*
X90490000Y-142484000D02*
G01*
X88490000Y-142484000D01*
X88490000Y-141084000D01*
X90490000Y-141084000D01*
X90490000Y-142484000D01*
X90490000Y-142484000D01*
G37*
G36*
X112370000Y-140630000D02*
G01*
X109970000Y-140630000D01*
X109970000Y-138230000D01*
X112370000Y-138230000D01*
X112370000Y-140630000D01*
X112370000Y-140630000D01*
G37*
G36*
X116520026Y-138276115D02*
G01*
X116738411Y-138366573D01*
X116738413Y-138366574D01*
X116833337Y-138430000D01*
X116934955Y-138497899D01*
X117102101Y-138665045D01*
X117233427Y-138861589D01*
X117323885Y-139079974D01*
X117370000Y-139311809D01*
X117370000Y-139548191D01*
X117323885Y-139780026D01*
X117233427Y-139998411D01*
X117233426Y-139998413D01*
X117102101Y-140194955D01*
X116934955Y-140362101D01*
X116738413Y-140493426D01*
X116738412Y-140493427D01*
X116738411Y-140493427D01*
X116520026Y-140583885D01*
X116288191Y-140630000D01*
X116051809Y-140630000D01*
X115819974Y-140583885D01*
X115601589Y-140493427D01*
X115601588Y-140493427D01*
X115601587Y-140493426D01*
X115405045Y-140362101D01*
X115237899Y-140194955D01*
X115106574Y-139998413D01*
X115106573Y-139998411D01*
X115016115Y-139780026D01*
X114970000Y-139548191D01*
X114970000Y-139311809D01*
X115016115Y-139079974D01*
X115106573Y-138861589D01*
X115237899Y-138665045D01*
X115405045Y-138497899D01*
X115506663Y-138430000D01*
X115601587Y-138366574D01*
X115601589Y-138366573D01*
X115819974Y-138276115D01*
X116051809Y-138230000D01*
X116288191Y-138230000D01*
X116520026Y-138276115D01*
X116520026Y-138276115D01*
G37*
G36*
X79381032Y-138444469D02*
G01*
X79475285Y-138473061D01*
X79569535Y-138501651D01*
X79569537Y-138501652D01*
X79743258Y-138594507D01*
X79895528Y-138719472D01*
X80020493Y-138871742D01*
X80113348Y-139045463D01*
X80170531Y-139233968D01*
X80189838Y-139430000D01*
X80170531Y-139626032D01*
X80113348Y-139814537D01*
X80020493Y-139988258D01*
X79895528Y-140140528D01*
X79743258Y-140265493D01*
X79569537Y-140358348D01*
X79569535Y-140358349D01*
X79475285Y-140386939D01*
X79381032Y-140415531D01*
X79234124Y-140430000D01*
X78335876Y-140430000D01*
X78188968Y-140415531D01*
X78094716Y-140386940D01*
X78000465Y-140358349D01*
X78000463Y-140358348D01*
X77826742Y-140265493D01*
X77674472Y-140140528D01*
X77549507Y-139988258D01*
X77456652Y-139814537D01*
X77399469Y-139626032D01*
X77380162Y-139430000D01*
X77399469Y-139233968D01*
X77456652Y-139045463D01*
X77549507Y-138871742D01*
X77674472Y-138719472D01*
X77826742Y-138594507D01*
X78000463Y-138501652D01*
X78000465Y-138501651D01*
X78094715Y-138473061D01*
X78188968Y-138444469D01*
X78335876Y-138430000D01*
X79234124Y-138430000D01*
X79381032Y-138444469D01*
X79381032Y-138444469D01*
G37*
G36*
X87805000Y-140430000D02*
G01*
X85005000Y-140430000D01*
X85005000Y-138430000D01*
X87805000Y-138430000D01*
X87805000Y-140430000D01*
X87805000Y-140430000D01*
G37*
G36*
X95510000Y-139914000D02*
G01*
X93810000Y-139914000D01*
X93810000Y-138814000D01*
X95510000Y-138814000D01*
X95510000Y-139914000D01*
X95510000Y-139914000D01*
G37*
G36*
X98685000Y-139914000D02*
G01*
X96985000Y-139914000D01*
X96985000Y-138814000D01*
X98685000Y-138814000D01*
X98685000Y-139914000D01*
X98685000Y-139914000D01*
G37*
G36*
X123800000Y-138090000D02*
G01*
X121400000Y-138090000D01*
X121400000Y-135690000D01*
X123800000Y-135690000D01*
X123800000Y-138090000D01*
X123800000Y-138090000D01*
G37*
G36*
X127797714Y-135695788D02*
G01*
X127915241Y-135707363D01*
X128141442Y-135775981D01*
X128141445Y-135775982D01*
X128349910Y-135887408D01*
X128532634Y-136037366D01*
X128682592Y-136220090D01*
X128794018Y-136428555D01*
X128794019Y-136428558D01*
X128862637Y-136654759D01*
X128885806Y-136890000D01*
X128862637Y-137125241D01*
X128817348Y-137274537D01*
X128794018Y-137351445D01*
X128682592Y-137559910D01*
X128532634Y-137742634D01*
X128349910Y-137892592D01*
X128141445Y-138004018D01*
X128141442Y-138004019D01*
X127915241Y-138072637D01*
X127797714Y-138084212D01*
X127738951Y-138090000D01*
X127621049Y-138090000D01*
X127562286Y-138084212D01*
X127444759Y-138072637D01*
X127218558Y-138004019D01*
X127218555Y-138004018D01*
X127010090Y-137892592D01*
X126827366Y-137742634D01*
X126677408Y-137559910D01*
X126565982Y-137351445D01*
X126542652Y-137274537D01*
X126497363Y-137125241D01*
X126474194Y-136890000D01*
X126497363Y-136654759D01*
X126565981Y-136428558D01*
X126565982Y-136428555D01*
X126677408Y-136220090D01*
X126827366Y-136037366D01*
X127010090Y-135887408D01*
X127218555Y-135775982D01*
X127218558Y-135775981D01*
X127444759Y-135707363D01*
X127562286Y-135695788D01*
X127621049Y-135690000D01*
X127738951Y-135690000D01*
X127797714Y-135695788D01*
X127797714Y-135695788D01*
G37*
G36*
X98685000Y-138014000D02*
G01*
X96985000Y-138014000D01*
X96985000Y-136914000D01*
X98685000Y-136914000D01*
X98685000Y-138014000D01*
X98685000Y-138014000D01*
G37*
G36*
X95510000Y-138014000D02*
G01*
X93810000Y-138014000D01*
X93810000Y-136914000D01*
X95510000Y-136914000D01*
X95510000Y-138014000D01*
X95510000Y-138014000D01*
G37*
G36*
X87001032Y-135904469D02*
G01*
X87095285Y-135933061D01*
X87189535Y-135961651D01*
X87189537Y-135961652D01*
X87363258Y-136054507D01*
X87515528Y-136179472D01*
X87640493Y-136331742D01*
X87733348Y-136505463D01*
X87790531Y-136693968D01*
X87809838Y-136890000D01*
X87790531Y-137086032D01*
X87733348Y-137274537D01*
X87640493Y-137448258D01*
X87515528Y-137600528D01*
X87363258Y-137725493D01*
X87189537Y-137818348D01*
X87189535Y-137818349D01*
X87095284Y-137846940D01*
X87001032Y-137875531D01*
X86854124Y-137890000D01*
X85955876Y-137890000D01*
X85808968Y-137875531D01*
X85714716Y-137846940D01*
X85620465Y-137818349D01*
X85620463Y-137818348D01*
X85446742Y-137725493D01*
X85294472Y-137600528D01*
X85169507Y-137448258D01*
X85076652Y-137274537D01*
X85019469Y-137086032D01*
X85000162Y-136890000D01*
X85019469Y-136693968D01*
X85076652Y-136505463D01*
X85169507Y-136331742D01*
X85294472Y-136179472D01*
X85446742Y-136054507D01*
X85620463Y-135961652D01*
X85620465Y-135961651D01*
X85714715Y-135933061D01*
X85808968Y-135904469D01*
X85955876Y-135890000D01*
X86854124Y-135890000D01*
X87001032Y-135904469D01*
X87001032Y-135904469D01*
G37*
G36*
X79381032Y-135904469D02*
G01*
X79475285Y-135933061D01*
X79569535Y-135961651D01*
X79569537Y-135961652D01*
X79743258Y-136054507D01*
X79895528Y-136179472D01*
X80020493Y-136331742D01*
X80113348Y-136505463D01*
X80170531Y-136693968D01*
X80189838Y-136890000D01*
X80170531Y-137086032D01*
X80113348Y-137274537D01*
X80020493Y-137448258D01*
X79895528Y-137600528D01*
X79743258Y-137725493D01*
X79569537Y-137818348D01*
X79569535Y-137818349D01*
X79475284Y-137846940D01*
X79381032Y-137875531D01*
X79234124Y-137890000D01*
X78335876Y-137890000D01*
X78188968Y-137875531D01*
X78094716Y-137846940D01*
X78000465Y-137818349D01*
X78000463Y-137818348D01*
X77826742Y-137725493D01*
X77674472Y-137600528D01*
X77549507Y-137448258D01*
X77456652Y-137274537D01*
X77399469Y-137086032D01*
X77380162Y-136890000D01*
X77399469Y-136693968D01*
X77456652Y-136505463D01*
X77549507Y-136331742D01*
X77674472Y-136179472D01*
X77826742Y-136054507D01*
X78000463Y-135961652D01*
X78000465Y-135961651D01*
X78094715Y-135933061D01*
X78188968Y-135904469D01*
X78335876Y-135890000D01*
X79234124Y-135890000D01*
X79381032Y-135904469D01*
X79381032Y-135904469D01*
G37*
G36*
X100710000Y-137715000D02*
G01*
X99310000Y-137715000D01*
X99310000Y-136065000D01*
X100710000Y-136065000D01*
X100710000Y-137715000D01*
X100710000Y-137715000D01*
G37*
G36*
X102710000Y-137715000D02*
G01*
X101310000Y-137715000D01*
X101310000Y-136065000D01*
X102710000Y-136065000D01*
X102710000Y-137715000D01*
X102710000Y-137715000D01*
G37*
G36*
X107775000Y-137085000D02*
G01*
X105675000Y-137085000D01*
X105675000Y-135785000D01*
X107775000Y-135785000D01*
X107775000Y-137085000D01*
X107775000Y-137085000D01*
G37*
G36*
X105235000Y-137085000D02*
G01*
X103135000Y-137085000D01*
X103135000Y-135785000D01*
X105235000Y-135785000D01*
X105235000Y-137085000D01*
X105235000Y-137085000D01*
G37*
G36*
X94695000Y-135865000D02*
G01*
X92095000Y-135865000D01*
X92095000Y-131565000D01*
X94695000Y-131565000D01*
X94695000Y-135865000D01*
X94695000Y-135865000D01*
G37*
G36*
X98495000Y-135865000D02*
G01*
X95895000Y-135865000D01*
X95895000Y-131565000D01*
X98495000Y-131565000D01*
X98495000Y-135865000D01*
X98495000Y-135865000D01*
G37*
G36*
X79381032Y-133364469D02*
G01*
X79475284Y-133393060D01*
X79569535Y-133421651D01*
X79569537Y-133421652D01*
X79743258Y-133514507D01*
X79895528Y-133639472D01*
X80020493Y-133791742D01*
X80113348Y-133965463D01*
X80170531Y-134153968D01*
X80189838Y-134350000D01*
X80170531Y-134546032D01*
X80113348Y-134734537D01*
X80020493Y-134908258D01*
X79895528Y-135060528D01*
X79743258Y-135185493D01*
X79569537Y-135278348D01*
X79569535Y-135278349D01*
X79475285Y-135306939D01*
X79381032Y-135335531D01*
X79234124Y-135350000D01*
X78335876Y-135350000D01*
X78188968Y-135335531D01*
X78094715Y-135306939D01*
X78000465Y-135278349D01*
X78000463Y-135278348D01*
X77826742Y-135185493D01*
X77674472Y-135060528D01*
X77549507Y-134908258D01*
X77456652Y-134734537D01*
X77399469Y-134546032D01*
X77380162Y-134350000D01*
X77399469Y-134153968D01*
X77456652Y-133965463D01*
X77549507Y-133791742D01*
X77674472Y-133639472D01*
X77826742Y-133514507D01*
X78000463Y-133421652D01*
X78000465Y-133421651D01*
X78094716Y-133393060D01*
X78188968Y-133364469D01*
X78335876Y-133350000D01*
X79234124Y-133350000D01*
X79381032Y-133364469D01*
X79381032Y-133364469D01*
G37*
G36*
X87001032Y-133364469D02*
G01*
X87095284Y-133393060D01*
X87189535Y-133421651D01*
X87189537Y-133421652D01*
X87363258Y-133514507D01*
X87515528Y-133639472D01*
X87640493Y-133791742D01*
X87733348Y-133965463D01*
X87790531Y-134153968D01*
X87809838Y-134350000D01*
X87790531Y-134546032D01*
X87733348Y-134734537D01*
X87640493Y-134908258D01*
X87515528Y-135060528D01*
X87363258Y-135185493D01*
X87189537Y-135278348D01*
X87189535Y-135278349D01*
X87095285Y-135306939D01*
X87001032Y-135335531D01*
X86854124Y-135350000D01*
X85955876Y-135350000D01*
X85808968Y-135335531D01*
X85714715Y-135306939D01*
X85620465Y-135278349D01*
X85620463Y-135278348D01*
X85446742Y-135185493D01*
X85294472Y-135060528D01*
X85169507Y-134908258D01*
X85076652Y-134734537D01*
X85019469Y-134546032D01*
X85000162Y-134350000D01*
X85019469Y-134153968D01*
X85076652Y-133965463D01*
X85169507Y-133791742D01*
X85294472Y-133639472D01*
X85446742Y-133514507D01*
X85620463Y-133421652D01*
X85620465Y-133421651D01*
X85714716Y-133393060D01*
X85808968Y-133364469D01*
X85955876Y-133350000D01*
X86854124Y-133350000D01*
X87001032Y-133364469D01*
X87001032Y-133364469D01*
G37*
G36*
X102840000Y-135190000D02*
G01*
X101380000Y-135190000D01*
X101380000Y-132240000D01*
X102840000Y-132240000D01*
X102840000Y-135190000D01*
X102840000Y-135190000D01*
G37*
G36*
X100640000Y-135190000D02*
G01*
X99180000Y-135190000D01*
X99180000Y-132240000D01*
X100640000Y-132240000D01*
X100640000Y-135190000D01*
X100640000Y-135190000D01*
G37*
G36*
X107775000Y-134185000D02*
G01*
X105675000Y-134185000D01*
X105675000Y-132885000D01*
X107775000Y-132885000D01*
X107775000Y-134185000D01*
X107775000Y-134185000D01*
G37*
G36*
X105235000Y-134185000D02*
G01*
X103135000Y-134185000D01*
X103135000Y-132885000D01*
X105235000Y-132885000D01*
X105235000Y-134185000D01*
X105235000Y-134185000D01*
G37*
G36*
X122430000Y-132450000D02*
G01*
X120230000Y-132450000D01*
X120230000Y-128550000D01*
X122430000Y-128550000D01*
X122430000Y-132450000D01*
X122430000Y-132450000D01*
G37*
G36*
X130045000Y-132415000D02*
G01*
X124045000Y-132415000D01*
X124045000Y-129715000D01*
X130045000Y-129715000D01*
X130045000Y-132415000D01*
X130045000Y-132415000D01*
G37*
G36*
X105490000Y-132234000D02*
G01*
X103490000Y-132234000D01*
X103490000Y-130834000D01*
X105490000Y-130834000D01*
X105490000Y-132234000D01*
X105490000Y-132234000D01*
G37*
G36*
X84450000Y-132225000D02*
G01*
X83150000Y-132225000D01*
X83150000Y-130125000D01*
X84450000Y-130125000D01*
X84450000Y-132225000D01*
X84450000Y-132225000D01*
G37*
G36*
X87350000Y-132225000D02*
G01*
X86050000Y-132225000D01*
X86050000Y-130125000D01*
X87350000Y-130125000D01*
X87350000Y-132225000D01*
X87350000Y-132225000D01*
G37*
G36*
X82690000Y-131784000D02*
G01*
X80790000Y-131784000D01*
X80790000Y-128784000D01*
X82690000Y-128784000D01*
X82690000Y-131784000D01*
X82690000Y-131784000D01*
G37*
G36*
X79690000Y-131784000D02*
G01*
X77790000Y-131784000D01*
X77790000Y-128784000D01*
X79690000Y-128784000D01*
X79690000Y-131784000D01*
X79690000Y-131784000D01*
G37*
G36*
X103105000Y-131605000D02*
G01*
X101455000Y-131605000D01*
X101455000Y-130205000D01*
X103105000Y-130205000D01*
X103105000Y-131605000D01*
X103105000Y-131605000D01*
G37*
G36*
X101015000Y-130370000D02*
G01*
X97115000Y-130370000D01*
X97115000Y-128170000D01*
X101015000Y-128170000D01*
X101015000Y-130370000D01*
X101015000Y-130370000D01*
G37*
G36*
X96015000Y-130370000D02*
G01*
X92115000Y-130370000D01*
X92115000Y-128170000D01*
X96015000Y-128170000D01*
X96015000Y-130370000D01*
X96015000Y-130370000D01*
G37*
G36*
X87350000Y-129685000D02*
G01*
X86050000Y-129685000D01*
X86050000Y-127585000D01*
X87350000Y-127585000D01*
X87350000Y-129685000D01*
X87350000Y-129685000D01*
G37*
G36*
X84450000Y-129685000D02*
G01*
X83150000Y-129685000D01*
X83150000Y-127585000D01*
X84450000Y-127585000D01*
X84450000Y-129685000D01*
X84450000Y-129685000D01*
G37*
G36*
X103105000Y-129605000D02*
G01*
X101455000Y-129605000D01*
X101455000Y-128205000D01*
X103105000Y-128205000D01*
X103105000Y-129605000D01*
X103105000Y-129605000D01*
G37*
G36*
X105490000Y-129234000D02*
G01*
X103490000Y-129234000D01*
X103490000Y-127834000D01*
X105490000Y-127834000D01*
X105490000Y-129234000D01*
X105490000Y-129234000D01*
G37*
G36*
X112370000Y-129200000D02*
G01*
X109970000Y-129200000D01*
X109970000Y-126800000D01*
X112370000Y-126800000D01*
X112370000Y-129200000D01*
X112370000Y-129200000D01*
G37*
G36*
X116520026Y-126846115D02*
G01*
X116738411Y-126936573D01*
X116738413Y-126936574D01*
X116760404Y-126951268D01*
X116934955Y-127067899D01*
X117102101Y-127235045D01*
X117233427Y-127431589D01*
X117323885Y-127649974D01*
X117370000Y-127881809D01*
X117370000Y-128118191D01*
X117323885Y-128350026D01*
X117241053Y-128550000D01*
X117233426Y-128568413D01*
X117102101Y-128764955D01*
X116934955Y-128932101D01*
X116738413Y-129063426D01*
X116738412Y-129063427D01*
X116738411Y-129063427D01*
X116520026Y-129153885D01*
X116288191Y-129200000D01*
X116051809Y-129200000D01*
X115819974Y-129153885D01*
X115601589Y-129063427D01*
X115601588Y-129063427D01*
X115601587Y-129063426D01*
X115405045Y-128932101D01*
X115237899Y-128764955D01*
X115106574Y-128568413D01*
X115098947Y-128550000D01*
X115016115Y-128350026D01*
X114970000Y-128118191D01*
X114970000Y-127881809D01*
X115016115Y-127649974D01*
X115106573Y-127431589D01*
X115237899Y-127235045D01*
X115405045Y-127067899D01*
X115579596Y-126951268D01*
X115601587Y-126936574D01*
X115601589Y-126936573D01*
X115819974Y-126846115D01*
X116051809Y-126800000D01*
X116288191Y-126800000D01*
X116520026Y-126846115D01*
X116520026Y-126846115D01*
G37*
G36*
X122430000Y-127450000D02*
G01*
X120230000Y-127450000D01*
X120230000Y-123550000D01*
X122430000Y-123550000D01*
X122430000Y-127450000D01*
X122430000Y-127450000D01*
G37*
G36*
X80118707Y-125031596D02*
G01*
X80195836Y-125039193D01*
X80393762Y-125099233D01*
X80393765Y-125099234D01*
X80576170Y-125196732D01*
X80736055Y-125327945D01*
X80867268Y-125487830D01*
X80964766Y-125670235D01*
X80964767Y-125670238D01*
X81024807Y-125868164D01*
X81045080Y-126074000D01*
X81024807Y-126279836D01*
X80964767Y-126477762D01*
X80964766Y-126477765D01*
X80867268Y-126660170D01*
X80736055Y-126820055D01*
X80576170Y-126951268D01*
X80393765Y-127048766D01*
X80393762Y-127048767D01*
X80195836Y-127108807D01*
X80118707Y-127116404D01*
X80041580Y-127124000D01*
X79938420Y-127124000D01*
X79861293Y-127116404D01*
X79784164Y-127108807D01*
X79586238Y-127048767D01*
X79586235Y-127048766D01*
X79403830Y-126951268D01*
X79243945Y-126820055D01*
X79112732Y-126660170D01*
X79015234Y-126477765D01*
X79015233Y-126477762D01*
X78955193Y-126279836D01*
X78934920Y-126074000D01*
X78955193Y-125868164D01*
X79015233Y-125670238D01*
X79015234Y-125670235D01*
X79112732Y-125487830D01*
X79243945Y-125327945D01*
X79403830Y-125196732D01*
X79586235Y-125099234D01*
X79586238Y-125099233D01*
X79784164Y-125039193D01*
X79861293Y-125031596D01*
X79938420Y-125024000D01*
X80041580Y-125024000D01*
X80118707Y-125031596D01*
X80118707Y-125031596D01*
G37*
G36*
X88725000Y-126510000D02*
G01*
X86625000Y-126510000D01*
X86625000Y-124410000D01*
X88725000Y-124410000D01*
X88725000Y-126510000D01*
X88725000Y-126510000D01*
G37*
G36*
X103899877Y-123671605D02*
G01*
X104118170Y-123762025D01*
X104118172Y-123762026D01*
X104314630Y-123893295D01*
X104481705Y-124060370D01*
X104612975Y-124256830D01*
X104703395Y-124475123D01*
X104749490Y-124706859D01*
X104749490Y-124943141D01*
X104703395Y-125174877D01*
X104612975Y-125393170D01*
X104612974Y-125393172D01*
X104481705Y-125589630D01*
X104314630Y-125756705D01*
X104118172Y-125887974D01*
X104118171Y-125887975D01*
X104118170Y-125887975D01*
X103899877Y-125978395D01*
X103668141Y-126024490D01*
X103431859Y-126024490D01*
X103200123Y-125978395D01*
X102981830Y-125887975D01*
X102981829Y-125887975D01*
X102981828Y-125887974D01*
X102785370Y-125756705D01*
X102618295Y-125589630D01*
X102487026Y-125393172D01*
X102487025Y-125393170D01*
X102396605Y-125174877D01*
X102350510Y-124943141D01*
X102350510Y-124706859D01*
X102396605Y-124475123D01*
X102487025Y-124256830D01*
X102618295Y-124060370D01*
X102785370Y-123893295D01*
X102981828Y-123762026D01*
X102981830Y-123762025D01*
X103200123Y-123671605D01*
X103431859Y-123625510D01*
X103668141Y-123625510D01*
X103899877Y-123671605D01*
X103899877Y-123671605D01*
G37*
G36*
X96693707Y-123782597D02*
G01*
X96770836Y-123790193D01*
X96968762Y-123850233D01*
X96968765Y-123850234D01*
X97151170Y-123947732D01*
X97311055Y-124078945D01*
X97442268Y-124238830D01*
X97539766Y-124421235D01*
X97539767Y-124421238D01*
X97599807Y-124619164D01*
X97620080Y-124825000D01*
X97599807Y-125030836D01*
X97556113Y-125174877D01*
X97539766Y-125228765D01*
X97442268Y-125411170D01*
X97311055Y-125571055D01*
X97151170Y-125702268D01*
X96968765Y-125799766D01*
X96968762Y-125799767D01*
X96770836Y-125859807D01*
X96693707Y-125867404D01*
X96616580Y-125875000D01*
X96513420Y-125875000D01*
X96436293Y-125867404D01*
X96359164Y-125859807D01*
X96161238Y-125799767D01*
X96161235Y-125799766D01*
X95978830Y-125702268D01*
X95818945Y-125571055D01*
X95687732Y-125411170D01*
X95590234Y-125228765D01*
X95573887Y-125174877D01*
X95530193Y-125030836D01*
X95509920Y-124825000D01*
X95530193Y-124619164D01*
X95590233Y-124421238D01*
X95590234Y-124421235D01*
X95687732Y-124238830D01*
X95818945Y-124078945D01*
X95978830Y-123947732D01*
X96161235Y-123850234D01*
X96161238Y-123850233D01*
X96359164Y-123790193D01*
X96436293Y-123782597D01*
X96513420Y-123775000D01*
X96616580Y-123775000D01*
X96693707Y-123782597D01*
X96693707Y-123782597D01*
G37*
G36*
X100155000Y-125875000D02*
G01*
X98055000Y-125875000D01*
X98055000Y-123775000D01*
X100155000Y-123775000D01*
X100155000Y-125875000D01*
X100155000Y-125875000D01*
G37*
G36*
X94153707Y-123782597D02*
G01*
X94230836Y-123790193D01*
X94428762Y-123850233D01*
X94428765Y-123850234D01*
X94611170Y-123947732D01*
X94771055Y-124078945D01*
X94902268Y-124238830D01*
X94999766Y-124421235D01*
X94999767Y-124421238D01*
X95059807Y-124619164D01*
X95080080Y-124825000D01*
X95059807Y-125030836D01*
X95016113Y-125174877D01*
X94999766Y-125228765D01*
X94902268Y-125411170D01*
X94771055Y-125571055D01*
X94611170Y-125702268D01*
X94428765Y-125799766D01*
X94428762Y-125799767D01*
X94230836Y-125859807D01*
X94153707Y-125867404D01*
X94076580Y-125875000D01*
X93973420Y-125875000D01*
X93896293Y-125867404D01*
X93819164Y-125859807D01*
X93621238Y-125799767D01*
X93621235Y-125799766D01*
X93438830Y-125702268D01*
X93278945Y-125571055D01*
X93147732Y-125411170D01*
X93050234Y-125228765D01*
X93033887Y-125174877D01*
X92990193Y-125030836D01*
X92969920Y-124825000D01*
X92990193Y-124619164D01*
X93050233Y-124421238D01*
X93050234Y-124421235D01*
X93147732Y-124238830D01*
X93278945Y-124078945D01*
X93438830Y-123947732D01*
X93621235Y-123850234D01*
X93621238Y-123850233D01*
X93819164Y-123790193D01*
X93896293Y-123782597D01*
X93973420Y-123775000D01*
X94076580Y-123775000D01*
X94153707Y-123782597D01*
X94153707Y-123782597D01*
G37*
G36*
X83826000Y-125690000D02*
G01*
X82126000Y-125690000D01*
X82126000Y-124590000D01*
X83826000Y-124590000D01*
X83826000Y-125690000D01*
X83826000Y-125690000D01*
G37*
G36*
X130045000Y-125015000D02*
G01*
X124045000Y-125015000D01*
X124045000Y-122315000D01*
X130045000Y-122315000D01*
X130045000Y-125015000D01*
X130045000Y-125015000D01*
G37*
G36*
X81040000Y-124584000D02*
G01*
X78940000Y-124584000D01*
X78940000Y-122484000D01*
X81040000Y-122484000D01*
X81040000Y-124584000D01*
X81040000Y-124584000D01*
G37*
G36*
X87803707Y-121877597D02*
G01*
X87880836Y-121885193D01*
X88078762Y-121945233D01*
X88078765Y-121945234D01*
X88261170Y-122042732D01*
X88421055Y-122173945D01*
X88552268Y-122333830D01*
X88649766Y-122516235D01*
X88649767Y-122516238D01*
X88709807Y-122714164D01*
X88730080Y-122920000D01*
X88709807Y-123125836D01*
X88649767Y-123323762D01*
X88649766Y-123323765D01*
X88552268Y-123506170D01*
X88421055Y-123666055D01*
X88261170Y-123797268D01*
X88078765Y-123894766D01*
X88078762Y-123894767D01*
X87880836Y-123954807D01*
X87803707Y-123962403D01*
X87726580Y-123970000D01*
X87623420Y-123970000D01*
X87546293Y-123962403D01*
X87469164Y-123954807D01*
X87271238Y-123894767D01*
X87271235Y-123894766D01*
X87088830Y-123797268D01*
X86928945Y-123666055D01*
X86797732Y-123506170D01*
X86700234Y-123323765D01*
X86700233Y-123323762D01*
X86640193Y-123125836D01*
X86619920Y-122920000D01*
X86640193Y-122714164D01*
X86700233Y-122516238D01*
X86700234Y-122516235D01*
X86797732Y-122333830D01*
X86928945Y-122173945D01*
X87088830Y-122042732D01*
X87271235Y-121945234D01*
X87271238Y-121945233D01*
X87469164Y-121885193D01*
X87546293Y-121877597D01*
X87623420Y-121870000D01*
X87726580Y-121870000D01*
X87803707Y-121877597D01*
X87803707Y-121877597D01*
G37*
G36*
X83826000Y-123790000D02*
G01*
X82126000Y-123790000D01*
X82126000Y-122690000D01*
X83826000Y-122690000D01*
X83826000Y-123790000D01*
X83826000Y-123790000D01*
G37*
G36*
X87803707Y-119337596D02*
G01*
X87880836Y-119345193D01*
X88078762Y-119405233D01*
X88078765Y-119405234D01*
X88261170Y-119502732D01*
X88421055Y-119633945D01*
X88552268Y-119793830D01*
X88649766Y-119976235D01*
X88649767Y-119976238D01*
X88709807Y-120174164D01*
X88730080Y-120380000D01*
X88709807Y-120585836D01*
X88684883Y-120668000D01*
X88649766Y-120783765D01*
X88552268Y-120966170D01*
X88421055Y-121126055D01*
X88261170Y-121257268D01*
X88078765Y-121354766D01*
X88078762Y-121354767D01*
X87880836Y-121414807D01*
X87803707Y-121422403D01*
X87726580Y-121430000D01*
X87623420Y-121430000D01*
X87546293Y-121422403D01*
X87469164Y-121414807D01*
X87271238Y-121354767D01*
X87271235Y-121354766D01*
X87088830Y-121257268D01*
X86928945Y-121126055D01*
X86797732Y-120966170D01*
X86700234Y-120783765D01*
X86665117Y-120668000D01*
X86640193Y-120585836D01*
X86619920Y-120380000D01*
X86640193Y-120174164D01*
X86700233Y-119976238D01*
X86700234Y-119976235D01*
X86797732Y-119793830D01*
X86928945Y-119633945D01*
X87088830Y-119502732D01*
X87271235Y-119405234D01*
X87271238Y-119405233D01*
X87469164Y-119345193D01*
X87546293Y-119337596D01*
X87623420Y-119330000D01*
X87726580Y-119330000D01*
X87803707Y-119337596D01*
X87803707Y-119337596D01*
G37*
G36*
X82977707Y-118575596D02*
G01*
X83054836Y-118583193D01*
X83252762Y-118643233D01*
X83252765Y-118643234D01*
X83435170Y-118740732D01*
X83595055Y-118871945D01*
X83726268Y-119031830D01*
X83823766Y-119214235D01*
X83823767Y-119214238D01*
X83883807Y-119412164D01*
X83904080Y-119618000D01*
X83883807Y-119823836D01*
X83823767Y-120021762D01*
X83823766Y-120021765D01*
X83726268Y-120204170D01*
X83595055Y-120364055D01*
X83435170Y-120495268D01*
X83252765Y-120592766D01*
X83252762Y-120592767D01*
X83054836Y-120652807D01*
X82977707Y-120660403D01*
X82900580Y-120668000D01*
X82797420Y-120668000D01*
X82720293Y-120660403D01*
X82643164Y-120652807D01*
X82445238Y-120592767D01*
X82445235Y-120592766D01*
X82262830Y-120495268D01*
X82102945Y-120364055D01*
X81971732Y-120204170D01*
X81874234Y-120021765D01*
X81874233Y-120021762D01*
X81814193Y-119823836D01*
X81793920Y-119618000D01*
X81814193Y-119412164D01*
X81874233Y-119214238D01*
X81874234Y-119214235D01*
X81971732Y-119031830D01*
X82102945Y-118871945D01*
X82262830Y-118740732D01*
X82445235Y-118643234D01*
X82445238Y-118643233D01*
X82643164Y-118583193D01*
X82720293Y-118575596D01*
X82797420Y-118568000D01*
X82900580Y-118568000D01*
X82977707Y-118575596D01*
X82977707Y-118575596D01*
G37*
G36*
X127529837Y-118342958D02*
G01*
X127610638Y-118350916D01*
X127764034Y-118397449D01*
X127817992Y-118413817D01*
X128009084Y-118515957D01*
X128176581Y-118653419D01*
X128314043Y-118820916D01*
X128416183Y-119012008D01*
X128416184Y-119012012D01*
X128479084Y-119219362D01*
X128500322Y-119435000D01*
X128479084Y-119650638D01*
X128435647Y-119793829D01*
X128416183Y-119857992D01*
X128314043Y-120049084D01*
X128176581Y-120216581D01*
X128009084Y-120354043D01*
X127817992Y-120456183D01*
X127764034Y-120472551D01*
X127610638Y-120519084D01*
X127529837Y-120527042D01*
X127449038Y-120535000D01*
X126640962Y-120535000D01*
X126560163Y-120527042D01*
X126479362Y-120519084D01*
X126325966Y-120472551D01*
X126272008Y-120456183D01*
X126080916Y-120354043D01*
X125913419Y-120216581D01*
X125775957Y-120049084D01*
X125673817Y-119857992D01*
X125654353Y-119793829D01*
X125610916Y-119650638D01*
X125589678Y-119435000D01*
X125610916Y-119219362D01*
X125673816Y-119012012D01*
X125673817Y-119012008D01*
X125775957Y-118820916D01*
X125913419Y-118653419D01*
X126080916Y-118515957D01*
X126272008Y-118413817D01*
X126325966Y-118397449D01*
X126479362Y-118350916D01*
X126560163Y-118342958D01*
X126640962Y-118335000D01*
X127449038Y-118335000D01*
X127529837Y-118342958D01*
X127529837Y-118342958D01*
G37*
G36*
X97000000Y-120160000D02*
G01*
X95500000Y-120160000D01*
X95500000Y-117260000D01*
X97000000Y-117260000D01*
X97000000Y-120160000D01*
X97000000Y-120160000D01*
G37*
G36*
X101000000Y-120160000D02*
G01*
X99500000Y-120160000D01*
X99500000Y-117260000D01*
X101000000Y-117260000D01*
X101000000Y-120160000D01*
X101000000Y-120160000D01*
G37*
G36*
X105000000Y-120160000D02*
G01*
X103500000Y-120160000D01*
X103500000Y-117260000D01*
X105000000Y-117260000D01*
X105000000Y-120160000D01*
X105000000Y-120160000D01*
G37*
G36*
X103000000Y-120160000D02*
G01*
X101500000Y-120160000D01*
X101500000Y-117260000D01*
X103000000Y-117260000D01*
X103000000Y-120160000D01*
X103000000Y-120160000D01*
G37*
G36*
X107000000Y-120160000D02*
G01*
X105500000Y-120160000D01*
X105500000Y-117260000D01*
X107000000Y-117260000D01*
X107000000Y-120160000D01*
X107000000Y-120160000D01*
G37*
G36*
X99000000Y-120160000D02*
G01*
X97500000Y-120160000D01*
X97500000Y-117260000D01*
X99000000Y-117260000D01*
X99000000Y-120160000D01*
X99000000Y-120160000D01*
G37*
G36*
X117013707Y-116797596D02*
G01*
X117090836Y-116805193D01*
X117251873Y-116854043D01*
X117288765Y-116865234D01*
X117471170Y-116962732D01*
X117631055Y-117093945D01*
X117762268Y-117253830D01*
X117859766Y-117436235D01*
X117859767Y-117436238D01*
X117919807Y-117634164D01*
X117940080Y-117840000D01*
X117919807Y-118045836D01*
X117894883Y-118128000D01*
X117859766Y-118243765D01*
X117762268Y-118426170D01*
X117631055Y-118586055D01*
X117471170Y-118717268D01*
X117288765Y-118814766D01*
X117288762Y-118814767D01*
X117090836Y-118874807D01*
X117013707Y-118882404D01*
X116936580Y-118890000D01*
X116833420Y-118890000D01*
X116756293Y-118882404D01*
X116679164Y-118874807D01*
X116481238Y-118814767D01*
X116481235Y-118814766D01*
X116298830Y-118717268D01*
X116138945Y-118586055D01*
X116007732Y-118426170D01*
X115910234Y-118243765D01*
X115875117Y-118128000D01*
X115850193Y-118045836D01*
X115829920Y-117840000D01*
X115850193Y-117634164D01*
X115910233Y-117436238D01*
X115910234Y-117436235D01*
X116007732Y-117253830D01*
X116138945Y-117093945D01*
X116298830Y-116962732D01*
X116481235Y-116865234D01*
X116518127Y-116854043D01*
X116679164Y-116805193D01*
X116756293Y-116797596D01*
X116833420Y-116790000D01*
X116936580Y-116790000D01*
X117013707Y-116797596D01*
X117013707Y-116797596D01*
G37*
G36*
X83899000Y-118128000D02*
G01*
X81799000Y-118128000D01*
X81799000Y-116028000D01*
X83899000Y-116028000D01*
X83899000Y-118128000D01*
X83899000Y-118128000D01*
G37*
G36*
X113925000Y-118070000D02*
G01*
X112225000Y-118070000D01*
X112225000Y-116970000D01*
X113925000Y-116970000D01*
X113925000Y-118070000D01*
X113925000Y-118070000D01*
G37*
G36*
X89810000Y-118055000D02*
G01*
X88710000Y-118055000D01*
X88710000Y-116355000D01*
X89810000Y-116355000D01*
X89810000Y-118055000D01*
X89810000Y-118055000D01*
G37*
G36*
X87910000Y-118055000D02*
G01*
X86810000Y-118055000D01*
X86810000Y-116355000D01*
X87910000Y-116355000D01*
X87910000Y-118055000D01*
X87910000Y-118055000D01*
G37*
G36*
X110410000Y-117760000D02*
G01*
X107510000Y-117760000D01*
X107510000Y-116260000D01*
X110410000Y-116260000D01*
X110410000Y-117760000D01*
X110410000Y-117760000D01*
G37*
G36*
X95010000Y-117760000D02*
G01*
X92110000Y-117760000D01*
X92110000Y-116260000D01*
X95010000Y-116260000D01*
X95010000Y-117760000D01*
X95010000Y-117760000D01*
G37*
G36*
X127529837Y-114842958D02*
G01*
X127610638Y-114850916D01*
X127764034Y-114897449D01*
X127817992Y-114913817D01*
X128009084Y-115015957D01*
X128176581Y-115153419D01*
X128314043Y-115320916D01*
X128416183Y-115512008D01*
X128432551Y-115565966D01*
X128479084Y-115719362D01*
X128500322Y-115935000D01*
X128479084Y-116150638D01*
X128445909Y-116260000D01*
X128416183Y-116357992D01*
X128314043Y-116549084D01*
X128176581Y-116716581D01*
X128009084Y-116854043D01*
X127817992Y-116956183D01*
X127772444Y-116970000D01*
X127610638Y-117019084D01*
X127529837Y-117027042D01*
X127449038Y-117035000D01*
X126640962Y-117035000D01*
X126560163Y-117027042D01*
X126479362Y-117019084D01*
X126317556Y-116970000D01*
X126272008Y-116956183D01*
X126080916Y-116854043D01*
X125913419Y-116716581D01*
X125775957Y-116549084D01*
X125673817Y-116357992D01*
X125644091Y-116260000D01*
X125610916Y-116150638D01*
X125589678Y-115935000D01*
X125610916Y-115719362D01*
X125657449Y-115565966D01*
X125673817Y-115512008D01*
X125775957Y-115320916D01*
X125913419Y-115153419D01*
X126080916Y-115015957D01*
X126272008Y-114913817D01*
X126325966Y-114897449D01*
X126479362Y-114850916D01*
X126560163Y-114842958D01*
X126640962Y-114835000D01*
X127449038Y-114835000D01*
X127529837Y-114842958D01*
X127529837Y-114842958D01*
G37*
G36*
X117935000Y-116350000D02*
G01*
X115835000Y-116350000D01*
X115835000Y-114250000D01*
X117935000Y-114250000D01*
X117935000Y-116350000D01*
X117935000Y-116350000D01*
G37*
G36*
X113925000Y-116170000D02*
G01*
X112225000Y-116170000D01*
X112225000Y-115070000D01*
X113925000Y-115070000D01*
X113925000Y-116170000D01*
X113925000Y-116170000D01*
G37*
G36*
X95010000Y-115760000D02*
G01*
X92110000Y-115760000D01*
X92110000Y-114260000D01*
X95010000Y-114260000D01*
X95010000Y-115760000D01*
X95010000Y-115760000D01*
G37*
G36*
X110410000Y-115760000D02*
G01*
X107510000Y-115760000D01*
X107510000Y-114260000D01*
X110410000Y-114260000D01*
X110410000Y-115760000D01*
X110410000Y-115760000D01*
G37*
G36*
X87910000Y-115515000D02*
G01*
X86810000Y-115515000D01*
X86810000Y-113815000D01*
X87910000Y-113815000D01*
X87910000Y-115515000D01*
X87910000Y-115515000D01*
G37*
G36*
X89810000Y-115515000D02*
G01*
X88710000Y-115515000D01*
X88710000Y-113815000D01*
X89810000Y-113815000D01*
X89810000Y-115515000D01*
X89810000Y-115515000D01*
G37*
G36*
X80793837Y-111667958D02*
G01*
X80874638Y-111675916D01*
X80970513Y-111705000D01*
X81081992Y-111738817D01*
X81273084Y-111840957D01*
X81440581Y-111978419D01*
X81578043Y-112145916D01*
X81680183Y-112337008D01*
X81689362Y-112367267D01*
X81743084Y-112544362D01*
X81764322Y-112760000D01*
X81743084Y-112975638D01*
X81696551Y-113129034D01*
X81680183Y-113182992D01*
X81578043Y-113374084D01*
X81440581Y-113541581D01*
X81273084Y-113679043D01*
X81081992Y-113781183D01*
X81028034Y-113797551D01*
X80874638Y-113844084D01*
X80793837Y-113852042D01*
X80713038Y-113860000D01*
X79904962Y-113860000D01*
X79824163Y-113852042D01*
X79743362Y-113844084D01*
X79589966Y-113797551D01*
X79536008Y-113781183D01*
X79344916Y-113679043D01*
X79177419Y-113541581D01*
X79039957Y-113374084D01*
X78937817Y-113182992D01*
X78921449Y-113129034D01*
X78874916Y-112975638D01*
X78853678Y-112760000D01*
X78874916Y-112544362D01*
X78928638Y-112367267D01*
X78937817Y-112337008D01*
X79039957Y-112145916D01*
X79177419Y-111978419D01*
X79344916Y-111840957D01*
X79536008Y-111738817D01*
X79647487Y-111705000D01*
X79743362Y-111675916D01*
X79824163Y-111667958D01*
X79904962Y-111660000D01*
X80713038Y-111660000D01*
X80793837Y-111667958D01*
X80793837Y-111667958D01*
G37*
G36*
X95010000Y-113760000D02*
G01*
X92110000Y-113760000D01*
X92110000Y-112260000D01*
X95010000Y-112260000D01*
X95010000Y-113760000D01*
X95010000Y-113760000D01*
G37*
G36*
X110410000Y-113760000D02*
G01*
X107510000Y-113760000D01*
X107510000Y-112260000D01*
X110410000Y-112260000D01*
X110410000Y-113760000D01*
X110410000Y-113760000D01*
G37*
G36*
X122728707Y-110447596D02*
G01*
X122805836Y-110455193D01*
X123003762Y-110515233D01*
X123003765Y-110515234D01*
X123186170Y-110612732D01*
X123346055Y-110743945D01*
X123477268Y-110903830D01*
X123574766Y-111086235D01*
X123574767Y-111086238D01*
X123634807Y-111284164D01*
X123655080Y-111490000D01*
X123634807Y-111695836D01*
X123615343Y-111760000D01*
X123574766Y-111893765D01*
X123477268Y-112076170D01*
X123346055Y-112236055D01*
X123186170Y-112367268D01*
X123003765Y-112464766D01*
X123003762Y-112464767D01*
X122805836Y-112524807D01*
X122728707Y-112532404D01*
X122651580Y-112540000D01*
X122548420Y-112540000D01*
X122471293Y-112532404D01*
X122394164Y-112524807D01*
X122196238Y-112464767D01*
X122196235Y-112464766D01*
X122013830Y-112367268D01*
X121853945Y-112236055D01*
X121722732Y-112076170D01*
X121625234Y-111893765D01*
X121584657Y-111760000D01*
X121565193Y-111695836D01*
X121544920Y-111490000D01*
X121565193Y-111284164D01*
X121625233Y-111086238D01*
X121625234Y-111086235D01*
X121722732Y-110903830D01*
X121853945Y-110743945D01*
X122013830Y-110612732D01*
X122196235Y-110515234D01*
X122196238Y-110515233D01*
X122394164Y-110455193D01*
X122471293Y-110447596D01*
X122548420Y-110440000D01*
X122651580Y-110440000D01*
X122728707Y-110447596D01*
X122728707Y-110447596D01*
G37*
G36*
X87910000Y-112340000D02*
G01*
X86810000Y-112340000D01*
X86810000Y-110640000D01*
X87910000Y-110640000D01*
X87910000Y-112340000D01*
X87910000Y-112340000D01*
G37*
G36*
X89810000Y-112340000D02*
G01*
X88710000Y-112340000D01*
X88710000Y-110640000D01*
X89810000Y-110640000D01*
X89810000Y-112340000D01*
X89810000Y-112340000D01*
G37*
G36*
X110410000Y-111760000D02*
G01*
X107510000Y-111760000D01*
X107510000Y-110260000D01*
X110410000Y-110260000D01*
X110410000Y-111760000D01*
X110410000Y-111760000D01*
G37*
G36*
X95010000Y-111760000D02*
G01*
X92110000Y-111760000D01*
X92110000Y-110260000D01*
X95010000Y-110260000D01*
X95010000Y-111760000D01*
X95010000Y-111760000D01*
G37*
G36*
X117750000Y-111705000D02*
G01*
X116650000Y-111705000D01*
X116650000Y-110005000D01*
X117750000Y-110005000D01*
X117750000Y-111705000D01*
X117750000Y-111705000D01*
G37*
G36*
X115850000Y-111705000D02*
G01*
X114750000Y-111705000D01*
X114750000Y-110005000D01*
X115850000Y-110005000D01*
X115850000Y-111705000D01*
X115850000Y-111705000D01*
G37*
G36*
X80793837Y-108167958D02*
G01*
X80874638Y-108175916D01*
X81028034Y-108222449D01*
X81081992Y-108238817D01*
X81273084Y-108340957D01*
X81440581Y-108478419D01*
X81578043Y-108645916D01*
X81680183Y-108837008D01*
X81680184Y-108837012D01*
X81743084Y-109044362D01*
X81764322Y-109260000D01*
X81743084Y-109475638D01*
X81724721Y-109536171D01*
X81680183Y-109682992D01*
X81578043Y-109874084D01*
X81440581Y-110041581D01*
X81273084Y-110179043D01*
X81081992Y-110281183D01*
X81028034Y-110297551D01*
X80874638Y-110344084D01*
X80793837Y-110352042D01*
X80713038Y-110360000D01*
X79904962Y-110360000D01*
X79824163Y-110352042D01*
X79743362Y-110344084D01*
X79589966Y-110297551D01*
X79536008Y-110281183D01*
X79344916Y-110179043D01*
X79177419Y-110041581D01*
X79039957Y-109874084D01*
X78937817Y-109682992D01*
X78893279Y-109536171D01*
X78874916Y-109475638D01*
X78853678Y-109260000D01*
X78874916Y-109044362D01*
X78937816Y-108837012D01*
X78937817Y-108837008D01*
X79039957Y-108645916D01*
X79177419Y-108478419D01*
X79344916Y-108340957D01*
X79536008Y-108238817D01*
X79589966Y-108222449D01*
X79743362Y-108175916D01*
X79824163Y-108167958D01*
X79904962Y-108160000D01*
X80713038Y-108160000D01*
X80793837Y-108167958D01*
X80793837Y-108167958D01*
G37*
G36*
X122728707Y-107907596D02*
G01*
X122805836Y-107915193D01*
X123003762Y-107975233D01*
X123003765Y-107975234D01*
X123186170Y-108072732D01*
X123346055Y-108203945D01*
X123477268Y-108363830D01*
X123574766Y-108546235D01*
X123574767Y-108546238D01*
X123634807Y-108744164D01*
X123655080Y-108950000D01*
X123634807Y-109155836D01*
X123603209Y-109260000D01*
X123574766Y-109353765D01*
X123477268Y-109536170D01*
X123346055Y-109696055D01*
X123186170Y-109827268D01*
X123003765Y-109924766D01*
X123003762Y-109924767D01*
X122805836Y-109984807D01*
X122728707Y-109992404D01*
X122651580Y-110000000D01*
X122548420Y-110000000D01*
X122471293Y-109992404D01*
X122394164Y-109984807D01*
X122196238Y-109924767D01*
X122196235Y-109924766D01*
X122013830Y-109827268D01*
X121853945Y-109696055D01*
X121722732Y-109536170D01*
X121625234Y-109353765D01*
X121596791Y-109260000D01*
X121565193Y-109155836D01*
X121544920Y-108950000D01*
X121565193Y-108744164D01*
X121625233Y-108546238D01*
X121625234Y-108546235D01*
X121722732Y-108363830D01*
X121853945Y-108203945D01*
X122013830Y-108072732D01*
X122196235Y-107975234D01*
X122196238Y-107975233D01*
X122394164Y-107915193D01*
X122471293Y-107907596D01*
X122548420Y-107900000D01*
X122651580Y-107900000D01*
X122728707Y-107907596D01*
X122728707Y-107907596D01*
G37*
G36*
X87910000Y-109800000D02*
G01*
X86810000Y-109800000D01*
X86810000Y-108100000D01*
X87910000Y-108100000D01*
X87910000Y-109800000D01*
X87910000Y-109800000D01*
G37*
G36*
X89810000Y-109800000D02*
G01*
X88710000Y-109800000D01*
X88710000Y-108100000D01*
X89810000Y-108100000D01*
X89810000Y-109800000D01*
X89810000Y-109800000D01*
G37*
G36*
X95010000Y-109760000D02*
G01*
X92110000Y-109760000D01*
X92110000Y-108260000D01*
X95010000Y-108260000D01*
X95010000Y-109760000D01*
X95010000Y-109760000D01*
G37*
G36*
X110410000Y-109760000D02*
G01*
X107510000Y-109760000D01*
X107510000Y-108260000D01*
X110410000Y-108260000D01*
X110410000Y-109760000D01*
X110410000Y-109760000D01*
G37*
G36*
X85579000Y-109380000D02*
G01*
X83929000Y-109380000D01*
X83929000Y-107980000D01*
X85579000Y-107980000D01*
X85579000Y-109380000D01*
X85579000Y-109380000D01*
G37*
G36*
X110410000Y-107760000D02*
G01*
X107510000Y-107760000D01*
X107510000Y-106260000D01*
X110410000Y-106260000D01*
X110410000Y-107760000D01*
X110410000Y-107760000D01*
G37*
G36*
X95010000Y-107760000D02*
G01*
X92110000Y-107760000D01*
X92110000Y-106260000D01*
X95010000Y-106260000D01*
X95010000Y-107760000D01*
X95010000Y-107760000D01*
G37*
G36*
X122728707Y-105367597D02*
G01*
X122805836Y-105375193D01*
X123003762Y-105435233D01*
X123003765Y-105435234D01*
X123186170Y-105532732D01*
X123346055Y-105663945D01*
X123477268Y-105823830D01*
X123574766Y-106006235D01*
X123574767Y-106006238D01*
X123634807Y-106204164D01*
X123655080Y-106410000D01*
X123634807Y-106615836D01*
X123630437Y-106630241D01*
X123574766Y-106813765D01*
X123477268Y-106996170D01*
X123346055Y-107156055D01*
X123186170Y-107287268D01*
X123003765Y-107384766D01*
X123003762Y-107384767D01*
X122805836Y-107444807D01*
X122728707Y-107452403D01*
X122651580Y-107460000D01*
X122548420Y-107460000D01*
X122471293Y-107452403D01*
X122394164Y-107444807D01*
X122196238Y-107384767D01*
X122196235Y-107384766D01*
X122013830Y-107287268D01*
X121853945Y-107156055D01*
X121722732Y-106996170D01*
X121625234Y-106813765D01*
X121569563Y-106630241D01*
X121565193Y-106615836D01*
X121544920Y-106410000D01*
X121565193Y-106204164D01*
X121625233Y-106006238D01*
X121625234Y-106006235D01*
X121722732Y-105823830D01*
X121853945Y-105663945D01*
X122013830Y-105532732D01*
X122196235Y-105435234D01*
X122196238Y-105435233D01*
X122394164Y-105375193D01*
X122471293Y-105367597D01*
X122548420Y-105360000D01*
X122651580Y-105360000D01*
X122728707Y-105367597D01*
X122728707Y-105367597D01*
G37*
G36*
X85579000Y-107380000D02*
G01*
X83929000Y-107380000D01*
X83929000Y-105980000D01*
X85579000Y-105980000D01*
X85579000Y-107380000D01*
X85579000Y-107380000D01*
G37*
G36*
X89810000Y-107260000D02*
G01*
X88710000Y-107260000D01*
X88710000Y-105560000D01*
X89810000Y-105560000D01*
X89810000Y-107260000D01*
X89810000Y-107260000D01*
G37*
G36*
X87910000Y-107260000D02*
G01*
X86810000Y-107260000D01*
X86810000Y-105560000D01*
X87910000Y-105560000D01*
X87910000Y-107260000D01*
X87910000Y-107260000D01*
G37*
G36*
X80777560Y-101437759D02*
G01*
X81268928Y-101641290D01*
X81268930Y-101641291D01*
X81711150Y-101936773D01*
X82087227Y-102312850D01*
X82357008Y-102716606D01*
X82382710Y-102755072D01*
X82586241Y-103246440D01*
X82690000Y-103768072D01*
X82690000Y-104299928D01*
X82586241Y-104821560D01*
X82502638Y-105023395D01*
X82382709Y-105312930D01*
X82087227Y-105755150D01*
X81711150Y-106131227D01*
X81268930Y-106426709D01*
X81268929Y-106426710D01*
X81268928Y-106426710D01*
X80777560Y-106630241D01*
X80255928Y-106734000D01*
X79724072Y-106734000D01*
X79202440Y-106630241D01*
X78711072Y-106426710D01*
X78711071Y-106426710D01*
X78711070Y-106426709D01*
X78268850Y-106131227D01*
X77892773Y-105755150D01*
X77597291Y-105312930D01*
X77477362Y-105023395D01*
X77393759Y-104821560D01*
X77290000Y-104299928D01*
X77290000Y-103768072D01*
X77393759Y-103246440D01*
X77597290Y-102755072D01*
X77622992Y-102716606D01*
X77892773Y-102312850D01*
X78268850Y-101936773D01*
X78711070Y-101641291D01*
X78711072Y-101641290D01*
X79202440Y-101437759D01*
X79724072Y-101334000D01*
X80255928Y-101334000D01*
X80777560Y-101437759D01*
X80777560Y-101437759D01*
G37*
G36*
X130527560Y-101437759D02*
G01*
X131018928Y-101641290D01*
X131018930Y-101641291D01*
X131461150Y-101936773D01*
X131837227Y-102312850D01*
X132107008Y-102716606D01*
X132132710Y-102755072D01*
X132336241Y-103246440D01*
X132440000Y-103768072D01*
X132440000Y-104299928D01*
X132336241Y-104821560D01*
X132252638Y-105023395D01*
X132132709Y-105312930D01*
X131837227Y-105755150D01*
X131461150Y-106131227D01*
X131018930Y-106426709D01*
X131018929Y-106426710D01*
X131018928Y-106426710D01*
X130527560Y-106630241D01*
X130005928Y-106734000D01*
X129474072Y-106734000D01*
X128952440Y-106630241D01*
X128461072Y-106426710D01*
X128461071Y-106426710D01*
X128461070Y-106426709D01*
X128018850Y-106131227D01*
X127642773Y-105755150D01*
X127347291Y-105312930D01*
X127227362Y-105023395D01*
X127143759Y-104821560D01*
X127040000Y-104299928D01*
X127040000Y-103768072D01*
X127143759Y-103246440D01*
X127347290Y-102755072D01*
X127372992Y-102716606D01*
X127642773Y-102312850D01*
X128018850Y-101936773D01*
X128461070Y-101641291D01*
X128461072Y-101641290D01*
X128952440Y-101437759D01*
X129474072Y-101334000D01*
X130005928Y-101334000D01*
X130527560Y-101437759D01*
X130527560Y-101437759D01*
G37*
G36*
X95010000Y-105760000D02*
G01*
X92110000Y-105760000D01*
X92110000Y-104260000D01*
X95010000Y-104260000D01*
X95010000Y-105760000D01*
X95010000Y-105760000D01*
G37*
G36*
X110410000Y-105760000D02*
G01*
X107510000Y-105760000D01*
X107510000Y-104260000D01*
X110410000Y-104260000D01*
X110410000Y-105760000D01*
X110410000Y-105760000D01*
G37*
G36*
X119774877Y-102716605D02*
G01*
X119993170Y-102807025D01*
X119993172Y-102807026D01*
X120012589Y-102820000D01*
X120189630Y-102938295D01*
X120356705Y-103105370D01*
X120487975Y-103301830D01*
X120578395Y-103520123D01*
X120624490Y-103751859D01*
X120624490Y-103988141D01*
X120578395Y-104219877D01*
X120487975Y-104438170D01*
X120487974Y-104438172D01*
X120356705Y-104634630D01*
X120189630Y-104801705D01*
X119993172Y-104932974D01*
X119993171Y-104932975D01*
X119993170Y-104932975D01*
X119774877Y-105023395D01*
X119543141Y-105069490D01*
X119306859Y-105069490D01*
X119075123Y-105023395D01*
X118856830Y-104932975D01*
X118856829Y-104932975D01*
X118856828Y-104932974D01*
X118660370Y-104801705D01*
X118493295Y-104634630D01*
X118362026Y-104438172D01*
X118362025Y-104438170D01*
X118271605Y-104219877D01*
X118225510Y-103988141D01*
X118225510Y-103751859D01*
X118271605Y-103520123D01*
X118362025Y-103301830D01*
X118493295Y-103105370D01*
X118660370Y-102938295D01*
X118837411Y-102820000D01*
X118856828Y-102807026D01*
X118856830Y-102807025D01*
X119075123Y-102716605D01*
X119306859Y-102670510D01*
X119543141Y-102670510D01*
X119774877Y-102716605D01*
X119774877Y-102716605D01*
G37*
G36*
X123650000Y-104920000D02*
G01*
X121550000Y-104920000D01*
X121550000Y-102820000D01*
X123650000Y-102820000D01*
X123650000Y-104920000D01*
X123650000Y-104920000D01*
G37*
G36*
X89810000Y-104085000D02*
G01*
X88710000Y-104085000D01*
X88710000Y-102385000D01*
X89810000Y-102385000D01*
X89810000Y-104085000D01*
X89810000Y-104085000D01*
G37*
G36*
X87910000Y-104085000D02*
G01*
X86810000Y-104085000D01*
X86810000Y-102385000D01*
X87910000Y-102385000D01*
X87910000Y-104085000D01*
X87910000Y-104085000D01*
G37*
G36*
X110410000Y-103760000D02*
G01*
X107510000Y-103760000D01*
X107510000Y-102260000D01*
X110410000Y-102260000D01*
X110410000Y-103760000D01*
X110410000Y-103760000D01*
G37*
G36*
X95010000Y-103760000D02*
G01*
X92110000Y-103760000D01*
X92110000Y-102260000D01*
X95010000Y-102260000D01*
X95010000Y-103760000D01*
X95010000Y-103760000D01*
G37*
M02*
