M48
; DRILL file {KiCad (5.1.2)-1} date 07.05.2019 13:26:34
; FORMAT={-:-/ absolute / inch / decimal}
; #@! TF.CreationDate,2019-05-07T13:26:34+02:00
; #@! TF.GenerationSoftware,Kicad,Pcbnew,(5.1.2)-1
; #@! TF.FileFunction,Plated,1,2,PTH
FMAT,2
INCH
T1C0.0157
T2C0.0315
T3C0.0315
T4C0.0354
T5C0.0394
T6C0.0984
%
G90
G05
T1
X3.1Y-5.6903
X3.1Y-5.6903
X3.1Y-5.6903
X3.1Y-5.6903
X3.2476Y-5.8183
X3.2476Y-5.8183
X3.2476Y-5.8183
X3.2476Y-5.8183
X3.3268Y-4.1294
X3.3268Y-4.1294
X3.3268Y-4.1294
X3.3268Y-4.1294
X3.3368Y-4.3194
X3.3368Y-4.3194
X3.3368Y-4.3194
X3.3368Y-4.3194
X3.3468Y-4.9694
X3.3468Y-4.9694
X3.3468Y-4.9694
X3.3468Y-4.9694
X3.4073Y-5.6894
X3.4073Y-5.6894
X3.4073Y-5.6894
X3.4073Y-5.6894
X3.5518Y-4.2744
X3.5518Y-4.2744
X3.5518Y-4.2744
X3.5518Y-4.2744
X3.5768Y-4.3994
X3.5768Y-4.3994
X3.5768Y-4.3994
X3.5768Y-4.3994
X3.5768Y-4.7194
X3.5768Y-4.7194
X3.5768Y-4.7194
X3.5768Y-4.7194
X3.5868Y-4.4494
X3.5868Y-4.4494
X3.5868Y-4.4494
X3.5868Y-4.4494
X3.5868Y-4.5294
X3.5868Y-4.5294
X3.5868Y-4.5294
X3.5868Y-4.5294
X3.6551Y-5.521
X3.6551Y-5.521
X3.6551Y-5.521
X3.6551Y-5.521
X3.6945Y-5.7769
X3.6945Y-5.7769
X3.6945Y-5.7769
X3.6945Y-5.7769
X3.8868Y-5.6094
X3.8868Y-5.6094
X3.8868Y-5.6094
X3.8868Y-5.6094
X3.8913Y-5.7769
X3.8913Y-5.7769
X3.8913Y-5.7769
X3.8913Y-5.7769
X3.9518Y-5.4644
X3.9518Y-5.4644
X3.9518Y-5.4644
X3.9518Y-5.4644
X4.0268Y-5.3894
X4.0268Y-5.3894
X4.0268Y-5.3894
X4.0268Y-5.3894
X4.1018Y-5.2573
X4.1018Y-5.2573
X4.1018Y-5.2573
X4.1018Y-5.2573
X4.1472Y-5.7769
X4.1472Y-5.7769
X4.1472Y-5.7769
X4.1472Y-5.7769
X4.1518Y-5.0144
X4.1518Y-5.0144
X4.1518Y-5.0144
X4.1518Y-5.0144
X4.1668Y-4.5294
X4.1668Y-4.5294
X4.1668Y-4.5294
X4.1668Y-4.5294
X4.1868Y-5.6094
X4.1868Y-5.6094
X4.1868Y-5.6094
X4.1868Y-5.6094
X4.2168Y-5.5094
X4.2168Y-5.5094
X4.2168Y-5.5094
X4.2168Y-5.5094
X4.4068Y-4.2094
X4.4068Y-4.2094
X4.4068Y-4.2094
X4.4068Y-4.2094
X4.4068Y-4.2894
X4.4068Y-4.2894
X4.4068Y-4.2894
X4.4068Y-4.2894
X4.5868Y-4.8194
X4.5868Y-4.8194
X4.5868Y-4.8194
X4.5868Y-4.8194
X4.6768Y-4.3644
X4.6768Y-4.3644
X4.6768Y-4.3644
X4.6768Y-4.3644
X4.7268Y-4.7694
X4.7268Y-4.7694
X4.7268Y-4.7694
X4.7268Y-4.7694
X4.8126Y-5.2572
X4.8126Y-5.2572
X4.8126Y-5.2572
X4.8126Y-5.2572
X5.039Y-5.2474
X5.039Y-5.2474
X5.039Y-5.2474
X5.039Y-5.2474
T2
X3.1018Y-5.2894
X3.1018Y-5.3894
X3.1018Y-5.4894
X3.4018Y-5.2894
X3.4018Y-5.3894
X3.4018Y-5.4894
T3
X4.0768Y-4.9144
X4.0768Y-4.9144
X4.7018Y-4.0894
X4.0768Y-4.9144
X4.0768Y-4.9144
T4
X3.8126Y-5.9738
X3.9504Y-5.9738
X4.0882Y-5.9738
X4.226Y-5.9738
X3.1618Y-4.3016
X3.1618Y-4.4394
X5.0018Y-4.5644
X5.0018Y-4.7022
X4.3638Y-5.9738
X4.5016Y-5.9738
X4.789Y-5.9694
X4.9268Y-5.9694
X3.4189Y-5.9738
X3.5567Y-5.9738
T5
X3.4518Y-4.7394
X3.4518Y-4.8394
X3.4518Y-4.9394
X3.2618Y-4.6094
X3.2618Y-4.7094
X4.3768Y-5.4894
X4.5736Y-5.4894
X4.8268Y-5.3894
X4.8268Y-5.5894
X5.0268Y-5.3894
X5.0268Y-5.5894
X4.8268Y-4.0894
X4.8268Y-4.1894
X4.8268Y-4.2894
X4.8268Y-4.3894
X3.7018Y-4.9144
X3.8018Y-4.9144
X3.9018Y-4.9144
X4.3768Y-5.0394
X4.5736Y-5.0394
X3.1492Y-4.8635
X3.1492Y-4.9635
X4.6018Y-4.5394
X4.6018Y-4.6394
T6
X3.1492Y-5.9757
X5.1079Y-5.9757
X5.1079Y-4.0958
X3.1492Y-4.0958
T0
M30
