%TF.GenerationSoftware,KiCad,Pcbnew,(5.1.2)-1*%
%TF.CreationDate,2019-05-07T13:27:01+02:00*%
%TF.ProjectId,nfc-door,6e66632d-646f-46f7-922e-6b696361645f,rev?*%
%TF.SameCoordinates,Original*%
%TF.FileFunction,Legend,Bot*%
%TF.FilePolarity,Positive*%
%FSLAX46Y46*%
G04 Gerber Fmt 4.6, Leading zero omitted, Abs format (unit mm)*
G04 Created by KiCad (PCBNEW (5.1.2)-1) date 2019-05-07 13:27:01*
%MOMM*%
%LPD*%
G04 APERTURE LIST*
%ADD10C,0.200000*%
%ADD11C,0.120000*%
%ADD12C,0.010000*%
%ADD13C,0.150000*%
G04 APERTURE END LIST*
D10*
X117782857Y-136029238D02*
X117820952Y-136143523D01*
X117859047Y-136181619D01*
X117935238Y-136219714D01*
X118049523Y-136219714D01*
X118125714Y-136181619D01*
X118163809Y-136143523D01*
X118201904Y-136067333D01*
X118201904Y-135762571D01*
X117401904Y-135762571D01*
X117401904Y-136029238D01*
X117440000Y-136105428D01*
X117478095Y-136143523D01*
X117554285Y-136181619D01*
X117630476Y-136181619D01*
X117706666Y-136143523D01*
X117744761Y-136105428D01*
X117782857Y-136029238D01*
X117782857Y-135762571D01*
X118201904Y-137019714D02*
X117820952Y-136753047D01*
X118201904Y-136562571D02*
X117401904Y-136562571D01*
X117401904Y-136867333D01*
X117440000Y-136943523D01*
X117478095Y-136981619D01*
X117554285Y-137019714D01*
X117668571Y-137019714D01*
X117744761Y-136981619D01*
X117782857Y-136943523D01*
X117820952Y-136867333D01*
X117820952Y-136562571D01*
X118201904Y-137362571D02*
X117401904Y-137362571D01*
X118201904Y-137743523D02*
X117401904Y-137743523D01*
X117401904Y-137934000D01*
X117440000Y-138048285D01*
X117516190Y-138124476D01*
X117592380Y-138162571D01*
X117744761Y-138200666D01*
X117859047Y-138200666D01*
X118011428Y-138162571D01*
X118087619Y-138124476D01*
X118163809Y-138048285D01*
X118201904Y-137934000D01*
X118201904Y-137743523D01*
X117440000Y-138962571D02*
X117401904Y-138886380D01*
X117401904Y-138772095D01*
X117440000Y-138657809D01*
X117516190Y-138581619D01*
X117592380Y-138543523D01*
X117744761Y-138505428D01*
X117859047Y-138505428D01*
X118011428Y-138543523D01*
X118087619Y-138581619D01*
X118163809Y-138657809D01*
X118201904Y-138772095D01*
X118201904Y-138848285D01*
X118163809Y-138962571D01*
X118125714Y-139000666D01*
X117859047Y-139000666D01*
X117859047Y-138848285D01*
X117782857Y-139343523D02*
X117782857Y-139610190D01*
X118201904Y-139724476D02*
X118201904Y-139343523D01*
X117401904Y-139343523D01*
X117401904Y-139724476D01*
X117401904Y-140829238D02*
X117401904Y-140981619D01*
X117440000Y-141057809D01*
X117516190Y-141134000D01*
X117668571Y-141172095D01*
X117935238Y-141172095D01*
X118087619Y-141134000D01*
X118163809Y-141057809D01*
X118201904Y-140981619D01*
X118201904Y-140829238D01*
X118163809Y-140753047D01*
X118087619Y-140676857D01*
X117935238Y-140638761D01*
X117668571Y-140638761D01*
X117516190Y-140676857D01*
X117440000Y-140753047D01*
X117401904Y-140829238D01*
X118201904Y-141514952D02*
X117401904Y-141514952D01*
X118201904Y-141972095D01*
X117401904Y-141972095D01*
X118201904Y-142734000D02*
X118201904Y-142353047D01*
X117401904Y-142353047D01*
X117820952Y-143153047D02*
X118201904Y-143153047D01*
X117401904Y-142886380D02*
X117820952Y-143153047D01*
X117401904Y-143419714D01*
X118801904Y-135953047D02*
X119601904Y-136143523D01*
X119030476Y-136295904D01*
X119601904Y-136448285D01*
X118801904Y-136638761D01*
X118801904Y-136829238D02*
X118801904Y-137286380D01*
X119601904Y-137057809D02*
X118801904Y-137057809D01*
X119601904Y-137553047D02*
X118801904Y-137553047D01*
X119182857Y-137553047D02*
X119182857Y-138010190D01*
X119601904Y-138010190D02*
X118801904Y-138010190D01*
X119601904Y-139419714D02*
X119601904Y-138962571D01*
X119601904Y-139191142D02*
X118801904Y-139191142D01*
X118916190Y-139114952D01*
X118992380Y-139038761D01*
X119030476Y-138962571D01*
X118878095Y-139724476D02*
X118840000Y-139762571D01*
X118801904Y-139838761D01*
X118801904Y-140029238D01*
X118840000Y-140105428D01*
X118878095Y-140143523D01*
X118954285Y-140181619D01*
X119030476Y-140181619D01*
X119144761Y-140143523D01*
X119601904Y-139686380D01*
X119601904Y-140181619D01*
X118801904Y-140410190D02*
X119601904Y-140676857D01*
X118801904Y-140943523D01*
X119601904Y-141819714D02*
X118801904Y-141819714D01*
X118801904Y-142010190D01*
X118840000Y-142124476D01*
X118916190Y-142200666D01*
X118992380Y-142238761D01*
X119144761Y-142276857D01*
X119259047Y-142276857D01*
X119411428Y-142238761D01*
X119487619Y-142200666D01*
X119563809Y-142124476D01*
X119601904Y-142010190D01*
X119601904Y-141819714D01*
X119525714Y-143076857D02*
X119563809Y-143038761D01*
X119601904Y-142924476D01*
X119601904Y-142848285D01*
X119563809Y-142734000D01*
X119487619Y-142657809D01*
X119411428Y-142619714D01*
X119259047Y-142581619D01*
X119144761Y-142581619D01*
X118992380Y-142619714D01*
X118916190Y-142657809D01*
X118840000Y-142734000D01*
X118801904Y-142848285D01*
X118801904Y-142924476D01*
X118840000Y-143038761D01*
X118878095Y-143076857D01*
X120963809Y-137419714D02*
X121001904Y-137534000D01*
X121001904Y-137724476D01*
X120963809Y-137800666D01*
X120925714Y-137838761D01*
X120849523Y-137876857D01*
X120773333Y-137876857D01*
X120697142Y-137838761D01*
X120659047Y-137800666D01*
X120620952Y-137724476D01*
X120582857Y-137572095D01*
X120544761Y-137495904D01*
X120506666Y-137457809D01*
X120430476Y-137419714D01*
X120354285Y-137419714D01*
X120278095Y-137457809D01*
X120240000Y-137495904D01*
X120201904Y-137572095D01*
X120201904Y-137762571D01*
X120240000Y-137876857D01*
X120201904Y-138219714D02*
X120849523Y-138219714D01*
X120925714Y-138257809D01*
X120963809Y-138295904D01*
X121001904Y-138372095D01*
X121001904Y-138524476D01*
X120963809Y-138600666D01*
X120925714Y-138638761D01*
X120849523Y-138676857D01*
X120201904Y-138676857D01*
X121001904Y-139057809D02*
X120201904Y-139057809D01*
X120201904Y-139362571D01*
X120240000Y-139438761D01*
X120278095Y-139476857D01*
X120354285Y-139514952D01*
X120468571Y-139514952D01*
X120544761Y-139476857D01*
X120582857Y-139438761D01*
X120620952Y-139362571D01*
X120620952Y-139057809D01*
X121001904Y-139857809D02*
X120201904Y-139857809D01*
X120201904Y-140162571D01*
X120240000Y-140238761D01*
X120278095Y-140276857D01*
X120354285Y-140314952D01*
X120468571Y-140314952D01*
X120544761Y-140276857D01*
X120582857Y-140238761D01*
X120620952Y-140162571D01*
X120620952Y-139857809D01*
X121001904Y-141038761D02*
X121001904Y-140657809D01*
X120201904Y-140657809D01*
X120620952Y-141457809D02*
X121001904Y-141457809D01*
X120201904Y-141191142D02*
X120620952Y-141457809D01*
X120201904Y-141724476D01*
X119730000Y-133259000D02*
X117825000Y-133259000D01*
X117825000Y-129509000D02*
X117825000Y-130779000D01*
X117825000Y-146019000D02*
X121635000Y-146019000D01*
X87071904Y-145073047D02*
X86271904Y-145073047D01*
X86271904Y-145263523D01*
X86310000Y-145377809D01*
X86386190Y-145454000D01*
X86462380Y-145492095D01*
X86614761Y-145530190D01*
X86729047Y-145530190D01*
X86881428Y-145492095D01*
X86957619Y-145454000D01*
X87033809Y-145377809D01*
X87071904Y-145263523D01*
X87071904Y-145073047D01*
X87071904Y-145987333D02*
X87033809Y-145911142D01*
X86995714Y-145873047D01*
X86919523Y-145834952D01*
X86690952Y-145834952D01*
X86614761Y-145873047D01*
X86576666Y-145911142D01*
X86538571Y-145987333D01*
X86538571Y-146101619D01*
X86576666Y-146177809D01*
X86614761Y-146215904D01*
X86690952Y-146254000D01*
X86919523Y-146254000D01*
X86995714Y-146215904D01*
X87033809Y-146177809D01*
X87071904Y-146101619D01*
X87071904Y-145987333D01*
X87071904Y-146711142D02*
X87033809Y-146634952D01*
X86995714Y-146596857D01*
X86919523Y-146558761D01*
X86690952Y-146558761D01*
X86614761Y-146596857D01*
X86576666Y-146634952D01*
X86538571Y-146711142D01*
X86538571Y-146825428D01*
X86576666Y-146901619D01*
X86614761Y-146939714D01*
X86690952Y-146977809D01*
X86919523Y-146977809D01*
X86995714Y-146939714D01*
X87033809Y-146901619D01*
X87071904Y-146825428D01*
X87071904Y-146711142D01*
X87071904Y-147320666D02*
X86538571Y-147320666D01*
X86690952Y-147320666D02*
X86614761Y-147358761D01*
X86576666Y-147396857D01*
X86538571Y-147473047D01*
X86538571Y-147549238D01*
X87071904Y-148273047D02*
X86690952Y-148006380D01*
X87071904Y-147815904D02*
X86271904Y-147815904D01*
X86271904Y-148120666D01*
X86310000Y-148196857D01*
X86348095Y-148234952D01*
X86424285Y-148273047D01*
X86538571Y-148273047D01*
X86614761Y-148234952D01*
X86652857Y-148196857D01*
X86690952Y-148120666D01*
X86690952Y-147815904D01*
X90881904Y-145073047D02*
X90081904Y-145073047D01*
X90081904Y-145263523D01*
X90120000Y-145377809D01*
X90196190Y-145454000D01*
X90272380Y-145492095D01*
X90424761Y-145530190D01*
X90539047Y-145530190D01*
X90691428Y-145492095D01*
X90767619Y-145454000D01*
X90843809Y-145377809D01*
X90881904Y-145263523D01*
X90881904Y-145073047D01*
X90881904Y-145987333D02*
X90843809Y-145911142D01*
X90805714Y-145873047D01*
X90729523Y-145834952D01*
X90500952Y-145834952D01*
X90424761Y-145873047D01*
X90386666Y-145911142D01*
X90348571Y-145987333D01*
X90348571Y-146101619D01*
X90386666Y-146177809D01*
X90424761Y-146215904D01*
X90500952Y-146254000D01*
X90729523Y-146254000D01*
X90805714Y-146215904D01*
X90843809Y-146177809D01*
X90881904Y-146101619D01*
X90881904Y-145987333D01*
X90881904Y-146711142D02*
X90843809Y-146634952D01*
X90805714Y-146596857D01*
X90729523Y-146558761D01*
X90500952Y-146558761D01*
X90424761Y-146596857D01*
X90386666Y-146634952D01*
X90348571Y-146711142D01*
X90348571Y-146825428D01*
X90386666Y-146901619D01*
X90424761Y-146939714D01*
X90500952Y-146977809D01*
X90729523Y-146977809D01*
X90805714Y-146939714D01*
X90843809Y-146901619D01*
X90881904Y-146825428D01*
X90881904Y-146711142D01*
X90881904Y-147320666D02*
X90348571Y-147320666D01*
X90500952Y-147320666D02*
X90424761Y-147358761D01*
X90386666Y-147396857D01*
X90348571Y-147473047D01*
X90348571Y-147549238D01*
X90881904Y-148273047D02*
X90500952Y-148006380D01*
X90881904Y-147815904D02*
X90081904Y-147815904D01*
X90081904Y-148120666D01*
X90120000Y-148196857D01*
X90158095Y-148234952D01*
X90234285Y-148273047D01*
X90348571Y-148273047D01*
X90424761Y-148234952D01*
X90462857Y-148196857D01*
X90500952Y-148120666D01*
X90500952Y-147815904D01*
X96927142Y-141891857D02*
X96927142Y-142501380D01*
X97231904Y-142196619D02*
X96622380Y-142196619D01*
X97231904Y-143301380D02*
X97231904Y-142844238D01*
X97231904Y-143072809D02*
X96431904Y-143072809D01*
X96546190Y-142996619D01*
X96622380Y-142920428D01*
X96660476Y-142844238D01*
X96508095Y-143606142D02*
X96470000Y-143644238D01*
X96431904Y-143720428D01*
X96431904Y-143910904D01*
X96470000Y-143987095D01*
X96508095Y-144025190D01*
X96584285Y-144063285D01*
X96660476Y-144063285D01*
X96774761Y-144025190D01*
X97231904Y-143568047D01*
X97231904Y-144063285D01*
X96431904Y-144291857D02*
X97231904Y-144558523D01*
X96431904Y-144825190D01*
X96431904Y-145853761D02*
X96431904Y-146006142D01*
X96470000Y-146082333D01*
X96546190Y-146158523D01*
X96698571Y-146196619D01*
X96965238Y-146196619D01*
X97117619Y-146158523D01*
X97193809Y-146082333D01*
X97231904Y-146006142D01*
X97231904Y-145853761D01*
X97193809Y-145777571D01*
X97117619Y-145701380D01*
X96965238Y-145663285D01*
X96698571Y-145663285D01*
X96546190Y-145701380D01*
X96470000Y-145777571D01*
X96431904Y-145853761D01*
X96431904Y-146539476D02*
X97079523Y-146539476D01*
X97155714Y-146577571D01*
X97193809Y-146615666D01*
X97231904Y-146691857D01*
X97231904Y-146844238D01*
X97193809Y-146920428D01*
X97155714Y-146958523D01*
X97079523Y-146996619D01*
X96431904Y-146996619D01*
X96431904Y-147263285D02*
X96431904Y-147720428D01*
X97231904Y-147491857D02*
X96431904Y-147491857D01*
X100406904Y-146063523D02*
X99606904Y-146063523D01*
X99606904Y-146254000D01*
X99645000Y-146368285D01*
X99721190Y-146444476D01*
X99797380Y-146482571D01*
X99949761Y-146520666D01*
X100064047Y-146520666D01*
X100216428Y-146482571D01*
X100292619Y-146444476D01*
X100368809Y-146368285D01*
X100406904Y-146254000D01*
X100406904Y-146063523D01*
X99606904Y-147015904D02*
X99606904Y-147092095D01*
X99645000Y-147168285D01*
X99683095Y-147206380D01*
X99759285Y-147244476D01*
X99911666Y-147282571D01*
X100102142Y-147282571D01*
X100254523Y-147244476D01*
X100330714Y-147206380D01*
X100368809Y-147168285D01*
X100406904Y-147092095D01*
X100406904Y-147015904D01*
X100368809Y-146939714D01*
X100330714Y-146901619D01*
X100254523Y-146863523D01*
X100102142Y-146825428D01*
X99911666Y-146825428D01*
X99759285Y-146863523D01*
X99683095Y-146901619D01*
X99645000Y-146939714D01*
X99606904Y-147015904D01*
X104216904Y-146063523D02*
X103416904Y-146063523D01*
X103416904Y-146254000D01*
X103455000Y-146368285D01*
X103531190Y-146444476D01*
X103607380Y-146482571D01*
X103759761Y-146520666D01*
X103874047Y-146520666D01*
X104026428Y-146482571D01*
X104102619Y-146444476D01*
X104178809Y-146368285D01*
X104216904Y-146254000D01*
X104216904Y-146063523D01*
X104216904Y-147282571D02*
X104216904Y-146825428D01*
X104216904Y-147054000D02*
X103416904Y-147054000D01*
X103531190Y-146977809D01*
X103607380Y-146901619D01*
X103645476Y-146825428D01*
X108026904Y-146139714D02*
X108026904Y-145758761D01*
X107226904Y-145758761D01*
X107607857Y-146406380D02*
X107607857Y-146673047D01*
X108026904Y-146787333D02*
X108026904Y-146406380D01*
X107226904Y-146406380D01*
X107226904Y-146787333D01*
X108026904Y-147130190D02*
X107226904Y-147130190D01*
X107226904Y-147320666D01*
X107265000Y-147434952D01*
X107341190Y-147511142D01*
X107417380Y-147549238D01*
X107569761Y-147587333D01*
X107684047Y-147587333D01*
X107836428Y-147549238D01*
X107912619Y-147511142D01*
X107988809Y-147434952D01*
X108026904Y-147320666D01*
X108026904Y-147130190D01*
X110401904Y-145549238D02*
X111201904Y-145739714D01*
X110630476Y-145892095D01*
X111201904Y-146044476D01*
X110401904Y-146234952D01*
X110478095Y-146501619D02*
X110440000Y-146539714D01*
X110401904Y-146615904D01*
X110401904Y-146806380D01*
X110440000Y-146882571D01*
X110478095Y-146920666D01*
X110554285Y-146958761D01*
X110630476Y-146958761D01*
X110744761Y-146920666D01*
X111201904Y-146463523D01*
X111201904Y-146958761D01*
X110401904Y-147644476D02*
X110401904Y-147492095D01*
X110440000Y-147415904D01*
X110478095Y-147377809D01*
X110592380Y-147301619D01*
X110744761Y-147263523D01*
X111049523Y-147263523D01*
X111125714Y-147301619D01*
X111163809Y-147339714D01*
X111201904Y-147415904D01*
X111201904Y-147568285D01*
X111163809Y-147644476D01*
X111125714Y-147682571D01*
X111049523Y-147720666D01*
X110859047Y-147720666D01*
X110782857Y-147682571D01*
X110744761Y-147644476D01*
X110706666Y-147568285D01*
X110706666Y-147415904D01*
X110744761Y-147339714D01*
X110782857Y-147301619D01*
X110859047Y-147263523D01*
X114592857Y-145911142D02*
X114630952Y-146025428D01*
X114669047Y-146063523D01*
X114745238Y-146101619D01*
X114859523Y-146101619D01*
X114935714Y-146063523D01*
X114973809Y-146025428D01*
X115011904Y-145949238D01*
X115011904Y-145644476D01*
X114211904Y-145644476D01*
X114211904Y-145911142D01*
X114250000Y-145987333D01*
X114288095Y-146025428D01*
X114364285Y-146063523D01*
X114440476Y-146063523D01*
X114516666Y-146025428D01*
X114554761Y-145987333D01*
X114592857Y-145911142D01*
X114592857Y-145644476D01*
X114211904Y-146444476D02*
X114859523Y-146444476D01*
X114935714Y-146482571D01*
X114973809Y-146520666D01*
X115011904Y-146596857D01*
X115011904Y-146749238D01*
X114973809Y-146825428D01*
X114935714Y-146863523D01*
X114859523Y-146901619D01*
X114211904Y-146901619D01*
X114211904Y-147206380D02*
X114211904Y-147739714D01*
X115011904Y-147206380D01*
X115011904Y-147739714D01*
X124149523Y-148159000D02*
X124225714Y-148120904D01*
X124340000Y-148120904D01*
X124454285Y-148159000D01*
X124530476Y-148235190D01*
X124568571Y-148311380D01*
X124606666Y-148463761D01*
X124606666Y-148578047D01*
X124568571Y-148730428D01*
X124530476Y-148806619D01*
X124454285Y-148882809D01*
X124340000Y-148920904D01*
X124263809Y-148920904D01*
X124149523Y-148882809D01*
X124111428Y-148844714D01*
X124111428Y-148578047D01*
X124263809Y-148578047D01*
X123768571Y-148920904D02*
X123768571Y-148120904D01*
X123311428Y-148920904D01*
X123311428Y-148120904D01*
X122930476Y-148920904D02*
X122930476Y-148120904D01*
X122740000Y-148120904D01*
X122625714Y-148159000D01*
X122549523Y-148235190D01*
X122511428Y-148311380D01*
X122473333Y-148463761D01*
X122473333Y-148578047D01*
X122511428Y-148730428D01*
X122549523Y-148806619D01*
X122625714Y-148882809D01*
X122740000Y-148920904D01*
X122930476Y-148920904D01*
X117740000Y-133284000D02*
X117740000Y-134534000D01*
X117740000Y-134534000D02*
X117240000Y-134534000D01*
X117240000Y-134534000D02*
X116990000Y-134534000D01*
X116990000Y-134534000D02*
X116990000Y-145034000D01*
X116990000Y-145034000D02*
X121490000Y-145034000D01*
X121490000Y-145034000D02*
X121240000Y-134534000D01*
X121240000Y-134534000D02*
X117740000Y-134534000D01*
X117740000Y-133284000D02*
X121490000Y-133284000D01*
X117740000Y-146034000D02*
X117740000Y-145034000D01*
X117740000Y-146034000D02*
X117740000Y-145034000D01*
X117740000Y-133284000D02*
X121490000Y-133284000D01*
X121240000Y-134534000D02*
X117740000Y-134534000D01*
X121490000Y-145034000D02*
X121240000Y-134534000D01*
X116990000Y-145034000D02*
X121490000Y-145034000D01*
X116990000Y-134534000D02*
X116990000Y-145034000D01*
X117240000Y-134534000D02*
X116990000Y-134534000D01*
X117740000Y-134534000D02*
X117240000Y-134534000D01*
X117740000Y-133284000D02*
X117740000Y-134534000D01*
X124149523Y-148159000D02*
X124225714Y-148120904D01*
X124340000Y-148120904D01*
X124454285Y-148159000D01*
X124530476Y-148235190D01*
X124568571Y-148311380D01*
X124606666Y-148463761D01*
X124606666Y-148578047D01*
X124568571Y-148730428D01*
X124530476Y-148806619D01*
X124454285Y-148882809D01*
X124340000Y-148920904D01*
X124263809Y-148920904D01*
X124149523Y-148882809D01*
X124111428Y-148844714D01*
X124111428Y-148578047D01*
X124263809Y-148578047D01*
X123768571Y-148920904D02*
X123768571Y-148120904D01*
X123311428Y-148920904D01*
X123311428Y-148120904D01*
X122930476Y-148920904D02*
X122930476Y-148120904D01*
X122740000Y-148120904D01*
X122625714Y-148159000D01*
X122549523Y-148235190D01*
X122511428Y-148311380D01*
X122473333Y-148463761D01*
X122473333Y-148578047D01*
X122511428Y-148730428D01*
X122549523Y-148806619D01*
X122625714Y-148882809D01*
X122740000Y-148920904D01*
X122930476Y-148920904D01*
X114592857Y-145911142D02*
X114630952Y-146025428D01*
X114669047Y-146063523D01*
X114745238Y-146101619D01*
X114859523Y-146101619D01*
X114935714Y-146063523D01*
X114973809Y-146025428D01*
X115011904Y-145949238D01*
X115011904Y-145644476D01*
X114211904Y-145644476D01*
X114211904Y-145911142D01*
X114250000Y-145987333D01*
X114288095Y-146025428D01*
X114364285Y-146063523D01*
X114440476Y-146063523D01*
X114516666Y-146025428D01*
X114554761Y-145987333D01*
X114592857Y-145911142D01*
X114592857Y-145644476D01*
X114211904Y-146444476D02*
X114859523Y-146444476D01*
X114935714Y-146482571D01*
X114973809Y-146520666D01*
X115011904Y-146596857D01*
X115011904Y-146749238D01*
X114973809Y-146825428D01*
X114935714Y-146863523D01*
X114859523Y-146901619D01*
X114211904Y-146901619D01*
X114211904Y-147206380D02*
X114211904Y-147739714D01*
X115011904Y-147206380D01*
X115011904Y-147739714D01*
X110401904Y-145549238D02*
X111201904Y-145739714D01*
X110630476Y-145892095D01*
X111201904Y-146044476D01*
X110401904Y-146234952D01*
X110478095Y-146501619D02*
X110440000Y-146539714D01*
X110401904Y-146615904D01*
X110401904Y-146806380D01*
X110440000Y-146882571D01*
X110478095Y-146920666D01*
X110554285Y-146958761D01*
X110630476Y-146958761D01*
X110744761Y-146920666D01*
X111201904Y-146463523D01*
X111201904Y-146958761D01*
X110401904Y-147644476D02*
X110401904Y-147492095D01*
X110440000Y-147415904D01*
X110478095Y-147377809D01*
X110592380Y-147301619D01*
X110744761Y-147263523D01*
X111049523Y-147263523D01*
X111125714Y-147301619D01*
X111163809Y-147339714D01*
X111201904Y-147415904D01*
X111201904Y-147568285D01*
X111163809Y-147644476D01*
X111125714Y-147682571D01*
X111049523Y-147720666D01*
X110859047Y-147720666D01*
X110782857Y-147682571D01*
X110744761Y-147644476D01*
X110706666Y-147568285D01*
X110706666Y-147415904D01*
X110744761Y-147339714D01*
X110782857Y-147301619D01*
X110859047Y-147263523D01*
X108026904Y-146139714D02*
X108026904Y-145758761D01*
X107226904Y-145758761D01*
X107607857Y-146406380D02*
X107607857Y-146673047D01*
X108026904Y-146787333D02*
X108026904Y-146406380D01*
X107226904Y-146406380D01*
X107226904Y-146787333D01*
X108026904Y-147130190D02*
X107226904Y-147130190D01*
X107226904Y-147320666D01*
X107265000Y-147434952D01*
X107341190Y-147511142D01*
X107417380Y-147549238D01*
X107569761Y-147587333D01*
X107684047Y-147587333D01*
X107836428Y-147549238D01*
X107912619Y-147511142D01*
X107988809Y-147434952D01*
X108026904Y-147320666D01*
X108026904Y-147130190D01*
X104216904Y-146063523D02*
X103416904Y-146063523D01*
X103416904Y-146254000D01*
X103455000Y-146368285D01*
X103531190Y-146444476D01*
X103607380Y-146482571D01*
X103759761Y-146520666D01*
X103874047Y-146520666D01*
X104026428Y-146482571D01*
X104102619Y-146444476D01*
X104178809Y-146368285D01*
X104216904Y-146254000D01*
X104216904Y-146063523D01*
X104216904Y-147282571D02*
X104216904Y-146825428D01*
X104216904Y-147054000D02*
X103416904Y-147054000D01*
X103531190Y-146977809D01*
X103607380Y-146901619D01*
X103645476Y-146825428D01*
X100406904Y-146063523D02*
X99606904Y-146063523D01*
X99606904Y-146254000D01*
X99645000Y-146368285D01*
X99721190Y-146444476D01*
X99797380Y-146482571D01*
X99949761Y-146520666D01*
X100064047Y-146520666D01*
X100216428Y-146482571D01*
X100292619Y-146444476D01*
X100368809Y-146368285D01*
X100406904Y-146254000D01*
X100406904Y-146063523D01*
X99606904Y-147015904D02*
X99606904Y-147092095D01*
X99645000Y-147168285D01*
X99683095Y-147206380D01*
X99759285Y-147244476D01*
X99911666Y-147282571D01*
X100102142Y-147282571D01*
X100254523Y-147244476D01*
X100330714Y-147206380D01*
X100368809Y-147168285D01*
X100406904Y-147092095D01*
X100406904Y-147015904D01*
X100368809Y-146939714D01*
X100330714Y-146901619D01*
X100254523Y-146863523D01*
X100102142Y-146825428D01*
X99911666Y-146825428D01*
X99759285Y-146863523D01*
X99683095Y-146901619D01*
X99645000Y-146939714D01*
X99606904Y-147015904D01*
X96927142Y-141891857D02*
X96927142Y-142501380D01*
X97231904Y-142196619D02*
X96622380Y-142196619D01*
X97231904Y-143301380D02*
X97231904Y-142844238D01*
X97231904Y-143072809D02*
X96431904Y-143072809D01*
X96546190Y-142996619D01*
X96622380Y-142920428D01*
X96660476Y-142844238D01*
X96508095Y-143606142D02*
X96470000Y-143644238D01*
X96431904Y-143720428D01*
X96431904Y-143910904D01*
X96470000Y-143987095D01*
X96508095Y-144025190D01*
X96584285Y-144063285D01*
X96660476Y-144063285D01*
X96774761Y-144025190D01*
X97231904Y-143568047D01*
X97231904Y-144063285D01*
X96431904Y-144291857D02*
X97231904Y-144558523D01*
X96431904Y-144825190D01*
X96431904Y-145853761D02*
X96431904Y-146006142D01*
X96470000Y-146082333D01*
X96546190Y-146158523D01*
X96698571Y-146196619D01*
X96965238Y-146196619D01*
X97117619Y-146158523D01*
X97193809Y-146082333D01*
X97231904Y-146006142D01*
X97231904Y-145853761D01*
X97193809Y-145777571D01*
X97117619Y-145701380D01*
X96965238Y-145663285D01*
X96698571Y-145663285D01*
X96546190Y-145701380D01*
X96470000Y-145777571D01*
X96431904Y-145853761D01*
X96431904Y-146539476D02*
X97079523Y-146539476D01*
X97155714Y-146577571D01*
X97193809Y-146615666D01*
X97231904Y-146691857D01*
X97231904Y-146844238D01*
X97193809Y-146920428D01*
X97155714Y-146958523D01*
X97079523Y-146996619D01*
X96431904Y-146996619D01*
X96431904Y-147263285D02*
X96431904Y-147720428D01*
X97231904Y-147491857D02*
X96431904Y-147491857D01*
X90881904Y-145073047D02*
X90081904Y-145073047D01*
X90081904Y-145263523D01*
X90120000Y-145377809D01*
X90196190Y-145454000D01*
X90272380Y-145492095D01*
X90424761Y-145530190D01*
X90539047Y-145530190D01*
X90691428Y-145492095D01*
X90767619Y-145454000D01*
X90843809Y-145377809D01*
X90881904Y-145263523D01*
X90881904Y-145073047D01*
X90881904Y-145987333D02*
X90843809Y-145911142D01*
X90805714Y-145873047D01*
X90729523Y-145834952D01*
X90500952Y-145834952D01*
X90424761Y-145873047D01*
X90386666Y-145911142D01*
X90348571Y-145987333D01*
X90348571Y-146101619D01*
X90386666Y-146177809D01*
X90424761Y-146215904D01*
X90500952Y-146254000D01*
X90729523Y-146254000D01*
X90805714Y-146215904D01*
X90843809Y-146177809D01*
X90881904Y-146101619D01*
X90881904Y-145987333D01*
X90881904Y-146711142D02*
X90843809Y-146634952D01*
X90805714Y-146596857D01*
X90729523Y-146558761D01*
X90500952Y-146558761D01*
X90424761Y-146596857D01*
X90386666Y-146634952D01*
X90348571Y-146711142D01*
X90348571Y-146825428D01*
X90386666Y-146901619D01*
X90424761Y-146939714D01*
X90500952Y-146977809D01*
X90729523Y-146977809D01*
X90805714Y-146939714D01*
X90843809Y-146901619D01*
X90881904Y-146825428D01*
X90881904Y-146711142D01*
X90881904Y-147320666D02*
X90348571Y-147320666D01*
X90500952Y-147320666D02*
X90424761Y-147358761D01*
X90386666Y-147396857D01*
X90348571Y-147473047D01*
X90348571Y-147549238D01*
X90881904Y-148273047D02*
X90500952Y-148006380D01*
X90881904Y-147815904D02*
X90081904Y-147815904D01*
X90081904Y-148120666D01*
X90120000Y-148196857D01*
X90158095Y-148234952D01*
X90234285Y-148273047D01*
X90348571Y-148273047D01*
X90424761Y-148234952D01*
X90462857Y-148196857D01*
X90500952Y-148120666D01*
X90500952Y-147815904D01*
X87071904Y-145073047D02*
X86271904Y-145073047D01*
X86271904Y-145263523D01*
X86310000Y-145377809D01*
X86386190Y-145454000D01*
X86462380Y-145492095D01*
X86614761Y-145530190D01*
X86729047Y-145530190D01*
X86881428Y-145492095D01*
X86957619Y-145454000D01*
X87033809Y-145377809D01*
X87071904Y-145263523D01*
X87071904Y-145073047D01*
X87071904Y-145987333D02*
X87033809Y-145911142D01*
X86995714Y-145873047D01*
X86919523Y-145834952D01*
X86690952Y-145834952D01*
X86614761Y-145873047D01*
X86576666Y-145911142D01*
X86538571Y-145987333D01*
X86538571Y-146101619D01*
X86576666Y-146177809D01*
X86614761Y-146215904D01*
X86690952Y-146254000D01*
X86919523Y-146254000D01*
X86995714Y-146215904D01*
X87033809Y-146177809D01*
X87071904Y-146101619D01*
X87071904Y-145987333D01*
X87071904Y-146711142D02*
X87033809Y-146634952D01*
X86995714Y-146596857D01*
X86919523Y-146558761D01*
X86690952Y-146558761D01*
X86614761Y-146596857D01*
X86576666Y-146634952D01*
X86538571Y-146711142D01*
X86538571Y-146825428D01*
X86576666Y-146901619D01*
X86614761Y-146939714D01*
X86690952Y-146977809D01*
X86919523Y-146977809D01*
X86995714Y-146939714D01*
X87033809Y-146901619D01*
X87071904Y-146825428D01*
X87071904Y-146711142D01*
X87071904Y-147320666D02*
X86538571Y-147320666D01*
X86690952Y-147320666D02*
X86614761Y-147358761D01*
X86576666Y-147396857D01*
X86538571Y-147473047D01*
X86538571Y-147549238D01*
X87071904Y-148273047D02*
X86690952Y-148006380D01*
X87071904Y-147815904D02*
X86271904Y-147815904D01*
X86271904Y-148120666D01*
X86310000Y-148196857D01*
X86348095Y-148234952D01*
X86424285Y-148273047D01*
X86538571Y-148273047D01*
X86614761Y-148234952D01*
X86652857Y-148196857D01*
X86690952Y-148120666D01*
X86690952Y-147815904D01*
X117825000Y-146019000D02*
X121635000Y-146019000D01*
X117825000Y-129509000D02*
X117825000Y-130779000D01*
X119730000Y-133259000D02*
X117825000Y-133259000D01*
X117782857Y-136029238D02*
X117820952Y-136143523D01*
X117859047Y-136181619D01*
X117935238Y-136219714D01*
X118049523Y-136219714D01*
X118125714Y-136181619D01*
X118163809Y-136143523D01*
X118201904Y-136067333D01*
X118201904Y-135762571D01*
X117401904Y-135762571D01*
X117401904Y-136029238D01*
X117440000Y-136105428D01*
X117478095Y-136143523D01*
X117554285Y-136181619D01*
X117630476Y-136181619D01*
X117706666Y-136143523D01*
X117744761Y-136105428D01*
X117782857Y-136029238D01*
X117782857Y-135762571D01*
X118201904Y-137019714D02*
X117820952Y-136753047D01*
X118201904Y-136562571D02*
X117401904Y-136562571D01*
X117401904Y-136867333D01*
X117440000Y-136943523D01*
X117478095Y-136981619D01*
X117554285Y-137019714D01*
X117668571Y-137019714D01*
X117744761Y-136981619D01*
X117782857Y-136943523D01*
X117820952Y-136867333D01*
X117820952Y-136562571D01*
X118201904Y-137362571D02*
X117401904Y-137362571D01*
X118201904Y-137743523D02*
X117401904Y-137743523D01*
X117401904Y-137934000D01*
X117440000Y-138048285D01*
X117516190Y-138124476D01*
X117592380Y-138162571D01*
X117744761Y-138200666D01*
X117859047Y-138200666D01*
X118011428Y-138162571D01*
X118087619Y-138124476D01*
X118163809Y-138048285D01*
X118201904Y-137934000D01*
X118201904Y-137743523D01*
X117440000Y-138962571D02*
X117401904Y-138886380D01*
X117401904Y-138772095D01*
X117440000Y-138657809D01*
X117516190Y-138581619D01*
X117592380Y-138543523D01*
X117744761Y-138505428D01*
X117859047Y-138505428D01*
X118011428Y-138543523D01*
X118087619Y-138581619D01*
X118163809Y-138657809D01*
X118201904Y-138772095D01*
X118201904Y-138848285D01*
X118163809Y-138962571D01*
X118125714Y-139000666D01*
X117859047Y-139000666D01*
X117859047Y-138848285D01*
X117782857Y-139343523D02*
X117782857Y-139610190D01*
X118201904Y-139724476D02*
X118201904Y-139343523D01*
X117401904Y-139343523D01*
X117401904Y-139724476D01*
X117401904Y-140829238D02*
X117401904Y-140981619D01*
X117440000Y-141057809D01*
X117516190Y-141134000D01*
X117668571Y-141172095D01*
X117935238Y-141172095D01*
X118087619Y-141134000D01*
X118163809Y-141057809D01*
X118201904Y-140981619D01*
X118201904Y-140829238D01*
X118163809Y-140753047D01*
X118087619Y-140676857D01*
X117935238Y-140638761D01*
X117668571Y-140638761D01*
X117516190Y-140676857D01*
X117440000Y-140753047D01*
X117401904Y-140829238D01*
X118201904Y-141514952D02*
X117401904Y-141514952D01*
X118201904Y-141972095D01*
X117401904Y-141972095D01*
X118201904Y-142734000D02*
X118201904Y-142353047D01*
X117401904Y-142353047D01*
X117820952Y-143153047D02*
X118201904Y-143153047D01*
X117401904Y-142886380D02*
X117820952Y-143153047D01*
X117401904Y-143419714D01*
X118801904Y-135953047D02*
X119601904Y-136143523D01*
X119030476Y-136295904D01*
X119601904Y-136448285D01*
X118801904Y-136638761D01*
X118801904Y-136829238D02*
X118801904Y-137286380D01*
X119601904Y-137057809D02*
X118801904Y-137057809D01*
X119601904Y-137553047D02*
X118801904Y-137553047D01*
X119182857Y-137553047D02*
X119182857Y-138010190D01*
X119601904Y-138010190D02*
X118801904Y-138010190D01*
X119601904Y-139419714D02*
X119601904Y-138962571D01*
X119601904Y-139191142D02*
X118801904Y-139191142D01*
X118916190Y-139114952D01*
X118992380Y-139038761D01*
X119030476Y-138962571D01*
X118878095Y-139724476D02*
X118840000Y-139762571D01*
X118801904Y-139838761D01*
X118801904Y-140029238D01*
X118840000Y-140105428D01*
X118878095Y-140143523D01*
X118954285Y-140181619D01*
X119030476Y-140181619D01*
X119144761Y-140143523D01*
X119601904Y-139686380D01*
X119601904Y-140181619D01*
X118801904Y-140410190D02*
X119601904Y-140676857D01*
X118801904Y-140943523D01*
X119601904Y-141819714D02*
X118801904Y-141819714D01*
X118801904Y-142010190D01*
X118840000Y-142124476D01*
X118916190Y-142200666D01*
X118992380Y-142238761D01*
X119144761Y-142276857D01*
X119259047Y-142276857D01*
X119411428Y-142238761D01*
X119487619Y-142200666D01*
X119563809Y-142124476D01*
X119601904Y-142010190D01*
X119601904Y-141819714D01*
X119525714Y-143076857D02*
X119563809Y-143038761D01*
X119601904Y-142924476D01*
X119601904Y-142848285D01*
X119563809Y-142734000D01*
X119487619Y-142657809D01*
X119411428Y-142619714D01*
X119259047Y-142581619D01*
X119144761Y-142581619D01*
X118992380Y-142619714D01*
X118916190Y-142657809D01*
X118840000Y-142734000D01*
X118801904Y-142848285D01*
X118801904Y-142924476D01*
X118840000Y-143038761D01*
X118878095Y-143076857D01*
X120963809Y-137419714D02*
X121001904Y-137534000D01*
X121001904Y-137724476D01*
X120963809Y-137800666D01*
X120925714Y-137838761D01*
X120849523Y-137876857D01*
X120773333Y-137876857D01*
X120697142Y-137838761D01*
X120659047Y-137800666D01*
X120620952Y-137724476D01*
X120582857Y-137572095D01*
X120544761Y-137495904D01*
X120506666Y-137457809D01*
X120430476Y-137419714D01*
X120354285Y-137419714D01*
X120278095Y-137457809D01*
X120240000Y-137495904D01*
X120201904Y-137572095D01*
X120201904Y-137762571D01*
X120240000Y-137876857D01*
X120201904Y-138219714D02*
X120849523Y-138219714D01*
X120925714Y-138257809D01*
X120963809Y-138295904D01*
X121001904Y-138372095D01*
X121001904Y-138524476D01*
X120963809Y-138600666D01*
X120925714Y-138638761D01*
X120849523Y-138676857D01*
X120201904Y-138676857D01*
X121001904Y-139057809D02*
X120201904Y-139057809D01*
X120201904Y-139362571D01*
X120240000Y-139438761D01*
X120278095Y-139476857D01*
X120354285Y-139514952D01*
X120468571Y-139514952D01*
X120544761Y-139476857D01*
X120582857Y-139438761D01*
X120620952Y-139362571D01*
X120620952Y-139057809D01*
X121001904Y-139857809D02*
X120201904Y-139857809D01*
X120201904Y-140162571D01*
X120240000Y-140238761D01*
X120278095Y-140276857D01*
X120354285Y-140314952D01*
X120468571Y-140314952D01*
X120544761Y-140276857D01*
X120582857Y-140238761D01*
X120620952Y-140162571D01*
X120620952Y-139857809D01*
X121001904Y-141038761D02*
X121001904Y-140657809D01*
X120201904Y-140657809D01*
X120620952Y-141457809D02*
X121001904Y-141457809D01*
X120201904Y-141191142D02*
X120620952Y-141457809D01*
X120201904Y-141724476D01*
X117782857Y-136029238D02*
X117820952Y-136143523D01*
X117859047Y-136181619D01*
X117935238Y-136219714D01*
X118049523Y-136219714D01*
X118125714Y-136181619D01*
X118163809Y-136143523D01*
X118201904Y-136067333D01*
X118201904Y-135762571D01*
X117401904Y-135762571D01*
X117401904Y-136029238D01*
X117440000Y-136105428D01*
X117478095Y-136143523D01*
X117554285Y-136181619D01*
X117630476Y-136181619D01*
X117706666Y-136143523D01*
X117744761Y-136105428D01*
X117782857Y-136029238D01*
X117782857Y-135762571D01*
X118201904Y-137019714D02*
X117820952Y-136753047D01*
X118201904Y-136562571D02*
X117401904Y-136562571D01*
X117401904Y-136867333D01*
X117440000Y-136943523D01*
X117478095Y-136981619D01*
X117554285Y-137019714D01*
X117668571Y-137019714D01*
X117744761Y-136981619D01*
X117782857Y-136943523D01*
X117820952Y-136867333D01*
X117820952Y-136562571D01*
X118201904Y-137362571D02*
X117401904Y-137362571D01*
X118201904Y-137743523D02*
X117401904Y-137743523D01*
X117401904Y-137934000D01*
X117440000Y-138048285D01*
X117516190Y-138124476D01*
X117592380Y-138162571D01*
X117744761Y-138200666D01*
X117859047Y-138200666D01*
X118011428Y-138162571D01*
X118087619Y-138124476D01*
X118163809Y-138048285D01*
X118201904Y-137934000D01*
X118201904Y-137743523D01*
X117440000Y-138962571D02*
X117401904Y-138886380D01*
X117401904Y-138772095D01*
X117440000Y-138657809D01*
X117516190Y-138581619D01*
X117592380Y-138543523D01*
X117744761Y-138505428D01*
X117859047Y-138505428D01*
X118011428Y-138543523D01*
X118087619Y-138581619D01*
X118163809Y-138657809D01*
X118201904Y-138772095D01*
X118201904Y-138848285D01*
X118163809Y-138962571D01*
X118125714Y-139000666D01*
X117859047Y-139000666D01*
X117859047Y-138848285D01*
X117782857Y-139343523D02*
X117782857Y-139610190D01*
X118201904Y-139724476D02*
X118201904Y-139343523D01*
X117401904Y-139343523D01*
X117401904Y-139724476D01*
X117401904Y-140829238D02*
X117401904Y-140981619D01*
X117440000Y-141057809D01*
X117516190Y-141134000D01*
X117668571Y-141172095D01*
X117935238Y-141172095D01*
X118087619Y-141134000D01*
X118163809Y-141057809D01*
X118201904Y-140981619D01*
X118201904Y-140829238D01*
X118163809Y-140753047D01*
X118087619Y-140676857D01*
X117935238Y-140638761D01*
X117668571Y-140638761D01*
X117516190Y-140676857D01*
X117440000Y-140753047D01*
X117401904Y-140829238D01*
X118201904Y-141514952D02*
X117401904Y-141514952D01*
X118201904Y-141972095D01*
X117401904Y-141972095D01*
X118201904Y-142734000D02*
X118201904Y-142353047D01*
X117401904Y-142353047D01*
X117820952Y-143153047D02*
X118201904Y-143153047D01*
X117401904Y-142886380D02*
X117820952Y-143153047D01*
X117401904Y-143419714D01*
X118801904Y-135953047D02*
X119601904Y-136143523D01*
X119030476Y-136295904D01*
X119601904Y-136448285D01*
X118801904Y-136638761D01*
X118801904Y-136829238D02*
X118801904Y-137286380D01*
X119601904Y-137057809D02*
X118801904Y-137057809D01*
X119601904Y-137553047D02*
X118801904Y-137553047D01*
X119182857Y-137553047D02*
X119182857Y-138010190D01*
X119601904Y-138010190D02*
X118801904Y-138010190D01*
X119601904Y-139419714D02*
X119601904Y-138962571D01*
X119601904Y-139191142D02*
X118801904Y-139191142D01*
X118916190Y-139114952D01*
X118992380Y-139038761D01*
X119030476Y-138962571D01*
X118878095Y-139724476D02*
X118840000Y-139762571D01*
X118801904Y-139838761D01*
X118801904Y-140029238D01*
X118840000Y-140105428D01*
X118878095Y-140143523D01*
X118954285Y-140181619D01*
X119030476Y-140181619D01*
X119144761Y-140143523D01*
X119601904Y-139686380D01*
X119601904Y-140181619D01*
X118801904Y-140410190D02*
X119601904Y-140676857D01*
X118801904Y-140943523D01*
X119601904Y-141819714D02*
X118801904Y-141819714D01*
X118801904Y-142010190D01*
X118840000Y-142124476D01*
X118916190Y-142200666D01*
X118992380Y-142238761D01*
X119144761Y-142276857D01*
X119259047Y-142276857D01*
X119411428Y-142238761D01*
X119487619Y-142200666D01*
X119563809Y-142124476D01*
X119601904Y-142010190D01*
X119601904Y-141819714D01*
X119525714Y-143076857D02*
X119563809Y-143038761D01*
X119601904Y-142924476D01*
X119601904Y-142848285D01*
X119563809Y-142734000D01*
X119487619Y-142657809D01*
X119411428Y-142619714D01*
X119259047Y-142581619D01*
X119144761Y-142581619D01*
X118992380Y-142619714D01*
X118916190Y-142657809D01*
X118840000Y-142734000D01*
X118801904Y-142848285D01*
X118801904Y-142924476D01*
X118840000Y-143038761D01*
X118878095Y-143076857D01*
X120963809Y-137419714D02*
X121001904Y-137534000D01*
X121001904Y-137724476D01*
X120963809Y-137800666D01*
X120925714Y-137838761D01*
X120849523Y-137876857D01*
X120773333Y-137876857D01*
X120697142Y-137838761D01*
X120659047Y-137800666D01*
X120620952Y-137724476D01*
X120582857Y-137572095D01*
X120544761Y-137495904D01*
X120506666Y-137457809D01*
X120430476Y-137419714D01*
X120354285Y-137419714D01*
X120278095Y-137457809D01*
X120240000Y-137495904D01*
X120201904Y-137572095D01*
X120201904Y-137762571D01*
X120240000Y-137876857D01*
X120201904Y-138219714D02*
X120849523Y-138219714D01*
X120925714Y-138257809D01*
X120963809Y-138295904D01*
X121001904Y-138372095D01*
X121001904Y-138524476D01*
X120963809Y-138600666D01*
X120925714Y-138638761D01*
X120849523Y-138676857D01*
X120201904Y-138676857D01*
X121001904Y-139057809D02*
X120201904Y-139057809D01*
X120201904Y-139362571D01*
X120240000Y-139438761D01*
X120278095Y-139476857D01*
X120354285Y-139514952D01*
X120468571Y-139514952D01*
X120544761Y-139476857D01*
X120582857Y-139438761D01*
X120620952Y-139362571D01*
X120620952Y-139057809D01*
X121001904Y-139857809D02*
X120201904Y-139857809D01*
X120201904Y-140162571D01*
X120240000Y-140238761D01*
X120278095Y-140276857D01*
X120354285Y-140314952D01*
X120468571Y-140314952D01*
X120544761Y-140276857D01*
X120582857Y-140238761D01*
X120620952Y-140162571D01*
X120620952Y-139857809D01*
X121001904Y-141038761D02*
X121001904Y-140657809D01*
X120201904Y-140657809D01*
X120620952Y-141457809D02*
X121001904Y-141457809D01*
X120201904Y-141191142D02*
X120620952Y-141457809D01*
X120201904Y-141724476D01*
X119730000Y-133259000D02*
X117825000Y-133259000D01*
X117825000Y-129509000D02*
X117825000Y-130779000D01*
X117825000Y-146019000D02*
X121635000Y-146019000D01*
X87071904Y-145073047D02*
X86271904Y-145073047D01*
X86271904Y-145263523D01*
X86310000Y-145377809D01*
X86386190Y-145454000D01*
X86462380Y-145492095D01*
X86614761Y-145530190D01*
X86729047Y-145530190D01*
X86881428Y-145492095D01*
X86957619Y-145454000D01*
X87033809Y-145377809D01*
X87071904Y-145263523D01*
X87071904Y-145073047D01*
X87071904Y-145987333D02*
X87033809Y-145911142D01*
X86995714Y-145873047D01*
X86919523Y-145834952D01*
X86690952Y-145834952D01*
X86614761Y-145873047D01*
X86576666Y-145911142D01*
X86538571Y-145987333D01*
X86538571Y-146101619D01*
X86576666Y-146177809D01*
X86614761Y-146215904D01*
X86690952Y-146254000D01*
X86919523Y-146254000D01*
X86995714Y-146215904D01*
X87033809Y-146177809D01*
X87071904Y-146101619D01*
X87071904Y-145987333D01*
X87071904Y-146711142D02*
X87033809Y-146634952D01*
X86995714Y-146596857D01*
X86919523Y-146558761D01*
X86690952Y-146558761D01*
X86614761Y-146596857D01*
X86576666Y-146634952D01*
X86538571Y-146711142D01*
X86538571Y-146825428D01*
X86576666Y-146901619D01*
X86614761Y-146939714D01*
X86690952Y-146977809D01*
X86919523Y-146977809D01*
X86995714Y-146939714D01*
X87033809Y-146901619D01*
X87071904Y-146825428D01*
X87071904Y-146711142D01*
X87071904Y-147320666D02*
X86538571Y-147320666D01*
X86690952Y-147320666D02*
X86614761Y-147358761D01*
X86576666Y-147396857D01*
X86538571Y-147473047D01*
X86538571Y-147549238D01*
X87071904Y-148273047D02*
X86690952Y-148006380D01*
X87071904Y-147815904D02*
X86271904Y-147815904D01*
X86271904Y-148120666D01*
X86310000Y-148196857D01*
X86348095Y-148234952D01*
X86424285Y-148273047D01*
X86538571Y-148273047D01*
X86614761Y-148234952D01*
X86652857Y-148196857D01*
X86690952Y-148120666D01*
X86690952Y-147815904D01*
X90881904Y-145073047D02*
X90081904Y-145073047D01*
X90081904Y-145263523D01*
X90120000Y-145377809D01*
X90196190Y-145454000D01*
X90272380Y-145492095D01*
X90424761Y-145530190D01*
X90539047Y-145530190D01*
X90691428Y-145492095D01*
X90767619Y-145454000D01*
X90843809Y-145377809D01*
X90881904Y-145263523D01*
X90881904Y-145073047D01*
X90881904Y-145987333D02*
X90843809Y-145911142D01*
X90805714Y-145873047D01*
X90729523Y-145834952D01*
X90500952Y-145834952D01*
X90424761Y-145873047D01*
X90386666Y-145911142D01*
X90348571Y-145987333D01*
X90348571Y-146101619D01*
X90386666Y-146177809D01*
X90424761Y-146215904D01*
X90500952Y-146254000D01*
X90729523Y-146254000D01*
X90805714Y-146215904D01*
X90843809Y-146177809D01*
X90881904Y-146101619D01*
X90881904Y-145987333D01*
X90881904Y-146711142D02*
X90843809Y-146634952D01*
X90805714Y-146596857D01*
X90729523Y-146558761D01*
X90500952Y-146558761D01*
X90424761Y-146596857D01*
X90386666Y-146634952D01*
X90348571Y-146711142D01*
X90348571Y-146825428D01*
X90386666Y-146901619D01*
X90424761Y-146939714D01*
X90500952Y-146977809D01*
X90729523Y-146977809D01*
X90805714Y-146939714D01*
X90843809Y-146901619D01*
X90881904Y-146825428D01*
X90881904Y-146711142D01*
X90881904Y-147320666D02*
X90348571Y-147320666D01*
X90500952Y-147320666D02*
X90424761Y-147358761D01*
X90386666Y-147396857D01*
X90348571Y-147473047D01*
X90348571Y-147549238D01*
X90881904Y-148273047D02*
X90500952Y-148006380D01*
X90881904Y-147815904D02*
X90081904Y-147815904D01*
X90081904Y-148120666D01*
X90120000Y-148196857D01*
X90158095Y-148234952D01*
X90234285Y-148273047D01*
X90348571Y-148273047D01*
X90424761Y-148234952D01*
X90462857Y-148196857D01*
X90500952Y-148120666D01*
X90500952Y-147815904D01*
X96927142Y-141891857D02*
X96927142Y-142501380D01*
X97231904Y-142196619D02*
X96622380Y-142196619D01*
X97231904Y-143301380D02*
X97231904Y-142844238D01*
X97231904Y-143072809D02*
X96431904Y-143072809D01*
X96546190Y-142996619D01*
X96622380Y-142920428D01*
X96660476Y-142844238D01*
X96508095Y-143606142D02*
X96470000Y-143644238D01*
X96431904Y-143720428D01*
X96431904Y-143910904D01*
X96470000Y-143987095D01*
X96508095Y-144025190D01*
X96584285Y-144063285D01*
X96660476Y-144063285D01*
X96774761Y-144025190D01*
X97231904Y-143568047D01*
X97231904Y-144063285D01*
X96431904Y-144291857D02*
X97231904Y-144558523D01*
X96431904Y-144825190D01*
X96431904Y-145853761D02*
X96431904Y-146006142D01*
X96470000Y-146082333D01*
X96546190Y-146158523D01*
X96698571Y-146196619D01*
X96965238Y-146196619D01*
X97117619Y-146158523D01*
X97193809Y-146082333D01*
X97231904Y-146006142D01*
X97231904Y-145853761D01*
X97193809Y-145777571D01*
X97117619Y-145701380D01*
X96965238Y-145663285D01*
X96698571Y-145663285D01*
X96546190Y-145701380D01*
X96470000Y-145777571D01*
X96431904Y-145853761D01*
X96431904Y-146539476D02*
X97079523Y-146539476D01*
X97155714Y-146577571D01*
X97193809Y-146615666D01*
X97231904Y-146691857D01*
X97231904Y-146844238D01*
X97193809Y-146920428D01*
X97155714Y-146958523D01*
X97079523Y-146996619D01*
X96431904Y-146996619D01*
X96431904Y-147263285D02*
X96431904Y-147720428D01*
X97231904Y-147491857D02*
X96431904Y-147491857D01*
X100406904Y-146063523D02*
X99606904Y-146063523D01*
X99606904Y-146254000D01*
X99645000Y-146368285D01*
X99721190Y-146444476D01*
X99797380Y-146482571D01*
X99949761Y-146520666D01*
X100064047Y-146520666D01*
X100216428Y-146482571D01*
X100292619Y-146444476D01*
X100368809Y-146368285D01*
X100406904Y-146254000D01*
X100406904Y-146063523D01*
X99606904Y-147015904D02*
X99606904Y-147092095D01*
X99645000Y-147168285D01*
X99683095Y-147206380D01*
X99759285Y-147244476D01*
X99911666Y-147282571D01*
X100102142Y-147282571D01*
X100254523Y-147244476D01*
X100330714Y-147206380D01*
X100368809Y-147168285D01*
X100406904Y-147092095D01*
X100406904Y-147015904D01*
X100368809Y-146939714D01*
X100330714Y-146901619D01*
X100254523Y-146863523D01*
X100102142Y-146825428D01*
X99911666Y-146825428D01*
X99759285Y-146863523D01*
X99683095Y-146901619D01*
X99645000Y-146939714D01*
X99606904Y-147015904D01*
X104216904Y-146063523D02*
X103416904Y-146063523D01*
X103416904Y-146254000D01*
X103455000Y-146368285D01*
X103531190Y-146444476D01*
X103607380Y-146482571D01*
X103759761Y-146520666D01*
X103874047Y-146520666D01*
X104026428Y-146482571D01*
X104102619Y-146444476D01*
X104178809Y-146368285D01*
X104216904Y-146254000D01*
X104216904Y-146063523D01*
X104216904Y-147282571D02*
X104216904Y-146825428D01*
X104216904Y-147054000D02*
X103416904Y-147054000D01*
X103531190Y-146977809D01*
X103607380Y-146901619D01*
X103645476Y-146825428D01*
X108026904Y-146139714D02*
X108026904Y-145758761D01*
X107226904Y-145758761D01*
X107607857Y-146406380D02*
X107607857Y-146673047D01*
X108026904Y-146787333D02*
X108026904Y-146406380D01*
X107226904Y-146406380D01*
X107226904Y-146787333D01*
X108026904Y-147130190D02*
X107226904Y-147130190D01*
X107226904Y-147320666D01*
X107265000Y-147434952D01*
X107341190Y-147511142D01*
X107417380Y-147549238D01*
X107569761Y-147587333D01*
X107684047Y-147587333D01*
X107836428Y-147549238D01*
X107912619Y-147511142D01*
X107988809Y-147434952D01*
X108026904Y-147320666D01*
X108026904Y-147130190D01*
X110401904Y-145549238D02*
X111201904Y-145739714D01*
X110630476Y-145892095D01*
X111201904Y-146044476D01*
X110401904Y-146234952D01*
X110478095Y-146501619D02*
X110440000Y-146539714D01*
X110401904Y-146615904D01*
X110401904Y-146806380D01*
X110440000Y-146882571D01*
X110478095Y-146920666D01*
X110554285Y-146958761D01*
X110630476Y-146958761D01*
X110744761Y-146920666D01*
X111201904Y-146463523D01*
X111201904Y-146958761D01*
X110401904Y-147644476D02*
X110401904Y-147492095D01*
X110440000Y-147415904D01*
X110478095Y-147377809D01*
X110592380Y-147301619D01*
X110744761Y-147263523D01*
X111049523Y-147263523D01*
X111125714Y-147301619D01*
X111163809Y-147339714D01*
X111201904Y-147415904D01*
X111201904Y-147568285D01*
X111163809Y-147644476D01*
X111125714Y-147682571D01*
X111049523Y-147720666D01*
X110859047Y-147720666D01*
X110782857Y-147682571D01*
X110744761Y-147644476D01*
X110706666Y-147568285D01*
X110706666Y-147415904D01*
X110744761Y-147339714D01*
X110782857Y-147301619D01*
X110859047Y-147263523D01*
X114592857Y-145911142D02*
X114630952Y-146025428D01*
X114669047Y-146063523D01*
X114745238Y-146101619D01*
X114859523Y-146101619D01*
X114935714Y-146063523D01*
X114973809Y-146025428D01*
X115011904Y-145949238D01*
X115011904Y-145644476D01*
X114211904Y-145644476D01*
X114211904Y-145911142D01*
X114250000Y-145987333D01*
X114288095Y-146025428D01*
X114364285Y-146063523D01*
X114440476Y-146063523D01*
X114516666Y-146025428D01*
X114554761Y-145987333D01*
X114592857Y-145911142D01*
X114592857Y-145644476D01*
X114211904Y-146444476D02*
X114859523Y-146444476D01*
X114935714Y-146482571D01*
X114973809Y-146520666D01*
X115011904Y-146596857D01*
X115011904Y-146749238D01*
X114973809Y-146825428D01*
X114935714Y-146863523D01*
X114859523Y-146901619D01*
X114211904Y-146901619D01*
X114211904Y-147206380D02*
X114211904Y-147739714D01*
X115011904Y-147206380D01*
X115011904Y-147739714D01*
X124149523Y-148159000D02*
X124225714Y-148120904D01*
X124340000Y-148120904D01*
X124454285Y-148159000D01*
X124530476Y-148235190D01*
X124568571Y-148311380D01*
X124606666Y-148463761D01*
X124606666Y-148578047D01*
X124568571Y-148730428D01*
X124530476Y-148806619D01*
X124454285Y-148882809D01*
X124340000Y-148920904D01*
X124263809Y-148920904D01*
X124149523Y-148882809D01*
X124111428Y-148844714D01*
X124111428Y-148578047D01*
X124263809Y-148578047D01*
X123768571Y-148920904D02*
X123768571Y-148120904D01*
X123311428Y-148920904D01*
X123311428Y-148120904D01*
X122930476Y-148920904D02*
X122930476Y-148120904D01*
X122740000Y-148120904D01*
X122625714Y-148159000D01*
X122549523Y-148235190D01*
X122511428Y-148311380D01*
X122473333Y-148463761D01*
X122473333Y-148578047D01*
X122511428Y-148730428D01*
X122549523Y-148806619D01*
X122625714Y-148882809D01*
X122740000Y-148920904D01*
X122930476Y-148920904D01*
X117740000Y-133284000D02*
X117740000Y-134534000D01*
X117740000Y-134534000D02*
X117240000Y-134534000D01*
X117240000Y-134534000D02*
X116990000Y-134534000D01*
X116990000Y-134534000D02*
X116990000Y-145034000D01*
X116990000Y-145034000D02*
X121490000Y-145034000D01*
X121490000Y-145034000D02*
X121240000Y-134534000D01*
X121240000Y-134534000D02*
X117740000Y-134534000D01*
X117740000Y-133284000D02*
X121490000Y-133284000D01*
X117740000Y-146034000D02*
X117740000Y-145034000D01*
X117740000Y-146034000D02*
X117740000Y-145034000D01*
X117740000Y-133284000D02*
X121490000Y-133284000D01*
X121240000Y-134534000D02*
X117740000Y-134534000D01*
X121490000Y-145034000D02*
X121240000Y-134534000D01*
X116990000Y-145034000D02*
X121490000Y-145034000D01*
X116990000Y-134534000D02*
X116990000Y-145034000D01*
X117240000Y-134534000D02*
X116990000Y-134534000D01*
X117740000Y-134534000D02*
X117240000Y-134534000D01*
X117740000Y-133284000D02*
X117740000Y-134534000D01*
X124149523Y-148159000D02*
X124225714Y-148120904D01*
X124340000Y-148120904D01*
X124454285Y-148159000D01*
X124530476Y-148235190D01*
X124568571Y-148311380D01*
X124606666Y-148463761D01*
X124606666Y-148578047D01*
X124568571Y-148730428D01*
X124530476Y-148806619D01*
X124454285Y-148882809D01*
X124340000Y-148920904D01*
X124263809Y-148920904D01*
X124149523Y-148882809D01*
X124111428Y-148844714D01*
X124111428Y-148578047D01*
X124263809Y-148578047D01*
X123768571Y-148920904D02*
X123768571Y-148120904D01*
X123311428Y-148920904D01*
X123311428Y-148120904D01*
X122930476Y-148920904D02*
X122930476Y-148120904D01*
X122740000Y-148120904D01*
X122625714Y-148159000D01*
X122549523Y-148235190D01*
X122511428Y-148311380D01*
X122473333Y-148463761D01*
X122473333Y-148578047D01*
X122511428Y-148730428D01*
X122549523Y-148806619D01*
X122625714Y-148882809D01*
X122740000Y-148920904D01*
X122930476Y-148920904D01*
X114592857Y-145911142D02*
X114630952Y-146025428D01*
X114669047Y-146063523D01*
X114745238Y-146101619D01*
X114859523Y-146101619D01*
X114935714Y-146063523D01*
X114973809Y-146025428D01*
X115011904Y-145949238D01*
X115011904Y-145644476D01*
X114211904Y-145644476D01*
X114211904Y-145911142D01*
X114250000Y-145987333D01*
X114288095Y-146025428D01*
X114364285Y-146063523D01*
X114440476Y-146063523D01*
X114516666Y-146025428D01*
X114554761Y-145987333D01*
X114592857Y-145911142D01*
X114592857Y-145644476D01*
X114211904Y-146444476D02*
X114859523Y-146444476D01*
X114935714Y-146482571D01*
X114973809Y-146520666D01*
X115011904Y-146596857D01*
X115011904Y-146749238D01*
X114973809Y-146825428D01*
X114935714Y-146863523D01*
X114859523Y-146901619D01*
X114211904Y-146901619D01*
X114211904Y-147206380D02*
X114211904Y-147739714D01*
X115011904Y-147206380D01*
X115011904Y-147739714D01*
X110401904Y-145549238D02*
X111201904Y-145739714D01*
X110630476Y-145892095D01*
X111201904Y-146044476D01*
X110401904Y-146234952D01*
X110478095Y-146501619D02*
X110440000Y-146539714D01*
X110401904Y-146615904D01*
X110401904Y-146806380D01*
X110440000Y-146882571D01*
X110478095Y-146920666D01*
X110554285Y-146958761D01*
X110630476Y-146958761D01*
X110744761Y-146920666D01*
X111201904Y-146463523D01*
X111201904Y-146958761D01*
X110401904Y-147644476D02*
X110401904Y-147492095D01*
X110440000Y-147415904D01*
X110478095Y-147377809D01*
X110592380Y-147301619D01*
X110744761Y-147263523D01*
X111049523Y-147263523D01*
X111125714Y-147301619D01*
X111163809Y-147339714D01*
X111201904Y-147415904D01*
X111201904Y-147568285D01*
X111163809Y-147644476D01*
X111125714Y-147682571D01*
X111049523Y-147720666D01*
X110859047Y-147720666D01*
X110782857Y-147682571D01*
X110744761Y-147644476D01*
X110706666Y-147568285D01*
X110706666Y-147415904D01*
X110744761Y-147339714D01*
X110782857Y-147301619D01*
X110859047Y-147263523D01*
X108026904Y-146139714D02*
X108026904Y-145758761D01*
X107226904Y-145758761D01*
X107607857Y-146406380D02*
X107607857Y-146673047D01*
X108026904Y-146787333D02*
X108026904Y-146406380D01*
X107226904Y-146406380D01*
X107226904Y-146787333D01*
X108026904Y-147130190D02*
X107226904Y-147130190D01*
X107226904Y-147320666D01*
X107265000Y-147434952D01*
X107341190Y-147511142D01*
X107417380Y-147549238D01*
X107569761Y-147587333D01*
X107684047Y-147587333D01*
X107836428Y-147549238D01*
X107912619Y-147511142D01*
X107988809Y-147434952D01*
X108026904Y-147320666D01*
X108026904Y-147130190D01*
X104216904Y-146063523D02*
X103416904Y-146063523D01*
X103416904Y-146254000D01*
X103455000Y-146368285D01*
X103531190Y-146444476D01*
X103607380Y-146482571D01*
X103759761Y-146520666D01*
X103874047Y-146520666D01*
X104026428Y-146482571D01*
X104102619Y-146444476D01*
X104178809Y-146368285D01*
X104216904Y-146254000D01*
X104216904Y-146063523D01*
X104216904Y-147282571D02*
X104216904Y-146825428D01*
X104216904Y-147054000D02*
X103416904Y-147054000D01*
X103531190Y-146977809D01*
X103607380Y-146901619D01*
X103645476Y-146825428D01*
X100406904Y-146063523D02*
X99606904Y-146063523D01*
X99606904Y-146254000D01*
X99645000Y-146368285D01*
X99721190Y-146444476D01*
X99797380Y-146482571D01*
X99949761Y-146520666D01*
X100064047Y-146520666D01*
X100216428Y-146482571D01*
X100292619Y-146444476D01*
X100368809Y-146368285D01*
X100406904Y-146254000D01*
X100406904Y-146063523D01*
X99606904Y-147015904D02*
X99606904Y-147092095D01*
X99645000Y-147168285D01*
X99683095Y-147206380D01*
X99759285Y-147244476D01*
X99911666Y-147282571D01*
X100102142Y-147282571D01*
X100254523Y-147244476D01*
X100330714Y-147206380D01*
X100368809Y-147168285D01*
X100406904Y-147092095D01*
X100406904Y-147015904D01*
X100368809Y-146939714D01*
X100330714Y-146901619D01*
X100254523Y-146863523D01*
X100102142Y-146825428D01*
X99911666Y-146825428D01*
X99759285Y-146863523D01*
X99683095Y-146901619D01*
X99645000Y-146939714D01*
X99606904Y-147015904D01*
X96927142Y-141891857D02*
X96927142Y-142501380D01*
X97231904Y-142196619D02*
X96622380Y-142196619D01*
X97231904Y-143301380D02*
X97231904Y-142844238D01*
X97231904Y-143072809D02*
X96431904Y-143072809D01*
X96546190Y-142996619D01*
X96622380Y-142920428D01*
X96660476Y-142844238D01*
X96508095Y-143606142D02*
X96470000Y-143644238D01*
X96431904Y-143720428D01*
X96431904Y-143910904D01*
X96470000Y-143987095D01*
X96508095Y-144025190D01*
X96584285Y-144063285D01*
X96660476Y-144063285D01*
X96774761Y-144025190D01*
X97231904Y-143568047D01*
X97231904Y-144063285D01*
X96431904Y-144291857D02*
X97231904Y-144558523D01*
X96431904Y-144825190D01*
X96431904Y-145853761D02*
X96431904Y-146006142D01*
X96470000Y-146082333D01*
X96546190Y-146158523D01*
X96698571Y-146196619D01*
X96965238Y-146196619D01*
X97117619Y-146158523D01*
X97193809Y-146082333D01*
X97231904Y-146006142D01*
X97231904Y-145853761D01*
X97193809Y-145777571D01*
X97117619Y-145701380D01*
X96965238Y-145663285D01*
X96698571Y-145663285D01*
X96546190Y-145701380D01*
X96470000Y-145777571D01*
X96431904Y-145853761D01*
X96431904Y-146539476D02*
X97079523Y-146539476D01*
X97155714Y-146577571D01*
X97193809Y-146615666D01*
X97231904Y-146691857D01*
X97231904Y-146844238D01*
X97193809Y-146920428D01*
X97155714Y-146958523D01*
X97079523Y-146996619D01*
X96431904Y-146996619D01*
X96431904Y-147263285D02*
X96431904Y-147720428D01*
X97231904Y-147491857D02*
X96431904Y-147491857D01*
X90881904Y-145073047D02*
X90081904Y-145073047D01*
X90081904Y-145263523D01*
X90120000Y-145377809D01*
X90196190Y-145454000D01*
X90272380Y-145492095D01*
X90424761Y-145530190D01*
X90539047Y-145530190D01*
X90691428Y-145492095D01*
X90767619Y-145454000D01*
X90843809Y-145377809D01*
X90881904Y-145263523D01*
X90881904Y-145073047D01*
X90881904Y-145987333D02*
X90843809Y-145911142D01*
X90805714Y-145873047D01*
X90729523Y-145834952D01*
X90500952Y-145834952D01*
X90424761Y-145873047D01*
X90386666Y-145911142D01*
X90348571Y-145987333D01*
X90348571Y-146101619D01*
X90386666Y-146177809D01*
X90424761Y-146215904D01*
X90500952Y-146254000D01*
X90729523Y-146254000D01*
X90805714Y-146215904D01*
X90843809Y-146177809D01*
X90881904Y-146101619D01*
X90881904Y-145987333D01*
X90881904Y-146711142D02*
X90843809Y-146634952D01*
X90805714Y-146596857D01*
X90729523Y-146558761D01*
X90500952Y-146558761D01*
X90424761Y-146596857D01*
X90386666Y-146634952D01*
X90348571Y-146711142D01*
X90348571Y-146825428D01*
X90386666Y-146901619D01*
X90424761Y-146939714D01*
X90500952Y-146977809D01*
X90729523Y-146977809D01*
X90805714Y-146939714D01*
X90843809Y-146901619D01*
X90881904Y-146825428D01*
X90881904Y-146711142D01*
X90881904Y-147320666D02*
X90348571Y-147320666D01*
X90500952Y-147320666D02*
X90424761Y-147358761D01*
X90386666Y-147396857D01*
X90348571Y-147473047D01*
X90348571Y-147549238D01*
X90881904Y-148273047D02*
X90500952Y-148006380D01*
X90881904Y-147815904D02*
X90081904Y-147815904D01*
X90081904Y-148120666D01*
X90120000Y-148196857D01*
X90158095Y-148234952D01*
X90234285Y-148273047D01*
X90348571Y-148273047D01*
X90424761Y-148234952D01*
X90462857Y-148196857D01*
X90500952Y-148120666D01*
X90500952Y-147815904D01*
X87071904Y-145073047D02*
X86271904Y-145073047D01*
X86271904Y-145263523D01*
X86310000Y-145377809D01*
X86386190Y-145454000D01*
X86462380Y-145492095D01*
X86614761Y-145530190D01*
X86729047Y-145530190D01*
X86881428Y-145492095D01*
X86957619Y-145454000D01*
X87033809Y-145377809D01*
X87071904Y-145263523D01*
X87071904Y-145073047D01*
X87071904Y-145987333D02*
X87033809Y-145911142D01*
X86995714Y-145873047D01*
X86919523Y-145834952D01*
X86690952Y-145834952D01*
X86614761Y-145873047D01*
X86576666Y-145911142D01*
X86538571Y-145987333D01*
X86538571Y-146101619D01*
X86576666Y-146177809D01*
X86614761Y-146215904D01*
X86690952Y-146254000D01*
X86919523Y-146254000D01*
X86995714Y-146215904D01*
X87033809Y-146177809D01*
X87071904Y-146101619D01*
X87071904Y-145987333D01*
X87071904Y-146711142D02*
X87033809Y-146634952D01*
X86995714Y-146596857D01*
X86919523Y-146558761D01*
X86690952Y-146558761D01*
X86614761Y-146596857D01*
X86576666Y-146634952D01*
X86538571Y-146711142D01*
X86538571Y-146825428D01*
X86576666Y-146901619D01*
X86614761Y-146939714D01*
X86690952Y-146977809D01*
X86919523Y-146977809D01*
X86995714Y-146939714D01*
X87033809Y-146901619D01*
X87071904Y-146825428D01*
X87071904Y-146711142D01*
X87071904Y-147320666D02*
X86538571Y-147320666D01*
X86690952Y-147320666D02*
X86614761Y-147358761D01*
X86576666Y-147396857D01*
X86538571Y-147473047D01*
X86538571Y-147549238D01*
X87071904Y-148273047D02*
X86690952Y-148006380D01*
X87071904Y-147815904D02*
X86271904Y-147815904D01*
X86271904Y-148120666D01*
X86310000Y-148196857D01*
X86348095Y-148234952D01*
X86424285Y-148273047D01*
X86538571Y-148273047D01*
X86614761Y-148234952D01*
X86652857Y-148196857D01*
X86690952Y-148120666D01*
X86690952Y-147815904D01*
X117825000Y-146019000D02*
X121635000Y-146019000D01*
X117825000Y-129509000D02*
X117825000Y-130779000D01*
X119730000Y-133259000D02*
X117825000Y-133259000D01*
X117782857Y-136029238D02*
X117820952Y-136143523D01*
X117859047Y-136181619D01*
X117935238Y-136219714D01*
X118049523Y-136219714D01*
X118125714Y-136181619D01*
X118163809Y-136143523D01*
X118201904Y-136067333D01*
X118201904Y-135762571D01*
X117401904Y-135762571D01*
X117401904Y-136029238D01*
X117440000Y-136105428D01*
X117478095Y-136143523D01*
X117554285Y-136181619D01*
X117630476Y-136181619D01*
X117706666Y-136143523D01*
X117744761Y-136105428D01*
X117782857Y-136029238D01*
X117782857Y-135762571D01*
X118201904Y-137019714D02*
X117820952Y-136753047D01*
X118201904Y-136562571D02*
X117401904Y-136562571D01*
X117401904Y-136867333D01*
X117440000Y-136943523D01*
X117478095Y-136981619D01*
X117554285Y-137019714D01*
X117668571Y-137019714D01*
X117744761Y-136981619D01*
X117782857Y-136943523D01*
X117820952Y-136867333D01*
X117820952Y-136562571D01*
X118201904Y-137362571D02*
X117401904Y-137362571D01*
X118201904Y-137743523D02*
X117401904Y-137743523D01*
X117401904Y-137934000D01*
X117440000Y-138048285D01*
X117516190Y-138124476D01*
X117592380Y-138162571D01*
X117744761Y-138200666D01*
X117859047Y-138200666D01*
X118011428Y-138162571D01*
X118087619Y-138124476D01*
X118163809Y-138048285D01*
X118201904Y-137934000D01*
X118201904Y-137743523D01*
X117440000Y-138962571D02*
X117401904Y-138886380D01*
X117401904Y-138772095D01*
X117440000Y-138657809D01*
X117516190Y-138581619D01*
X117592380Y-138543523D01*
X117744761Y-138505428D01*
X117859047Y-138505428D01*
X118011428Y-138543523D01*
X118087619Y-138581619D01*
X118163809Y-138657809D01*
X118201904Y-138772095D01*
X118201904Y-138848285D01*
X118163809Y-138962571D01*
X118125714Y-139000666D01*
X117859047Y-139000666D01*
X117859047Y-138848285D01*
X117782857Y-139343523D02*
X117782857Y-139610190D01*
X118201904Y-139724476D02*
X118201904Y-139343523D01*
X117401904Y-139343523D01*
X117401904Y-139724476D01*
X117401904Y-140829238D02*
X117401904Y-140981619D01*
X117440000Y-141057809D01*
X117516190Y-141134000D01*
X117668571Y-141172095D01*
X117935238Y-141172095D01*
X118087619Y-141134000D01*
X118163809Y-141057809D01*
X118201904Y-140981619D01*
X118201904Y-140829238D01*
X118163809Y-140753047D01*
X118087619Y-140676857D01*
X117935238Y-140638761D01*
X117668571Y-140638761D01*
X117516190Y-140676857D01*
X117440000Y-140753047D01*
X117401904Y-140829238D01*
X118201904Y-141514952D02*
X117401904Y-141514952D01*
X118201904Y-141972095D01*
X117401904Y-141972095D01*
X118201904Y-142734000D02*
X118201904Y-142353047D01*
X117401904Y-142353047D01*
X117820952Y-143153047D02*
X118201904Y-143153047D01*
X117401904Y-142886380D02*
X117820952Y-143153047D01*
X117401904Y-143419714D01*
X118801904Y-135953047D02*
X119601904Y-136143523D01*
X119030476Y-136295904D01*
X119601904Y-136448285D01*
X118801904Y-136638761D01*
X118801904Y-136829238D02*
X118801904Y-137286380D01*
X119601904Y-137057809D02*
X118801904Y-137057809D01*
X119601904Y-137553047D02*
X118801904Y-137553047D01*
X119182857Y-137553047D02*
X119182857Y-138010190D01*
X119601904Y-138010190D02*
X118801904Y-138010190D01*
X119601904Y-139419714D02*
X119601904Y-138962571D01*
X119601904Y-139191142D02*
X118801904Y-139191142D01*
X118916190Y-139114952D01*
X118992380Y-139038761D01*
X119030476Y-138962571D01*
X118878095Y-139724476D02*
X118840000Y-139762571D01*
X118801904Y-139838761D01*
X118801904Y-140029238D01*
X118840000Y-140105428D01*
X118878095Y-140143523D01*
X118954285Y-140181619D01*
X119030476Y-140181619D01*
X119144761Y-140143523D01*
X119601904Y-139686380D01*
X119601904Y-140181619D01*
X118801904Y-140410190D02*
X119601904Y-140676857D01*
X118801904Y-140943523D01*
X119601904Y-141819714D02*
X118801904Y-141819714D01*
X118801904Y-142010190D01*
X118840000Y-142124476D01*
X118916190Y-142200666D01*
X118992380Y-142238761D01*
X119144761Y-142276857D01*
X119259047Y-142276857D01*
X119411428Y-142238761D01*
X119487619Y-142200666D01*
X119563809Y-142124476D01*
X119601904Y-142010190D01*
X119601904Y-141819714D01*
X119525714Y-143076857D02*
X119563809Y-143038761D01*
X119601904Y-142924476D01*
X119601904Y-142848285D01*
X119563809Y-142734000D01*
X119487619Y-142657809D01*
X119411428Y-142619714D01*
X119259047Y-142581619D01*
X119144761Y-142581619D01*
X118992380Y-142619714D01*
X118916190Y-142657809D01*
X118840000Y-142734000D01*
X118801904Y-142848285D01*
X118801904Y-142924476D01*
X118840000Y-143038761D01*
X118878095Y-143076857D01*
X120963809Y-137419714D02*
X121001904Y-137534000D01*
X121001904Y-137724476D01*
X120963809Y-137800666D01*
X120925714Y-137838761D01*
X120849523Y-137876857D01*
X120773333Y-137876857D01*
X120697142Y-137838761D01*
X120659047Y-137800666D01*
X120620952Y-137724476D01*
X120582857Y-137572095D01*
X120544761Y-137495904D01*
X120506666Y-137457809D01*
X120430476Y-137419714D01*
X120354285Y-137419714D01*
X120278095Y-137457809D01*
X120240000Y-137495904D01*
X120201904Y-137572095D01*
X120201904Y-137762571D01*
X120240000Y-137876857D01*
X120201904Y-138219714D02*
X120849523Y-138219714D01*
X120925714Y-138257809D01*
X120963809Y-138295904D01*
X121001904Y-138372095D01*
X121001904Y-138524476D01*
X120963809Y-138600666D01*
X120925714Y-138638761D01*
X120849523Y-138676857D01*
X120201904Y-138676857D01*
X121001904Y-139057809D02*
X120201904Y-139057809D01*
X120201904Y-139362571D01*
X120240000Y-139438761D01*
X120278095Y-139476857D01*
X120354285Y-139514952D01*
X120468571Y-139514952D01*
X120544761Y-139476857D01*
X120582857Y-139438761D01*
X120620952Y-139362571D01*
X120620952Y-139057809D01*
X121001904Y-139857809D02*
X120201904Y-139857809D01*
X120201904Y-140162571D01*
X120240000Y-140238761D01*
X120278095Y-140276857D01*
X120354285Y-140314952D01*
X120468571Y-140314952D01*
X120544761Y-140276857D01*
X120582857Y-140238761D01*
X120620952Y-140162571D01*
X120620952Y-139857809D01*
X121001904Y-141038761D02*
X121001904Y-140657809D01*
X120201904Y-140657809D01*
X120620952Y-141457809D02*
X121001904Y-141457809D01*
X120201904Y-141191142D02*
X120620952Y-141457809D01*
X120201904Y-141724476D01*
X100771190Y-131459476D02*
X100771190Y-132729476D01*
X101496904Y-131459476D01*
X101496904Y-132729476D01*
X102525000Y-132124714D02*
X102101666Y-132124714D01*
X102101666Y-131459476D02*
X102101666Y-132729476D01*
X102706428Y-132729476D01*
X103915952Y-131580428D02*
X103855476Y-131519952D01*
X103674047Y-131459476D01*
X103553095Y-131459476D01*
X103371666Y-131519952D01*
X103250714Y-131640904D01*
X103190238Y-131761857D01*
X103129761Y-132003761D01*
X103129761Y-132185190D01*
X103190238Y-132427095D01*
X103250714Y-132548047D01*
X103371666Y-132669000D01*
X103553095Y-132729476D01*
X103674047Y-132729476D01*
X103855476Y-132669000D01*
X103915952Y-132608523D01*
X104460238Y-131943285D02*
X105427857Y-131943285D01*
X106032619Y-131459476D02*
X106032619Y-132729476D01*
X106335000Y-132729476D01*
X106516428Y-132669000D01*
X106637380Y-132548047D01*
X106697857Y-132427095D01*
X106758333Y-132185190D01*
X106758333Y-132003761D01*
X106697857Y-131761857D01*
X106637380Y-131640904D01*
X106516428Y-131519952D01*
X106335000Y-131459476D01*
X106032619Y-131459476D01*
X107544523Y-132729476D02*
X107786428Y-132729476D01*
X107907380Y-132669000D01*
X108028333Y-132548047D01*
X108088809Y-132306142D01*
X108088809Y-131882809D01*
X108028333Y-131640904D01*
X107907380Y-131519952D01*
X107786428Y-131459476D01*
X107544523Y-131459476D01*
X107423571Y-131519952D01*
X107302619Y-131640904D01*
X107242142Y-131882809D01*
X107242142Y-132306142D01*
X107302619Y-132548047D01*
X107423571Y-132669000D01*
X107544523Y-132729476D01*
X108875000Y-132729476D02*
X109116904Y-132729476D01*
X109237857Y-132669000D01*
X109358809Y-132548047D01*
X109419285Y-132306142D01*
X109419285Y-131882809D01*
X109358809Y-131640904D01*
X109237857Y-131519952D01*
X109116904Y-131459476D01*
X108875000Y-131459476D01*
X108754047Y-131519952D01*
X108633095Y-131640904D01*
X108572619Y-131882809D01*
X108572619Y-132306142D01*
X108633095Y-132548047D01*
X108754047Y-132669000D01*
X108875000Y-132729476D01*
X110689285Y-131459476D02*
X110265952Y-132064238D01*
X109963571Y-131459476D02*
X109963571Y-132729476D01*
X110447380Y-132729476D01*
X110568333Y-132669000D01*
X110628809Y-132608523D01*
X110689285Y-132487571D01*
X110689285Y-132306142D01*
X110628809Y-132185190D01*
X110568333Y-132124714D01*
X110447380Y-132064238D01*
X109963571Y-132064238D01*
X112019761Y-132729476D02*
X112443095Y-131459476D01*
X112866428Y-132729476D01*
X113955000Y-131459476D02*
X113229285Y-131459476D01*
X113592142Y-131459476D02*
X113592142Y-132729476D01*
X113471190Y-132548047D01*
X113350238Y-132427095D01*
X113229285Y-132366619D01*
X114499285Y-131580428D02*
X114559761Y-131519952D01*
X114499285Y-131459476D01*
X114438809Y-131519952D01*
X114499285Y-131580428D01*
X114499285Y-131459476D01*
X115769285Y-131459476D02*
X115043571Y-131459476D01*
X115406428Y-131459476D02*
X115406428Y-132729476D01*
X115285476Y-132548047D01*
X115164523Y-132427095D01*
X115043571Y-132366619D01*
D11*
X80630000Y-143180000D02*
X80630000Y-144510000D01*
X81960000Y-143180000D02*
X80630000Y-143180000D01*
X83230000Y-143180000D02*
X83230000Y-145840000D01*
X83230000Y-145840000D02*
X85830000Y-145840000D01*
X83230000Y-143180000D02*
X85830000Y-143180000D01*
X85830000Y-143180000D02*
X85830000Y-145840000D01*
X122540000Y-147110000D02*
X122540000Y-144450000D01*
X125140000Y-147110000D02*
X122540000Y-147110000D01*
X125140000Y-144450000D02*
X122540000Y-144450000D01*
X125140000Y-147110000D02*
X125140000Y-144450000D01*
X126410000Y-147110000D02*
X127740000Y-147110000D01*
X127740000Y-147110000D02*
X127740000Y-145780000D01*
X85830000Y-143180000D02*
X85830000Y-145840000D01*
X83230000Y-143180000D02*
X85830000Y-143180000D01*
X83230000Y-145840000D02*
X85830000Y-145840000D01*
X83230000Y-143180000D02*
X83230000Y-145840000D01*
X81960000Y-143180000D02*
X80630000Y-143180000D01*
X80630000Y-143180000D02*
X80630000Y-144510000D01*
X122120000Y-134614000D02*
X122120000Y-131954000D01*
X124720000Y-134614000D02*
X122120000Y-134614000D01*
X124720000Y-131954000D02*
X122120000Y-131954000D01*
X124720000Y-134614000D02*
X124720000Y-131954000D01*
X125990000Y-134614000D02*
X127320000Y-134614000D01*
X127320000Y-134614000D02*
X127320000Y-133284000D01*
D12*
G36*
X113026494Y-139055527D02*
G01*
X113086627Y-139003878D01*
X113118861Y-138905179D01*
X113131784Y-138746410D01*
X113134000Y-138545406D01*
X113134000Y-138107846D01*
X114424410Y-138095506D01*
X115714821Y-138083166D01*
X115853160Y-137944859D01*
X115991500Y-137806552D01*
X116002707Y-136907692D01*
X116005869Y-136584137D01*
X116004736Y-136333611D01*
X115996991Y-136144504D01*
X115980316Y-136005200D01*
X115952394Y-135904089D01*
X115910909Y-135829556D01*
X115853542Y-135769988D01*
X115777977Y-135713773D01*
X115762372Y-135703187D01*
X115723230Y-135677876D01*
X115682692Y-135657429D01*
X115631823Y-135641326D01*
X115561687Y-135629049D01*
X115463348Y-135620079D01*
X115327870Y-135613896D01*
X115146318Y-135609983D01*
X114909754Y-135607821D01*
X114609245Y-135606889D01*
X114235852Y-135606671D01*
X114100077Y-135606666D01*
X113681101Y-135607311D01*
X113340136Y-135609399D01*
X113070537Y-135613157D01*
X112865657Y-135618816D01*
X112718849Y-135626603D01*
X112623468Y-135636748D01*
X112572868Y-135649479D01*
X112560670Y-135659669D01*
X112556464Y-135712452D01*
X112553105Y-135840495D01*
X112550642Y-136034396D01*
X112549126Y-136284753D01*
X112548607Y-136582163D01*
X112549137Y-136917223D01*
X112550764Y-137280531D01*
X112551415Y-137384752D01*
X112552537Y-137554000D01*
X113134000Y-137554000D01*
X113134000Y-136199333D01*
X115420000Y-136199333D01*
X115420000Y-137554000D01*
X113134000Y-137554000D01*
X112552537Y-137554000D01*
X112562500Y-139056833D01*
X112788186Y-139069748D01*
X112929876Y-139073143D01*
X113026494Y-139055527D01*
X113026494Y-139055527D01*
G37*
X113026494Y-139055527D02*
X113086627Y-139003878D01*
X113118861Y-138905179D01*
X113131784Y-138746410D01*
X113134000Y-138545406D01*
X113134000Y-138107846D01*
X114424410Y-138095506D01*
X115714821Y-138083166D01*
X115853160Y-137944859D01*
X115991500Y-137806552D01*
X116002707Y-136907692D01*
X116005869Y-136584137D01*
X116004736Y-136333611D01*
X115996991Y-136144504D01*
X115980316Y-136005200D01*
X115952394Y-135904089D01*
X115910909Y-135829556D01*
X115853542Y-135769988D01*
X115777977Y-135713773D01*
X115762372Y-135703187D01*
X115723230Y-135677876D01*
X115682692Y-135657429D01*
X115631823Y-135641326D01*
X115561687Y-135629049D01*
X115463348Y-135620079D01*
X115327870Y-135613896D01*
X115146318Y-135609983D01*
X114909754Y-135607821D01*
X114609245Y-135606889D01*
X114235852Y-135606671D01*
X114100077Y-135606666D01*
X113681101Y-135607311D01*
X113340136Y-135609399D01*
X113070537Y-135613157D01*
X112865657Y-135618816D01*
X112718849Y-135626603D01*
X112623468Y-135636748D01*
X112572868Y-135649479D01*
X112560670Y-135659669D01*
X112556464Y-135712452D01*
X112553105Y-135840495D01*
X112550642Y-136034396D01*
X112549126Y-136284753D01*
X112548607Y-136582163D01*
X112549137Y-136917223D01*
X112550764Y-137280531D01*
X112551415Y-137384752D01*
X112552537Y-137554000D01*
X113134000Y-137554000D01*
X113134000Y-136199333D01*
X115420000Y-136199333D01*
X115420000Y-137554000D01*
X113134000Y-137554000D01*
X112552537Y-137554000D01*
X112562500Y-139056833D01*
X112788186Y-139069748D01*
X112929876Y-139073143D01*
X113026494Y-139055527D01*
G36*
X110046168Y-138099149D02*
G01*
X110410375Y-138096719D01*
X110583248Y-138095345D01*
X112074133Y-138083166D01*
X112350833Y-137806476D01*
X112350833Y-135627833D01*
X110823282Y-135616729D01*
X109295732Y-135605625D01*
X109151733Y-135702666D01*
X109040748Y-135791705D01*
X108967312Y-135893561D01*
X108924357Y-136027435D01*
X108904819Y-136212531D01*
X108901290Y-136383301D01*
X108906170Y-136580333D01*
X109493333Y-136580333D01*
X109493333Y-136199333D01*
X111779333Y-136199333D01*
X111779333Y-136580333D01*
X109493333Y-136580333D01*
X108906170Y-136580333D01*
X108906644Y-136599447D01*
X108925404Y-136750854D01*
X108960347Y-136856779D01*
X108972889Y-136880034D01*
X109016870Y-136947919D01*
X109066286Y-137002324D01*
X109130469Y-137044736D01*
X109218753Y-137076640D01*
X109340471Y-137099521D01*
X109504956Y-137114866D01*
X109721540Y-137124159D01*
X109999557Y-137128887D01*
X110348339Y-137130534D01*
X110547481Y-137130666D01*
X111779333Y-137130666D01*
X111779333Y-137554000D01*
X110426156Y-137554000D01*
X110051706Y-137554209D01*
X109753005Y-137555184D01*
X109521136Y-137557448D01*
X109347181Y-137561523D01*
X109222224Y-137567933D01*
X109137347Y-137577200D01*
X109083633Y-137589846D01*
X109052164Y-137606395D01*
X109034024Y-137627368D01*
X109029156Y-137635883D01*
X108990491Y-137770604D01*
X108994684Y-137919098D01*
X109038848Y-138034337D01*
X109058450Y-138053751D01*
X109091493Y-138069264D01*
X109146444Y-138081210D01*
X109231770Y-138089925D01*
X109355939Y-138095741D01*
X109527417Y-138098994D01*
X109754671Y-138100019D01*
X110046168Y-138099149D01*
X110046168Y-138099149D01*
G37*
X110046168Y-138099149D02*
X110410375Y-138096719D01*
X110583248Y-138095345D01*
X112074133Y-138083166D01*
X112350833Y-137806476D01*
X112350833Y-135627833D01*
X110823282Y-135616729D01*
X109295732Y-135605625D01*
X109151733Y-135702666D01*
X109040748Y-135791705D01*
X108967312Y-135893561D01*
X108924357Y-136027435D01*
X108904819Y-136212531D01*
X108901290Y-136383301D01*
X108906170Y-136580333D01*
X109493333Y-136580333D01*
X109493333Y-136199333D01*
X111779333Y-136199333D01*
X111779333Y-136580333D01*
X109493333Y-136580333D01*
X108906170Y-136580333D01*
X108906644Y-136599447D01*
X108925404Y-136750854D01*
X108960347Y-136856779D01*
X108972889Y-136880034D01*
X109016870Y-136947919D01*
X109066286Y-137002324D01*
X109130469Y-137044736D01*
X109218753Y-137076640D01*
X109340471Y-137099521D01*
X109504956Y-137114866D01*
X109721540Y-137124159D01*
X109999557Y-137128887D01*
X110348339Y-137130534D01*
X110547481Y-137130666D01*
X111779333Y-137130666D01*
X111779333Y-137554000D01*
X110426156Y-137554000D01*
X110051706Y-137554209D01*
X109753005Y-137555184D01*
X109521136Y-137557448D01*
X109347181Y-137561523D01*
X109222224Y-137567933D01*
X109137347Y-137577200D01*
X109083633Y-137589846D01*
X109052164Y-137606395D01*
X109034024Y-137627368D01*
X109029156Y-137635883D01*
X108990491Y-137770604D01*
X108994684Y-137919098D01*
X109038848Y-138034337D01*
X109058450Y-138053751D01*
X109091493Y-138069264D01*
X109146444Y-138081210D01*
X109231770Y-138089925D01*
X109355939Y-138095741D01*
X109527417Y-138098994D01*
X109754671Y-138100019D01*
X110046168Y-138099149D01*
G36*
X108575144Y-139068188D02*
G01*
X108683686Y-139048183D01*
X108713603Y-139032815D01*
X108729228Y-139007830D01*
X108741991Y-138956331D01*
X108752159Y-138870806D01*
X108760000Y-138743747D01*
X108765779Y-138567643D01*
X108769766Y-138334983D01*
X108772227Y-138038259D01*
X108773429Y-137669960D01*
X108773666Y-137345616D01*
X108772934Y-136897112D01*
X108770623Y-136527637D01*
X108766566Y-136231566D01*
X108760592Y-136003275D01*
X108752532Y-135837137D01*
X108742218Y-135727527D01*
X108729479Y-135668821D01*
X108722866Y-135657467D01*
X108652030Y-135626394D01*
X108535960Y-135609881D01*
X108404137Y-135607801D01*
X108286039Y-135620032D01*
X108211147Y-135646448D01*
X108200337Y-135659669D01*
X108196131Y-135712452D01*
X108192771Y-135840495D01*
X108190308Y-136034396D01*
X108188792Y-136284753D01*
X108188274Y-136582163D01*
X108188803Y-136917223D01*
X108190431Y-137280531D01*
X108191082Y-137384752D01*
X108202166Y-139056833D01*
X108427853Y-139069748D01*
X108575144Y-139068188D01*
X108575144Y-139068188D01*
G37*
X108575144Y-139068188D02*
X108683686Y-139048183D01*
X108713603Y-139032815D01*
X108729228Y-139007830D01*
X108741991Y-138956331D01*
X108752159Y-138870806D01*
X108760000Y-138743747D01*
X108765779Y-138567643D01*
X108769766Y-138334983D01*
X108772227Y-138038259D01*
X108773429Y-137669960D01*
X108773666Y-137345616D01*
X108772934Y-136897112D01*
X108770623Y-136527637D01*
X108766566Y-136231566D01*
X108760592Y-136003275D01*
X108752532Y-135837137D01*
X108742218Y-135727527D01*
X108729479Y-135668821D01*
X108722866Y-135657467D01*
X108652030Y-135626394D01*
X108535960Y-135609881D01*
X108404137Y-135607801D01*
X108286039Y-135620032D01*
X108211147Y-135646448D01*
X108200337Y-135659669D01*
X108196131Y-135712452D01*
X108192771Y-135840495D01*
X108190308Y-136034396D01*
X108188792Y-136284753D01*
X108188274Y-136582163D01*
X108188803Y-136917223D01*
X108190431Y-137280531D01*
X108191082Y-137384752D01*
X108202166Y-139056833D01*
X108427853Y-139069748D01*
X108575144Y-139068188D01*
G36*
X107894435Y-137944869D02*
G01*
X108032833Y-137806572D01*
X108032833Y-136601500D01*
X106604083Y-136590353D01*
X105175333Y-136579207D01*
X105175333Y-136202707D01*
X106526526Y-136190437D01*
X106856671Y-136186592D01*
X107159376Y-136181444D01*
X107424328Y-136175294D01*
X107641215Y-136168447D01*
X107799724Y-136161204D01*
X107889542Y-136153869D01*
X107905919Y-136149913D01*
X107938260Y-136074998D01*
X107955722Y-135953142D01*
X107956325Y-135821081D01*
X107938095Y-135715551D01*
X107930266Y-135697436D01*
X107915560Y-135673153D01*
X107894423Y-135653640D01*
X107858228Y-135638375D01*
X107798351Y-135626837D01*
X107706163Y-135618504D01*
X107573041Y-135612855D01*
X107390357Y-135609368D01*
X107149486Y-135607522D01*
X106841801Y-135606796D01*
X106458677Y-135606667D01*
X106428937Y-135606666D01*
X106040038Y-135606780D01*
X105726630Y-135607490D01*
X105479535Y-135609352D01*
X105289577Y-135612921D01*
X105147581Y-135618751D01*
X105044368Y-135627398D01*
X104970764Y-135639416D01*
X104917591Y-135655361D01*
X104875674Y-135675788D01*
X104835835Y-135701251D01*
X104832960Y-135703187D01*
X104753897Y-135760027D01*
X104693447Y-135818142D01*
X104649292Y-135889147D01*
X104619116Y-135984655D01*
X104600600Y-136116277D01*
X104591428Y-136295628D01*
X104589283Y-136534321D01*
X104591848Y-136843968D01*
X104592626Y-136907692D01*
X104600684Y-137554000D01*
X105175333Y-137554000D01*
X105175333Y-137130666D01*
X107461333Y-137130666D01*
X107461333Y-137554000D01*
X105175333Y-137554000D01*
X104600684Y-137554000D01*
X104603833Y-137806552D01*
X104742230Y-137944859D01*
X104880628Y-138083166D01*
X107756038Y-138083166D01*
X107894435Y-137944869D01*
X107894435Y-137944869D01*
G37*
X107894435Y-137944869D02*
X108032833Y-137806572D01*
X108032833Y-136601500D01*
X106604083Y-136590353D01*
X105175333Y-136579207D01*
X105175333Y-136202707D01*
X106526526Y-136190437D01*
X106856671Y-136186592D01*
X107159376Y-136181444D01*
X107424328Y-136175294D01*
X107641215Y-136168447D01*
X107799724Y-136161204D01*
X107889542Y-136153869D01*
X107905919Y-136149913D01*
X107938260Y-136074998D01*
X107955722Y-135953142D01*
X107956325Y-135821081D01*
X107938095Y-135715551D01*
X107930266Y-135697436D01*
X107915560Y-135673153D01*
X107894423Y-135653640D01*
X107858228Y-135638375D01*
X107798351Y-135626837D01*
X107706163Y-135618504D01*
X107573041Y-135612855D01*
X107390357Y-135609368D01*
X107149486Y-135607522D01*
X106841801Y-135606796D01*
X106458677Y-135606667D01*
X106428937Y-135606666D01*
X106040038Y-135606780D01*
X105726630Y-135607490D01*
X105479535Y-135609352D01*
X105289577Y-135612921D01*
X105147581Y-135618751D01*
X105044368Y-135627398D01*
X104970764Y-135639416D01*
X104917591Y-135655361D01*
X104875674Y-135675788D01*
X104835835Y-135701251D01*
X104832960Y-135703187D01*
X104753897Y-135760027D01*
X104693447Y-135818142D01*
X104649292Y-135889147D01*
X104619116Y-135984655D01*
X104600600Y-136116277D01*
X104591428Y-136295628D01*
X104589283Y-136534321D01*
X104591848Y-136843968D01*
X104592626Y-136907692D01*
X104600684Y-137554000D01*
X105175333Y-137554000D01*
X105175333Y-137130666D01*
X107461333Y-137130666D01*
X107461333Y-137554000D01*
X105175333Y-137554000D01*
X104600684Y-137554000D01*
X104603833Y-137806552D01*
X104742230Y-137944859D01*
X104880628Y-138083166D01*
X107756038Y-138083166D01*
X107894435Y-137944869D01*
G36*
X103625248Y-138093476D02*
G01*
X103835800Y-138084574D01*
X103996235Y-138069252D01*
X104115187Y-138046246D01*
X104201291Y-138014290D01*
X104263182Y-137972116D01*
X104309493Y-137918459D01*
X104348860Y-137852053D01*
X104356334Y-137837760D01*
X104404965Y-137701312D01*
X104436703Y-137530006D01*
X104448846Y-137355008D01*
X104438688Y-137207485D01*
X104417087Y-137137681D01*
X104369556Y-137080030D01*
X104290460Y-137052664D01*
X104160867Y-137046000D01*
X103988441Y-137063295D01*
X103882611Y-137122906D01*
X103831080Y-137236417D01*
X103820666Y-137366524D01*
X103820666Y-137554000D01*
X101788666Y-137554000D01*
X101788666Y-136631133D01*
X101787033Y-136292918D01*
X101781920Y-136033184D01*
X101773007Y-135845806D01*
X101759975Y-135724656D01*
X101742504Y-135663609D01*
X101737866Y-135657467D01*
X101666831Y-135626251D01*
X101550626Y-135609742D01*
X101418736Y-135607790D01*
X101300650Y-135620242D01*
X101225853Y-135646947D01*
X101215150Y-135660155D01*
X101210198Y-135715020D01*
X101206474Y-135843178D01*
X101204063Y-136033263D01*
X101203049Y-136273908D01*
X101203518Y-136553747D01*
X101205554Y-136861415D01*
X101205896Y-136898405D01*
X101217166Y-138083166D01*
X102606541Y-138094332D01*
X103019253Y-138097089D01*
X103355944Y-138097226D01*
X103625248Y-138093476D01*
X103625248Y-138093476D01*
G37*
X103625248Y-138093476D02*
X103835800Y-138084574D01*
X103996235Y-138069252D01*
X104115187Y-138046246D01*
X104201291Y-138014290D01*
X104263182Y-137972116D01*
X104309493Y-137918459D01*
X104348860Y-137852053D01*
X104356334Y-137837760D01*
X104404965Y-137701312D01*
X104436703Y-137530006D01*
X104448846Y-137355008D01*
X104438688Y-137207485D01*
X104417087Y-137137681D01*
X104369556Y-137080030D01*
X104290460Y-137052664D01*
X104160867Y-137046000D01*
X103988441Y-137063295D01*
X103882611Y-137122906D01*
X103831080Y-137236417D01*
X103820666Y-137366524D01*
X103820666Y-137554000D01*
X101788666Y-137554000D01*
X101788666Y-136631133D01*
X101787033Y-136292918D01*
X101781920Y-136033184D01*
X101773007Y-135845806D01*
X101759975Y-135724656D01*
X101742504Y-135663609D01*
X101737866Y-135657467D01*
X101666831Y-135626251D01*
X101550626Y-135609742D01*
X101418736Y-135607790D01*
X101300650Y-135620242D01*
X101225853Y-135646947D01*
X101215150Y-135660155D01*
X101210198Y-135715020D01*
X101206474Y-135843178D01*
X101204063Y-136033263D01*
X101203049Y-136273908D01*
X101203518Y-136553747D01*
X101205554Y-136861415D01*
X101205896Y-136898405D01*
X101217166Y-138083166D01*
X102606541Y-138094332D01*
X103019253Y-138097089D01*
X103355944Y-138097226D01*
X103625248Y-138093476D01*
G36*
X98743168Y-138099149D02*
G01*
X99107375Y-138096719D01*
X99280248Y-138095345D01*
X100771133Y-138083166D01*
X101047833Y-137806476D01*
X101047833Y-135627833D01*
X99520282Y-135616729D01*
X97992732Y-135605625D01*
X97848733Y-135702666D01*
X97737748Y-135791705D01*
X97664312Y-135893561D01*
X97621357Y-136027435D01*
X97601819Y-136212531D01*
X97598290Y-136383301D01*
X97603170Y-136580333D01*
X98190333Y-136580333D01*
X98190333Y-136199333D01*
X100476333Y-136199333D01*
X100476333Y-136580333D01*
X98190333Y-136580333D01*
X97603170Y-136580333D01*
X97603644Y-136599447D01*
X97622404Y-136750854D01*
X97657347Y-136856779D01*
X97669889Y-136880034D01*
X97713870Y-136947919D01*
X97763286Y-137002324D01*
X97827469Y-137044736D01*
X97915753Y-137076640D01*
X98037471Y-137099521D01*
X98201956Y-137114866D01*
X98418540Y-137124159D01*
X98696557Y-137128887D01*
X99045339Y-137130534D01*
X99244481Y-137130666D01*
X100476333Y-137130666D01*
X100476333Y-137554000D01*
X99123156Y-137554000D01*
X98748706Y-137554209D01*
X98450005Y-137555184D01*
X98218136Y-137557448D01*
X98044181Y-137561523D01*
X97919224Y-137567933D01*
X97834347Y-137577200D01*
X97780633Y-137589846D01*
X97749164Y-137606395D01*
X97731024Y-137627368D01*
X97726156Y-137635883D01*
X97687491Y-137770604D01*
X97691684Y-137919098D01*
X97735848Y-138034337D01*
X97755450Y-138053751D01*
X97788493Y-138069264D01*
X97843444Y-138081210D01*
X97928770Y-138089925D01*
X98052939Y-138095741D01*
X98224417Y-138098994D01*
X98451671Y-138100019D01*
X98743168Y-138099149D01*
X98743168Y-138099149D01*
G37*
X98743168Y-138099149D02*
X99107375Y-138096719D01*
X99280248Y-138095345D01*
X100771133Y-138083166D01*
X101047833Y-137806476D01*
X101047833Y-135627833D01*
X99520282Y-135616729D01*
X97992732Y-135605625D01*
X97848733Y-135702666D01*
X97737748Y-135791705D01*
X97664312Y-135893561D01*
X97621357Y-136027435D01*
X97601819Y-136212531D01*
X97598290Y-136383301D01*
X97603170Y-136580333D01*
X98190333Y-136580333D01*
X98190333Y-136199333D01*
X100476333Y-136199333D01*
X100476333Y-136580333D01*
X98190333Y-136580333D01*
X97603170Y-136580333D01*
X97603644Y-136599447D01*
X97622404Y-136750854D01*
X97657347Y-136856779D01*
X97669889Y-136880034D01*
X97713870Y-136947919D01*
X97763286Y-137002324D01*
X97827469Y-137044736D01*
X97915753Y-137076640D01*
X98037471Y-137099521D01*
X98201956Y-137114866D01*
X98418540Y-137124159D01*
X98696557Y-137128887D01*
X99045339Y-137130534D01*
X99244481Y-137130666D01*
X100476333Y-137130666D01*
X100476333Y-137554000D01*
X99123156Y-137554000D01*
X98748706Y-137554209D01*
X98450005Y-137555184D01*
X98218136Y-137557448D01*
X98044181Y-137561523D01*
X97919224Y-137567933D01*
X97834347Y-137577200D01*
X97780633Y-137589846D01*
X97749164Y-137606395D01*
X97731024Y-137627368D01*
X97726156Y-137635883D01*
X97687491Y-137770604D01*
X97691684Y-137919098D01*
X97735848Y-138034337D01*
X97755450Y-138053751D01*
X97788493Y-138069264D01*
X97843444Y-138081210D01*
X97928770Y-138089925D01*
X98052939Y-138095741D01*
X98224417Y-138098994D01*
X98451671Y-138100019D01*
X98743168Y-138099149D01*
G36*
X96325909Y-138097267D02*
G01*
X96588704Y-138093345D01*
X96796966Y-138085514D01*
X96958231Y-138072914D01*
X97080032Y-138054682D01*
X97169901Y-138029958D01*
X97235372Y-137997881D01*
X97283979Y-137957588D01*
X97323256Y-137908219D01*
X97360735Y-137848914D01*
X97366693Y-137839066D01*
X97393821Y-137787214D01*
X97414709Y-137724964D01*
X97430396Y-137640525D01*
X97441924Y-137522109D01*
X97450335Y-137357925D01*
X97456668Y-137136184D01*
X97461966Y-136845097D01*
X97463506Y-136742697D01*
X97466814Y-136370897D01*
X97464614Y-136081517D01*
X97456840Y-135872486D01*
X97443427Y-135741734D01*
X97430267Y-135694947D01*
X97385314Y-135641068D01*
X97308850Y-135614395D01*
X97175725Y-135606708D01*
X97160143Y-135606666D01*
X97023871Y-135615804D01*
X96919811Y-135639166D01*
X96886466Y-135657466D01*
X96867939Y-135705667D01*
X96853923Y-135812573D01*
X96844099Y-135984311D01*
X96838148Y-136227007D01*
X96835749Y-136546787D01*
X96835666Y-136631133D01*
X96835666Y-137554000D01*
X95650333Y-137554000D01*
X95650333Y-136631133D01*
X95648699Y-136292918D01*
X95643586Y-136033184D01*
X95634674Y-135845806D01*
X95621642Y-135724656D01*
X95604171Y-135663609D01*
X95599533Y-135657467D01*
X95530468Y-135628489D01*
X95409576Y-135610095D01*
X95325856Y-135606666D01*
X95184189Y-135613663D01*
X95102681Y-135639506D01*
X95059156Y-135688550D01*
X95044315Y-135759069D01*
X95032064Y-135904221D01*
X95022852Y-136113999D01*
X95017129Y-136378395D01*
X95015333Y-136662217D01*
X95015333Y-137554000D01*
X93830000Y-137554000D01*
X93830000Y-136631133D01*
X93828366Y-136292918D01*
X93823253Y-136033184D01*
X93814340Y-135845806D01*
X93801308Y-135724656D01*
X93783838Y-135663609D01*
X93779200Y-135657467D01*
X93708165Y-135626251D01*
X93591959Y-135609742D01*
X93460069Y-135607790D01*
X93341983Y-135620242D01*
X93267186Y-135646947D01*
X93256484Y-135660155D01*
X93251532Y-135715020D01*
X93247808Y-135843178D01*
X93245396Y-136033263D01*
X93244382Y-136273908D01*
X93244851Y-136553747D01*
X93246887Y-136861415D01*
X93247229Y-136898405D01*
X93258500Y-138083166D01*
X95135002Y-138094193D01*
X95606592Y-138096829D01*
X96001050Y-138098141D01*
X96325909Y-138097267D01*
X96325909Y-138097267D01*
G37*
X96325909Y-138097267D02*
X96588704Y-138093345D01*
X96796966Y-138085514D01*
X96958231Y-138072914D01*
X97080032Y-138054682D01*
X97169901Y-138029958D01*
X97235372Y-137997881D01*
X97283979Y-137957588D01*
X97323256Y-137908219D01*
X97360735Y-137848914D01*
X97366693Y-137839066D01*
X97393821Y-137787214D01*
X97414709Y-137724964D01*
X97430396Y-137640525D01*
X97441924Y-137522109D01*
X97450335Y-137357925D01*
X97456668Y-137136184D01*
X97461966Y-136845097D01*
X97463506Y-136742697D01*
X97466814Y-136370897D01*
X97464614Y-136081517D01*
X97456840Y-135872486D01*
X97443427Y-135741734D01*
X97430267Y-135694947D01*
X97385314Y-135641068D01*
X97308850Y-135614395D01*
X97175725Y-135606708D01*
X97160143Y-135606666D01*
X97023871Y-135615804D01*
X96919811Y-135639166D01*
X96886466Y-135657466D01*
X96867939Y-135705667D01*
X96853923Y-135812573D01*
X96844099Y-135984311D01*
X96838148Y-136227007D01*
X96835749Y-136546787D01*
X96835666Y-136631133D01*
X96835666Y-137554000D01*
X95650333Y-137554000D01*
X95650333Y-136631133D01*
X95648699Y-136292918D01*
X95643586Y-136033184D01*
X95634674Y-135845806D01*
X95621642Y-135724656D01*
X95604171Y-135663609D01*
X95599533Y-135657467D01*
X95530468Y-135628489D01*
X95409576Y-135610095D01*
X95325856Y-135606666D01*
X95184189Y-135613663D01*
X95102681Y-135639506D01*
X95059156Y-135688550D01*
X95044315Y-135759069D01*
X95032064Y-135904221D01*
X95022852Y-136113999D01*
X95017129Y-136378395D01*
X95015333Y-136662217D01*
X95015333Y-137554000D01*
X93830000Y-137554000D01*
X93830000Y-136631133D01*
X93828366Y-136292918D01*
X93823253Y-136033184D01*
X93814340Y-135845806D01*
X93801308Y-135724656D01*
X93783838Y-135663609D01*
X93779200Y-135657467D01*
X93708165Y-135626251D01*
X93591959Y-135609742D01*
X93460069Y-135607790D01*
X93341983Y-135620242D01*
X93267186Y-135646947D01*
X93256484Y-135660155D01*
X93251532Y-135715020D01*
X93247808Y-135843178D01*
X93245396Y-136033263D01*
X93244382Y-136273908D01*
X93244851Y-136553747D01*
X93246887Y-136861415D01*
X93247229Y-136898405D01*
X93258500Y-138083166D01*
X95135002Y-138094193D01*
X95606592Y-138096829D01*
X96001050Y-138098141D01*
X96325909Y-138097267D01*
G36*
X115159022Y-134887000D02*
G01*
X115444672Y-134883880D01*
X115650015Y-134874313D01*
X115779192Y-134857987D01*
X115834866Y-134836200D01*
X115862609Y-134768336D01*
X115881061Y-134646332D01*
X115885666Y-134539866D01*
X115885666Y-134294333D01*
X114658000Y-134294333D01*
X114658000Y-134082666D01*
X115843333Y-134082666D01*
X115843333Y-133871000D01*
X115214894Y-133871000D01*
X114967449Y-133872067D01*
X114790650Y-133876302D01*
X114670493Y-133885257D01*
X114592972Y-133900485D01*
X114544083Y-133923538D01*
X114516394Y-133948417D01*
X114478417Y-134014482D01*
X114456307Y-134121113D01*
X114447083Y-134286452D01*
X114446333Y-134374533D01*
X114446867Y-134561960D01*
X114456396Y-134697072D01*
X114463251Y-134717666D01*
X114658000Y-134717666D01*
X114658000Y-134506000D01*
X115674000Y-134506000D01*
X115674000Y-134717666D01*
X114658000Y-134717666D01*
X114463251Y-134717666D01*
X114486804Y-134788417D01*
X114549980Y-134844541D01*
X114657810Y-134873993D01*
X114822181Y-134885320D01*
X115054980Y-134887069D01*
X115159022Y-134887000D01*
X115159022Y-134887000D01*
G37*
X115159022Y-134887000D02*
X115444672Y-134883880D01*
X115650015Y-134874313D01*
X115779192Y-134857987D01*
X115834866Y-134836200D01*
X115862609Y-134768336D01*
X115881061Y-134646332D01*
X115885666Y-134539866D01*
X115885666Y-134294333D01*
X114658000Y-134294333D01*
X114658000Y-134082666D01*
X115843333Y-134082666D01*
X115843333Y-133871000D01*
X115214894Y-133871000D01*
X114967449Y-133872067D01*
X114790650Y-133876302D01*
X114670493Y-133885257D01*
X114592972Y-133900485D01*
X114544083Y-133923538D01*
X114516394Y-133948417D01*
X114478417Y-134014482D01*
X114456307Y-134121113D01*
X114447083Y-134286452D01*
X114446333Y-134374533D01*
X114446867Y-134561960D01*
X114456396Y-134697072D01*
X114463251Y-134717666D01*
X114658000Y-134717666D01*
X114658000Y-134506000D01*
X115674000Y-134506000D01*
X115674000Y-134717666D01*
X114658000Y-134717666D01*
X114463251Y-134717666D01*
X114486804Y-134788417D01*
X114549980Y-134844541D01*
X114657810Y-134873993D01*
X114822181Y-134885320D01*
X115054980Y-134887069D01*
X115159022Y-134887000D01*
G36*
X113685822Y-134887000D02*
G01*
X113938770Y-134886504D01*
X114119249Y-134883996D01*
X114239456Y-134877949D01*
X114311589Y-134866835D01*
X114347842Y-134849127D01*
X114360415Y-134823295D01*
X114361666Y-134802333D01*
X114357391Y-134769322D01*
X114336041Y-134746226D01*
X114284826Y-134731279D01*
X114190957Y-134722718D01*
X114041646Y-134718778D01*
X113824104Y-134717697D01*
X113747833Y-134717666D01*
X113134000Y-134717666D01*
X113134000Y-134082666D01*
X114361666Y-134082666D01*
X114361666Y-133871000D01*
X113712061Y-133871000D01*
X113460153Y-133872003D01*
X113279165Y-133875997D01*
X113155361Y-133884459D01*
X113075006Y-133898867D01*
X113024368Y-133920699D01*
X112992394Y-133948417D01*
X112954417Y-134014482D01*
X112932307Y-134121113D01*
X112923083Y-134286452D01*
X112922333Y-134374533D01*
X112922541Y-134556568D01*
X112930816Y-134689496D01*
X112958634Y-134781021D01*
X113017469Y-134838843D01*
X113118797Y-134870667D01*
X113274093Y-134884194D01*
X113494833Y-134887127D01*
X113685822Y-134887000D01*
X113685822Y-134887000D01*
G37*
X113685822Y-134887000D02*
X113938770Y-134886504D01*
X114119249Y-134883996D01*
X114239456Y-134877949D01*
X114311589Y-134866835D01*
X114347842Y-134849127D01*
X114360415Y-134823295D01*
X114361666Y-134802333D01*
X114357391Y-134769322D01*
X114336041Y-134746226D01*
X114284826Y-134731279D01*
X114190957Y-134722718D01*
X114041646Y-134718778D01*
X113824104Y-134717697D01*
X113747833Y-134717666D01*
X113134000Y-134717666D01*
X113134000Y-134082666D01*
X114361666Y-134082666D01*
X114361666Y-133871000D01*
X113712061Y-133871000D01*
X113460153Y-133872003D01*
X113279165Y-133875997D01*
X113155361Y-133884459D01*
X113075006Y-133898867D01*
X113024368Y-133920699D01*
X112992394Y-133948417D01*
X112954417Y-134014482D01*
X112932307Y-134121113D01*
X112923083Y-134286452D01*
X112922333Y-134374533D01*
X112922541Y-134556568D01*
X112930816Y-134689496D01*
X112958634Y-134781021D01*
X113017469Y-134838843D01*
X113118797Y-134870667D01*
X113274093Y-134884194D01*
X113494833Y-134887127D01*
X113685822Y-134887000D01*
G36*
X112043916Y-134886352D02*
G01*
X112264641Y-134883794D01*
X112457089Y-134877214D01*
X112604389Y-134867515D01*
X112689671Y-134855599D01*
X112701583Y-134851176D01*
X112743913Y-134789271D01*
X112777464Y-134681824D01*
X112781205Y-134661324D01*
X112792758Y-134559443D01*
X112773165Y-134515867D01*
X112708821Y-134506072D01*
X112695038Y-134506000D01*
X112611706Y-134521531D01*
X112584612Y-134584104D01*
X112583666Y-134611833D01*
X112583666Y-134717666D01*
X111652333Y-134717666D01*
X111652333Y-134294333D01*
X111651689Y-134102221D01*
X111647180Y-133979317D01*
X111634943Y-133910165D01*
X111611112Y-133879305D01*
X111571823Y-133871280D01*
X111546500Y-133871000D01*
X111440666Y-133871000D01*
X111440666Y-134887000D01*
X112043916Y-134886352D01*
X112043916Y-134886352D01*
G37*
X112043916Y-134886352D02*
X112264641Y-134883794D01*
X112457089Y-134877214D01*
X112604389Y-134867515D01*
X112689671Y-134855599D01*
X112701583Y-134851176D01*
X112743913Y-134789271D01*
X112777464Y-134681824D01*
X112781205Y-134661324D01*
X112792758Y-134559443D01*
X112773165Y-134515867D01*
X112708821Y-134506072D01*
X112695038Y-134506000D01*
X112611706Y-134521531D01*
X112584612Y-134584104D01*
X112583666Y-134611833D01*
X112583666Y-134717666D01*
X111652333Y-134717666D01*
X111652333Y-134294333D01*
X111651689Y-134102221D01*
X111647180Y-133979317D01*
X111634943Y-133910165D01*
X111611112Y-133879305D01*
X111571823Y-133871280D01*
X111546500Y-133871000D01*
X111440666Y-133871000D01*
X111440666Y-134887000D01*
X112043916Y-134886352D01*
G36*
X110071528Y-134884207D02*
G01*
X110102450Y-134865256D01*
X110119438Y-134814287D01*
X110126665Y-134715441D01*
X110128306Y-134552860D01*
X110128333Y-134484833D01*
X110128333Y-134082666D01*
X111144333Y-134082666D01*
X111144333Y-134484833D01*
X111145068Y-134671143D01*
X111150055Y-134788645D01*
X111163468Y-134853198D01*
X111189480Y-134880663D01*
X111232264Y-134886898D01*
X111250166Y-134887000D01*
X111356000Y-134887000D01*
X111356000Y-133871000D01*
X110706394Y-133871000D01*
X110454487Y-133872003D01*
X110273498Y-133875997D01*
X110149694Y-133884459D01*
X110069340Y-133898867D01*
X110018702Y-133920699D01*
X109986727Y-133948417D01*
X109952979Y-134004083D01*
X109931600Y-134092322D01*
X109920276Y-134229926D01*
X109916689Y-134433693D01*
X109916666Y-134456417D01*
X109916666Y-134887000D01*
X110022500Y-134887000D01*
X110071528Y-134884207D01*
X110071528Y-134884207D01*
G37*
X110071528Y-134884207D02*
X110102450Y-134865256D01*
X110119438Y-134814287D01*
X110126665Y-134715441D01*
X110128306Y-134552860D01*
X110128333Y-134484833D01*
X110128333Y-134082666D01*
X111144333Y-134082666D01*
X111144333Y-134484833D01*
X111145068Y-134671143D01*
X111150055Y-134788645D01*
X111163468Y-134853198D01*
X111189480Y-134880663D01*
X111232264Y-134886898D01*
X111250166Y-134887000D01*
X111356000Y-134887000D01*
X111356000Y-133871000D01*
X110706394Y-133871000D01*
X110454487Y-133872003D01*
X110273498Y-133875997D01*
X110149694Y-133884459D01*
X110069340Y-133898867D01*
X110018702Y-133920699D01*
X109986727Y-133948417D01*
X109952979Y-134004083D01*
X109931600Y-134092322D01*
X109920276Y-134229926D01*
X109916689Y-134433693D01*
X109916666Y-134456417D01*
X109916666Y-134887000D01*
X110022500Y-134887000D01*
X110071528Y-134884207D01*
G36*
X109063022Y-134887000D02*
G01*
X109348672Y-134883880D01*
X109554015Y-134874313D01*
X109683192Y-134857987D01*
X109738866Y-134836200D01*
X109766036Y-134763922D01*
X109783328Y-134616871D01*
X109789656Y-134404485D01*
X109789666Y-134394724D01*
X109788499Y-134203650D01*
X109777079Y-134065804D01*
X109743530Y-133972500D01*
X109675976Y-133915051D01*
X109562540Y-133884773D01*
X109391345Y-133872980D01*
X109150515Y-133870985D01*
X109073537Y-133871000D01*
X108835845Y-133872228D01*
X108668160Y-133877071D01*
X108555841Y-133887262D01*
X108484249Y-133904538D01*
X108438744Y-133930634D01*
X108420394Y-133948417D01*
X108382417Y-134014482D01*
X108360307Y-134121113D01*
X108351083Y-134286452D01*
X108350333Y-134374533D01*
X108350867Y-134561960D01*
X108360396Y-134697072D01*
X108367251Y-134717666D01*
X108562000Y-134717666D01*
X108562000Y-134082666D01*
X109578000Y-134082666D01*
X109578000Y-134717666D01*
X108562000Y-134717666D01*
X108367251Y-134717666D01*
X108390804Y-134788417D01*
X108453980Y-134844541D01*
X108561810Y-134873993D01*
X108726181Y-134885320D01*
X108958980Y-134887069D01*
X109063022Y-134887000D01*
X109063022Y-134887000D01*
G37*
X109063022Y-134887000D02*
X109348672Y-134883880D01*
X109554015Y-134874313D01*
X109683192Y-134857987D01*
X109738866Y-134836200D01*
X109766036Y-134763922D01*
X109783328Y-134616871D01*
X109789656Y-134404485D01*
X109789666Y-134394724D01*
X109788499Y-134203650D01*
X109777079Y-134065804D01*
X109743530Y-133972500D01*
X109675976Y-133915051D01*
X109562540Y-133884773D01*
X109391345Y-133872980D01*
X109150515Y-133870985D01*
X109073537Y-133871000D01*
X108835845Y-133872228D01*
X108668160Y-133877071D01*
X108555841Y-133887262D01*
X108484249Y-133904538D01*
X108438744Y-133930634D01*
X108420394Y-133948417D01*
X108382417Y-134014482D01*
X108360307Y-134121113D01*
X108351083Y-134286452D01*
X108350333Y-134374533D01*
X108350867Y-134561960D01*
X108360396Y-134697072D01*
X108367251Y-134717666D01*
X108562000Y-134717666D01*
X108562000Y-134082666D01*
X109578000Y-134082666D01*
X109578000Y-134717666D01*
X108562000Y-134717666D01*
X108367251Y-134717666D01*
X108390804Y-134788417D01*
X108453980Y-134844541D01*
X108561810Y-134873993D01*
X108726181Y-134885320D01*
X108958980Y-134887069D01*
X109063022Y-134887000D01*
G36*
X107800437Y-134886504D02*
G01*
X107980916Y-134883996D01*
X108101123Y-134877949D01*
X108173255Y-134866835D01*
X108209509Y-134849127D01*
X108222081Y-134823295D01*
X108223333Y-134802333D01*
X108219058Y-134769322D01*
X108197707Y-134746226D01*
X108146492Y-134731279D01*
X108052624Y-134722718D01*
X107903313Y-134718778D01*
X107685771Y-134717697D01*
X107609500Y-134717666D01*
X106995666Y-134717666D01*
X106995666Y-134506000D01*
X107515413Y-134506000D01*
X107776882Y-134502523D01*
X107965450Y-134488627D01*
X108092725Y-134459119D01*
X108170313Y-134408803D01*
X108209818Y-134332484D01*
X108222848Y-134224967D01*
X108223333Y-134189123D01*
X108219389Y-134077502D01*
X108200025Y-133995561D01*
X108153940Y-133938728D01*
X108069832Y-133902429D01*
X107936402Y-133882093D01*
X107742348Y-133873145D01*
X107476370Y-133871015D01*
X107437142Y-133871000D01*
X106784000Y-133871000D01*
X106784000Y-134082666D01*
X108011666Y-134082666D01*
X108011666Y-134294333D01*
X107464357Y-134294333D01*
X107209322Y-134297141D01*
X107026909Y-134308856D01*
X106905162Y-134334414D01*
X106832129Y-134378752D01*
X106795857Y-134446806D01*
X106784392Y-134543513D01*
X106784000Y-134575307D01*
X106786364Y-134685938D01*
X106801129Y-134766702D01*
X106839803Y-134822299D01*
X106913896Y-134857425D01*
X107034914Y-134876780D01*
X107214366Y-134885062D01*
X107463761Y-134886969D01*
X107547489Y-134887000D01*
X107800437Y-134886504D01*
X107800437Y-134886504D01*
G37*
X107800437Y-134886504D02*
X107980916Y-134883996D01*
X108101123Y-134877949D01*
X108173255Y-134866835D01*
X108209509Y-134849127D01*
X108222081Y-134823295D01*
X108223333Y-134802333D01*
X108219058Y-134769322D01*
X108197707Y-134746226D01*
X108146492Y-134731279D01*
X108052624Y-134722718D01*
X107903313Y-134718778D01*
X107685771Y-134717697D01*
X107609500Y-134717666D01*
X106995666Y-134717666D01*
X106995666Y-134506000D01*
X107515413Y-134506000D01*
X107776882Y-134502523D01*
X107965450Y-134488627D01*
X108092725Y-134459119D01*
X108170313Y-134408803D01*
X108209818Y-134332484D01*
X108222848Y-134224967D01*
X108223333Y-134189123D01*
X108219389Y-134077502D01*
X108200025Y-133995561D01*
X108153940Y-133938728D01*
X108069832Y-133902429D01*
X107936402Y-133882093D01*
X107742348Y-133873145D01*
X107476370Y-133871015D01*
X107437142Y-133871000D01*
X106784000Y-133871000D01*
X106784000Y-134082666D01*
X108011666Y-134082666D01*
X108011666Y-134294333D01*
X107464357Y-134294333D01*
X107209322Y-134297141D01*
X107026909Y-134308856D01*
X106905162Y-134334414D01*
X106832129Y-134378752D01*
X106795857Y-134446806D01*
X106784392Y-134543513D01*
X106784000Y-134575307D01*
X106786364Y-134685938D01*
X106801129Y-134766702D01*
X106839803Y-134822299D01*
X106913896Y-134857425D01*
X107034914Y-134876780D01*
X107214366Y-134885062D01*
X107463761Y-134886969D01*
X107547489Y-134887000D01*
X107800437Y-134886504D01*
G36*
X106222279Y-134884237D02*
G01*
X106436023Y-134875720D01*
X106574925Y-134861108D01*
X106643810Y-134840062D01*
X106648533Y-134836200D01*
X106675140Y-134763403D01*
X106692131Y-134609939D01*
X106699154Y-134379299D01*
X106699333Y-134328200D01*
X106699333Y-133871000D01*
X106593500Y-133871000D01*
X106545471Y-133873576D01*
X106514746Y-133891610D01*
X106497457Y-133940561D01*
X106489742Y-134035885D01*
X106487736Y-134193040D01*
X106487666Y-134294333D01*
X106487666Y-134717666D01*
X105471666Y-134717666D01*
X105471666Y-134294333D01*
X105471022Y-134102221D01*
X105466514Y-133979317D01*
X105454276Y-133910165D01*
X105430445Y-133879305D01*
X105391156Y-133871280D01*
X105365833Y-133871000D01*
X105260000Y-133871000D01*
X105260000Y-134887000D01*
X105928866Y-134887000D01*
X106222279Y-134884237D01*
X106222279Y-134884237D01*
G37*
X106222279Y-134884237D02*
X106436023Y-134875720D01*
X106574925Y-134861108D01*
X106643810Y-134840062D01*
X106648533Y-134836200D01*
X106675140Y-134763403D01*
X106692131Y-134609939D01*
X106699154Y-134379299D01*
X106699333Y-134328200D01*
X106699333Y-133871000D01*
X106593500Y-133871000D01*
X106545471Y-133873576D01*
X106514746Y-133891610D01*
X106497457Y-133940561D01*
X106489742Y-134035885D01*
X106487736Y-134193040D01*
X106487666Y-134294333D01*
X106487666Y-134717666D01*
X105471666Y-134717666D01*
X105471666Y-134294333D01*
X105471022Y-134102221D01*
X105466514Y-133979317D01*
X105454276Y-133910165D01*
X105430445Y-133879305D01*
X105391156Y-133871280D01*
X105365833Y-133871000D01*
X105260000Y-133871000D01*
X105260000Y-134887000D01*
X105928866Y-134887000D01*
X106222279Y-134884237D01*
G36*
X104406356Y-134887000D02*
G01*
X104692005Y-134883880D01*
X104897349Y-134874313D01*
X105026525Y-134857987D01*
X105082200Y-134836200D01*
X105109943Y-134768336D01*
X105128394Y-134646332D01*
X105133000Y-134539866D01*
X105133000Y-134294333D01*
X103905333Y-134294333D01*
X103905333Y-134082666D01*
X105090666Y-134082666D01*
X105090666Y-133871000D01*
X104462227Y-133871000D01*
X104214782Y-133872067D01*
X104037983Y-133876302D01*
X103917826Y-133885257D01*
X103840305Y-133900485D01*
X103791416Y-133923538D01*
X103763727Y-133948417D01*
X103725750Y-134014482D01*
X103703641Y-134121113D01*
X103694416Y-134286452D01*
X103693666Y-134374533D01*
X103694201Y-134561960D01*
X103703729Y-134697072D01*
X103710584Y-134717666D01*
X103905333Y-134717666D01*
X103905333Y-134506000D01*
X104921333Y-134506000D01*
X104921333Y-134717666D01*
X103905333Y-134717666D01*
X103710584Y-134717666D01*
X103734138Y-134788417D01*
X103797313Y-134844541D01*
X103905144Y-134873993D01*
X104069515Y-134885320D01*
X104302313Y-134887069D01*
X104406356Y-134887000D01*
X104406356Y-134887000D01*
G37*
X104406356Y-134887000D02*
X104692005Y-134883880D01*
X104897349Y-134874313D01*
X105026525Y-134857987D01*
X105082200Y-134836200D01*
X105109943Y-134768336D01*
X105128394Y-134646332D01*
X105133000Y-134539866D01*
X105133000Y-134294333D01*
X103905333Y-134294333D01*
X103905333Y-134082666D01*
X105090666Y-134082666D01*
X105090666Y-133871000D01*
X104462227Y-133871000D01*
X104214782Y-133872067D01*
X104037983Y-133876302D01*
X103917826Y-133885257D01*
X103840305Y-133900485D01*
X103791416Y-133923538D01*
X103763727Y-133948417D01*
X103725750Y-134014482D01*
X103703641Y-134121113D01*
X103694416Y-134286452D01*
X103693666Y-134374533D01*
X103694201Y-134561960D01*
X103703729Y-134697072D01*
X103710584Y-134717666D01*
X103905333Y-134717666D01*
X103905333Y-134506000D01*
X104921333Y-134506000D01*
X104921333Y-134717666D01*
X103905333Y-134717666D01*
X103710584Y-134717666D01*
X103734138Y-134788417D01*
X103797313Y-134844541D01*
X103905144Y-134873993D01*
X104069515Y-134885320D01*
X104302313Y-134887069D01*
X104406356Y-134887000D01*
G36*
X101316022Y-134887000D02*
G01*
X101601672Y-134883880D01*
X101807015Y-134874313D01*
X101936192Y-134857987D01*
X101991866Y-134836200D01*
X102019036Y-134763922D01*
X102036328Y-134616871D01*
X102042656Y-134404485D01*
X102042666Y-134394724D01*
X102041499Y-134203650D01*
X102030079Y-134065804D01*
X101996530Y-133972500D01*
X101928976Y-133915051D01*
X101815540Y-133884773D01*
X101644345Y-133872980D01*
X101403515Y-133870985D01*
X101326537Y-133871000D01*
X101088845Y-133872228D01*
X100921160Y-133877071D01*
X100808841Y-133887262D01*
X100737249Y-133904538D01*
X100691744Y-133930634D01*
X100673394Y-133948417D01*
X100635417Y-134014482D01*
X100613307Y-134121113D01*
X100604083Y-134286452D01*
X100603333Y-134374533D01*
X100603867Y-134561960D01*
X100613396Y-134697072D01*
X100620251Y-134717666D01*
X100815000Y-134717666D01*
X100815000Y-134082666D01*
X101831000Y-134082666D01*
X101831000Y-134717666D01*
X100815000Y-134717666D01*
X100620251Y-134717666D01*
X100643804Y-134788417D01*
X100706980Y-134844541D01*
X100814810Y-134873993D01*
X100979181Y-134885320D01*
X101211980Y-134887069D01*
X101316022Y-134887000D01*
X101316022Y-134887000D01*
G37*
X101316022Y-134887000D02*
X101601672Y-134883880D01*
X101807015Y-134874313D01*
X101936192Y-134857987D01*
X101991866Y-134836200D01*
X102019036Y-134763922D01*
X102036328Y-134616871D01*
X102042656Y-134404485D01*
X102042666Y-134394724D01*
X102041499Y-134203650D01*
X102030079Y-134065804D01*
X101996530Y-133972500D01*
X101928976Y-133915051D01*
X101815540Y-133884773D01*
X101644345Y-133872980D01*
X101403515Y-133870985D01*
X101326537Y-133871000D01*
X101088845Y-133872228D01*
X100921160Y-133877071D01*
X100808841Y-133887262D01*
X100737249Y-133904538D01*
X100691744Y-133930634D01*
X100673394Y-133948417D01*
X100635417Y-134014482D01*
X100613307Y-134121113D01*
X100604083Y-134286452D01*
X100603333Y-134374533D01*
X100603867Y-134561960D01*
X100613396Y-134697072D01*
X100620251Y-134717666D01*
X100815000Y-134717666D01*
X100815000Y-134082666D01*
X101831000Y-134082666D01*
X101831000Y-134717666D01*
X100815000Y-134717666D01*
X100620251Y-134717666D01*
X100643804Y-134788417D01*
X100706980Y-134844541D01*
X100814810Y-134873993D01*
X100979181Y-134885320D01*
X101211980Y-134887069D01*
X101316022Y-134887000D01*
G36*
X103131945Y-134884237D02*
G01*
X103345690Y-134875720D01*
X103484592Y-134861108D01*
X103553477Y-134840062D01*
X103558200Y-134836200D01*
X103585369Y-134763922D01*
X103602661Y-134616871D01*
X103608990Y-134404485D01*
X103609000Y-134394724D01*
X103607538Y-134199456D01*
X103595027Y-134059976D01*
X103559278Y-133966902D01*
X103488102Y-133910850D01*
X103369310Y-133882437D01*
X103190712Y-133872281D01*
X102940119Y-133870999D01*
X102928642Y-133871000D01*
X102381333Y-133871000D01*
X102381333Y-133659333D01*
X102377902Y-133533711D01*
X102360390Y-133471041D01*
X102317973Y-133449672D01*
X102275500Y-133447666D01*
X102169666Y-133447666D01*
X102169666Y-134717666D01*
X102381333Y-134717666D01*
X102381333Y-134082666D01*
X103397333Y-134082666D01*
X103397333Y-134717666D01*
X102381333Y-134717666D01*
X102169666Y-134717666D01*
X102169666Y-134887000D01*
X102838533Y-134887000D01*
X103131945Y-134884237D01*
X103131945Y-134884237D01*
G37*
X103131945Y-134884237D02*
X103345690Y-134875720D01*
X103484592Y-134861108D01*
X103553477Y-134840062D01*
X103558200Y-134836200D01*
X103585369Y-134763922D01*
X103602661Y-134616871D01*
X103608990Y-134404485D01*
X103609000Y-134394724D01*
X103607538Y-134199456D01*
X103595027Y-134059976D01*
X103559278Y-133966902D01*
X103488102Y-133910850D01*
X103369310Y-133882437D01*
X103190712Y-133872281D01*
X102940119Y-133870999D01*
X102928642Y-133871000D01*
X102381333Y-133871000D01*
X102381333Y-133659333D01*
X102377902Y-133533711D01*
X102360390Y-133471041D01*
X102317973Y-133449672D01*
X102275500Y-133447666D01*
X102169666Y-133447666D01*
X102169666Y-134717666D01*
X102381333Y-134717666D01*
X102381333Y-134082666D01*
X103397333Y-134082666D01*
X103397333Y-134717666D01*
X102381333Y-134717666D01*
X102169666Y-134717666D01*
X102169666Y-134887000D01*
X102838533Y-134887000D01*
X103131945Y-134884237D01*
G36*
X96589799Y-135225897D02*
G01*
X96648629Y-135213135D01*
X96688094Y-135188043D01*
X96713906Y-135146741D01*
X96731777Y-135085347D01*
X96747418Y-134999982D01*
X96766543Y-134886766D01*
X96769697Y-134869167D01*
X96802366Y-134690629D01*
X96828620Y-134551105D01*
X96849015Y-134447852D01*
X96864105Y-134378128D01*
X96874447Y-134339192D01*
X96879193Y-134328752D01*
X96902483Y-134316660D01*
X96956475Y-134292796D01*
X97032406Y-134260716D01*
X97121517Y-134223977D01*
X97215048Y-134186134D01*
X97304237Y-134150745D01*
X97380326Y-134121365D01*
X97434553Y-134101550D01*
X97453603Y-134095566D01*
X97477998Y-134095521D01*
X97513489Y-134107359D01*
X97564667Y-134133700D01*
X97636125Y-134177160D01*
X97732455Y-134240357D01*
X97858249Y-134325910D01*
X97861016Y-134327812D01*
X97969790Y-134401854D01*
X98067366Y-134466916D01*
X98148178Y-134519397D01*
X98206660Y-134555696D01*
X98237246Y-134572212D01*
X98239735Y-134572834D01*
X98260672Y-134558473D01*
X98306566Y-134518331D01*
X98372704Y-134456820D01*
X98454370Y-134378355D01*
X98546848Y-134287347D01*
X98578134Y-134256118D01*
X98894322Y-133939401D01*
X98683703Y-133632808D01*
X98611800Y-133527448D01*
X98545623Y-133429196D01*
X98490075Y-133345431D01*
X98450060Y-133283529D01*
X98433163Y-133255839D01*
X98393242Y-133185464D01*
X98456258Y-133037774D01*
X98497435Y-132941177D01*
X98544904Y-132829689D01*
X98588414Y-132727384D01*
X98588560Y-132727040D01*
X98657846Y-132563996D01*
X98766548Y-132543891D01*
X98832594Y-132531595D01*
X98926464Y-132514018D01*
X99034385Y-132493740D01*
X99118667Y-132477861D01*
X99221754Y-132458453D01*
X99315323Y-132440910D01*
X99388152Y-132427334D01*
X99425583Y-132420441D01*
X99463636Y-132412710D01*
X99492336Y-132401501D01*
X99513003Y-132381341D01*
X99526955Y-132346761D01*
X99535512Y-132292289D01*
X99539992Y-132212454D01*
X99541715Y-132101785D01*
X99542000Y-131954810D01*
X99542000Y-131937584D01*
X99541248Y-131779944D01*
X99538838Y-131660649D01*
X99534535Y-131575737D01*
X99528105Y-131521243D01*
X99519316Y-131493203D01*
X99515542Y-131488831D01*
X99487061Y-131478818D01*
X99424503Y-131463252D01*
X99335526Y-131443667D01*
X99227789Y-131421597D01*
X99108949Y-131398576D01*
X98986665Y-131376136D01*
X98868597Y-131355812D01*
X98784523Y-131342440D01*
X98708953Y-131320320D01*
X98671364Y-131286764D01*
X98645127Y-131232015D01*
X98611426Y-131153513D01*
X98573387Y-131059554D01*
X98534134Y-130958434D01*
X98496791Y-130858450D01*
X98464485Y-130767898D01*
X98440338Y-130695076D01*
X98427476Y-130648279D01*
X98426409Y-130636364D01*
X98441008Y-130608869D01*
X98475860Y-130553370D01*
X98526694Y-130476373D01*
X98589241Y-130384381D01*
X98637891Y-130314282D01*
X98707489Y-130214184D01*
X98769892Y-130123245D01*
X98820410Y-130048390D01*
X98854353Y-129996546D01*
X98865498Y-129978114D01*
X98871800Y-129960638D01*
X98869564Y-129940562D01*
X98855344Y-129913587D01*
X98825694Y-129875413D01*
X98777170Y-129821743D01*
X98706326Y-129748277D01*
X98609718Y-129650717D01*
X98576129Y-129617041D01*
X98481748Y-129523317D01*
X98397009Y-129440708D01*
X98326570Y-129373633D01*
X98275091Y-129326508D01*
X98247232Y-129303751D01*
X98244126Y-129302334D01*
X98221877Y-129313732D01*
X98170423Y-129345486D01*
X98095423Y-129393935D01*
X98002533Y-129455420D01*
X97897412Y-129526280D01*
X97886098Y-129533977D01*
X97545889Y-129765619D01*
X97379885Y-129677802D01*
X97288181Y-129632364D01*
X97227764Y-129610032D01*
X97195248Y-129609629D01*
X97191608Y-129612259D01*
X97176517Y-129638434D01*
X97148705Y-129696954D01*
X97111274Y-129780900D01*
X97067325Y-129883350D01*
X97030728Y-129971142D01*
X96953423Y-130158794D01*
X96889848Y-130312901D01*
X96837665Y-130439085D01*
X96794538Y-130542966D01*
X96758133Y-130630167D01*
X96726112Y-130706309D01*
X96696139Y-130777013D01*
X96684143Y-130805167D01*
X96640817Y-130908066D01*
X96615124Y-130981206D01*
X96608713Y-131034027D01*
X96623231Y-131075968D01*
X96660326Y-131116470D01*
X96721647Y-131164973D01*
X96750768Y-131186809D01*
X96901627Y-131323470D01*
X97017587Y-131478512D01*
X97097586Y-131647398D01*
X97140564Y-131825593D01*
X97145458Y-132008561D01*
X97111207Y-132191765D01*
X97036750Y-132370670D01*
X97030470Y-132382084D01*
X96923423Y-132533862D01*
X96792732Y-132654795D01*
X96643744Y-132744881D01*
X96481809Y-132804122D01*
X96312276Y-132832517D01*
X96140493Y-132830066D01*
X95971810Y-132796769D01*
X95811575Y-132732626D01*
X95665137Y-132637637D01*
X95537846Y-132511803D01*
X95449530Y-132382084D01*
X95372413Y-132203617D01*
X95335571Y-132020554D01*
X95337944Y-131837433D01*
X95378469Y-131658788D01*
X95456086Y-131489157D01*
X95569732Y-131333073D01*
X95718346Y-131195075D01*
X95729231Y-131186809D01*
X95799922Y-131132961D01*
X95845778Y-131090602D01*
X95868447Y-131050292D01*
X95869579Y-131002592D01*
X95850820Y-130938060D01*
X95813818Y-130847258D01*
X95795857Y-130805167D01*
X95766050Y-130735065D01*
X95735133Y-130661784D01*
X95700770Y-130579704D01*
X95660626Y-130483202D01*
X95612364Y-130366658D01*
X95553648Y-130224450D01*
X95482142Y-130050956D01*
X95449272Y-129971142D01*
X95402404Y-129859104D01*
X95359648Y-129760204D01*
X95324105Y-129681362D01*
X95298879Y-129629499D01*
X95288392Y-129612259D01*
X95261376Y-129608150D01*
X95207178Y-129625718D01*
X95122414Y-129666142D01*
X95100114Y-129677802D01*
X94934111Y-129765619D01*
X94593902Y-129533977D01*
X94487840Y-129462358D01*
X94393427Y-129399737D01*
X94316320Y-129349774D01*
X94262176Y-129316128D01*
X94236652Y-129302461D01*
X94235873Y-129302334D01*
X94216252Y-129316672D01*
X94171572Y-129356741D01*
X94106494Y-129418123D01*
X94025677Y-129496402D01*
X93933783Y-129587160D01*
X93903937Y-129616976D01*
X93799540Y-129721832D01*
X93721753Y-129801252D01*
X93667150Y-129859629D01*
X93632306Y-129901361D01*
X93613796Y-129930843D01*
X93608195Y-129952472D01*
X93612077Y-129970643D01*
X93618451Y-129983386D01*
X93639772Y-130017672D01*
X93680612Y-130079713D01*
X93736288Y-130162529D01*
X93802120Y-130259140D01*
X93853458Y-130333729D01*
X93921250Y-130432990D01*
X93979681Y-130520804D01*
X94024797Y-130591042D01*
X94052644Y-130637579D01*
X94059833Y-130653523D01*
X94052283Y-130679533D01*
X94031850Y-130736256D01*
X94001866Y-130815300D01*
X93965658Y-130908272D01*
X93926557Y-131006778D01*
X93887892Y-131102426D01*
X93852992Y-131186823D01*
X93825186Y-131251575D01*
X93808636Y-131286764D01*
X93766379Y-131322616D01*
X93695477Y-131342440D01*
X93585989Y-131360056D01*
X93466326Y-131380981D01*
X93344145Y-131403682D01*
X93227105Y-131426625D01*
X93122865Y-131448276D01*
X93039083Y-131467103D01*
X92983418Y-131481570D01*
X92964458Y-131488831D01*
X92954765Y-131508344D01*
X92947515Y-131552889D01*
X92942476Y-131626429D01*
X92939413Y-131732930D01*
X92938093Y-131876353D01*
X92938000Y-131937584D01*
X92938212Y-132088564D01*
X92939728Y-132202681D01*
X92943867Y-132285408D01*
X92951948Y-132342213D01*
X92965290Y-132378570D01*
X92985213Y-132399948D01*
X93013034Y-132411819D01*
X93050074Y-132419654D01*
X93054417Y-132420441D01*
X93100502Y-132428941D01*
X93176958Y-132443208D01*
X93272563Y-132461143D01*
X93361333Y-132477861D01*
X93470681Y-132498455D01*
X93576617Y-132518346D01*
X93665368Y-132534949D01*
X93713452Y-132543891D01*
X93822153Y-132563996D01*
X93891440Y-132727040D01*
X93934262Y-132827757D01*
X93980462Y-132936340D01*
X94020180Y-133029612D01*
X94020863Y-133031215D01*
X94050450Y-133103584D01*
X94071916Y-133161684D01*
X94080944Y-133193763D01*
X94081000Y-133194864D01*
X94069477Y-133218417D01*
X94037323Y-133271073D01*
X93988164Y-133347238D01*
X93925622Y-133441318D01*
X93853321Y-133547719D01*
X93837583Y-133570603D01*
X93763875Y-133678153D01*
X93699134Y-133773750D01*
X93646962Y-133851984D01*
X93610960Y-133907444D01*
X93594727Y-133934718D01*
X93594167Y-133936385D01*
X93608479Y-133954407D01*
X93648485Y-133997638D01*
X93709785Y-134061511D01*
X93787980Y-134141460D01*
X93878671Y-134232916D01*
X93909668Y-134263922D01*
X94029084Y-134381431D01*
X94121981Y-134468898D01*
X94190082Y-134527817D01*
X94235112Y-134559682D01*
X94258459Y-134566123D01*
X94285657Y-134550545D01*
X94341634Y-134514749D01*
X94420414Y-134462688D01*
X94516020Y-134398313D01*
X94622478Y-134325579D01*
X94631056Y-134319674D01*
X94737389Y-134247357D01*
X94832816Y-134184178D01*
X94911536Y-134133840D01*
X94967751Y-134100042D01*
X94995660Y-134086486D01*
X94996641Y-134086385D01*
X95023927Y-134094096D01*
X95081372Y-134114644D01*
X95160297Y-134144564D01*
X95252019Y-134180387D01*
X95347858Y-134218648D01*
X95439134Y-134255880D01*
X95517166Y-134288616D01*
X95573272Y-134313389D01*
X95598773Y-134326732D01*
X95598998Y-134326943D01*
X95606328Y-134343646D01*
X95617040Y-134384337D01*
X95631856Y-134452524D01*
X95651495Y-134551714D01*
X95676676Y-134685416D01*
X95708121Y-134857137D01*
X95710302Y-134869167D01*
X95730333Y-134986434D01*
X95746111Y-135075326D01*
X95763348Y-135139724D01*
X95787757Y-135183508D01*
X95825049Y-135210558D01*
X95880936Y-135224755D01*
X95961130Y-135229978D01*
X96071344Y-135230109D01*
X96217288Y-135229027D01*
X96240000Y-135229000D01*
X96391197Y-135229948D01*
X96505893Y-135230207D01*
X96589799Y-135225897D01*
X96589799Y-135225897D01*
G37*
X96589799Y-135225897D02*
X96648629Y-135213135D01*
X96688094Y-135188043D01*
X96713906Y-135146741D01*
X96731777Y-135085347D01*
X96747418Y-134999982D01*
X96766543Y-134886766D01*
X96769697Y-134869167D01*
X96802366Y-134690629D01*
X96828620Y-134551105D01*
X96849015Y-134447852D01*
X96864105Y-134378128D01*
X96874447Y-134339192D01*
X96879193Y-134328752D01*
X96902483Y-134316660D01*
X96956475Y-134292796D01*
X97032406Y-134260716D01*
X97121517Y-134223977D01*
X97215048Y-134186134D01*
X97304237Y-134150745D01*
X97380326Y-134121365D01*
X97434553Y-134101550D01*
X97453603Y-134095566D01*
X97477998Y-134095521D01*
X97513489Y-134107359D01*
X97564667Y-134133700D01*
X97636125Y-134177160D01*
X97732455Y-134240357D01*
X97858249Y-134325910D01*
X97861016Y-134327812D01*
X97969790Y-134401854D01*
X98067366Y-134466916D01*
X98148178Y-134519397D01*
X98206660Y-134555696D01*
X98237246Y-134572212D01*
X98239735Y-134572834D01*
X98260672Y-134558473D01*
X98306566Y-134518331D01*
X98372704Y-134456820D01*
X98454370Y-134378355D01*
X98546848Y-134287347D01*
X98578134Y-134256118D01*
X98894322Y-133939401D01*
X98683703Y-133632808D01*
X98611800Y-133527448D01*
X98545623Y-133429196D01*
X98490075Y-133345431D01*
X98450060Y-133283529D01*
X98433163Y-133255839D01*
X98393242Y-133185464D01*
X98456258Y-133037774D01*
X98497435Y-132941177D01*
X98544904Y-132829689D01*
X98588414Y-132727384D01*
X98588560Y-132727040D01*
X98657846Y-132563996D01*
X98766548Y-132543891D01*
X98832594Y-132531595D01*
X98926464Y-132514018D01*
X99034385Y-132493740D01*
X99118667Y-132477861D01*
X99221754Y-132458453D01*
X99315323Y-132440910D01*
X99388152Y-132427334D01*
X99425583Y-132420441D01*
X99463636Y-132412710D01*
X99492336Y-132401501D01*
X99513003Y-132381341D01*
X99526955Y-132346761D01*
X99535512Y-132292289D01*
X99539992Y-132212454D01*
X99541715Y-132101785D01*
X99542000Y-131954810D01*
X99542000Y-131937584D01*
X99541248Y-131779944D01*
X99538838Y-131660649D01*
X99534535Y-131575737D01*
X99528105Y-131521243D01*
X99519316Y-131493203D01*
X99515542Y-131488831D01*
X99487061Y-131478818D01*
X99424503Y-131463252D01*
X99335526Y-131443667D01*
X99227789Y-131421597D01*
X99108949Y-131398576D01*
X98986665Y-131376136D01*
X98868597Y-131355812D01*
X98784523Y-131342440D01*
X98708953Y-131320320D01*
X98671364Y-131286764D01*
X98645127Y-131232015D01*
X98611426Y-131153513D01*
X98573387Y-131059554D01*
X98534134Y-130958434D01*
X98496791Y-130858450D01*
X98464485Y-130767898D01*
X98440338Y-130695076D01*
X98427476Y-130648279D01*
X98426409Y-130636364D01*
X98441008Y-130608869D01*
X98475860Y-130553370D01*
X98526694Y-130476373D01*
X98589241Y-130384381D01*
X98637891Y-130314282D01*
X98707489Y-130214184D01*
X98769892Y-130123245D01*
X98820410Y-130048390D01*
X98854353Y-129996546D01*
X98865498Y-129978114D01*
X98871800Y-129960638D01*
X98869564Y-129940562D01*
X98855344Y-129913587D01*
X98825694Y-129875413D01*
X98777170Y-129821743D01*
X98706326Y-129748277D01*
X98609718Y-129650717D01*
X98576129Y-129617041D01*
X98481748Y-129523317D01*
X98397009Y-129440708D01*
X98326570Y-129373633D01*
X98275091Y-129326508D01*
X98247232Y-129303751D01*
X98244126Y-129302334D01*
X98221877Y-129313732D01*
X98170423Y-129345486D01*
X98095423Y-129393935D01*
X98002533Y-129455420D01*
X97897412Y-129526280D01*
X97886098Y-129533977D01*
X97545889Y-129765619D01*
X97379885Y-129677802D01*
X97288181Y-129632364D01*
X97227764Y-129610032D01*
X97195248Y-129609629D01*
X97191608Y-129612259D01*
X97176517Y-129638434D01*
X97148705Y-129696954D01*
X97111274Y-129780900D01*
X97067325Y-129883350D01*
X97030728Y-129971142D01*
X96953423Y-130158794D01*
X96889848Y-130312901D01*
X96837665Y-130439085D01*
X96794538Y-130542966D01*
X96758133Y-130630167D01*
X96726112Y-130706309D01*
X96696139Y-130777013D01*
X96684143Y-130805167D01*
X96640817Y-130908066D01*
X96615124Y-130981206D01*
X96608713Y-131034027D01*
X96623231Y-131075968D01*
X96660326Y-131116470D01*
X96721647Y-131164973D01*
X96750768Y-131186809D01*
X96901627Y-131323470D01*
X97017587Y-131478512D01*
X97097586Y-131647398D01*
X97140564Y-131825593D01*
X97145458Y-132008561D01*
X97111207Y-132191765D01*
X97036750Y-132370670D01*
X97030470Y-132382084D01*
X96923423Y-132533862D01*
X96792732Y-132654795D01*
X96643744Y-132744881D01*
X96481809Y-132804122D01*
X96312276Y-132832517D01*
X96140493Y-132830066D01*
X95971810Y-132796769D01*
X95811575Y-132732626D01*
X95665137Y-132637637D01*
X95537846Y-132511803D01*
X95449530Y-132382084D01*
X95372413Y-132203617D01*
X95335571Y-132020554D01*
X95337944Y-131837433D01*
X95378469Y-131658788D01*
X95456086Y-131489157D01*
X95569732Y-131333073D01*
X95718346Y-131195075D01*
X95729231Y-131186809D01*
X95799922Y-131132961D01*
X95845778Y-131090602D01*
X95868447Y-131050292D01*
X95869579Y-131002592D01*
X95850820Y-130938060D01*
X95813818Y-130847258D01*
X95795857Y-130805167D01*
X95766050Y-130735065D01*
X95735133Y-130661784D01*
X95700770Y-130579704D01*
X95660626Y-130483202D01*
X95612364Y-130366658D01*
X95553648Y-130224450D01*
X95482142Y-130050956D01*
X95449272Y-129971142D01*
X95402404Y-129859104D01*
X95359648Y-129760204D01*
X95324105Y-129681362D01*
X95298879Y-129629499D01*
X95288392Y-129612259D01*
X95261376Y-129608150D01*
X95207178Y-129625718D01*
X95122414Y-129666142D01*
X95100114Y-129677802D01*
X94934111Y-129765619D01*
X94593902Y-129533977D01*
X94487840Y-129462358D01*
X94393427Y-129399737D01*
X94316320Y-129349774D01*
X94262176Y-129316128D01*
X94236652Y-129302461D01*
X94235873Y-129302334D01*
X94216252Y-129316672D01*
X94171572Y-129356741D01*
X94106494Y-129418123D01*
X94025677Y-129496402D01*
X93933783Y-129587160D01*
X93903937Y-129616976D01*
X93799540Y-129721832D01*
X93721753Y-129801252D01*
X93667150Y-129859629D01*
X93632306Y-129901361D01*
X93613796Y-129930843D01*
X93608195Y-129952472D01*
X93612077Y-129970643D01*
X93618451Y-129983386D01*
X93639772Y-130017672D01*
X93680612Y-130079713D01*
X93736288Y-130162529D01*
X93802120Y-130259140D01*
X93853458Y-130333729D01*
X93921250Y-130432990D01*
X93979681Y-130520804D01*
X94024797Y-130591042D01*
X94052644Y-130637579D01*
X94059833Y-130653523D01*
X94052283Y-130679533D01*
X94031850Y-130736256D01*
X94001866Y-130815300D01*
X93965658Y-130908272D01*
X93926557Y-131006778D01*
X93887892Y-131102426D01*
X93852992Y-131186823D01*
X93825186Y-131251575D01*
X93808636Y-131286764D01*
X93766379Y-131322616D01*
X93695477Y-131342440D01*
X93585989Y-131360056D01*
X93466326Y-131380981D01*
X93344145Y-131403682D01*
X93227105Y-131426625D01*
X93122865Y-131448276D01*
X93039083Y-131467103D01*
X92983418Y-131481570D01*
X92964458Y-131488831D01*
X92954765Y-131508344D01*
X92947515Y-131552889D01*
X92942476Y-131626429D01*
X92939413Y-131732930D01*
X92938093Y-131876353D01*
X92938000Y-131937584D01*
X92938212Y-132088564D01*
X92939728Y-132202681D01*
X92943867Y-132285408D01*
X92951948Y-132342213D01*
X92965290Y-132378570D01*
X92985213Y-132399948D01*
X93013034Y-132411819D01*
X93050074Y-132419654D01*
X93054417Y-132420441D01*
X93100502Y-132428941D01*
X93176958Y-132443208D01*
X93272563Y-132461143D01*
X93361333Y-132477861D01*
X93470681Y-132498455D01*
X93576617Y-132518346D01*
X93665368Y-132534949D01*
X93713452Y-132543891D01*
X93822153Y-132563996D01*
X93891440Y-132727040D01*
X93934262Y-132827757D01*
X93980462Y-132936340D01*
X94020180Y-133029612D01*
X94020863Y-133031215D01*
X94050450Y-133103584D01*
X94071916Y-133161684D01*
X94080944Y-133193763D01*
X94081000Y-133194864D01*
X94069477Y-133218417D01*
X94037323Y-133271073D01*
X93988164Y-133347238D01*
X93925622Y-133441318D01*
X93853321Y-133547719D01*
X93837583Y-133570603D01*
X93763875Y-133678153D01*
X93699134Y-133773750D01*
X93646962Y-133851984D01*
X93610960Y-133907444D01*
X93594727Y-133934718D01*
X93594167Y-133936385D01*
X93608479Y-133954407D01*
X93648485Y-133997638D01*
X93709785Y-134061511D01*
X93787980Y-134141460D01*
X93878671Y-134232916D01*
X93909668Y-134263922D01*
X94029084Y-134381431D01*
X94121981Y-134468898D01*
X94190082Y-134527817D01*
X94235112Y-134559682D01*
X94258459Y-134566123D01*
X94285657Y-134550545D01*
X94341634Y-134514749D01*
X94420414Y-134462688D01*
X94516020Y-134398313D01*
X94622478Y-134325579D01*
X94631056Y-134319674D01*
X94737389Y-134247357D01*
X94832816Y-134184178D01*
X94911536Y-134133840D01*
X94967751Y-134100042D01*
X94995660Y-134086486D01*
X94996641Y-134086385D01*
X95023927Y-134094096D01*
X95081372Y-134114644D01*
X95160297Y-134144564D01*
X95252019Y-134180387D01*
X95347858Y-134218648D01*
X95439134Y-134255880D01*
X95517166Y-134288616D01*
X95573272Y-134313389D01*
X95598773Y-134326732D01*
X95598998Y-134326943D01*
X95606328Y-134343646D01*
X95617040Y-134384337D01*
X95631856Y-134452524D01*
X95651495Y-134551714D01*
X95676676Y-134685416D01*
X95708121Y-134857137D01*
X95710302Y-134869167D01*
X95730333Y-134986434D01*
X95746111Y-135075326D01*
X95763348Y-135139724D01*
X95787757Y-135183508D01*
X95825049Y-135210558D01*
X95880936Y-135224755D01*
X95961130Y-135229978D01*
X96071344Y-135230109D01*
X96217288Y-135229027D01*
X96240000Y-135229000D01*
X96391197Y-135229948D01*
X96505893Y-135230207D01*
X96589799Y-135225897D01*
G36*
X100173797Y-128641087D02*
G01*
X100252709Y-128618354D01*
X100277357Y-128606628D01*
X100365871Y-128548151D01*
X100424474Y-128474349D01*
X100457967Y-128376858D01*
X100470206Y-128270552D01*
X100477960Y-128117000D01*
X100211063Y-128117000D01*
X100100776Y-128116653D01*
X100025960Y-128114861D01*
X99979754Y-128110501D01*
X99955295Y-128102449D01*
X99945724Y-128089580D01*
X99944167Y-128073276D01*
X99961316Y-127999832D01*
X100013855Y-127948022D01*
X100070079Y-127924326D01*
X100127486Y-127911324D01*
X100175001Y-127915613D01*
X100233954Y-127939699D01*
X100244358Y-127944806D01*
X100300507Y-127971150D01*
X100334850Y-127978879D01*
X100363275Y-127968648D01*
X100388667Y-127950776D01*
X100435671Y-127905750D01*
X100443875Y-127865508D01*
X100412398Y-127824833D01*
X100361589Y-127790536D01*
X100265308Y-127751861D01*
X100154486Y-127734489D01*
X100044530Y-127738940D01*
X99950845Y-127765735D01*
X99931706Y-127776026D01*
X99833965Y-127858869D01*
X99769476Y-127967801D01*
X99738340Y-128102582D01*
X99737910Y-128234040D01*
X99755288Y-128327843D01*
X99944167Y-128327843D01*
X99947903Y-128307143D01*
X99964771Y-128294736D01*
X100003264Y-128288539D01*
X100071870Y-128286472D01*
X100113500Y-128286334D01*
X100199910Y-128287745D01*
X100251778Y-128292972D01*
X100276829Y-128303509D01*
X100282833Y-128319046D01*
X100264256Y-128368361D01*
X100217573Y-128414489D01*
X100156357Y-128446829D01*
X100107870Y-128455667D01*
X100038503Y-128440781D01*
X99980940Y-128402683D01*
X99947784Y-128351212D01*
X99944167Y-128327843D01*
X99755288Y-128327843D01*
X99764754Y-128378934D01*
X99819028Y-128494043D01*
X99899266Y-128577624D01*
X100004001Y-128627936D01*
X100081408Y-128641727D01*
X100173797Y-128641087D01*
X100173797Y-128641087D01*
G37*
X100173797Y-128641087D02*
X100252709Y-128618354D01*
X100277357Y-128606628D01*
X100365871Y-128548151D01*
X100424474Y-128474349D01*
X100457967Y-128376858D01*
X100470206Y-128270552D01*
X100477960Y-128117000D01*
X100211063Y-128117000D01*
X100100776Y-128116653D01*
X100025960Y-128114861D01*
X99979754Y-128110501D01*
X99955295Y-128102449D01*
X99945724Y-128089580D01*
X99944167Y-128073276D01*
X99961316Y-127999832D01*
X100013855Y-127948022D01*
X100070079Y-127924326D01*
X100127486Y-127911324D01*
X100175001Y-127915613D01*
X100233954Y-127939699D01*
X100244358Y-127944806D01*
X100300507Y-127971150D01*
X100334850Y-127978879D01*
X100363275Y-127968648D01*
X100388667Y-127950776D01*
X100435671Y-127905750D01*
X100443875Y-127865508D01*
X100412398Y-127824833D01*
X100361589Y-127790536D01*
X100265308Y-127751861D01*
X100154486Y-127734489D01*
X100044530Y-127738940D01*
X99950845Y-127765735D01*
X99931706Y-127776026D01*
X99833965Y-127858869D01*
X99769476Y-127967801D01*
X99738340Y-128102582D01*
X99737910Y-128234040D01*
X99755288Y-128327843D01*
X99944167Y-128327843D01*
X99947903Y-128307143D01*
X99964771Y-128294736D01*
X100003264Y-128288539D01*
X100071870Y-128286472D01*
X100113500Y-128286334D01*
X100199910Y-128287745D01*
X100251778Y-128292972D01*
X100276829Y-128303509D01*
X100282833Y-128319046D01*
X100264256Y-128368361D01*
X100217573Y-128414489D01*
X100156357Y-128446829D01*
X100107870Y-128455667D01*
X100038503Y-128440781D01*
X99980940Y-128402683D01*
X99947784Y-128351212D01*
X99944167Y-128327843D01*
X99755288Y-128327843D01*
X99764754Y-128378934D01*
X99819028Y-128494043D01*
X99899266Y-128577624D01*
X100004001Y-128627936D01*
X100081408Y-128641727D01*
X100173797Y-128641087D01*
G36*
X99463801Y-128636511D02*
G01*
X99580275Y-128589656D01*
X99588244Y-128584737D01*
X99644759Y-128546786D01*
X99685407Y-128515592D01*
X99697469Y-128503309D01*
X99691516Y-128477589D01*
X99661564Y-128437837D01*
X99648517Y-128424573D01*
X99587207Y-128365833D01*
X99494054Y-128410928D01*
X99394592Y-128442484D01*
X99308037Y-128435982D01*
X99237743Y-128391856D01*
X99223853Y-128375954D01*
X99198966Y-128332137D01*
X99186220Y-128273020D01*
X99182829Y-128185494D01*
X99182840Y-128182938D01*
X99186936Y-128105585D01*
X99196955Y-128042258D01*
X99209298Y-128009333D01*
X99277488Y-127952539D01*
X99362921Y-127929109D01*
X99455005Y-127940514D01*
X99513158Y-127967152D01*
X99579567Y-128007646D01*
X99645584Y-127951198D01*
X99684405Y-127912987D01*
X99694819Y-127881915D01*
X99674261Y-127849506D01*
X99620164Y-127807284D01*
X99597254Y-127791602D01*
X99538330Y-127758037D01*
X99478380Y-127741601D01*
X99398241Y-127737395D01*
X99385588Y-127737488D01*
X99311243Y-127740545D01*
X99251385Y-127746937D01*
X99224500Y-127753363D01*
X99119354Y-127823029D01*
X99040193Y-127921285D01*
X98989584Y-128041452D01*
X98970093Y-128176854D01*
X98984288Y-128320813D01*
X98992939Y-128355704D01*
X99033238Y-128443524D01*
X99098613Y-128528221D01*
X99176036Y-128594653D01*
X99218198Y-128617570D01*
X99339126Y-128646169D01*
X99463801Y-128636511D01*
X99463801Y-128636511D01*
G37*
X99463801Y-128636511D02*
X99580275Y-128589656D01*
X99588244Y-128584737D01*
X99644759Y-128546786D01*
X99685407Y-128515592D01*
X99697469Y-128503309D01*
X99691516Y-128477589D01*
X99661564Y-128437837D01*
X99648517Y-128424573D01*
X99587207Y-128365833D01*
X99494054Y-128410928D01*
X99394592Y-128442484D01*
X99308037Y-128435982D01*
X99237743Y-128391856D01*
X99223853Y-128375954D01*
X99198966Y-128332137D01*
X99186220Y-128273020D01*
X99182829Y-128185494D01*
X99182840Y-128182938D01*
X99186936Y-128105585D01*
X99196955Y-128042258D01*
X99209298Y-128009333D01*
X99277488Y-127952539D01*
X99362921Y-127929109D01*
X99455005Y-127940514D01*
X99513158Y-127967152D01*
X99579567Y-128007646D01*
X99645584Y-127951198D01*
X99684405Y-127912987D01*
X99694819Y-127881915D01*
X99674261Y-127849506D01*
X99620164Y-127807284D01*
X99597254Y-127791602D01*
X99538330Y-127758037D01*
X99478380Y-127741601D01*
X99398241Y-127737395D01*
X99385588Y-127737488D01*
X99311243Y-127740545D01*
X99251385Y-127746937D01*
X99224500Y-127753363D01*
X99119354Y-127823029D01*
X99040193Y-127921285D01*
X98989584Y-128041452D01*
X98970093Y-128176854D01*
X98984288Y-128320813D01*
X98992939Y-128355704D01*
X99033238Y-128443524D01*
X99098613Y-128528221D01*
X99176036Y-128594653D01*
X99218198Y-128617570D01*
X99339126Y-128646169D01*
X99463801Y-128636511D01*
G36*
X98553814Y-128643374D02*
G01*
X98581975Y-128631835D01*
X98589471Y-128606812D01*
X98589500Y-128604145D01*
X98591332Y-128577914D01*
X98603952Y-128573796D01*
X98638042Y-128591779D01*
X98658292Y-128604066D01*
X98728483Y-128633137D01*
X98804165Y-128646050D01*
X98807509Y-128646088D01*
X98869399Y-128638753D01*
X98933044Y-128620180D01*
X98984963Y-128595689D01*
X99011672Y-128570595D01*
X99012833Y-128565109D01*
X98998870Y-128541787D01*
X98963511Y-128501615D01*
X98941982Y-128479967D01*
X98895795Y-128438787D01*
X98863168Y-128424041D01*
X98829391Y-128430649D01*
X98815936Y-128436444D01*
X98745152Y-128447687D01*
X98675501Y-128425092D01*
X98622452Y-128374652D01*
X98613412Y-128357991D01*
X98603637Y-128314804D01*
X98596010Y-128237446D01*
X98591108Y-128134050D01*
X98589500Y-128020755D01*
X98589500Y-127736000D01*
X98399000Y-127736000D01*
X98399000Y-128646167D01*
X98494250Y-128646167D01*
X98553814Y-128643374D01*
X98553814Y-128643374D01*
G37*
X98553814Y-128643374D02*
X98581975Y-128631835D01*
X98589471Y-128606812D01*
X98589500Y-128604145D01*
X98591332Y-128577914D01*
X98603952Y-128573796D01*
X98638042Y-128591779D01*
X98658292Y-128604066D01*
X98728483Y-128633137D01*
X98804165Y-128646050D01*
X98807509Y-128646088D01*
X98869399Y-128638753D01*
X98933044Y-128620180D01*
X98984963Y-128595689D01*
X99011672Y-128570595D01*
X99012833Y-128565109D01*
X98998870Y-128541787D01*
X98963511Y-128501615D01*
X98941982Y-128479967D01*
X98895795Y-128438787D01*
X98863168Y-128424041D01*
X98829391Y-128430649D01*
X98815936Y-128436444D01*
X98745152Y-128447687D01*
X98675501Y-128425092D01*
X98622452Y-128374652D01*
X98613412Y-128357991D01*
X98603637Y-128314804D01*
X98596010Y-128237446D01*
X98591108Y-128134050D01*
X98589500Y-128020755D01*
X98589500Y-127736000D01*
X98399000Y-127736000D01*
X98399000Y-128646167D01*
X98494250Y-128646167D01*
X98553814Y-128643374D01*
G36*
X98129125Y-128642093D02*
G01*
X98219083Y-128635584D01*
X98224796Y-128185792D01*
X98230508Y-127736000D01*
X98134837Y-127736000D01*
X98075330Y-127738637D01*
X98047104Y-127749878D01*
X98039259Y-127774720D01*
X98039167Y-127779870D01*
X98039167Y-127823740D01*
X97983395Y-127779870D01*
X97909032Y-127745044D01*
X97815743Y-127734259D01*
X97719309Y-127747316D01*
X97635509Y-127784017D01*
X97635147Y-127784261D01*
X97592485Y-127815818D01*
X97560814Y-127849276D01*
X97538504Y-127891264D01*
X97523928Y-127948415D01*
X97515459Y-128027358D01*
X97511469Y-128134725D01*
X97510331Y-128277148D01*
X97510312Y-128292843D01*
X97510000Y-128648601D01*
X97599958Y-128642093D01*
X97689917Y-128635584D01*
X97700500Y-128321440D01*
X97704958Y-128199475D01*
X97709588Y-128112628D01*
X97715622Y-128053698D01*
X97724288Y-128015481D01*
X97736817Y-127990778D01*
X97754439Y-127972384D01*
X97761053Y-127966898D01*
X97835353Y-127931497D01*
X97916303Y-127932759D01*
X97953665Y-127947220D01*
X97986791Y-127976805D01*
X98010913Y-128028236D01*
X98027021Y-128106472D01*
X98036104Y-128216471D01*
X98039153Y-128363193D01*
X98039167Y-128375376D01*
X98039167Y-128648601D01*
X98129125Y-128642093D01*
X98129125Y-128642093D01*
G37*
X98129125Y-128642093D02*
X98219083Y-128635584D01*
X98224796Y-128185792D01*
X98230508Y-127736000D01*
X98134837Y-127736000D01*
X98075330Y-127738637D01*
X98047104Y-127749878D01*
X98039259Y-127774720D01*
X98039167Y-127779870D01*
X98039167Y-127823740D01*
X97983395Y-127779870D01*
X97909032Y-127745044D01*
X97815743Y-127734259D01*
X97719309Y-127747316D01*
X97635509Y-127784017D01*
X97635147Y-127784261D01*
X97592485Y-127815818D01*
X97560814Y-127849276D01*
X97538504Y-127891264D01*
X97523928Y-127948415D01*
X97515459Y-128027358D01*
X97511469Y-128134725D01*
X97510331Y-128277148D01*
X97510312Y-128292843D01*
X97510000Y-128648601D01*
X97599958Y-128642093D01*
X97689917Y-128635584D01*
X97700500Y-128321440D01*
X97704958Y-128199475D01*
X97709588Y-128112628D01*
X97715622Y-128053698D01*
X97724288Y-128015481D01*
X97736817Y-127990778D01*
X97754439Y-127972384D01*
X97761053Y-127966898D01*
X97835353Y-127931497D01*
X97916303Y-127932759D01*
X97953665Y-127947220D01*
X97986791Y-127976805D01*
X98010913Y-128028236D01*
X98027021Y-128106472D01*
X98036104Y-128216471D01*
X98039153Y-128363193D01*
X98039167Y-128375376D01*
X98039167Y-128648601D01*
X98129125Y-128642093D01*
G36*
X97128819Y-128622595D02*
G01*
X97226388Y-128565710D01*
X97302435Y-128478935D01*
X97315631Y-128455580D01*
X97338818Y-128405503D01*
X97352666Y-128357362D01*
X97358877Y-128298845D01*
X97359153Y-128217640D01*
X97357240Y-128154624D01*
X97349636Y-128036865D01*
X97333701Y-127950998D01*
X97304879Y-127886750D01*
X97258616Y-127833850D01*
X97192715Y-127783625D01*
X97135628Y-127753677D01*
X97067743Y-127739169D01*
X96991462Y-127736000D01*
X96909643Y-127739380D01*
X96850987Y-127753114D01*
X96796614Y-127782597D01*
X96774692Y-127797931D01*
X96700852Y-127867273D01*
X96652669Y-127953160D01*
X96627750Y-128062461D01*
X96624735Y-128166458D01*
X96813127Y-128166458D01*
X96823127Y-128076758D01*
X96830915Y-128048223D01*
X96874004Y-127978260D01*
X96941725Y-127936310D01*
X97023323Y-127927155D01*
X97075135Y-127939649D01*
X97119875Y-127978169D01*
X97152231Y-128050243D01*
X97169355Y-128148177D01*
X97171333Y-128199436D01*
X97167703Y-128280096D01*
X97153944Y-128334718D01*
X97125749Y-128379191D01*
X97121160Y-128384637D01*
X97056706Y-128431078D01*
X96980513Y-128444510D01*
X96906526Y-128424206D01*
X96871084Y-128397658D01*
X96838813Y-128341757D01*
X96818925Y-128259741D01*
X96813127Y-128166458D01*
X96624735Y-128166458D01*
X96623703Y-128202048D01*
X96624854Y-128228081D01*
X96637040Y-128350937D01*
X96661895Y-128442283D01*
X96704226Y-128512206D01*
X96768838Y-128570794D01*
X96797439Y-128590381D01*
X96905298Y-128637284D01*
X97018773Y-128647237D01*
X97128819Y-128622595D01*
X97128819Y-128622595D01*
G37*
X97128819Y-128622595D02*
X97226388Y-128565710D01*
X97302435Y-128478935D01*
X97315631Y-128455580D01*
X97338818Y-128405503D01*
X97352666Y-128357362D01*
X97358877Y-128298845D01*
X97359153Y-128217640D01*
X97357240Y-128154624D01*
X97349636Y-128036865D01*
X97333701Y-127950998D01*
X97304879Y-127886750D01*
X97258616Y-127833850D01*
X97192715Y-127783625D01*
X97135628Y-127753677D01*
X97067743Y-127739169D01*
X96991462Y-127736000D01*
X96909643Y-127739380D01*
X96850987Y-127753114D01*
X96796614Y-127782597D01*
X96774692Y-127797931D01*
X96700852Y-127867273D01*
X96652669Y-127953160D01*
X96627750Y-128062461D01*
X96624735Y-128166458D01*
X96813127Y-128166458D01*
X96823127Y-128076758D01*
X96830915Y-128048223D01*
X96874004Y-127978260D01*
X96941725Y-127936310D01*
X97023323Y-127927155D01*
X97075135Y-127939649D01*
X97119875Y-127978169D01*
X97152231Y-128050243D01*
X97169355Y-128148177D01*
X97171333Y-128199436D01*
X97167703Y-128280096D01*
X97153944Y-128334718D01*
X97125749Y-128379191D01*
X97121160Y-128384637D01*
X97056706Y-128431078D01*
X96980513Y-128444510D01*
X96906526Y-128424206D01*
X96871084Y-128397658D01*
X96838813Y-128341757D01*
X96818925Y-128259741D01*
X96813127Y-128166458D01*
X96624735Y-128166458D01*
X96623703Y-128202048D01*
X96624854Y-128228081D01*
X96637040Y-128350937D01*
X96661895Y-128442283D01*
X96704226Y-128512206D01*
X96768838Y-128570794D01*
X96797439Y-128590381D01*
X96905298Y-128637284D01*
X97018773Y-128647237D01*
X97128819Y-128622595D01*
G36*
X96322007Y-128624830D02*
G01*
X96405177Y-128591357D01*
X96464347Y-128559450D01*
X96504276Y-128533285D01*
X96515167Y-128521234D01*
X96501241Y-128498100D01*
X96466660Y-128459726D01*
X96455330Y-128448593D01*
X96414202Y-128412610D01*
X96382130Y-128402719D01*
X96338636Y-128415160D01*
X96318426Y-128423467D01*
X96241715Y-128446024D01*
X96162069Y-128454609D01*
X96093988Y-128448850D01*
X96053733Y-128430267D01*
X96026530Y-128383942D01*
X96037287Y-128342732D01*
X96081650Y-128310383D01*
X96155269Y-128290643D01*
X96220891Y-128286334D01*
X96339439Y-128270409D01*
X96433197Y-128224629D01*
X96498150Y-128151989D01*
X96530277Y-128055543D01*
X96527045Y-127948175D01*
X96487694Y-127860464D01*
X96414618Y-127794495D01*
X96310211Y-127752352D01*
X96176867Y-127736119D01*
X96163241Y-127736000D01*
X96041848Y-127744031D01*
X95953610Y-127768831D01*
X95942850Y-127774065D01*
X95849701Y-127825670D01*
X95794265Y-127864364D01*
X95774443Y-127891635D01*
X95774333Y-127893392D01*
X95787802Y-127920550D01*
X95821116Y-127962151D01*
X95830425Y-127972148D01*
X95886516Y-128030695D01*
X95943782Y-127989918D01*
X96001517Y-127958348D01*
X96074320Y-127930241D01*
X96094066Y-127924492D01*
X96174268Y-127914698D01*
X96249558Y-127924811D01*
X96309175Y-127951203D01*
X96342363Y-127990249D01*
X96345833Y-128009342D01*
X96335460Y-128046429D01*
X96300357Y-128072474D01*
X96234548Y-128090164D01*
X96141079Y-128101429D01*
X96012126Y-128124516D01*
X95918776Y-128169333D01*
X95859492Y-128237297D01*
X95832736Y-128329823D01*
X95831120Y-128386893D01*
X95853524Y-128481115D01*
X95908417Y-128556618D01*
X95989256Y-128611072D01*
X96089496Y-128642146D01*
X96202594Y-128647509D01*
X96322007Y-128624830D01*
X96322007Y-128624830D01*
G37*
X96322007Y-128624830D02*
X96405177Y-128591357D01*
X96464347Y-128559450D01*
X96504276Y-128533285D01*
X96515167Y-128521234D01*
X96501241Y-128498100D01*
X96466660Y-128459726D01*
X96455330Y-128448593D01*
X96414202Y-128412610D01*
X96382130Y-128402719D01*
X96338636Y-128415160D01*
X96318426Y-128423467D01*
X96241715Y-128446024D01*
X96162069Y-128454609D01*
X96093988Y-128448850D01*
X96053733Y-128430267D01*
X96026530Y-128383942D01*
X96037287Y-128342732D01*
X96081650Y-128310383D01*
X96155269Y-128290643D01*
X96220891Y-128286334D01*
X96339439Y-128270409D01*
X96433197Y-128224629D01*
X96498150Y-128151989D01*
X96530277Y-128055543D01*
X96527045Y-127948175D01*
X96487694Y-127860464D01*
X96414618Y-127794495D01*
X96310211Y-127752352D01*
X96176867Y-127736119D01*
X96163241Y-127736000D01*
X96041848Y-127744031D01*
X95953610Y-127768831D01*
X95942850Y-127774065D01*
X95849701Y-127825670D01*
X95794265Y-127864364D01*
X95774443Y-127891635D01*
X95774333Y-127893392D01*
X95787802Y-127920550D01*
X95821116Y-127962151D01*
X95830425Y-127972148D01*
X95886516Y-128030695D01*
X95943782Y-127989918D01*
X96001517Y-127958348D01*
X96074320Y-127930241D01*
X96094066Y-127924492D01*
X96174268Y-127914698D01*
X96249558Y-127924811D01*
X96309175Y-127951203D01*
X96342363Y-127990249D01*
X96345833Y-128009342D01*
X96335460Y-128046429D01*
X96300357Y-128072474D01*
X96234548Y-128090164D01*
X96141079Y-128101429D01*
X96012126Y-128124516D01*
X95918776Y-128169333D01*
X95859492Y-128237297D01*
X95832736Y-128329823D01*
X95831120Y-128386893D01*
X95853524Y-128481115D01*
X95908417Y-128556618D01*
X95989256Y-128611072D01*
X96089496Y-128642146D01*
X96202594Y-128647509D01*
X96322007Y-128624830D01*
G36*
X94759275Y-128632392D02*
G01*
X94773119Y-128604777D01*
X94773249Y-128604285D01*
X94784506Y-128573976D01*
X94802681Y-128577110D01*
X94824851Y-128595982D01*
X94884989Y-128626967D01*
X94967613Y-128641075D01*
X95056167Y-128637799D01*
X95134099Y-128616635D01*
X95154058Y-128606023D01*
X95202973Y-128572496D01*
X95239488Y-128537530D01*
X95265569Y-128494418D01*
X95283181Y-128436453D01*
X95294289Y-128356930D01*
X95300858Y-128249143D01*
X95304853Y-128106386D01*
X95305179Y-128090312D01*
X95312274Y-127733534D01*
X95209929Y-127740059D01*
X95107583Y-127746584D01*
X95101742Y-128056009D01*
X95098942Y-128178093D01*
X95095233Y-128265054D01*
X95089608Y-128324106D01*
X95081058Y-128362458D01*
X95068576Y-128387322D01*
X95053064Y-128404201D01*
X94990196Y-128437017D01*
X94916666Y-128442057D01*
X94849449Y-128420057D01*
X94819106Y-128394056D01*
X94803266Y-128369736D01*
X94792245Y-128337547D01*
X94785204Y-128290003D01*
X94781303Y-128219616D01*
X94779704Y-128118898D01*
X94779500Y-128040572D01*
X94779500Y-127736000D01*
X94683586Y-127736000D01*
X94617403Y-127741850D01*
X94580727Y-127757740D01*
X94577289Y-127763056D01*
X94574388Y-127791728D01*
X94572376Y-127855835D01*
X94571325Y-127948483D01*
X94571306Y-128062783D01*
X94572389Y-128191842D01*
X94572662Y-128212848D01*
X94578417Y-128635584D01*
X94670017Y-128642173D01*
X94729140Y-128643304D01*
X94759275Y-128632392D01*
X94759275Y-128632392D01*
G37*
X94759275Y-128632392D02*
X94773119Y-128604777D01*
X94773249Y-128604285D01*
X94784506Y-128573976D01*
X94802681Y-128577110D01*
X94824851Y-128595982D01*
X94884989Y-128626967D01*
X94967613Y-128641075D01*
X95056167Y-128637799D01*
X95134099Y-128616635D01*
X95154058Y-128606023D01*
X95202973Y-128572496D01*
X95239488Y-128537530D01*
X95265569Y-128494418D01*
X95283181Y-128436453D01*
X95294289Y-128356930D01*
X95300858Y-128249143D01*
X95304853Y-128106386D01*
X95305179Y-128090312D01*
X95312274Y-127733534D01*
X95209929Y-127740059D01*
X95107583Y-127746584D01*
X95101742Y-128056009D01*
X95098942Y-128178093D01*
X95095233Y-128265054D01*
X95089608Y-128324106D01*
X95081058Y-128362458D01*
X95068576Y-128387322D01*
X95053064Y-128404201D01*
X94990196Y-128437017D01*
X94916666Y-128442057D01*
X94849449Y-128420057D01*
X94819106Y-128394056D01*
X94803266Y-128369736D01*
X94792245Y-128337547D01*
X94785204Y-128290003D01*
X94781303Y-128219616D01*
X94779704Y-128118898D01*
X94779500Y-128040572D01*
X94779500Y-127736000D01*
X94683586Y-127736000D01*
X94617403Y-127741850D01*
X94580727Y-127757740D01*
X94577289Y-127763056D01*
X94574388Y-127791728D01*
X94572376Y-127855835D01*
X94571325Y-127948483D01*
X94571306Y-128062783D01*
X94572389Y-128191842D01*
X94572662Y-128212848D01*
X94578417Y-128635584D01*
X94670017Y-128642173D01*
X94729140Y-128643304D01*
X94759275Y-128632392D01*
G36*
X94212964Y-128619223D02*
G01*
X94254818Y-128598770D01*
X94349106Y-128523036D01*
X94410804Y-128420924D01*
X94439021Y-128294119D01*
X94440833Y-128248047D01*
X94440833Y-128118229D01*
X94168150Y-128112323D01*
X93895466Y-128106417D01*
X93919441Y-128032334D01*
X93945228Y-127978779D01*
X93988571Y-127945133D01*
X94030485Y-127928149D01*
X94087563Y-127911366D01*
X94130296Y-127911598D01*
X94179755Y-127930796D01*
X94206554Y-127944437D01*
X94295555Y-127990826D01*
X94357611Y-127946639D01*
X94398896Y-127910718D01*
X94419225Y-127880235D01*
X94419667Y-127876872D01*
X94403241Y-127851453D01*
X94361359Y-127815056D01*
X94330763Y-127793647D01*
X94233955Y-127751042D01*
X94122016Y-127732735D01*
X94009844Y-127739046D01*
X93912337Y-127770296D01*
X93888842Y-127784129D01*
X93794764Y-127871126D01*
X93733783Y-127983354D01*
X93705669Y-128121474D01*
X93710192Y-128286150D01*
X93711307Y-128295383D01*
X93720226Y-128328667D01*
X93911667Y-128328667D01*
X93915175Y-128307646D01*
X93931356Y-128295013D01*
X93968690Y-128288667D01*
X94035662Y-128286504D01*
X94082426Y-128286334D01*
X94166633Y-128286865D01*
X94216387Y-128290054D01*
X94239568Y-128298291D01*
X94244054Y-128313969D01*
X94239337Y-128333959D01*
X94199202Y-128401941D01*
X94131541Y-128444789D01*
X94068072Y-128455667D01*
X93997255Y-128440127D01*
X93941647Y-128399955D01*
X93913162Y-128344828D01*
X93911667Y-128328667D01*
X93720226Y-128328667D01*
X93744430Y-128418981D01*
X93806123Y-128519403D01*
X93890104Y-128593145D01*
X93990092Y-128636700D01*
X94099806Y-128646561D01*
X94212964Y-128619223D01*
X94212964Y-128619223D01*
G37*
X94212964Y-128619223D02*
X94254818Y-128598770D01*
X94349106Y-128523036D01*
X94410804Y-128420924D01*
X94439021Y-128294119D01*
X94440833Y-128248047D01*
X94440833Y-128118229D01*
X94168150Y-128112323D01*
X93895466Y-128106417D01*
X93919441Y-128032334D01*
X93945228Y-127978779D01*
X93988571Y-127945133D01*
X94030485Y-127928149D01*
X94087563Y-127911366D01*
X94130296Y-127911598D01*
X94179755Y-127930796D01*
X94206554Y-127944437D01*
X94295555Y-127990826D01*
X94357611Y-127946639D01*
X94398896Y-127910718D01*
X94419225Y-127880235D01*
X94419667Y-127876872D01*
X94403241Y-127851453D01*
X94361359Y-127815056D01*
X94330763Y-127793647D01*
X94233955Y-127751042D01*
X94122016Y-127732735D01*
X94009844Y-127739046D01*
X93912337Y-127770296D01*
X93888842Y-127784129D01*
X93794764Y-127871126D01*
X93733783Y-127983354D01*
X93705669Y-128121474D01*
X93710192Y-128286150D01*
X93711307Y-128295383D01*
X93720226Y-128328667D01*
X93911667Y-128328667D01*
X93915175Y-128307646D01*
X93931356Y-128295013D01*
X93968690Y-128288667D01*
X94035662Y-128286504D01*
X94082426Y-128286334D01*
X94166633Y-128286865D01*
X94216387Y-128290054D01*
X94239568Y-128298291D01*
X94244054Y-128313969D01*
X94239337Y-128333959D01*
X94199202Y-128401941D01*
X94131541Y-128444789D01*
X94068072Y-128455667D01*
X93997255Y-128440127D01*
X93941647Y-128399955D01*
X93913162Y-128344828D01*
X93911667Y-128328667D01*
X93720226Y-128328667D01*
X93744430Y-128418981D01*
X93806123Y-128519403D01*
X93890104Y-128593145D01*
X93990092Y-128636700D01*
X94099806Y-128646561D01*
X94212964Y-128619223D01*
G36*
X92481380Y-128637861D02*
G01*
X92554743Y-128602235D01*
X92628102Y-128538280D01*
X92689250Y-128458203D01*
X92717116Y-128402119D01*
X92738213Y-128313896D01*
X92745954Y-128205904D01*
X92741034Y-128093157D01*
X92724146Y-127990675D01*
X92695986Y-127913472D01*
X92694406Y-127910734D01*
X92627670Y-127825128D01*
X92543524Y-127771082D01*
X92433658Y-127743970D01*
X92387667Y-127739993D01*
X92305747Y-127738067D01*
X92249567Y-127745578D01*
X92202992Y-127765743D01*
X92177946Y-127781794D01*
X92109222Y-127834460D01*
X92062670Y-127887794D01*
X92033703Y-127952097D01*
X92017735Y-128037669D01*
X92010179Y-128154807D01*
X92010036Y-128158866D01*
X92010046Y-128167959D01*
X92197167Y-128167959D01*
X92199541Y-128088270D01*
X92209222Y-128036775D01*
X92230048Y-127999476D01*
X92249121Y-127978455D01*
X92319696Y-127935035D01*
X92400610Y-127930617D01*
X92457850Y-127950836D01*
X92500170Y-127978909D01*
X92519634Y-127998461D01*
X92529182Y-128035011D01*
X92534227Y-128100018D01*
X92534995Y-128179869D01*
X92531714Y-128260952D01*
X92524611Y-128329655D01*
X92513913Y-128372367D01*
X92513380Y-128373405D01*
X92466623Y-128421051D01*
X92400531Y-128442594D01*
X92328558Y-128438705D01*
X92264159Y-128410058D01*
X92221452Y-128358809D01*
X92208588Y-128309555D01*
X92199784Y-128235637D01*
X92197167Y-128167959D01*
X92010046Y-128167959D01*
X92010190Y-128292280D01*
X92023170Y-128393383D01*
X92051904Y-128471025D01*
X92099316Y-128534054D01*
X92148121Y-128576471D01*
X92229794Y-128618341D01*
X92332042Y-128642508D01*
X92435539Y-128645411D01*
X92481380Y-128637861D01*
X92481380Y-128637861D01*
G37*
X92481380Y-128637861D02*
X92554743Y-128602235D01*
X92628102Y-128538280D01*
X92689250Y-128458203D01*
X92717116Y-128402119D01*
X92738213Y-128313896D01*
X92745954Y-128205904D01*
X92741034Y-128093157D01*
X92724146Y-127990675D01*
X92695986Y-127913472D01*
X92694406Y-127910734D01*
X92627670Y-127825128D01*
X92543524Y-127771082D01*
X92433658Y-127743970D01*
X92387667Y-127739993D01*
X92305747Y-127738067D01*
X92249567Y-127745578D01*
X92202992Y-127765743D01*
X92177946Y-127781794D01*
X92109222Y-127834460D01*
X92062670Y-127887794D01*
X92033703Y-127952097D01*
X92017735Y-128037669D01*
X92010179Y-128154807D01*
X92010036Y-128158866D01*
X92010046Y-128167959D01*
X92197167Y-128167959D01*
X92199541Y-128088270D01*
X92209222Y-128036775D01*
X92230048Y-127999476D01*
X92249121Y-127978455D01*
X92319696Y-127935035D01*
X92400610Y-127930617D01*
X92457850Y-127950836D01*
X92500170Y-127978909D01*
X92519634Y-127998461D01*
X92529182Y-128035011D01*
X92534227Y-128100018D01*
X92534995Y-128179869D01*
X92531714Y-128260952D01*
X92524611Y-128329655D01*
X92513913Y-128372367D01*
X92513380Y-128373405D01*
X92466623Y-128421051D01*
X92400531Y-128442594D01*
X92328558Y-128438705D01*
X92264159Y-128410058D01*
X92221452Y-128358809D01*
X92208588Y-128309555D01*
X92199784Y-128235637D01*
X92197167Y-128167959D01*
X92010046Y-128167959D01*
X92010190Y-128292280D01*
X92023170Y-128393383D01*
X92051904Y-128471025D01*
X92099316Y-128534054D01*
X92148121Y-128576471D01*
X92229794Y-128618341D01*
X92332042Y-128642508D01*
X92435539Y-128645411D01*
X92481380Y-128637861D01*
G36*
X99238703Y-127241010D02*
G01*
X99340485Y-127200763D01*
X99432710Y-127126148D01*
X99492079Y-127025190D01*
X99518798Y-126897486D01*
X99520485Y-126852292D01*
X99520833Y-126720000D01*
X99243402Y-126720000D01*
X99130068Y-126719473D01*
X99052907Y-126717370D01*
X99005766Y-126712914D01*
X98982493Y-126705327D01*
X98976935Y-126693828D01*
X98978819Y-126686519D01*
X98990240Y-126646194D01*
X98991667Y-126633603D01*
X99005272Y-126605754D01*
X99034000Y-126571834D01*
X99092759Y-126539316D01*
X99170816Y-126528723D01*
X99251220Y-126540115D01*
X99313635Y-126570806D01*
X99366146Y-126612111D01*
X99437740Y-126552341D01*
X99480876Y-126513398D01*
X99494901Y-126487679D01*
X99484747Y-126463244D01*
X99478042Y-126454765D01*
X99410156Y-126401353D01*
X99315400Y-126363542D01*
X99207132Y-126343739D01*
X99098708Y-126344352D01*
X99003486Y-126367792D01*
X99001200Y-126368773D01*
X98909908Y-126430629D01*
X98841229Y-126523238D01*
X98797297Y-126640306D01*
X98780244Y-126775537D01*
X98790787Y-126905209D01*
X98970579Y-126905209D01*
X98990071Y-126897982D01*
X99042096Y-126892477D01*
X99116863Y-126889573D01*
X99147481Y-126889334D01*
X99233643Y-126889772D01*
X99285450Y-126892730D01*
X99310878Y-126900674D01*
X99317907Y-126916070D01*
X99314589Y-126940984D01*
X99285876Y-127007862D01*
X99228732Y-127047565D01*
X99140184Y-127061776D01*
X99102480Y-127061105D01*
X99063974Y-127042677D01*
X99020722Y-127000606D01*
X98985374Y-126949843D01*
X98970580Y-126905340D01*
X98970579Y-126905209D01*
X98790787Y-126905209D01*
X98792204Y-126922637D01*
X98800266Y-126961779D01*
X98846006Y-127075574D01*
X98920074Y-127163648D01*
X99015116Y-127222748D01*
X99123777Y-127249620D01*
X99238703Y-127241010D01*
X99238703Y-127241010D01*
G37*
X99238703Y-127241010D02*
X99340485Y-127200763D01*
X99432710Y-127126148D01*
X99492079Y-127025190D01*
X99518798Y-126897486D01*
X99520485Y-126852292D01*
X99520833Y-126720000D01*
X99243402Y-126720000D01*
X99130068Y-126719473D01*
X99052907Y-126717370D01*
X99005766Y-126712914D01*
X98982493Y-126705327D01*
X98976935Y-126693828D01*
X98978819Y-126686519D01*
X98990240Y-126646194D01*
X98991667Y-126633603D01*
X99005272Y-126605754D01*
X99034000Y-126571834D01*
X99092759Y-126539316D01*
X99170816Y-126528723D01*
X99251220Y-126540115D01*
X99313635Y-126570806D01*
X99366146Y-126612111D01*
X99437740Y-126552341D01*
X99480876Y-126513398D01*
X99494901Y-126487679D01*
X99484747Y-126463244D01*
X99478042Y-126454765D01*
X99410156Y-126401353D01*
X99315400Y-126363542D01*
X99207132Y-126343739D01*
X99098708Y-126344352D01*
X99003486Y-126367792D01*
X99001200Y-126368773D01*
X98909908Y-126430629D01*
X98841229Y-126523238D01*
X98797297Y-126640306D01*
X98780244Y-126775537D01*
X98790787Y-126905209D01*
X98970579Y-126905209D01*
X98990071Y-126897982D01*
X99042096Y-126892477D01*
X99116863Y-126889573D01*
X99147481Y-126889334D01*
X99233643Y-126889772D01*
X99285450Y-126892730D01*
X99310878Y-126900674D01*
X99317907Y-126916070D01*
X99314589Y-126940984D01*
X99285876Y-127007862D01*
X99228732Y-127047565D01*
X99140184Y-127061776D01*
X99102480Y-127061105D01*
X99063974Y-127042677D01*
X99020722Y-127000606D01*
X98985374Y-126949843D01*
X98970580Y-126905340D01*
X98970579Y-126905209D01*
X98790787Y-126905209D01*
X98792204Y-126922637D01*
X98800266Y-126961779D01*
X98846006Y-127075574D01*
X98920074Y-127163648D01*
X99015116Y-127222748D01*
X99123777Y-127249620D01*
X99238703Y-127241010D01*
G36*
X98345025Y-127245135D02*
G01*
X98373631Y-127231255D01*
X98377833Y-127216874D01*
X98382079Y-127197098D01*
X98402245Y-127198690D01*
X98440282Y-127216874D01*
X98504989Y-127238361D01*
X98581048Y-127246434D01*
X98657446Y-127242387D01*
X98723165Y-127227517D01*
X98767190Y-127203121D01*
X98779379Y-127176978D01*
X98765760Y-127148473D01*
X98732140Y-127103535D01*
X98714039Y-127082732D01*
X98668348Y-127039071D01*
X98638254Y-127028141D01*
X98625760Y-127035107D01*
X98575582Y-127058622D01*
X98511442Y-127055800D01*
X98450219Y-127029305D01*
X98421703Y-127002896D01*
X98404294Y-126977181D01*
X98392181Y-126946677D01*
X98384422Y-126903652D01*
X98380074Y-126840374D01*
X98378194Y-126749112D01*
X98377833Y-126643063D01*
X98377833Y-126339000D01*
X98187333Y-126339000D01*
X98187333Y-127249167D01*
X98282583Y-127249167D01*
X98345025Y-127245135D01*
X98345025Y-127245135D01*
G37*
X98345025Y-127245135D02*
X98373631Y-127231255D01*
X98377833Y-127216874D01*
X98382079Y-127197098D01*
X98402245Y-127198690D01*
X98440282Y-127216874D01*
X98504989Y-127238361D01*
X98581048Y-127246434D01*
X98657446Y-127242387D01*
X98723165Y-127227517D01*
X98767190Y-127203121D01*
X98779379Y-127176978D01*
X98765760Y-127148473D01*
X98732140Y-127103535D01*
X98714039Y-127082732D01*
X98668348Y-127039071D01*
X98638254Y-127028141D01*
X98625760Y-127035107D01*
X98575582Y-127058622D01*
X98511442Y-127055800D01*
X98450219Y-127029305D01*
X98421703Y-127002896D01*
X98404294Y-126977181D01*
X98392181Y-126946677D01*
X98384422Y-126903652D01*
X98380074Y-126840374D01*
X98378194Y-126749112D01*
X98377833Y-126643063D01*
X98377833Y-126339000D01*
X98187333Y-126339000D01*
X98187333Y-127249167D01*
X98282583Y-127249167D01*
X98345025Y-127245135D01*
G36*
X97770943Y-127236905D02*
G01*
X97873769Y-127199200D01*
X97949190Y-127134671D01*
X97950946Y-127132461D01*
X97967617Y-127108782D01*
X97979684Y-127082040D01*
X97987885Y-127045372D01*
X97992960Y-126991918D01*
X97995648Y-126914815D01*
X97996689Y-126807201D01*
X97996833Y-126706563D01*
X97996833Y-126339000D01*
X97748125Y-126339829D01*
X97610099Y-126343298D01*
X97505987Y-126352444D01*
X97439598Y-126366909D01*
X97433721Y-126369256D01*
X97354201Y-126424297D01*
X97300943Y-126502454D01*
X97276442Y-126593183D01*
X97278996Y-126628239D01*
X97467667Y-126628239D01*
X97478031Y-126577361D01*
X97513208Y-126546390D01*
X97579320Y-126531826D01*
X97640488Y-126529500D01*
X97714166Y-126532309D01*
X97757185Y-126542903D01*
X97780979Y-126564534D01*
X97784422Y-126570442D01*
X97801832Y-126624405D01*
X97806333Y-126665692D01*
X97803852Y-126695656D01*
X97789810Y-126711903D01*
X97754307Y-126718620D01*
X97687443Y-126719996D01*
X97677942Y-126720000D01*
X97574441Y-126713990D01*
X97507749Y-126694809D01*
X97473917Y-126660736D01*
X97467667Y-126628239D01*
X97278996Y-126628239D01*
X97283200Y-126685940D01*
X97323713Y-126770182D01*
X97335375Y-126784290D01*
X97401303Y-126836955D01*
X97490672Y-126870403D01*
X97610013Y-126886590D01*
X97684625Y-126888829D01*
X97753078Y-126890129D01*
X97789388Y-126896729D01*
X97803742Y-126913768D01*
X97806329Y-126946388D01*
X97806333Y-126950242D01*
X97796189Y-127003674D01*
X97775417Y-127036809D01*
X97729303Y-127055165D01*
X97659500Y-127062857D01*
X97583312Y-127059777D01*
X97518047Y-127045817D01*
X97501318Y-127038518D01*
X97462808Y-127024094D01*
X97427300Y-127032454D01*
X97386302Y-127059573D01*
X97344882Y-127095447D01*
X97334637Y-127124267D01*
X97343363Y-127148372D01*
X97390492Y-127194934D01*
X97470904Y-127228625D01*
X97576794Y-127246765D01*
X97637000Y-127249167D01*
X97770943Y-127236905D01*
X97770943Y-127236905D01*
G37*
X97770943Y-127236905D02*
X97873769Y-127199200D01*
X97949190Y-127134671D01*
X97950946Y-127132461D01*
X97967617Y-127108782D01*
X97979684Y-127082040D01*
X97987885Y-127045372D01*
X97992960Y-126991918D01*
X97995648Y-126914815D01*
X97996689Y-126807201D01*
X97996833Y-126706563D01*
X97996833Y-126339000D01*
X97748125Y-126339829D01*
X97610099Y-126343298D01*
X97505987Y-126352444D01*
X97439598Y-126366909D01*
X97433721Y-126369256D01*
X97354201Y-126424297D01*
X97300943Y-126502454D01*
X97276442Y-126593183D01*
X97278996Y-126628239D01*
X97467667Y-126628239D01*
X97478031Y-126577361D01*
X97513208Y-126546390D01*
X97579320Y-126531826D01*
X97640488Y-126529500D01*
X97714166Y-126532309D01*
X97757185Y-126542903D01*
X97780979Y-126564534D01*
X97784422Y-126570442D01*
X97801832Y-126624405D01*
X97806333Y-126665692D01*
X97803852Y-126695656D01*
X97789810Y-126711903D01*
X97754307Y-126718620D01*
X97687443Y-126719996D01*
X97677942Y-126720000D01*
X97574441Y-126713990D01*
X97507749Y-126694809D01*
X97473917Y-126660736D01*
X97467667Y-126628239D01*
X97278996Y-126628239D01*
X97283200Y-126685940D01*
X97323713Y-126770182D01*
X97335375Y-126784290D01*
X97401303Y-126836955D01*
X97490672Y-126870403D01*
X97610013Y-126886590D01*
X97684625Y-126888829D01*
X97753078Y-126890129D01*
X97789388Y-126896729D01*
X97803742Y-126913768D01*
X97806329Y-126946388D01*
X97806333Y-126950242D01*
X97796189Y-127003674D01*
X97775417Y-127036809D01*
X97729303Y-127055165D01*
X97659500Y-127062857D01*
X97583312Y-127059777D01*
X97518047Y-127045817D01*
X97501318Y-127038518D01*
X97462808Y-127024094D01*
X97427300Y-127032454D01*
X97386302Y-127059573D01*
X97344882Y-127095447D01*
X97334637Y-127124267D01*
X97343363Y-127148372D01*
X97390492Y-127194934D01*
X97470904Y-127228625D01*
X97576794Y-127246765D01*
X97637000Y-127249167D01*
X97770943Y-127236905D01*
G36*
X96811205Y-126954928D02*
G01*
X96844942Y-126851514D01*
X96874224Y-126764717D01*
X96896655Y-126701413D01*
X96909838Y-126668477D01*
X96912127Y-126665405D01*
X96921599Y-126690469D01*
X96940892Y-126756394D01*
X96969922Y-126862882D01*
X97008608Y-127009635D01*
X97025472Y-127074542D01*
X97070698Y-127249167D01*
X97176197Y-127249167D01*
X97242153Y-127245687D01*
X97270899Y-127234396D01*
X97271985Y-127222709D01*
X97262130Y-127192542D01*
X97242983Y-127131396D01*
X97217509Y-127048810D01*
X97194655Y-126974000D01*
X97157324Y-126853605D01*
X97114934Y-126720434D01*
X97074490Y-126596389D01*
X97059226Y-126550667D01*
X96991417Y-126349584D01*
X96823821Y-126349584D01*
X96784690Y-126476584D01*
X96758810Y-126561788D01*
X96727695Y-126665953D01*
X96697831Y-126767358D01*
X96696226Y-126772862D01*
X96646892Y-126942140D01*
X96571560Y-126698779D01*
X96540645Y-126597845D01*
X96513316Y-126506664D01*
X96492676Y-126435716D01*
X96482235Y-126397209D01*
X96467565Y-126358968D01*
X96438955Y-126342450D01*
X96385418Y-126339000D01*
X96326361Y-126344548D01*
X96294390Y-126365627D01*
X96283015Y-126386625D01*
X96270584Y-126421395D01*
X96247867Y-126489251D01*
X96217252Y-126582887D01*
X96181129Y-126694998D01*
X96142845Y-126815250D01*
X96104397Y-126936491D01*
X96069957Y-127044658D01*
X96041703Y-127132943D01*
X96021816Y-127194537D01*
X96012474Y-127222630D01*
X96012444Y-127222709D01*
X96020077Y-127239648D01*
X96062134Y-127247876D01*
X96106787Y-127249167D01*
X96210938Y-127249167D01*
X96259744Y-127074542D01*
X96288181Y-126973603D01*
X96317875Y-126869485D01*
X96342898Y-126782959D01*
X96345255Y-126774917D01*
X96381959Y-126649918D01*
X96570049Y-127238584D01*
X96643149Y-127244500D01*
X96716250Y-127250416D01*
X96811205Y-126954928D01*
X96811205Y-126954928D01*
G37*
X96811205Y-126954928D02*
X96844942Y-126851514D01*
X96874224Y-126764717D01*
X96896655Y-126701413D01*
X96909838Y-126668477D01*
X96912127Y-126665405D01*
X96921599Y-126690469D01*
X96940892Y-126756394D01*
X96969922Y-126862882D01*
X97008608Y-127009635D01*
X97025472Y-127074542D01*
X97070698Y-127249167D01*
X97176197Y-127249167D01*
X97242153Y-127245687D01*
X97270899Y-127234396D01*
X97271985Y-127222709D01*
X97262130Y-127192542D01*
X97242983Y-127131396D01*
X97217509Y-127048810D01*
X97194655Y-126974000D01*
X97157324Y-126853605D01*
X97114934Y-126720434D01*
X97074490Y-126596389D01*
X97059226Y-126550667D01*
X96991417Y-126349584D01*
X96823821Y-126349584D01*
X96784690Y-126476584D01*
X96758810Y-126561788D01*
X96727695Y-126665953D01*
X96697831Y-126767358D01*
X96696226Y-126772862D01*
X96646892Y-126942140D01*
X96571560Y-126698779D01*
X96540645Y-126597845D01*
X96513316Y-126506664D01*
X96492676Y-126435716D01*
X96482235Y-126397209D01*
X96467565Y-126358968D01*
X96438955Y-126342450D01*
X96385418Y-126339000D01*
X96326361Y-126344548D01*
X96294390Y-126365627D01*
X96283015Y-126386625D01*
X96270584Y-126421395D01*
X96247867Y-126489251D01*
X96217252Y-126582887D01*
X96181129Y-126694998D01*
X96142845Y-126815250D01*
X96104397Y-126936491D01*
X96069957Y-127044658D01*
X96041703Y-127132943D01*
X96021816Y-127194537D01*
X96012474Y-127222630D01*
X96012444Y-127222709D01*
X96020077Y-127239648D01*
X96062134Y-127247876D01*
X96106787Y-127249167D01*
X96210938Y-127249167D01*
X96259744Y-127074542D01*
X96288181Y-126973603D01*
X96317875Y-126869485D01*
X96342898Y-126782959D01*
X96345255Y-126774917D01*
X96381959Y-126649918D01*
X96570049Y-127238584D01*
X96643149Y-127244500D01*
X96716250Y-127250416D01*
X96811205Y-126954928D01*
G36*
X95933083Y-126349584D02*
G01*
X95849261Y-126342749D01*
X95779488Y-126345645D01*
X95740946Y-126369410D01*
X95719542Y-126390328D01*
X95691788Y-126388244D01*
X95655435Y-126371084D01*
X95562651Y-126343473D01*
X95459929Y-126344958D01*
X95367010Y-126374915D01*
X95357319Y-126380477D01*
X95300547Y-126423316D01*
X95260654Y-126476353D01*
X95235021Y-126547251D01*
X95221027Y-126643672D01*
X95216055Y-126773279D01*
X95215931Y-126794084D01*
X95414500Y-126794084D01*
X95420761Y-126679898D01*
X95441569Y-126601516D01*
X95479956Y-126554004D01*
X95538957Y-126532428D01*
X95577005Y-126529825D01*
X95643957Y-126545383D01*
X95688130Y-126585272D01*
X95712712Y-126625913D01*
X95726299Y-126677647D01*
X95731596Y-126753349D01*
X95732000Y-126794084D01*
X95723462Y-126912125D01*
X95696840Y-126993788D01*
X95650624Y-127041649D01*
X95583302Y-127058284D01*
X95577005Y-127058343D01*
X95506597Y-127047852D01*
X95458314Y-127013883D01*
X95429124Y-126951504D01*
X95415992Y-126855780D01*
X95414500Y-126794084D01*
X95215931Y-126794084D01*
X95218291Y-126923718D01*
X95228100Y-127019553D01*
X95248062Y-127089858D01*
X95280878Y-127142901D01*
X95329251Y-127186949D01*
X95348838Y-127200752D01*
X95441722Y-127239907D01*
X95546274Y-127247368D01*
X95645072Y-127222195D01*
X95655044Y-127217287D01*
X95698843Y-127195511D01*
X95722599Y-127185710D01*
X95723070Y-127185667D01*
X95726787Y-127205317D01*
X95730819Y-127258218D01*
X95734573Y-127335298D01*
X95736525Y-127392042D01*
X95742583Y-127598417D01*
X95933083Y-127598417D01*
X95933083Y-126349584D01*
X95933083Y-126349584D01*
G37*
X95933083Y-126349584D02*
X95849261Y-126342749D01*
X95779488Y-126345645D01*
X95740946Y-126369410D01*
X95719542Y-126390328D01*
X95691788Y-126388244D01*
X95655435Y-126371084D01*
X95562651Y-126343473D01*
X95459929Y-126344958D01*
X95367010Y-126374915D01*
X95357319Y-126380477D01*
X95300547Y-126423316D01*
X95260654Y-126476353D01*
X95235021Y-126547251D01*
X95221027Y-126643672D01*
X95216055Y-126773279D01*
X95215931Y-126794084D01*
X95414500Y-126794084D01*
X95420761Y-126679898D01*
X95441569Y-126601516D01*
X95479956Y-126554004D01*
X95538957Y-126532428D01*
X95577005Y-126529825D01*
X95643957Y-126545383D01*
X95688130Y-126585272D01*
X95712712Y-126625913D01*
X95726299Y-126677647D01*
X95731596Y-126753349D01*
X95732000Y-126794084D01*
X95723462Y-126912125D01*
X95696840Y-126993788D01*
X95650624Y-127041649D01*
X95583302Y-127058284D01*
X95577005Y-127058343D01*
X95506597Y-127047852D01*
X95458314Y-127013883D01*
X95429124Y-126951504D01*
X95415992Y-126855780D01*
X95414500Y-126794084D01*
X95215931Y-126794084D01*
X95218291Y-126923718D01*
X95228100Y-127019553D01*
X95248062Y-127089858D01*
X95280878Y-127142901D01*
X95329251Y-127186949D01*
X95348838Y-127200752D01*
X95441722Y-127239907D01*
X95546274Y-127247368D01*
X95645072Y-127222195D01*
X95655044Y-127217287D01*
X95698843Y-127195511D01*
X95722599Y-127185710D01*
X95723070Y-127185667D01*
X95726787Y-127205317D01*
X95730819Y-127258218D01*
X95734573Y-127335298D01*
X95736525Y-127392042D01*
X95742583Y-127598417D01*
X95933083Y-127598417D01*
X95933083Y-126349584D01*
G36*
X94765036Y-127246342D02*
G01*
X94793215Y-127234753D01*
X94800647Y-127209725D01*
X94800667Y-127207548D01*
X94802714Y-127182402D01*
X94815727Y-127178158D01*
X94850014Y-127195174D01*
X94875628Y-127210156D01*
X94939892Y-127239025D01*
X95009606Y-127247016D01*
X95057125Y-127244148D01*
X95125133Y-127232452D01*
X95178012Y-127214250D01*
X95193701Y-127203871D01*
X95208490Y-127180932D01*
X95201773Y-127153062D01*
X95169934Y-127108668D01*
X95160351Y-127096929D01*
X95119443Y-127050869D01*
X95089332Y-127032671D01*
X95055549Y-127036231D01*
X95034241Y-127043700D01*
X94954744Y-127054985D01*
X94882729Y-127032092D01*
X94830937Y-126979348D01*
X94827887Y-126973649D01*
X94814793Y-126922829D01*
X94805963Y-126831418D01*
X94801517Y-126700957D01*
X94800979Y-126630042D01*
X94800667Y-126339000D01*
X94610167Y-126339000D01*
X94610167Y-127249167D01*
X94705417Y-127249167D01*
X94765036Y-127246342D01*
X94765036Y-127246342D01*
G37*
X94765036Y-127246342D02*
X94793215Y-127234753D01*
X94800647Y-127209725D01*
X94800667Y-127207548D01*
X94802714Y-127182402D01*
X94815727Y-127178158D01*
X94850014Y-127195174D01*
X94875628Y-127210156D01*
X94939892Y-127239025D01*
X95009606Y-127247016D01*
X95057125Y-127244148D01*
X95125133Y-127232452D01*
X95178012Y-127214250D01*
X95193701Y-127203871D01*
X95208490Y-127180932D01*
X95201773Y-127153062D01*
X95169934Y-127108668D01*
X95160351Y-127096929D01*
X95119443Y-127050869D01*
X95089332Y-127032671D01*
X95055549Y-127036231D01*
X95034241Y-127043700D01*
X94954744Y-127054985D01*
X94882729Y-127032092D01*
X94830937Y-126979348D01*
X94827887Y-126973649D01*
X94814793Y-126922829D01*
X94805963Y-126831418D01*
X94801517Y-126700957D01*
X94800979Y-126630042D01*
X94800667Y-126339000D01*
X94610167Y-126339000D01*
X94610167Y-127249167D01*
X94705417Y-127249167D01*
X94765036Y-127246342D01*
G36*
X94168353Y-127242925D02*
G01*
X94273942Y-127213315D01*
X94283689Y-127209054D01*
X94337622Y-127180103D01*
X94377850Y-127144919D01*
X94406152Y-127097373D01*
X94424305Y-127031336D01*
X94434089Y-126940680D01*
X94437283Y-126819276D01*
X94436084Y-126683909D01*
X94430250Y-126349584D01*
X94176250Y-126344839D01*
X94060423Y-126343838D01*
X93977810Y-126346499D01*
X93919379Y-126353723D01*
X93876102Y-126366414D01*
X93853500Y-126377111D01*
X93770527Y-126440409D01*
X93724498Y-126522945D01*
X93712541Y-126603410D01*
X93715719Y-126635622D01*
X93891775Y-126635622D01*
X93898112Y-126590136D01*
X93938782Y-126554640D01*
X94009796Y-126533493D01*
X94067695Y-126529500D01*
X94135620Y-126534100D01*
X94187424Y-126545854D01*
X94203767Y-126554900D01*
X94221517Y-126592657D01*
X94229160Y-126648584D01*
X94229167Y-126650150D01*
X94229167Y-126720000D01*
X94093095Y-126720000D01*
X94000573Y-126715230D01*
X93942988Y-126700079D01*
X93923762Y-126686739D01*
X93891775Y-126635622D01*
X93715719Y-126635622D01*
X93722597Y-126705310D01*
X93759932Y-126781832D01*
X93827678Y-126835571D01*
X93928967Y-126869125D01*
X94051207Y-126884199D01*
X94229167Y-126895301D01*
X94229167Y-126965152D01*
X94222758Y-127017231D01*
X94207213Y-127048477D01*
X94206015Y-127049310D01*
X94157984Y-127062968D01*
X94088691Y-127065824D01*
X94016003Y-127059007D01*
X93957787Y-127043644D01*
X93938953Y-127032461D01*
X93912646Y-127013555D01*
X93887108Y-127015413D01*
X93848761Y-127041151D01*
X93827858Y-127057962D01*
X93783892Y-127097063D01*
X93769472Y-127123132D01*
X93779431Y-127147372D01*
X93783983Y-127153094D01*
X93851036Y-127204179D01*
X93945229Y-127237050D01*
X94054892Y-127250401D01*
X94168353Y-127242925D01*
X94168353Y-127242925D01*
G37*
X94168353Y-127242925D02*
X94273942Y-127213315D01*
X94283689Y-127209054D01*
X94337622Y-127180103D01*
X94377850Y-127144919D01*
X94406152Y-127097373D01*
X94424305Y-127031336D01*
X94434089Y-126940680D01*
X94437283Y-126819276D01*
X94436084Y-126683909D01*
X94430250Y-126349584D01*
X94176250Y-126344839D01*
X94060423Y-126343838D01*
X93977810Y-126346499D01*
X93919379Y-126353723D01*
X93876102Y-126366414D01*
X93853500Y-126377111D01*
X93770527Y-126440409D01*
X93724498Y-126522945D01*
X93712541Y-126603410D01*
X93715719Y-126635622D01*
X93891775Y-126635622D01*
X93898112Y-126590136D01*
X93938782Y-126554640D01*
X94009796Y-126533493D01*
X94067695Y-126529500D01*
X94135620Y-126534100D01*
X94187424Y-126545854D01*
X94203767Y-126554900D01*
X94221517Y-126592657D01*
X94229160Y-126648584D01*
X94229167Y-126650150D01*
X94229167Y-126720000D01*
X94093095Y-126720000D01*
X94000573Y-126715230D01*
X93942988Y-126700079D01*
X93923762Y-126686739D01*
X93891775Y-126635622D01*
X93715719Y-126635622D01*
X93722597Y-126705310D01*
X93759932Y-126781832D01*
X93827678Y-126835571D01*
X93928967Y-126869125D01*
X94051207Y-126884199D01*
X94229167Y-126895301D01*
X94229167Y-126965152D01*
X94222758Y-127017231D01*
X94207213Y-127048477D01*
X94206015Y-127049310D01*
X94157984Y-127062968D01*
X94088691Y-127065824D01*
X94016003Y-127059007D01*
X93957787Y-127043644D01*
X93938953Y-127032461D01*
X93912646Y-127013555D01*
X93887108Y-127015413D01*
X93848761Y-127041151D01*
X93827858Y-127057962D01*
X93783892Y-127097063D01*
X93769472Y-127123132D01*
X93779431Y-127147372D01*
X93783983Y-127153094D01*
X93851036Y-127204179D01*
X93945229Y-127237050D01*
X94054892Y-127250401D01*
X94168353Y-127242925D01*
G36*
X93321371Y-128641156D02*
G01*
X93397932Y-128627723D01*
X93455814Y-128598244D01*
X93506235Y-128553536D01*
X93583583Y-128476247D01*
X93590601Y-128211957D01*
X93592956Y-128099561D01*
X93592309Y-128020334D01*
X93587608Y-127965157D01*
X93577800Y-127924910D01*
X93561836Y-127890473D01*
X93551516Y-127873071D01*
X93506189Y-127816245D01*
X93453921Y-127772346D01*
X93445007Y-127767237D01*
X93358313Y-127741424D01*
X93258088Y-127739154D01*
X93165934Y-127760349D01*
X93148615Y-127768294D01*
X93086167Y-127800588D01*
X93086167Y-127184580D01*
X93148615Y-127216874D01*
X93236007Y-127243307D01*
X93336302Y-127246293D01*
X93427899Y-127225753D01*
X93445007Y-127217930D01*
X93496940Y-127178429D01*
X93544683Y-127122771D01*
X93549790Y-127114890D01*
X93566342Y-127084730D01*
X93578204Y-127051338D01*
X93586146Y-127007375D01*
X93590936Y-126945505D01*
X93593341Y-126858389D01*
X93594130Y-126738691D01*
X93594167Y-126691044D01*
X93594167Y-126339000D01*
X93406716Y-126339000D01*
X93399900Y-126658419D01*
X93396965Y-126781396D01*
X93393514Y-126869171D01*
X93388420Y-126928871D01*
X93380560Y-126967621D01*
X93368808Y-126992549D01*
X93352040Y-127010781D01*
X93343113Y-127018252D01*
X93271713Y-127052641D01*
X93194255Y-127053498D01*
X93137837Y-127028682D01*
X93121870Y-127013173D01*
X93110153Y-126989020D01*
X93101699Y-126949451D01*
X93095521Y-126887698D01*
X93090634Y-126796991D01*
X93086167Y-126674141D01*
X93075583Y-126349584D01*
X92974859Y-126343125D01*
X92874134Y-126336666D01*
X92879609Y-127486125D01*
X92882958Y-128189572D01*
X93086167Y-128189572D01*
X93087730Y-128097574D01*
X93093765Y-128037326D01*
X93106288Y-127998315D01*
X93127315Y-127970030D01*
X93128500Y-127968834D01*
X93187557Y-127934962D01*
X93258639Y-127927644D01*
X93323934Y-127947007D01*
X93349335Y-127967270D01*
X93374302Y-128016937D01*
X93391820Y-128094034D01*
X93400308Y-128184066D01*
X93398182Y-128272538D01*
X93388796Y-128328667D01*
X93352149Y-128397691D01*
X93292572Y-128438994D01*
X93221575Y-128449480D01*
X93150664Y-128426048D01*
X93119397Y-128401207D01*
X93101495Y-128370603D01*
X93090963Y-128317395D01*
X93086523Y-128233449D01*
X93086167Y-128189572D01*
X92882958Y-128189572D01*
X92885083Y-128635584D01*
X92968906Y-128642418D01*
X93037127Y-128639939D01*
X93076252Y-128616942D01*
X93078272Y-128614320D01*
X93099532Y-128592144D01*
X93124161Y-128594670D01*
X93158835Y-128615437D01*
X93214516Y-128639003D01*
X93288510Y-128643567D01*
X93321371Y-128641156D01*
X93321371Y-128641156D01*
G37*
X93321371Y-128641156D02*
X93397932Y-128627723D01*
X93455814Y-128598244D01*
X93506235Y-128553536D01*
X93583583Y-128476247D01*
X93590601Y-128211957D01*
X93592956Y-128099561D01*
X93592309Y-128020334D01*
X93587608Y-127965157D01*
X93577800Y-127924910D01*
X93561836Y-127890473D01*
X93551516Y-127873071D01*
X93506189Y-127816245D01*
X93453921Y-127772346D01*
X93445007Y-127767237D01*
X93358313Y-127741424D01*
X93258088Y-127739154D01*
X93165934Y-127760349D01*
X93148615Y-127768294D01*
X93086167Y-127800588D01*
X93086167Y-127184580D01*
X93148615Y-127216874D01*
X93236007Y-127243307D01*
X93336302Y-127246293D01*
X93427899Y-127225753D01*
X93445007Y-127217930D01*
X93496940Y-127178429D01*
X93544683Y-127122771D01*
X93549790Y-127114890D01*
X93566342Y-127084730D01*
X93578204Y-127051338D01*
X93586146Y-127007375D01*
X93590936Y-126945505D01*
X93593341Y-126858389D01*
X93594130Y-126738691D01*
X93594167Y-126691044D01*
X93594167Y-126339000D01*
X93406716Y-126339000D01*
X93399900Y-126658419D01*
X93396965Y-126781396D01*
X93393514Y-126869171D01*
X93388420Y-126928871D01*
X93380560Y-126967621D01*
X93368808Y-126992549D01*
X93352040Y-127010781D01*
X93343113Y-127018252D01*
X93271713Y-127052641D01*
X93194255Y-127053498D01*
X93137837Y-127028682D01*
X93121870Y-127013173D01*
X93110153Y-126989020D01*
X93101699Y-126949451D01*
X93095521Y-126887698D01*
X93090634Y-126796991D01*
X93086167Y-126674141D01*
X93075583Y-126349584D01*
X92974859Y-126343125D01*
X92874134Y-126336666D01*
X92879609Y-127486125D01*
X92882958Y-128189572D01*
X93086167Y-128189572D01*
X93087730Y-128097574D01*
X93093765Y-128037326D01*
X93106288Y-127998315D01*
X93127315Y-127970030D01*
X93128500Y-127968834D01*
X93187557Y-127934962D01*
X93258639Y-127927644D01*
X93323934Y-127947007D01*
X93349335Y-127967270D01*
X93374302Y-128016937D01*
X93391820Y-128094034D01*
X93400308Y-128184066D01*
X93398182Y-128272538D01*
X93388796Y-128328667D01*
X93352149Y-128397691D01*
X93292572Y-128438994D01*
X93221575Y-128449480D01*
X93150664Y-128426048D01*
X93119397Y-128401207D01*
X93101495Y-128370603D01*
X93090963Y-128317395D01*
X93086523Y-128233449D01*
X93086167Y-128189572D01*
X92882958Y-128189572D01*
X92885083Y-128635584D01*
X92968906Y-128642418D01*
X93037127Y-128639939D01*
X93076252Y-128616942D01*
X93078272Y-128614320D01*
X93099532Y-128592144D01*
X93124161Y-128594670D01*
X93158835Y-128615437D01*
X93214516Y-128639003D01*
X93288510Y-128643567D01*
X93321371Y-128641156D01*
D13*
X79082380Y-143676666D02*
X79796666Y-143676666D01*
X79939523Y-143629047D01*
X80034761Y-143533809D01*
X80082380Y-143390952D01*
X80082380Y-143295714D01*
X80082380Y-144152857D02*
X79082380Y-144152857D01*
X79082380Y-144533809D01*
X79130000Y-144629047D01*
X79177619Y-144676666D01*
X79272857Y-144724285D01*
X79415714Y-144724285D01*
X79510952Y-144676666D01*
X79558571Y-144629047D01*
X79606190Y-144533809D01*
X79606190Y-144152857D01*
X79082380Y-145057619D02*
X79082380Y-145676666D01*
X79463333Y-145343333D01*
X79463333Y-145486190D01*
X79510952Y-145581428D01*
X79558571Y-145629047D01*
X79653809Y-145676666D01*
X79891904Y-145676666D01*
X79987142Y-145629047D01*
X80034761Y-145581428D01*
X80082380Y-145486190D01*
X80082380Y-145200476D01*
X80034761Y-145105238D01*
X79987142Y-145057619D01*
X128192380Y-144946666D02*
X128906666Y-144946666D01*
X129049523Y-144899047D01*
X129144761Y-144803809D01*
X129192380Y-144660952D01*
X129192380Y-144565714D01*
X129192380Y-145422857D02*
X128192380Y-145422857D01*
X128192380Y-145803809D01*
X128240000Y-145899047D01*
X128287619Y-145946666D01*
X128382857Y-145994285D01*
X128525714Y-145994285D01*
X128620952Y-145946666D01*
X128668571Y-145899047D01*
X128716190Y-145803809D01*
X128716190Y-145422857D01*
X128287619Y-146375238D02*
X128240000Y-146422857D01*
X128192380Y-146518095D01*
X128192380Y-146756190D01*
X128240000Y-146851428D01*
X128287619Y-146899047D01*
X128382857Y-146946666D01*
X128478095Y-146946666D01*
X128620952Y-146899047D01*
X129192380Y-146327619D01*
X129192380Y-146946666D01*
X79082380Y-143676666D02*
X79796666Y-143676666D01*
X79939523Y-143629047D01*
X80034761Y-143533809D01*
X80082380Y-143390952D01*
X80082380Y-143295714D01*
X80082380Y-144152857D02*
X79082380Y-144152857D01*
X79082380Y-144533809D01*
X79130000Y-144629047D01*
X79177619Y-144676666D01*
X79272857Y-144724285D01*
X79415714Y-144724285D01*
X79510952Y-144676666D01*
X79558571Y-144629047D01*
X79606190Y-144533809D01*
X79606190Y-144152857D01*
X79082380Y-145057619D02*
X79082380Y-145676666D01*
X79463333Y-145343333D01*
X79463333Y-145486190D01*
X79510952Y-145581428D01*
X79558571Y-145629047D01*
X79653809Y-145676666D01*
X79891904Y-145676666D01*
X79987142Y-145629047D01*
X80034761Y-145581428D01*
X80082380Y-145486190D01*
X80082380Y-145200476D01*
X80034761Y-145105238D01*
X79987142Y-145057619D01*
X127772380Y-132450666D02*
X128486666Y-132450666D01*
X128629523Y-132403047D01*
X128724761Y-132307809D01*
X128772380Y-132164952D01*
X128772380Y-132069714D01*
X128772380Y-132926857D02*
X127772380Y-132926857D01*
X127772380Y-133307809D01*
X127820000Y-133403047D01*
X127867619Y-133450666D01*
X127962857Y-133498285D01*
X128105714Y-133498285D01*
X128200952Y-133450666D01*
X128248571Y-133403047D01*
X128296190Y-133307809D01*
X128296190Y-132926857D01*
X128772380Y-134450666D02*
X128772380Y-133879238D01*
X128772380Y-134164952D02*
X127772380Y-134164952D01*
X127915238Y-134069714D01*
X128010476Y-133974476D01*
X128058095Y-133879238D01*
M02*
