%TF.GenerationSoftware,KiCad,Pcbnew,(5.0.2)-1*%
%TF.CreationDate,2019-04-17T22:45:11+02:00*%
%TF.ProjectId,nfc-door-x4,6e66632d-646f-46f7-922d-78342e6b6963,rev?*%
%TF.SameCoordinates,Original*%
%TF.FileFunction,Copper,L2,Bot*%
%TF.FilePolarity,Positive*%
%FSLAX46Y46*%
G04 Gerber Fmt 4.6, Leading zero omitted, Abs format (unit mm)*
G04 Created by KiCad (PCBNEW (5.0.2)-1) date 17.04.2019 22:45:11*
%MOMM*%
%LPD*%
G01*
G04 APERTURE LIST*
%ADD10C,5.000000*%
%ADD11R,1.700000X1.700000*%
%ADD12O,1.700000X1.700000*%
%ADD13O,1.800000X2.500000*%
%ADD14O,2.500000X1.800000*%
%ADD15R,2.159000X2.159000*%
%ADD16R,2.286000X2.286000*%
%ADD17R,2.400000X1.600000*%
%ADD18O,2.400000X1.600000*%
%ADD19C,1.998980*%
%ADD20R,2.000000X2.000000*%
%ADD21C,2.000000*%
%ADD22O,2.000000X2.000000*%
%ADD23R,1.800000X1.800000*%
%ADD24C,1.800000*%
%ADD25C,0.600000*%
%ADD26C,0.500000*%
%ADD27C,1.000000*%
%ADD28C,0.250000*%
%ADD29C,0.300000*%
%ADD30C,1.500000*%
%ADD31C,0.254000*%
G04 APERTURE END LIST*
D10*
X63920000Y-155634000D03*
X63920000Y-106739000D03*
X114720000Y-155634000D03*
X114720000Y-106739000D03*
D11*
X72175000Y-128710000D03*
D12*
X72175000Y-126170000D03*
X72175000Y-123630000D03*
D11*
X107100000Y-107120000D03*
D12*
X107100000Y-109660000D03*
X107100000Y-112200000D03*
X107100000Y-114740000D03*
D13*
X98840000Y-154984000D03*
X95340000Y-154984000D03*
D14*
X64809000Y-116010000D03*
X64809000Y-112510000D03*
D15*
X110910000Y-149030000D03*
D16*
X108370000Y-149030000D03*
D15*
X66460000Y-147760000D03*
D16*
X69000000Y-147760000D03*
D15*
X109005000Y-132520000D03*
D16*
X106465000Y-132520000D03*
D11*
X83605000Y-128075000D03*
D12*
X81065000Y-128075000D03*
X78525000Y-128075000D03*
D17*
X70905000Y-142680000D03*
D18*
X63285000Y-137600000D03*
X70905000Y-140140000D03*
X63285000Y-140140000D03*
X70905000Y-137600000D03*
X63285000Y-142680000D03*
D11*
X101385000Y-118550000D03*
D12*
X101385000Y-121090000D03*
D11*
X67349000Y-120328000D03*
D12*
X67349000Y-122868000D03*
D19*
X103925000Y-107120000D03*
X88050000Y-128075000D03*
D20*
X95670000Y-142680000D03*
D21*
X100670000Y-142680000D03*
D20*
X95670000Y-131250000D03*
D21*
X100670000Y-131250000D03*
D22*
X112180000Y-140140000D03*
X107100000Y-145220000D03*
X112180000Y-145220000D03*
D20*
X107100000Y-140140000D03*
D23*
X62650000Y-133155000D03*
D24*
X65190000Y-133155000D03*
D14*
X111545000Y-119185000D03*
X111545000Y-122685000D03*
D13*
X74840000Y-154984000D03*
X71340000Y-154984000D03*
X84840000Y-154984000D03*
X81340000Y-154984000D03*
X91840000Y-154984000D03*
X88340000Y-154984000D03*
X109640000Y-154872000D03*
X106140000Y-154872000D03*
D25*
X88685000Y-136785000D03*
X86780000Y-140140000D03*
X101004000Y-125662000D03*
X69254000Y-112962000D03*
X103290000Y-114105000D03*
X104560000Y-124392000D03*
X83224000Y-145728000D03*
X90844000Y-145728000D03*
X69000000Y-147760000D03*
X106846000Y-132520000D03*
X75604000Y-118296000D03*
X69508000Y-129472000D03*
X89840000Y-149984000D03*
X111545000Y-133790000D03*
X78340000Y-149984000D03*
X77340000Y-143484000D03*
X83340000Y-149984000D03*
X84875000Y-142045000D03*
X89955000Y-130615000D03*
X64555000Y-147760000D03*
X91606000Y-143188000D03*
X96432000Y-112200000D03*
X75350000Y-123122000D03*
X96432000Y-110168000D03*
X110275000Y-126805000D03*
X75350000Y-114994000D03*
X74715000Y-111819000D03*
X90336000Y-118296000D03*
X69000000Y-108136000D03*
X75604000Y-116264000D03*
D26*
X88685000Y-136785000D02*
X87415000Y-138055000D01*
X87415000Y-138055000D02*
X87415000Y-139505000D01*
X87415000Y-139505000D02*
X86780000Y-140140000D01*
X83605000Y-128075000D02*
X83605000Y-128710000D01*
X88685000Y-133790000D02*
X88685000Y-136785000D01*
X83605000Y-128710000D02*
X88685000Y-133790000D01*
D27*
X107100000Y-140140000D02*
X107100000Y-137680000D01*
X107100000Y-137680000D02*
X100670000Y-131250000D01*
X101385000Y-121090000D02*
X101385000Y-125281000D01*
X100670000Y-125996000D02*
X100670000Y-131250000D01*
X101385000Y-125281000D02*
X100670000Y-125996000D01*
X101004000Y-125662000D02*
X100670000Y-125996000D01*
D26*
X103036000Y-121090000D02*
X101385000Y-121090000D01*
X103290000Y-120836000D02*
X103036000Y-121090000D01*
X103290000Y-116264000D02*
X103290000Y-120836000D01*
X101004000Y-113978000D02*
X103290000Y-116264000D01*
X101004000Y-111438000D02*
X101004000Y-113978000D01*
X97956000Y-108390000D02*
X101004000Y-111438000D01*
X83224000Y-108390000D02*
X97956000Y-108390000D01*
X78398000Y-113216000D02*
X83224000Y-108390000D01*
X69508000Y-113216000D02*
X78398000Y-113216000D01*
X69254000Y-112962000D02*
X69508000Y-113216000D01*
D27*
X70905000Y-140140000D02*
X73191000Y-140140000D01*
X70905000Y-151824000D02*
X70905000Y-154999000D01*
X74080000Y-148649000D02*
X70905000Y-151824000D01*
X74080000Y-141029000D02*
X74080000Y-148649000D01*
X73191000Y-140140000D02*
X74080000Y-141029000D01*
D26*
X103925000Y-107120000D02*
X103925000Y-113470000D01*
X103925000Y-113470000D02*
X103290000Y-114105000D01*
X103925000Y-114105000D02*
X103290000Y-114105000D01*
X104560000Y-114740000D02*
X103925000Y-114105000D01*
X104560000Y-124392000D02*
X104560000Y-114740000D01*
D28*
X83224000Y-145728000D02*
X90844000Y-145728000D01*
X81065000Y-128075000D02*
X81065000Y-143569000D01*
X81065000Y-143569000D02*
X83224000Y-145728000D01*
D27*
X106846000Y-132520000D02*
X106465000Y-132520000D01*
D26*
X78525000Y-128075000D02*
X78525000Y-126805000D01*
X85510000Y-125535000D02*
X88050000Y-128075000D01*
X79160000Y-125535000D02*
X85510000Y-125535000D01*
X78525000Y-126170000D02*
X79160000Y-125535000D01*
X78525000Y-126805000D02*
X78525000Y-126170000D01*
D29*
X75350000Y-118042000D02*
X75604000Y-118296000D01*
X74080000Y-118042000D02*
X75350000Y-118042000D01*
X69508000Y-122614000D02*
X74080000Y-118042000D01*
X69508000Y-129472000D02*
X69508000Y-122614000D01*
X88340000Y-151484000D02*
X88340000Y-154984000D01*
X89840000Y-149984000D02*
X88340000Y-151484000D01*
D27*
X110910000Y-149030000D02*
X110910000Y-146490000D01*
D30*
X111545000Y-119185000D02*
X112180000Y-119185000D01*
X115355000Y-142045000D02*
X112180000Y-145220000D01*
X115355000Y-122360000D02*
X115355000Y-142045000D01*
X112180000Y-119185000D02*
X115355000Y-122360000D01*
X112180000Y-145220000D02*
X110910000Y-146490000D01*
X110910000Y-146490000D02*
X110910000Y-149030000D01*
X111545000Y-122995000D02*
X111545000Y-124900000D01*
X112815000Y-132520000D02*
X111545000Y-133790000D01*
X112815000Y-126170000D02*
X112815000Y-132520000D01*
X111545000Y-124900000D02*
X112815000Y-126170000D01*
D29*
X78340000Y-147984000D02*
X78340000Y-149984000D01*
X77340000Y-146984000D02*
X78340000Y-147984000D01*
X77340000Y-143484000D02*
X77340000Y-146984000D01*
X84840000Y-151484000D02*
X84840000Y-154984000D01*
X83340000Y-149984000D02*
X84840000Y-151484000D01*
D26*
X89955000Y-137600000D02*
X89955000Y-130615000D01*
X88685000Y-138870000D02*
X89955000Y-137600000D01*
X88685000Y-140775000D02*
X88685000Y-138870000D01*
X87415000Y-142045000D02*
X88685000Y-140775000D01*
X84875000Y-142045000D02*
X87415000Y-142045000D01*
X89955000Y-130615000D02*
X89955000Y-137600000D01*
D27*
X63285000Y-137600000D02*
X65190000Y-137600000D01*
X64555000Y-142680000D02*
X63285000Y-142680000D01*
X65825000Y-141410000D02*
X64555000Y-142680000D01*
X65825000Y-138235000D02*
X65825000Y-141410000D01*
X65190000Y-137600000D02*
X65825000Y-138235000D01*
X64555000Y-147760000D02*
X66460000Y-147760000D01*
D29*
X91606000Y-140140000D02*
X91606000Y-143188000D01*
X93384000Y-125154000D02*
X97448000Y-121090000D01*
X97448000Y-121090000D02*
X97448000Y-113978000D01*
X97448000Y-113978000D02*
X97448000Y-112962000D01*
X97448000Y-112962000D02*
X96686000Y-112200000D01*
X96686000Y-112200000D02*
X96432000Y-112200000D01*
X93384000Y-125154000D02*
X92114000Y-126424000D01*
X92114000Y-126424000D02*
X92114000Y-139632000D01*
X92114000Y-139632000D02*
X91606000Y-140140000D01*
X75350000Y-123122000D02*
X77636000Y-120836000D01*
X77636000Y-120836000D02*
X77636000Y-116772000D01*
X77636000Y-116772000D02*
X84240000Y-110168000D01*
X84240000Y-110168000D02*
X96432000Y-110168000D01*
D30*
X109005000Y-132520000D02*
X109005000Y-128075000D01*
X109005000Y-128075000D02*
X110275000Y-126805000D01*
X109005000Y-132520000D02*
X109005000Y-136965000D01*
X109640000Y-142680000D02*
X107100000Y-145220000D01*
X109640000Y-137600000D02*
X109640000Y-142680000D01*
X109005000Y-136965000D02*
X109640000Y-137600000D01*
D26*
X64809000Y-116010000D02*
X68619000Y-116010000D01*
X69635000Y-114994000D02*
X75350000Y-114994000D01*
X68619000Y-116010000D02*
X69635000Y-114994000D01*
X64809000Y-112200000D02*
X67349000Y-112200000D01*
X74080000Y-111184000D02*
X74715000Y-111819000D01*
X68365000Y-111184000D02*
X74080000Y-111184000D01*
X67349000Y-112200000D02*
X68365000Y-111184000D01*
D29*
X91860000Y-154364000D02*
X91225000Y-154999000D01*
X91860000Y-145220000D02*
X91860000Y-154364000D01*
X90844000Y-144204000D02*
X91860000Y-145220000D01*
X90336000Y-144204000D02*
X90844000Y-144204000D01*
X89828000Y-143696000D02*
X90336000Y-144204000D01*
X89828000Y-139124000D02*
X89828000Y-143696000D01*
X90844000Y-138108000D02*
X89828000Y-139124000D01*
X90844000Y-118804000D02*
X90844000Y-138108000D01*
X90336000Y-118296000D02*
X90844000Y-118804000D01*
X101385000Y-118550000D02*
X99734000Y-118550000D01*
X95670000Y-152078000D02*
X95670000Y-154999000D01*
X98464000Y-149284000D02*
X95670000Y-152078000D01*
X98464000Y-127440000D02*
X98464000Y-149284000D01*
X98972000Y-126932000D02*
X98464000Y-127440000D01*
X98972000Y-119312000D02*
X98972000Y-126932000D01*
X99734000Y-118550000D02*
X98972000Y-119312000D01*
D28*
X99480000Y-154999000D02*
X99480000Y-157412000D01*
X74334000Y-126170000D02*
X72175000Y-126170000D01*
X75604000Y-127440000D02*
X74334000Y-126170000D01*
X75604000Y-148268000D02*
X75604000Y-127440000D01*
X77128000Y-149792000D02*
X75604000Y-148268000D01*
X77128000Y-156904000D02*
X77128000Y-149792000D01*
X77636000Y-157412000D02*
X77128000Y-156904000D01*
X78652000Y-157412000D02*
X77636000Y-157412000D01*
X99480000Y-157412000D02*
X78652000Y-157412000D01*
X67349000Y-122868000D02*
X63920000Y-122868000D01*
X66968000Y-110168000D02*
X69000000Y-108136000D01*
X63412000Y-110168000D02*
X66968000Y-110168000D01*
X62396000Y-111184000D02*
X63412000Y-110168000D01*
X62396000Y-121344000D02*
X62396000Y-111184000D01*
X63920000Y-122868000D02*
X62396000Y-121344000D01*
D29*
X72175000Y-123630000D02*
X72302000Y-123630000D01*
X76620000Y-117280000D02*
X75604000Y-116264000D01*
X76620000Y-119312000D02*
X76620000Y-117280000D01*
X72302000Y-123630000D02*
X76620000Y-119312000D01*
D31*
G36*
X113118633Y-104342385D02*
X112323385Y-105137633D01*
X111893000Y-106176675D01*
X111893000Y-107301325D01*
X112323385Y-108340367D01*
X113118633Y-109135615D01*
X114157675Y-109566000D01*
X115282325Y-109566000D01*
X116321367Y-109135615D01*
X117116615Y-108340367D01*
X117213000Y-108107673D01*
X117213000Y-154265327D01*
X117116615Y-154032633D01*
X116321367Y-153237385D01*
X115282325Y-152807000D01*
X114157675Y-152807000D01*
X113118633Y-153237385D01*
X112323385Y-154032633D01*
X111893000Y-155071675D01*
X111893000Y-156196325D01*
X112323385Y-157235367D01*
X113118633Y-158030615D01*
X113906597Y-158357000D01*
X64733403Y-158357000D01*
X65521367Y-158030615D01*
X66316615Y-157235367D01*
X66747000Y-156196325D01*
X66747000Y-155111000D01*
X70313000Y-155111000D01*
X70313000Y-155461000D01*
X70439777Y-155844349D01*
X70703605Y-156150001D01*
X71055139Y-156320703D01*
X71213000Y-156321114D01*
X71213000Y-155111000D01*
X71467000Y-155111000D01*
X71467000Y-156321114D01*
X71624861Y-156320703D01*
X71976395Y-156150001D01*
X72240223Y-155844349D01*
X72367000Y-155461000D01*
X72367000Y-155111000D01*
X71467000Y-155111000D01*
X71213000Y-155111000D01*
X70313000Y-155111000D01*
X66747000Y-155111000D01*
X66747000Y-155071675D01*
X66513105Y-154507000D01*
X70313000Y-154507000D01*
X70313000Y-154857000D01*
X71213000Y-154857000D01*
X71467000Y-154857000D01*
X72367000Y-154857000D01*
X72367000Y-154513153D01*
X73613000Y-154513153D01*
X73613000Y-155454846D01*
X73684192Y-155812751D01*
X73955383Y-156218617D01*
X74361248Y-156489808D01*
X74840000Y-156585038D01*
X75318751Y-156489808D01*
X75724617Y-156218617D01*
X75995808Y-155812752D01*
X76067000Y-155454847D01*
X76067000Y-154513154D01*
X75995808Y-154155248D01*
X75724617Y-153749383D01*
X75318752Y-153478192D01*
X74840000Y-153382962D01*
X74361249Y-153478192D01*
X73955384Y-153749383D01*
X73684192Y-154155248D01*
X73613000Y-154513153D01*
X72367000Y-154513153D01*
X72367000Y-154507000D01*
X72240223Y-154123651D01*
X71976395Y-153817999D01*
X71624861Y-153647297D01*
X71467000Y-153646886D01*
X71467000Y-154857000D01*
X71213000Y-154857000D01*
X71213000Y-153646886D01*
X71055139Y-153647297D01*
X70703605Y-153817999D01*
X70439777Y-154123651D01*
X70313000Y-154507000D01*
X66513105Y-154507000D01*
X66316615Y-154032633D01*
X65521367Y-153237385D01*
X64482325Y-152807000D01*
X63357675Y-152807000D01*
X62318633Y-153237385D01*
X61523385Y-154032633D01*
X61467000Y-154168759D01*
X61467000Y-147760000D01*
X63711799Y-147760000D01*
X63775984Y-148082679D01*
X63958767Y-148356233D01*
X64232321Y-148539016D01*
X64473552Y-148587000D01*
X65047094Y-148587000D01*
X65047094Y-148839500D01*
X65072473Y-148967089D01*
X65144746Y-149075254D01*
X65252911Y-149147527D01*
X65380500Y-149172906D01*
X67539500Y-149172906D01*
X67641880Y-149152541D01*
X67729411Y-149211027D01*
X67857000Y-149236406D01*
X70143000Y-149236406D01*
X70270589Y-149211027D01*
X70378754Y-149138754D01*
X70451027Y-149030589D01*
X70476406Y-148903000D01*
X70476406Y-146617000D01*
X70451027Y-146489411D01*
X70378754Y-146381246D01*
X70270589Y-146308973D01*
X70143000Y-146283594D01*
X67857000Y-146283594D01*
X67729411Y-146308973D01*
X67641880Y-146367459D01*
X67539500Y-146347094D01*
X65380500Y-146347094D01*
X65252911Y-146372473D01*
X65144746Y-146444746D01*
X65072473Y-146552911D01*
X65047094Y-146680500D01*
X65047094Y-146933000D01*
X64473552Y-146933000D01*
X64232321Y-146980984D01*
X63958767Y-147163767D01*
X63775984Y-147437321D01*
X63711799Y-147760000D01*
X61467000Y-147760000D01*
X61467000Y-140140000D01*
X61735921Y-140140000D01*
X61823389Y-140579733D01*
X62072478Y-140952522D01*
X62445267Y-141201611D01*
X62774001Y-141267000D01*
X63795999Y-141267000D01*
X64124733Y-141201611D01*
X64497522Y-140952522D01*
X64746611Y-140579733D01*
X64834079Y-140140000D01*
X64746611Y-139700267D01*
X64497522Y-139327478D01*
X64124733Y-139078389D01*
X63795999Y-139013000D01*
X62774001Y-139013000D01*
X62445267Y-139078389D01*
X62072478Y-139327478D01*
X61823389Y-139700267D01*
X61735921Y-140140000D01*
X61467000Y-140140000D01*
X61467000Y-137600000D01*
X61735921Y-137600000D01*
X61823389Y-138039733D01*
X62072478Y-138412522D01*
X62445267Y-138661611D01*
X62774001Y-138727000D01*
X63795999Y-138727000D01*
X64124733Y-138661611D01*
X64475854Y-138427000D01*
X64847446Y-138427000D01*
X64998000Y-138577554D01*
X64998001Y-141067445D01*
X64317953Y-141747494D01*
X64124733Y-141618389D01*
X63795999Y-141553000D01*
X62774001Y-141553000D01*
X62445267Y-141618389D01*
X62072478Y-141867478D01*
X61823389Y-142240267D01*
X61735921Y-142680000D01*
X61823389Y-143119733D01*
X62072478Y-143492522D01*
X62445267Y-143741611D01*
X62774001Y-143807000D01*
X63795999Y-143807000D01*
X64124733Y-143741611D01*
X64475327Y-143507352D01*
X64555000Y-143523200D01*
X64636444Y-143507000D01*
X64636448Y-143507000D01*
X64877679Y-143459016D01*
X65151233Y-143276233D01*
X65197372Y-143207181D01*
X66352186Y-142052369D01*
X66421233Y-142006233D01*
X66505579Y-141880000D01*
X69371594Y-141880000D01*
X69371594Y-143480000D01*
X69396973Y-143607589D01*
X69469246Y-143715754D01*
X69577411Y-143788027D01*
X69705000Y-143813406D01*
X72105000Y-143813406D01*
X72232589Y-143788027D01*
X72340754Y-143715754D01*
X72413027Y-143607589D01*
X72438406Y-143480000D01*
X72438406Y-141880000D01*
X72413027Y-141752411D01*
X72340754Y-141644246D01*
X72232589Y-141571973D01*
X72105000Y-141546594D01*
X69705000Y-141546594D01*
X69577411Y-141571973D01*
X69469246Y-141644246D01*
X69396973Y-141752411D01*
X69371594Y-141880000D01*
X66505579Y-141880000D01*
X66604016Y-141732679D01*
X66652000Y-141491448D01*
X66652000Y-141491444D01*
X66668200Y-141410001D01*
X66652000Y-141328558D01*
X66652000Y-140409084D01*
X69617913Y-140409084D01*
X69759709Y-140705686D01*
X70032920Y-140947836D01*
X70378000Y-141067000D01*
X70778000Y-141067000D01*
X70778000Y-140267000D01*
X71032000Y-140267000D01*
X71032000Y-141067000D01*
X71432000Y-141067000D01*
X71777080Y-140947836D01*
X72050291Y-140705686D01*
X72192087Y-140409084D01*
X72191196Y-140267000D01*
X71032000Y-140267000D01*
X70778000Y-140267000D01*
X69618804Y-140267000D01*
X69617913Y-140409084D01*
X66652000Y-140409084D01*
X66652000Y-139870916D01*
X69617913Y-139870916D01*
X69618804Y-140013000D01*
X70778000Y-140013000D01*
X70778000Y-139213000D01*
X71032000Y-139213000D01*
X71032000Y-140013000D01*
X72191196Y-140013000D01*
X72192087Y-139870916D01*
X72050291Y-139574314D01*
X71777080Y-139332164D01*
X71432000Y-139213000D01*
X71032000Y-139213000D01*
X70778000Y-139213000D01*
X70378000Y-139213000D01*
X70032920Y-139332164D01*
X69759709Y-139574314D01*
X69617913Y-139870916D01*
X66652000Y-139870916D01*
X66652000Y-138316448D01*
X66668201Y-138235000D01*
X66604016Y-137912321D01*
X66467370Y-137707815D01*
X66467368Y-137707813D01*
X66421233Y-137638767D01*
X66363214Y-137600000D01*
X69355921Y-137600000D01*
X69443389Y-138039733D01*
X69692478Y-138412522D01*
X70065267Y-138661611D01*
X70394001Y-138727000D01*
X71415999Y-138727000D01*
X71744733Y-138661611D01*
X72117522Y-138412522D01*
X72366611Y-138039733D01*
X72454079Y-137600000D01*
X72366611Y-137160267D01*
X72117522Y-136787478D01*
X71744733Y-136538389D01*
X71415999Y-136473000D01*
X70394001Y-136473000D01*
X70065267Y-136538389D01*
X69692478Y-136787478D01*
X69443389Y-137160267D01*
X69355921Y-137600000D01*
X66363214Y-137600000D01*
X66352186Y-137592632D01*
X65832372Y-137072818D01*
X65786233Y-137003767D01*
X65512679Y-136820984D01*
X65271448Y-136773000D01*
X65271444Y-136773000D01*
X65190000Y-136756800D01*
X65108556Y-136773000D01*
X64475854Y-136773000D01*
X64124733Y-136538389D01*
X63795999Y-136473000D01*
X62774001Y-136473000D01*
X62445267Y-136538389D01*
X62072478Y-136787478D01*
X61823389Y-137160267D01*
X61735921Y-137600000D01*
X61467000Y-137600000D01*
X61467000Y-133313750D01*
X61623000Y-133313750D01*
X61623000Y-134080262D01*
X61642335Y-134126940D01*
X61678060Y-134162665D01*
X61724738Y-134182000D01*
X62491250Y-134182000D01*
X62523000Y-134150250D01*
X62523000Y-133282000D01*
X62777000Y-133282000D01*
X62777000Y-134150250D01*
X62808750Y-134182000D01*
X63575262Y-134182000D01*
X63621940Y-134162665D01*
X63657665Y-134126940D01*
X63677000Y-134080262D01*
X63677000Y-133313750D01*
X63645250Y-133282000D01*
X62777000Y-133282000D01*
X62523000Y-133282000D01*
X61654750Y-133282000D01*
X61623000Y-133313750D01*
X61467000Y-133313750D01*
X61467000Y-132229738D01*
X61623000Y-132229738D01*
X61623000Y-132996250D01*
X61654750Y-133028000D01*
X62523000Y-133028000D01*
X62523000Y-132159750D01*
X62777000Y-132159750D01*
X62777000Y-133028000D01*
X63645250Y-133028000D01*
X63677000Y-132996250D01*
X63677000Y-132910935D01*
X63963000Y-132910935D01*
X63963000Y-133399065D01*
X64149800Y-133850039D01*
X64494961Y-134195200D01*
X64945935Y-134382000D01*
X65434065Y-134382000D01*
X65885039Y-134195200D01*
X66230200Y-133850039D01*
X66417000Y-133399065D01*
X66417000Y-132910935D01*
X66230200Y-132459961D01*
X65885039Y-132114800D01*
X65434065Y-131928000D01*
X64945935Y-131928000D01*
X64494961Y-132114800D01*
X64149800Y-132459961D01*
X63963000Y-132910935D01*
X63677000Y-132910935D01*
X63677000Y-132229738D01*
X63657665Y-132183060D01*
X63621940Y-132147335D01*
X63575262Y-132128000D01*
X62808750Y-132128000D01*
X62777000Y-132159750D01*
X62523000Y-132159750D01*
X62491250Y-132128000D01*
X61724738Y-132128000D01*
X61678060Y-132147335D01*
X61642335Y-132183060D01*
X61623000Y-132229738D01*
X61467000Y-132229738D01*
X61467000Y-129347282D01*
X68881000Y-129347282D01*
X68881000Y-129596718D01*
X68976455Y-129827167D01*
X69152833Y-130003545D01*
X69383282Y-130099000D01*
X69632718Y-130099000D01*
X69863167Y-130003545D01*
X70039545Y-129827167D01*
X70135000Y-129596718D01*
X70135000Y-129347282D01*
X70039545Y-129116833D01*
X69985000Y-129062288D01*
X69985000Y-127860000D01*
X70991594Y-127860000D01*
X70991594Y-129560000D01*
X71016973Y-129687589D01*
X71089246Y-129795754D01*
X71197411Y-129868027D01*
X71325000Y-129893406D01*
X73025000Y-129893406D01*
X73152589Y-129868027D01*
X73260754Y-129795754D01*
X73333027Y-129687589D01*
X73358406Y-129560000D01*
X73358406Y-127860000D01*
X73333027Y-127732411D01*
X73260754Y-127624246D01*
X73152589Y-127551973D01*
X73025000Y-127526594D01*
X71325000Y-127526594D01*
X71197411Y-127551973D01*
X71089246Y-127624246D01*
X71016973Y-127732411D01*
X70991594Y-127860000D01*
X69985000Y-127860000D01*
X69985000Y-126170000D01*
X70974942Y-126170000D01*
X71066291Y-126629242D01*
X71326431Y-127018569D01*
X71715758Y-127278709D01*
X72059080Y-127347000D01*
X72290920Y-127347000D01*
X72634242Y-127278709D01*
X73023569Y-127018569D01*
X73283709Y-126629242D01*
X73285150Y-126622000D01*
X74146776Y-126622000D01*
X75152001Y-127627226D01*
X75152000Y-148223482D01*
X75143145Y-148268000D01*
X75166815Y-148387000D01*
X75178225Y-148444361D01*
X75278126Y-148593874D01*
X75315869Y-148619093D01*
X76676001Y-149979225D01*
X76676000Y-156859482D01*
X76667145Y-156904000D01*
X76676000Y-156948517D01*
X76702225Y-157080361D01*
X76802126Y-157229874D01*
X76839869Y-157255093D01*
X77284907Y-157700131D01*
X77310126Y-157737874D01*
X77459638Y-157837775D01*
X77591482Y-157864000D01*
X77591483Y-157864000D01*
X77635999Y-157872855D01*
X77680516Y-157864000D01*
X99435482Y-157864000D01*
X99480000Y-157872855D01*
X99656362Y-157837775D01*
X99805874Y-157737874D01*
X99905775Y-157588362D01*
X99932000Y-157456518D01*
X99940855Y-157412000D01*
X99932000Y-157367482D01*
X99932000Y-155908247D01*
X99995808Y-155812752D01*
X100067000Y-155454847D01*
X100067000Y-154999000D01*
X105113000Y-154999000D01*
X105113000Y-155349000D01*
X105239777Y-155732349D01*
X105503605Y-156038001D01*
X105855139Y-156208703D01*
X106013000Y-156209114D01*
X106013000Y-154999000D01*
X106267000Y-154999000D01*
X106267000Y-156209114D01*
X106424861Y-156208703D01*
X106776395Y-156038001D01*
X107040223Y-155732349D01*
X107167000Y-155349000D01*
X107167000Y-154999000D01*
X108613000Y-154999000D01*
X108613000Y-155349000D01*
X108739777Y-155732349D01*
X109003605Y-156038001D01*
X109355139Y-156208703D01*
X109513000Y-156209114D01*
X109513000Y-154999000D01*
X109767000Y-154999000D01*
X109767000Y-156209114D01*
X109924861Y-156208703D01*
X110276395Y-156038001D01*
X110540223Y-155732349D01*
X110667000Y-155349000D01*
X110667000Y-154999000D01*
X109767000Y-154999000D01*
X109513000Y-154999000D01*
X108613000Y-154999000D01*
X107167000Y-154999000D01*
X106267000Y-154999000D01*
X106013000Y-154999000D01*
X105113000Y-154999000D01*
X100067000Y-154999000D01*
X100067000Y-154513154D01*
X100043498Y-154395000D01*
X105113000Y-154395000D01*
X105113000Y-154745000D01*
X106013000Y-154745000D01*
X106267000Y-154745000D01*
X107167000Y-154745000D01*
X107167000Y-154395000D01*
X108613000Y-154395000D01*
X108613000Y-154745000D01*
X109513000Y-154745000D01*
X109767000Y-154745000D01*
X110667000Y-154745000D01*
X110667000Y-154395000D01*
X110540223Y-154011651D01*
X110276395Y-153705999D01*
X109924861Y-153535297D01*
X109767000Y-153534886D01*
X109767000Y-154745000D01*
X109513000Y-154745000D01*
X109513000Y-153534886D01*
X109355139Y-153535297D01*
X109003605Y-153705999D01*
X108739777Y-154011651D01*
X108613000Y-154395000D01*
X107167000Y-154395000D01*
X107040223Y-154011651D01*
X106776395Y-153705999D01*
X106424861Y-153535297D01*
X106267000Y-153534886D01*
X106267000Y-154745000D01*
X106013000Y-154745000D01*
X106013000Y-153534886D01*
X105855139Y-153535297D01*
X105503605Y-153705999D01*
X105239777Y-154011651D01*
X105113000Y-154395000D01*
X100043498Y-154395000D01*
X99995808Y-154155248D01*
X99724617Y-153749383D01*
X99318752Y-153478192D01*
X98840000Y-153382962D01*
X98361249Y-153478192D01*
X97955384Y-153749383D01*
X97684192Y-154155248D01*
X97613000Y-154513153D01*
X97613000Y-155454846D01*
X97684192Y-155812751D01*
X97955383Y-156218617D01*
X98361248Y-156489808D01*
X98840000Y-156585038D01*
X99028001Y-156547642D01*
X99028001Y-156960000D01*
X77823224Y-156960000D01*
X77580000Y-156716776D01*
X77580000Y-154513153D01*
X80113000Y-154513153D01*
X80113000Y-155454846D01*
X80184192Y-155812751D01*
X80455383Y-156218617D01*
X80861248Y-156489808D01*
X81340000Y-156585038D01*
X81818751Y-156489808D01*
X82224617Y-156218617D01*
X82495808Y-155812752D01*
X82567000Y-155454847D01*
X82567000Y-154513154D01*
X82495808Y-154155248D01*
X82224617Y-153749383D01*
X81818752Y-153478192D01*
X81340000Y-153382962D01*
X80861249Y-153478192D01*
X80455384Y-153749383D01*
X80184192Y-154155248D01*
X80113000Y-154513153D01*
X77580000Y-154513153D01*
X77580000Y-149836516D01*
X77588855Y-149791999D01*
X77580000Y-149747482D01*
X77553775Y-149615638D01*
X77453874Y-149466126D01*
X77416131Y-149440907D01*
X76056000Y-148080776D01*
X76056000Y-143359282D01*
X76713000Y-143359282D01*
X76713000Y-143608718D01*
X76808455Y-143839167D01*
X76863000Y-143893712D01*
X76863001Y-146937024D01*
X76853657Y-146984000D01*
X76890677Y-147170115D01*
X76955062Y-147266473D01*
X76996104Y-147327897D01*
X77035927Y-147354506D01*
X77863000Y-148181580D01*
X77863001Y-149574287D01*
X77808455Y-149628833D01*
X77713000Y-149859282D01*
X77713000Y-150108718D01*
X77808455Y-150339167D01*
X77984833Y-150515545D01*
X78215282Y-150611000D01*
X78464718Y-150611000D01*
X78695167Y-150515545D01*
X78871545Y-150339167D01*
X78967000Y-150108718D01*
X78967000Y-149859282D01*
X82713000Y-149859282D01*
X82713000Y-150108718D01*
X82808455Y-150339167D01*
X82984833Y-150515545D01*
X83215282Y-150611000D01*
X83292421Y-150611000D01*
X84363000Y-151681580D01*
X84363001Y-153477844D01*
X84361249Y-153478192D01*
X83955384Y-153749383D01*
X83684192Y-154155248D01*
X83613000Y-154513153D01*
X83613000Y-155454846D01*
X83684192Y-155812751D01*
X83955383Y-156218617D01*
X84361248Y-156489808D01*
X84840000Y-156585038D01*
X85318751Y-156489808D01*
X85724617Y-156218617D01*
X85995808Y-155812752D01*
X86067000Y-155454847D01*
X86067000Y-154513154D01*
X86067000Y-154513153D01*
X87113000Y-154513153D01*
X87113000Y-155454846D01*
X87184192Y-155812751D01*
X87455383Y-156218617D01*
X87861248Y-156489808D01*
X88340000Y-156585038D01*
X88818751Y-156489808D01*
X89224617Y-156218617D01*
X89495808Y-155812752D01*
X89567000Y-155454847D01*
X89567000Y-154513154D01*
X89495808Y-154155248D01*
X89224617Y-153749383D01*
X88818752Y-153478192D01*
X88817000Y-153477844D01*
X88817000Y-151681579D01*
X89887580Y-150611000D01*
X89964718Y-150611000D01*
X90195167Y-150515545D01*
X90371545Y-150339167D01*
X90467000Y-150108718D01*
X90467000Y-149859282D01*
X90371545Y-149628833D01*
X90195167Y-149452455D01*
X89964718Y-149357000D01*
X89715282Y-149357000D01*
X89484833Y-149452455D01*
X89308455Y-149628833D01*
X89213000Y-149859282D01*
X89213000Y-149936420D01*
X88035929Y-151113492D01*
X87996103Y-151140103D01*
X87890677Y-151297885D01*
X87863000Y-151437026D01*
X87863000Y-151437029D01*
X87853657Y-151484000D01*
X87863000Y-151530971D01*
X87863001Y-153477844D01*
X87861249Y-153478192D01*
X87455384Y-153749383D01*
X87184192Y-154155248D01*
X87113000Y-154513153D01*
X86067000Y-154513153D01*
X85995808Y-154155248D01*
X85724617Y-153749383D01*
X85318752Y-153478192D01*
X85317000Y-153477844D01*
X85317000Y-151530969D01*
X85326343Y-151483999D01*
X85317000Y-151437029D01*
X85317000Y-151437025D01*
X85289323Y-151297884D01*
X85183897Y-151140103D01*
X85144075Y-151113495D01*
X83967000Y-149936421D01*
X83967000Y-149859282D01*
X83871545Y-149628833D01*
X83695167Y-149452455D01*
X83464718Y-149357000D01*
X83215282Y-149357000D01*
X82984833Y-149452455D01*
X82808455Y-149628833D01*
X82713000Y-149859282D01*
X78967000Y-149859282D01*
X78871545Y-149628833D01*
X78817000Y-149574288D01*
X78817000Y-148030975D01*
X78826344Y-147984000D01*
X78789323Y-147797884D01*
X78710506Y-147679926D01*
X78683897Y-147640103D01*
X78644075Y-147613495D01*
X77817000Y-146786421D01*
X77817000Y-143893712D01*
X77871545Y-143839167D01*
X77967000Y-143608718D01*
X77967000Y-143359282D01*
X77871545Y-143128833D01*
X77695167Y-142952455D01*
X77464718Y-142857000D01*
X77215282Y-142857000D01*
X76984833Y-142952455D01*
X76808455Y-143128833D01*
X76713000Y-143359282D01*
X76056000Y-143359282D01*
X76056000Y-128075000D01*
X77324942Y-128075000D01*
X77416291Y-128534242D01*
X77676431Y-128923569D01*
X78065758Y-129183709D01*
X78409080Y-129252000D01*
X78640920Y-129252000D01*
X78984242Y-129183709D01*
X79373569Y-128923569D01*
X79633709Y-128534242D01*
X79725058Y-128075000D01*
X79864942Y-128075000D01*
X79956291Y-128534242D01*
X80216431Y-128923569D01*
X80605758Y-129183709D01*
X80613000Y-129185150D01*
X80613001Y-143524477D01*
X80604145Y-143569000D01*
X80639225Y-143745361D01*
X80713909Y-143857133D01*
X80739127Y-143894874D01*
X80776867Y-143920091D01*
X82597000Y-145740225D01*
X82597000Y-145852718D01*
X82692455Y-146083167D01*
X82868833Y-146259545D01*
X83099282Y-146355000D01*
X83348718Y-146355000D01*
X83579167Y-146259545D01*
X83658712Y-146180000D01*
X90409288Y-146180000D01*
X90488833Y-146259545D01*
X90719282Y-146355000D01*
X90968718Y-146355000D01*
X91199167Y-146259545D01*
X91375545Y-146083167D01*
X91383000Y-146065169D01*
X91383001Y-153473865D01*
X91361249Y-153478192D01*
X90955384Y-153749383D01*
X90684192Y-154155248D01*
X90613000Y-154513153D01*
X90613000Y-155454846D01*
X90684192Y-155812751D01*
X90955383Y-156218617D01*
X91361248Y-156489808D01*
X91840000Y-156585038D01*
X92318751Y-156489808D01*
X92724617Y-156218617D01*
X92995808Y-155812752D01*
X93067000Y-155454847D01*
X93067000Y-154513154D01*
X93067000Y-154513153D01*
X94113000Y-154513153D01*
X94113000Y-155454846D01*
X94184192Y-155812751D01*
X94455383Y-156218617D01*
X94861248Y-156489808D01*
X95340000Y-156585038D01*
X95818751Y-156489808D01*
X96224617Y-156218617D01*
X96495808Y-155812752D01*
X96567000Y-155454847D01*
X96567000Y-154513154D01*
X96495808Y-154155248D01*
X96224617Y-153749383D01*
X96147000Y-153697521D01*
X96147000Y-152275579D01*
X98768074Y-149654506D01*
X98807897Y-149627897D01*
X98913323Y-149470116D01*
X98941000Y-149330975D01*
X98950344Y-149284000D01*
X98941000Y-149237025D01*
X98941000Y-149188750D01*
X107100000Y-149188750D01*
X107100000Y-150198262D01*
X107119335Y-150244940D01*
X107155060Y-150280665D01*
X107201738Y-150300000D01*
X108211250Y-150300000D01*
X108243000Y-150268250D01*
X108243000Y-149157000D01*
X107131750Y-149157000D01*
X107100000Y-149188750D01*
X98941000Y-149188750D01*
X98941000Y-147861738D01*
X107100000Y-147861738D01*
X107100000Y-148871250D01*
X107131750Y-148903000D01*
X108243000Y-148903000D01*
X108243000Y-147791750D01*
X108497000Y-147791750D01*
X108497000Y-148903000D01*
X108517000Y-148903000D01*
X108517000Y-149157000D01*
X108497000Y-149157000D01*
X108497000Y-150268250D01*
X108528750Y-150300000D01*
X109538262Y-150300000D01*
X109558819Y-150291485D01*
X109594746Y-150345254D01*
X109702911Y-150417527D01*
X109830500Y-150442906D01*
X111989500Y-150442906D01*
X112117089Y-150417527D01*
X112225254Y-150345254D01*
X112297527Y-150237089D01*
X112322906Y-150109500D01*
X112322906Y-147950500D01*
X112297527Y-147822911D01*
X112225254Y-147714746D01*
X112117089Y-147642473D01*
X111989500Y-147617094D01*
X111987000Y-147617094D01*
X111987000Y-146936107D01*
X112392349Y-146530758D01*
X112697770Y-146470006D01*
X113136713Y-146176713D01*
X113430006Y-145737770D01*
X113490758Y-145432349D01*
X116041551Y-142881557D01*
X116131473Y-142821473D01*
X116369511Y-142465224D01*
X116432000Y-142151072D01*
X116432000Y-142151067D01*
X116453098Y-142045001D01*
X116432000Y-141938934D01*
X116432000Y-122466066D01*
X116453098Y-122359999D01*
X116432000Y-122253933D01*
X116432000Y-122253928D01*
X116369511Y-121939776D01*
X116131473Y-121583527D01*
X116041551Y-121523444D01*
X113016559Y-118498452D01*
X112956473Y-118408527D01*
X112600224Y-118170489D01*
X112578856Y-118166239D01*
X112373752Y-118029192D01*
X112015847Y-117958000D01*
X111074153Y-117958000D01*
X110716248Y-118029192D01*
X110310383Y-118300383D01*
X110039192Y-118706248D01*
X109943962Y-119185000D01*
X110039192Y-119663752D01*
X110310383Y-120069617D01*
X110716248Y-120340808D01*
X111074153Y-120412000D01*
X111883893Y-120412000D01*
X114278000Y-122806108D01*
X114278001Y-141598891D01*
X111967651Y-143909242D01*
X111662230Y-143969994D01*
X111223287Y-144263287D01*
X110929994Y-144702230D01*
X110869242Y-145007650D01*
X110223452Y-145653441D01*
X110133527Y-145713527D01*
X109895489Y-146069777D01*
X109833000Y-146383929D01*
X109833000Y-146383934D01*
X109811902Y-146490000D01*
X109833000Y-146596067D01*
X109833000Y-147617094D01*
X109830500Y-147617094D01*
X109702911Y-147642473D01*
X109594746Y-147714746D01*
X109558819Y-147768515D01*
X109538262Y-147760000D01*
X108528750Y-147760000D01*
X108497000Y-147791750D01*
X108243000Y-147791750D01*
X108211250Y-147760000D01*
X107201738Y-147760000D01*
X107155060Y-147779335D01*
X107119335Y-147815060D01*
X107100000Y-147861738D01*
X98941000Y-147861738D01*
X98941000Y-143554753D01*
X99974852Y-143554753D01*
X100101472Y-143678578D01*
X100526888Y-143820131D01*
X100974091Y-143788111D01*
X101238528Y-143678578D01*
X101365148Y-143554753D01*
X100670000Y-142859605D01*
X99974852Y-143554753D01*
X98941000Y-143554753D01*
X98941000Y-142536888D01*
X99529869Y-142536888D01*
X99561889Y-142984091D01*
X99671422Y-143248528D01*
X99795247Y-143375148D01*
X100490395Y-142680000D01*
X100849605Y-142680000D01*
X101544753Y-143375148D01*
X101668578Y-143248528D01*
X101810131Y-142823112D01*
X101778111Y-142375909D01*
X101668578Y-142111472D01*
X101544753Y-141984852D01*
X100849605Y-142680000D01*
X100490395Y-142680000D01*
X99795247Y-141984852D01*
X99671422Y-142111472D01*
X99529869Y-142536888D01*
X98941000Y-142536888D01*
X98941000Y-141805247D01*
X99974852Y-141805247D01*
X100670000Y-142500395D01*
X101365148Y-141805247D01*
X101238528Y-141681422D01*
X100813112Y-141539869D01*
X100365909Y-141571889D01*
X100101472Y-141681422D01*
X99974852Y-141805247D01*
X98941000Y-141805247D01*
X98941000Y-140298750D01*
X105973000Y-140298750D01*
X105973000Y-141165262D01*
X105992335Y-141211940D01*
X106028060Y-141247665D01*
X106074738Y-141267000D01*
X106941250Y-141267000D01*
X106973000Y-141235250D01*
X106973000Y-140267000D01*
X107227000Y-140267000D01*
X107227000Y-141235250D01*
X107258750Y-141267000D01*
X108125262Y-141267000D01*
X108171940Y-141247665D01*
X108207665Y-141211940D01*
X108227000Y-141165262D01*
X108227000Y-140298750D01*
X108195250Y-140267000D01*
X107227000Y-140267000D01*
X106973000Y-140267000D01*
X106004750Y-140267000D01*
X105973000Y-140298750D01*
X98941000Y-140298750D01*
X98941000Y-139114738D01*
X105973000Y-139114738D01*
X105973000Y-139981250D01*
X106004750Y-140013000D01*
X106973000Y-140013000D01*
X106973000Y-139044750D01*
X107227000Y-139044750D01*
X107227000Y-140013000D01*
X108195250Y-140013000D01*
X108227000Y-139981250D01*
X108227000Y-139114738D01*
X108207665Y-139068060D01*
X108171940Y-139032335D01*
X108125262Y-139013000D01*
X107258750Y-139013000D01*
X107227000Y-139044750D01*
X106973000Y-139044750D01*
X106941250Y-139013000D01*
X106074738Y-139013000D01*
X106028060Y-139032335D01*
X105992335Y-139068060D01*
X105973000Y-139114738D01*
X98941000Y-139114738D01*
X98941000Y-132124753D01*
X99974852Y-132124753D01*
X100101472Y-132248578D01*
X100526888Y-132390131D01*
X100974091Y-132358111D01*
X101238528Y-132248578D01*
X101365148Y-132124753D01*
X100670000Y-131429605D01*
X99974852Y-132124753D01*
X98941000Y-132124753D01*
X98941000Y-131106888D01*
X99529869Y-131106888D01*
X99561889Y-131554091D01*
X99671422Y-131818528D01*
X99795247Y-131945148D01*
X100490395Y-131250000D01*
X100849605Y-131250000D01*
X101544753Y-131945148D01*
X101668578Y-131818528D01*
X101810131Y-131393112D01*
X101808978Y-131377000D01*
X104988594Y-131377000D01*
X104988594Y-133663000D01*
X105013973Y-133790589D01*
X105086246Y-133898754D01*
X105194411Y-133971027D01*
X105322000Y-133996406D01*
X107608000Y-133996406D01*
X107735589Y-133971027D01*
X107823120Y-133912541D01*
X107925500Y-133932906D01*
X107928000Y-133932906D01*
X107928001Y-136858929D01*
X107906902Y-136965000D01*
X107928001Y-137071072D01*
X107949624Y-137179776D01*
X107990490Y-137385224D01*
X108168442Y-137651549D01*
X108168444Y-137651551D01*
X108228528Y-137741473D01*
X108318450Y-137801557D01*
X108563000Y-138046107D01*
X108563001Y-142233891D01*
X106887651Y-143909242D01*
X106582230Y-143969994D01*
X106143287Y-144263287D01*
X105849994Y-144702230D01*
X105747003Y-145220000D01*
X105849994Y-145737770D01*
X106143287Y-146176713D01*
X106582230Y-146470006D01*
X106969304Y-146547000D01*
X107230696Y-146547000D01*
X107617770Y-146470006D01*
X108056713Y-146176713D01*
X108350006Y-145737770D01*
X108410758Y-145432349D01*
X110326551Y-143516557D01*
X110416473Y-143456473D01*
X110654511Y-143100224D01*
X110717000Y-142786072D01*
X110717000Y-142786067D01*
X110738098Y-142680001D01*
X110717000Y-142573934D01*
X110717000Y-140140000D01*
X110827003Y-140140000D01*
X110929994Y-140657770D01*
X111223287Y-141096713D01*
X111662230Y-141390006D01*
X112049304Y-141467000D01*
X112310696Y-141467000D01*
X112697770Y-141390006D01*
X113136713Y-141096713D01*
X113430006Y-140657770D01*
X113532997Y-140140000D01*
X113430006Y-139622230D01*
X113136713Y-139183287D01*
X112697770Y-138889994D01*
X112310696Y-138813000D01*
X112049304Y-138813000D01*
X111662230Y-138889994D01*
X111223287Y-139183287D01*
X110929994Y-139622230D01*
X110827003Y-140140000D01*
X110717000Y-140140000D01*
X110717000Y-137706068D01*
X110738098Y-137600000D01*
X110717000Y-137493932D01*
X110717000Y-137493928D01*
X110654511Y-137179776D01*
X110654511Y-137179775D01*
X110476558Y-136913451D01*
X110416473Y-136823527D01*
X110326549Y-136763442D01*
X110082000Y-136518893D01*
X110082000Y-133932906D01*
X110084500Y-133932906D01*
X110212089Y-133907527D01*
X110320254Y-133835254D01*
X110392527Y-133727089D01*
X110417906Y-133599500D01*
X110417906Y-131440500D01*
X110392527Y-131312911D01*
X110320254Y-131204746D01*
X110212089Y-131132473D01*
X110084500Y-131107094D01*
X110082000Y-131107094D01*
X110082000Y-128521107D01*
X111111558Y-127491550D01*
X111289510Y-127225225D01*
X111373098Y-126805001D01*
X111289510Y-126384776D01*
X111051473Y-126028527D01*
X110695224Y-125790490D01*
X110274999Y-125706902D01*
X109854775Y-125790490D01*
X109588450Y-125968442D01*
X108318450Y-127238443D01*
X108228528Y-127298527D01*
X108168444Y-127388449D01*
X108168442Y-127388451D01*
X108099554Y-127491550D01*
X107990490Y-127654776D01*
X107943836Y-127889323D01*
X107906902Y-128075000D01*
X107928001Y-128181071D01*
X107928000Y-131107094D01*
X107925500Y-131107094D01*
X107823120Y-131127459D01*
X107735589Y-131068973D01*
X107608000Y-131043594D01*
X105322000Y-131043594D01*
X105194411Y-131068973D01*
X105086246Y-131141246D01*
X105013973Y-131249411D01*
X104988594Y-131377000D01*
X101808978Y-131377000D01*
X101778111Y-130945909D01*
X101668578Y-130681472D01*
X101544753Y-130554852D01*
X100849605Y-131250000D01*
X100490395Y-131250000D01*
X99795247Y-130554852D01*
X99671422Y-130681472D01*
X99529869Y-131106888D01*
X98941000Y-131106888D01*
X98941000Y-130375247D01*
X99974852Y-130375247D01*
X100670000Y-131070395D01*
X101365148Y-130375247D01*
X101238528Y-130251422D01*
X100813112Y-130109869D01*
X100365909Y-130141889D01*
X100101472Y-130251422D01*
X99974852Y-130375247D01*
X98941000Y-130375247D01*
X98941000Y-127637579D01*
X99276071Y-127302508D01*
X99315897Y-127275897D01*
X99421323Y-127118116D01*
X99449000Y-126978975D01*
X99449000Y-126978971D01*
X99458343Y-126932001D01*
X99449000Y-126885031D01*
X99449000Y-121366976D01*
X100448084Y-121366976D01*
X100526637Y-121556657D01*
X100770558Y-121849616D01*
X101108022Y-122026931D01*
X101258000Y-122026975D01*
X101258000Y-121217000D01*
X101512000Y-121217000D01*
X101512000Y-122026975D01*
X101661978Y-122026931D01*
X101999442Y-121849616D01*
X102243363Y-121556657D01*
X102321916Y-121366976D01*
X102321680Y-121217000D01*
X101512000Y-121217000D01*
X101258000Y-121217000D01*
X100448320Y-121217000D01*
X100448084Y-121366976D01*
X99449000Y-121366976D01*
X99449000Y-120813024D01*
X100448084Y-120813024D01*
X100448320Y-120963000D01*
X101258000Y-120963000D01*
X101512000Y-120963000D01*
X102321680Y-120963000D01*
X102321916Y-120813024D01*
X102243363Y-120623343D01*
X101999442Y-120330384D01*
X101661978Y-120153069D01*
X101512000Y-120153025D01*
X101512000Y-120963000D01*
X101258000Y-120963000D01*
X101258000Y-120153025D01*
X101108022Y-120153069D01*
X100770558Y-120330384D01*
X100526637Y-120623343D01*
X100448084Y-120813024D01*
X99449000Y-120813024D01*
X99449000Y-119509579D01*
X99931580Y-119027000D01*
X100201594Y-119027000D01*
X100201594Y-119400000D01*
X100226973Y-119527589D01*
X100299246Y-119635754D01*
X100407411Y-119708027D01*
X100535000Y-119733406D01*
X102235000Y-119733406D01*
X102362589Y-119708027D01*
X102470754Y-119635754D01*
X102543027Y-119527589D01*
X102568406Y-119400000D01*
X102568406Y-117700000D01*
X102543027Y-117572411D01*
X102470754Y-117464246D01*
X102362589Y-117391973D01*
X102235000Y-117366594D01*
X100535000Y-117366594D01*
X100407411Y-117391973D01*
X100299246Y-117464246D01*
X100226973Y-117572411D01*
X100201594Y-117700000D01*
X100201594Y-118073000D01*
X99780971Y-118073000D01*
X99734000Y-118063657D01*
X99687029Y-118073000D01*
X99687025Y-118073000D01*
X99547884Y-118100677D01*
X99443402Y-118170490D01*
X99390103Y-118206103D01*
X99363494Y-118245926D01*
X98667928Y-118941492D01*
X98628103Y-118968103D01*
X98522677Y-119125885D01*
X98495000Y-119265026D01*
X98495000Y-119265029D01*
X98485657Y-119312000D01*
X98495000Y-119358971D01*
X98495001Y-126734420D01*
X98159929Y-127069492D01*
X98120103Y-127096103D01*
X98014677Y-127253885D01*
X97987000Y-127393026D01*
X97987000Y-127393029D01*
X97977657Y-127440000D01*
X97987000Y-127486971D01*
X97987001Y-149086419D01*
X95365929Y-151707492D01*
X95326103Y-151734103D01*
X95220677Y-151891885D01*
X95193000Y-152031026D01*
X95193000Y-152031029D01*
X95183657Y-152078000D01*
X95193000Y-152124971D01*
X95193000Y-153412202D01*
X94861249Y-153478192D01*
X94455384Y-153749383D01*
X94184192Y-154155248D01*
X94113000Y-154513153D01*
X93067000Y-154513153D01*
X92995808Y-154155248D01*
X92724617Y-153749383D01*
X92337000Y-153490385D01*
X92337000Y-145266971D01*
X92346343Y-145220000D01*
X92337000Y-145173029D01*
X92337000Y-145173025D01*
X92309323Y-145033884D01*
X92203897Y-144876103D01*
X92164075Y-144849495D01*
X91214508Y-143899929D01*
X91187897Y-143860103D01*
X91030116Y-143754677D01*
X90890975Y-143727000D01*
X90890971Y-143727000D01*
X90844000Y-143717657D01*
X90797029Y-143727000D01*
X90533579Y-143727000D01*
X90305000Y-143498421D01*
X90305000Y-143063282D01*
X90979000Y-143063282D01*
X90979000Y-143312718D01*
X91074455Y-143543167D01*
X91250833Y-143719545D01*
X91481282Y-143815000D01*
X91730718Y-143815000D01*
X91961167Y-143719545D01*
X92137545Y-143543167D01*
X92233000Y-143312718D01*
X92233000Y-143063282D01*
X92137545Y-142832833D01*
X92083000Y-142778288D01*
X92083000Y-141680000D01*
X94336594Y-141680000D01*
X94336594Y-143680000D01*
X94361973Y-143807589D01*
X94434246Y-143915754D01*
X94542411Y-143988027D01*
X94670000Y-144013406D01*
X96670000Y-144013406D01*
X96797589Y-143988027D01*
X96905754Y-143915754D01*
X96978027Y-143807589D01*
X97003406Y-143680000D01*
X97003406Y-141680000D01*
X96978027Y-141552411D01*
X96905754Y-141444246D01*
X96797589Y-141371973D01*
X96670000Y-141346594D01*
X94670000Y-141346594D01*
X94542411Y-141371973D01*
X94434246Y-141444246D01*
X94361973Y-141552411D01*
X94336594Y-141680000D01*
X92083000Y-141680000D01*
X92083000Y-140337579D01*
X92418071Y-140002508D01*
X92457897Y-139975897D01*
X92563323Y-139818116D01*
X92591000Y-139678975D01*
X92591000Y-139678971D01*
X92600343Y-139632001D01*
X92591000Y-139585031D01*
X92591000Y-130250000D01*
X94336594Y-130250000D01*
X94336594Y-132250000D01*
X94361973Y-132377589D01*
X94434246Y-132485754D01*
X94542411Y-132558027D01*
X94670000Y-132583406D01*
X96670000Y-132583406D01*
X96797589Y-132558027D01*
X96905754Y-132485754D01*
X96978027Y-132377589D01*
X97003406Y-132250000D01*
X97003406Y-130250000D01*
X96978027Y-130122411D01*
X96905754Y-130014246D01*
X96797589Y-129941973D01*
X96670000Y-129916594D01*
X94670000Y-129916594D01*
X94542411Y-129941973D01*
X94434246Y-130014246D01*
X94361973Y-130122411D01*
X94336594Y-130250000D01*
X92591000Y-130250000D01*
X92591000Y-126621579D01*
X93754506Y-125458074D01*
X93754508Y-125458071D01*
X97752075Y-121460505D01*
X97791897Y-121433897D01*
X97897323Y-121276116D01*
X97925000Y-121136975D01*
X97925000Y-121136971D01*
X97934343Y-121090000D01*
X97925000Y-121043029D01*
X97925000Y-113008971D01*
X97934343Y-112962000D01*
X97925000Y-112915029D01*
X97925000Y-112915025D01*
X97897323Y-112775884D01*
X97791897Y-112618103D01*
X97752074Y-112591494D01*
X97056508Y-111895928D01*
X97029897Y-111856103D01*
X96872116Y-111750677D01*
X96868712Y-111750000D01*
X96787167Y-111668455D01*
X96556718Y-111573000D01*
X96307282Y-111573000D01*
X96076833Y-111668455D01*
X95900455Y-111844833D01*
X95805000Y-112075282D01*
X95805000Y-112324718D01*
X95900455Y-112555167D01*
X96076833Y-112731545D01*
X96307282Y-112827000D01*
X96556718Y-112827000D01*
X96614491Y-112803070D01*
X96971001Y-113159581D01*
X96971000Y-114024974D01*
X96971001Y-114024979D01*
X96971000Y-120892420D01*
X93079929Y-124783492D01*
X93079926Y-124783494D01*
X91809929Y-126053492D01*
X91770103Y-126080103D01*
X91664677Y-126237885D01*
X91637000Y-126377026D01*
X91637000Y-126377029D01*
X91627657Y-126424000D01*
X91637000Y-126470971D01*
X91637001Y-139434420D01*
X91301929Y-139769492D01*
X91262103Y-139796103D01*
X91156677Y-139953885D01*
X91129000Y-140093026D01*
X91129000Y-140093029D01*
X91119657Y-140140000D01*
X91129000Y-140186971D01*
X91129001Y-142778287D01*
X91074455Y-142832833D01*
X90979000Y-143063282D01*
X90305000Y-143063282D01*
X90305000Y-139321579D01*
X91148074Y-138478506D01*
X91187897Y-138451897D01*
X91293323Y-138294116D01*
X91321000Y-138154975D01*
X91321000Y-138154971D01*
X91330343Y-138108000D01*
X91321000Y-138061029D01*
X91321000Y-118850969D01*
X91330343Y-118803999D01*
X91321000Y-118757029D01*
X91321000Y-118757025D01*
X91293323Y-118617884D01*
X91187897Y-118460103D01*
X91148072Y-118433493D01*
X90963000Y-118248421D01*
X90963000Y-118171282D01*
X90867545Y-117940833D01*
X90691167Y-117764455D01*
X90460718Y-117669000D01*
X90211282Y-117669000D01*
X89980833Y-117764455D01*
X89804455Y-117940833D01*
X89709000Y-118171282D01*
X89709000Y-118420718D01*
X89804455Y-118651167D01*
X89980833Y-118827545D01*
X90211282Y-118923000D01*
X90288421Y-118923000D01*
X90367000Y-119001579D01*
X90367001Y-130140289D01*
X90310167Y-130083455D01*
X90079718Y-129988000D01*
X89830282Y-129988000D01*
X89599833Y-130083455D01*
X89423455Y-130259833D01*
X89328000Y-130490282D01*
X89328000Y-130739718D01*
X89378000Y-130860429D01*
X89378000Y-137360999D01*
X88317186Y-138421814D01*
X88269007Y-138454006D01*
X88146297Y-138637656D01*
X88141479Y-138644866D01*
X88096696Y-138870000D01*
X88108001Y-138926832D01*
X88108000Y-140535999D01*
X87176000Y-141468000D01*
X85120429Y-141468000D01*
X84999718Y-141418000D01*
X84750282Y-141418000D01*
X84519833Y-141513455D01*
X84343455Y-141689833D01*
X84248000Y-141920282D01*
X84248000Y-142169718D01*
X84343455Y-142400167D01*
X84519833Y-142576545D01*
X84750282Y-142672000D01*
X84999718Y-142672000D01*
X85120429Y-142622000D01*
X87358172Y-142622000D01*
X87415000Y-142633304D01*
X87471828Y-142622000D01*
X87471829Y-142622000D01*
X87640134Y-142588522D01*
X87830994Y-142460994D01*
X87863188Y-142412812D01*
X89052815Y-141223186D01*
X89100994Y-141190994D01*
X89228522Y-141000134D01*
X89262000Y-140831829D01*
X89262000Y-140831828D01*
X89273304Y-140775001D01*
X89262000Y-140718173D01*
X89262000Y-139109000D01*
X89365160Y-139005840D01*
X89351000Y-139077026D01*
X89351000Y-139077029D01*
X89341657Y-139124000D01*
X89351000Y-139170971D01*
X89351001Y-143649024D01*
X89341657Y-143696000D01*
X89378677Y-143882115D01*
X89449446Y-143988027D01*
X89484104Y-144039897D01*
X89523927Y-144066506D01*
X89965492Y-144508071D01*
X89992103Y-144547897D01*
X90149884Y-144653323D01*
X90289025Y-144681000D01*
X90289029Y-144681000D01*
X90335999Y-144690343D01*
X90382969Y-144681000D01*
X90646421Y-144681000D01*
X91135506Y-145170086D01*
X90968718Y-145101000D01*
X90719282Y-145101000D01*
X90488833Y-145196455D01*
X90409288Y-145276000D01*
X83658712Y-145276000D01*
X83579167Y-145196455D01*
X83348718Y-145101000D01*
X83236225Y-145101000D01*
X81517000Y-143381776D01*
X81517000Y-129185150D01*
X81524242Y-129183709D01*
X81913569Y-128923569D01*
X82173709Y-128534242D01*
X82233480Y-128233750D01*
X82628000Y-128233750D01*
X82628000Y-128950262D01*
X82647335Y-128996940D01*
X82683060Y-129032665D01*
X82729738Y-129052000D01*
X83446250Y-129052000D01*
X83478000Y-129020250D01*
X83478000Y-128202000D01*
X83732000Y-128202000D01*
X83732000Y-129020250D01*
X83763750Y-129052000D01*
X84480262Y-129052000D01*
X84526940Y-129032665D01*
X84562665Y-128996940D01*
X84582000Y-128950262D01*
X84582000Y-128233750D01*
X84550250Y-128202000D01*
X83732000Y-128202000D01*
X83478000Y-128202000D01*
X82659750Y-128202000D01*
X82628000Y-128233750D01*
X82233480Y-128233750D01*
X82265058Y-128075000D01*
X82173709Y-127615758D01*
X81913569Y-127226431D01*
X81873621Y-127199738D01*
X82628000Y-127199738D01*
X82628000Y-127916250D01*
X82659750Y-127948000D01*
X83478000Y-127948000D01*
X83478000Y-127129750D01*
X83732000Y-127129750D01*
X83732000Y-127948000D01*
X84550250Y-127948000D01*
X84582000Y-127916250D01*
X84582000Y-127199738D01*
X84562665Y-127153060D01*
X84526940Y-127117335D01*
X84480262Y-127098000D01*
X83763750Y-127098000D01*
X83732000Y-127129750D01*
X83478000Y-127129750D01*
X83446250Y-127098000D01*
X82729738Y-127098000D01*
X82683060Y-127117335D01*
X82647335Y-127153060D01*
X82628000Y-127199738D01*
X81873621Y-127199738D01*
X81524242Y-126966291D01*
X81180920Y-126898000D01*
X80949080Y-126898000D01*
X80605758Y-126966291D01*
X80216431Y-127226431D01*
X79956291Y-127615758D01*
X79864942Y-128075000D01*
X79725058Y-128075000D01*
X79633709Y-127615758D01*
X79373569Y-127226431D01*
X79102000Y-127044974D01*
X79102000Y-126409001D01*
X79399001Y-126112000D01*
X85271000Y-126112000D01*
X86795748Y-127636748D01*
X86723510Y-127811145D01*
X86723510Y-128338855D01*
X86925456Y-128826396D01*
X87298604Y-129199544D01*
X87786145Y-129401490D01*
X88313855Y-129401490D01*
X88801396Y-129199544D01*
X89174544Y-128826396D01*
X89376490Y-128338855D01*
X89376490Y-127811145D01*
X89174544Y-127323604D01*
X88801396Y-126950456D01*
X88313855Y-126748510D01*
X87786145Y-126748510D01*
X87611748Y-126820748D01*
X85958188Y-125167188D01*
X85925994Y-125119006D01*
X85735134Y-124991478D01*
X85566829Y-124958000D01*
X85566828Y-124958000D01*
X85510000Y-124946696D01*
X85453172Y-124958000D01*
X79216829Y-124958000D01*
X79160000Y-124946696D01*
X78934865Y-124991478D01*
X78792183Y-125086815D01*
X78744006Y-125119006D01*
X78711815Y-125167183D01*
X78157185Y-125721814D01*
X78109007Y-125754006D01*
X77981478Y-125944866D01*
X77954578Y-126080103D01*
X77936696Y-126170000D01*
X77948000Y-126226828D01*
X77948000Y-126861828D01*
X77948001Y-126861833D01*
X77948001Y-127044974D01*
X77676431Y-127226431D01*
X77416291Y-127615758D01*
X77324942Y-128075000D01*
X76056000Y-128075000D01*
X76056000Y-127484516D01*
X76064855Y-127439999D01*
X76054601Y-127388451D01*
X76029775Y-127263638D01*
X75929874Y-127114126D01*
X75892133Y-127088909D01*
X74685093Y-125881869D01*
X74659874Y-125844126D01*
X74510362Y-125744225D01*
X74378518Y-125718000D01*
X74334000Y-125709145D01*
X74289482Y-125718000D01*
X73285150Y-125718000D01*
X73283709Y-125710758D01*
X73023569Y-125321431D01*
X72634242Y-125061291D01*
X72290920Y-124993000D01*
X72059080Y-124993000D01*
X71715758Y-125061291D01*
X71326431Y-125321431D01*
X71066291Y-125710758D01*
X70974942Y-126170000D01*
X69985000Y-126170000D01*
X69985000Y-122811579D01*
X74277579Y-118519000D01*
X75017710Y-118519000D01*
X75072455Y-118651167D01*
X75248833Y-118827545D01*
X75479282Y-118923000D01*
X75728718Y-118923000D01*
X75959167Y-118827545D01*
X76135545Y-118651167D01*
X76143000Y-118633168D01*
X76143000Y-119114420D01*
X72695319Y-122562102D01*
X72634242Y-122521291D01*
X72290920Y-122453000D01*
X72059080Y-122453000D01*
X71715758Y-122521291D01*
X71326431Y-122781431D01*
X71066291Y-123170758D01*
X70974942Y-123630000D01*
X71066291Y-124089242D01*
X71326431Y-124478569D01*
X71715758Y-124738709D01*
X72059080Y-124807000D01*
X72290920Y-124807000D01*
X72634242Y-124738709D01*
X73023569Y-124478569D01*
X73283709Y-124089242D01*
X73375058Y-123630000D01*
X73308946Y-123297633D01*
X73609297Y-122997282D01*
X74723000Y-122997282D01*
X74723000Y-123246718D01*
X74818455Y-123477167D01*
X74994833Y-123653545D01*
X75225282Y-123749000D01*
X75474718Y-123749000D01*
X75705167Y-123653545D01*
X75881545Y-123477167D01*
X75977000Y-123246718D01*
X75977000Y-123169579D01*
X77940075Y-121206505D01*
X77979897Y-121179897D01*
X78085323Y-121022116D01*
X78113000Y-120882975D01*
X78113000Y-120882972D01*
X78122343Y-120836001D01*
X78113000Y-120789030D01*
X78113000Y-116969579D01*
X84437580Y-110645000D01*
X96022288Y-110645000D01*
X96076833Y-110699545D01*
X96307282Y-110795000D01*
X96556718Y-110795000D01*
X96787167Y-110699545D01*
X96963545Y-110523167D01*
X97059000Y-110292718D01*
X97059000Y-110043282D01*
X96963545Y-109812833D01*
X96787167Y-109636455D01*
X96556718Y-109541000D01*
X96307282Y-109541000D01*
X96076833Y-109636455D01*
X96022288Y-109691000D01*
X84286969Y-109691000D01*
X84239999Y-109681657D01*
X84193029Y-109691000D01*
X84193025Y-109691000D01*
X84053884Y-109718677D01*
X83896103Y-109824103D01*
X83869494Y-109863926D01*
X77331927Y-116401494D01*
X77292104Y-116428103D01*
X77265495Y-116467926D01*
X77265494Y-116467927D01*
X77186677Y-116585885D01*
X77149657Y-116772000D01*
X77159001Y-116818976D01*
X77159000Y-120638420D01*
X75302421Y-122495000D01*
X75225282Y-122495000D01*
X74994833Y-122590455D01*
X74818455Y-122766833D01*
X74723000Y-122997282D01*
X73609297Y-122997282D01*
X76924075Y-119682505D01*
X76963897Y-119655897D01*
X77069323Y-119498116D01*
X77097000Y-119358975D01*
X77097000Y-119358972D01*
X77106343Y-119312001D01*
X77097000Y-119265030D01*
X77097000Y-117326971D01*
X77106343Y-117280000D01*
X77097000Y-117233029D01*
X77097000Y-117233025D01*
X77069323Y-117093884D01*
X76963897Y-116936103D01*
X76924074Y-116909494D01*
X76231000Y-116216421D01*
X76231000Y-116139282D01*
X76135545Y-115908833D01*
X75959167Y-115732455D01*
X75728718Y-115637000D01*
X75479282Y-115637000D01*
X75248833Y-115732455D01*
X75072455Y-115908833D01*
X74977000Y-116139282D01*
X74977000Y-116388718D01*
X75072455Y-116619167D01*
X75248833Y-116795545D01*
X75479282Y-116891000D01*
X75556421Y-116891000D01*
X76143001Y-117477581D01*
X76143001Y-117958833D01*
X76135545Y-117940833D01*
X75959167Y-117764455D01*
X75728718Y-117669000D01*
X75650341Y-117669000D01*
X75536116Y-117592677D01*
X75396975Y-117565000D01*
X75396971Y-117565000D01*
X75350000Y-117555657D01*
X75303029Y-117565000D01*
X74126969Y-117565000D01*
X74079999Y-117555657D01*
X74033029Y-117565000D01*
X74033025Y-117565000D01*
X73893884Y-117592677D01*
X73736103Y-117698103D01*
X73709492Y-117737929D01*
X69203927Y-122243494D01*
X69164104Y-122270103D01*
X69137495Y-122309926D01*
X69137494Y-122309927D01*
X69058677Y-122427885D01*
X69021657Y-122614000D01*
X69031001Y-122660976D01*
X69031000Y-129062288D01*
X68976455Y-129116833D01*
X68881000Y-129347282D01*
X61467000Y-129347282D01*
X61467000Y-111184000D01*
X61935145Y-111184000D01*
X61944001Y-111228523D01*
X61944000Y-121299482D01*
X61935145Y-121344000D01*
X61957821Y-121458000D01*
X61970225Y-121520361D01*
X62070126Y-121669874D01*
X62107869Y-121695093D01*
X63568907Y-123156131D01*
X63594126Y-123193874D01*
X63743638Y-123293775D01*
X63875482Y-123320000D01*
X63875483Y-123320000D01*
X63919999Y-123328855D01*
X63964516Y-123320000D01*
X66238850Y-123320000D01*
X66240291Y-123327242D01*
X66500431Y-123716569D01*
X66889758Y-123976709D01*
X67233080Y-124045000D01*
X67464920Y-124045000D01*
X67808242Y-123976709D01*
X68197569Y-123716569D01*
X68457709Y-123327242D01*
X68549058Y-122868000D01*
X68457709Y-122408758D01*
X68197569Y-122019431D01*
X67808242Y-121759291D01*
X67464920Y-121691000D01*
X67233080Y-121691000D01*
X66889758Y-121759291D01*
X66500431Y-122019431D01*
X66240291Y-122408758D01*
X66238850Y-122416000D01*
X64107224Y-122416000D01*
X62848000Y-121156776D01*
X62848000Y-120486750D01*
X66372000Y-120486750D01*
X66372000Y-121203262D01*
X66391335Y-121249940D01*
X66427060Y-121285665D01*
X66473738Y-121305000D01*
X67190250Y-121305000D01*
X67222000Y-121273250D01*
X67222000Y-120455000D01*
X67476000Y-120455000D01*
X67476000Y-121273250D01*
X67507750Y-121305000D01*
X68224262Y-121305000D01*
X68270940Y-121285665D01*
X68306665Y-121249940D01*
X68326000Y-121203262D01*
X68326000Y-120486750D01*
X68294250Y-120455000D01*
X67476000Y-120455000D01*
X67222000Y-120455000D01*
X66403750Y-120455000D01*
X66372000Y-120486750D01*
X62848000Y-120486750D01*
X62848000Y-119452738D01*
X66372000Y-119452738D01*
X66372000Y-120169250D01*
X66403750Y-120201000D01*
X67222000Y-120201000D01*
X67222000Y-119382750D01*
X67476000Y-119382750D01*
X67476000Y-120201000D01*
X68294250Y-120201000D01*
X68326000Y-120169250D01*
X68326000Y-119452738D01*
X68306665Y-119406060D01*
X68270940Y-119370335D01*
X68224262Y-119351000D01*
X67507750Y-119351000D01*
X67476000Y-119382750D01*
X67222000Y-119382750D01*
X67190250Y-119351000D01*
X66473738Y-119351000D01*
X66427060Y-119370335D01*
X66391335Y-119406060D01*
X66372000Y-119452738D01*
X62848000Y-119452738D01*
X62848000Y-116010000D01*
X63207962Y-116010000D01*
X63303192Y-116488752D01*
X63574383Y-116894617D01*
X63980248Y-117165808D01*
X64338153Y-117237000D01*
X65279847Y-117237000D01*
X65637752Y-117165808D01*
X66043617Y-116894617D01*
X66249161Y-116587000D01*
X68562172Y-116587000D01*
X68619000Y-116598304D01*
X68675828Y-116587000D01*
X68675829Y-116587000D01*
X68844134Y-116553522D01*
X69034994Y-116425994D01*
X69067188Y-116377812D01*
X69874001Y-115571000D01*
X75104571Y-115571000D01*
X75225282Y-115621000D01*
X75474718Y-115621000D01*
X75705167Y-115525545D01*
X75881545Y-115349167D01*
X75977000Y-115118718D01*
X75977000Y-114869282D01*
X75881545Y-114638833D01*
X75705167Y-114462455D01*
X75474718Y-114367000D01*
X75225282Y-114367000D01*
X75104571Y-114417000D01*
X69691828Y-114417000D01*
X69635000Y-114405696D01*
X69578172Y-114417000D01*
X69578171Y-114417000D01*
X69409866Y-114450478D01*
X69219006Y-114578006D01*
X69186814Y-114626185D01*
X68380000Y-115433000D01*
X66249161Y-115433000D01*
X66043617Y-115125383D01*
X65637752Y-114854192D01*
X65279847Y-114783000D01*
X64338153Y-114783000D01*
X63980248Y-114854192D01*
X63574383Y-115125383D01*
X63303192Y-115531248D01*
X63207962Y-116010000D01*
X62848000Y-116010000D01*
X62848000Y-112510000D01*
X63207962Y-112510000D01*
X63303192Y-112988752D01*
X63574383Y-113394617D01*
X63980248Y-113665808D01*
X64338153Y-113737000D01*
X65279847Y-113737000D01*
X65637752Y-113665808D01*
X66043617Y-113394617D01*
X66314808Y-112988752D01*
X66356928Y-112777000D01*
X67292172Y-112777000D01*
X67349000Y-112788304D01*
X67405828Y-112777000D01*
X67405829Y-112777000D01*
X67574134Y-112743522D01*
X67764994Y-112615994D01*
X67797188Y-112567812D01*
X68604001Y-111761000D01*
X73840999Y-111761000D01*
X74133455Y-112053457D01*
X74183455Y-112174167D01*
X74359833Y-112350545D01*
X74590282Y-112446000D01*
X74839718Y-112446000D01*
X75070167Y-112350545D01*
X75246545Y-112174167D01*
X75342000Y-111943718D01*
X75342000Y-111694282D01*
X75246545Y-111463833D01*
X75070167Y-111287455D01*
X74949457Y-111237455D01*
X74528188Y-110816187D01*
X74495994Y-110768006D01*
X74305134Y-110640478D01*
X74136829Y-110607000D01*
X74136828Y-110607000D01*
X74080000Y-110595696D01*
X74023172Y-110607000D01*
X68421828Y-110607000D01*
X68365000Y-110595696D01*
X68308172Y-110607000D01*
X68308171Y-110607000D01*
X68139866Y-110640478D01*
X67949006Y-110768006D01*
X67916814Y-110816185D01*
X67110000Y-111623000D01*
X66040051Y-111623000D01*
X65637752Y-111354192D01*
X65279847Y-111283000D01*
X64338153Y-111283000D01*
X63980248Y-111354192D01*
X63574383Y-111625383D01*
X63303192Y-112031248D01*
X63207962Y-112510000D01*
X62848000Y-112510000D01*
X62848000Y-111371224D01*
X63599225Y-110620000D01*
X66923482Y-110620000D01*
X66968000Y-110628855D01*
X67012518Y-110620000D01*
X67144362Y-110593775D01*
X67293874Y-110493874D01*
X67319093Y-110456131D01*
X69012225Y-108763000D01*
X69124718Y-108763000D01*
X69355167Y-108667545D01*
X69531545Y-108491167D01*
X69627000Y-108260718D01*
X69627000Y-108011282D01*
X69531545Y-107780833D01*
X69355167Y-107604455D01*
X69124718Y-107509000D01*
X68875282Y-107509000D01*
X68644833Y-107604455D01*
X68468455Y-107780833D01*
X68373000Y-108011282D01*
X68373000Y-108123775D01*
X66780776Y-109716000D01*
X63456518Y-109716000D01*
X63412000Y-109707145D01*
X63367482Y-109716000D01*
X63235638Y-109742225D01*
X63086126Y-109842126D01*
X63060908Y-109879867D01*
X62107867Y-110832909D01*
X62070127Y-110858126D01*
X62044910Y-110895866D01*
X62044909Y-110895867D01*
X61970225Y-111007639D01*
X61935145Y-111184000D01*
X61467000Y-111184000D01*
X61467000Y-108204241D01*
X61523385Y-108340367D01*
X62318633Y-109135615D01*
X63357675Y-109566000D01*
X64482325Y-109566000D01*
X65521367Y-109135615D01*
X66316615Y-108340367D01*
X66747000Y-107301325D01*
X66747000Y-106856145D01*
X102598510Y-106856145D01*
X102598510Y-107383855D01*
X102800456Y-107871396D01*
X103173604Y-108244544D01*
X103348000Y-108316781D01*
X103348001Y-113230998D01*
X103055545Y-113523455D01*
X102934833Y-113573455D01*
X102758455Y-113749833D01*
X102663000Y-113980282D01*
X102663000Y-114229718D01*
X102758455Y-114460167D01*
X102934833Y-114636545D01*
X103165282Y-114732000D01*
X103414718Y-114732000D01*
X103535429Y-114682000D01*
X103685999Y-114682000D01*
X103983001Y-114979002D01*
X103983000Y-124146571D01*
X103933000Y-124267282D01*
X103933000Y-124516718D01*
X104028455Y-124747167D01*
X104204833Y-124923545D01*
X104435282Y-125019000D01*
X104684718Y-125019000D01*
X104915167Y-124923545D01*
X105091545Y-124747167D01*
X105187000Y-124516718D01*
X105187000Y-124267282D01*
X105137000Y-124146571D01*
X105137000Y-122685000D01*
X109943962Y-122685000D01*
X110039192Y-123163752D01*
X110310383Y-123569617D01*
X110468000Y-123674934D01*
X110468001Y-124793929D01*
X110446902Y-124900000D01*
X110530490Y-125320224D01*
X110708442Y-125586549D01*
X110708444Y-125586551D01*
X110768528Y-125676473D01*
X110858450Y-125736557D01*
X111738000Y-126616108D01*
X111738001Y-132073891D01*
X110708442Y-133103451D01*
X110530490Y-133369776D01*
X110446902Y-133790000D01*
X110530490Y-134210224D01*
X110768527Y-134566473D01*
X111124776Y-134804510D01*
X111545000Y-134888098D01*
X111965224Y-134804510D01*
X112231549Y-134626558D01*
X113501551Y-133356557D01*
X113591473Y-133296473D01*
X113829511Y-132940224D01*
X113892000Y-132626072D01*
X113892000Y-132626067D01*
X113913098Y-132520001D01*
X113892000Y-132413934D01*
X113892000Y-126276066D01*
X113913098Y-126169999D01*
X113892000Y-126063933D01*
X113892000Y-126063928D01*
X113829511Y-125749776D01*
X113686002Y-125535000D01*
X113651558Y-125483450D01*
X113651557Y-125483449D01*
X113591473Y-125393527D01*
X113501551Y-125333443D01*
X112622000Y-124453893D01*
X112622000Y-123674934D01*
X112779617Y-123569617D01*
X113050808Y-123163752D01*
X113146038Y-122685000D01*
X113050808Y-122206248D01*
X112779617Y-121800383D01*
X112373752Y-121529192D01*
X112015847Y-121458000D01*
X111074153Y-121458000D01*
X110716248Y-121529192D01*
X110310383Y-121800383D01*
X110039192Y-122206248D01*
X109943962Y-122685000D01*
X105137000Y-122685000D01*
X105137000Y-115016976D01*
X106163084Y-115016976D01*
X106241637Y-115206657D01*
X106485558Y-115499616D01*
X106823022Y-115676931D01*
X106973000Y-115676975D01*
X106973000Y-114867000D01*
X107227000Y-114867000D01*
X107227000Y-115676975D01*
X107376978Y-115676931D01*
X107714442Y-115499616D01*
X107958363Y-115206657D01*
X108036916Y-115016976D01*
X108036680Y-114867000D01*
X107227000Y-114867000D01*
X106973000Y-114867000D01*
X106163320Y-114867000D01*
X106163084Y-115016976D01*
X105137000Y-115016976D01*
X105137000Y-114796829D01*
X105148304Y-114740000D01*
X105103522Y-114514865D01*
X105068883Y-114463024D01*
X106163084Y-114463024D01*
X106163320Y-114613000D01*
X106973000Y-114613000D01*
X107227000Y-114613000D01*
X108036680Y-114613000D01*
X108036916Y-114463024D01*
X107958363Y-114273343D01*
X107714442Y-113980384D01*
X107376978Y-113803069D01*
X107227000Y-113803025D01*
X107227000Y-114613000D01*
X106973000Y-114613000D01*
X106973000Y-113803025D01*
X106823022Y-113803069D01*
X106485558Y-113980384D01*
X106241637Y-114273343D01*
X106163084Y-114463024D01*
X105068883Y-114463024D01*
X105008185Y-114372183D01*
X105008184Y-114372182D01*
X104975994Y-114324006D01*
X104927817Y-114291815D01*
X104413493Y-113777492D01*
X104468522Y-113695135D01*
X104513304Y-113470000D01*
X104502000Y-113413171D01*
X104502000Y-112200000D01*
X105899942Y-112200000D01*
X105991291Y-112659242D01*
X106251431Y-113048569D01*
X106640758Y-113308709D01*
X106984080Y-113377000D01*
X107215920Y-113377000D01*
X107559242Y-113308709D01*
X107948569Y-113048569D01*
X108208709Y-112659242D01*
X108300058Y-112200000D01*
X108208709Y-111740758D01*
X107948569Y-111351431D01*
X107559242Y-111091291D01*
X107215920Y-111023000D01*
X106984080Y-111023000D01*
X106640758Y-111091291D01*
X106251431Y-111351431D01*
X105991291Y-111740758D01*
X105899942Y-112200000D01*
X104502000Y-112200000D01*
X104502000Y-109660000D01*
X105899942Y-109660000D01*
X105991291Y-110119242D01*
X106251431Y-110508569D01*
X106640758Y-110768709D01*
X106984080Y-110837000D01*
X107215920Y-110837000D01*
X107559242Y-110768709D01*
X107948569Y-110508569D01*
X108208709Y-110119242D01*
X108300058Y-109660000D01*
X108208709Y-109200758D01*
X107948569Y-108811431D01*
X107559242Y-108551291D01*
X107215920Y-108483000D01*
X106984080Y-108483000D01*
X106640758Y-108551291D01*
X106251431Y-108811431D01*
X105991291Y-109200758D01*
X105899942Y-109660000D01*
X104502000Y-109660000D01*
X104502000Y-108316781D01*
X104676396Y-108244544D01*
X105049544Y-107871396D01*
X105251490Y-107383855D01*
X105251490Y-106856145D01*
X105049544Y-106368604D01*
X104950940Y-106270000D01*
X105916594Y-106270000D01*
X105916594Y-107970000D01*
X105941973Y-108097589D01*
X106014246Y-108205754D01*
X106122411Y-108278027D01*
X106250000Y-108303406D01*
X107950000Y-108303406D01*
X108077589Y-108278027D01*
X108185754Y-108205754D01*
X108258027Y-108097589D01*
X108283406Y-107970000D01*
X108283406Y-106270000D01*
X108258027Y-106142411D01*
X108185754Y-106034246D01*
X108077589Y-105961973D01*
X107950000Y-105936594D01*
X106250000Y-105936594D01*
X106122411Y-105961973D01*
X106014246Y-106034246D01*
X105941973Y-106142411D01*
X105916594Y-106270000D01*
X104950940Y-106270000D01*
X104676396Y-105995456D01*
X104188855Y-105793510D01*
X103661145Y-105793510D01*
X103173604Y-105995456D01*
X102800456Y-106368604D01*
X102598510Y-106856145D01*
X66747000Y-106856145D01*
X66747000Y-106176675D01*
X66316615Y-105137633D01*
X65521367Y-104342385D01*
X64962754Y-104111000D01*
X113677246Y-104111000D01*
X113118633Y-104342385D01*
X113118633Y-104342385D01*
G37*
X113118633Y-104342385D02*
X112323385Y-105137633D01*
X111893000Y-106176675D01*
X111893000Y-107301325D01*
X112323385Y-108340367D01*
X113118633Y-109135615D01*
X114157675Y-109566000D01*
X115282325Y-109566000D01*
X116321367Y-109135615D01*
X117116615Y-108340367D01*
X117213000Y-108107673D01*
X117213000Y-154265327D01*
X117116615Y-154032633D01*
X116321367Y-153237385D01*
X115282325Y-152807000D01*
X114157675Y-152807000D01*
X113118633Y-153237385D01*
X112323385Y-154032633D01*
X111893000Y-155071675D01*
X111893000Y-156196325D01*
X112323385Y-157235367D01*
X113118633Y-158030615D01*
X113906597Y-158357000D01*
X64733403Y-158357000D01*
X65521367Y-158030615D01*
X66316615Y-157235367D01*
X66747000Y-156196325D01*
X66747000Y-155111000D01*
X70313000Y-155111000D01*
X70313000Y-155461000D01*
X70439777Y-155844349D01*
X70703605Y-156150001D01*
X71055139Y-156320703D01*
X71213000Y-156321114D01*
X71213000Y-155111000D01*
X71467000Y-155111000D01*
X71467000Y-156321114D01*
X71624861Y-156320703D01*
X71976395Y-156150001D01*
X72240223Y-155844349D01*
X72367000Y-155461000D01*
X72367000Y-155111000D01*
X71467000Y-155111000D01*
X71213000Y-155111000D01*
X70313000Y-155111000D01*
X66747000Y-155111000D01*
X66747000Y-155071675D01*
X66513105Y-154507000D01*
X70313000Y-154507000D01*
X70313000Y-154857000D01*
X71213000Y-154857000D01*
X71467000Y-154857000D01*
X72367000Y-154857000D01*
X72367000Y-154513153D01*
X73613000Y-154513153D01*
X73613000Y-155454846D01*
X73684192Y-155812751D01*
X73955383Y-156218617D01*
X74361248Y-156489808D01*
X74840000Y-156585038D01*
X75318751Y-156489808D01*
X75724617Y-156218617D01*
X75995808Y-155812752D01*
X76067000Y-155454847D01*
X76067000Y-154513154D01*
X75995808Y-154155248D01*
X75724617Y-153749383D01*
X75318752Y-153478192D01*
X74840000Y-153382962D01*
X74361249Y-153478192D01*
X73955384Y-153749383D01*
X73684192Y-154155248D01*
X73613000Y-154513153D01*
X72367000Y-154513153D01*
X72367000Y-154507000D01*
X72240223Y-154123651D01*
X71976395Y-153817999D01*
X71624861Y-153647297D01*
X71467000Y-153646886D01*
X71467000Y-154857000D01*
X71213000Y-154857000D01*
X71213000Y-153646886D01*
X71055139Y-153647297D01*
X70703605Y-153817999D01*
X70439777Y-154123651D01*
X70313000Y-154507000D01*
X66513105Y-154507000D01*
X66316615Y-154032633D01*
X65521367Y-153237385D01*
X64482325Y-152807000D01*
X63357675Y-152807000D01*
X62318633Y-153237385D01*
X61523385Y-154032633D01*
X61467000Y-154168759D01*
X61467000Y-147760000D01*
X63711799Y-147760000D01*
X63775984Y-148082679D01*
X63958767Y-148356233D01*
X64232321Y-148539016D01*
X64473552Y-148587000D01*
X65047094Y-148587000D01*
X65047094Y-148839500D01*
X65072473Y-148967089D01*
X65144746Y-149075254D01*
X65252911Y-149147527D01*
X65380500Y-149172906D01*
X67539500Y-149172906D01*
X67641880Y-149152541D01*
X67729411Y-149211027D01*
X67857000Y-149236406D01*
X70143000Y-149236406D01*
X70270589Y-149211027D01*
X70378754Y-149138754D01*
X70451027Y-149030589D01*
X70476406Y-148903000D01*
X70476406Y-146617000D01*
X70451027Y-146489411D01*
X70378754Y-146381246D01*
X70270589Y-146308973D01*
X70143000Y-146283594D01*
X67857000Y-146283594D01*
X67729411Y-146308973D01*
X67641880Y-146367459D01*
X67539500Y-146347094D01*
X65380500Y-146347094D01*
X65252911Y-146372473D01*
X65144746Y-146444746D01*
X65072473Y-146552911D01*
X65047094Y-146680500D01*
X65047094Y-146933000D01*
X64473552Y-146933000D01*
X64232321Y-146980984D01*
X63958767Y-147163767D01*
X63775984Y-147437321D01*
X63711799Y-147760000D01*
X61467000Y-147760000D01*
X61467000Y-140140000D01*
X61735921Y-140140000D01*
X61823389Y-140579733D01*
X62072478Y-140952522D01*
X62445267Y-141201611D01*
X62774001Y-141267000D01*
X63795999Y-141267000D01*
X64124733Y-141201611D01*
X64497522Y-140952522D01*
X64746611Y-140579733D01*
X64834079Y-140140000D01*
X64746611Y-139700267D01*
X64497522Y-139327478D01*
X64124733Y-139078389D01*
X63795999Y-139013000D01*
X62774001Y-139013000D01*
X62445267Y-139078389D01*
X62072478Y-139327478D01*
X61823389Y-139700267D01*
X61735921Y-140140000D01*
X61467000Y-140140000D01*
X61467000Y-137600000D01*
X61735921Y-137600000D01*
X61823389Y-138039733D01*
X62072478Y-138412522D01*
X62445267Y-138661611D01*
X62774001Y-138727000D01*
X63795999Y-138727000D01*
X64124733Y-138661611D01*
X64475854Y-138427000D01*
X64847446Y-138427000D01*
X64998000Y-138577554D01*
X64998001Y-141067445D01*
X64317953Y-141747494D01*
X64124733Y-141618389D01*
X63795999Y-141553000D01*
X62774001Y-141553000D01*
X62445267Y-141618389D01*
X62072478Y-141867478D01*
X61823389Y-142240267D01*
X61735921Y-142680000D01*
X61823389Y-143119733D01*
X62072478Y-143492522D01*
X62445267Y-143741611D01*
X62774001Y-143807000D01*
X63795999Y-143807000D01*
X64124733Y-143741611D01*
X64475327Y-143507352D01*
X64555000Y-143523200D01*
X64636444Y-143507000D01*
X64636448Y-143507000D01*
X64877679Y-143459016D01*
X65151233Y-143276233D01*
X65197372Y-143207181D01*
X66352186Y-142052369D01*
X66421233Y-142006233D01*
X66505579Y-141880000D01*
X69371594Y-141880000D01*
X69371594Y-143480000D01*
X69396973Y-143607589D01*
X69469246Y-143715754D01*
X69577411Y-143788027D01*
X69705000Y-143813406D01*
X72105000Y-143813406D01*
X72232589Y-143788027D01*
X72340754Y-143715754D01*
X72413027Y-143607589D01*
X72438406Y-143480000D01*
X72438406Y-141880000D01*
X72413027Y-141752411D01*
X72340754Y-141644246D01*
X72232589Y-141571973D01*
X72105000Y-141546594D01*
X69705000Y-141546594D01*
X69577411Y-141571973D01*
X69469246Y-141644246D01*
X69396973Y-141752411D01*
X69371594Y-141880000D01*
X66505579Y-141880000D01*
X66604016Y-141732679D01*
X66652000Y-141491448D01*
X66652000Y-141491444D01*
X66668200Y-141410001D01*
X66652000Y-141328558D01*
X66652000Y-140409084D01*
X69617913Y-140409084D01*
X69759709Y-140705686D01*
X70032920Y-140947836D01*
X70378000Y-141067000D01*
X70778000Y-141067000D01*
X70778000Y-140267000D01*
X71032000Y-140267000D01*
X71032000Y-141067000D01*
X71432000Y-141067000D01*
X71777080Y-140947836D01*
X72050291Y-140705686D01*
X72192087Y-140409084D01*
X72191196Y-140267000D01*
X71032000Y-140267000D01*
X70778000Y-140267000D01*
X69618804Y-140267000D01*
X69617913Y-140409084D01*
X66652000Y-140409084D01*
X66652000Y-139870916D01*
X69617913Y-139870916D01*
X69618804Y-140013000D01*
X70778000Y-140013000D01*
X70778000Y-139213000D01*
X71032000Y-139213000D01*
X71032000Y-140013000D01*
X72191196Y-140013000D01*
X72192087Y-139870916D01*
X72050291Y-139574314D01*
X71777080Y-139332164D01*
X71432000Y-139213000D01*
X71032000Y-139213000D01*
X70778000Y-139213000D01*
X70378000Y-139213000D01*
X70032920Y-139332164D01*
X69759709Y-139574314D01*
X69617913Y-139870916D01*
X66652000Y-139870916D01*
X66652000Y-138316448D01*
X66668201Y-138235000D01*
X66604016Y-137912321D01*
X66467370Y-137707815D01*
X66467368Y-137707813D01*
X66421233Y-137638767D01*
X66363214Y-137600000D01*
X69355921Y-137600000D01*
X69443389Y-138039733D01*
X69692478Y-138412522D01*
X70065267Y-138661611D01*
X70394001Y-138727000D01*
X71415999Y-138727000D01*
X71744733Y-138661611D01*
X72117522Y-138412522D01*
X72366611Y-138039733D01*
X72454079Y-137600000D01*
X72366611Y-137160267D01*
X72117522Y-136787478D01*
X71744733Y-136538389D01*
X71415999Y-136473000D01*
X70394001Y-136473000D01*
X70065267Y-136538389D01*
X69692478Y-136787478D01*
X69443389Y-137160267D01*
X69355921Y-137600000D01*
X66363214Y-137600000D01*
X66352186Y-137592632D01*
X65832372Y-137072818D01*
X65786233Y-137003767D01*
X65512679Y-136820984D01*
X65271448Y-136773000D01*
X65271444Y-136773000D01*
X65190000Y-136756800D01*
X65108556Y-136773000D01*
X64475854Y-136773000D01*
X64124733Y-136538389D01*
X63795999Y-136473000D01*
X62774001Y-136473000D01*
X62445267Y-136538389D01*
X62072478Y-136787478D01*
X61823389Y-137160267D01*
X61735921Y-137600000D01*
X61467000Y-137600000D01*
X61467000Y-133313750D01*
X61623000Y-133313750D01*
X61623000Y-134080262D01*
X61642335Y-134126940D01*
X61678060Y-134162665D01*
X61724738Y-134182000D01*
X62491250Y-134182000D01*
X62523000Y-134150250D01*
X62523000Y-133282000D01*
X62777000Y-133282000D01*
X62777000Y-134150250D01*
X62808750Y-134182000D01*
X63575262Y-134182000D01*
X63621940Y-134162665D01*
X63657665Y-134126940D01*
X63677000Y-134080262D01*
X63677000Y-133313750D01*
X63645250Y-133282000D01*
X62777000Y-133282000D01*
X62523000Y-133282000D01*
X61654750Y-133282000D01*
X61623000Y-133313750D01*
X61467000Y-133313750D01*
X61467000Y-132229738D01*
X61623000Y-132229738D01*
X61623000Y-132996250D01*
X61654750Y-133028000D01*
X62523000Y-133028000D01*
X62523000Y-132159750D01*
X62777000Y-132159750D01*
X62777000Y-133028000D01*
X63645250Y-133028000D01*
X63677000Y-132996250D01*
X63677000Y-132910935D01*
X63963000Y-132910935D01*
X63963000Y-133399065D01*
X64149800Y-133850039D01*
X64494961Y-134195200D01*
X64945935Y-134382000D01*
X65434065Y-134382000D01*
X65885039Y-134195200D01*
X66230200Y-133850039D01*
X66417000Y-133399065D01*
X66417000Y-132910935D01*
X66230200Y-132459961D01*
X65885039Y-132114800D01*
X65434065Y-131928000D01*
X64945935Y-131928000D01*
X64494961Y-132114800D01*
X64149800Y-132459961D01*
X63963000Y-132910935D01*
X63677000Y-132910935D01*
X63677000Y-132229738D01*
X63657665Y-132183060D01*
X63621940Y-132147335D01*
X63575262Y-132128000D01*
X62808750Y-132128000D01*
X62777000Y-132159750D01*
X62523000Y-132159750D01*
X62491250Y-132128000D01*
X61724738Y-132128000D01*
X61678060Y-132147335D01*
X61642335Y-132183060D01*
X61623000Y-132229738D01*
X61467000Y-132229738D01*
X61467000Y-129347282D01*
X68881000Y-129347282D01*
X68881000Y-129596718D01*
X68976455Y-129827167D01*
X69152833Y-130003545D01*
X69383282Y-130099000D01*
X69632718Y-130099000D01*
X69863167Y-130003545D01*
X70039545Y-129827167D01*
X70135000Y-129596718D01*
X70135000Y-129347282D01*
X70039545Y-129116833D01*
X69985000Y-129062288D01*
X69985000Y-127860000D01*
X70991594Y-127860000D01*
X70991594Y-129560000D01*
X71016973Y-129687589D01*
X71089246Y-129795754D01*
X71197411Y-129868027D01*
X71325000Y-129893406D01*
X73025000Y-129893406D01*
X73152589Y-129868027D01*
X73260754Y-129795754D01*
X73333027Y-129687589D01*
X73358406Y-129560000D01*
X73358406Y-127860000D01*
X73333027Y-127732411D01*
X73260754Y-127624246D01*
X73152589Y-127551973D01*
X73025000Y-127526594D01*
X71325000Y-127526594D01*
X71197411Y-127551973D01*
X71089246Y-127624246D01*
X71016973Y-127732411D01*
X70991594Y-127860000D01*
X69985000Y-127860000D01*
X69985000Y-126170000D01*
X70974942Y-126170000D01*
X71066291Y-126629242D01*
X71326431Y-127018569D01*
X71715758Y-127278709D01*
X72059080Y-127347000D01*
X72290920Y-127347000D01*
X72634242Y-127278709D01*
X73023569Y-127018569D01*
X73283709Y-126629242D01*
X73285150Y-126622000D01*
X74146776Y-126622000D01*
X75152001Y-127627226D01*
X75152000Y-148223482D01*
X75143145Y-148268000D01*
X75166815Y-148387000D01*
X75178225Y-148444361D01*
X75278126Y-148593874D01*
X75315869Y-148619093D01*
X76676001Y-149979225D01*
X76676000Y-156859482D01*
X76667145Y-156904000D01*
X76676000Y-156948517D01*
X76702225Y-157080361D01*
X76802126Y-157229874D01*
X76839869Y-157255093D01*
X77284907Y-157700131D01*
X77310126Y-157737874D01*
X77459638Y-157837775D01*
X77591482Y-157864000D01*
X77591483Y-157864000D01*
X77635999Y-157872855D01*
X77680516Y-157864000D01*
X99435482Y-157864000D01*
X99480000Y-157872855D01*
X99656362Y-157837775D01*
X99805874Y-157737874D01*
X99905775Y-157588362D01*
X99932000Y-157456518D01*
X99940855Y-157412000D01*
X99932000Y-157367482D01*
X99932000Y-155908247D01*
X99995808Y-155812752D01*
X100067000Y-155454847D01*
X100067000Y-154999000D01*
X105113000Y-154999000D01*
X105113000Y-155349000D01*
X105239777Y-155732349D01*
X105503605Y-156038001D01*
X105855139Y-156208703D01*
X106013000Y-156209114D01*
X106013000Y-154999000D01*
X106267000Y-154999000D01*
X106267000Y-156209114D01*
X106424861Y-156208703D01*
X106776395Y-156038001D01*
X107040223Y-155732349D01*
X107167000Y-155349000D01*
X107167000Y-154999000D01*
X108613000Y-154999000D01*
X108613000Y-155349000D01*
X108739777Y-155732349D01*
X109003605Y-156038001D01*
X109355139Y-156208703D01*
X109513000Y-156209114D01*
X109513000Y-154999000D01*
X109767000Y-154999000D01*
X109767000Y-156209114D01*
X109924861Y-156208703D01*
X110276395Y-156038001D01*
X110540223Y-155732349D01*
X110667000Y-155349000D01*
X110667000Y-154999000D01*
X109767000Y-154999000D01*
X109513000Y-154999000D01*
X108613000Y-154999000D01*
X107167000Y-154999000D01*
X106267000Y-154999000D01*
X106013000Y-154999000D01*
X105113000Y-154999000D01*
X100067000Y-154999000D01*
X100067000Y-154513154D01*
X100043498Y-154395000D01*
X105113000Y-154395000D01*
X105113000Y-154745000D01*
X106013000Y-154745000D01*
X106267000Y-154745000D01*
X107167000Y-154745000D01*
X107167000Y-154395000D01*
X108613000Y-154395000D01*
X108613000Y-154745000D01*
X109513000Y-154745000D01*
X109767000Y-154745000D01*
X110667000Y-154745000D01*
X110667000Y-154395000D01*
X110540223Y-154011651D01*
X110276395Y-153705999D01*
X109924861Y-153535297D01*
X109767000Y-153534886D01*
X109767000Y-154745000D01*
X109513000Y-154745000D01*
X109513000Y-153534886D01*
X109355139Y-153535297D01*
X109003605Y-153705999D01*
X108739777Y-154011651D01*
X108613000Y-154395000D01*
X107167000Y-154395000D01*
X107040223Y-154011651D01*
X106776395Y-153705999D01*
X106424861Y-153535297D01*
X106267000Y-153534886D01*
X106267000Y-154745000D01*
X106013000Y-154745000D01*
X106013000Y-153534886D01*
X105855139Y-153535297D01*
X105503605Y-153705999D01*
X105239777Y-154011651D01*
X105113000Y-154395000D01*
X100043498Y-154395000D01*
X99995808Y-154155248D01*
X99724617Y-153749383D01*
X99318752Y-153478192D01*
X98840000Y-153382962D01*
X98361249Y-153478192D01*
X97955384Y-153749383D01*
X97684192Y-154155248D01*
X97613000Y-154513153D01*
X97613000Y-155454846D01*
X97684192Y-155812751D01*
X97955383Y-156218617D01*
X98361248Y-156489808D01*
X98840000Y-156585038D01*
X99028001Y-156547642D01*
X99028001Y-156960000D01*
X77823224Y-156960000D01*
X77580000Y-156716776D01*
X77580000Y-154513153D01*
X80113000Y-154513153D01*
X80113000Y-155454846D01*
X80184192Y-155812751D01*
X80455383Y-156218617D01*
X80861248Y-156489808D01*
X81340000Y-156585038D01*
X81818751Y-156489808D01*
X82224617Y-156218617D01*
X82495808Y-155812752D01*
X82567000Y-155454847D01*
X82567000Y-154513154D01*
X82495808Y-154155248D01*
X82224617Y-153749383D01*
X81818752Y-153478192D01*
X81340000Y-153382962D01*
X80861249Y-153478192D01*
X80455384Y-153749383D01*
X80184192Y-154155248D01*
X80113000Y-154513153D01*
X77580000Y-154513153D01*
X77580000Y-149836516D01*
X77588855Y-149791999D01*
X77580000Y-149747482D01*
X77553775Y-149615638D01*
X77453874Y-149466126D01*
X77416131Y-149440907D01*
X76056000Y-148080776D01*
X76056000Y-143359282D01*
X76713000Y-143359282D01*
X76713000Y-143608718D01*
X76808455Y-143839167D01*
X76863000Y-143893712D01*
X76863001Y-146937024D01*
X76853657Y-146984000D01*
X76890677Y-147170115D01*
X76955062Y-147266473D01*
X76996104Y-147327897D01*
X77035927Y-147354506D01*
X77863000Y-148181580D01*
X77863001Y-149574287D01*
X77808455Y-149628833D01*
X77713000Y-149859282D01*
X77713000Y-150108718D01*
X77808455Y-150339167D01*
X77984833Y-150515545D01*
X78215282Y-150611000D01*
X78464718Y-150611000D01*
X78695167Y-150515545D01*
X78871545Y-150339167D01*
X78967000Y-150108718D01*
X78967000Y-149859282D01*
X82713000Y-149859282D01*
X82713000Y-150108718D01*
X82808455Y-150339167D01*
X82984833Y-150515545D01*
X83215282Y-150611000D01*
X83292421Y-150611000D01*
X84363000Y-151681580D01*
X84363001Y-153477844D01*
X84361249Y-153478192D01*
X83955384Y-153749383D01*
X83684192Y-154155248D01*
X83613000Y-154513153D01*
X83613000Y-155454846D01*
X83684192Y-155812751D01*
X83955383Y-156218617D01*
X84361248Y-156489808D01*
X84840000Y-156585038D01*
X85318751Y-156489808D01*
X85724617Y-156218617D01*
X85995808Y-155812752D01*
X86067000Y-155454847D01*
X86067000Y-154513154D01*
X86067000Y-154513153D01*
X87113000Y-154513153D01*
X87113000Y-155454846D01*
X87184192Y-155812751D01*
X87455383Y-156218617D01*
X87861248Y-156489808D01*
X88340000Y-156585038D01*
X88818751Y-156489808D01*
X89224617Y-156218617D01*
X89495808Y-155812752D01*
X89567000Y-155454847D01*
X89567000Y-154513154D01*
X89495808Y-154155248D01*
X89224617Y-153749383D01*
X88818752Y-153478192D01*
X88817000Y-153477844D01*
X88817000Y-151681579D01*
X89887580Y-150611000D01*
X89964718Y-150611000D01*
X90195167Y-150515545D01*
X90371545Y-150339167D01*
X90467000Y-150108718D01*
X90467000Y-149859282D01*
X90371545Y-149628833D01*
X90195167Y-149452455D01*
X89964718Y-149357000D01*
X89715282Y-149357000D01*
X89484833Y-149452455D01*
X89308455Y-149628833D01*
X89213000Y-149859282D01*
X89213000Y-149936420D01*
X88035929Y-151113492D01*
X87996103Y-151140103D01*
X87890677Y-151297885D01*
X87863000Y-151437026D01*
X87863000Y-151437029D01*
X87853657Y-151484000D01*
X87863000Y-151530971D01*
X87863001Y-153477844D01*
X87861249Y-153478192D01*
X87455384Y-153749383D01*
X87184192Y-154155248D01*
X87113000Y-154513153D01*
X86067000Y-154513153D01*
X85995808Y-154155248D01*
X85724617Y-153749383D01*
X85318752Y-153478192D01*
X85317000Y-153477844D01*
X85317000Y-151530969D01*
X85326343Y-151483999D01*
X85317000Y-151437029D01*
X85317000Y-151437025D01*
X85289323Y-151297884D01*
X85183897Y-151140103D01*
X85144075Y-151113495D01*
X83967000Y-149936421D01*
X83967000Y-149859282D01*
X83871545Y-149628833D01*
X83695167Y-149452455D01*
X83464718Y-149357000D01*
X83215282Y-149357000D01*
X82984833Y-149452455D01*
X82808455Y-149628833D01*
X82713000Y-149859282D01*
X78967000Y-149859282D01*
X78871545Y-149628833D01*
X78817000Y-149574288D01*
X78817000Y-148030975D01*
X78826344Y-147984000D01*
X78789323Y-147797884D01*
X78710506Y-147679926D01*
X78683897Y-147640103D01*
X78644075Y-147613495D01*
X77817000Y-146786421D01*
X77817000Y-143893712D01*
X77871545Y-143839167D01*
X77967000Y-143608718D01*
X77967000Y-143359282D01*
X77871545Y-143128833D01*
X77695167Y-142952455D01*
X77464718Y-142857000D01*
X77215282Y-142857000D01*
X76984833Y-142952455D01*
X76808455Y-143128833D01*
X76713000Y-143359282D01*
X76056000Y-143359282D01*
X76056000Y-128075000D01*
X77324942Y-128075000D01*
X77416291Y-128534242D01*
X77676431Y-128923569D01*
X78065758Y-129183709D01*
X78409080Y-129252000D01*
X78640920Y-129252000D01*
X78984242Y-129183709D01*
X79373569Y-128923569D01*
X79633709Y-128534242D01*
X79725058Y-128075000D01*
X79864942Y-128075000D01*
X79956291Y-128534242D01*
X80216431Y-128923569D01*
X80605758Y-129183709D01*
X80613000Y-129185150D01*
X80613001Y-143524477D01*
X80604145Y-143569000D01*
X80639225Y-143745361D01*
X80713909Y-143857133D01*
X80739127Y-143894874D01*
X80776867Y-143920091D01*
X82597000Y-145740225D01*
X82597000Y-145852718D01*
X82692455Y-146083167D01*
X82868833Y-146259545D01*
X83099282Y-146355000D01*
X83348718Y-146355000D01*
X83579167Y-146259545D01*
X83658712Y-146180000D01*
X90409288Y-146180000D01*
X90488833Y-146259545D01*
X90719282Y-146355000D01*
X90968718Y-146355000D01*
X91199167Y-146259545D01*
X91375545Y-146083167D01*
X91383000Y-146065169D01*
X91383001Y-153473865D01*
X91361249Y-153478192D01*
X90955384Y-153749383D01*
X90684192Y-154155248D01*
X90613000Y-154513153D01*
X90613000Y-155454846D01*
X90684192Y-155812751D01*
X90955383Y-156218617D01*
X91361248Y-156489808D01*
X91840000Y-156585038D01*
X92318751Y-156489808D01*
X92724617Y-156218617D01*
X92995808Y-155812752D01*
X93067000Y-155454847D01*
X93067000Y-154513154D01*
X93067000Y-154513153D01*
X94113000Y-154513153D01*
X94113000Y-155454846D01*
X94184192Y-155812751D01*
X94455383Y-156218617D01*
X94861248Y-156489808D01*
X95340000Y-156585038D01*
X95818751Y-156489808D01*
X96224617Y-156218617D01*
X96495808Y-155812752D01*
X96567000Y-155454847D01*
X96567000Y-154513154D01*
X96495808Y-154155248D01*
X96224617Y-153749383D01*
X96147000Y-153697521D01*
X96147000Y-152275579D01*
X98768074Y-149654506D01*
X98807897Y-149627897D01*
X98913323Y-149470116D01*
X98941000Y-149330975D01*
X98950344Y-149284000D01*
X98941000Y-149237025D01*
X98941000Y-149188750D01*
X107100000Y-149188750D01*
X107100000Y-150198262D01*
X107119335Y-150244940D01*
X107155060Y-150280665D01*
X107201738Y-150300000D01*
X108211250Y-150300000D01*
X108243000Y-150268250D01*
X108243000Y-149157000D01*
X107131750Y-149157000D01*
X107100000Y-149188750D01*
X98941000Y-149188750D01*
X98941000Y-147861738D01*
X107100000Y-147861738D01*
X107100000Y-148871250D01*
X107131750Y-148903000D01*
X108243000Y-148903000D01*
X108243000Y-147791750D01*
X108497000Y-147791750D01*
X108497000Y-148903000D01*
X108517000Y-148903000D01*
X108517000Y-149157000D01*
X108497000Y-149157000D01*
X108497000Y-150268250D01*
X108528750Y-150300000D01*
X109538262Y-150300000D01*
X109558819Y-150291485D01*
X109594746Y-150345254D01*
X109702911Y-150417527D01*
X109830500Y-150442906D01*
X111989500Y-150442906D01*
X112117089Y-150417527D01*
X112225254Y-150345254D01*
X112297527Y-150237089D01*
X112322906Y-150109500D01*
X112322906Y-147950500D01*
X112297527Y-147822911D01*
X112225254Y-147714746D01*
X112117089Y-147642473D01*
X111989500Y-147617094D01*
X111987000Y-147617094D01*
X111987000Y-146936107D01*
X112392349Y-146530758D01*
X112697770Y-146470006D01*
X113136713Y-146176713D01*
X113430006Y-145737770D01*
X113490758Y-145432349D01*
X116041551Y-142881557D01*
X116131473Y-142821473D01*
X116369511Y-142465224D01*
X116432000Y-142151072D01*
X116432000Y-142151067D01*
X116453098Y-142045001D01*
X116432000Y-141938934D01*
X116432000Y-122466066D01*
X116453098Y-122359999D01*
X116432000Y-122253933D01*
X116432000Y-122253928D01*
X116369511Y-121939776D01*
X116131473Y-121583527D01*
X116041551Y-121523444D01*
X113016559Y-118498452D01*
X112956473Y-118408527D01*
X112600224Y-118170489D01*
X112578856Y-118166239D01*
X112373752Y-118029192D01*
X112015847Y-117958000D01*
X111074153Y-117958000D01*
X110716248Y-118029192D01*
X110310383Y-118300383D01*
X110039192Y-118706248D01*
X109943962Y-119185000D01*
X110039192Y-119663752D01*
X110310383Y-120069617D01*
X110716248Y-120340808D01*
X111074153Y-120412000D01*
X111883893Y-120412000D01*
X114278000Y-122806108D01*
X114278001Y-141598891D01*
X111967651Y-143909242D01*
X111662230Y-143969994D01*
X111223287Y-144263287D01*
X110929994Y-144702230D01*
X110869242Y-145007650D01*
X110223452Y-145653441D01*
X110133527Y-145713527D01*
X109895489Y-146069777D01*
X109833000Y-146383929D01*
X109833000Y-146383934D01*
X109811902Y-146490000D01*
X109833000Y-146596067D01*
X109833000Y-147617094D01*
X109830500Y-147617094D01*
X109702911Y-147642473D01*
X109594746Y-147714746D01*
X109558819Y-147768515D01*
X109538262Y-147760000D01*
X108528750Y-147760000D01*
X108497000Y-147791750D01*
X108243000Y-147791750D01*
X108211250Y-147760000D01*
X107201738Y-147760000D01*
X107155060Y-147779335D01*
X107119335Y-147815060D01*
X107100000Y-147861738D01*
X98941000Y-147861738D01*
X98941000Y-143554753D01*
X99974852Y-143554753D01*
X100101472Y-143678578D01*
X100526888Y-143820131D01*
X100974091Y-143788111D01*
X101238528Y-143678578D01*
X101365148Y-143554753D01*
X100670000Y-142859605D01*
X99974852Y-143554753D01*
X98941000Y-143554753D01*
X98941000Y-142536888D01*
X99529869Y-142536888D01*
X99561889Y-142984091D01*
X99671422Y-143248528D01*
X99795247Y-143375148D01*
X100490395Y-142680000D01*
X100849605Y-142680000D01*
X101544753Y-143375148D01*
X101668578Y-143248528D01*
X101810131Y-142823112D01*
X101778111Y-142375909D01*
X101668578Y-142111472D01*
X101544753Y-141984852D01*
X100849605Y-142680000D01*
X100490395Y-142680000D01*
X99795247Y-141984852D01*
X99671422Y-142111472D01*
X99529869Y-142536888D01*
X98941000Y-142536888D01*
X98941000Y-141805247D01*
X99974852Y-141805247D01*
X100670000Y-142500395D01*
X101365148Y-141805247D01*
X101238528Y-141681422D01*
X100813112Y-141539869D01*
X100365909Y-141571889D01*
X100101472Y-141681422D01*
X99974852Y-141805247D01*
X98941000Y-141805247D01*
X98941000Y-140298750D01*
X105973000Y-140298750D01*
X105973000Y-141165262D01*
X105992335Y-141211940D01*
X106028060Y-141247665D01*
X106074738Y-141267000D01*
X106941250Y-141267000D01*
X106973000Y-141235250D01*
X106973000Y-140267000D01*
X107227000Y-140267000D01*
X107227000Y-141235250D01*
X107258750Y-141267000D01*
X108125262Y-141267000D01*
X108171940Y-141247665D01*
X108207665Y-141211940D01*
X108227000Y-141165262D01*
X108227000Y-140298750D01*
X108195250Y-140267000D01*
X107227000Y-140267000D01*
X106973000Y-140267000D01*
X106004750Y-140267000D01*
X105973000Y-140298750D01*
X98941000Y-140298750D01*
X98941000Y-139114738D01*
X105973000Y-139114738D01*
X105973000Y-139981250D01*
X106004750Y-140013000D01*
X106973000Y-140013000D01*
X106973000Y-139044750D01*
X107227000Y-139044750D01*
X107227000Y-140013000D01*
X108195250Y-140013000D01*
X108227000Y-139981250D01*
X108227000Y-139114738D01*
X108207665Y-139068060D01*
X108171940Y-139032335D01*
X108125262Y-139013000D01*
X107258750Y-139013000D01*
X107227000Y-139044750D01*
X106973000Y-139044750D01*
X106941250Y-139013000D01*
X106074738Y-139013000D01*
X106028060Y-139032335D01*
X105992335Y-139068060D01*
X105973000Y-139114738D01*
X98941000Y-139114738D01*
X98941000Y-132124753D01*
X99974852Y-132124753D01*
X100101472Y-132248578D01*
X100526888Y-132390131D01*
X100974091Y-132358111D01*
X101238528Y-132248578D01*
X101365148Y-132124753D01*
X100670000Y-131429605D01*
X99974852Y-132124753D01*
X98941000Y-132124753D01*
X98941000Y-131106888D01*
X99529869Y-131106888D01*
X99561889Y-131554091D01*
X99671422Y-131818528D01*
X99795247Y-131945148D01*
X100490395Y-131250000D01*
X100849605Y-131250000D01*
X101544753Y-131945148D01*
X101668578Y-131818528D01*
X101810131Y-131393112D01*
X101808978Y-131377000D01*
X104988594Y-131377000D01*
X104988594Y-133663000D01*
X105013973Y-133790589D01*
X105086246Y-133898754D01*
X105194411Y-133971027D01*
X105322000Y-133996406D01*
X107608000Y-133996406D01*
X107735589Y-133971027D01*
X107823120Y-133912541D01*
X107925500Y-133932906D01*
X107928000Y-133932906D01*
X107928001Y-136858929D01*
X107906902Y-136965000D01*
X107928001Y-137071072D01*
X107949624Y-137179776D01*
X107990490Y-137385224D01*
X108168442Y-137651549D01*
X108168444Y-137651551D01*
X108228528Y-137741473D01*
X108318450Y-137801557D01*
X108563000Y-138046107D01*
X108563001Y-142233891D01*
X106887651Y-143909242D01*
X106582230Y-143969994D01*
X106143287Y-144263287D01*
X105849994Y-144702230D01*
X105747003Y-145220000D01*
X105849994Y-145737770D01*
X106143287Y-146176713D01*
X106582230Y-146470006D01*
X106969304Y-146547000D01*
X107230696Y-146547000D01*
X107617770Y-146470006D01*
X108056713Y-146176713D01*
X108350006Y-145737770D01*
X108410758Y-145432349D01*
X110326551Y-143516557D01*
X110416473Y-143456473D01*
X110654511Y-143100224D01*
X110717000Y-142786072D01*
X110717000Y-142786067D01*
X110738098Y-142680001D01*
X110717000Y-142573934D01*
X110717000Y-140140000D01*
X110827003Y-140140000D01*
X110929994Y-140657770D01*
X111223287Y-141096713D01*
X111662230Y-141390006D01*
X112049304Y-141467000D01*
X112310696Y-141467000D01*
X112697770Y-141390006D01*
X113136713Y-141096713D01*
X113430006Y-140657770D01*
X113532997Y-140140000D01*
X113430006Y-139622230D01*
X113136713Y-139183287D01*
X112697770Y-138889994D01*
X112310696Y-138813000D01*
X112049304Y-138813000D01*
X111662230Y-138889994D01*
X111223287Y-139183287D01*
X110929994Y-139622230D01*
X110827003Y-140140000D01*
X110717000Y-140140000D01*
X110717000Y-137706068D01*
X110738098Y-137600000D01*
X110717000Y-137493932D01*
X110717000Y-137493928D01*
X110654511Y-137179776D01*
X110654511Y-137179775D01*
X110476558Y-136913451D01*
X110416473Y-136823527D01*
X110326549Y-136763442D01*
X110082000Y-136518893D01*
X110082000Y-133932906D01*
X110084500Y-133932906D01*
X110212089Y-133907527D01*
X110320254Y-133835254D01*
X110392527Y-133727089D01*
X110417906Y-133599500D01*
X110417906Y-131440500D01*
X110392527Y-131312911D01*
X110320254Y-131204746D01*
X110212089Y-131132473D01*
X110084500Y-131107094D01*
X110082000Y-131107094D01*
X110082000Y-128521107D01*
X111111558Y-127491550D01*
X111289510Y-127225225D01*
X111373098Y-126805001D01*
X111289510Y-126384776D01*
X111051473Y-126028527D01*
X110695224Y-125790490D01*
X110274999Y-125706902D01*
X109854775Y-125790490D01*
X109588450Y-125968442D01*
X108318450Y-127238443D01*
X108228528Y-127298527D01*
X108168444Y-127388449D01*
X108168442Y-127388451D01*
X108099554Y-127491550D01*
X107990490Y-127654776D01*
X107943836Y-127889323D01*
X107906902Y-128075000D01*
X107928001Y-128181071D01*
X107928000Y-131107094D01*
X107925500Y-131107094D01*
X107823120Y-131127459D01*
X107735589Y-131068973D01*
X107608000Y-131043594D01*
X105322000Y-131043594D01*
X105194411Y-131068973D01*
X105086246Y-131141246D01*
X105013973Y-131249411D01*
X104988594Y-131377000D01*
X101808978Y-131377000D01*
X101778111Y-130945909D01*
X101668578Y-130681472D01*
X101544753Y-130554852D01*
X100849605Y-131250000D01*
X100490395Y-131250000D01*
X99795247Y-130554852D01*
X99671422Y-130681472D01*
X99529869Y-131106888D01*
X98941000Y-131106888D01*
X98941000Y-130375247D01*
X99974852Y-130375247D01*
X100670000Y-131070395D01*
X101365148Y-130375247D01*
X101238528Y-130251422D01*
X100813112Y-130109869D01*
X100365909Y-130141889D01*
X100101472Y-130251422D01*
X99974852Y-130375247D01*
X98941000Y-130375247D01*
X98941000Y-127637579D01*
X99276071Y-127302508D01*
X99315897Y-127275897D01*
X99421323Y-127118116D01*
X99449000Y-126978975D01*
X99449000Y-126978971D01*
X99458343Y-126932001D01*
X99449000Y-126885031D01*
X99449000Y-121366976D01*
X100448084Y-121366976D01*
X100526637Y-121556657D01*
X100770558Y-121849616D01*
X101108022Y-122026931D01*
X101258000Y-122026975D01*
X101258000Y-121217000D01*
X101512000Y-121217000D01*
X101512000Y-122026975D01*
X101661978Y-122026931D01*
X101999442Y-121849616D01*
X102243363Y-121556657D01*
X102321916Y-121366976D01*
X102321680Y-121217000D01*
X101512000Y-121217000D01*
X101258000Y-121217000D01*
X100448320Y-121217000D01*
X100448084Y-121366976D01*
X99449000Y-121366976D01*
X99449000Y-120813024D01*
X100448084Y-120813024D01*
X100448320Y-120963000D01*
X101258000Y-120963000D01*
X101512000Y-120963000D01*
X102321680Y-120963000D01*
X102321916Y-120813024D01*
X102243363Y-120623343D01*
X101999442Y-120330384D01*
X101661978Y-120153069D01*
X101512000Y-120153025D01*
X101512000Y-120963000D01*
X101258000Y-120963000D01*
X101258000Y-120153025D01*
X101108022Y-120153069D01*
X100770558Y-120330384D01*
X100526637Y-120623343D01*
X100448084Y-120813024D01*
X99449000Y-120813024D01*
X99449000Y-119509579D01*
X99931580Y-119027000D01*
X100201594Y-119027000D01*
X100201594Y-119400000D01*
X100226973Y-119527589D01*
X100299246Y-119635754D01*
X100407411Y-119708027D01*
X100535000Y-119733406D01*
X102235000Y-119733406D01*
X102362589Y-119708027D01*
X102470754Y-119635754D01*
X102543027Y-119527589D01*
X102568406Y-119400000D01*
X102568406Y-117700000D01*
X102543027Y-117572411D01*
X102470754Y-117464246D01*
X102362589Y-117391973D01*
X102235000Y-117366594D01*
X100535000Y-117366594D01*
X100407411Y-117391973D01*
X100299246Y-117464246D01*
X100226973Y-117572411D01*
X100201594Y-117700000D01*
X100201594Y-118073000D01*
X99780971Y-118073000D01*
X99734000Y-118063657D01*
X99687029Y-118073000D01*
X99687025Y-118073000D01*
X99547884Y-118100677D01*
X99443402Y-118170490D01*
X99390103Y-118206103D01*
X99363494Y-118245926D01*
X98667928Y-118941492D01*
X98628103Y-118968103D01*
X98522677Y-119125885D01*
X98495000Y-119265026D01*
X98495000Y-119265029D01*
X98485657Y-119312000D01*
X98495000Y-119358971D01*
X98495001Y-126734420D01*
X98159929Y-127069492D01*
X98120103Y-127096103D01*
X98014677Y-127253885D01*
X97987000Y-127393026D01*
X97987000Y-127393029D01*
X97977657Y-127440000D01*
X97987000Y-127486971D01*
X97987001Y-149086419D01*
X95365929Y-151707492D01*
X95326103Y-151734103D01*
X95220677Y-151891885D01*
X95193000Y-152031026D01*
X95193000Y-152031029D01*
X95183657Y-152078000D01*
X95193000Y-152124971D01*
X95193000Y-153412202D01*
X94861249Y-153478192D01*
X94455384Y-153749383D01*
X94184192Y-154155248D01*
X94113000Y-154513153D01*
X93067000Y-154513153D01*
X92995808Y-154155248D01*
X92724617Y-153749383D01*
X92337000Y-153490385D01*
X92337000Y-145266971D01*
X92346343Y-145220000D01*
X92337000Y-145173029D01*
X92337000Y-145173025D01*
X92309323Y-145033884D01*
X92203897Y-144876103D01*
X92164075Y-144849495D01*
X91214508Y-143899929D01*
X91187897Y-143860103D01*
X91030116Y-143754677D01*
X90890975Y-143727000D01*
X90890971Y-143727000D01*
X90844000Y-143717657D01*
X90797029Y-143727000D01*
X90533579Y-143727000D01*
X90305000Y-143498421D01*
X90305000Y-143063282D01*
X90979000Y-143063282D01*
X90979000Y-143312718D01*
X91074455Y-143543167D01*
X91250833Y-143719545D01*
X91481282Y-143815000D01*
X91730718Y-143815000D01*
X91961167Y-143719545D01*
X92137545Y-143543167D01*
X92233000Y-143312718D01*
X92233000Y-143063282D01*
X92137545Y-142832833D01*
X92083000Y-142778288D01*
X92083000Y-141680000D01*
X94336594Y-141680000D01*
X94336594Y-143680000D01*
X94361973Y-143807589D01*
X94434246Y-143915754D01*
X94542411Y-143988027D01*
X94670000Y-144013406D01*
X96670000Y-144013406D01*
X96797589Y-143988027D01*
X96905754Y-143915754D01*
X96978027Y-143807589D01*
X97003406Y-143680000D01*
X97003406Y-141680000D01*
X96978027Y-141552411D01*
X96905754Y-141444246D01*
X96797589Y-141371973D01*
X96670000Y-141346594D01*
X94670000Y-141346594D01*
X94542411Y-141371973D01*
X94434246Y-141444246D01*
X94361973Y-141552411D01*
X94336594Y-141680000D01*
X92083000Y-141680000D01*
X92083000Y-140337579D01*
X92418071Y-140002508D01*
X92457897Y-139975897D01*
X92563323Y-139818116D01*
X92591000Y-139678975D01*
X92591000Y-139678971D01*
X92600343Y-139632001D01*
X92591000Y-139585031D01*
X92591000Y-130250000D01*
X94336594Y-130250000D01*
X94336594Y-132250000D01*
X94361973Y-132377589D01*
X94434246Y-132485754D01*
X94542411Y-132558027D01*
X94670000Y-132583406D01*
X96670000Y-132583406D01*
X96797589Y-132558027D01*
X96905754Y-132485754D01*
X96978027Y-132377589D01*
X97003406Y-132250000D01*
X97003406Y-130250000D01*
X96978027Y-130122411D01*
X96905754Y-130014246D01*
X96797589Y-129941973D01*
X96670000Y-129916594D01*
X94670000Y-129916594D01*
X94542411Y-129941973D01*
X94434246Y-130014246D01*
X94361973Y-130122411D01*
X94336594Y-130250000D01*
X92591000Y-130250000D01*
X92591000Y-126621579D01*
X93754506Y-125458074D01*
X93754508Y-125458071D01*
X97752075Y-121460505D01*
X97791897Y-121433897D01*
X97897323Y-121276116D01*
X97925000Y-121136975D01*
X97925000Y-121136971D01*
X97934343Y-121090000D01*
X97925000Y-121043029D01*
X97925000Y-113008971D01*
X97934343Y-112962000D01*
X97925000Y-112915029D01*
X97925000Y-112915025D01*
X97897323Y-112775884D01*
X97791897Y-112618103D01*
X97752074Y-112591494D01*
X97056508Y-111895928D01*
X97029897Y-111856103D01*
X96872116Y-111750677D01*
X96868712Y-111750000D01*
X96787167Y-111668455D01*
X96556718Y-111573000D01*
X96307282Y-111573000D01*
X96076833Y-111668455D01*
X95900455Y-111844833D01*
X95805000Y-112075282D01*
X95805000Y-112324718D01*
X95900455Y-112555167D01*
X96076833Y-112731545D01*
X96307282Y-112827000D01*
X96556718Y-112827000D01*
X96614491Y-112803070D01*
X96971001Y-113159581D01*
X96971000Y-114024974D01*
X96971001Y-114024979D01*
X96971000Y-120892420D01*
X93079929Y-124783492D01*
X93079926Y-124783494D01*
X91809929Y-126053492D01*
X91770103Y-126080103D01*
X91664677Y-126237885D01*
X91637000Y-126377026D01*
X91637000Y-126377029D01*
X91627657Y-126424000D01*
X91637000Y-126470971D01*
X91637001Y-139434420D01*
X91301929Y-139769492D01*
X91262103Y-139796103D01*
X91156677Y-139953885D01*
X91129000Y-140093026D01*
X91129000Y-140093029D01*
X91119657Y-140140000D01*
X91129000Y-140186971D01*
X91129001Y-142778287D01*
X91074455Y-142832833D01*
X90979000Y-143063282D01*
X90305000Y-143063282D01*
X90305000Y-139321579D01*
X91148074Y-138478506D01*
X91187897Y-138451897D01*
X91293323Y-138294116D01*
X91321000Y-138154975D01*
X91321000Y-138154971D01*
X91330343Y-138108000D01*
X91321000Y-138061029D01*
X91321000Y-118850969D01*
X91330343Y-118803999D01*
X91321000Y-118757029D01*
X91321000Y-118757025D01*
X91293323Y-118617884D01*
X91187897Y-118460103D01*
X91148072Y-118433493D01*
X90963000Y-118248421D01*
X90963000Y-118171282D01*
X90867545Y-117940833D01*
X90691167Y-117764455D01*
X90460718Y-117669000D01*
X90211282Y-117669000D01*
X89980833Y-117764455D01*
X89804455Y-117940833D01*
X89709000Y-118171282D01*
X89709000Y-118420718D01*
X89804455Y-118651167D01*
X89980833Y-118827545D01*
X90211282Y-118923000D01*
X90288421Y-118923000D01*
X90367000Y-119001579D01*
X90367001Y-130140289D01*
X90310167Y-130083455D01*
X90079718Y-129988000D01*
X89830282Y-129988000D01*
X89599833Y-130083455D01*
X89423455Y-130259833D01*
X89328000Y-130490282D01*
X89328000Y-130739718D01*
X89378000Y-130860429D01*
X89378000Y-137360999D01*
X88317186Y-138421814D01*
X88269007Y-138454006D01*
X88146297Y-138637656D01*
X88141479Y-138644866D01*
X88096696Y-138870000D01*
X88108001Y-138926832D01*
X88108000Y-140535999D01*
X87176000Y-141468000D01*
X85120429Y-141468000D01*
X84999718Y-141418000D01*
X84750282Y-141418000D01*
X84519833Y-141513455D01*
X84343455Y-141689833D01*
X84248000Y-141920282D01*
X84248000Y-142169718D01*
X84343455Y-142400167D01*
X84519833Y-142576545D01*
X84750282Y-142672000D01*
X84999718Y-142672000D01*
X85120429Y-142622000D01*
X87358172Y-142622000D01*
X87415000Y-142633304D01*
X87471828Y-142622000D01*
X87471829Y-142622000D01*
X87640134Y-142588522D01*
X87830994Y-142460994D01*
X87863188Y-142412812D01*
X89052815Y-141223186D01*
X89100994Y-141190994D01*
X89228522Y-141000134D01*
X89262000Y-140831829D01*
X89262000Y-140831828D01*
X89273304Y-140775001D01*
X89262000Y-140718173D01*
X89262000Y-139109000D01*
X89365160Y-139005840D01*
X89351000Y-139077026D01*
X89351000Y-139077029D01*
X89341657Y-139124000D01*
X89351000Y-139170971D01*
X89351001Y-143649024D01*
X89341657Y-143696000D01*
X89378677Y-143882115D01*
X89449446Y-143988027D01*
X89484104Y-144039897D01*
X89523927Y-144066506D01*
X89965492Y-144508071D01*
X89992103Y-144547897D01*
X90149884Y-144653323D01*
X90289025Y-144681000D01*
X90289029Y-144681000D01*
X90335999Y-144690343D01*
X90382969Y-144681000D01*
X90646421Y-144681000D01*
X91135506Y-145170086D01*
X90968718Y-145101000D01*
X90719282Y-145101000D01*
X90488833Y-145196455D01*
X90409288Y-145276000D01*
X83658712Y-145276000D01*
X83579167Y-145196455D01*
X83348718Y-145101000D01*
X83236225Y-145101000D01*
X81517000Y-143381776D01*
X81517000Y-129185150D01*
X81524242Y-129183709D01*
X81913569Y-128923569D01*
X82173709Y-128534242D01*
X82233480Y-128233750D01*
X82628000Y-128233750D01*
X82628000Y-128950262D01*
X82647335Y-128996940D01*
X82683060Y-129032665D01*
X82729738Y-129052000D01*
X83446250Y-129052000D01*
X83478000Y-129020250D01*
X83478000Y-128202000D01*
X83732000Y-128202000D01*
X83732000Y-129020250D01*
X83763750Y-129052000D01*
X84480262Y-129052000D01*
X84526940Y-129032665D01*
X84562665Y-128996940D01*
X84582000Y-128950262D01*
X84582000Y-128233750D01*
X84550250Y-128202000D01*
X83732000Y-128202000D01*
X83478000Y-128202000D01*
X82659750Y-128202000D01*
X82628000Y-128233750D01*
X82233480Y-128233750D01*
X82265058Y-128075000D01*
X82173709Y-127615758D01*
X81913569Y-127226431D01*
X81873621Y-127199738D01*
X82628000Y-127199738D01*
X82628000Y-127916250D01*
X82659750Y-127948000D01*
X83478000Y-127948000D01*
X83478000Y-127129750D01*
X83732000Y-127129750D01*
X83732000Y-127948000D01*
X84550250Y-127948000D01*
X84582000Y-127916250D01*
X84582000Y-127199738D01*
X84562665Y-127153060D01*
X84526940Y-127117335D01*
X84480262Y-127098000D01*
X83763750Y-127098000D01*
X83732000Y-127129750D01*
X83478000Y-127129750D01*
X83446250Y-127098000D01*
X82729738Y-127098000D01*
X82683060Y-127117335D01*
X82647335Y-127153060D01*
X82628000Y-127199738D01*
X81873621Y-127199738D01*
X81524242Y-126966291D01*
X81180920Y-126898000D01*
X80949080Y-126898000D01*
X80605758Y-126966291D01*
X80216431Y-127226431D01*
X79956291Y-127615758D01*
X79864942Y-128075000D01*
X79725058Y-128075000D01*
X79633709Y-127615758D01*
X79373569Y-127226431D01*
X79102000Y-127044974D01*
X79102000Y-126409001D01*
X79399001Y-126112000D01*
X85271000Y-126112000D01*
X86795748Y-127636748D01*
X86723510Y-127811145D01*
X86723510Y-128338855D01*
X86925456Y-128826396D01*
X87298604Y-129199544D01*
X87786145Y-129401490D01*
X88313855Y-129401490D01*
X88801396Y-129199544D01*
X89174544Y-128826396D01*
X89376490Y-128338855D01*
X89376490Y-127811145D01*
X89174544Y-127323604D01*
X88801396Y-126950456D01*
X88313855Y-126748510D01*
X87786145Y-126748510D01*
X87611748Y-126820748D01*
X85958188Y-125167188D01*
X85925994Y-125119006D01*
X85735134Y-124991478D01*
X85566829Y-124958000D01*
X85566828Y-124958000D01*
X85510000Y-124946696D01*
X85453172Y-124958000D01*
X79216829Y-124958000D01*
X79160000Y-124946696D01*
X78934865Y-124991478D01*
X78792183Y-125086815D01*
X78744006Y-125119006D01*
X78711815Y-125167183D01*
X78157185Y-125721814D01*
X78109007Y-125754006D01*
X77981478Y-125944866D01*
X77954578Y-126080103D01*
X77936696Y-126170000D01*
X77948000Y-126226828D01*
X77948000Y-126861828D01*
X77948001Y-126861833D01*
X77948001Y-127044974D01*
X77676431Y-127226431D01*
X77416291Y-127615758D01*
X77324942Y-128075000D01*
X76056000Y-128075000D01*
X76056000Y-127484516D01*
X76064855Y-127439999D01*
X76054601Y-127388451D01*
X76029775Y-127263638D01*
X75929874Y-127114126D01*
X75892133Y-127088909D01*
X74685093Y-125881869D01*
X74659874Y-125844126D01*
X74510362Y-125744225D01*
X74378518Y-125718000D01*
X74334000Y-125709145D01*
X74289482Y-125718000D01*
X73285150Y-125718000D01*
X73283709Y-125710758D01*
X73023569Y-125321431D01*
X72634242Y-125061291D01*
X72290920Y-124993000D01*
X72059080Y-124993000D01*
X71715758Y-125061291D01*
X71326431Y-125321431D01*
X71066291Y-125710758D01*
X70974942Y-126170000D01*
X69985000Y-126170000D01*
X69985000Y-122811579D01*
X74277579Y-118519000D01*
X75017710Y-118519000D01*
X75072455Y-118651167D01*
X75248833Y-118827545D01*
X75479282Y-118923000D01*
X75728718Y-118923000D01*
X75959167Y-118827545D01*
X76135545Y-118651167D01*
X76143000Y-118633168D01*
X76143000Y-119114420D01*
X72695319Y-122562102D01*
X72634242Y-122521291D01*
X72290920Y-122453000D01*
X72059080Y-122453000D01*
X71715758Y-122521291D01*
X71326431Y-122781431D01*
X71066291Y-123170758D01*
X70974942Y-123630000D01*
X71066291Y-124089242D01*
X71326431Y-124478569D01*
X71715758Y-124738709D01*
X72059080Y-124807000D01*
X72290920Y-124807000D01*
X72634242Y-124738709D01*
X73023569Y-124478569D01*
X73283709Y-124089242D01*
X73375058Y-123630000D01*
X73308946Y-123297633D01*
X73609297Y-122997282D01*
X74723000Y-122997282D01*
X74723000Y-123246718D01*
X74818455Y-123477167D01*
X74994833Y-123653545D01*
X75225282Y-123749000D01*
X75474718Y-123749000D01*
X75705167Y-123653545D01*
X75881545Y-123477167D01*
X75977000Y-123246718D01*
X75977000Y-123169579D01*
X77940075Y-121206505D01*
X77979897Y-121179897D01*
X78085323Y-121022116D01*
X78113000Y-120882975D01*
X78113000Y-120882972D01*
X78122343Y-120836001D01*
X78113000Y-120789030D01*
X78113000Y-116969579D01*
X84437580Y-110645000D01*
X96022288Y-110645000D01*
X96076833Y-110699545D01*
X96307282Y-110795000D01*
X96556718Y-110795000D01*
X96787167Y-110699545D01*
X96963545Y-110523167D01*
X97059000Y-110292718D01*
X97059000Y-110043282D01*
X96963545Y-109812833D01*
X96787167Y-109636455D01*
X96556718Y-109541000D01*
X96307282Y-109541000D01*
X96076833Y-109636455D01*
X96022288Y-109691000D01*
X84286969Y-109691000D01*
X84239999Y-109681657D01*
X84193029Y-109691000D01*
X84193025Y-109691000D01*
X84053884Y-109718677D01*
X83896103Y-109824103D01*
X83869494Y-109863926D01*
X77331927Y-116401494D01*
X77292104Y-116428103D01*
X77265495Y-116467926D01*
X77265494Y-116467927D01*
X77186677Y-116585885D01*
X77149657Y-116772000D01*
X77159001Y-116818976D01*
X77159000Y-120638420D01*
X75302421Y-122495000D01*
X75225282Y-122495000D01*
X74994833Y-122590455D01*
X74818455Y-122766833D01*
X74723000Y-122997282D01*
X73609297Y-122997282D01*
X76924075Y-119682505D01*
X76963897Y-119655897D01*
X77069323Y-119498116D01*
X77097000Y-119358975D01*
X77097000Y-119358972D01*
X77106343Y-119312001D01*
X77097000Y-119265030D01*
X77097000Y-117326971D01*
X77106343Y-117280000D01*
X77097000Y-117233029D01*
X77097000Y-117233025D01*
X77069323Y-117093884D01*
X76963897Y-116936103D01*
X76924074Y-116909494D01*
X76231000Y-116216421D01*
X76231000Y-116139282D01*
X76135545Y-115908833D01*
X75959167Y-115732455D01*
X75728718Y-115637000D01*
X75479282Y-115637000D01*
X75248833Y-115732455D01*
X75072455Y-115908833D01*
X74977000Y-116139282D01*
X74977000Y-116388718D01*
X75072455Y-116619167D01*
X75248833Y-116795545D01*
X75479282Y-116891000D01*
X75556421Y-116891000D01*
X76143001Y-117477581D01*
X76143001Y-117958833D01*
X76135545Y-117940833D01*
X75959167Y-117764455D01*
X75728718Y-117669000D01*
X75650341Y-117669000D01*
X75536116Y-117592677D01*
X75396975Y-117565000D01*
X75396971Y-117565000D01*
X75350000Y-117555657D01*
X75303029Y-117565000D01*
X74126969Y-117565000D01*
X74079999Y-117555657D01*
X74033029Y-117565000D01*
X74033025Y-117565000D01*
X73893884Y-117592677D01*
X73736103Y-117698103D01*
X73709492Y-117737929D01*
X69203927Y-122243494D01*
X69164104Y-122270103D01*
X69137495Y-122309926D01*
X69137494Y-122309927D01*
X69058677Y-122427885D01*
X69021657Y-122614000D01*
X69031001Y-122660976D01*
X69031000Y-129062288D01*
X68976455Y-129116833D01*
X68881000Y-129347282D01*
X61467000Y-129347282D01*
X61467000Y-111184000D01*
X61935145Y-111184000D01*
X61944001Y-111228523D01*
X61944000Y-121299482D01*
X61935145Y-121344000D01*
X61957821Y-121458000D01*
X61970225Y-121520361D01*
X62070126Y-121669874D01*
X62107869Y-121695093D01*
X63568907Y-123156131D01*
X63594126Y-123193874D01*
X63743638Y-123293775D01*
X63875482Y-123320000D01*
X63875483Y-123320000D01*
X63919999Y-123328855D01*
X63964516Y-123320000D01*
X66238850Y-123320000D01*
X66240291Y-123327242D01*
X66500431Y-123716569D01*
X66889758Y-123976709D01*
X67233080Y-124045000D01*
X67464920Y-124045000D01*
X67808242Y-123976709D01*
X68197569Y-123716569D01*
X68457709Y-123327242D01*
X68549058Y-122868000D01*
X68457709Y-122408758D01*
X68197569Y-122019431D01*
X67808242Y-121759291D01*
X67464920Y-121691000D01*
X67233080Y-121691000D01*
X66889758Y-121759291D01*
X66500431Y-122019431D01*
X66240291Y-122408758D01*
X66238850Y-122416000D01*
X64107224Y-122416000D01*
X62848000Y-121156776D01*
X62848000Y-120486750D01*
X66372000Y-120486750D01*
X66372000Y-121203262D01*
X66391335Y-121249940D01*
X66427060Y-121285665D01*
X66473738Y-121305000D01*
X67190250Y-121305000D01*
X67222000Y-121273250D01*
X67222000Y-120455000D01*
X67476000Y-120455000D01*
X67476000Y-121273250D01*
X67507750Y-121305000D01*
X68224262Y-121305000D01*
X68270940Y-121285665D01*
X68306665Y-121249940D01*
X68326000Y-121203262D01*
X68326000Y-120486750D01*
X68294250Y-120455000D01*
X67476000Y-120455000D01*
X67222000Y-120455000D01*
X66403750Y-120455000D01*
X66372000Y-120486750D01*
X62848000Y-120486750D01*
X62848000Y-119452738D01*
X66372000Y-119452738D01*
X66372000Y-120169250D01*
X66403750Y-120201000D01*
X67222000Y-120201000D01*
X67222000Y-119382750D01*
X67476000Y-119382750D01*
X67476000Y-120201000D01*
X68294250Y-120201000D01*
X68326000Y-120169250D01*
X68326000Y-119452738D01*
X68306665Y-119406060D01*
X68270940Y-119370335D01*
X68224262Y-119351000D01*
X67507750Y-119351000D01*
X67476000Y-119382750D01*
X67222000Y-119382750D01*
X67190250Y-119351000D01*
X66473738Y-119351000D01*
X66427060Y-119370335D01*
X66391335Y-119406060D01*
X66372000Y-119452738D01*
X62848000Y-119452738D01*
X62848000Y-116010000D01*
X63207962Y-116010000D01*
X63303192Y-116488752D01*
X63574383Y-116894617D01*
X63980248Y-117165808D01*
X64338153Y-117237000D01*
X65279847Y-117237000D01*
X65637752Y-117165808D01*
X66043617Y-116894617D01*
X66249161Y-116587000D01*
X68562172Y-116587000D01*
X68619000Y-116598304D01*
X68675828Y-116587000D01*
X68675829Y-116587000D01*
X68844134Y-116553522D01*
X69034994Y-116425994D01*
X69067188Y-116377812D01*
X69874001Y-115571000D01*
X75104571Y-115571000D01*
X75225282Y-115621000D01*
X75474718Y-115621000D01*
X75705167Y-115525545D01*
X75881545Y-115349167D01*
X75977000Y-115118718D01*
X75977000Y-114869282D01*
X75881545Y-114638833D01*
X75705167Y-114462455D01*
X75474718Y-114367000D01*
X75225282Y-114367000D01*
X75104571Y-114417000D01*
X69691828Y-114417000D01*
X69635000Y-114405696D01*
X69578172Y-114417000D01*
X69578171Y-114417000D01*
X69409866Y-114450478D01*
X69219006Y-114578006D01*
X69186814Y-114626185D01*
X68380000Y-115433000D01*
X66249161Y-115433000D01*
X66043617Y-115125383D01*
X65637752Y-114854192D01*
X65279847Y-114783000D01*
X64338153Y-114783000D01*
X63980248Y-114854192D01*
X63574383Y-115125383D01*
X63303192Y-115531248D01*
X63207962Y-116010000D01*
X62848000Y-116010000D01*
X62848000Y-112510000D01*
X63207962Y-112510000D01*
X63303192Y-112988752D01*
X63574383Y-113394617D01*
X63980248Y-113665808D01*
X64338153Y-113737000D01*
X65279847Y-113737000D01*
X65637752Y-113665808D01*
X66043617Y-113394617D01*
X66314808Y-112988752D01*
X66356928Y-112777000D01*
X67292172Y-112777000D01*
X67349000Y-112788304D01*
X67405828Y-112777000D01*
X67405829Y-112777000D01*
X67574134Y-112743522D01*
X67764994Y-112615994D01*
X67797188Y-112567812D01*
X68604001Y-111761000D01*
X73840999Y-111761000D01*
X74133455Y-112053457D01*
X74183455Y-112174167D01*
X74359833Y-112350545D01*
X74590282Y-112446000D01*
X74839718Y-112446000D01*
X75070167Y-112350545D01*
X75246545Y-112174167D01*
X75342000Y-111943718D01*
X75342000Y-111694282D01*
X75246545Y-111463833D01*
X75070167Y-111287455D01*
X74949457Y-111237455D01*
X74528188Y-110816187D01*
X74495994Y-110768006D01*
X74305134Y-110640478D01*
X74136829Y-110607000D01*
X74136828Y-110607000D01*
X74080000Y-110595696D01*
X74023172Y-110607000D01*
X68421828Y-110607000D01*
X68365000Y-110595696D01*
X68308172Y-110607000D01*
X68308171Y-110607000D01*
X68139866Y-110640478D01*
X67949006Y-110768006D01*
X67916814Y-110816185D01*
X67110000Y-111623000D01*
X66040051Y-111623000D01*
X65637752Y-111354192D01*
X65279847Y-111283000D01*
X64338153Y-111283000D01*
X63980248Y-111354192D01*
X63574383Y-111625383D01*
X63303192Y-112031248D01*
X63207962Y-112510000D01*
X62848000Y-112510000D01*
X62848000Y-111371224D01*
X63599225Y-110620000D01*
X66923482Y-110620000D01*
X66968000Y-110628855D01*
X67012518Y-110620000D01*
X67144362Y-110593775D01*
X67293874Y-110493874D01*
X67319093Y-110456131D01*
X69012225Y-108763000D01*
X69124718Y-108763000D01*
X69355167Y-108667545D01*
X69531545Y-108491167D01*
X69627000Y-108260718D01*
X69627000Y-108011282D01*
X69531545Y-107780833D01*
X69355167Y-107604455D01*
X69124718Y-107509000D01*
X68875282Y-107509000D01*
X68644833Y-107604455D01*
X68468455Y-107780833D01*
X68373000Y-108011282D01*
X68373000Y-108123775D01*
X66780776Y-109716000D01*
X63456518Y-109716000D01*
X63412000Y-109707145D01*
X63367482Y-109716000D01*
X63235638Y-109742225D01*
X63086126Y-109842126D01*
X63060908Y-109879867D01*
X62107867Y-110832909D01*
X62070127Y-110858126D01*
X62044910Y-110895866D01*
X62044909Y-110895867D01*
X61970225Y-111007639D01*
X61935145Y-111184000D01*
X61467000Y-111184000D01*
X61467000Y-108204241D01*
X61523385Y-108340367D01*
X62318633Y-109135615D01*
X63357675Y-109566000D01*
X64482325Y-109566000D01*
X65521367Y-109135615D01*
X66316615Y-108340367D01*
X66747000Y-107301325D01*
X66747000Y-106856145D01*
X102598510Y-106856145D01*
X102598510Y-107383855D01*
X102800456Y-107871396D01*
X103173604Y-108244544D01*
X103348000Y-108316781D01*
X103348001Y-113230998D01*
X103055545Y-113523455D01*
X102934833Y-113573455D01*
X102758455Y-113749833D01*
X102663000Y-113980282D01*
X102663000Y-114229718D01*
X102758455Y-114460167D01*
X102934833Y-114636545D01*
X103165282Y-114732000D01*
X103414718Y-114732000D01*
X103535429Y-114682000D01*
X103685999Y-114682000D01*
X103983001Y-114979002D01*
X103983000Y-124146571D01*
X103933000Y-124267282D01*
X103933000Y-124516718D01*
X104028455Y-124747167D01*
X104204833Y-124923545D01*
X104435282Y-125019000D01*
X104684718Y-125019000D01*
X104915167Y-124923545D01*
X105091545Y-124747167D01*
X105187000Y-124516718D01*
X105187000Y-124267282D01*
X105137000Y-124146571D01*
X105137000Y-122685000D01*
X109943962Y-122685000D01*
X110039192Y-123163752D01*
X110310383Y-123569617D01*
X110468000Y-123674934D01*
X110468001Y-124793929D01*
X110446902Y-124900000D01*
X110530490Y-125320224D01*
X110708442Y-125586549D01*
X110708444Y-125586551D01*
X110768528Y-125676473D01*
X110858450Y-125736557D01*
X111738000Y-126616108D01*
X111738001Y-132073891D01*
X110708442Y-133103451D01*
X110530490Y-133369776D01*
X110446902Y-133790000D01*
X110530490Y-134210224D01*
X110768527Y-134566473D01*
X111124776Y-134804510D01*
X111545000Y-134888098D01*
X111965224Y-134804510D01*
X112231549Y-134626558D01*
X113501551Y-133356557D01*
X113591473Y-133296473D01*
X113829511Y-132940224D01*
X113892000Y-132626072D01*
X113892000Y-132626067D01*
X113913098Y-132520001D01*
X113892000Y-132413934D01*
X113892000Y-126276066D01*
X113913098Y-126169999D01*
X113892000Y-126063933D01*
X113892000Y-126063928D01*
X113829511Y-125749776D01*
X113686002Y-125535000D01*
X113651558Y-125483450D01*
X113651557Y-125483449D01*
X113591473Y-125393527D01*
X113501551Y-125333443D01*
X112622000Y-124453893D01*
X112622000Y-123674934D01*
X112779617Y-123569617D01*
X113050808Y-123163752D01*
X113146038Y-122685000D01*
X113050808Y-122206248D01*
X112779617Y-121800383D01*
X112373752Y-121529192D01*
X112015847Y-121458000D01*
X111074153Y-121458000D01*
X110716248Y-121529192D01*
X110310383Y-121800383D01*
X110039192Y-122206248D01*
X109943962Y-122685000D01*
X105137000Y-122685000D01*
X105137000Y-115016976D01*
X106163084Y-115016976D01*
X106241637Y-115206657D01*
X106485558Y-115499616D01*
X106823022Y-115676931D01*
X106973000Y-115676975D01*
X106973000Y-114867000D01*
X107227000Y-114867000D01*
X107227000Y-115676975D01*
X107376978Y-115676931D01*
X107714442Y-115499616D01*
X107958363Y-115206657D01*
X108036916Y-115016976D01*
X108036680Y-114867000D01*
X107227000Y-114867000D01*
X106973000Y-114867000D01*
X106163320Y-114867000D01*
X106163084Y-115016976D01*
X105137000Y-115016976D01*
X105137000Y-114796829D01*
X105148304Y-114740000D01*
X105103522Y-114514865D01*
X105068883Y-114463024D01*
X106163084Y-114463024D01*
X106163320Y-114613000D01*
X106973000Y-114613000D01*
X107227000Y-114613000D01*
X108036680Y-114613000D01*
X108036916Y-114463024D01*
X107958363Y-114273343D01*
X107714442Y-113980384D01*
X107376978Y-113803069D01*
X107227000Y-113803025D01*
X107227000Y-114613000D01*
X106973000Y-114613000D01*
X106973000Y-113803025D01*
X106823022Y-113803069D01*
X106485558Y-113980384D01*
X106241637Y-114273343D01*
X106163084Y-114463024D01*
X105068883Y-114463024D01*
X105008185Y-114372183D01*
X105008184Y-114372182D01*
X104975994Y-114324006D01*
X104927817Y-114291815D01*
X104413493Y-113777492D01*
X104468522Y-113695135D01*
X104513304Y-113470000D01*
X104502000Y-113413171D01*
X104502000Y-112200000D01*
X105899942Y-112200000D01*
X105991291Y-112659242D01*
X106251431Y-113048569D01*
X106640758Y-113308709D01*
X106984080Y-113377000D01*
X107215920Y-113377000D01*
X107559242Y-113308709D01*
X107948569Y-113048569D01*
X108208709Y-112659242D01*
X108300058Y-112200000D01*
X108208709Y-111740758D01*
X107948569Y-111351431D01*
X107559242Y-111091291D01*
X107215920Y-111023000D01*
X106984080Y-111023000D01*
X106640758Y-111091291D01*
X106251431Y-111351431D01*
X105991291Y-111740758D01*
X105899942Y-112200000D01*
X104502000Y-112200000D01*
X104502000Y-109660000D01*
X105899942Y-109660000D01*
X105991291Y-110119242D01*
X106251431Y-110508569D01*
X106640758Y-110768709D01*
X106984080Y-110837000D01*
X107215920Y-110837000D01*
X107559242Y-110768709D01*
X107948569Y-110508569D01*
X108208709Y-110119242D01*
X108300058Y-109660000D01*
X108208709Y-109200758D01*
X107948569Y-108811431D01*
X107559242Y-108551291D01*
X107215920Y-108483000D01*
X106984080Y-108483000D01*
X106640758Y-108551291D01*
X106251431Y-108811431D01*
X105991291Y-109200758D01*
X105899942Y-109660000D01*
X104502000Y-109660000D01*
X104502000Y-108316781D01*
X104676396Y-108244544D01*
X105049544Y-107871396D01*
X105251490Y-107383855D01*
X105251490Y-106856145D01*
X105049544Y-106368604D01*
X104950940Y-106270000D01*
X105916594Y-106270000D01*
X105916594Y-107970000D01*
X105941973Y-108097589D01*
X106014246Y-108205754D01*
X106122411Y-108278027D01*
X106250000Y-108303406D01*
X107950000Y-108303406D01*
X108077589Y-108278027D01*
X108185754Y-108205754D01*
X108258027Y-108097589D01*
X108283406Y-107970000D01*
X108283406Y-106270000D01*
X108258027Y-106142411D01*
X108185754Y-106034246D01*
X108077589Y-105961973D01*
X107950000Y-105936594D01*
X106250000Y-105936594D01*
X106122411Y-105961973D01*
X106014246Y-106034246D01*
X105941973Y-106142411D01*
X105916594Y-106270000D01*
X104950940Y-106270000D01*
X104676396Y-105995456D01*
X104188855Y-105793510D01*
X103661145Y-105793510D01*
X103173604Y-105995456D01*
X102800456Y-106368604D01*
X102598510Y-106856145D01*
X66747000Y-106856145D01*
X66747000Y-106176675D01*
X66316615Y-105137633D01*
X65521367Y-104342385D01*
X64962754Y-104111000D01*
X113677246Y-104111000D01*
X113118633Y-104342385D01*
M02*
