%TF.GenerationSoftware,KiCad,Pcbnew,(5.0.2)-1*%
%TF.CreationDate,2019-04-17T22:45:11+02:00*%
%TF.ProjectId,nfc-door-x4,6e66632d-646f-46f7-922d-78342e6b6963,rev?*%
%TF.SameCoordinates,Original*%
%TF.FileFunction,Legend,Bot*%
%TF.FilePolarity,Positive*%
%FSLAX46Y46*%
G04 Gerber Fmt 4.6, Leading zero omitted, Abs format (unit mm)*
G04 Created by KiCad (PCBNEW (5.0.2)-1) date 17.04.2019 22:45:11*
%MOMM*%
%LPD*%
G01*
G04 APERTURE LIST*
%ADD10C,0.200000*%
%ADD11C,0.010000*%
%ADD12C,0.120000*%
%ADD13C,0.150000*%
G04 APERTURE END LIST*
D10*
X108649523Y-151409000D02*
X108725714Y-151370904D01*
X108840000Y-151370904D01*
X108954285Y-151409000D01*
X109030476Y-151485190D01*
X109068571Y-151561380D01*
X109106666Y-151713761D01*
X109106666Y-151828047D01*
X109068571Y-151980428D01*
X109030476Y-152056619D01*
X108954285Y-152132809D01*
X108840000Y-152170904D01*
X108763809Y-152170904D01*
X108649523Y-152132809D01*
X108611428Y-152094714D01*
X108611428Y-151828047D01*
X108763809Y-151828047D01*
X108268571Y-152170904D02*
X108268571Y-151370904D01*
X107811428Y-152170904D01*
X107811428Y-151370904D01*
X107430476Y-152170904D02*
X107430476Y-151370904D01*
X107240000Y-151370904D01*
X107125714Y-151409000D01*
X107049523Y-151485190D01*
X107011428Y-151561380D01*
X106973333Y-151713761D01*
X106973333Y-151828047D01*
X107011428Y-151980428D01*
X107049523Y-152056619D01*
X107125714Y-152132809D01*
X107240000Y-152170904D01*
X107430476Y-152170904D01*
X99092857Y-149161142D02*
X99130952Y-149275428D01*
X99169047Y-149313523D01*
X99245238Y-149351619D01*
X99359523Y-149351619D01*
X99435714Y-149313523D01*
X99473809Y-149275428D01*
X99511904Y-149199238D01*
X99511904Y-148894476D01*
X98711904Y-148894476D01*
X98711904Y-149161142D01*
X98750000Y-149237333D01*
X98788095Y-149275428D01*
X98864285Y-149313523D01*
X98940476Y-149313523D01*
X99016666Y-149275428D01*
X99054761Y-149237333D01*
X99092857Y-149161142D01*
X99092857Y-148894476D01*
X98711904Y-149694476D02*
X99359523Y-149694476D01*
X99435714Y-149732571D01*
X99473809Y-149770666D01*
X99511904Y-149846857D01*
X99511904Y-149999238D01*
X99473809Y-150075428D01*
X99435714Y-150113523D01*
X99359523Y-150151619D01*
X98711904Y-150151619D01*
X98711904Y-150456380D02*
X98711904Y-150989714D01*
X99511904Y-150456380D01*
X99511904Y-150989714D01*
X94901904Y-148799238D02*
X95701904Y-148989714D01*
X95130476Y-149142095D01*
X95701904Y-149294476D01*
X94901904Y-149484952D01*
X94978095Y-149751619D02*
X94940000Y-149789714D01*
X94901904Y-149865904D01*
X94901904Y-150056380D01*
X94940000Y-150132571D01*
X94978095Y-150170666D01*
X95054285Y-150208761D01*
X95130476Y-150208761D01*
X95244761Y-150170666D01*
X95701904Y-149713523D01*
X95701904Y-150208761D01*
X94901904Y-150894476D02*
X94901904Y-150742095D01*
X94940000Y-150665904D01*
X94978095Y-150627809D01*
X95092380Y-150551619D01*
X95244761Y-150513523D01*
X95549523Y-150513523D01*
X95625714Y-150551619D01*
X95663809Y-150589714D01*
X95701904Y-150665904D01*
X95701904Y-150818285D01*
X95663809Y-150894476D01*
X95625714Y-150932571D01*
X95549523Y-150970666D01*
X95359047Y-150970666D01*
X95282857Y-150932571D01*
X95244761Y-150894476D01*
X95206666Y-150818285D01*
X95206666Y-150665904D01*
X95244761Y-150589714D01*
X95282857Y-150551619D01*
X95359047Y-150513523D01*
X92526904Y-149389714D02*
X92526904Y-149008761D01*
X91726904Y-149008761D01*
X92107857Y-149656380D02*
X92107857Y-149923047D01*
X92526904Y-150037333D02*
X92526904Y-149656380D01*
X91726904Y-149656380D01*
X91726904Y-150037333D01*
X92526904Y-150380190D02*
X91726904Y-150380190D01*
X91726904Y-150570666D01*
X91765000Y-150684952D01*
X91841190Y-150761142D01*
X91917380Y-150799238D01*
X92069761Y-150837333D01*
X92184047Y-150837333D01*
X92336428Y-150799238D01*
X92412619Y-150761142D01*
X92488809Y-150684952D01*
X92526904Y-150570666D01*
X92526904Y-150380190D01*
X88716904Y-149313523D02*
X87916904Y-149313523D01*
X87916904Y-149504000D01*
X87955000Y-149618285D01*
X88031190Y-149694476D01*
X88107380Y-149732571D01*
X88259761Y-149770666D01*
X88374047Y-149770666D01*
X88526428Y-149732571D01*
X88602619Y-149694476D01*
X88678809Y-149618285D01*
X88716904Y-149504000D01*
X88716904Y-149313523D01*
X88716904Y-150532571D02*
X88716904Y-150075428D01*
X88716904Y-150304000D02*
X87916904Y-150304000D01*
X88031190Y-150227809D01*
X88107380Y-150151619D01*
X88145476Y-150075428D01*
X84906904Y-149313523D02*
X84106904Y-149313523D01*
X84106904Y-149504000D01*
X84145000Y-149618285D01*
X84221190Y-149694476D01*
X84297380Y-149732571D01*
X84449761Y-149770666D01*
X84564047Y-149770666D01*
X84716428Y-149732571D01*
X84792619Y-149694476D01*
X84868809Y-149618285D01*
X84906904Y-149504000D01*
X84906904Y-149313523D01*
X84106904Y-150265904D02*
X84106904Y-150342095D01*
X84145000Y-150418285D01*
X84183095Y-150456380D01*
X84259285Y-150494476D01*
X84411666Y-150532571D01*
X84602142Y-150532571D01*
X84754523Y-150494476D01*
X84830714Y-150456380D01*
X84868809Y-150418285D01*
X84906904Y-150342095D01*
X84906904Y-150265904D01*
X84868809Y-150189714D01*
X84830714Y-150151619D01*
X84754523Y-150113523D01*
X84602142Y-150075428D01*
X84411666Y-150075428D01*
X84259285Y-150113523D01*
X84183095Y-150151619D01*
X84145000Y-150189714D01*
X84106904Y-150265904D01*
X81427142Y-145141857D02*
X81427142Y-145751380D01*
X81731904Y-145446619D02*
X81122380Y-145446619D01*
X81731904Y-146551380D02*
X81731904Y-146094238D01*
X81731904Y-146322809D02*
X80931904Y-146322809D01*
X81046190Y-146246619D01*
X81122380Y-146170428D01*
X81160476Y-146094238D01*
X81008095Y-146856142D02*
X80970000Y-146894238D01*
X80931904Y-146970428D01*
X80931904Y-147160904D01*
X80970000Y-147237095D01*
X81008095Y-147275190D01*
X81084285Y-147313285D01*
X81160476Y-147313285D01*
X81274761Y-147275190D01*
X81731904Y-146818047D01*
X81731904Y-147313285D01*
X80931904Y-147541857D02*
X81731904Y-147808523D01*
X80931904Y-148075190D01*
X80931904Y-149103761D02*
X80931904Y-149256142D01*
X80970000Y-149332333D01*
X81046190Y-149408523D01*
X81198571Y-149446619D01*
X81465238Y-149446619D01*
X81617619Y-149408523D01*
X81693809Y-149332333D01*
X81731904Y-149256142D01*
X81731904Y-149103761D01*
X81693809Y-149027571D01*
X81617619Y-148951380D01*
X81465238Y-148913285D01*
X81198571Y-148913285D01*
X81046190Y-148951380D01*
X80970000Y-149027571D01*
X80931904Y-149103761D01*
X80931904Y-149789476D02*
X81579523Y-149789476D01*
X81655714Y-149827571D01*
X81693809Y-149865666D01*
X81731904Y-149941857D01*
X81731904Y-150094238D01*
X81693809Y-150170428D01*
X81655714Y-150208523D01*
X81579523Y-150246619D01*
X80931904Y-150246619D01*
X80931904Y-150513285D02*
X80931904Y-150970428D01*
X81731904Y-150741857D02*
X80931904Y-150741857D01*
X75381904Y-148323047D02*
X74581904Y-148323047D01*
X74581904Y-148513523D01*
X74620000Y-148627809D01*
X74696190Y-148704000D01*
X74772380Y-148742095D01*
X74924761Y-148780190D01*
X75039047Y-148780190D01*
X75191428Y-148742095D01*
X75267619Y-148704000D01*
X75343809Y-148627809D01*
X75381904Y-148513523D01*
X75381904Y-148323047D01*
X75381904Y-149237333D02*
X75343809Y-149161142D01*
X75305714Y-149123047D01*
X75229523Y-149084952D01*
X75000952Y-149084952D01*
X74924761Y-149123047D01*
X74886666Y-149161142D01*
X74848571Y-149237333D01*
X74848571Y-149351619D01*
X74886666Y-149427809D01*
X74924761Y-149465904D01*
X75000952Y-149504000D01*
X75229523Y-149504000D01*
X75305714Y-149465904D01*
X75343809Y-149427809D01*
X75381904Y-149351619D01*
X75381904Y-149237333D01*
X75381904Y-149961142D02*
X75343809Y-149884952D01*
X75305714Y-149846857D01*
X75229523Y-149808761D01*
X75000952Y-149808761D01*
X74924761Y-149846857D01*
X74886666Y-149884952D01*
X74848571Y-149961142D01*
X74848571Y-150075428D01*
X74886666Y-150151619D01*
X74924761Y-150189714D01*
X75000952Y-150227809D01*
X75229523Y-150227809D01*
X75305714Y-150189714D01*
X75343809Y-150151619D01*
X75381904Y-150075428D01*
X75381904Y-149961142D01*
X75381904Y-150570666D02*
X74848571Y-150570666D01*
X75000952Y-150570666D02*
X74924761Y-150608761D01*
X74886666Y-150646857D01*
X74848571Y-150723047D01*
X74848571Y-150799238D01*
X75381904Y-151523047D02*
X75000952Y-151256380D01*
X75381904Y-151065904D02*
X74581904Y-151065904D01*
X74581904Y-151370666D01*
X74620000Y-151446857D01*
X74658095Y-151484952D01*
X74734285Y-151523047D01*
X74848571Y-151523047D01*
X74924761Y-151484952D01*
X74962857Y-151446857D01*
X75000952Y-151370666D01*
X75000952Y-151065904D01*
X71571904Y-148323047D02*
X70771904Y-148323047D01*
X70771904Y-148513523D01*
X70810000Y-148627809D01*
X70886190Y-148704000D01*
X70962380Y-148742095D01*
X71114761Y-148780190D01*
X71229047Y-148780190D01*
X71381428Y-148742095D01*
X71457619Y-148704000D01*
X71533809Y-148627809D01*
X71571904Y-148513523D01*
X71571904Y-148323047D01*
X71571904Y-149237333D02*
X71533809Y-149161142D01*
X71495714Y-149123047D01*
X71419523Y-149084952D01*
X71190952Y-149084952D01*
X71114761Y-149123047D01*
X71076666Y-149161142D01*
X71038571Y-149237333D01*
X71038571Y-149351619D01*
X71076666Y-149427809D01*
X71114761Y-149465904D01*
X71190952Y-149504000D01*
X71419523Y-149504000D01*
X71495714Y-149465904D01*
X71533809Y-149427809D01*
X71571904Y-149351619D01*
X71571904Y-149237333D01*
X71571904Y-149961142D02*
X71533809Y-149884952D01*
X71495714Y-149846857D01*
X71419523Y-149808761D01*
X71190952Y-149808761D01*
X71114761Y-149846857D01*
X71076666Y-149884952D01*
X71038571Y-149961142D01*
X71038571Y-150075428D01*
X71076666Y-150151619D01*
X71114761Y-150189714D01*
X71190952Y-150227809D01*
X71419523Y-150227809D01*
X71495714Y-150189714D01*
X71533809Y-150151619D01*
X71571904Y-150075428D01*
X71571904Y-149961142D01*
X71571904Y-150570666D02*
X71038571Y-150570666D01*
X71190952Y-150570666D02*
X71114761Y-150608761D01*
X71076666Y-150646857D01*
X71038571Y-150723047D01*
X71038571Y-150799238D01*
X71571904Y-151523047D02*
X71190952Y-151256380D01*
X71571904Y-151065904D02*
X70771904Y-151065904D01*
X70771904Y-151370666D01*
X70810000Y-151446857D01*
X70848095Y-151484952D01*
X70924285Y-151523047D01*
X71038571Y-151523047D01*
X71114761Y-151484952D01*
X71152857Y-151446857D01*
X71190952Y-151370666D01*
X71190952Y-151065904D01*
X102325000Y-149269000D02*
X106135000Y-149269000D01*
X102325000Y-139744000D02*
X102325000Y-149269000D01*
X102325000Y-132759000D02*
X102325000Y-134029000D01*
X104230000Y-132759000D02*
X102325000Y-132759000D01*
X99597857Y-140708761D02*
X99635952Y-140594476D01*
X99674047Y-140556380D01*
X99750238Y-140518285D01*
X99864523Y-140518285D01*
X99940714Y-140556380D01*
X99978809Y-140594476D01*
X100016904Y-140670666D01*
X100016904Y-140975428D01*
X99216904Y-140975428D01*
X99216904Y-140708761D01*
X99255000Y-140632571D01*
X99293095Y-140594476D01*
X99369285Y-140556380D01*
X99445476Y-140556380D01*
X99521666Y-140594476D01*
X99559761Y-140632571D01*
X99597857Y-140708761D01*
X99597857Y-140975428D01*
X100016904Y-139718285D02*
X99635952Y-139984952D01*
X100016904Y-140175428D02*
X99216904Y-140175428D01*
X99216904Y-139870666D01*
X99255000Y-139794476D01*
X99293095Y-139756380D01*
X99369285Y-139718285D01*
X99483571Y-139718285D01*
X99559761Y-139756380D01*
X99597857Y-139794476D01*
X99635952Y-139870666D01*
X99635952Y-140175428D01*
X100016904Y-139375428D02*
X99216904Y-139375428D01*
X100016904Y-138994476D02*
X99216904Y-138994476D01*
X99216904Y-138804000D01*
X99255000Y-138689714D01*
X99331190Y-138613523D01*
X99407380Y-138575428D01*
X99559761Y-138537333D01*
X99674047Y-138537333D01*
X99826428Y-138575428D01*
X99902619Y-138613523D01*
X99978809Y-138689714D01*
X100016904Y-138804000D01*
X100016904Y-138994476D01*
X99255000Y-137775428D02*
X99216904Y-137851619D01*
X99216904Y-137965904D01*
X99255000Y-138080190D01*
X99331190Y-138156380D01*
X99407380Y-138194476D01*
X99559761Y-138232571D01*
X99674047Y-138232571D01*
X99826428Y-138194476D01*
X99902619Y-138156380D01*
X99978809Y-138080190D01*
X100016904Y-137965904D01*
X100016904Y-137889714D01*
X99978809Y-137775428D01*
X99940714Y-137737333D01*
X99674047Y-137737333D01*
X99674047Y-137889714D01*
X99597857Y-137394476D02*
X99597857Y-137127809D01*
X100016904Y-137013523D02*
X100016904Y-137394476D01*
X99216904Y-137394476D01*
X99216904Y-137013523D01*
X99216904Y-135908761D02*
X99216904Y-135756380D01*
X99255000Y-135680190D01*
X99331190Y-135604000D01*
X99483571Y-135565904D01*
X99750238Y-135565904D01*
X99902619Y-135604000D01*
X99978809Y-135680190D01*
X100016904Y-135756380D01*
X100016904Y-135908761D01*
X99978809Y-135984952D01*
X99902619Y-136061142D01*
X99750238Y-136099238D01*
X99483571Y-136099238D01*
X99331190Y-136061142D01*
X99255000Y-135984952D01*
X99216904Y-135908761D01*
X100016904Y-135223047D02*
X99216904Y-135223047D01*
X100016904Y-134765904D01*
X99216904Y-134765904D01*
X100016904Y-134004000D02*
X100016904Y-134384952D01*
X99216904Y-134384952D01*
X99635952Y-133584952D02*
X100016904Y-133584952D01*
X99216904Y-133851619D02*
X99635952Y-133584952D01*
X99216904Y-133318285D01*
X100616904Y-140784952D02*
X101416904Y-140594476D01*
X100845476Y-140442095D01*
X101416904Y-140289714D01*
X100616904Y-140099238D01*
X100616904Y-139908761D02*
X100616904Y-139451619D01*
X101416904Y-139680190D02*
X100616904Y-139680190D01*
X101416904Y-139184952D02*
X100616904Y-139184952D01*
X100997857Y-139184952D02*
X100997857Y-138727809D01*
X101416904Y-138727809D02*
X100616904Y-138727809D01*
X101416904Y-137318285D02*
X101416904Y-137775428D01*
X101416904Y-137546857D02*
X100616904Y-137546857D01*
X100731190Y-137623047D01*
X100807380Y-137699238D01*
X100845476Y-137775428D01*
X100693095Y-137013523D02*
X100655000Y-136975428D01*
X100616904Y-136899238D01*
X100616904Y-136708761D01*
X100655000Y-136632571D01*
X100693095Y-136594476D01*
X100769285Y-136556380D01*
X100845476Y-136556380D01*
X100959761Y-136594476D01*
X101416904Y-137051619D01*
X101416904Y-136556380D01*
X100616904Y-136327809D02*
X101416904Y-136061142D01*
X100616904Y-135794476D01*
X101416904Y-134918285D02*
X100616904Y-134918285D01*
X100616904Y-134727809D01*
X100655000Y-134613523D01*
X100731190Y-134537333D01*
X100807380Y-134499238D01*
X100959761Y-134461142D01*
X101074047Y-134461142D01*
X101226428Y-134499238D01*
X101302619Y-134537333D01*
X101378809Y-134613523D01*
X101416904Y-134727809D01*
X101416904Y-134918285D01*
X101340714Y-133661142D02*
X101378809Y-133699238D01*
X101416904Y-133813523D01*
X101416904Y-133889714D01*
X101378809Y-134004000D01*
X101302619Y-134080190D01*
X101226428Y-134118285D01*
X101074047Y-134156380D01*
X100959761Y-134156380D01*
X100807380Y-134118285D01*
X100731190Y-134080190D01*
X100655000Y-134004000D01*
X100616904Y-133889714D01*
X100616904Y-133813523D01*
X100655000Y-133699238D01*
X100693095Y-133661142D01*
X102778809Y-139318285D02*
X102816904Y-139204000D01*
X102816904Y-139013523D01*
X102778809Y-138937333D01*
X102740714Y-138899238D01*
X102664523Y-138861142D01*
X102588333Y-138861142D01*
X102512142Y-138899238D01*
X102474047Y-138937333D01*
X102435952Y-139013523D01*
X102397857Y-139165904D01*
X102359761Y-139242095D01*
X102321666Y-139280190D01*
X102245476Y-139318285D01*
X102169285Y-139318285D01*
X102093095Y-139280190D01*
X102055000Y-139242095D01*
X102016904Y-139165904D01*
X102016904Y-138975428D01*
X102055000Y-138861142D01*
X102016904Y-138518285D02*
X102664523Y-138518285D01*
X102740714Y-138480190D01*
X102778809Y-138442095D01*
X102816904Y-138365904D01*
X102816904Y-138213523D01*
X102778809Y-138137333D01*
X102740714Y-138099238D01*
X102664523Y-138061142D01*
X102016904Y-138061142D01*
X102816904Y-137680190D02*
X102016904Y-137680190D01*
X102016904Y-137375428D01*
X102055000Y-137299238D01*
X102093095Y-137261142D01*
X102169285Y-137223047D01*
X102283571Y-137223047D01*
X102359761Y-137261142D01*
X102397857Y-137299238D01*
X102435952Y-137375428D01*
X102435952Y-137680190D01*
X102816904Y-136880190D02*
X102016904Y-136880190D01*
X102016904Y-136575428D01*
X102055000Y-136499238D01*
X102093095Y-136461142D01*
X102169285Y-136423047D01*
X102283571Y-136423047D01*
X102359761Y-136461142D01*
X102397857Y-136499238D01*
X102435952Y-136575428D01*
X102435952Y-136880190D01*
X102816904Y-135699238D02*
X102816904Y-136080190D01*
X102016904Y-136080190D01*
X102435952Y-135280190D02*
X102816904Y-135280190D01*
X102016904Y-135546857D02*
X102435952Y-135280190D01*
X102016904Y-135013523D01*
X89803809Y-139698523D02*
X89803809Y-138428523D01*
X89078095Y-139698523D01*
X89078095Y-138428523D01*
X88050000Y-139033285D02*
X88473333Y-139033285D01*
X88473333Y-139698523D02*
X88473333Y-138428523D01*
X87868571Y-138428523D01*
X86659047Y-139577571D02*
X86719523Y-139638047D01*
X86900952Y-139698523D01*
X87021904Y-139698523D01*
X87203333Y-139638047D01*
X87324285Y-139517095D01*
X87384761Y-139396142D01*
X87445238Y-139154238D01*
X87445238Y-138972809D01*
X87384761Y-138730904D01*
X87324285Y-138609952D01*
X87203333Y-138489000D01*
X87021904Y-138428523D01*
X86900952Y-138428523D01*
X86719523Y-138489000D01*
X86659047Y-138549476D01*
X86114761Y-139214714D02*
X85147142Y-139214714D01*
X84542380Y-139698523D02*
X84542380Y-138428523D01*
X84240000Y-138428523D01*
X84058571Y-138489000D01*
X83937619Y-138609952D01*
X83877142Y-138730904D01*
X83816666Y-138972809D01*
X83816666Y-139154238D01*
X83877142Y-139396142D01*
X83937619Y-139517095D01*
X84058571Y-139638047D01*
X84240000Y-139698523D01*
X84542380Y-139698523D01*
X83030476Y-138428523D02*
X82788571Y-138428523D01*
X82667619Y-138489000D01*
X82546666Y-138609952D01*
X82486190Y-138851857D01*
X82486190Y-139275190D01*
X82546666Y-139517095D01*
X82667619Y-139638047D01*
X82788571Y-139698523D01*
X83030476Y-139698523D01*
X83151428Y-139638047D01*
X83272380Y-139517095D01*
X83332857Y-139275190D01*
X83332857Y-138851857D01*
X83272380Y-138609952D01*
X83151428Y-138489000D01*
X83030476Y-138428523D01*
X81700000Y-138428523D02*
X81458095Y-138428523D01*
X81337142Y-138489000D01*
X81216190Y-138609952D01*
X81155714Y-138851857D01*
X81155714Y-139275190D01*
X81216190Y-139517095D01*
X81337142Y-139638047D01*
X81458095Y-139698523D01*
X81700000Y-139698523D01*
X81820952Y-139638047D01*
X81941904Y-139517095D01*
X82002380Y-139275190D01*
X82002380Y-138851857D01*
X81941904Y-138609952D01*
X81820952Y-138489000D01*
X81700000Y-138428523D01*
X79885714Y-139698523D02*
X80309047Y-139093761D01*
X80611428Y-139698523D02*
X80611428Y-138428523D01*
X80127619Y-138428523D01*
X80006666Y-138489000D01*
X79946190Y-138549476D01*
X79885714Y-138670428D01*
X79885714Y-138851857D01*
X79946190Y-138972809D01*
X80006666Y-139033285D01*
X80127619Y-139093761D01*
X80611428Y-139093761D01*
X78555238Y-138428523D02*
X78131904Y-139698523D01*
X77708571Y-138428523D01*
X76620000Y-139698523D02*
X77345714Y-139698523D01*
X76982857Y-139698523D02*
X76982857Y-138428523D01*
X77103809Y-138609952D01*
X77224761Y-138730904D01*
X77345714Y-138791380D01*
X76075714Y-139577571D02*
X76015238Y-139638047D01*
X76075714Y-139698523D01*
X76136190Y-139638047D01*
X76075714Y-139577571D01*
X76075714Y-139698523D01*
X75229047Y-138428523D02*
X75108095Y-138428523D01*
X74987142Y-138489000D01*
X74926666Y-138549476D01*
X74866190Y-138670428D01*
X74805714Y-138912333D01*
X74805714Y-139214714D01*
X74866190Y-139456619D01*
X74926666Y-139577571D01*
X74987142Y-139638047D01*
X75108095Y-139698523D01*
X75229047Y-139698523D01*
X75350000Y-139638047D01*
X75410476Y-139577571D01*
X75470952Y-139456619D01*
X75531428Y-139214714D01*
X75531428Y-138912333D01*
X75470952Y-138670428D01*
X75410476Y-138549476D01*
X75350000Y-138489000D01*
X75229047Y-138428523D01*
D11*
G36*
X77743506Y-131907473D02*
X77683373Y-131959122D01*
X77651139Y-132057821D01*
X77638216Y-132216590D01*
X77636000Y-132417594D01*
X77636000Y-132855154D01*
X76345590Y-132867494D01*
X75055179Y-132879834D01*
X74916840Y-133018141D01*
X74778500Y-133156448D01*
X74767293Y-134055308D01*
X74764131Y-134378863D01*
X74765264Y-134629389D01*
X74773009Y-134818496D01*
X74789684Y-134957800D01*
X74817606Y-135058911D01*
X74859091Y-135133444D01*
X74916458Y-135193012D01*
X74992023Y-135249227D01*
X75007628Y-135259813D01*
X75046770Y-135285124D01*
X75087308Y-135305571D01*
X75138177Y-135321674D01*
X75208313Y-135333951D01*
X75306652Y-135342921D01*
X75442130Y-135349104D01*
X75623682Y-135353017D01*
X75860246Y-135355179D01*
X76160755Y-135356111D01*
X76534148Y-135356329D01*
X76669923Y-135356334D01*
X77088899Y-135355689D01*
X77429864Y-135353601D01*
X77699463Y-135349843D01*
X77904343Y-135344184D01*
X78051151Y-135336397D01*
X78146532Y-135326252D01*
X78197132Y-135313521D01*
X78209330Y-135303331D01*
X78213536Y-135250548D01*
X78216895Y-135122505D01*
X78219358Y-134928604D01*
X78220874Y-134678247D01*
X78221393Y-134380837D01*
X78220863Y-134045777D01*
X78219236Y-133682469D01*
X78218585Y-133578248D01*
X78217463Y-133409000D01*
X77636000Y-133409000D01*
X77636000Y-134763667D01*
X75350000Y-134763667D01*
X75350000Y-133409000D01*
X77636000Y-133409000D01*
X78217463Y-133409000D01*
X78207500Y-131906167D01*
X77981814Y-131893252D01*
X77840124Y-131889857D01*
X77743506Y-131907473D01*
X77743506Y-131907473D01*
G37*
X77743506Y-131907473D02*
X77683373Y-131959122D01*
X77651139Y-132057821D01*
X77638216Y-132216590D01*
X77636000Y-132417594D01*
X77636000Y-132855154D01*
X76345590Y-132867494D01*
X75055179Y-132879834D01*
X74916840Y-133018141D01*
X74778500Y-133156448D01*
X74767293Y-134055308D01*
X74764131Y-134378863D01*
X74765264Y-134629389D01*
X74773009Y-134818496D01*
X74789684Y-134957800D01*
X74817606Y-135058911D01*
X74859091Y-135133444D01*
X74916458Y-135193012D01*
X74992023Y-135249227D01*
X75007628Y-135259813D01*
X75046770Y-135285124D01*
X75087308Y-135305571D01*
X75138177Y-135321674D01*
X75208313Y-135333951D01*
X75306652Y-135342921D01*
X75442130Y-135349104D01*
X75623682Y-135353017D01*
X75860246Y-135355179D01*
X76160755Y-135356111D01*
X76534148Y-135356329D01*
X76669923Y-135356334D01*
X77088899Y-135355689D01*
X77429864Y-135353601D01*
X77699463Y-135349843D01*
X77904343Y-135344184D01*
X78051151Y-135336397D01*
X78146532Y-135326252D01*
X78197132Y-135313521D01*
X78209330Y-135303331D01*
X78213536Y-135250548D01*
X78216895Y-135122505D01*
X78219358Y-134928604D01*
X78220874Y-134678247D01*
X78221393Y-134380837D01*
X78220863Y-134045777D01*
X78219236Y-133682469D01*
X78218585Y-133578248D01*
X78217463Y-133409000D01*
X77636000Y-133409000D01*
X77636000Y-134763667D01*
X75350000Y-134763667D01*
X75350000Y-133409000D01*
X77636000Y-133409000D01*
X78217463Y-133409000D01*
X78207500Y-131906167D01*
X77981814Y-131893252D01*
X77840124Y-131889857D01*
X77743506Y-131907473D01*
G36*
X80723832Y-132863851D02*
X80359625Y-132866281D01*
X80186752Y-132867655D01*
X78695867Y-132879834D01*
X78419167Y-133156524D01*
X78419167Y-135335167D01*
X79946718Y-135346271D01*
X81474268Y-135357375D01*
X81618267Y-135260334D01*
X81729252Y-135171295D01*
X81802688Y-135069439D01*
X81845643Y-134935565D01*
X81865181Y-134750469D01*
X81868710Y-134579699D01*
X81863830Y-134382667D01*
X81276667Y-134382667D01*
X81276667Y-134763667D01*
X78990667Y-134763667D01*
X78990667Y-134382667D01*
X81276667Y-134382667D01*
X81863830Y-134382667D01*
X81863356Y-134363553D01*
X81844596Y-134212146D01*
X81809653Y-134106221D01*
X81797111Y-134082966D01*
X81753130Y-134015081D01*
X81703714Y-133960676D01*
X81639531Y-133918264D01*
X81551247Y-133886360D01*
X81429529Y-133863479D01*
X81265044Y-133848134D01*
X81048460Y-133838841D01*
X80770443Y-133834113D01*
X80421661Y-133832466D01*
X80222519Y-133832334D01*
X78990667Y-133832334D01*
X78990667Y-133409000D01*
X80343844Y-133409000D01*
X80718294Y-133408791D01*
X81016995Y-133407816D01*
X81248864Y-133405552D01*
X81422819Y-133401477D01*
X81547776Y-133395067D01*
X81632653Y-133385800D01*
X81686367Y-133373154D01*
X81717836Y-133356605D01*
X81735976Y-133335632D01*
X81740844Y-133327117D01*
X81779509Y-133192396D01*
X81775316Y-133043902D01*
X81731152Y-132928663D01*
X81711550Y-132909249D01*
X81678507Y-132893736D01*
X81623556Y-132881790D01*
X81538230Y-132873075D01*
X81414061Y-132867259D01*
X81242583Y-132864006D01*
X81015329Y-132862981D01*
X80723832Y-132863851D01*
X80723832Y-132863851D01*
G37*
X80723832Y-132863851D02*
X80359625Y-132866281D01*
X80186752Y-132867655D01*
X78695867Y-132879834D01*
X78419167Y-133156524D01*
X78419167Y-135335167D01*
X79946718Y-135346271D01*
X81474268Y-135357375D01*
X81618267Y-135260334D01*
X81729252Y-135171295D01*
X81802688Y-135069439D01*
X81845643Y-134935565D01*
X81865181Y-134750469D01*
X81868710Y-134579699D01*
X81863830Y-134382667D01*
X81276667Y-134382667D01*
X81276667Y-134763667D01*
X78990667Y-134763667D01*
X78990667Y-134382667D01*
X81276667Y-134382667D01*
X81863830Y-134382667D01*
X81863356Y-134363553D01*
X81844596Y-134212146D01*
X81809653Y-134106221D01*
X81797111Y-134082966D01*
X81753130Y-134015081D01*
X81703714Y-133960676D01*
X81639531Y-133918264D01*
X81551247Y-133886360D01*
X81429529Y-133863479D01*
X81265044Y-133848134D01*
X81048460Y-133838841D01*
X80770443Y-133834113D01*
X80421661Y-133832466D01*
X80222519Y-133832334D01*
X78990667Y-133832334D01*
X78990667Y-133409000D01*
X80343844Y-133409000D01*
X80718294Y-133408791D01*
X81016995Y-133407816D01*
X81248864Y-133405552D01*
X81422819Y-133401477D01*
X81547776Y-133395067D01*
X81632653Y-133385800D01*
X81686367Y-133373154D01*
X81717836Y-133356605D01*
X81735976Y-133335632D01*
X81740844Y-133327117D01*
X81779509Y-133192396D01*
X81775316Y-133043902D01*
X81731152Y-132928663D01*
X81711550Y-132909249D01*
X81678507Y-132893736D01*
X81623556Y-132881790D01*
X81538230Y-132873075D01*
X81414061Y-132867259D01*
X81242583Y-132864006D01*
X81015329Y-132862981D01*
X80723832Y-132863851D01*
G36*
X82194856Y-131894812D02*
X82086314Y-131914817D01*
X82056397Y-131930185D01*
X82040772Y-131955170D01*
X82028009Y-132006669D01*
X82017841Y-132092194D01*
X82010000Y-132219253D01*
X82004221Y-132395357D01*
X82000234Y-132628017D01*
X81997773Y-132924741D01*
X81996571Y-133293040D01*
X81996334Y-133617384D01*
X81997066Y-134065888D01*
X81999377Y-134435363D01*
X82003434Y-134731434D01*
X82009408Y-134959725D01*
X82017468Y-135125863D01*
X82027782Y-135235473D01*
X82040521Y-135294179D01*
X82047134Y-135305533D01*
X82117970Y-135336606D01*
X82234040Y-135353119D01*
X82365863Y-135355199D01*
X82483961Y-135342968D01*
X82558853Y-135316552D01*
X82569663Y-135303331D01*
X82573869Y-135250548D01*
X82577229Y-135122505D01*
X82579692Y-134928604D01*
X82581208Y-134678247D01*
X82581726Y-134380837D01*
X82581197Y-134045777D01*
X82579569Y-133682469D01*
X82578918Y-133578248D01*
X82567834Y-131906167D01*
X82342147Y-131893252D01*
X82194856Y-131894812D01*
X82194856Y-131894812D01*
G37*
X82194856Y-131894812D02*
X82086314Y-131914817D01*
X82056397Y-131930185D01*
X82040772Y-131955170D01*
X82028009Y-132006669D01*
X82017841Y-132092194D01*
X82010000Y-132219253D01*
X82004221Y-132395357D01*
X82000234Y-132628017D01*
X81997773Y-132924741D01*
X81996571Y-133293040D01*
X81996334Y-133617384D01*
X81997066Y-134065888D01*
X81999377Y-134435363D01*
X82003434Y-134731434D01*
X82009408Y-134959725D01*
X82017468Y-135125863D01*
X82027782Y-135235473D01*
X82040521Y-135294179D01*
X82047134Y-135305533D01*
X82117970Y-135336606D01*
X82234040Y-135353119D01*
X82365863Y-135355199D01*
X82483961Y-135342968D01*
X82558853Y-135316552D01*
X82569663Y-135303331D01*
X82573869Y-135250548D01*
X82577229Y-135122505D01*
X82579692Y-134928604D01*
X82581208Y-134678247D01*
X82581726Y-134380837D01*
X82581197Y-134045777D01*
X82579569Y-133682469D01*
X82578918Y-133578248D01*
X82567834Y-131906167D01*
X82342147Y-131893252D01*
X82194856Y-131894812D01*
G36*
X82875565Y-133018131D02*
X82737167Y-133156428D01*
X82737167Y-134361500D01*
X84165917Y-134372647D01*
X85594667Y-134383793D01*
X85594667Y-134760293D01*
X84243474Y-134772563D01*
X83913329Y-134776408D01*
X83610624Y-134781556D01*
X83345672Y-134787706D01*
X83128785Y-134794553D01*
X82970276Y-134801796D01*
X82880458Y-134809131D01*
X82864081Y-134813087D01*
X82831740Y-134888002D01*
X82814278Y-135009858D01*
X82813675Y-135141919D01*
X82831905Y-135247449D01*
X82839734Y-135265564D01*
X82854440Y-135289847D01*
X82875577Y-135309360D01*
X82911772Y-135324625D01*
X82971649Y-135336163D01*
X83063837Y-135344496D01*
X83196959Y-135350145D01*
X83379643Y-135353632D01*
X83620514Y-135355478D01*
X83928199Y-135356204D01*
X84311323Y-135356333D01*
X84341063Y-135356334D01*
X84729962Y-135356220D01*
X85043370Y-135355510D01*
X85290465Y-135353648D01*
X85480423Y-135350079D01*
X85622419Y-135344249D01*
X85725632Y-135335602D01*
X85799236Y-135323584D01*
X85852409Y-135307639D01*
X85894326Y-135287212D01*
X85934165Y-135261749D01*
X85937040Y-135259813D01*
X86016103Y-135202973D01*
X86076553Y-135144858D01*
X86120708Y-135073853D01*
X86150884Y-134978345D01*
X86169400Y-134846723D01*
X86178572Y-134667372D01*
X86180717Y-134428679D01*
X86178152Y-134119032D01*
X86177374Y-134055308D01*
X86169316Y-133409000D01*
X85594667Y-133409000D01*
X85594667Y-133832334D01*
X83308667Y-133832334D01*
X83308667Y-133409000D01*
X85594667Y-133409000D01*
X86169316Y-133409000D01*
X86166167Y-133156448D01*
X86027770Y-133018141D01*
X85889372Y-132879834D01*
X83013962Y-132879834D01*
X82875565Y-133018131D01*
X82875565Y-133018131D01*
G37*
X82875565Y-133018131D02*
X82737167Y-133156428D01*
X82737167Y-134361500D01*
X84165917Y-134372647D01*
X85594667Y-134383793D01*
X85594667Y-134760293D01*
X84243474Y-134772563D01*
X83913329Y-134776408D01*
X83610624Y-134781556D01*
X83345672Y-134787706D01*
X83128785Y-134794553D01*
X82970276Y-134801796D01*
X82880458Y-134809131D01*
X82864081Y-134813087D01*
X82831740Y-134888002D01*
X82814278Y-135009858D01*
X82813675Y-135141919D01*
X82831905Y-135247449D01*
X82839734Y-135265564D01*
X82854440Y-135289847D01*
X82875577Y-135309360D01*
X82911772Y-135324625D01*
X82971649Y-135336163D01*
X83063837Y-135344496D01*
X83196959Y-135350145D01*
X83379643Y-135353632D01*
X83620514Y-135355478D01*
X83928199Y-135356204D01*
X84311323Y-135356333D01*
X84341063Y-135356334D01*
X84729962Y-135356220D01*
X85043370Y-135355510D01*
X85290465Y-135353648D01*
X85480423Y-135350079D01*
X85622419Y-135344249D01*
X85725632Y-135335602D01*
X85799236Y-135323584D01*
X85852409Y-135307639D01*
X85894326Y-135287212D01*
X85934165Y-135261749D01*
X85937040Y-135259813D01*
X86016103Y-135202973D01*
X86076553Y-135144858D01*
X86120708Y-135073853D01*
X86150884Y-134978345D01*
X86169400Y-134846723D01*
X86178572Y-134667372D01*
X86180717Y-134428679D01*
X86178152Y-134119032D01*
X86177374Y-134055308D01*
X86169316Y-133409000D01*
X85594667Y-133409000D01*
X85594667Y-133832334D01*
X83308667Y-133832334D01*
X83308667Y-133409000D01*
X85594667Y-133409000D01*
X86169316Y-133409000D01*
X86166167Y-133156448D01*
X86027770Y-133018141D01*
X85889372Y-132879834D01*
X83013962Y-132879834D01*
X82875565Y-133018131D01*
G36*
X87144752Y-132869524D02*
X86934200Y-132878426D01*
X86773765Y-132893748D01*
X86654813Y-132916754D01*
X86568709Y-132948710D01*
X86506818Y-132990884D01*
X86460507Y-133044541D01*
X86421140Y-133110947D01*
X86413666Y-133125240D01*
X86365035Y-133261688D01*
X86333297Y-133432994D01*
X86321154Y-133607992D01*
X86331312Y-133755515D01*
X86352913Y-133825319D01*
X86400444Y-133882970D01*
X86479540Y-133910336D01*
X86609133Y-133917000D01*
X86781559Y-133899705D01*
X86887389Y-133840094D01*
X86938920Y-133726583D01*
X86949334Y-133596476D01*
X86949334Y-133409000D01*
X88981334Y-133409000D01*
X88981334Y-134331867D01*
X88982967Y-134670082D01*
X88988080Y-134929816D01*
X88996993Y-135117194D01*
X89010025Y-135238344D01*
X89027496Y-135299391D01*
X89032134Y-135305533D01*
X89103169Y-135336749D01*
X89219374Y-135353258D01*
X89351264Y-135355210D01*
X89469350Y-135342758D01*
X89544147Y-135316053D01*
X89554850Y-135302845D01*
X89559802Y-135247980D01*
X89563526Y-135119822D01*
X89565937Y-134929737D01*
X89566951Y-134689092D01*
X89566482Y-134409253D01*
X89564446Y-134101585D01*
X89564104Y-134064595D01*
X89552834Y-132879834D01*
X88163459Y-132868668D01*
X87750747Y-132865911D01*
X87414056Y-132865774D01*
X87144752Y-132869524D01*
X87144752Y-132869524D01*
G37*
X87144752Y-132869524D02*
X86934200Y-132878426D01*
X86773765Y-132893748D01*
X86654813Y-132916754D01*
X86568709Y-132948710D01*
X86506818Y-132990884D01*
X86460507Y-133044541D01*
X86421140Y-133110947D01*
X86413666Y-133125240D01*
X86365035Y-133261688D01*
X86333297Y-133432994D01*
X86321154Y-133607992D01*
X86331312Y-133755515D01*
X86352913Y-133825319D01*
X86400444Y-133882970D01*
X86479540Y-133910336D01*
X86609133Y-133917000D01*
X86781559Y-133899705D01*
X86887389Y-133840094D01*
X86938920Y-133726583D01*
X86949334Y-133596476D01*
X86949334Y-133409000D01*
X88981334Y-133409000D01*
X88981334Y-134331867D01*
X88982967Y-134670082D01*
X88988080Y-134929816D01*
X88996993Y-135117194D01*
X89010025Y-135238344D01*
X89027496Y-135299391D01*
X89032134Y-135305533D01*
X89103169Y-135336749D01*
X89219374Y-135353258D01*
X89351264Y-135355210D01*
X89469350Y-135342758D01*
X89544147Y-135316053D01*
X89554850Y-135302845D01*
X89559802Y-135247980D01*
X89563526Y-135119822D01*
X89565937Y-134929737D01*
X89566951Y-134689092D01*
X89566482Y-134409253D01*
X89564446Y-134101585D01*
X89564104Y-134064595D01*
X89552834Y-132879834D01*
X88163459Y-132868668D01*
X87750747Y-132865911D01*
X87414056Y-132865774D01*
X87144752Y-132869524D01*
G36*
X92026832Y-132863851D02*
X91662625Y-132866281D01*
X91489752Y-132867655D01*
X89998867Y-132879834D01*
X89722167Y-133156524D01*
X89722167Y-135335167D01*
X91249718Y-135346271D01*
X92777268Y-135357375D01*
X92921267Y-135260334D01*
X93032252Y-135171295D01*
X93105688Y-135069439D01*
X93148643Y-134935565D01*
X93168181Y-134750469D01*
X93171710Y-134579699D01*
X93166830Y-134382667D01*
X92579667Y-134382667D01*
X92579667Y-134763667D01*
X90293667Y-134763667D01*
X90293667Y-134382667D01*
X92579667Y-134382667D01*
X93166830Y-134382667D01*
X93166356Y-134363553D01*
X93147596Y-134212146D01*
X93112653Y-134106221D01*
X93100111Y-134082966D01*
X93056130Y-134015081D01*
X93006714Y-133960676D01*
X92942531Y-133918264D01*
X92854247Y-133886360D01*
X92732529Y-133863479D01*
X92568044Y-133848134D01*
X92351460Y-133838841D01*
X92073443Y-133834113D01*
X91724661Y-133832466D01*
X91525519Y-133832334D01*
X90293667Y-133832334D01*
X90293667Y-133409000D01*
X91646844Y-133409000D01*
X92021294Y-133408791D01*
X92319995Y-133407816D01*
X92551864Y-133405552D01*
X92725819Y-133401477D01*
X92850776Y-133395067D01*
X92935653Y-133385800D01*
X92989367Y-133373154D01*
X93020836Y-133356605D01*
X93038976Y-133335632D01*
X93043844Y-133327117D01*
X93082509Y-133192396D01*
X93078316Y-133043902D01*
X93034152Y-132928663D01*
X93014550Y-132909249D01*
X92981507Y-132893736D01*
X92926556Y-132881790D01*
X92841230Y-132873075D01*
X92717061Y-132867259D01*
X92545583Y-132864006D01*
X92318329Y-132862981D01*
X92026832Y-132863851D01*
X92026832Y-132863851D01*
G37*
X92026832Y-132863851D02*
X91662625Y-132866281D01*
X91489752Y-132867655D01*
X89998867Y-132879834D01*
X89722167Y-133156524D01*
X89722167Y-135335167D01*
X91249718Y-135346271D01*
X92777268Y-135357375D01*
X92921267Y-135260334D01*
X93032252Y-135171295D01*
X93105688Y-135069439D01*
X93148643Y-134935565D01*
X93168181Y-134750469D01*
X93171710Y-134579699D01*
X93166830Y-134382667D01*
X92579667Y-134382667D01*
X92579667Y-134763667D01*
X90293667Y-134763667D01*
X90293667Y-134382667D01*
X92579667Y-134382667D01*
X93166830Y-134382667D01*
X93166356Y-134363553D01*
X93147596Y-134212146D01*
X93112653Y-134106221D01*
X93100111Y-134082966D01*
X93056130Y-134015081D01*
X93006714Y-133960676D01*
X92942531Y-133918264D01*
X92854247Y-133886360D01*
X92732529Y-133863479D01*
X92568044Y-133848134D01*
X92351460Y-133838841D01*
X92073443Y-133834113D01*
X91724661Y-133832466D01*
X91525519Y-133832334D01*
X90293667Y-133832334D01*
X90293667Y-133409000D01*
X91646844Y-133409000D01*
X92021294Y-133408791D01*
X92319995Y-133407816D01*
X92551864Y-133405552D01*
X92725819Y-133401477D01*
X92850776Y-133395067D01*
X92935653Y-133385800D01*
X92989367Y-133373154D01*
X93020836Y-133356605D01*
X93038976Y-133335632D01*
X93043844Y-133327117D01*
X93082509Y-133192396D01*
X93078316Y-133043902D01*
X93034152Y-132928663D01*
X93014550Y-132909249D01*
X92981507Y-132893736D01*
X92926556Y-132881790D01*
X92841230Y-132873075D01*
X92717061Y-132867259D01*
X92545583Y-132864006D01*
X92318329Y-132862981D01*
X92026832Y-132863851D01*
G36*
X94444091Y-132865733D02*
X94181296Y-132869655D01*
X93973034Y-132877486D01*
X93811769Y-132890086D01*
X93689968Y-132908318D01*
X93600099Y-132933042D01*
X93534628Y-132965119D01*
X93486021Y-133005412D01*
X93446744Y-133054781D01*
X93409265Y-133114086D01*
X93403307Y-133123934D01*
X93376179Y-133175786D01*
X93355291Y-133238036D01*
X93339604Y-133322475D01*
X93328076Y-133440891D01*
X93319665Y-133605075D01*
X93313332Y-133826816D01*
X93308034Y-134117903D01*
X93306494Y-134220303D01*
X93303186Y-134592103D01*
X93305386Y-134881483D01*
X93313160Y-135090514D01*
X93326573Y-135221266D01*
X93339733Y-135268053D01*
X93384686Y-135321932D01*
X93461150Y-135348605D01*
X93594275Y-135356292D01*
X93609857Y-135356334D01*
X93746129Y-135347196D01*
X93850189Y-135323834D01*
X93883534Y-135305534D01*
X93902061Y-135257333D01*
X93916077Y-135150427D01*
X93925901Y-134978689D01*
X93931852Y-134735993D01*
X93934251Y-134416213D01*
X93934334Y-134331867D01*
X93934334Y-133409000D01*
X95119667Y-133409000D01*
X95119667Y-134331867D01*
X95121301Y-134670082D01*
X95126414Y-134929816D01*
X95135326Y-135117194D01*
X95148358Y-135238344D01*
X95165829Y-135299391D01*
X95170467Y-135305533D01*
X95239532Y-135334511D01*
X95360424Y-135352905D01*
X95444144Y-135356334D01*
X95585811Y-135349337D01*
X95667319Y-135323494D01*
X95710844Y-135274450D01*
X95725685Y-135203931D01*
X95737936Y-135058779D01*
X95747148Y-134849001D01*
X95752871Y-134584605D01*
X95754667Y-134300783D01*
X95754667Y-133409000D01*
X96940000Y-133409000D01*
X96940000Y-134331867D01*
X96941634Y-134670082D01*
X96946747Y-134929816D01*
X96955660Y-135117194D01*
X96968692Y-135238344D01*
X96986162Y-135299391D01*
X96990800Y-135305533D01*
X97061835Y-135336749D01*
X97178041Y-135353258D01*
X97309931Y-135355210D01*
X97428017Y-135342758D01*
X97502814Y-135316053D01*
X97513516Y-135302845D01*
X97518468Y-135247980D01*
X97522192Y-135119822D01*
X97524604Y-134929737D01*
X97525618Y-134689092D01*
X97525149Y-134409253D01*
X97523113Y-134101585D01*
X97522771Y-134064595D01*
X97511500Y-132879834D01*
X95634998Y-132868807D01*
X95163408Y-132866171D01*
X94768950Y-132864859D01*
X94444091Y-132865733D01*
X94444091Y-132865733D01*
G37*
X94444091Y-132865733D02*
X94181296Y-132869655D01*
X93973034Y-132877486D01*
X93811769Y-132890086D01*
X93689968Y-132908318D01*
X93600099Y-132933042D01*
X93534628Y-132965119D01*
X93486021Y-133005412D01*
X93446744Y-133054781D01*
X93409265Y-133114086D01*
X93403307Y-133123934D01*
X93376179Y-133175786D01*
X93355291Y-133238036D01*
X93339604Y-133322475D01*
X93328076Y-133440891D01*
X93319665Y-133605075D01*
X93313332Y-133826816D01*
X93308034Y-134117903D01*
X93306494Y-134220303D01*
X93303186Y-134592103D01*
X93305386Y-134881483D01*
X93313160Y-135090514D01*
X93326573Y-135221266D01*
X93339733Y-135268053D01*
X93384686Y-135321932D01*
X93461150Y-135348605D01*
X93594275Y-135356292D01*
X93609857Y-135356334D01*
X93746129Y-135347196D01*
X93850189Y-135323834D01*
X93883534Y-135305534D01*
X93902061Y-135257333D01*
X93916077Y-135150427D01*
X93925901Y-134978689D01*
X93931852Y-134735993D01*
X93934251Y-134416213D01*
X93934334Y-134331867D01*
X93934334Y-133409000D01*
X95119667Y-133409000D01*
X95119667Y-134331867D01*
X95121301Y-134670082D01*
X95126414Y-134929816D01*
X95135326Y-135117194D01*
X95148358Y-135238344D01*
X95165829Y-135299391D01*
X95170467Y-135305533D01*
X95239532Y-135334511D01*
X95360424Y-135352905D01*
X95444144Y-135356334D01*
X95585811Y-135349337D01*
X95667319Y-135323494D01*
X95710844Y-135274450D01*
X95725685Y-135203931D01*
X95737936Y-135058779D01*
X95747148Y-134849001D01*
X95752871Y-134584605D01*
X95754667Y-134300783D01*
X95754667Y-133409000D01*
X96940000Y-133409000D01*
X96940000Y-134331867D01*
X96941634Y-134670082D01*
X96946747Y-134929816D01*
X96955660Y-135117194D01*
X96968692Y-135238344D01*
X96986162Y-135299391D01*
X96990800Y-135305533D01*
X97061835Y-135336749D01*
X97178041Y-135353258D01*
X97309931Y-135355210D01*
X97428017Y-135342758D01*
X97502814Y-135316053D01*
X97513516Y-135302845D01*
X97518468Y-135247980D01*
X97522192Y-135119822D01*
X97524604Y-134929737D01*
X97525618Y-134689092D01*
X97525149Y-134409253D01*
X97523113Y-134101585D01*
X97522771Y-134064595D01*
X97511500Y-132879834D01*
X95634998Y-132868807D01*
X95163408Y-132866171D01*
X94768950Y-132864859D01*
X94444091Y-132865733D01*
G36*
X75610978Y-136076000D02*
X75325328Y-136079120D01*
X75119985Y-136088687D01*
X74990808Y-136105013D01*
X74935134Y-136126800D01*
X74907391Y-136194664D01*
X74888939Y-136316668D01*
X74884334Y-136423134D01*
X74884334Y-136668667D01*
X76112000Y-136668667D01*
X76112000Y-136880334D01*
X74926667Y-136880334D01*
X74926667Y-137092000D01*
X75555106Y-137092000D01*
X75802551Y-137090933D01*
X75979350Y-137086698D01*
X76099507Y-137077743D01*
X76177028Y-137062515D01*
X76225917Y-137039462D01*
X76253606Y-137014583D01*
X76291583Y-136948518D01*
X76313693Y-136841887D01*
X76322917Y-136676548D01*
X76323667Y-136588467D01*
X76323133Y-136401040D01*
X76313604Y-136265928D01*
X76306749Y-136245334D01*
X76112000Y-136245334D01*
X76112000Y-136457000D01*
X75096000Y-136457000D01*
X75096000Y-136245334D01*
X76112000Y-136245334D01*
X76306749Y-136245334D01*
X76283196Y-136174583D01*
X76220020Y-136118459D01*
X76112190Y-136089007D01*
X75947819Y-136077680D01*
X75715020Y-136075931D01*
X75610978Y-136076000D01*
X75610978Y-136076000D01*
G37*
X75610978Y-136076000D02*
X75325328Y-136079120D01*
X75119985Y-136088687D01*
X74990808Y-136105013D01*
X74935134Y-136126800D01*
X74907391Y-136194664D01*
X74888939Y-136316668D01*
X74884334Y-136423134D01*
X74884334Y-136668667D01*
X76112000Y-136668667D01*
X76112000Y-136880334D01*
X74926667Y-136880334D01*
X74926667Y-137092000D01*
X75555106Y-137092000D01*
X75802551Y-137090933D01*
X75979350Y-137086698D01*
X76099507Y-137077743D01*
X76177028Y-137062515D01*
X76225917Y-137039462D01*
X76253606Y-137014583D01*
X76291583Y-136948518D01*
X76313693Y-136841887D01*
X76322917Y-136676548D01*
X76323667Y-136588467D01*
X76323133Y-136401040D01*
X76313604Y-136265928D01*
X76306749Y-136245334D01*
X76112000Y-136245334D01*
X76112000Y-136457000D01*
X75096000Y-136457000D01*
X75096000Y-136245334D01*
X76112000Y-136245334D01*
X76306749Y-136245334D01*
X76283196Y-136174583D01*
X76220020Y-136118459D01*
X76112190Y-136089007D01*
X75947819Y-136077680D01*
X75715020Y-136075931D01*
X75610978Y-136076000D01*
G36*
X77084178Y-136076000D02*
X76831230Y-136076496D01*
X76650751Y-136079004D01*
X76530544Y-136085051D01*
X76458411Y-136096165D01*
X76422158Y-136113873D01*
X76409585Y-136139705D01*
X76408334Y-136160667D01*
X76412609Y-136193678D01*
X76433959Y-136216774D01*
X76485174Y-136231721D01*
X76579043Y-136240282D01*
X76728354Y-136244222D01*
X76945896Y-136245303D01*
X77022167Y-136245334D01*
X77636000Y-136245334D01*
X77636000Y-136880334D01*
X76408334Y-136880334D01*
X76408334Y-137092000D01*
X77057939Y-137092000D01*
X77309847Y-137090997D01*
X77490835Y-137087003D01*
X77614639Y-137078541D01*
X77694994Y-137064133D01*
X77745632Y-137042301D01*
X77777606Y-137014583D01*
X77815583Y-136948518D01*
X77837693Y-136841887D01*
X77846917Y-136676548D01*
X77847667Y-136588467D01*
X77847459Y-136406432D01*
X77839184Y-136273504D01*
X77811366Y-136181979D01*
X77752531Y-136124157D01*
X77651203Y-136092333D01*
X77495907Y-136078806D01*
X77275167Y-136075873D01*
X77084178Y-136076000D01*
X77084178Y-136076000D01*
G37*
X77084178Y-136076000D02*
X76831230Y-136076496D01*
X76650751Y-136079004D01*
X76530544Y-136085051D01*
X76458411Y-136096165D01*
X76422158Y-136113873D01*
X76409585Y-136139705D01*
X76408334Y-136160667D01*
X76412609Y-136193678D01*
X76433959Y-136216774D01*
X76485174Y-136231721D01*
X76579043Y-136240282D01*
X76728354Y-136244222D01*
X76945896Y-136245303D01*
X77022167Y-136245334D01*
X77636000Y-136245334D01*
X77636000Y-136880334D01*
X76408334Y-136880334D01*
X76408334Y-137092000D01*
X77057939Y-137092000D01*
X77309847Y-137090997D01*
X77490835Y-137087003D01*
X77614639Y-137078541D01*
X77694994Y-137064133D01*
X77745632Y-137042301D01*
X77777606Y-137014583D01*
X77815583Y-136948518D01*
X77837693Y-136841887D01*
X77846917Y-136676548D01*
X77847667Y-136588467D01*
X77847459Y-136406432D01*
X77839184Y-136273504D01*
X77811366Y-136181979D01*
X77752531Y-136124157D01*
X77651203Y-136092333D01*
X77495907Y-136078806D01*
X77275167Y-136075873D01*
X77084178Y-136076000D01*
G36*
X78726084Y-136076648D02*
X78505359Y-136079206D01*
X78312911Y-136085786D01*
X78165611Y-136095485D01*
X78080329Y-136107401D01*
X78068417Y-136111824D01*
X78026087Y-136173729D01*
X77992536Y-136281176D01*
X77988795Y-136301676D01*
X77977242Y-136403557D01*
X77996835Y-136447133D01*
X78061179Y-136456928D01*
X78074962Y-136457000D01*
X78158294Y-136441469D01*
X78185388Y-136378896D01*
X78186334Y-136351167D01*
X78186334Y-136245334D01*
X79117667Y-136245334D01*
X79117667Y-136668667D01*
X79118311Y-136860779D01*
X79122820Y-136983683D01*
X79135057Y-137052835D01*
X79158888Y-137083695D01*
X79198177Y-137091720D01*
X79223500Y-137092000D01*
X79329334Y-137092000D01*
X79329334Y-136076000D01*
X78726084Y-136076648D01*
X78726084Y-136076648D01*
G37*
X78726084Y-136076648D02*
X78505359Y-136079206D01*
X78312911Y-136085786D01*
X78165611Y-136095485D01*
X78080329Y-136107401D01*
X78068417Y-136111824D01*
X78026087Y-136173729D01*
X77992536Y-136281176D01*
X77988795Y-136301676D01*
X77977242Y-136403557D01*
X77996835Y-136447133D01*
X78061179Y-136456928D01*
X78074962Y-136457000D01*
X78158294Y-136441469D01*
X78185388Y-136378896D01*
X78186334Y-136351167D01*
X78186334Y-136245334D01*
X79117667Y-136245334D01*
X79117667Y-136668667D01*
X79118311Y-136860779D01*
X79122820Y-136983683D01*
X79135057Y-137052835D01*
X79158888Y-137083695D01*
X79198177Y-137091720D01*
X79223500Y-137092000D01*
X79329334Y-137092000D01*
X79329334Y-136076000D01*
X78726084Y-136076648D01*
G36*
X80698472Y-136078793D02*
X80667550Y-136097744D01*
X80650562Y-136148713D01*
X80643335Y-136247559D01*
X80641694Y-136410140D01*
X80641667Y-136478167D01*
X80641667Y-136880334D01*
X79625667Y-136880334D01*
X79625667Y-136478167D01*
X79624932Y-136291857D01*
X79619945Y-136174355D01*
X79606532Y-136109802D01*
X79580520Y-136082337D01*
X79537736Y-136076102D01*
X79519834Y-136076000D01*
X79414000Y-136076000D01*
X79414000Y-137092000D01*
X80063606Y-137092000D01*
X80315513Y-137090997D01*
X80496502Y-137087003D01*
X80620306Y-137078541D01*
X80700660Y-137064133D01*
X80751298Y-137042301D01*
X80783273Y-137014583D01*
X80817021Y-136958917D01*
X80838400Y-136870678D01*
X80849724Y-136733074D01*
X80853311Y-136529307D01*
X80853334Y-136506583D01*
X80853334Y-136076000D01*
X80747500Y-136076000D01*
X80698472Y-136078793D01*
X80698472Y-136078793D01*
G37*
X80698472Y-136078793D02*
X80667550Y-136097744D01*
X80650562Y-136148713D01*
X80643335Y-136247559D01*
X80641694Y-136410140D01*
X80641667Y-136478167D01*
X80641667Y-136880334D01*
X79625667Y-136880334D01*
X79625667Y-136478167D01*
X79624932Y-136291857D01*
X79619945Y-136174355D01*
X79606532Y-136109802D01*
X79580520Y-136082337D01*
X79537736Y-136076102D01*
X79519834Y-136076000D01*
X79414000Y-136076000D01*
X79414000Y-137092000D01*
X80063606Y-137092000D01*
X80315513Y-137090997D01*
X80496502Y-137087003D01*
X80620306Y-137078541D01*
X80700660Y-137064133D01*
X80751298Y-137042301D01*
X80783273Y-137014583D01*
X80817021Y-136958917D01*
X80838400Y-136870678D01*
X80849724Y-136733074D01*
X80853311Y-136529307D01*
X80853334Y-136506583D01*
X80853334Y-136076000D01*
X80747500Y-136076000D01*
X80698472Y-136078793D01*
G36*
X81706978Y-136076000D02*
X81421328Y-136079120D01*
X81215985Y-136088687D01*
X81086808Y-136105013D01*
X81031134Y-136126800D01*
X81003964Y-136199078D01*
X80986672Y-136346129D01*
X80980344Y-136558515D01*
X80980334Y-136568276D01*
X80981501Y-136759350D01*
X80992921Y-136897196D01*
X81026470Y-136990500D01*
X81094024Y-137047949D01*
X81207460Y-137078227D01*
X81378655Y-137090020D01*
X81619485Y-137092015D01*
X81696463Y-137092000D01*
X81934155Y-137090772D01*
X82101840Y-137085929D01*
X82214159Y-137075738D01*
X82285751Y-137058462D01*
X82331256Y-137032366D01*
X82349606Y-137014583D01*
X82387583Y-136948518D01*
X82409693Y-136841887D01*
X82418917Y-136676548D01*
X82419667Y-136588467D01*
X82419133Y-136401040D01*
X82409604Y-136265928D01*
X82402749Y-136245334D01*
X82208000Y-136245334D01*
X82208000Y-136880334D01*
X81192000Y-136880334D01*
X81192000Y-136245334D01*
X82208000Y-136245334D01*
X82402749Y-136245334D01*
X82379196Y-136174583D01*
X82316020Y-136118459D01*
X82208190Y-136089007D01*
X82043819Y-136077680D01*
X81811020Y-136075931D01*
X81706978Y-136076000D01*
X81706978Y-136076000D01*
G37*
X81706978Y-136076000D02*
X81421328Y-136079120D01*
X81215985Y-136088687D01*
X81086808Y-136105013D01*
X81031134Y-136126800D01*
X81003964Y-136199078D01*
X80986672Y-136346129D01*
X80980344Y-136558515D01*
X80980334Y-136568276D01*
X80981501Y-136759350D01*
X80992921Y-136897196D01*
X81026470Y-136990500D01*
X81094024Y-137047949D01*
X81207460Y-137078227D01*
X81378655Y-137090020D01*
X81619485Y-137092015D01*
X81696463Y-137092000D01*
X81934155Y-137090772D01*
X82101840Y-137085929D01*
X82214159Y-137075738D01*
X82285751Y-137058462D01*
X82331256Y-137032366D01*
X82349606Y-137014583D01*
X82387583Y-136948518D01*
X82409693Y-136841887D01*
X82418917Y-136676548D01*
X82419667Y-136588467D01*
X82419133Y-136401040D01*
X82409604Y-136265928D01*
X82402749Y-136245334D01*
X82208000Y-136245334D01*
X82208000Y-136880334D01*
X81192000Y-136880334D01*
X81192000Y-136245334D01*
X82208000Y-136245334D01*
X82402749Y-136245334D01*
X82379196Y-136174583D01*
X82316020Y-136118459D01*
X82208190Y-136089007D01*
X82043819Y-136077680D01*
X81811020Y-136075931D01*
X81706978Y-136076000D01*
G36*
X82969563Y-136076496D02*
X82789084Y-136079004D01*
X82668877Y-136085051D01*
X82596745Y-136096165D01*
X82560491Y-136113873D01*
X82547919Y-136139705D01*
X82546667Y-136160667D01*
X82550942Y-136193678D01*
X82572293Y-136216774D01*
X82623508Y-136231721D01*
X82717376Y-136240282D01*
X82866687Y-136244222D01*
X83084229Y-136245303D01*
X83160500Y-136245334D01*
X83774334Y-136245334D01*
X83774334Y-136457000D01*
X83254587Y-136457000D01*
X82993118Y-136460477D01*
X82804550Y-136474373D01*
X82677275Y-136503881D01*
X82599687Y-136554197D01*
X82560182Y-136630516D01*
X82547152Y-136738033D01*
X82546667Y-136773877D01*
X82550611Y-136885498D01*
X82569975Y-136967439D01*
X82616060Y-137024272D01*
X82700168Y-137060571D01*
X82833598Y-137080907D01*
X83027652Y-137089855D01*
X83293630Y-137091985D01*
X83332858Y-137092000D01*
X83986000Y-137092000D01*
X83986000Y-136880334D01*
X82758334Y-136880334D01*
X82758334Y-136668667D01*
X83305643Y-136668667D01*
X83560678Y-136665859D01*
X83743091Y-136654144D01*
X83864838Y-136628586D01*
X83937871Y-136584248D01*
X83974143Y-136516194D01*
X83985608Y-136419487D01*
X83986000Y-136387693D01*
X83983636Y-136277062D01*
X83968871Y-136196298D01*
X83930197Y-136140701D01*
X83856104Y-136105575D01*
X83735086Y-136086220D01*
X83555634Y-136077938D01*
X83306239Y-136076031D01*
X83222511Y-136076000D01*
X82969563Y-136076496D01*
X82969563Y-136076496D01*
G37*
X82969563Y-136076496D02*
X82789084Y-136079004D01*
X82668877Y-136085051D01*
X82596745Y-136096165D01*
X82560491Y-136113873D01*
X82547919Y-136139705D01*
X82546667Y-136160667D01*
X82550942Y-136193678D01*
X82572293Y-136216774D01*
X82623508Y-136231721D01*
X82717376Y-136240282D01*
X82866687Y-136244222D01*
X83084229Y-136245303D01*
X83160500Y-136245334D01*
X83774334Y-136245334D01*
X83774334Y-136457000D01*
X83254587Y-136457000D01*
X82993118Y-136460477D01*
X82804550Y-136474373D01*
X82677275Y-136503881D01*
X82599687Y-136554197D01*
X82560182Y-136630516D01*
X82547152Y-136738033D01*
X82546667Y-136773877D01*
X82550611Y-136885498D01*
X82569975Y-136967439D01*
X82616060Y-137024272D01*
X82700168Y-137060571D01*
X82833598Y-137080907D01*
X83027652Y-137089855D01*
X83293630Y-137091985D01*
X83332858Y-137092000D01*
X83986000Y-137092000D01*
X83986000Y-136880334D01*
X82758334Y-136880334D01*
X82758334Y-136668667D01*
X83305643Y-136668667D01*
X83560678Y-136665859D01*
X83743091Y-136654144D01*
X83864838Y-136628586D01*
X83937871Y-136584248D01*
X83974143Y-136516194D01*
X83985608Y-136419487D01*
X83986000Y-136387693D01*
X83983636Y-136277062D01*
X83968871Y-136196298D01*
X83930197Y-136140701D01*
X83856104Y-136105575D01*
X83735086Y-136086220D01*
X83555634Y-136077938D01*
X83306239Y-136076031D01*
X83222511Y-136076000D01*
X82969563Y-136076496D01*
G36*
X84547721Y-136078763D02*
X84333977Y-136087280D01*
X84195075Y-136101892D01*
X84126190Y-136122938D01*
X84121467Y-136126800D01*
X84094860Y-136199597D01*
X84077869Y-136353061D01*
X84070846Y-136583701D01*
X84070667Y-136634800D01*
X84070667Y-137092000D01*
X84176500Y-137092000D01*
X84224529Y-137089424D01*
X84255254Y-137071390D01*
X84272543Y-137022439D01*
X84280258Y-136927115D01*
X84282264Y-136769960D01*
X84282334Y-136668667D01*
X84282334Y-136245334D01*
X85298334Y-136245334D01*
X85298334Y-136668667D01*
X85298978Y-136860779D01*
X85303486Y-136983683D01*
X85315724Y-137052835D01*
X85339555Y-137083695D01*
X85378844Y-137091720D01*
X85404167Y-137092000D01*
X85510000Y-137092000D01*
X85510000Y-136076000D01*
X84841134Y-136076000D01*
X84547721Y-136078763D01*
X84547721Y-136078763D01*
G37*
X84547721Y-136078763D02*
X84333977Y-136087280D01*
X84195075Y-136101892D01*
X84126190Y-136122938D01*
X84121467Y-136126800D01*
X84094860Y-136199597D01*
X84077869Y-136353061D01*
X84070846Y-136583701D01*
X84070667Y-136634800D01*
X84070667Y-137092000D01*
X84176500Y-137092000D01*
X84224529Y-137089424D01*
X84255254Y-137071390D01*
X84272543Y-137022439D01*
X84280258Y-136927115D01*
X84282264Y-136769960D01*
X84282334Y-136668667D01*
X84282334Y-136245334D01*
X85298334Y-136245334D01*
X85298334Y-136668667D01*
X85298978Y-136860779D01*
X85303486Y-136983683D01*
X85315724Y-137052835D01*
X85339555Y-137083695D01*
X85378844Y-137091720D01*
X85404167Y-137092000D01*
X85510000Y-137092000D01*
X85510000Y-136076000D01*
X84841134Y-136076000D01*
X84547721Y-136078763D01*
G36*
X86363644Y-136076000D02*
X86077995Y-136079120D01*
X85872651Y-136088687D01*
X85743475Y-136105013D01*
X85687800Y-136126800D01*
X85660057Y-136194664D01*
X85641606Y-136316668D01*
X85637000Y-136423134D01*
X85637000Y-136668667D01*
X86864667Y-136668667D01*
X86864667Y-136880334D01*
X85679334Y-136880334D01*
X85679334Y-137092000D01*
X86307773Y-137092000D01*
X86555218Y-137090933D01*
X86732017Y-137086698D01*
X86852174Y-137077743D01*
X86929695Y-137062515D01*
X86978584Y-137039462D01*
X87006273Y-137014583D01*
X87044250Y-136948518D01*
X87066359Y-136841887D01*
X87075584Y-136676548D01*
X87076334Y-136588467D01*
X87075799Y-136401040D01*
X87066271Y-136265928D01*
X87059416Y-136245334D01*
X86864667Y-136245334D01*
X86864667Y-136457000D01*
X85848667Y-136457000D01*
X85848667Y-136245334D01*
X86864667Y-136245334D01*
X87059416Y-136245334D01*
X87035862Y-136174583D01*
X86972687Y-136118459D01*
X86864856Y-136089007D01*
X86700485Y-136077680D01*
X86467687Y-136075931D01*
X86363644Y-136076000D01*
X86363644Y-136076000D01*
G37*
X86363644Y-136076000D02*
X86077995Y-136079120D01*
X85872651Y-136088687D01*
X85743475Y-136105013D01*
X85687800Y-136126800D01*
X85660057Y-136194664D01*
X85641606Y-136316668D01*
X85637000Y-136423134D01*
X85637000Y-136668667D01*
X86864667Y-136668667D01*
X86864667Y-136880334D01*
X85679334Y-136880334D01*
X85679334Y-137092000D01*
X86307773Y-137092000D01*
X86555218Y-137090933D01*
X86732017Y-137086698D01*
X86852174Y-137077743D01*
X86929695Y-137062515D01*
X86978584Y-137039462D01*
X87006273Y-137014583D01*
X87044250Y-136948518D01*
X87066359Y-136841887D01*
X87075584Y-136676548D01*
X87076334Y-136588467D01*
X87075799Y-136401040D01*
X87066271Y-136265928D01*
X87059416Y-136245334D01*
X86864667Y-136245334D01*
X86864667Y-136457000D01*
X85848667Y-136457000D01*
X85848667Y-136245334D01*
X86864667Y-136245334D01*
X87059416Y-136245334D01*
X87035862Y-136174583D01*
X86972687Y-136118459D01*
X86864856Y-136089007D01*
X86700485Y-136077680D01*
X86467687Y-136075931D01*
X86363644Y-136076000D01*
G36*
X89453978Y-136076000D02*
X89168328Y-136079120D01*
X88962985Y-136088687D01*
X88833808Y-136105013D01*
X88778134Y-136126800D01*
X88750964Y-136199078D01*
X88733672Y-136346129D01*
X88727344Y-136558515D01*
X88727334Y-136568276D01*
X88728501Y-136759350D01*
X88739921Y-136897196D01*
X88773470Y-136990500D01*
X88841024Y-137047949D01*
X88954460Y-137078227D01*
X89125655Y-137090020D01*
X89366485Y-137092015D01*
X89443463Y-137092000D01*
X89681155Y-137090772D01*
X89848840Y-137085929D01*
X89961159Y-137075738D01*
X90032751Y-137058462D01*
X90078256Y-137032366D01*
X90096606Y-137014583D01*
X90134583Y-136948518D01*
X90156693Y-136841887D01*
X90165917Y-136676548D01*
X90166667Y-136588467D01*
X90166133Y-136401040D01*
X90156604Y-136265928D01*
X90149749Y-136245334D01*
X89955000Y-136245334D01*
X89955000Y-136880334D01*
X88939000Y-136880334D01*
X88939000Y-136245334D01*
X89955000Y-136245334D01*
X90149749Y-136245334D01*
X90126196Y-136174583D01*
X90063020Y-136118459D01*
X89955190Y-136089007D01*
X89790819Y-136077680D01*
X89558020Y-136075931D01*
X89453978Y-136076000D01*
X89453978Y-136076000D01*
G37*
X89453978Y-136076000D02*
X89168328Y-136079120D01*
X88962985Y-136088687D01*
X88833808Y-136105013D01*
X88778134Y-136126800D01*
X88750964Y-136199078D01*
X88733672Y-136346129D01*
X88727344Y-136558515D01*
X88727334Y-136568276D01*
X88728501Y-136759350D01*
X88739921Y-136897196D01*
X88773470Y-136990500D01*
X88841024Y-137047949D01*
X88954460Y-137078227D01*
X89125655Y-137090020D01*
X89366485Y-137092015D01*
X89443463Y-137092000D01*
X89681155Y-137090772D01*
X89848840Y-137085929D01*
X89961159Y-137075738D01*
X90032751Y-137058462D01*
X90078256Y-137032366D01*
X90096606Y-137014583D01*
X90134583Y-136948518D01*
X90156693Y-136841887D01*
X90165917Y-136676548D01*
X90166667Y-136588467D01*
X90166133Y-136401040D01*
X90156604Y-136265928D01*
X90149749Y-136245334D01*
X89955000Y-136245334D01*
X89955000Y-136880334D01*
X88939000Y-136880334D01*
X88939000Y-136245334D01*
X89955000Y-136245334D01*
X90149749Y-136245334D01*
X90126196Y-136174583D01*
X90063020Y-136118459D01*
X89955190Y-136089007D01*
X89790819Y-136077680D01*
X89558020Y-136075931D01*
X89453978Y-136076000D01*
G36*
X87638055Y-136078763D02*
X87424310Y-136087280D01*
X87285408Y-136101892D01*
X87216523Y-136122938D01*
X87211800Y-136126800D01*
X87184631Y-136199078D01*
X87167339Y-136346129D01*
X87161010Y-136558515D01*
X87161000Y-136568276D01*
X87162462Y-136763544D01*
X87174973Y-136903024D01*
X87210722Y-136996098D01*
X87281898Y-137052150D01*
X87400690Y-137080563D01*
X87579288Y-137090719D01*
X87829881Y-137092001D01*
X87841358Y-137092000D01*
X88388667Y-137092000D01*
X88388667Y-137303667D01*
X88392098Y-137429289D01*
X88409610Y-137491959D01*
X88452027Y-137513328D01*
X88494500Y-137515334D01*
X88600334Y-137515334D01*
X88600334Y-136245334D01*
X88388667Y-136245334D01*
X88388667Y-136880334D01*
X87372667Y-136880334D01*
X87372667Y-136245334D01*
X88388667Y-136245334D01*
X88600334Y-136245334D01*
X88600334Y-136076000D01*
X87931467Y-136076000D01*
X87638055Y-136078763D01*
X87638055Y-136078763D01*
G37*
X87638055Y-136078763D02*
X87424310Y-136087280D01*
X87285408Y-136101892D01*
X87216523Y-136122938D01*
X87211800Y-136126800D01*
X87184631Y-136199078D01*
X87167339Y-136346129D01*
X87161010Y-136558515D01*
X87161000Y-136568276D01*
X87162462Y-136763544D01*
X87174973Y-136903024D01*
X87210722Y-136996098D01*
X87281898Y-137052150D01*
X87400690Y-137080563D01*
X87579288Y-137090719D01*
X87829881Y-137092001D01*
X87841358Y-137092000D01*
X88388667Y-137092000D01*
X88388667Y-137303667D01*
X88392098Y-137429289D01*
X88409610Y-137491959D01*
X88452027Y-137513328D01*
X88494500Y-137515334D01*
X88600334Y-137515334D01*
X88600334Y-136245334D01*
X88388667Y-136245334D01*
X88388667Y-136880334D01*
X87372667Y-136880334D01*
X87372667Y-136245334D01*
X88388667Y-136245334D01*
X88600334Y-136245334D01*
X88600334Y-136076000D01*
X87931467Y-136076000D01*
X87638055Y-136078763D01*
G36*
X94717503Y-135827823D02*
X94640658Y-135854265D01*
X94594976Y-135917795D01*
X94564802Y-136032189D01*
X94534483Y-136211226D01*
X94523956Y-136274112D01*
X94495247Y-136427891D01*
X94468080Y-136548566D01*
X94447954Y-136611956D01*
X94446668Y-136614036D01*
X94396888Y-136648085D01*
X94292068Y-136701522D01*
X94167166Y-136757460D01*
X93913166Y-136864906D01*
X93211038Y-136399542D01*
X92937685Y-136670465D01*
X92817106Y-136793433D01*
X92723699Y-136895277D01*
X92671092Y-136960819D01*
X92664333Y-136974921D01*
X92687055Y-137022410D01*
X92747897Y-137121390D01*
X92835871Y-137254381D01*
X92884130Y-137324616D01*
X93103926Y-137640777D01*
X92977803Y-137927052D01*
X92851679Y-138213326D01*
X92556923Y-138265671D01*
X92350105Y-138301303D01*
X92211784Y-138330228D01*
X92128335Y-138366339D01*
X92086131Y-138423527D01*
X92071548Y-138515686D01*
X92070961Y-138656708D01*
X92071666Y-138760444D01*
X92075552Y-138965626D01*
X92088138Y-139096927D01*
X92110817Y-139164814D01*
X92127306Y-139178626D01*
X92193984Y-139195326D01*
X92319288Y-139219923D01*
X92478147Y-139247553D01*
X92505854Y-139252067D01*
X92661926Y-139282601D01*
X92782453Y-139316226D01*
X92845429Y-139346557D01*
X92849179Y-139351662D01*
X92874583Y-139413337D01*
X92921028Y-139528111D01*
X92974942Y-139662363D01*
X93080289Y-139925560D01*
X92872311Y-140221710D01*
X92777818Y-140360059D01*
X92705764Y-140472780D01*
X92667584Y-140541690D01*
X92664333Y-140552402D01*
X92692552Y-140595620D01*
X92768113Y-140682318D01*
X92877372Y-140797246D01*
X92937325Y-140857510D01*
X93210316Y-141128075D01*
X93535047Y-140913615D01*
X93859778Y-140699154D01*
X94004697Y-140784658D01*
X94099188Y-140834940D01*
X94157550Y-140855731D01*
X94164064Y-140854331D01*
X94186784Y-140808841D01*
X94233909Y-140701391D01*
X94298795Y-140548217D01*
X94374797Y-140365556D01*
X94455269Y-140169645D01*
X94533567Y-139976721D01*
X94603046Y-139803021D01*
X94657060Y-139664783D01*
X94688964Y-139578243D01*
X94694727Y-139557661D01*
X94661915Y-139516865D01*
X94580760Y-139449941D01*
X94532966Y-139415543D01*
X94360159Y-139251756D01*
X94254691Y-139056792D01*
X94212064Y-138844285D01*
X94227780Y-138627867D01*
X94297341Y-138421171D01*
X94416250Y-138237830D01*
X94580007Y-138091475D01*
X94784115Y-137995741D01*
X95011865Y-137964101D01*
X95267904Y-138001376D01*
X95481382Y-138101488D01*
X95647880Y-138251686D01*
X95762980Y-138439217D01*
X95822261Y-138651329D01*
X95821306Y-138875272D01*
X95755694Y-139098292D01*
X95621006Y-139307638D01*
X95514237Y-139413739D01*
X95408811Y-139506305D01*
X95357772Y-139567055D01*
X95351142Y-139619176D01*
X95378943Y-139685857D01*
X95388853Y-139705103D01*
X95436931Y-139807104D01*
X95502394Y-139957509D01*
X95571998Y-140125789D01*
X95579773Y-140145166D01*
X95653977Y-140328528D01*
X95729738Y-140512139D01*
X95790969Y-140657021D01*
X95792276Y-140660045D01*
X95879911Y-140862590D01*
X96190199Y-140703402D01*
X96487971Y-140908534D01*
X96625820Y-141001579D01*
X96736333Y-141072594D01*
X96801838Y-141110363D01*
X96811177Y-141113666D01*
X96850373Y-141085570D01*
X96933559Y-141010455D01*
X97045784Y-140902080D01*
X97099973Y-140847944D01*
X97217617Y-140725947D01*
X97308153Y-140625782D01*
X97357895Y-140562877D01*
X97363333Y-140551103D01*
X97341357Y-140503817D01*
X97282821Y-140404974D01*
X97198816Y-140273002D01*
X97166245Y-140223591D01*
X97070646Y-140077094D01*
X97015783Y-139978810D01*
X96994742Y-139906963D01*
X97000611Y-139839779D01*
X97021949Y-139769015D01*
X97090738Y-139572688D01*
X97151624Y-139441237D01*
X97220870Y-139358389D01*
X97314736Y-139307875D01*
X97449483Y-139273424D01*
X97532715Y-139257948D01*
X97692951Y-139228514D01*
X97823650Y-139202883D01*
X97899673Y-139186014D01*
X97904625Y-139184601D01*
X97930886Y-139152241D01*
X97945611Y-139067462D01*
X97949935Y-138918737D01*
X97946958Y-138755583D01*
X97934833Y-138343360D01*
X97556823Y-138277764D01*
X97178813Y-138212167D01*
X96941425Y-137632941D01*
X97152379Y-137327786D01*
X97247272Y-137186148D01*
X97320029Y-137069234D01*
X97359427Y-136995436D01*
X97363333Y-136982008D01*
X97335044Y-136936058D01*
X97259281Y-136847091D01*
X97149706Y-136730668D01*
X97088990Y-136669483D01*
X96814647Y-136397578D01*
X96491963Y-136617789D01*
X96344279Y-136714791D01*
X96219245Y-136789987D01*
X96135543Y-136832451D01*
X96115407Y-136837999D01*
X96050013Y-136821772D01*
X95935289Y-136779679D01*
X95824492Y-136733168D01*
X95717725Y-136684792D01*
X95644441Y-136640334D01*
X95594944Y-136582645D01*
X95559537Y-136494579D01*
X95528526Y-136358987D01*
X95492213Y-136158722D01*
X95488808Y-136139500D01*
X95436266Y-135843166D01*
X95027293Y-135831090D01*
X94841163Y-135824691D01*
X94717503Y-135827823D01*
X94717503Y-135827823D01*
G37*
X94717503Y-135827823D02*
X94640658Y-135854265D01*
X94594976Y-135917795D01*
X94564802Y-136032189D01*
X94534483Y-136211226D01*
X94523956Y-136274112D01*
X94495247Y-136427891D01*
X94468080Y-136548566D01*
X94447954Y-136611956D01*
X94446668Y-136614036D01*
X94396888Y-136648085D01*
X94292068Y-136701522D01*
X94167166Y-136757460D01*
X93913166Y-136864906D01*
X93211038Y-136399542D01*
X92937685Y-136670465D01*
X92817106Y-136793433D01*
X92723699Y-136895277D01*
X92671092Y-136960819D01*
X92664333Y-136974921D01*
X92687055Y-137022410D01*
X92747897Y-137121390D01*
X92835871Y-137254381D01*
X92884130Y-137324616D01*
X93103926Y-137640777D01*
X92977803Y-137927052D01*
X92851679Y-138213326D01*
X92556923Y-138265671D01*
X92350105Y-138301303D01*
X92211784Y-138330228D01*
X92128335Y-138366339D01*
X92086131Y-138423527D01*
X92071548Y-138515686D01*
X92070961Y-138656708D01*
X92071666Y-138760444D01*
X92075552Y-138965626D01*
X92088138Y-139096927D01*
X92110817Y-139164814D01*
X92127306Y-139178626D01*
X92193984Y-139195326D01*
X92319288Y-139219923D01*
X92478147Y-139247553D01*
X92505854Y-139252067D01*
X92661926Y-139282601D01*
X92782453Y-139316226D01*
X92845429Y-139346557D01*
X92849179Y-139351662D01*
X92874583Y-139413337D01*
X92921028Y-139528111D01*
X92974942Y-139662363D01*
X93080289Y-139925560D01*
X92872311Y-140221710D01*
X92777818Y-140360059D01*
X92705764Y-140472780D01*
X92667584Y-140541690D01*
X92664333Y-140552402D01*
X92692552Y-140595620D01*
X92768113Y-140682318D01*
X92877372Y-140797246D01*
X92937325Y-140857510D01*
X93210316Y-141128075D01*
X93535047Y-140913615D01*
X93859778Y-140699154D01*
X94004697Y-140784658D01*
X94099188Y-140834940D01*
X94157550Y-140855731D01*
X94164064Y-140854331D01*
X94186784Y-140808841D01*
X94233909Y-140701391D01*
X94298795Y-140548217D01*
X94374797Y-140365556D01*
X94455269Y-140169645D01*
X94533567Y-139976721D01*
X94603046Y-139803021D01*
X94657060Y-139664783D01*
X94688964Y-139578243D01*
X94694727Y-139557661D01*
X94661915Y-139516865D01*
X94580760Y-139449941D01*
X94532966Y-139415543D01*
X94360159Y-139251756D01*
X94254691Y-139056792D01*
X94212064Y-138844285D01*
X94227780Y-138627867D01*
X94297341Y-138421171D01*
X94416250Y-138237830D01*
X94580007Y-138091475D01*
X94784115Y-137995741D01*
X95011865Y-137964101D01*
X95267904Y-138001376D01*
X95481382Y-138101488D01*
X95647880Y-138251686D01*
X95762980Y-138439217D01*
X95822261Y-138651329D01*
X95821306Y-138875272D01*
X95755694Y-139098292D01*
X95621006Y-139307638D01*
X95514237Y-139413739D01*
X95408811Y-139506305D01*
X95357772Y-139567055D01*
X95351142Y-139619176D01*
X95378943Y-139685857D01*
X95388853Y-139705103D01*
X95436931Y-139807104D01*
X95502394Y-139957509D01*
X95571998Y-140125789D01*
X95579773Y-140145166D01*
X95653977Y-140328528D01*
X95729738Y-140512139D01*
X95790969Y-140657021D01*
X95792276Y-140660045D01*
X95879911Y-140862590D01*
X96190199Y-140703402D01*
X96487971Y-140908534D01*
X96625820Y-141001579D01*
X96736333Y-141072594D01*
X96801838Y-141110363D01*
X96811177Y-141113666D01*
X96850373Y-141085570D01*
X96933559Y-141010455D01*
X97045784Y-140902080D01*
X97099973Y-140847944D01*
X97217617Y-140725947D01*
X97308153Y-140625782D01*
X97357895Y-140562877D01*
X97363333Y-140551103D01*
X97341357Y-140503817D01*
X97282821Y-140404974D01*
X97198816Y-140273002D01*
X97166245Y-140223591D01*
X97070646Y-140077094D01*
X97015783Y-139978810D01*
X96994742Y-139906963D01*
X97000611Y-139839779D01*
X97021949Y-139769015D01*
X97090738Y-139572688D01*
X97151624Y-139441237D01*
X97220870Y-139358389D01*
X97314736Y-139307875D01*
X97449483Y-139273424D01*
X97532715Y-139257948D01*
X97692951Y-139228514D01*
X97823650Y-139202883D01*
X97899673Y-139186014D01*
X97904625Y-139184601D01*
X97930886Y-139152241D01*
X97945611Y-139067462D01*
X97949935Y-138918737D01*
X97946958Y-138755583D01*
X97934833Y-138343360D01*
X97556823Y-138277764D01*
X97178813Y-138212167D01*
X96941425Y-137632941D01*
X97152379Y-137327786D01*
X97247272Y-137186148D01*
X97320029Y-137069234D01*
X97359427Y-136995436D01*
X97363333Y-136982008D01*
X97335044Y-136936058D01*
X97259281Y-136847091D01*
X97149706Y-136730668D01*
X97088990Y-136669483D01*
X96814647Y-136397578D01*
X96491963Y-136617789D01*
X96344279Y-136714791D01*
X96219245Y-136789987D01*
X96135543Y-136832451D01*
X96115407Y-136837999D01*
X96050013Y-136821772D01*
X95935289Y-136779679D01*
X95824492Y-136733168D01*
X95717725Y-136684792D01*
X95644441Y-136640334D01*
X95594944Y-136582645D01*
X95559537Y-136494579D01*
X95528526Y-136358987D01*
X95492213Y-136158722D01*
X95488808Y-136139500D01*
X95436266Y-135843166D01*
X95027293Y-135831090D01*
X94841163Y-135824691D01*
X94717503Y-135827823D01*
D12*
X107040000Y-150360000D02*
X107040000Y-147700000D01*
X109640000Y-150360000D02*
X107040000Y-150360000D01*
X109640000Y-147700000D02*
X107040000Y-147700000D01*
X109640000Y-150360000D02*
X109640000Y-147700000D01*
X110910000Y-150360000D02*
X112240000Y-150360000D01*
X112240000Y-150360000D02*
X112240000Y-149030000D01*
X70330000Y-146430000D02*
X70330000Y-149090000D01*
X67730000Y-146430000D02*
X70330000Y-146430000D01*
X67730000Y-149090000D02*
X70330000Y-149090000D01*
X67730000Y-146430000D02*
X67730000Y-149090000D01*
X66460000Y-146430000D02*
X65130000Y-146430000D01*
X65130000Y-146430000D02*
X65130000Y-147760000D01*
X105135000Y-133850000D02*
X105135000Y-131190000D01*
X107735000Y-133850000D02*
X105135000Y-133850000D01*
X107735000Y-131190000D02*
X105135000Y-131190000D01*
X107735000Y-133850000D02*
X107735000Y-131190000D01*
X109005000Y-133850000D02*
X110335000Y-133850000D01*
X110335000Y-133850000D02*
X110335000Y-132520000D01*
D13*
X112692380Y-148196666D02*
X113406666Y-148196666D01*
X113549523Y-148149047D01*
X113644761Y-148053809D01*
X113692380Y-147910952D01*
X113692380Y-147815714D01*
X113692380Y-148672857D02*
X112692380Y-148672857D01*
X112692380Y-149053809D01*
X112740000Y-149149047D01*
X112787619Y-149196666D01*
X112882857Y-149244285D01*
X113025714Y-149244285D01*
X113120952Y-149196666D01*
X113168571Y-149149047D01*
X113216190Y-149053809D01*
X113216190Y-148672857D01*
X112787619Y-149625238D02*
X112740000Y-149672857D01*
X112692380Y-149768095D01*
X112692380Y-150006190D01*
X112740000Y-150101428D01*
X112787619Y-150149047D01*
X112882857Y-150196666D01*
X112978095Y-150196666D01*
X113120952Y-150149047D01*
X113692380Y-149577619D01*
X113692380Y-150196666D01*
X63582380Y-146926666D02*
X64296666Y-146926666D01*
X64439523Y-146879047D01*
X64534761Y-146783809D01*
X64582380Y-146640952D01*
X64582380Y-146545714D01*
X64582380Y-147402857D02*
X63582380Y-147402857D01*
X63582380Y-147783809D01*
X63630000Y-147879047D01*
X63677619Y-147926666D01*
X63772857Y-147974285D01*
X63915714Y-147974285D01*
X64010952Y-147926666D01*
X64058571Y-147879047D01*
X64106190Y-147783809D01*
X64106190Y-147402857D01*
X63582380Y-148307619D02*
X63582380Y-148926666D01*
X63963333Y-148593333D01*
X63963333Y-148736190D01*
X64010952Y-148831428D01*
X64058571Y-148879047D01*
X64153809Y-148926666D01*
X64391904Y-148926666D01*
X64487142Y-148879047D01*
X64534761Y-148831428D01*
X64582380Y-148736190D01*
X64582380Y-148450476D01*
X64534761Y-148355238D01*
X64487142Y-148307619D01*
X110787380Y-131686666D02*
X111501666Y-131686666D01*
X111644523Y-131639047D01*
X111739761Y-131543809D01*
X111787380Y-131400952D01*
X111787380Y-131305714D01*
X111787380Y-132162857D02*
X110787380Y-132162857D01*
X110787380Y-132543809D01*
X110835000Y-132639047D01*
X110882619Y-132686666D01*
X110977857Y-132734285D01*
X111120714Y-132734285D01*
X111215952Y-132686666D01*
X111263571Y-132639047D01*
X111311190Y-132543809D01*
X111311190Y-132162857D01*
X111787380Y-133686666D02*
X111787380Y-133115238D01*
X111787380Y-133400952D02*
X110787380Y-133400952D01*
X110930238Y-133305714D01*
X111025476Y-133210476D01*
X111073095Y-133115238D01*
M02*
