M48
;DRILL file {KiCad (5.0.2)-1} date 17.04.2019 22:45:19
;FORMAT={-:-/ absolute / inch / decimal}
FMAT,2
INCH,TZ
T1C0.0157
T2C0.0315
T3C0.0315
T4C0.0354
T5C0.0394
T6C0.0984
%
G90
G05
T1
X2.5415Y-5.8173
X2.7165Y-4.2573
X2.7165Y-5.8173
X2.7265Y-4.4473
X2.7365Y-5.0973
X2.9415Y-4.4023
X2.9665Y-4.5273
X2.9665Y-4.8473
X2.9765Y-4.5773
X2.9765Y-4.6573
X3.0449Y-5.649
X3.0843Y-5.9049
X3.2765Y-5.7373
X3.2811Y-5.9049
X3.3415Y-5.5923
X3.4165Y-5.5173
X3.4915Y-5.3852
X3.537Y-5.9049
X3.5415Y-5.1423
X3.5565Y-4.6573
X3.5765Y-5.7373
X3.6065Y-5.6373
X3.7965Y-4.3373
X3.7965Y-4.4173
X3.9765Y-4.9473
X4.0665Y-4.4923
X4.1165Y-4.8973
X4.2065Y-5.2173
X4.3415Y-4.9923
X4.3915Y-5.2673
T2
X2.4915Y-5.4173
X2.4915Y-5.5173
X2.4915Y-5.6173
X2.7915Y-5.4173
X2.7915Y-5.5173
X2.7915Y-5.6173
T3
X4.0915Y-4.2173
X3.4665Y-5.0423
T4
X3.478Y-6.1017
X3.6157Y-6.1017
X2.8087Y-6.1017
X2.9465Y-6.1017
X3.7535Y-6.1017
X3.8913Y-6.1017
X4.1787Y-6.0973
X4.3165Y-6.0973
X3.2024Y-6.1017
X3.3402Y-6.1017
X4.3915Y-4.6923
X4.3915Y-4.8301
X2.5515Y-4.4295
X2.5515Y-4.5673
X2.4665Y-5.2423
X2.5665Y-5.2423
T5
X4.2165Y-4.2173
X4.2165Y-4.3173
X4.2165Y-4.4173
X4.2165Y-4.5173
X2.6515Y-4.7373
X2.6515Y-4.8373
X3.7665Y-5.1673
X3.9634Y-5.1673
X3.9915Y-4.6673
X3.9915Y-4.7673
X3.0915Y-5.0423
X3.1915Y-5.0423
X3.2915Y-5.0423
X3.7665Y-5.6173
X3.9634Y-5.6173
X4.2165Y-5.5173
X4.2165Y-5.7173
X4.4165Y-5.5173
X4.4165Y-5.7173
X2.8415Y-4.8673
X2.8415Y-4.9673
X2.8415Y-5.0673
T6
X4.5165Y-6.1273
X2.5165Y-4.2023
X4.5165Y-4.2023
X2.5165Y-6.1273
T0
M30
