%TF.GenerationSoftware,KiCad,Pcbnew,(5.0.2)-1*%
%TF.CreationDate,2019-04-17T22:45:11+02:00*%
%TF.ProjectId,nfc-door-x4,6e66632d-646f-46f7-922d-78342e6b6963,rev?*%
%TF.SameCoordinates,Original*%
%TF.FileFunction,Soldermask,Top*%
%TF.FilePolarity,Negative*%
%FSLAX46Y46*%
G04 Gerber Fmt 4.6, Leading zero omitted, Abs format (unit mm)*
G04 Created by KiCad (PCBNEW (5.0.2)-1) date 17.04.2019 22:45:11*
%MOMM*%
%LPD*%
G01*
G04 APERTURE LIST*
%ADD10C,0.150000*%
G04 APERTURE END LIST*
D10*
G36*
X115507560Y-153037759D02*
X115998928Y-153241290D01*
X115998930Y-153241291D01*
X116429035Y-153528678D01*
X116441153Y-153536775D01*
X116817225Y-153912847D01*
X116817227Y-153912850D01*
X117080167Y-154306367D01*
X117112710Y-154355072D01*
X117316241Y-154846440D01*
X117420000Y-155368072D01*
X117420000Y-155899928D01*
X117316241Y-156421560D01*
X117112710Y-156912928D01*
X116817225Y-157355153D01*
X116441153Y-157731225D01*
X116441150Y-157731227D01*
X115998930Y-158026709D01*
X115998929Y-158026710D01*
X115998928Y-158026710D01*
X115507560Y-158230241D01*
X114985928Y-158334000D01*
X114454072Y-158334000D01*
X113932440Y-158230241D01*
X113441072Y-158026710D01*
X113441071Y-158026710D01*
X113441070Y-158026709D01*
X112998850Y-157731227D01*
X112998847Y-157731225D01*
X112622775Y-157355153D01*
X112327290Y-156912928D01*
X112123759Y-156421560D01*
X112020000Y-155899928D01*
X112020000Y-155368072D01*
X112123759Y-154846440D01*
X112327290Y-154355072D01*
X112359834Y-154306367D01*
X112622773Y-153912850D01*
X112622775Y-153912847D01*
X112998847Y-153536775D01*
X113010965Y-153528678D01*
X113441070Y-153241291D01*
X113441072Y-153241290D01*
X113932440Y-153037759D01*
X114454072Y-152934000D01*
X114985928Y-152934000D01*
X115507560Y-153037759D01*
X115507560Y-153037759D01*
G37*
G36*
X64707560Y-153037759D02*
X65198928Y-153241290D01*
X65198930Y-153241291D01*
X65629035Y-153528678D01*
X65641153Y-153536775D01*
X66017225Y-153912847D01*
X66017227Y-153912850D01*
X66280167Y-154306367D01*
X66312710Y-154355072D01*
X66516241Y-154846440D01*
X66620000Y-155368072D01*
X66620000Y-155899928D01*
X66516241Y-156421560D01*
X66312710Y-156912928D01*
X66017225Y-157355153D01*
X65641153Y-157731225D01*
X65641150Y-157731227D01*
X65198930Y-158026709D01*
X65198929Y-158026710D01*
X65198928Y-158026710D01*
X64707560Y-158230241D01*
X64185928Y-158334000D01*
X63654072Y-158334000D01*
X63132440Y-158230241D01*
X62641072Y-158026710D01*
X62641071Y-158026710D01*
X62641070Y-158026709D01*
X62198850Y-157731227D01*
X62198847Y-157731225D01*
X61822775Y-157355153D01*
X61527290Y-156912928D01*
X61323759Y-156421560D01*
X61220000Y-155899928D01*
X61220000Y-155368072D01*
X61323759Y-154846440D01*
X61527290Y-154355072D01*
X61559834Y-154306367D01*
X61822773Y-153912850D01*
X61822775Y-153912847D01*
X62198847Y-153536775D01*
X62210965Y-153528678D01*
X62641070Y-153241291D01*
X62641072Y-153241290D01*
X63132440Y-153037759D01*
X63654072Y-152934000D01*
X64185928Y-152934000D01*
X64707560Y-153037759D01*
X64707560Y-153037759D01*
G37*
G36*
X92055639Y-153549916D02*
X92262986Y-153612815D01*
X92262988Y-153612816D01*
X92454084Y-153714958D01*
X92621581Y-153852419D01*
X92759042Y-154019916D01*
X92861184Y-154211012D01*
X92924084Y-154418363D01*
X92924084Y-154418367D01*
X92940000Y-154579963D01*
X92940000Y-155388038D01*
X92924084Y-155549639D01*
X92895160Y-155644988D01*
X92861184Y-155756988D01*
X92759042Y-155948084D01*
X92621581Y-156115581D01*
X92454084Y-156253042D01*
X92262987Y-156355184D01*
X92262985Y-156355185D01*
X92055638Y-156418084D01*
X91840000Y-156439322D01*
X91624361Y-156418084D01*
X91417014Y-156355185D01*
X91417012Y-156355184D01*
X91225916Y-156253042D01*
X91058419Y-156115581D01*
X90920958Y-155948084D01*
X90818816Y-155756987D01*
X90784841Y-155644987D01*
X90755916Y-155549638D01*
X90740000Y-155388037D01*
X90740000Y-154579962D01*
X90755916Y-154418361D01*
X90818815Y-154211014D01*
X90878683Y-154099010D01*
X90920959Y-154019916D01*
X91058420Y-153852419D01*
X91225917Y-153714958D01*
X91417013Y-153612816D01*
X91417015Y-153612815D01*
X91624362Y-153549916D01*
X91840000Y-153528678D01*
X92055639Y-153549916D01*
X92055639Y-153549916D01*
G37*
G36*
X81555639Y-153549916D02*
X81762986Y-153612815D01*
X81762988Y-153612816D01*
X81954084Y-153714958D01*
X82121581Y-153852419D01*
X82259042Y-154019916D01*
X82361184Y-154211012D01*
X82424084Y-154418363D01*
X82424084Y-154418367D01*
X82440000Y-154579963D01*
X82440000Y-155388038D01*
X82424084Y-155549639D01*
X82395160Y-155644988D01*
X82361184Y-155756988D01*
X82259042Y-155948084D01*
X82121581Y-156115581D01*
X81954084Y-156253042D01*
X81762987Y-156355184D01*
X81762985Y-156355185D01*
X81555638Y-156418084D01*
X81340000Y-156439322D01*
X81124361Y-156418084D01*
X80917014Y-156355185D01*
X80917012Y-156355184D01*
X80725916Y-156253042D01*
X80558419Y-156115581D01*
X80420958Y-155948084D01*
X80318816Y-155756987D01*
X80284841Y-155644987D01*
X80255916Y-155549638D01*
X80240000Y-155388037D01*
X80240000Y-154579962D01*
X80255916Y-154418361D01*
X80318815Y-154211014D01*
X80378683Y-154099010D01*
X80420959Y-154019916D01*
X80558420Y-153852419D01*
X80725917Y-153714958D01*
X80917013Y-153612816D01*
X80917015Y-153612815D01*
X81124362Y-153549916D01*
X81340000Y-153528678D01*
X81555639Y-153549916D01*
X81555639Y-153549916D01*
G37*
G36*
X95555639Y-153549916D02*
X95762986Y-153612815D01*
X95762988Y-153612816D01*
X95954084Y-153714958D01*
X96121581Y-153852419D01*
X96259042Y-154019916D01*
X96361184Y-154211012D01*
X96424084Y-154418363D01*
X96424084Y-154418367D01*
X96440000Y-154579963D01*
X96440000Y-155388038D01*
X96424084Y-155549639D01*
X96395160Y-155644988D01*
X96361184Y-155756988D01*
X96259042Y-155948084D01*
X96121581Y-156115581D01*
X95954084Y-156253042D01*
X95762987Y-156355184D01*
X95762985Y-156355185D01*
X95555638Y-156418084D01*
X95340000Y-156439322D01*
X95124361Y-156418084D01*
X94917014Y-156355185D01*
X94917012Y-156355184D01*
X94725916Y-156253042D01*
X94558419Y-156115581D01*
X94420958Y-155948084D01*
X94318816Y-155756987D01*
X94284841Y-155644987D01*
X94255916Y-155549638D01*
X94240000Y-155388037D01*
X94240000Y-154579962D01*
X94255916Y-154418361D01*
X94318815Y-154211014D01*
X94378683Y-154099010D01*
X94420959Y-154019916D01*
X94558420Y-153852419D01*
X94725917Y-153714958D01*
X94917013Y-153612816D01*
X94917015Y-153612815D01*
X95124362Y-153549916D01*
X95340000Y-153528678D01*
X95555639Y-153549916D01*
X95555639Y-153549916D01*
G37*
G36*
X99055639Y-153549916D02*
X99262986Y-153612815D01*
X99262988Y-153612816D01*
X99454084Y-153714958D01*
X99621581Y-153852419D01*
X99759042Y-154019916D01*
X99861184Y-154211012D01*
X99924084Y-154418363D01*
X99924084Y-154418367D01*
X99940000Y-154579963D01*
X99940000Y-155388038D01*
X99924084Y-155549639D01*
X99895160Y-155644988D01*
X99861184Y-155756988D01*
X99759042Y-155948084D01*
X99621581Y-156115581D01*
X99454084Y-156253042D01*
X99262987Y-156355184D01*
X99262985Y-156355185D01*
X99055638Y-156418084D01*
X98840000Y-156439322D01*
X98624361Y-156418084D01*
X98417014Y-156355185D01*
X98417012Y-156355184D01*
X98225916Y-156253042D01*
X98058419Y-156115581D01*
X97920958Y-155948084D01*
X97818816Y-155756987D01*
X97784841Y-155644987D01*
X97755916Y-155549638D01*
X97740000Y-155388037D01*
X97740000Y-154579962D01*
X97755916Y-154418361D01*
X97818815Y-154211014D01*
X97878683Y-154099010D01*
X97920959Y-154019916D01*
X98058420Y-153852419D01*
X98225917Y-153714958D01*
X98417013Y-153612816D01*
X98417015Y-153612815D01*
X98624362Y-153549916D01*
X98840000Y-153528678D01*
X99055639Y-153549916D01*
X99055639Y-153549916D01*
G37*
G36*
X75055639Y-153549916D02*
X75262986Y-153612815D01*
X75262988Y-153612816D01*
X75454084Y-153714958D01*
X75621581Y-153852419D01*
X75759042Y-154019916D01*
X75861184Y-154211012D01*
X75924084Y-154418363D01*
X75924084Y-154418367D01*
X75940000Y-154579963D01*
X75940000Y-155388038D01*
X75924084Y-155549639D01*
X75895160Y-155644988D01*
X75861184Y-155756988D01*
X75759042Y-155948084D01*
X75621581Y-156115581D01*
X75454084Y-156253042D01*
X75262987Y-156355184D01*
X75262985Y-156355185D01*
X75055638Y-156418084D01*
X74840000Y-156439322D01*
X74624361Y-156418084D01*
X74417014Y-156355185D01*
X74417012Y-156355184D01*
X74225916Y-156253042D01*
X74058419Y-156115581D01*
X73920958Y-155948084D01*
X73818816Y-155756987D01*
X73784841Y-155644987D01*
X73755916Y-155549638D01*
X73740000Y-155388037D01*
X73740000Y-154579962D01*
X73755916Y-154418361D01*
X73818815Y-154211014D01*
X73878683Y-154099010D01*
X73920959Y-154019916D01*
X74058420Y-153852419D01*
X74225917Y-153714958D01*
X74417013Y-153612816D01*
X74417015Y-153612815D01*
X74624362Y-153549916D01*
X74840000Y-153528678D01*
X75055639Y-153549916D01*
X75055639Y-153549916D01*
G37*
G36*
X85055639Y-153549916D02*
X85262986Y-153612815D01*
X85262988Y-153612816D01*
X85454084Y-153714958D01*
X85621581Y-153852419D01*
X85759042Y-154019916D01*
X85861184Y-154211012D01*
X85924084Y-154418363D01*
X85924084Y-154418367D01*
X85940000Y-154579963D01*
X85940000Y-155388038D01*
X85924084Y-155549639D01*
X85895160Y-155644988D01*
X85861184Y-155756988D01*
X85759042Y-155948084D01*
X85621581Y-156115581D01*
X85454084Y-156253042D01*
X85262987Y-156355184D01*
X85262985Y-156355185D01*
X85055638Y-156418084D01*
X84840000Y-156439322D01*
X84624361Y-156418084D01*
X84417014Y-156355185D01*
X84417012Y-156355184D01*
X84225916Y-156253042D01*
X84058419Y-156115581D01*
X83920958Y-155948084D01*
X83818816Y-155756987D01*
X83784841Y-155644987D01*
X83755916Y-155549638D01*
X83740000Y-155388037D01*
X83740000Y-154579962D01*
X83755916Y-154418361D01*
X83818815Y-154211014D01*
X83878683Y-154099010D01*
X83920959Y-154019916D01*
X84058420Y-153852419D01*
X84225917Y-153714958D01*
X84417013Y-153612816D01*
X84417015Y-153612815D01*
X84624362Y-153549916D01*
X84840000Y-153528678D01*
X85055639Y-153549916D01*
X85055639Y-153549916D01*
G37*
G36*
X88555639Y-153549916D02*
X88762986Y-153612815D01*
X88762988Y-153612816D01*
X88954084Y-153714958D01*
X89121581Y-153852419D01*
X89259042Y-154019916D01*
X89361184Y-154211012D01*
X89424084Y-154418363D01*
X89424084Y-154418367D01*
X89440000Y-154579963D01*
X89440000Y-155388038D01*
X89424084Y-155549639D01*
X89395160Y-155644988D01*
X89361184Y-155756988D01*
X89259042Y-155948084D01*
X89121581Y-156115581D01*
X88954084Y-156253042D01*
X88762987Y-156355184D01*
X88762985Y-156355185D01*
X88555638Y-156418084D01*
X88340000Y-156439322D01*
X88124361Y-156418084D01*
X87917014Y-156355185D01*
X87917012Y-156355184D01*
X87725916Y-156253042D01*
X87558419Y-156115581D01*
X87420958Y-155948084D01*
X87318816Y-155756987D01*
X87284841Y-155644987D01*
X87255916Y-155549638D01*
X87240000Y-155388037D01*
X87240000Y-154579962D01*
X87255916Y-154418361D01*
X87318815Y-154211014D01*
X87378683Y-154099010D01*
X87420959Y-154019916D01*
X87558420Y-153852419D01*
X87725917Y-153714958D01*
X87917013Y-153612816D01*
X87917015Y-153612815D01*
X88124362Y-153549916D01*
X88340000Y-153528678D01*
X88555639Y-153549916D01*
X88555639Y-153549916D01*
G37*
G36*
X71555639Y-153549916D02*
X71762986Y-153612815D01*
X71762988Y-153612816D01*
X71954084Y-153714958D01*
X72121581Y-153852419D01*
X72259042Y-154019916D01*
X72361184Y-154211012D01*
X72424084Y-154418363D01*
X72424084Y-154418367D01*
X72440000Y-154579963D01*
X72440000Y-155388038D01*
X72424084Y-155549639D01*
X72395160Y-155644988D01*
X72361184Y-155756988D01*
X72259042Y-155948084D01*
X72121581Y-156115581D01*
X71954084Y-156253042D01*
X71762987Y-156355184D01*
X71762985Y-156355185D01*
X71555638Y-156418084D01*
X71340000Y-156439322D01*
X71124361Y-156418084D01*
X70917014Y-156355185D01*
X70917012Y-156355184D01*
X70725916Y-156253042D01*
X70558419Y-156115581D01*
X70420958Y-155948084D01*
X70318816Y-155756987D01*
X70284841Y-155644987D01*
X70255916Y-155549638D01*
X70240000Y-155388037D01*
X70240000Y-154579962D01*
X70255916Y-154418361D01*
X70318815Y-154211014D01*
X70378683Y-154099010D01*
X70420959Y-154019916D01*
X70558420Y-153852419D01*
X70725917Y-153714958D01*
X70917013Y-153612816D01*
X70917015Y-153612815D01*
X71124362Y-153549916D01*
X71340000Y-153528678D01*
X71555639Y-153549916D01*
X71555639Y-153549916D01*
G37*
G36*
X109855639Y-153437916D02*
X110062986Y-153500815D01*
X110062988Y-153500816D01*
X110254084Y-153602958D01*
X110421581Y-153740419D01*
X110559042Y-153907916D01*
X110661184Y-154099012D01*
X110724084Y-154306363D01*
X110724084Y-154306367D01*
X110740000Y-154467963D01*
X110740000Y-155276038D01*
X110724084Y-155437639D01*
X110690109Y-155549639D01*
X110661184Y-155644988D01*
X110559042Y-155836084D01*
X110421581Y-156003581D01*
X110254084Y-156141042D01*
X110062987Y-156243184D01*
X110062985Y-156243185D01*
X109855638Y-156306084D01*
X109640000Y-156327322D01*
X109424361Y-156306084D01*
X109217014Y-156243185D01*
X109217012Y-156243184D01*
X109025916Y-156141042D01*
X108858419Y-156003581D01*
X108720958Y-155836084D01*
X108618816Y-155644987D01*
X108589892Y-155549638D01*
X108555916Y-155437638D01*
X108540000Y-155276037D01*
X108540000Y-154467962D01*
X108555916Y-154306361D01*
X108618815Y-154099014D01*
X108666362Y-154010060D01*
X108720959Y-153907916D01*
X108858420Y-153740419D01*
X109025917Y-153602958D01*
X109217013Y-153500816D01*
X109217015Y-153500815D01*
X109424362Y-153437916D01*
X109640000Y-153416678D01*
X109855639Y-153437916D01*
X109855639Y-153437916D01*
G37*
G36*
X106355639Y-153437916D02*
X106562986Y-153500815D01*
X106562988Y-153500816D01*
X106754084Y-153602958D01*
X106921581Y-153740419D01*
X107059042Y-153907916D01*
X107161184Y-154099012D01*
X107224084Y-154306363D01*
X107224084Y-154306367D01*
X107240000Y-154467963D01*
X107240000Y-155276038D01*
X107224084Y-155437639D01*
X107190109Y-155549639D01*
X107161184Y-155644988D01*
X107059042Y-155836084D01*
X106921581Y-156003581D01*
X106754084Y-156141042D01*
X106562987Y-156243184D01*
X106562985Y-156243185D01*
X106355638Y-156306084D01*
X106140000Y-156327322D01*
X105924361Y-156306084D01*
X105717014Y-156243185D01*
X105717012Y-156243184D01*
X105525916Y-156141042D01*
X105358419Y-156003581D01*
X105220958Y-155836084D01*
X105118816Y-155644987D01*
X105089892Y-155549638D01*
X105055916Y-155437638D01*
X105040000Y-155276037D01*
X105040000Y-154467962D01*
X105055916Y-154306361D01*
X105118815Y-154099014D01*
X105166362Y-154010060D01*
X105220959Y-153907916D01*
X105358420Y-153740419D01*
X105525917Y-153602958D01*
X105717013Y-153500816D01*
X105717015Y-153500815D01*
X105924362Y-153437916D01*
X106140000Y-153416678D01*
X106355639Y-153437916D01*
X106355639Y-153437916D01*
G37*
G36*
X80940000Y-150634000D02*
X79740000Y-150634000D01*
X79740000Y-149334000D01*
X80940000Y-149334000D01*
X80940000Y-150634000D01*
X80940000Y-150634000D01*
G37*
G36*
X88440000Y-150634000D02*
X87240000Y-150634000D01*
X87240000Y-149334000D01*
X88440000Y-149334000D01*
X88440000Y-150634000D01*
X88440000Y-150634000D01*
G37*
G36*
X64695000Y-149560000D02*
X61595000Y-149560000D01*
X61595000Y-145960000D01*
X64695000Y-145960000D01*
X64695000Y-149560000D01*
X64695000Y-149560000D01*
G37*
G36*
X72595000Y-149560000D02*
X69495000Y-149560000D01*
X69495000Y-145960000D01*
X72595000Y-145960000D01*
X72595000Y-149560000D01*
X72595000Y-149560000D01*
G37*
G36*
X79990000Y-148634000D02*
X78790000Y-148634000D01*
X78790000Y-147334000D01*
X79990000Y-147334000D01*
X79990000Y-148634000D01*
X79990000Y-148634000D01*
G37*
G36*
X81890000Y-148634000D02*
X80690000Y-148634000D01*
X80690000Y-147334000D01*
X81890000Y-147334000D01*
X81890000Y-148634000D01*
X81890000Y-148634000D01*
G37*
G36*
X87490000Y-148634000D02*
X86290000Y-148634000D01*
X86290000Y-147334000D01*
X87490000Y-147334000D01*
X87490000Y-148634000D01*
X87490000Y-148634000D01*
G37*
G36*
X89390000Y-148634000D02*
X88190000Y-148634000D01*
X88190000Y-147334000D01*
X89390000Y-147334000D01*
X89390000Y-148634000D01*
X89390000Y-148634000D01*
G37*
G36*
X82530000Y-146905000D02*
X81230000Y-146905000D01*
X81230000Y-144805000D01*
X82530000Y-144805000D01*
X82530000Y-146905000D01*
X82530000Y-146905000D01*
G37*
G36*
X79630000Y-146905000D02*
X78330000Y-146905000D01*
X78330000Y-144805000D01*
X79630000Y-144805000D01*
X79630000Y-146905000D01*
X79630000Y-146905000D01*
G37*
G36*
X90150000Y-146905000D02*
X88850000Y-146905000D01*
X88850000Y-144805000D01*
X90150000Y-144805000D01*
X90150000Y-146905000D01*
X90150000Y-146905000D01*
G37*
G36*
X87250000Y-146905000D02*
X85950000Y-146905000D01*
X85950000Y-144805000D01*
X87250000Y-144805000D01*
X87250000Y-146905000D01*
X87250000Y-146905000D01*
G37*
G36*
X107194208Y-144023473D02*
X107335241Y-144037363D01*
X107561442Y-144105981D01*
X107561444Y-144105982D01*
X107561447Y-144105983D01*
X107769910Y-144217408D01*
X107952634Y-144367366D01*
X108102592Y-144550090D01*
X108214017Y-144758553D01*
X108214018Y-144758556D01*
X108214019Y-144758558D01*
X108282637Y-144984759D01*
X108305806Y-145220000D01*
X108282637Y-145455241D01*
X108214019Y-145681442D01*
X108214017Y-145681447D01*
X108102592Y-145889910D01*
X107952634Y-146072634D01*
X107769910Y-146222592D01*
X107561447Y-146334017D01*
X107561444Y-146334018D01*
X107561442Y-146334019D01*
X107335241Y-146402637D01*
X107194208Y-146416527D01*
X107158951Y-146420000D01*
X107041049Y-146420000D01*
X107005792Y-146416527D01*
X106864759Y-146402637D01*
X106638558Y-146334019D01*
X106638556Y-146334018D01*
X106638553Y-146334017D01*
X106430090Y-146222592D01*
X106247366Y-146072634D01*
X106097408Y-145889910D01*
X105985983Y-145681447D01*
X105985981Y-145681442D01*
X105917363Y-145455241D01*
X105894194Y-145220000D01*
X105917363Y-144984759D01*
X105985981Y-144758558D01*
X105985982Y-144758556D01*
X105985983Y-144758553D01*
X106097408Y-144550090D01*
X106247366Y-144367366D01*
X106430090Y-144217408D01*
X106638553Y-144105983D01*
X106638556Y-144105982D01*
X106638558Y-144105981D01*
X106864759Y-144037363D01*
X107005792Y-144023473D01*
X107041049Y-144020000D01*
X107158951Y-144020000D01*
X107194208Y-144023473D01*
X107194208Y-144023473D01*
G37*
G36*
X112274208Y-144023473D02*
X112415241Y-144037363D01*
X112641442Y-144105981D01*
X112641444Y-144105982D01*
X112641447Y-144105983D01*
X112849910Y-144217408D01*
X113032634Y-144367366D01*
X113182592Y-144550090D01*
X113294017Y-144758553D01*
X113294018Y-144758556D01*
X113294019Y-144758558D01*
X113362637Y-144984759D01*
X113385806Y-145220000D01*
X113362637Y-145455241D01*
X113294019Y-145681442D01*
X113294017Y-145681447D01*
X113182592Y-145889910D01*
X113032634Y-146072634D01*
X112849910Y-146222592D01*
X112641447Y-146334017D01*
X112641444Y-146334018D01*
X112641442Y-146334019D01*
X112415241Y-146402637D01*
X112274208Y-146416527D01*
X112238951Y-146420000D01*
X112121049Y-146420000D01*
X112085792Y-146416527D01*
X111944759Y-146402637D01*
X111718558Y-146334019D01*
X111718556Y-146334018D01*
X111718553Y-146334017D01*
X111510090Y-146222592D01*
X111327366Y-146072634D01*
X111177408Y-145889910D01*
X111065983Y-145681447D01*
X111065981Y-145681442D01*
X110997363Y-145455241D01*
X110974194Y-145220000D01*
X110997363Y-144984759D01*
X111065981Y-144758558D01*
X111065982Y-144758556D01*
X111065983Y-144758553D01*
X111177408Y-144550090D01*
X111327366Y-144367366D01*
X111510090Y-144217408D01*
X111718553Y-144105983D01*
X111718556Y-144105982D01*
X111718558Y-144105981D01*
X111944759Y-144037363D01*
X112085792Y-144023473D01*
X112121049Y-144020000D01*
X112238951Y-144020000D01*
X112274208Y-144023473D01*
X112274208Y-144023473D01*
G37*
G36*
X96870000Y-143880000D02*
X94470000Y-143880000D01*
X94470000Y-141480000D01*
X96870000Y-141480000D01*
X96870000Y-143880000D01*
X96870000Y-143880000D01*
G37*
G36*
X101020026Y-141526115D02*
X101238412Y-141616573D01*
X101434958Y-141747901D01*
X101602099Y-141915042D01*
X101733427Y-142111588D01*
X101823885Y-142329974D01*
X101870000Y-142561809D01*
X101870000Y-142798191D01*
X101823885Y-143030026D01*
X101733427Y-143248412D01*
X101602099Y-143444958D01*
X101434958Y-143612099D01*
X101238412Y-143743427D01*
X101020026Y-143833885D01*
X100788191Y-143880000D01*
X100551809Y-143880000D01*
X100319974Y-143833885D01*
X100101588Y-143743427D01*
X99905042Y-143612099D01*
X99737901Y-143444958D01*
X99606573Y-143248412D01*
X99516115Y-143030026D01*
X99470000Y-142798191D01*
X99470000Y-142561809D01*
X99516115Y-142329974D01*
X99606573Y-142111588D01*
X99737901Y-141915042D01*
X99905042Y-141747901D01*
X100101588Y-141616573D01*
X100319974Y-141526115D01*
X100551809Y-141480000D01*
X100788191Y-141480000D01*
X101020026Y-141526115D01*
X101020026Y-141526115D01*
G37*
G36*
X83385000Y-143764000D02*
X81285000Y-143764000D01*
X81285000Y-142464000D01*
X83385000Y-142464000D01*
X83385000Y-143764000D01*
X83385000Y-143764000D01*
G37*
G36*
X80210000Y-143764000D02*
X78110000Y-143764000D01*
X78110000Y-142464000D01*
X80210000Y-142464000D01*
X80210000Y-143764000D01*
X80210000Y-143764000D01*
G37*
G36*
X72305000Y-143680000D02*
X69505000Y-143680000D01*
X69505000Y-141680000D01*
X72305000Y-141680000D01*
X72305000Y-143680000D01*
X72305000Y-143680000D01*
G37*
G36*
X63881030Y-141694469D02*
X63881033Y-141694470D01*
X63881034Y-141694470D01*
X64069535Y-141751651D01*
X64069537Y-141751652D01*
X64243260Y-141844509D01*
X64395528Y-141969472D01*
X64520491Y-142121740D01*
X64520492Y-142121742D01*
X64613349Y-142295465D01*
X64664473Y-142464000D01*
X64670531Y-142483970D01*
X64689838Y-142680000D01*
X64670531Y-142876030D01*
X64670530Y-142876033D01*
X64670530Y-142876034D01*
X64623817Y-143030027D01*
X64613348Y-143064537D01*
X64520491Y-143238260D01*
X64395528Y-143390528D01*
X64243260Y-143515491D01*
X64243258Y-143515492D01*
X64069535Y-143608349D01*
X63881034Y-143665530D01*
X63881033Y-143665530D01*
X63881030Y-143665531D01*
X63734124Y-143680000D01*
X62835876Y-143680000D01*
X62688970Y-143665531D01*
X62688967Y-143665530D01*
X62688966Y-143665530D01*
X62500465Y-143608349D01*
X62326742Y-143515492D01*
X62326740Y-143515491D01*
X62174472Y-143390528D01*
X62049509Y-143238260D01*
X61956652Y-143064537D01*
X61946184Y-143030027D01*
X61899470Y-142876034D01*
X61899470Y-142876033D01*
X61899469Y-142876030D01*
X61880162Y-142680000D01*
X61899469Y-142483970D01*
X61905527Y-142464000D01*
X61956651Y-142295465D01*
X62049508Y-142121742D01*
X62049509Y-142121740D01*
X62174472Y-141969472D01*
X62326740Y-141844509D01*
X62500463Y-141751652D01*
X62500465Y-141751651D01*
X62688966Y-141694470D01*
X62688967Y-141694470D01*
X62688970Y-141694469D01*
X62835876Y-141680000D01*
X63734124Y-141680000D01*
X63881030Y-141694469D01*
X63881030Y-141694469D01*
G37*
G36*
X68095000Y-142340000D02*
X66095000Y-142340000D01*
X66095000Y-140940000D01*
X68095000Y-140940000D01*
X68095000Y-142340000D01*
X68095000Y-142340000D01*
G37*
G36*
X112274208Y-138943473D02*
X112415241Y-138957363D01*
X112641442Y-139025981D01*
X112641444Y-139025982D01*
X112641447Y-139025983D01*
X112849910Y-139137408D01*
X113032634Y-139287366D01*
X113182592Y-139470090D01*
X113294017Y-139678553D01*
X113294018Y-139678556D01*
X113294019Y-139678558D01*
X113362637Y-139904759D01*
X113385806Y-140140000D01*
X113362637Y-140375241D01*
X113294019Y-140601442D01*
X113294017Y-140601447D01*
X113182592Y-140809910D01*
X113032634Y-140992634D01*
X112849910Y-141142592D01*
X112641447Y-141254017D01*
X112641444Y-141254018D01*
X112641442Y-141254019D01*
X112415241Y-141322637D01*
X112274208Y-141336527D01*
X112238951Y-141340000D01*
X112121049Y-141340000D01*
X112085792Y-141336527D01*
X111944759Y-141322637D01*
X111718558Y-141254019D01*
X111718556Y-141254018D01*
X111718553Y-141254017D01*
X111510090Y-141142592D01*
X111327366Y-140992634D01*
X111177408Y-140809910D01*
X111065983Y-140601447D01*
X111065981Y-140601442D01*
X110997363Y-140375241D01*
X110974194Y-140140000D01*
X110997363Y-139904759D01*
X111065981Y-139678558D01*
X111065982Y-139678556D01*
X111065983Y-139678553D01*
X111177408Y-139470090D01*
X111327366Y-139287366D01*
X111510090Y-139137408D01*
X111718553Y-139025983D01*
X111718556Y-139025982D01*
X111718558Y-139025981D01*
X111944759Y-138957363D01*
X112085792Y-138943473D01*
X112121049Y-138940000D01*
X112238951Y-138940000D01*
X112274208Y-138943473D01*
X112274208Y-138943473D01*
G37*
G36*
X108300000Y-141340000D02*
X105900000Y-141340000D01*
X105900000Y-138940000D01*
X108300000Y-138940000D01*
X108300000Y-141340000D01*
X108300000Y-141340000D01*
G37*
G36*
X71501030Y-139154469D02*
X71501033Y-139154470D01*
X71501034Y-139154470D01*
X71689535Y-139211651D01*
X71689537Y-139211652D01*
X71863260Y-139304509D01*
X72015528Y-139429472D01*
X72140491Y-139581740D01*
X72140492Y-139581742D01*
X72233349Y-139755465D01*
X72278638Y-139904763D01*
X72290531Y-139943970D01*
X72309838Y-140140000D01*
X72290531Y-140336030D01*
X72290530Y-140336033D01*
X72290530Y-140336034D01*
X72278637Y-140375241D01*
X72233348Y-140524537D01*
X72140491Y-140698260D01*
X72015528Y-140850528D01*
X71863260Y-140975491D01*
X71863258Y-140975492D01*
X71689535Y-141068349D01*
X71501034Y-141125530D01*
X71501033Y-141125530D01*
X71501030Y-141125531D01*
X71354124Y-141140000D01*
X70455876Y-141140000D01*
X70308970Y-141125531D01*
X70308967Y-141125530D01*
X70308966Y-141125530D01*
X70120465Y-141068349D01*
X69946742Y-140975492D01*
X69946740Y-140975491D01*
X69794472Y-140850528D01*
X69669509Y-140698260D01*
X69576652Y-140524537D01*
X69531364Y-140375241D01*
X69519470Y-140336034D01*
X69519470Y-140336033D01*
X69519469Y-140336030D01*
X69500162Y-140140000D01*
X69519469Y-139943970D01*
X69531362Y-139904763D01*
X69576651Y-139755465D01*
X69669508Y-139581742D01*
X69669509Y-139581740D01*
X69794472Y-139429472D01*
X69946740Y-139304509D01*
X70120463Y-139211652D01*
X70120465Y-139211651D01*
X70308966Y-139154470D01*
X70308967Y-139154470D01*
X70308970Y-139154469D01*
X70455876Y-139140000D01*
X71354124Y-139140000D01*
X71501030Y-139154469D01*
X71501030Y-139154469D01*
G37*
G36*
X63881030Y-139154469D02*
X63881033Y-139154470D01*
X63881034Y-139154470D01*
X64069535Y-139211651D01*
X64069537Y-139211652D01*
X64243260Y-139304509D01*
X64395528Y-139429472D01*
X64520491Y-139581740D01*
X64520492Y-139581742D01*
X64613349Y-139755465D01*
X64658638Y-139904763D01*
X64670531Y-139943970D01*
X64689838Y-140140000D01*
X64670531Y-140336030D01*
X64670530Y-140336033D01*
X64670530Y-140336034D01*
X64658637Y-140375241D01*
X64613348Y-140524537D01*
X64520491Y-140698260D01*
X64395528Y-140850528D01*
X64243260Y-140975491D01*
X64243258Y-140975492D01*
X64069535Y-141068349D01*
X63881034Y-141125530D01*
X63881033Y-141125530D01*
X63881030Y-141125531D01*
X63734124Y-141140000D01*
X62835876Y-141140000D01*
X62688970Y-141125531D01*
X62688967Y-141125530D01*
X62688966Y-141125530D01*
X62500465Y-141068349D01*
X62326742Y-140975492D01*
X62326740Y-140975491D01*
X62174472Y-140850528D01*
X62049509Y-140698260D01*
X61956652Y-140524537D01*
X61911364Y-140375241D01*
X61899470Y-140336034D01*
X61899470Y-140336033D01*
X61899469Y-140336030D01*
X61880162Y-140140000D01*
X61899469Y-139943970D01*
X61911362Y-139904763D01*
X61956651Y-139755465D01*
X62049508Y-139581742D01*
X62049509Y-139581740D01*
X62174472Y-139429472D01*
X62326740Y-139304509D01*
X62500463Y-139211652D01*
X62500465Y-139211651D01*
X62688966Y-139154470D01*
X62688967Y-139154470D01*
X62688970Y-139154469D01*
X62835876Y-139140000D01*
X63734124Y-139140000D01*
X63881030Y-139154469D01*
X63881030Y-139154469D01*
G37*
G36*
X87210000Y-140965000D02*
X85810000Y-140965000D01*
X85810000Y-139315000D01*
X87210000Y-139315000D01*
X87210000Y-140965000D01*
X87210000Y-140965000D01*
G37*
G36*
X85210000Y-140965000D02*
X83810000Y-140965000D01*
X83810000Y-139315000D01*
X85210000Y-139315000D01*
X85210000Y-140965000D01*
X85210000Y-140965000D01*
G37*
G36*
X80210000Y-140864000D02*
X78110000Y-140864000D01*
X78110000Y-139564000D01*
X80210000Y-139564000D01*
X80210000Y-140864000D01*
X80210000Y-140864000D01*
G37*
G36*
X83385000Y-140864000D02*
X81285000Y-140864000D01*
X81285000Y-139564000D01*
X83385000Y-139564000D01*
X83385000Y-140864000D01*
X83385000Y-140864000D01*
G37*
G36*
X89735000Y-140335000D02*
X87635000Y-140335000D01*
X87635000Y-139035000D01*
X89735000Y-139035000D01*
X89735000Y-140335000D01*
X89735000Y-140335000D01*
G37*
G36*
X92275000Y-140335000D02*
X90175000Y-140335000D01*
X90175000Y-139035000D01*
X92275000Y-139035000D01*
X92275000Y-140335000D01*
X92275000Y-140335000D01*
G37*
G36*
X68095000Y-139340000D02*
X66095000Y-139340000D01*
X66095000Y-137940000D01*
X68095000Y-137940000D01*
X68095000Y-139340000D01*
X68095000Y-139340000D01*
G37*
G36*
X79195000Y-139115000D02*
X76595000Y-139115000D01*
X76595000Y-134815000D01*
X79195000Y-134815000D01*
X79195000Y-139115000D01*
X79195000Y-139115000D01*
G37*
G36*
X82995000Y-139115000D02*
X80395000Y-139115000D01*
X80395000Y-134815000D01*
X82995000Y-134815000D01*
X82995000Y-139115000D01*
X82995000Y-139115000D01*
G37*
G36*
X63881030Y-136614469D02*
X63881033Y-136614470D01*
X63881034Y-136614470D01*
X64069535Y-136671651D01*
X64069537Y-136671652D01*
X64243260Y-136764509D01*
X64395528Y-136889472D01*
X64520491Y-137041740D01*
X64613348Y-137215463D01*
X64670531Y-137403970D01*
X64689838Y-137600000D01*
X64670531Y-137796030D01*
X64670530Y-137796033D01*
X64670530Y-137796034D01*
X64626859Y-137940000D01*
X64613348Y-137984537D01*
X64520491Y-138158260D01*
X64395528Y-138310528D01*
X64243260Y-138435491D01*
X64243258Y-138435492D01*
X64069535Y-138528349D01*
X63881034Y-138585530D01*
X63881033Y-138585530D01*
X63881030Y-138585531D01*
X63734124Y-138600000D01*
X62835876Y-138600000D01*
X62688970Y-138585531D01*
X62688967Y-138585530D01*
X62688966Y-138585530D01*
X62500465Y-138528349D01*
X62326742Y-138435492D01*
X62326740Y-138435491D01*
X62174472Y-138310528D01*
X62049509Y-138158260D01*
X61956652Y-137984537D01*
X61943142Y-137940000D01*
X61899470Y-137796034D01*
X61899470Y-137796033D01*
X61899469Y-137796030D01*
X61880162Y-137600000D01*
X61899469Y-137403970D01*
X61956652Y-137215463D01*
X62049509Y-137041740D01*
X62174472Y-136889472D01*
X62326740Y-136764509D01*
X62500463Y-136671652D01*
X62500465Y-136671651D01*
X62688966Y-136614470D01*
X62688967Y-136614470D01*
X62688970Y-136614469D01*
X62835876Y-136600000D01*
X63734124Y-136600000D01*
X63881030Y-136614469D01*
X63881030Y-136614469D01*
G37*
G36*
X71501030Y-136614469D02*
X71501033Y-136614470D01*
X71501034Y-136614470D01*
X71689535Y-136671651D01*
X71689537Y-136671652D01*
X71863260Y-136764509D01*
X72015528Y-136889472D01*
X72140491Y-137041740D01*
X72233348Y-137215463D01*
X72290531Y-137403970D01*
X72309838Y-137600000D01*
X72290531Y-137796030D01*
X72290530Y-137796033D01*
X72290530Y-137796034D01*
X72246859Y-137940000D01*
X72233348Y-137984537D01*
X72140491Y-138158260D01*
X72015528Y-138310528D01*
X71863260Y-138435491D01*
X71863258Y-138435492D01*
X71689535Y-138528349D01*
X71501034Y-138585530D01*
X71501033Y-138585530D01*
X71501030Y-138585531D01*
X71354124Y-138600000D01*
X70455876Y-138600000D01*
X70308970Y-138585531D01*
X70308967Y-138585530D01*
X70308966Y-138585530D01*
X70120465Y-138528349D01*
X69946742Y-138435492D01*
X69946740Y-138435491D01*
X69794472Y-138310528D01*
X69669509Y-138158260D01*
X69576652Y-137984537D01*
X69563142Y-137940000D01*
X69519470Y-137796034D01*
X69519470Y-137796033D01*
X69519469Y-137796030D01*
X69500162Y-137600000D01*
X69519469Y-137403970D01*
X69576652Y-137215463D01*
X69669509Y-137041740D01*
X69794472Y-136889472D01*
X69946740Y-136764509D01*
X70120463Y-136671652D01*
X70120465Y-136671651D01*
X70308966Y-136614470D01*
X70308967Y-136614470D01*
X70308970Y-136614469D01*
X70455876Y-136600000D01*
X71354124Y-136600000D01*
X71501030Y-136614469D01*
X71501030Y-136614469D01*
G37*
G36*
X85140000Y-138440000D02*
X83680000Y-138440000D01*
X83680000Y-135490000D01*
X85140000Y-135490000D01*
X85140000Y-138440000D01*
X85140000Y-138440000D01*
G37*
G36*
X87340000Y-138440000D02*
X85880000Y-138440000D01*
X85880000Y-135490000D01*
X87340000Y-135490000D01*
X87340000Y-138440000D01*
X87340000Y-138440000D01*
G37*
G36*
X92275000Y-137435000D02*
X90175000Y-137435000D01*
X90175000Y-136135000D01*
X92275000Y-136135000D01*
X92275000Y-137435000D01*
X92275000Y-137435000D01*
G37*
G36*
X89735000Y-137435000D02*
X87635000Y-137435000D01*
X87635000Y-136135000D01*
X89735000Y-136135000D01*
X89735000Y-137435000D01*
X89735000Y-137435000D01*
G37*
G36*
X106930000Y-135700000D02*
X104730000Y-135700000D01*
X104730000Y-131800000D01*
X106930000Y-131800000D01*
X106930000Y-135700000D01*
X106930000Y-135700000D01*
G37*
G36*
X114545000Y-135665000D02*
X108545000Y-135665000D01*
X108545000Y-132965000D01*
X114545000Y-132965000D01*
X114545000Y-135665000D01*
X114545000Y-135665000D01*
G37*
G36*
X68200000Y-135475000D02*
X66900000Y-135475000D01*
X66900000Y-133375000D01*
X68200000Y-133375000D01*
X68200000Y-135475000D01*
X68200000Y-135475000D01*
G37*
G36*
X71100000Y-135475000D02*
X69800000Y-135475000D01*
X69800000Y-133375000D01*
X71100000Y-133375000D01*
X71100000Y-135475000D01*
X71100000Y-135475000D01*
G37*
G36*
X89510000Y-134855000D02*
X87860000Y-134855000D01*
X87860000Y-133455000D01*
X89510000Y-133455000D01*
X89510000Y-134855000D01*
X89510000Y-134855000D01*
G37*
G36*
X87605000Y-134855000D02*
X85955000Y-134855000D01*
X85955000Y-133455000D01*
X87605000Y-133455000D01*
X87605000Y-134855000D01*
X87605000Y-134855000D01*
G37*
G36*
X65510857Y-132097272D02*
X65711042Y-132180191D01*
X65891213Y-132300578D01*
X66044422Y-132453787D01*
X66164809Y-132633958D01*
X66247728Y-132834143D01*
X66290000Y-133046658D01*
X66290000Y-133263342D01*
X66247728Y-133475857D01*
X66164809Y-133676042D01*
X66044422Y-133856213D01*
X65891213Y-134009422D01*
X65711042Y-134129809D01*
X65510857Y-134212728D01*
X65298342Y-134255000D01*
X65081658Y-134255000D01*
X64869143Y-134212728D01*
X64668958Y-134129809D01*
X64488787Y-134009422D01*
X64335578Y-133856213D01*
X64215191Y-133676042D01*
X64132272Y-133475857D01*
X64090000Y-133263342D01*
X64090000Y-133046658D01*
X64132272Y-132834143D01*
X64215191Y-132633958D01*
X64335578Y-132453787D01*
X64488787Y-132300578D01*
X64668958Y-132180191D01*
X64869143Y-132097272D01*
X65081658Y-132055000D01*
X65298342Y-132055000D01*
X65510857Y-132097272D01*
X65510857Y-132097272D01*
G37*
G36*
X63750000Y-134255000D02*
X61550000Y-134255000D01*
X61550000Y-132055000D01*
X63750000Y-132055000D01*
X63750000Y-134255000D01*
X63750000Y-134255000D01*
G37*
G36*
X80515000Y-133620000D02*
X76615000Y-133620000D01*
X76615000Y-131420000D01*
X80515000Y-131420000D01*
X80515000Y-133620000D01*
X80515000Y-133620000D01*
G37*
G36*
X85515000Y-133620000D02*
X81615000Y-133620000D01*
X81615000Y-131420000D01*
X85515000Y-131420000D01*
X85515000Y-133620000D01*
X85515000Y-133620000D01*
G37*
G36*
X71100000Y-132935000D02*
X69800000Y-132935000D01*
X69800000Y-130835000D01*
X71100000Y-130835000D01*
X71100000Y-132935000D01*
X71100000Y-132935000D01*
G37*
G36*
X68200000Y-132935000D02*
X66900000Y-132935000D01*
X66900000Y-130835000D01*
X68200000Y-130835000D01*
X68200000Y-132935000D01*
X68200000Y-132935000D01*
G37*
G36*
X87605000Y-132855000D02*
X85955000Y-132855000D01*
X85955000Y-131455000D01*
X87605000Y-131455000D01*
X87605000Y-132855000D01*
X87605000Y-132855000D01*
G37*
G36*
X89510000Y-132855000D02*
X87860000Y-132855000D01*
X87860000Y-131455000D01*
X89510000Y-131455000D01*
X89510000Y-132855000D01*
X89510000Y-132855000D01*
G37*
G36*
X101020026Y-130096115D02*
X101238412Y-130186573D01*
X101434958Y-130317901D01*
X101602099Y-130485042D01*
X101733427Y-130681588D01*
X101823885Y-130899974D01*
X101870000Y-131131809D01*
X101870000Y-131368191D01*
X101823885Y-131600026D01*
X101733427Y-131818412D01*
X101602099Y-132014958D01*
X101434958Y-132182099D01*
X101238412Y-132313427D01*
X101020026Y-132403885D01*
X100788191Y-132450000D01*
X100551809Y-132450000D01*
X100319974Y-132403885D01*
X100101588Y-132313427D01*
X99905042Y-132182099D01*
X99737901Y-132014958D01*
X99606573Y-131818412D01*
X99516115Y-131600026D01*
X99470000Y-131368191D01*
X99470000Y-131131809D01*
X99516115Y-130899974D01*
X99606573Y-130681588D01*
X99737901Y-130485042D01*
X99905042Y-130317901D01*
X100101588Y-130186573D01*
X100319974Y-130096115D01*
X100551809Y-130050000D01*
X100788191Y-130050000D01*
X101020026Y-130096115D01*
X101020026Y-130096115D01*
G37*
G36*
X96870000Y-132450000D02*
X94470000Y-132450000D01*
X94470000Y-130050000D01*
X96870000Y-130050000D01*
X96870000Y-132450000D01*
X96870000Y-132450000D01*
G37*
G36*
X106930000Y-130700000D02*
X104730000Y-130700000D01*
X104730000Y-126800000D01*
X106930000Y-126800000D01*
X106930000Y-130700000D01*
X106930000Y-130700000D01*
G37*
G36*
X73225000Y-129760000D02*
X71125000Y-129760000D01*
X71125000Y-127660000D01*
X73225000Y-127660000D01*
X73225000Y-129760000D01*
X73225000Y-129760000D01*
G37*
G36*
X68526000Y-129540000D02*
X66426000Y-129540000D01*
X66426000Y-128240000D01*
X68526000Y-128240000D01*
X68526000Y-129540000D01*
X68526000Y-129540000D01*
G37*
G36*
X88399876Y-126921605D02*
X88618172Y-127012026D01*
X88814633Y-127143297D01*
X88981703Y-127310367D01*
X89112974Y-127506828D01*
X89203395Y-127725124D01*
X89249490Y-127956859D01*
X89249490Y-128193141D01*
X89203395Y-128424876D01*
X89112974Y-128643172D01*
X88981703Y-128839633D01*
X88814633Y-129006703D01*
X88618172Y-129137974D01*
X88399876Y-129228395D01*
X88168141Y-129274490D01*
X87931859Y-129274490D01*
X87700124Y-129228395D01*
X87481828Y-129137974D01*
X87285367Y-129006703D01*
X87118297Y-128839633D01*
X86987026Y-128643172D01*
X86896605Y-128424876D01*
X86850510Y-128193141D01*
X86850510Y-127956859D01*
X86896605Y-127725124D01*
X86987026Y-127506828D01*
X87118297Y-127310367D01*
X87285367Y-127143297D01*
X87481828Y-127012026D01*
X87700124Y-126921605D01*
X87931859Y-126875510D01*
X88168141Y-126875510D01*
X88399876Y-126921605D01*
X88399876Y-126921605D01*
G37*
G36*
X78653707Y-127032597D02*
X78730836Y-127040193D01*
X78862787Y-127080220D01*
X78928763Y-127100233D01*
X79111172Y-127197733D01*
X79271054Y-127328946D01*
X79402267Y-127488828D01*
X79499767Y-127671237D01*
X79516113Y-127725124D01*
X79559807Y-127869164D01*
X79580080Y-128075000D01*
X79559807Y-128280836D01*
X79519780Y-128412787D01*
X79499767Y-128478763D01*
X79402267Y-128661172D01*
X79271054Y-128821054D01*
X79111172Y-128952267D01*
X78928763Y-129049767D01*
X78862787Y-129069780D01*
X78730836Y-129109807D01*
X78653707Y-129117404D01*
X78576580Y-129125000D01*
X78473420Y-129125000D01*
X78396293Y-129117404D01*
X78319164Y-129109807D01*
X78187213Y-129069780D01*
X78121237Y-129049767D01*
X77938828Y-128952267D01*
X77778946Y-128821054D01*
X77647733Y-128661172D01*
X77550233Y-128478763D01*
X77530220Y-128412787D01*
X77490193Y-128280836D01*
X77469920Y-128075000D01*
X77490193Y-127869164D01*
X77533887Y-127725124D01*
X77550233Y-127671237D01*
X77647733Y-127488828D01*
X77778946Y-127328946D01*
X77938828Y-127197733D01*
X78121237Y-127100233D01*
X78187213Y-127080220D01*
X78319164Y-127040193D01*
X78396293Y-127032597D01*
X78473420Y-127025000D01*
X78576580Y-127025000D01*
X78653707Y-127032597D01*
X78653707Y-127032597D01*
G37*
G36*
X81193707Y-127032597D02*
X81270836Y-127040193D01*
X81402787Y-127080220D01*
X81468763Y-127100233D01*
X81651172Y-127197733D01*
X81811054Y-127328946D01*
X81942267Y-127488828D01*
X82039767Y-127671237D01*
X82056113Y-127725124D01*
X82099807Y-127869164D01*
X82120080Y-128075000D01*
X82099807Y-128280836D01*
X82059780Y-128412787D01*
X82039767Y-128478763D01*
X81942267Y-128661172D01*
X81811054Y-128821054D01*
X81651172Y-128952267D01*
X81468763Y-129049767D01*
X81402787Y-129069780D01*
X81270836Y-129109807D01*
X81193707Y-129117404D01*
X81116580Y-129125000D01*
X81013420Y-129125000D01*
X80936293Y-129117404D01*
X80859164Y-129109807D01*
X80727213Y-129069780D01*
X80661237Y-129049767D01*
X80478828Y-128952267D01*
X80318946Y-128821054D01*
X80187733Y-128661172D01*
X80090233Y-128478763D01*
X80070220Y-128412787D01*
X80030193Y-128280836D01*
X80009920Y-128075000D01*
X80030193Y-127869164D01*
X80073887Y-127725124D01*
X80090233Y-127671237D01*
X80187733Y-127488828D01*
X80318946Y-127328946D01*
X80478828Y-127197733D01*
X80661237Y-127100233D01*
X80727213Y-127080220D01*
X80859164Y-127040193D01*
X80936293Y-127032597D01*
X81013420Y-127025000D01*
X81116580Y-127025000D01*
X81193707Y-127032597D01*
X81193707Y-127032597D01*
G37*
G36*
X84655000Y-129125000D02*
X82555000Y-129125000D01*
X82555000Y-127025000D01*
X84655000Y-127025000D01*
X84655000Y-129125000D01*
X84655000Y-129125000D01*
G37*
G36*
X114545000Y-128265000D02*
X108545000Y-128265000D01*
X108545000Y-125565000D01*
X114545000Y-125565000D01*
X114545000Y-128265000D01*
X114545000Y-128265000D01*
G37*
G36*
X72303707Y-125127596D02*
X72380836Y-125135193D01*
X72512787Y-125175220D01*
X72578763Y-125195233D01*
X72761172Y-125292733D01*
X72921054Y-125423946D01*
X73052267Y-125583828D01*
X73149767Y-125766237D01*
X73149767Y-125766238D01*
X73209807Y-125964164D01*
X73230080Y-126170000D01*
X73209807Y-126375836D01*
X73169780Y-126507787D01*
X73149767Y-126573763D01*
X73052267Y-126756172D01*
X72921054Y-126916054D01*
X72761172Y-127047267D01*
X72578763Y-127144767D01*
X72512787Y-127164780D01*
X72380836Y-127204807D01*
X72303707Y-127212404D01*
X72226580Y-127220000D01*
X72123420Y-127220000D01*
X72046293Y-127212404D01*
X71969164Y-127204807D01*
X71837213Y-127164780D01*
X71771237Y-127144767D01*
X71588828Y-127047267D01*
X71428946Y-126916054D01*
X71297733Y-126756172D01*
X71200233Y-126573763D01*
X71180220Y-126507787D01*
X71140193Y-126375836D01*
X71119920Y-126170000D01*
X71140193Y-125964164D01*
X71200233Y-125766238D01*
X71200233Y-125766237D01*
X71297733Y-125583828D01*
X71428946Y-125423946D01*
X71588828Y-125292733D01*
X71771237Y-125195233D01*
X71837213Y-125175220D01*
X71969164Y-125135193D01*
X72046293Y-125127596D01*
X72123420Y-125120000D01*
X72226580Y-125120000D01*
X72303707Y-125127596D01*
X72303707Y-125127596D01*
G37*
G36*
X68526000Y-126640000D02*
X66426000Y-126640000D01*
X66426000Y-125340000D01*
X68526000Y-125340000D01*
X68526000Y-126640000D01*
X68526000Y-126640000D01*
G37*
G36*
X72303707Y-122587597D02*
X72380836Y-122595193D01*
X72512787Y-122635220D01*
X72578763Y-122655233D01*
X72761172Y-122752733D01*
X72921054Y-122883946D01*
X73052267Y-123043828D01*
X73149767Y-123226237D01*
X73149767Y-123226238D01*
X73209807Y-123424164D01*
X73230080Y-123630000D01*
X73209807Y-123835836D01*
X73184883Y-123918000D01*
X73149767Y-124033763D01*
X73052267Y-124216172D01*
X72921054Y-124376054D01*
X72761172Y-124507267D01*
X72578763Y-124604767D01*
X72512787Y-124624780D01*
X72380836Y-124664807D01*
X72303707Y-124672404D01*
X72226580Y-124680000D01*
X72123420Y-124680000D01*
X72046293Y-124672404D01*
X71969164Y-124664807D01*
X71837213Y-124624780D01*
X71771237Y-124604767D01*
X71588828Y-124507267D01*
X71428946Y-124376054D01*
X71297733Y-124216172D01*
X71200233Y-124033763D01*
X71165117Y-123918000D01*
X71140193Y-123835836D01*
X71119920Y-123630000D01*
X71140193Y-123424164D01*
X71200233Y-123226238D01*
X71200233Y-123226237D01*
X71297733Y-123043828D01*
X71428946Y-122883946D01*
X71588828Y-122752733D01*
X71771237Y-122655233D01*
X71837213Y-122635220D01*
X71969164Y-122595193D01*
X72046293Y-122587597D01*
X72123420Y-122580000D01*
X72226580Y-122580000D01*
X72303707Y-122587597D01*
X72303707Y-122587597D01*
G37*
G36*
X67477707Y-121825597D02*
X67554836Y-121833193D01*
X67686787Y-121873220D01*
X67752763Y-121893233D01*
X67935172Y-121990733D01*
X68095054Y-122121946D01*
X68226267Y-122281828D01*
X68323767Y-122464237D01*
X68343780Y-122530213D01*
X68383807Y-122662164D01*
X68404080Y-122868000D01*
X68383807Y-123073836D01*
X68373447Y-123107988D01*
X68323767Y-123271763D01*
X68226267Y-123454172D01*
X68095054Y-123614054D01*
X67935172Y-123745267D01*
X67752763Y-123842767D01*
X67686787Y-123862780D01*
X67554836Y-123902807D01*
X67477707Y-123910403D01*
X67400580Y-123918000D01*
X67297420Y-123918000D01*
X67220293Y-123910403D01*
X67143164Y-123902807D01*
X67011213Y-123862780D01*
X66945237Y-123842767D01*
X66762828Y-123745267D01*
X66602946Y-123614054D01*
X66471733Y-123454172D01*
X66374233Y-123271763D01*
X66324553Y-123107988D01*
X66314193Y-123073836D01*
X66293920Y-122868000D01*
X66314193Y-122662164D01*
X66354220Y-122530213D01*
X66374233Y-122464237D01*
X66471733Y-122281828D01*
X66602946Y-122121946D01*
X66762828Y-121990733D01*
X66945237Y-121893233D01*
X67011213Y-121873220D01*
X67143164Y-121833193D01*
X67220293Y-121825597D01*
X67297420Y-121818000D01*
X67400580Y-121818000D01*
X67477707Y-121825597D01*
X67477707Y-121825597D01*
G37*
G36*
X112110639Y-121600916D02*
X112317986Y-121663815D01*
X112317988Y-121663816D01*
X112509084Y-121765958D01*
X112676581Y-121903419D01*
X112814042Y-122070916D01*
X112916184Y-122262012D01*
X112916185Y-122262014D01*
X112979084Y-122469361D01*
X113000322Y-122685000D01*
X112982299Y-122868000D01*
X112979084Y-122900638D01*
X112916184Y-123107988D01*
X112814042Y-123299084D01*
X112676581Y-123466581D01*
X112509084Y-123604042D01*
X112317988Y-123706184D01*
X112317986Y-123706185D01*
X112110639Y-123769084D01*
X111949038Y-123785000D01*
X111140962Y-123785000D01*
X110979361Y-123769084D01*
X110772014Y-123706185D01*
X110772012Y-123706184D01*
X110580916Y-123604042D01*
X110413419Y-123466581D01*
X110275958Y-123299084D01*
X110173816Y-123107988D01*
X110110916Y-122900638D01*
X110107702Y-122868000D01*
X110089678Y-122685000D01*
X110110916Y-122469361D01*
X110173815Y-122262014D01*
X110173816Y-122262012D01*
X110275958Y-122070916D01*
X110413419Y-121903419D01*
X110580916Y-121765958D01*
X110772012Y-121663816D01*
X110772014Y-121663815D01*
X110979361Y-121600916D01*
X111140962Y-121585000D01*
X111949038Y-121585000D01*
X112110639Y-121600916D01*
X112110639Y-121600916D01*
G37*
G36*
X87500000Y-123410000D02*
X86000000Y-123410000D01*
X86000000Y-120510000D01*
X87500000Y-120510000D01*
X87500000Y-123410000D01*
X87500000Y-123410000D01*
G37*
G36*
X83500000Y-123410000D02*
X82000000Y-123410000D01*
X82000000Y-120510000D01*
X83500000Y-120510000D01*
X83500000Y-123410000D01*
X83500000Y-123410000D01*
G37*
G36*
X81500000Y-123410000D02*
X80000000Y-123410000D01*
X80000000Y-120510000D01*
X81500000Y-120510000D01*
X81500000Y-123410000D01*
X81500000Y-123410000D01*
G37*
G36*
X91500000Y-123410000D02*
X90000000Y-123410000D01*
X90000000Y-120510000D01*
X91500000Y-120510000D01*
X91500000Y-123410000D01*
X91500000Y-123410000D01*
G37*
G36*
X89500000Y-123410000D02*
X88000000Y-123410000D01*
X88000000Y-120510000D01*
X89500000Y-120510000D01*
X89500000Y-123410000D01*
X89500000Y-123410000D01*
G37*
G36*
X85500000Y-123410000D02*
X84000000Y-123410000D01*
X84000000Y-120510000D01*
X85500000Y-120510000D01*
X85500000Y-123410000D01*
X85500000Y-123410000D01*
G37*
G36*
X101513707Y-120047597D02*
X101590836Y-120055193D01*
X101722787Y-120095220D01*
X101788763Y-120115233D01*
X101971172Y-120212733D01*
X102131054Y-120343946D01*
X102262267Y-120503828D01*
X102359767Y-120686237D01*
X102359767Y-120686238D01*
X102419807Y-120884164D01*
X102440080Y-121090000D01*
X102419807Y-121295836D01*
X102394883Y-121378000D01*
X102359767Y-121493763D01*
X102262267Y-121676172D01*
X102131054Y-121836054D01*
X101971172Y-121967267D01*
X101788763Y-122064767D01*
X101768485Y-122070918D01*
X101590836Y-122124807D01*
X101513707Y-122132403D01*
X101436580Y-122140000D01*
X101333420Y-122140000D01*
X101256293Y-122132403D01*
X101179164Y-122124807D01*
X101001515Y-122070918D01*
X100981237Y-122064767D01*
X100798828Y-121967267D01*
X100638946Y-121836054D01*
X100507733Y-121676172D01*
X100410233Y-121493763D01*
X100375117Y-121378000D01*
X100350193Y-121295836D01*
X100329920Y-121090000D01*
X100350193Y-120884164D01*
X100410233Y-120686238D01*
X100410233Y-120686237D01*
X100507733Y-120503828D01*
X100638946Y-120343946D01*
X100798828Y-120212733D01*
X100981237Y-120115233D01*
X101047213Y-120095220D01*
X101179164Y-120055193D01*
X101256293Y-120047597D01*
X101333420Y-120040000D01*
X101436580Y-120040000D01*
X101513707Y-120047597D01*
X101513707Y-120047597D01*
G37*
G36*
X98625000Y-121920000D02*
X96525000Y-121920000D01*
X96525000Y-120620000D01*
X98625000Y-120620000D01*
X98625000Y-121920000D01*
X98625000Y-121920000D01*
G37*
G36*
X74910000Y-121505000D02*
X73610000Y-121505000D01*
X73610000Y-119405000D01*
X74910000Y-119405000D01*
X74910000Y-121505000D01*
X74910000Y-121505000D01*
G37*
G36*
X72010000Y-121505000D02*
X70710000Y-121505000D01*
X70710000Y-119405000D01*
X72010000Y-119405000D01*
X72010000Y-121505000D01*
X72010000Y-121505000D01*
G37*
G36*
X68399000Y-121378000D02*
X66299000Y-121378000D01*
X66299000Y-119278000D01*
X68399000Y-119278000D01*
X68399000Y-121378000D01*
X68399000Y-121378000D01*
G37*
G36*
X94910000Y-121010000D02*
X92010000Y-121010000D01*
X92010000Y-119510000D01*
X94910000Y-119510000D01*
X94910000Y-121010000D01*
X94910000Y-121010000D01*
G37*
G36*
X79510000Y-121010000D02*
X76610000Y-121010000D01*
X76610000Y-119510000D01*
X79510000Y-119510000D01*
X79510000Y-121010000D01*
X79510000Y-121010000D01*
G37*
G36*
X112110639Y-118100916D02*
X112317986Y-118163815D01*
X112317988Y-118163816D01*
X112509084Y-118265958D01*
X112676581Y-118403419D01*
X112814042Y-118570916D01*
X112916184Y-118762012D01*
X112916185Y-118762014D01*
X112979084Y-118969361D01*
X113000322Y-119185000D01*
X112979084Y-119400639D01*
X112918608Y-119600000D01*
X112916184Y-119607988D01*
X112814042Y-119799084D01*
X112676581Y-119966581D01*
X112509084Y-120104042D01*
X112317988Y-120206184D01*
X112317986Y-120206185D01*
X112110639Y-120269084D01*
X111949038Y-120285000D01*
X111140962Y-120285000D01*
X110979361Y-120269084D01*
X110772014Y-120206185D01*
X110772012Y-120206184D01*
X110580916Y-120104042D01*
X110413419Y-119966581D01*
X110275958Y-119799084D01*
X110173816Y-119607988D01*
X110171393Y-119600000D01*
X110110916Y-119400639D01*
X110089678Y-119185000D01*
X110110916Y-118969361D01*
X110173815Y-118762014D01*
X110173816Y-118762012D01*
X110275958Y-118570916D01*
X110413419Y-118403419D01*
X110580916Y-118265958D01*
X110772012Y-118163816D01*
X110772014Y-118163815D01*
X110979361Y-118100916D01*
X111140962Y-118085000D01*
X111949038Y-118085000D01*
X112110639Y-118100916D01*
X112110639Y-118100916D01*
G37*
G36*
X102435000Y-119600000D02*
X100335000Y-119600000D01*
X100335000Y-117500000D01*
X102435000Y-117500000D01*
X102435000Y-119600000D01*
X102435000Y-119600000D01*
G37*
G36*
X98625000Y-119020000D02*
X96525000Y-119020000D01*
X96525000Y-117720000D01*
X98625000Y-117720000D01*
X98625000Y-119020000D01*
X98625000Y-119020000D01*
G37*
G36*
X79510000Y-119010000D02*
X76610000Y-119010000D01*
X76610000Y-117510000D01*
X79510000Y-117510000D01*
X79510000Y-119010000D01*
X79510000Y-119010000D01*
G37*
G36*
X94910000Y-119010000D02*
X92010000Y-119010000D01*
X92010000Y-117510000D01*
X94910000Y-117510000D01*
X94910000Y-119010000D01*
X94910000Y-119010000D01*
G37*
G36*
X74910000Y-118965000D02*
X73610000Y-118965000D01*
X73610000Y-116865000D01*
X74910000Y-116865000D01*
X74910000Y-118965000D01*
X74910000Y-118965000D01*
G37*
G36*
X72010000Y-118965000D02*
X70710000Y-118965000D01*
X70710000Y-116865000D01*
X72010000Y-116865000D01*
X72010000Y-118965000D01*
X72010000Y-118965000D01*
G37*
G36*
X65374639Y-114925916D02*
X65581986Y-114988815D01*
X65581988Y-114988816D01*
X65773084Y-115090958D01*
X65940581Y-115228419D01*
X66078042Y-115395916D01*
X66180184Y-115587012D01*
X66243084Y-115794362D01*
X66264322Y-116010000D01*
X66243084Y-116225638D01*
X66180184Y-116432988D01*
X66078042Y-116624084D01*
X65940581Y-116791581D01*
X65773084Y-116929042D01*
X65581988Y-117031184D01*
X65581986Y-117031185D01*
X65374639Y-117094084D01*
X65213038Y-117110000D01*
X64404962Y-117110000D01*
X64243361Y-117094084D01*
X64036014Y-117031185D01*
X64036012Y-117031184D01*
X63844916Y-116929042D01*
X63677419Y-116791581D01*
X63539958Y-116624084D01*
X63437816Y-116432988D01*
X63374916Y-116225638D01*
X63353678Y-116010000D01*
X63374916Y-115794362D01*
X63437816Y-115587012D01*
X63539958Y-115395916D01*
X63677419Y-115228419D01*
X63844916Y-115090958D01*
X64036012Y-114988816D01*
X64036014Y-114988815D01*
X64243361Y-114925916D01*
X64404962Y-114910000D01*
X65213038Y-114910000D01*
X65374639Y-114925916D01*
X65374639Y-114925916D01*
G37*
G36*
X94910000Y-117010000D02*
X92010000Y-117010000D01*
X92010000Y-115510000D01*
X94910000Y-115510000D01*
X94910000Y-117010000D01*
X94910000Y-117010000D01*
G37*
G36*
X79510000Y-117010000D02*
X76610000Y-117010000D01*
X76610000Y-115510000D01*
X79510000Y-115510000D01*
X79510000Y-117010000D01*
X79510000Y-117010000D01*
G37*
G36*
X107228707Y-113697597D02*
X107305836Y-113705193D01*
X107437787Y-113745220D01*
X107503763Y-113765233D01*
X107686172Y-113862733D01*
X107846054Y-113993946D01*
X107977267Y-114153828D01*
X108074767Y-114336237D01*
X108074767Y-114336238D01*
X108134807Y-114534164D01*
X108155080Y-114740000D01*
X108134807Y-114945836D01*
X108121769Y-114988816D01*
X108074767Y-115143763D01*
X107977267Y-115326172D01*
X107846054Y-115486054D01*
X107686172Y-115617267D01*
X107503763Y-115714767D01*
X107437787Y-115734780D01*
X107305836Y-115774807D01*
X107228707Y-115782403D01*
X107151580Y-115790000D01*
X107048420Y-115790000D01*
X106971293Y-115782403D01*
X106894164Y-115774807D01*
X106762213Y-115734780D01*
X106696237Y-115714767D01*
X106513828Y-115617267D01*
X106353946Y-115486054D01*
X106222733Y-115326172D01*
X106125233Y-115143763D01*
X106078231Y-114988816D01*
X106065193Y-114945836D01*
X106044920Y-114740000D01*
X106065193Y-114534164D01*
X106125233Y-114336238D01*
X106125233Y-114336237D01*
X106222733Y-114153828D01*
X106353946Y-113993946D01*
X106513828Y-113862733D01*
X106696237Y-113765233D01*
X106762213Y-113745220D01*
X106894164Y-113705193D01*
X106971293Y-113697597D01*
X107048420Y-113690000D01*
X107151580Y-113690000D01*
X107228707Y-113697597D01*
X107228707Y-113697597D01*
G37*
G36*
X74910000Y-115790000D02*
X73610000Y-115790000D01*
X73610000Y-113690000D01*
X74910000Y-113690000D01*
X74910000Y-115790000D01*
X74910000Y-115790000D01*
G37*
G36*
X72010000Y-115790000D02*
X70710000Y-115790000D01*
X70710000Y-113690000D01*
X72010000Y-113690000D01*
X72010000Y-115790000D01*
X72010000Y-115790000D01*
G37*
G36*
X99950000Y-115155000D02*
X98650000Y-115155000D01*
X98650000Y-113055000D01*
X99950000Y-113055000D01*
X99950000Y-115155000D01*
X99950000Y-115155000D01*
G37*
G36*
X102850000Y-115155000D02*
X101550000Y-115155000D01*
X101550000Y-113055000D01*
X102850000Y-113055000D01*
X102850000Y-115155000D01*
X102850000Y-115155000D01*
G37*
G36*
X94910000Y-115010000D02*
X92010000Y-115010000D01*
X92010000Y-113510000D01*
X94910000Y-113510000D01*
X94910000Y-115010000D01*
X94910000Y-115010000D01*
G37*
G36*
X79510000Y-115010000D02*
X76610000Y-115010000D01*
X76610000Y-113510000D01*
X79510000Y-113510000D01*
X79510000Y-115010000D01*
X79510000Y-115010000D01*
G37*
G36*
X65374639Y-111425916D02*
X65581986Y-111488815D01*
X65581988Y-111488816D01*
X65773084Y-111590958D01*
X65940581Y-111728419D01*
X66078042Y-111895916D01*
X66130556Y-111994164D01*
X66180185Y-112087014D01*
X66243084Y-112294361D01*
X66264322Y-112510000D01*
X66243084Y-112725639D01*
X66224722Y-112786171D01*
X66180184Y-112932988D01*
X66078042Y-113124084D01*
X65940581Y-113291581D01*
X65773084Y-113429042D01*
X65581988Y-113531184D01*
X65581986Y-113531185D01*
X65374639Y-113594084D01*
X65213038Y-113610000D01*
X64404962Y-113610000D01*
X64243361Y-113594084D01*
X64036014Y-113531185D01*
X64036012Y-113531184D01*
X63844916Y-113429042D01*
X63677419Y-113291581D01*
X63539958Y-113124084D01*
X63437816Y-112932988D01*
X63393279Y-112786171D01*
X63374916Y-112725639D01*
X63353678Y-112510000D01*
X63374916Y-112294361D01*
X63437815Y-112087014D01*
X63487444Y-111994164D01*
X63539958Y-111895916D01*
X63677419Y-111728419D01*
X63844916Y-111590958D01*
X64036012Y-111488816D01*
X64036014Y-111488815D01*
X64243361Y-111425916D01*
X64404962Y-111410000D01*
X65213038Y-111410000D01*
X65374639Y-111425916D01*
X65374639Y-111425916D01*
G37*
G36*
X74910000Y-113250000D02*
X73610000Y-113250000D01*
X73610000Y-111150000D01*
X74910000Y-111150000D01*
X74910000Y-113250000D01*
X74910000Y-113250000D01*
G37*
G36*
X107228707Y-111157596D02*
X107305836Y-111165193D01*
X107437787Y-111205220D01*
X107503763Y-111225233D01*
X107686172Y-111322733D01*
X107846054Y-111453946D01*
X107977267Y-111613828D01*
X108074767Y-111796237D01*
X108074767Y-111796238D01*
X108134807Y-111994164D01*
X108155080Y-112200000D01*
X108134807Y-112405836D01*
X108103209Y-112510000D01*
X108074767Y-112603763D01*
X107977267Y-112786172D01*
X107846054Y-112946054D01*
X107686172Y-113077267D01*
X107503763Y-113174767D01*
X107437787Y-113194780D01*
X107305836Y-113234807D01*
X107228707Y-113242403D01*
X107151580Y-113250000D01*
X107048420Y-113250000D01*
X106971293Y-113242403D01*
X106894164Y-113234807D01*
X106762213Y-113194780D01*
X106696237Y-113174767D01*
X106513828Y-113077267D01*
X106353946Y-112946054D01*
X106222733Y-112786172D01*
X106125233Y-112603763D01*
X106096791Y-112510000D01*
X106065193Y-112405836D01*
X106044920Y-112200000D01*
X106065193Y-111994164D01*
X106125233Y-111796238D01*
X106125233Y-111796237D01*
X106222733Y-111613828D01*
X106353946Y-111453946D01*
X106513828Y-111322733D01*
X106696237Y-111225233D01*
X106762213Y-111205220D01*
X106894164Y-111165193D01*
X106971293Y-111157596D01*
X107048420Y-111150000D01*
X107151580Y-111150000D01*
X107228707Y-111157596D01*
X107228707Y-111157596D01*
G37*
G36*
X72010000Y-113250000D02*
X70710000Y-113250000D01*
X70710000Y-111150000D01*
X72010000Y-111150000D01*
X72010000Y-113250000D01*
X72010000Y-113250000D01*
G37*
G36*
X94910000Y-113010000D02*
X92010000Y-113010000D01*
X92010000Y-111510000D01*
X94910000Y-111510000D01*
X94910000Y-113010000D01*
X94910000Y-113010000D01*
G37*
G36*
X79510000Y-113010000D02*
X76610000Y-113010000D01*
X76610000Y-111510000D01*
X79510000Y-111510000D01*
X79510000Y-113010000D01*
X79510000Y-113010000D01*
G37*
G36*
X70079000Y-112630000D02*
X68429000Y-112630000D01*
X68429000Y-111230000D01*
X70079000Y-111230000D01*
X70079000Y-112630000D01*
X70079000Y-112630000D01*
G37*
G36*
X94910000Y-111010000D02*
X92010000Y-111010000D01*
X92010000Y-109510000D01*
X94910000Y-109510000D01*
X94910000Y-111010000D01*
X94910000Y-111010000D01*
G37*
G36*
X79510000Y-111010000D02*
X76610000Y-111010000D01*
X76610000Y-109510000D01*
X79510000Y-109510000D01*
X79510000Y-111010000D01*
X79510000Y-111010000D01*
G37*
G36*
X107228707Y-108617597D02*
X107305836Y-108625193D01*
X107437787Y-108665220D01*
X107503763Y-108685233D01*
X107686172Y-108782733D01*
X107846054Y-108913946D01*
X107977267Y-109073828D01*
X108074767Y-109256237D01*
X108074767Y-109256238D01*
X108134807Y-109454164D01*
X108155080Y-109660000D01*
X108134807Y-109865836D01*
X108094780Y-109997787D01*
X108074767Y-110063763D01*
X107977267Y-110246172D01*
X107846054Y-110406054D01*
X107686172Y-110537267D01*
X107503763Y-110634767D01*
X107437787Y-110654780D01*
X107305836Y-110694807D01*
X107228707Y-110702403D01*
X107151580Y-110710000D01*
X107048420Y-110710000D01*
X106971293Y-110702403D01*
X106894164Y-110694807D01*
X106762213Y-110654780D01*
X106696237Y-110634767D01*
X106513828Y-110537267D01*
X106353946Y-110406054D01*
X106222733Y-110246172D01*
X106125233Y-110063763D01*
X106105220Y-109997787D01*
X106065193Y-109865836D01*
X106044920Y-109660000D01*
X106065193Y-109454164D01*
X106125233Y-109256238D01*
X106125233Y-109256237D01*
X106222733Y-109073828D01*
X106353946Y-108913946D01*
X106513828Y-108782733D01*
X106696237Y-108685233D01*
X106762213Y-108665220D01*
X106894164Y-108625193D01*
X106971293Y-108617597D01*
X107048420Y-108610000D01*
X107151580Y-108610000D01*
X107228707Y-108617597D01*
X107228707Y-108617597D01*
G37*
G36*
X72010000Y-110710000D02*
X70710000Y-110710000D01*
X70710000Y-108610000D01*
X72010000Y-108610000D01*
X72010000Y-110710000D01*
X72010000Y-110710000D01*
G37*
G36*
X74910000Y-110710000D02*
X73610000Y-110710000D01*
X73610000Y-108610000D01*
X74910000Y-108610000D01*
X74910000Y-110710000D01*
X74910000Y-110710000D01*
G37*
G36*
X70079000Y-110630000D02*
X68429000Y-110630000D01*
X68429000Y-109230000D01*
X70079000Y-109230000D01*
X70079000Y-110630000D01*
X70079000Y-110630000D01*
G37*
G36*
X115507560Y-104142759D02*
X115998928Y-104346290D01*
X115998930Y-104346291D01*
X116435268Y-104637843D01*
X116441153Y-104641775D01*
X116817225Y-105017847D01*
X116817227Y-105017850D01*
X117095958Y-105435000D01*
X117112710Y-105460072D01*
X117316241Y-105951440D01*
X117420000Y-106473072D01*
X117420000Y-107004928D01*
X117316241Y-107526560D01*
X117112710Y-108017928D01*
X117112709Y-108017930D01*
X117090141Y-108051705D01*
X116817225Y-108460153D01*
X116441153Y-108836225D01*
X116441150Y-108836227D01*
X115998930Y-109131709D01*
X115998929Y-109131710D01*
X115998928Y-109131710D01*
X115507560Y-109335241D01*
X114985928Y-109439000D01*
X114454072Y-109439000D01*
X113932440Y-109335241D01*
X113441072Y-109131710D01*
X113441071Y-109131710D01*
X113441070Y-109131709D01*
X112998850Y-108836227D01*
X112998847Y-108836225D01*
X112622775Y-108460153D01*
X112349859Y-108051705D01*
X112327291Y-108017930D01*
X112327290Y-108017928D01*
X112123759Y-107526560D01*
X112020000Y-107004928D01*
X112020000Y-106473072D01*
X112123759Y-105951440D01*
X112327290Y-105460072D01*
X112344043Y-105435000D01*
X112622773Y-105017850D01*
X112622775Y-105017847D01*
X112998847Y-104641775D01*
X113004732Y-104637843D01*
X113441070Y-104346291D01*
X113441072Y-104346290D01*
X113932440Y-104142759D01*
X114454072Y-104039000D01*
X114985928Y-104039000D01*
X115507560Y-104142759D01*
X115507560Y-104142759D01*
G37*
G36*
X64707560Y-104142759D02*
X65198928Y-104346290D01*
X65198930Y-104346291D01*
X65635268Y-104637843D01*
X65641153Y-104641775D01*
X66017225Y-105017847D01*
X66017227Y-105017850D01*
X66295958Y-105435000D01*
X66312710Y-105460072D01*
X66516241Y-105951440D01*
X66620000Y-106473072D01*
X66620000Y-107004928D01*
X66516241Y-107526560D01*
X66312710Y-108017928D01*
X66312709Y-108017930D01*
X66290141Y-108051705D01*
X66017225Y-108460153D01*
X65641153Y-108836225D01*
X65641150Y-108836227D01*
X65198930Y-109131709D01*
X65198929Y-109131710D01*
X65198928Y-109131710D01*
X64707560Y-109335241D01*
X64185928Y-109439000D01*
X63654072Y-109439000D01*
X63132440Y-109335241D01*
X62641072Y-109131710D01*
X62641071Y-109131710D01*
X62641070Y-109131709D01*
X62198850Y-108836227D01*
X62198847Y-108836225D01*
X61822775Y-108460153D01*
X61549859Y-108051705D01*
X61527291Y-108017930D01*
X61527290Y-108017928D01*
X61323759Y-107526560D01*
X61220000Y-107004928D01*
X61220000Y-106473072D01*
X61323759Y-105951440D01*
X61527290Y-105460072D01*
X61544043Y-105435000D01*
X61822773Y-105017850D01*
X61822775Y-105017847D01*
X62198847Y-104641775D01*
X62204732Y-104637843D01*
X62641070Y-104346291D01*
X62641072Y-104346290D01*
X63132440Y-104142759D01*
X63654072Y-104039000D01*
X64185928Y-104039000D01*
X64707560Y-104142759D01*
X64707560Y-104142759D01*
G37*
G36*
X79510000Y-109010000D02*
X76610000Y-109010000D01*
X76610000Y-107510000D01*
X79510000Y-107510000D01*
X79510000Y-109010000D01*
X79510000Y-109010000D01*
G37*
G36*
X94910000Y-109010000D02*
X92010000Y-109010000D01*
X92010000Y-107510000D01*
X94910000Y-107510000D01*
X94910000Y-109010000D01*
X94910000Y-109010000D01*
G37*
G36*
X104274876Y-105966605D02*
X104493172Y-106057026D01*
X104689633Y-106188297D01*
X104856703Y-106355367D01*
X104987974Y-106551828D01*
X105078395Y-106770124D01*
X105124490Y-107001859D01*
X105124490Y-107238141D01*
X105078395Y-107469876D01*
X104987974Y-107688172D01*
X104856703Y-107884633D01*
X104689633Y-108051703D01*
X104493172Y-108182974D01*
X104274876Y-108273395D01*
X104043141Y-108319490D01*
X103806859Y-108319490D01*
X103575124Y-108273395D01*
X103356828Y-108182974D01*
X103160367Y-108051703D01*
X102993297Y-107884633D01*
X102862026Y-107688172D01*
X102771605Y-107469876D01*
X102725510Y-107238141D01*
X102725510Y-107001859D01*
X102771605Y-106770124D01*
X102862026Y-106551828D01*
X102993297Y-106355367D01*
X103160367Y-106188297D01*
X103356828Y-106057026D01*
X103575124Y-105966605D01*
X103806859Y-105920510D01*
X104043141Y-105920510D01*
X104274876Y-105966605D01*
X104274876Y-105966605D01*
G37*
G36*
X108150000Y-108170000D02*
X106050000Y-108170000D01*
X106050000Y-106070000D01*
X108150000Y-106070000D01*
X108150000Y-108170000D01*
X108150000Y-108170000D01*
G37*
G36*
X74910000Y-107535000D02*
X73610000Y-107535000D01*
X73610000Y-105435000D01*
X74910000Y-105435000D01*
X74910000Y-107535000D01*
X74910000Y-107535000D01*
G37*
G36*
X72010000Y-107535000D02*
X70710000Y-107535000D01*
X70710000Y-105435000D01*
X72010000Y-105435000D01*
X72010000Y-107535000D01*
X72010000Y-107535000D01*
G37*
G36*
X94910000Y-107010000D02*
X92010000Y-107010000D01*
X92010000Y-105510000D01*
X94910000Y-105510000D01*
X94910000Y-107010000D01*
X94910000Y-107010000D01*
G37*
G36*
X79510000Y-107010000D02*
X76610000Y-107010000D01*
X76610000Y-105510000D01*
X79510000Y-105510000D01*
X79510000Y-107010000D01*
X79510000Y-107010000D01*
G37*
M02*
