%TF.GenerationSoftware,KiCad,Pcbnew,(5.1.2)-1*%
%TF.CreationDate,2019-05-07T13:27:01+02:00*%
%TF.ProjectId,nfc-door,6e66632d-646f-46f7-922e-6b696361645f,rev?*%
%TF.SameCoordinates,Original*%
%TF.FileFunction,Legend,Top*%
%TF.FilePolarity,Positive*%
%FSLAX46Y46*%
G04 Gerber Fmt 4.6, Leading zero omitted, Abs format (unit mm)*
G04 Created by KiCad (PCBNEW (5.1.2)-1) date 2019-05-07 13:27:01*
%MOMM*%
%LPD*%
G04 APERTURE LIST*
%ADD10C,0.150000*%
%ADD11C,0.125000*%
%ADD12C,0.300000*%
%ADD13C,0.200000*%
%ADD14C,0.120000*%
%ADD15C,0.152400*%
G04 APERTURE END LIST*
D10*
X95790714Y-154331142D02*
X96400238Y-154331142D01*
X96095476Y-154635904D02*
X96095476Y-154026380D01*
X97809761Y-154635904D02*
X97352619Y-154635904D01*
X97581190Y-154635904D02*
X97581190Y-153835904D01*
X97505000Y-153950190D01*
X97428809Y-154026380D01*
X97352619Y-154064476D01*
X98114523Y-153912095D02*
X98152619Y-153874000D01*
X98228809Y-153835904D01*
X98419285Y-153835904D01*
X98495476Y-153874000D01*
X98533571Y-153912095D01*
X98571666Y-153988285D01*
X98571666Y-154064476D01*
X98533571Y-154178761D01*
X98076428Y-154635904D01*
X98571666Y-154635904D01*
X98800238Y-153835904D02*
X99066904Y-154635904D01*
X99333571Y-153835904D01*
X100089523Y-154635904D02*
X100089523Y-153835904D01*
X100280000Y-153835904D01*
X100394285Y-153874000D01*
X100470476Y-153950190D01*
X100508571Y-154026380D01*
X100546666Y-154178761D01*
X100546666Y-154293047D01*
X100508571Y-154445428D01*
X100470476Y-154521619D01*
X100394285Y-154597809D01*
X100280000Y-154635904D01*
X100089523Y-154635904D01*
X101041904Y-153835904D02*
X101118095Y-153835904D01*
X101194285Y-153874000D01*
X101232380Y-153912095D01*
X101270476Y-153988285D01*
X101308571Y-154140666D01*
X101308571Y-154331142D01*
X101270476Y-154483523D01*
X101232380Y-154559714D01*
X101194285Y-154597809D01*
X101118095Y-154635904D01*
X101041904Y-154635904D01*
X100965714Y-154597809D01*
X100927619Y-154559714D01*
X100889523Y-154483523D01*
X100851428Y-154331142D01*
X100851428Y-154140666D01*
X100889523Y-153988285D01*
X100927619Y-153912095D01*
X100965714Y-153874000D01*
X101041904Y-153835904D01*
X103249523Y-154595904D02*
X103249523Y-153795904D01*
X103440000Y-153795904D01*
X103554285Y-153834000D01*
X103630476Y-153910190D01*
X103668571Y-153986380D01*
X103706666Y-154138761D01*
X103706666Y-154253047D01*
X103668571Y-154405428D01*
X103630476Y-154481619D01*
X103554285Y-154557809D01*
X103440000Y-154595904D01*
X103249523Y-154595904D01*
X104468571Y-154595904D02*
X104011428Y-154595904D01*
X104240000Y-154595904D02*
X104240000Y-153795904D01*
X104163809Y-153910190D01*
X104087619Y-153986380D01*
X104011428Y-154024476D01*
X106825714Y-154595904D02*
X106444761Y-154595904D01*
X106444761Y-153795904D01*
X107092380Y-154176857D02*
X107359047Y-154176857D01*
X107473333Y-154595904D02*
X107092380Y-154595904D01*
X107092380Y-153795904D01*
X107473333Y-153795904D01*
X107816190Y-154595904D02*
X107816190Y-153795904D01*
X108006666Y-153795904D01*
X108120952Y-153834000D01*
X108197142Y-153910190D01*
X108235238Y-153986380D01*
X108273333Y-154138761D01*
X108273333Y-154253047D01*
X108235238Y-154405428D01*
X108197142Y-154481619D01*
X108120952Y-154557809D01*
X108006666Y-154595904D01*
X107816190Y-154595904D01*
X109335238Y-153795904D02*
X109525714Y-154595904D01*
X109678095Y-154024476D01*
X109830476Y-154595904D01*
X110020952Y-153795904D01*
X110744761Y-153834000D02*
X110668571Y-153795904D01*
X110554285Y-153795904D01*
X110440000Y-153834000D01*
X110363809Y-153910190D01*
X110325714Y-153986380D01*
X110287619Y-154138761D01*
X110287619Y-154253047D01*
X110325714Y-154405428D01*
X110363809Y-154481619D01*
X110440000Y-154557809D01*
X110554285Y-154595904D01*
X110630476Y-154595904D01*
X110744761Y-154557809D01*
X110782857Y-154519714D01*
X110782857Y-154253047D01*
X110630476Y-154253047D01*
X111087619Y-153872095D02*
X111125714Y-153834000D01*
X111201904Y-153795904D01*
X111392380Y-153795904D01*
X111468571Y-153834000D01*
X111506666Y-153872095D01*
X111544761Y-153948285D01*
X111544761Y-154024476D01*
X111506666Y-154138761D01*
X111049523Y-154595904D01*
X111544761Y-154595904D01*
X112230476Y-153795904D02*
X112078095Y-153795904D01*
X112001904Y-153834000D01*
X111963809Y-153872095D01*
X111887619Y-153986380D01*
X111849523Y-154138761D01*
X111849523Y-154443523D01*
X111887619Y-154519714D01*
X111925714Y-154557809D01*
X112001904Y-154595904D01*
X112154285Y-154595904D01*
X112230476Y-154557809D01*
X112268571Y-154519714D01*
X112306666Y-154443523D01*
X112306666Y-154253047D01*
X112268571Y-154176857D01*
X112230476Y-154138761D01*
X112154285Y-154100666D01*
X112001904Y-154100666D01*
X111925714Y-154138761D01*
X111887619Y-154176857D01*
X111849523Y-154253047D01*
X113597142Y-154176857D02*
X113711428Y-154214952D01*
X113749523Y-154253047D01*
X113787619Y-154329238D01*
X113787619Y-154443523D01*
X113749523Y-154519714D01*
X113711428Y-154557809D01*
X113635238Y-154595904D01*
X113330476Y-154595904D01*
X113330476Y-153795904D01*
X113597142Y-153795904D01*
X113673333Y-153834000D01*
X113711428Y-153872095D01*
X113749523Y-153948285D01*
X113749523Y-154024476D01*
X113711428Y-154100666D01*
X113673333Y-154138761D01*
X113597142Y-154176857D01*
X113330476Y-154176857D01*
X114130476Y-153795904D02*
X114130476Y-154443523D01*
X114168571Y-154519714D01*
X114206666Y-154557809D01*
X114282857Y-154595904D01*
X114435238Y-154595904D01*
X114511428Y-154557809D01*
X114549523Y-154519714D01*
X114587619Y-154443523D01*
X114587619Y-153795904D01*
X114892380Y-153795904D02*
X115425714Y-153795904D01*
X114892380Y-154595904D01*
X115425714Y-154595904D01*
D11*
X77693619Y-108037333D02*
X77669809Y-108108761D01*
X77669809Y-108227809D01*
X77693619Y-108275428D01*
X77717428Y-108299238D01*
X77765047Y-108323047D01*
X77812666Y-108323047D01*
X77860285Y-108299238D01*
X77884095Y-108275428D01*
X77907904Y-108227809D01*
X77931714Y-108132571D01*
X77955523Y-108084952D01*
X77979333Y-108061142D01*
X78026952Y-108037333D01*
X78074571Y-108037333D01*
X78122190Y-108061142D01*
X78146000Y-108084952D01*
X78169809Y-108132571D01*
X78169809Y-108251619D01*
X78146000Y-108323047D01*
X77693619Y-108727809D02*
X77669809Y-108680190D01*
X77669809Y-108584952D01*
X77693619Y-108537333D01*
X77741238Y-108513523D01*
X77931714Y-108513523D01*
X77979333Y-108537333D01*
X78003142Y-108584952D01*
X78003142Y-108680190D01*
X77979333Y-108727809D01*
X77931714Y-108751619D01*
X77884095Y-108751619D01*
X77836476Y-108513523D01*
X78003142Y-108965904D02*
X77669809Y-108965904D01*
X77955523Y-108965904D02*
X77979333Y-108989714D01*
X78003142Y-109037333D01*
X78003142Y-109108761D01*
X77979333Y-109156380D01*
X77931714Y-109180190D01*
X77669809Y-109180190D01*
X77693619Y-109394476D02*
X77669809Y-109442095D01*
X77669809Y-109537333D01*
X77693619Y-109584952D01*
X77741238Y-109608761D01*
X77765047Y-109608761D01*
X77812666Y-109584952D01*
X77836476Y-109537333D01*
X77836476Y-109465904D01*
X77860285Y-109418285D01*
X77907904Y-109394476D01*
X77931714Y-109394476D01*
X77979333Y-109418285D01*
X78003142Y-109465904D01*
X78003142Y-109537333D01*
X77979333Y-109584952D01*
X77669809Y-109894476D02*
X77693619Y-109846857D01*
X77717428Y-109823047D01*
X77765047Y-109799238D01*
X77907904Y-109799238D01*
X77955523Y-109823047D01*
X77979333Y-109846857D01*
X78003142Y-109894476D01*
X78003142Y-109965904D01*
X77979333Y-110013523D01*
X77955523Y-110037333D01*
X77907904Y-110061142D01*
X77765047Y-110061142D01*
X77717428Y-110037333D01*
X77693619Y-110013523D01*
X77669809Y-109965904D01*
X77669809Y-109894476D01*
X77669809Y-110275428D02*
X78003142Y-110275428D01*
X77907904Y-110275428D02*
X77955523Y-110299238D01*
X77979333Y-110323047D01*
X78003142Y-110370666D01*
X78003142Y-110418285D01*
X77931714Y-111577428D02*
X77907904Y-111648857D01*
X77884095Y-111672666D01*
X77836476Y-111696476D01*
X77765047Y-111696476D01*
X77717428Y-111672666D01*
X77693619Y-111648857D01*
X77669809Y-111601238D01*
X77669809Y-111410761D01*
X78169809Y-111410761D01*
X78169809Y-111577428D01*
X78146000Y-111625047D01*
X78122190Y-111648857D01*
X78074571Y-111672666D01*
X78026952Y-111672666D01*
X77979333Y-111648857D01*
X77955523Y-111625047D01*
X77931714Y-111577428D01*
X77931714Y-111410761D01*
X78003142Y-112125047D02*
X77669809Y-112125047D01*
X78003142Y-111910761D02*
X77741238Y-111910761D01*
X77693619Y-111934571D01*
X77669809Y-111982190D01*
X77669809Y-112053619D01*
X77693619Y-112101238D01*
X77717428Y-112125047D01*
X78003142Y-112291714D02*
X78003142Y-112482190D01*
X78169809Y-112363142D02*
X77741238Y-112363142D01*
X77693619Y-112386952D01*
X77669809Y-112434571D01*
X77669809Y-112482190D01*
X78003142Y-112577428D02*
X78003142Y-112767904D01*
X78169809Y-112648857D02*
X77741238Y-112648857D01*
X77693619Y-112672666D01*
X77669809Y-112720285D01*
X77669809Y-112767904D01*
X77669809Y-113006000D02*
X77693619Y-112958380D01*
X77717428Y-112934571D01*
X77765047Y-112910761D01*
X77907904Y-112910761D01*
X77955523Y-112934571D01*
X77979333Y-112958380D01*
X78003142Y-113006000D01*
X78003142Y-113077428D01*
X77979333Y-113125047D01*
X77955523Y-113148857D01*
X77907904Y-113172666D01*
X77765047Y-113172666D01*
X77717428Y-113148857D01*
X77693619Y-113125047D01*
X77669809Y-113077428D01*
X77669809Y-113006000D01*
X78003142Y-113386952D02*
X77669809Y-113386952D01*
X77955523Y-113386952D02*
X77979333Y-113410761D01*
X78003142Y-113458380D01*
X78003142Y-113529809D01*
X77979333Y-113577428D01*
X77931714Y-113601238D01*
X77669809Y-113601238D01*
D10*
X121230476Y-153834000D02*
X121154285Y-153795904D01*
X121040000Y-153795904D01*
X120925714Y-153834000D01*
X120849523Y-153910190D01*
X120811428Y-153986380D01*
X120773333Y-154138761D01*
X120773333Y-154253047D01*
X120811428Y-154405428D01*
X120849523Y-154481619D01*
X120925714Y-154557809D01*
X121040000Y-154595904D01*
X121116190Y-154595904D01*
X121230476Y-154557809D01*
X121268571Y-154519714D01*
X121268571Y-154253047D01*
X121116190Y-154253047D01*
X121611428Y-154595904D02*
X121611428Y-153795904D01*
X122068571Y-154595904D01*
X122068571Y-153795904D01*
X122449523Y-154595904D02*
X122449523Y-153795904D01*
X122640000Y-153795904D01*
X122754285Y-153834000D01*
X122830476Y-153910190D01*
X122868571Y-153986380D01*
X122906666Y-154138761D01*
X122906666Y-154253047D01*
X122868571Y-154405428D01*
X122830476Y-154481619D01*
X122754285Y-154557809D01*
X122640000Y-154595904D01*
X122449523Y-154595904D01*
D12*
X132168571Y-120986857D02*
X132168571Y-121844000D01*
X132168571Y-121415428D02*
X130668571Y-121415428D01*
X130882857Y-121558285D01*
X131025714Y-121701142D01*
X131097142Y-121844000D01*
X130811428Y-120415428D02*
X130740000Y-120344000D01*
X130668571Y-120201142D01*
X130668571Y-119844000D01*
X130740000Y-119701142D01*
X130811428Y-119629714D01*
X130954285Y-119558285D01*
X131097142Y-119558285D01*
X131311428Y-119629714D01*
X132168571Y-120486857D01*
X132168571Y-119558285D01*
X130668571Y-119129714D02*
X132168571Y-118629714D01*
X130668571Y-118129714D01*
X131740000Y-116558285D02*
X131740000Y-115844000D01*
X132168571Y-116701142D02*
X130668571Y-116201142D01*
X132168571Y-115701142D01*
X132025714Y-114344000D02*
X132097142Y-114415428D01*
X132168571Y-114629714D01*
X132168571Y-114772571D01*
X132097142Y-114986857D01*
X131954285Y-115129714D01*
X131811428Y-115201142D01*
X131525714Y-115272571D01*
X131311428Y-115272571D01*
X131025714Y-115201142D01*
X130882857Y-115129714D01*
X130740000Y-114986857D01*
X130668571Y-114772571D01*
X130668571Y-114629714D01*
X130740000Y-114415428D01*
X130811428Y-114344000D01*
D10*
X85259047Y-154595904D02*
X85259047Y-153795904D01*
X85449523Y-153795904D01*
X85563809Y-153834000D01*
X85640000Y-153910190D01*
X85678095Y-153986380D01*
X85716190Y-154138761D01*
X85716190Y-154253047D01*
X85678095Y-154405428D01*
X85640000Y-154481619D01*
X85563809Y-154557809D01*
X85449523Y-154595904D01*
X85259047Y-154595904D01*
X86173333Y-154595904D02*
X86097142Y-154557809D01*
X86059047Y-154519714D01*
X86020952Y-154443523D01*
X86020952Y-154214952D01*
X86059047Y-154138761D01*
X86097142Y-154100666D01*
X86173333Y-154062571D01*
X86287619Y-154062571D01*
X86363809Y-154100666D01*
X86401904Y-154138761D01*
X86440000Y-154214952D01*
X86440000Y-154443523D01*
X86401904Y-154519714D01*
X86363809Y-154557809D01*
X86287619Y-154595904D01*
X86173333Y-154595904D01*
X86897142Y-154595904D02*
X86820952Y-154557809D01*
X86782857Y-154519714D01*
X86744761Y-154443523D01*
X86744761Y-154214952D01*
X86782857Y-154138761D01*
X86820952Y-154100666D01*
X86897142Y-154062571D01*
X87011428Y-154062571D01*
X87087619Y-154100666D01*
X87125714Y-154138761D01*
X87163809Y-154214952D01*
X87163809Y-154443523D01*
X87125714Y-154519714D01*
X87087619Y-154557809D01*
X87011428Y-154595904D01*
X86897142Y-154595904D01*
X87506666Y-154595904D02*
X87506666Y-154062571D01*
X87506666Y-154214952D02*
X87544761Y-154138761D01*
X87582857Y-154100666D01*
X87659047Y-154062571D01*
X87735238Y-154062571D01*
X88459047Y-154595904D02*
X88192380Y-154214952D01*
X88001904Y-154595904D02*
X88001904Y-153795904D01*
X88306666Y-153795904D01*
X88382857Y-153834000D01*
X88420952Y-153872095D01*
X88459047Y-153948285D01*
X88459047Y-154062571D01*
X88420952Y-154138761D01*
X88382857Y-154176857D01*
X88306666Y-154214952D01*
X88001904Y-154214952D01*
X88759047Y-154595904D02*
X88759047Y-153795904D01*
X88949523Y-153795904D01*
X89063809Y-153834000D01*
X89140000Y-153910190D01*
X89178095Y-153986380D01*
X89216190Y-154138761D01*
X89216190Y-154253047D01*
X89178095Y-154405428D01*
X89140000Y-154481619D01*
X89063809Y-154557809D01*
X88949523Y-154595904D01*
X88759047Y-154595904D01*
X89673333Y-154595904D02*
X89597142Y-154557809D01*
X89559047Y-154519714D01*
X89520952Y-154443523D01*
X89520952Y-154214952D01*
X89559047Y-154138761D01*
X89597142Y-154100666D01*
X89673333Y-154062571D01*
X89787619Y-154062571D01*
X89863809Y-154100666D01*
X89901904Y-154138761D01*
X89940000Y-154214952D01*
X89940000Y-154443523D01*
X89901904Y-154519714D01*
X89863809Y-154557809D01*
X89787619Y-154595904D01*
X89673333Y-154595904D01*
X90397142Y-154595904D02*
X90320952Y-154557809D01*
X90282857Y-154519714D01*
X90244761Y-154443523D01*
X90244761Y-154214952D01*
X90282857Y-154138761D01*
X90320952Y-154100666D01*
X90397142Y-154062571D01*
X90511428Y-154062571D01*
X90587619Y-154100666D01*
X90625714Y-154138761D01*
X90663809Y-154214952D01*
X90663809Y-154443523D01*
X90625714Y-154519714D01*
X90587619Y-154557809D01*
X90511428Y-154595904D01*
X90397142Y-154595904D01*
X91006666Y-154595904D02*
X91006666Y-154062571D01*
X91006666Y-154214952D02*
X91044761Y-154138761D01*
X91082857Y-154100666D01*
X91159047Y-154062571D01*
X91235238Y-154062571D01*
X91959047Y-154595904D02*
X91692380Y-154214952D01*
X91501904Y-154595904D02*
X91501904Y-153795904D01*
X91806666Y-153795904D01*
X91882857Y-153834000D01*
X91920952Y-153872095D01*
X91959047Y-153948285D01*
X91959047Y-154062571D01*
X91920952Y-154138761D01*
X91882857Y-154176857D01*
X91806666Y-154214952D01*
X91501904Y-154214952D01*
X124730476Y-153834000D02*
X124654285Y-153795904D01*
X124540000Y-153795904D01*
X124425714Y-153834000D01*
X124349523Y-153910190D01*
X124311428Y-153986380D01*
X124273333Y-154138761D01*
X124273333Y-154253047D01*
X124311428Y-154405428D01*
X124349523Y-154481619D01*
X124425714Y-154557809D01*
X124540000Y-154595904D01*
X124616190Y-154595904D01*
X124730476Y-154557809D01*
X124768571Y-154519714D01*
X124768571Y-154253047D01*
X124616190Y-154253047D01*
X125111428Y-154595904D02*
X125111428Y-153795904D01*
X125568571Y-154595904D01*
X125568571Y-153795904D01*
X125949523Y-154595904D02*
X125949523Y-153795904D01*
X126140000Y-153795904D01*
X126254285Y-153834000D01*
X126330476Y-153910190D01*
X126368571Y-153986380D01*
X126406666Y-154138761D01*
X126406666Y-154253047D01*
X126368571Y-154405428D01*
X126330476Y-154481619D01*
X126254285Y-154557809D01*
X126140000Y-154595904D01*
X125949523Y-154595904D01*
D13*
X124899047Y-103670904D02*
X125394285Y-103670904D01*
X125127619Y-103975666D01*
X125241904Y-103975666D01*
X125318095Y-104013761D01*
X125356190Y-104051857D01*
X125394285Y-104128047D01*
X125394285Y-104318523D01*
X125356190Y-104394714D01*
X125318095Y-104432809D01*
X125241904Y-104470904D01*
X125013333Y-104470904D01*
X124937142Y-104432809D01*
X124899047Y-104394714D01*
X125775238Y-104432809D02*
X125775238Y-104470904D01*
X125737142Y-104547095D01*
X125699047Y-104585190D01*
X126041904Y-103670904D02*
X126537142Y-103670904D01*
X126270476Y-103975666D01*
X126384761Y-103975666D01*
X126460952Y-104013761D01*
X126499047Y-104051857D01*
X126537142Y-104128047D01*
X126537142Y-104318523D01*
X126499047Y-104394714D01*
X126460952Y-104432809D01*
X126384761Y-104470904D01*
X126156190Y-104470904D01*
X126080000Y-104432809D01*
X126041904Y-104394714D01*
X126765714Y-103670904D02*
X127032380Y-104470904D01*
X127299047Y-103670904D01*
X125470476Y-106210904D02*
X125927619Y-106210904D01*
X125699047Y-107010904D02*
X125699047Y-106210904D01*
X126118095Y-106210904D02*
X126651428Y-107010904D01*
X126651428Y-106210904D02*
X126118095Y-107010904D01*
X125946666Y-109550904D02*
X125680000Y-109169952D01*
X125489523Y-109550904D02*
X125489523Y-108750904D01*
X125794285Y-108750904D01*
X125870476Y-108789000D01*
X125908571Y-108827095D01*
X125946666Y-108903285D01*
X125946666Y-109017571D01*
X125908571Y-109093761D01*
X125870476Y-109131857D01*
X125794285Y-109169952D01*
X125489523Y-109169952D01*
X126213333Y-108750904D02*
X126746666Y-109550904D01*
X126746666Y-108750904D02*
X126213333Y-109550904D01*
X125470476Y-111329000D02*
X125394285Y-111290904D01*
X125280000Y-111290904D01*
X125165714Y-111329000D01*
X125089523Y-111405190D01*
X125051428Y-111481380D01*
X125013333Y-111633761D01*
X125013333Y-111748047D01*
X125051428Y-111900428D01*
X125089523Y-111976619D01*
X125165714Y-112052809D01*
X125280000Y-112090904D01*
X125356190Y-112090904D01*
X125470476Y-112052809D01*
X125508571Y-112014714D01*
X125508571Y-111748047D01*
X125356190Y-111748047D01*
X125851428Y-112090904D02*
X125851428Y-111290904D01*
X126308571Y-112090904D01*
X126308571Y-111290904D01*
X126689523Y-112090904D02*
X126689523Y-111290904D01*
X126880000Y-111290904D01*
X126994285Y-111329000D01*
X127070476Y-111405190D01*
X127108571Y-111481380D01*
X127146666Y-111633761D01*
X127146666Y-111748047D01*
X127108571Y-111900428D01*
X127070476Y-111976619D01*
X126994285Y-112052809D01*
X126880000Y-112090904D01*
X126689523Y-112090904D01*
X121057142Y-119653523D02*
X121057142Y-119044000D01*
X121361904Y-119348761D02*
X120752380Y-119348761D01*
X121361904Y-118053523D02*
X120561904Y-118053523D01*
X120561904Y-117863047D01*
X120600000Y-117748761D01*
X120676190Y-117672571D01*
X120752380Y-117634476D01*
X120904761Y-117596380D01*
X121019047Y-117596380D01*
X121171428Y-117634476D01*
X121247619Y-117672571D01*
X121323809Y-117748761D01*
X121361904Y-117863047D01*
X121361904Y-118053523D01*
X121285714Y-116796380D02*
X121323809Y-116834476D01*
X121361904Y-116948761D01*
X121361904Y-117024952D01*
X121323809Y-117139238D01*
X121247619Y-117215428D01*
X121171428Y-117253523D01*
X121019047Y-117291619D01*
X120904761Y-117291619D01*
X120752380Y-117253523D01*
X120676190Y-117215428D01*
X120600000Y-117139238D01*
X120561904Y-117024952D01*
X120561904Y-116948761D01*
X120600000Y-116834476D01*
X120638095Y-116796380D01*
X121057142Y-115844000D02*
X121057142Y-115234476D01*
X121057142Y-119653523D02*
X121057142Y-119044000D01*
X121361904Y-119348761D02*
X120752380Y-119348761D01*
X121361904Y-118053523D02*
X120561904Y-118053523D01*
X120561904Y-117863047D01*
X120600000Y-117748761D01*
X120676190Y-117672571D01*
X120752380Y-117634476D01*
X120904761Y-117596380D01*
X121019047Y-117596380D01*
X121171428Y-117634476D01*
X121247619Y-117672571D01*
X121323809Y-117748761D01*
X121361904Y-117863047D01*
X121361904Y-118053523D01*
X121285714Y-116796380D02*
X121323809Y-116834476D01*
X121361904Y-116948761D01*
X121361904Y-117024952D01*
X121323809Y-117139238D01*
X121247619Y-117215428D01*
X121171428Y-117253523D01*
X121019047Y-117291619D01*
X120904761Y-117291619D01*
X120752380Y-117253523D01*
X120676190Y-117215428D01*
X120600000Y-117139238D01*
X120561904Y-117024952D01*
X120561904Y-116948761D01*
X120600000Y-116834476D01*
X120638095Y-116796380D01*
X121057142Y-115844000D02*
X121057142Y-115234476D01*
X125470476Y-111329000D02*
X125394285Y-111290904D01*
X125280000Y-111290904D01*
X125165714Y-111329000D01*
X125089523Y-111405190D01*
X125051428Y-111481380D01*
X125013333Y-111633761D01*
X125013333Y-111748047D01*
X125051428Y-111900428D01*
X125089523Y-111976619D01*
X125165714Y-112052809D01*
X125280000Y-112090904D01*
X125356190Y-112090904D01*
X125470476Y-112052809D01*
X125508571Y-112014714D01*
X125508571Y-111748047D01*
X125356190Y-111748047D01*
X125851428Y-112090904D02*
X125851428Y-111290904D01*
X126308571Y-112090904D01*
X126308571Y-111290904D01*
X126689523Y-112090904D02*
X126689523Y-111290904D01*
X126880000Y-111290904D01*
X126994285Y-111329000D01*
X127070476Y-111405190D01*
X127108571Y-111481380D01*
X127146666Y-111633761D01*
X127146666Y-111748047D01*
X127108571Y-111900428D01*
X127070476Y-111976619D01*
X126994285Y-112052809D01*
X126880000Y-112090904D01*
X126689523Y-112090904D01*
X125946666Y-109550904D02*
X125680000Y-109169952D01*
X125489523Y-109550904D02*
X125489523Y-108750904D01*
X125794285Y-108750904D01*
X125870476Y-108789000D01*
X125908571Y-108827095D01*
X125946666Y-108903285D01*
X125946666Y-109017571D01*
X125908571Y-109093761D01*
X125870476Y-109131857D01*
X125794285Y-109169952D01*
X125489523Y-109169952D01*
X126213333Y-108750904D02*
X126746666Y-109550904D01*
X126746666Y-108750904D02*
X126213333Y-109550904D01*
X125470476Y-106210904D02*
X125927619Y-106210904D01*
X125699047Y-107010904D02*
X125699047Y-106210904D01*
X126118095Y-106210904D02*
X126651428Y-107010904D01*
X126651428Y-106210904D02*
X126118095Y-107010904D01*
X124899047Y-103670904D02*
X125394285Y-103670904D01*
X125127619Y-103975666D01*
X125241904Y-103975666D01*
X125318095Y-104013761D01*
X125356190Y-104051857D01*
X125394285Y-104128047D01*
X125394285Y-104318523D01*
X125356190Y-104394714D01*
X125318095Y-104432809D01*
X125241904Y-104470904D01*
X125013333Y-104470904D01*
X124937142Y-104432809D01*
X124899047Y-104394714D01*
X125775238Y-104432809D02*
X125775238Y-104470904D01*
X125737142Y-104547095D01*
X125699047Y-104585190D01*
X126041904Y-103670904D02*
X126537142Y-103670904D01*
X126270476Y-103975666D01*
X126384761Y-103975666D01*
X126460952Y-104013761D01*
X126499047Y-104051857D01*
X126537142Y-104128047D01*
X126537142Y-104318523D01*
X126499047Y-104394714D01*
X126460952Y-104432809D01*
X126384761Y-104470904D01*
X126156190Y-104470904D01*
X126080000Y-104432809D01*
X126041904Y-104394714D01*
X126765714Y-103670904D02*
X127032380Y-104470904D01*
X127299047Y-103670904D01*
D10*
X124730476Y-153834000D02*
X124654285Y-153795904D01*
X124540000Y-153795904D01*
X124425714Y-153834000D01*
X124349523Y-153910190D01*
X124311428Y-153986380D01*
X124273333Y-154138761D01*
X124273333Y-154253047D01*
X124311428Y-154405428D01*
X124349523Y-154481619D01*
X124425714Y-154557809D01*
X124540000Y-154595904D01*
X124616190Y-154595904D01*
X124730476Y-154557809D01*
X124768571Y-154519714D01*
X124768571Y-154253047D01*
X124616190Y-154253047D01*
X125111428Y-154595904D02*
X125111428Y-153795904D01*
X125568571Y-154595904D01*
X125568571Y-153795904D01*
X125949523Y-154595904D02*
X125949523Y-153795904D01*
X126140000Y-153795904D01*
X126254285Y-153834000D01*
X126330476Y-153910190D01*
X126368571Y-153986380D01*
X126406666Y-154138761D01*
X126406666Y-154253047D01*
X126368571Y-154405428D01*
X126330476Y-154481619D01*
X126254285Y-154557809D01*
X126140000Y-154595904D01*
X125949523Y-154595904D01*
X88759047Y-154595904D02*
X88759047Y-153795904D01*
X88949523Y-153795904D01*
X89063809Y-153834000D01*
X89140000Y-153910190D01*
X89178095Y-153986380D01*
X89216190Y-154138761D01*
X89216190Y-154253047D01*
X89178095Y-154405428D01*
X89140000Y-154481619D01*
X89063809Y-154557809D01*
X88949523Y-154595904D01*
X88759047Y-154595904D01*
X89673333Y-154595904D02*
X89597142Y-154557809D01*
X89559047Y-154519714D01*
X89520952Y-154443523D01*
X89520952Y-154214952D01*
X89559047Y-154138761D01*
X89597142Y-154100666D01*
X89673333Y-154062571D01*
X89787619Y-154062571D01*
X89863809Y-154100666D01*
X89901904Y-154138761D01*
X89940000Y-154214952D01*
X89940000Y-154443523D01*
X89901904Y-154519714D01*
X89863809Y-154557809D01*
X89787619Y-154595904D01*
X89673333Y-154595904D01*
X90397142Y-154595904D02*
X90320952Y-154557809D01*
X90282857Y-154519714D01*
X90244761Y-154443523D01*
X90244761Y-154214952D01*
X90282857Y-154138761D01*
X90320952Y-154100666D01*
X90397142Y-154062571D01*
X90511428Y-154062571D01*
X90587619Y-154100666D01*
X90625714Y-154138761D01*
X90663809Y-154214952D01*
X90663809Y-154443523D01*
X90625714Y-154519714D01*
X90587619Y-154557809D01*
X90511428Y-154595904D01*
X90397142Y-154595904D01*
X91006666Y-154595904D02*
X91006666Y-154062571D01*
X91006666Y-154214952D02*
X91044761Y-154138761D01*
X91082857Y-154100666D01*
X91159047Y-154062571D01*
X91235238Y-154062571D01*
X91959047Y-154595904D02*
X91692380Y-154214952D01*
X91501904Y-154595904D02*
X91501904Y-153795904D01*
X91806666Y-153795904D01*
X91882857Y-153834000D01*
X91920952Y-153872095D01*
X91959047Y-153948285D01*
X91959047Y-154062571D01*
X91920952Y-154138761D01*
X91882857Y-154176857D01*
X91806666Y-154214952D01*
X91501904Y-154214952D01*
X85259047Y-154595904D02*
X85259047Y-153795904D01*
X85449523Y-153795904D01*
X85563809Y-153834000D01*
X85640000Y-153910190D01*
X85678095Y-153986380D01*
X85716190Y-154138761D01*
X85716190Y-154253047D01*
X85678095Y-154405428D01*
X85640000Y-154481619D01*
X85563809Y-154557809D01*
X85449523Y-154595904D01*
X85259047Y-154595904D01*
X86173333Y-154595904D02*
X86097142Y-154557809D01*
X86059047Y-154519714D01*
X86020952Y-154443523D01*
X86020952Y-154214952D01*
X86059047Y-154138761D01*
X86097142Y-154100666D01*
X86173333Y-154062571D01*
X86287619Y-154062571D01*
X86363809Y-154100666D01*
X86401904Y-154138761D01*
X86440000Y-154214952D01*
X86440000Y-154443523D01*
X86401904Y-154519714D01*
X86363809Y-154557809D01*
X86287619Y-154595904D01*
X86173333Y-154595904D01*
X86897142Y-154595904D02*
X86820952Y-154557809D01*
X86782857Y-154519714D01*
X86744761Y-154443523D01*
X86744761Y-154214952D01*
X86782857Y-154138761D01*
X86820952Y-154100666D01*
X86897142Y-154062571D01*
X87011428Y-154062571D01*
X87087619Y-154100666D01*
X87125714Y-154138761D01*
X87163809Y-154214952D01*
X87163809Y-154443523D01*
X87125714Y-154519714D01*
X87087619Y-154557809D01*
X87011428Y-154595904D01*
X86897142Y-154595904D01*
X87506666Y-154595904D02*
X87506666Y-154062571D01*
X87506666Y-154214952D02*
X87544761Y-154138761D01*
X87582857Y-154100666D01*
X87659047Y-154062571D01*
X87735238Y-154062571D01*
X88459047Y-154595904D02*
X88192380Y-154214952D01*
X88001904Y-154595904D02*
X88001904Y-153795904D01*
X88306666Y-153795904D01*
X88382857Y-153834000D01*
X88420952Y-153872095D01*
X88459047Y-153948285D01*
X88459047Y-154062571D01*
X88420952Y-154138761D01*
X88382857Y-154176857D01*
X88306666Y-154214952D01*
X88001904Y-154214952D01*
D12*
X132168571Y-120986857D02*
X132168571Y-121844000D01*
X132168571Y-121415428D02*
X130668571Y-121415428D01*
X130882857Y-121558285D01*
X131025714Y-121701142D01*
X131097142Y-121844000D01*
X130811428Y-120415428D02*
X130740000Y-120344000D01*
X130668571Y-120201142D01*
X130668571Y-119844000D01*
X130740000Y-119701142D01*
X130811428Y-119629714D01*
X130954285Y-119558285D01*
X131097142Y-119558285D01*
X131311428Y-119629714D01*
X132168571Y-120486857D01*
X132168571Y-119558285D01*
X130668571Y-119129714D02*
X132168571Y-118629714D01*
X130668571Y-118129714D01*
X131740000Y-116558285D02*
X131740000Y-115844000D01*
X132168571Y-116701142D02*
X130668571Y-116201142D01*
X132168571Y-115701142D01*
X132025714Y-114344000D02*
X132097142Y-114415428D01*
X132168571Y-114629714D01*
X132168571Y-114772571D01*
X132097142Y-114986857D01*
X131954285Y-115129714D01*
X131811428Y-115201142D01*
X131525714Y-115272571D01*
X131311428Y-115272571D01*
X131025714Y-115201142D01*
X130882857Y-115129714D01*
X130740000Y-114986857D01*
X130668571Y-114772571D01*
X130668571Y-114629714D01*
X130740000Y-114415428D01*
X130811428Y-114344000D01*
D10*
X121230476Y-153834000D02*
X121154285Y-153795904D01*
X121040000Y-153795904D01*
X120925714Y-153834000D01*
X120849523Y-153910190D01*
X120811428Y-153986380D01*
X120773333Y-154138761D01*
X120773333Y-154253047D01*
X120811428Y-154405428D01*
X120849523Y-154481619D01*
X120925714Y-154557809D01*
X121040000Y-154595904D01*
X121116190Y-154595904D01*
X121230476Y-154557809D01*
X121268571Y-154519714D01*
X121268571Y-154253047D01*
X121116190Y-154253047D01*
X121611428Y-154595904D02*
X121611428Y-153795904D01*
X122068571Y-154595904D01*
X122068571Y-153795904D01*
X122449523Y-154595904D02*
X122449523Y-153795904D01*
X122640000Y-153795904D01*
X122754285Y-153834000D01*
X122830476Y-153910190D01*
X122868571Y-153986380D01*
X122906666Y-154138761D01*
X122906666Y-154253047D01*
X122868571Y-154405428D01*
X122830476Y-154481619D01*
X122754285Y-154557809D01*
X122640000Y-154595904D01*
X122449523Y-154595904D01*
D11*
X77931714Y-111577428D02*
X77907904Y-111648857D01*
X77884095Y-111672666D01*
X77836476Y-111696476D01*
X77765047Y-111696476D01*
X77717428Y-111672666D01*
X77693619Y-111648857D01*
X77669809Y-111601238D01*
X77669809Y-111410761D01*
X78169809Y-111410761D01*
X78169809Y-111577428D01*
X78146000Y-111625047D01*
X78122190Y-111648857D01*
X78074571Y-111672666D01*
X78026952Y-111672666D01*
X77979333Y-111648857D01*
X77955523Y-111625047D01*
X77931714Y-111577428D01*
X77931714Y-111410761D01*
X78003142Y-112125047D02*
X77669809Y-112125047D01*
X78003142Y-111910761D02*
X77741238Y-111910761D01*
X77693619Y-111934571D01*
X77669809Y-111982190D01*
X77669809Y-112053619D01*
X77693619Y-112101238D01*
X77717428Y-112125047D01*
X78003142Y-112291714D02*
X78003142Y-112482190D01*
X78169809Y-112363142D02*
X77741238Y-112363142D01*
X77693619Y-112386952D01*
X77669809Y-112434571D01*
X77669809Y-112482190D01*
X78003142Y-112577428D02*
X78003142Y-112767904D01*
X78169809Y-112648857D02*
X77741238Y-112648857D01*
X77693619Y-112672666D01*
X77669809Y-112720285D01*
X77669809Y-112767904D01*
X77669809Y-113006000D02*
X77693619Y-112958380D01*
X77717428Y-112934571D01*
X77765047Y-112910761D01*
X77907904Y-112910761D01*
X77955523Y-112934571D01*
X77979333Y-112958380D01*
X78003142Y-113006000D01*
X78003142Y-113077428D01*
X77979333Y-113125047D01*
X77955523Y-113148857D01*
X77907904Y-113172666D01*
X77765047Y-113172666D01*
X77717428Y-113148857D01*
X77693619Y-113125047D01*
X77669809Y-113077428D01*
X77669809Y-113006000D01*
X78003142Y-113386952D02*
X77669809Y-113386952D01*
X77955523Y-113386952D02*
X77979333Y-113410761D01*
X78003142Y-113458380D01*
X78003142Y-113529809D01*
X77979333Y-113577428D01*
X77931714Y-113601238D01*
X77669809Y-113601238D01*
X77693619Y-108037333D02*
X77669809Y-108108761D01*
X77669809Y-108227809D01*
X77693619Y-108275428D01*
X77717428Y-108299238D01*
X77765047Y-108323047D01*
X77812666Y-108323047D01*
X77860285Y-108299238D01*
X77884095Y-108275428D01*
X77907904Y-108227809D01*
X77931714Y-108132571D01*
X77955523Y-108084952D01*
X77979333Y-108061142D01*
X78026952Y-108037333D01*
X78074571Y-108037333D01*
X78122190Y-108061142D01*
X78146000Y-108084952D01*
X78169809Y-108132571D01*
X78169809Y-108251619D01*
X78146000Y-108323047D01*
X77693619Y-108727809D02*
X77669809Y-108680190D01*
X77669809Y-108584952D01*
X77693619Y-108537333D01*
X77741238Y-108513523D01*
X77931714Y-108513523D01*
X77979333Y-108537333D01*
X78003142Y-108584952D01*
X78003142Y-108680190D01*
X77979333Y-108727809D01*
X77931714Y-108751619D01*
X77884095Y-108751619D01*
X77836476Y-108513523D01*
X78003142Y-108965904D02*
X77669809Y-108965904D01*
X77955523Y-108965904D02*
X77979333Y-108989714D01*
X78003142Y-109037333D01*
X78003142Y-109108761D01*
X77979333Y-109156380D01*
X77931714Y-109180190D01*
X77669809Y-109180190D01*
X77693619Y-109394476D02*
X77669809Y-109442095D01*
X77669809Y-109537333D01*
X77693619Y-109584952D01*
X77741238Y-109608761D01*
X77765047Y-109608761D01*
X77812666Y-109584952D01*
X77836476Y-109537333D01*
X77836476Y-109465904D01*
X77860285Y-109418285D01*
X77907904Y-109394476D01*
X77931714Y-109394476D01*
X77979333Y-109418285D01*
X78003142Y-109465904D01*
X78003142Y-109537333D01*
X77979333Y-109584952D01*
X77669809Y-109894476D02*
X77693619Y-109846857D01*
X77717428Y-109823047D01*
X77765047Y-109799238D01*
X77907904Y-109799238D01*
X77955523Y-109823047D01*
X77979333Y-109846857D01*
X78003142Y-109894476D01*
X78003142Y-109965904D01*
X77979333Y-110013523D01*
X77955523Y-110037333D01*
X77907904Y-110061142D01*
X77765047Y-110061142D01*
X77717428Y-110037333D01*
X77693619Y-110013523D01*
X77669809Y-109965904D01*
X77669809Y-109894476D01*
X77669809Y-110275428D02*
X78003142Y-110275428D01*
X77907904Y-110275428D02*
X77955523Y-110299238D01*
X77979333Y-110323047D01*
X78003142Y-110370666D01*
X78003142Y-110418285D01*
D10*
X113597142Y-154176857D02*
X113711428Y-154214952D01*
X113749523Y-154253047D01*
X113787619Y-154329238D01*
X113787619Y-154443523D01*
X113749523Y-154519714D01*
X113711428Y-154557809D01*
X113635238Y-154595904D01*
X113330476Y-154595904D01*
X113330476Y-153795904D01*
X113597142Y-153795904D01*
X113673333Y-153834000D01*
X113711428Y-153872095D01*
X113749523Y-153948285D01*
X113749523Y-154024476D01*
X113711428Y-154100666D01*
X113673333Y-154138761D01*
X113597142Y-154176857D01*
X113330476Y-154176857D01*
X114130476Y-153795904D02*
X114130476Y-154443523D01*
X114168571Y-154519714D01*
X114206666Y-154557809D01*
X114282857Y-154595904D01*
X114435238Y-154595904D01*
X114511428Y-154557809D01*
X114549523Y-154519714D01*
X114587619Y-154443523D01*
X114587619Y-153795904D01*
X114892380Y-153795904D02*
X115425714Y-153795904D01*
X114892380Y-154595904D01*
X115425714Y-154595904D01*
X109335238Y-153795904D02*
X109525714Y-154595904D01*
X109678095Y-154024476D01*
X109830476Y-154595904D01*
X110020952Y-153795904D01*
X110744761Y-153834000D02*
X110668571Y-153795904D01*
X110554285Y-153795904D01*
X110440000Y-153834000D01*
X110363809Y-153910190D01*
X110325714Y-153986380D01*
X110287619Y-154138761D01*
X110287619Y-154253047D01*
X110325714Y-154405428D01*
X110363809Y-154481619D01*
X110440000Y-154557809D01*
X110554285Y-154595904D01*
X110630476Y-154595904D01*
X110744761Y-154557809D01*
X110782857Y-154519714D01*
X110782857Y-154253047D01*
X110630476Y-154253047D01*
X111087619Y-153872095D02*
X111125714Y-153834000D01*
X111201904Y-153795904D01*
X111392380Y-153795904D01*
X111468571Y-153834000D01*
X111506666Y-153872095D01*
X111544761Y-153948285D01*
X111544761Y-154024476D01*
X111506666Y-154138761D01*
X111049523Y-154595904D01*
X111544761Y-154595904D01*
X112230476Y-153795904D02*
X112078095Y-153795904D01*
X112001904Y-153834000D01*
X111963809Y-153872095D01*
X111887619Y-153986380D01*
X111849523Y-154138761D01*
X111849523Y-154443523D01*
X111887619Y-154519714D01*
X111925714Y-154557809D01*
X112001904Y-154595904D01*
X112154285Y-154595904D01*
X112230476Y-154557809D01*
X112268571Y-154519714D01*
X112306666Y-154443523D01*
X112306666Y-154253047D01*
X112268571Y-154176857D01*
X112230476Y-154138761D01*
X112154285Y-154100666D01*
X112001904Y-154100666D01*
X111925714Y-154138761D01*
X111887619Y-154176857D01*
X111849523Y-154253047D01*
X106825714Y-154595904D02*
X106444761Y-154595904D01*
X106444761Y-153795904D01*
X107092380Y-154176857D02*
X107359047Y-154176857D01*
X107473333Y-154595904D02*
X107092380Y-154595904D01*
X107092380Y-153795904D01*
X107473333Y-153795904D01*
X107816190Y-154595904D02*
X107816190Y-153795904D01*
X108006666Y-153795904D01*
X108120952Y-153834000D01*
X108197142Y-153910190D01*
X108235238Y-153986380D01*
X108273333Y-154138761D01*
X108273333Y-154253047D01*
X108235238Y-154405428D01*
X108197142Y-154481619D01*
X108120952Y-154557809D01*
X108006666Y-154595904D01*
X107816190Y-154595904D01*
X103249523Y-154595904D02*
X103249523Y-153795904D01*
X103440000Y-153795904D01*
X103554285Y-153834000D01*
X103630476Y-153910190D01*
X103668571Y-153986380D01*
X103706666Y-154138761D01*
X103706666Y-154253047D01*
X103668571Y-154405428D01*
X103630476Y-154481619D01*
X103554285Y-154557809D01*
X103440000Y-154595904D01*
X103249523Y-154595904D01*
X104468571Y-154595904D02*
X104011428Y-154595904D01*
X104240000Y-154595904D02*
X104240000Y-153795904D01*
X104163809Y-153910190D01*
X104087619Y-153986380D01*
X104011428Y-154024476D01*
X100089523Y-154635904D02*
X100089523Y-153835904D01*
X100280000Y-153835904D01*
X100394285Y-153874000D01*
X100470476Y-153950190D01*
X100508571Y-154026380D01*
X100546666Y-154178761D01*
X100546666Y-154293047D01*
X100508571Y-154445428D01*
X100470476Y-154521619D01*
X100394285Y-154597809D01*
X100280000Y-154635904D01*
X100089523Y-154635904D01*
X101041904Y-153835904D02*
X101118095Y-153835904D01*
X101194285Y-153874000D01*
X101232380Y-153912095D01*
X101270476Y-153988285D01*
X101308571Y-154140666D01*
X101308571Y-154331142D01*
X101270476Y-154483523D01*
X101232380Y-154559714D01*
X101194285Y-154597809D01*
X101118095Y-154635904D01*
X101041904Y-154635904D01*
X100965714Y-154597809D01*
X100927619Y-154559714D01*
X100889523Y-154483523D01*
X100851428Y-154331142D01*
X100851428Y-154140666D01*
X100889523Y-153988285D01*
X100927619Y-153912095D01*
X100965714Y-153874000D01*
X101041904Y-153835904D01*
X95790714Y-154331142D02*
X96400238Y-154331142D01*
X96095476Y-154635904D02*
X96095476Y-154026380D01*
X97809761Y-154635904D02*
X97352619Y-154635904D01*
X97581190Y-154635904D02*
X97581190Y-153835904D01*
X97505000Y-153950190D01*
X97428809Y-154026380D01*
X97352619Y-154064476D01*
X98114523Y-153912095D02*
X98152619Y-153874000D01*
X98228809Y-153835904D01*
X98419285Y-153835904D01*
X98495476Y-153874000D01*
X98533571Y-153912095D01*
X98571666Y-153988285D01*
X98571666Y-154064476D01*
X98533571Y-154178761D01*
X98076428Y-154635904D01*
X98571666Y-154635904D01*
X98800238Y-153835904D02*
X99066904Y-154635904D01*
X99333571Y-153835904D01*
X95790714Y-154331142D02*
X96400238Y-154331142D01*
X96095476Y-154635904D02*
X96095476Y-154026380D01*
X97809761Y-154635904D02*
X97352619Y-154635904D01*
X97581190Y-154635904D02*
X97581190Y-153835904D01*
X97505000Y-153950190D01*
X97428809Y-154026380D01*
X97352619Y-154064476D01*
X98114523Y-153912095D02*
X98152619Y-153874000D01*
X98228809Y-153835904D01*
X98419285Y-153835904D01*
X98495476Y-153874000D01*
X98533571Y-153912095D01*
X98571666Y-153988285D01*
X98571666Y-154064476D01*
X98533571Y-154178761D01*
X98076428Y-154635904D01*
X98571666Y-154635904D01*
X98800238Y-153835904D02*
X99066904Y-154635904D01*
X99333571Y-153835904D01*
X100089523Y-154635904D02*
X100089523Y-153835904D01*
X100280000Y-153835904D01*
X100394285Y-153874000D01*
X100470476Y-153950190D01*
X100508571Y-154026380D01*
X100546666Y-154178761D01*
X100546666Y-154293047D01*
X100508571Y-154445428D01*
X100470476Y-154521619D01*
X100394285Y-154597809D01*
X100280000Y-154635904D01*
X100089523Y-154635904D01*
X101041904Y-153835904D02*
X101118095Y-153835904D01*
X101194285Y-153874000D01*
X101232380Y-153912095D01*
X101270476Y-153988285D01*
X101308571Y-154140666D01*
X101308571Y-154331142D01*
X101270476Y-154483523D01*
X101232380Y-154559714D01*
X101194285Y-154597809D01*
X101118095Y-154635904D01*
X101041904Y-154635904D01*
X100965714Y-154597809D01*
X100927619Y-154559714D01*
X100889523Y-154483523D01*
X100851428Y-154331142D01*
X100851428Y-154140666D01*
X100889523Y-153988285D01*
X100927619Y-153912095D01*
X100965714Y-153874000D01*
X101041904Y-153835904D01*
X103249523Y-154595904D02*
X103249523Y-153795904D01*
X103440000Y-153795904D01*
X103554285Y-153834000D01*
X103630476Y-153910190D01*
X103668571Y-153986380D01*
X103706666Y-154138761D01*
X103706666Y-154253047D01*
X103668571Y-154405428D01*
X103630476Y-154481619D01*
X103554285Y-154557809D01*
X103440000Y-154595904D01*
X103249523Y-154595904D01*
X104468571Y-154595904D02*
X104011428Y-154595904D01*
X104240000Y-154595904D02*
X104240000Y-153795904D01*
X104163809Y-153910190D01*
X104087619Y-153986380D01*
X104011428Y-154024476D01*
X106825714Y-154595904D02*
X106444761Y-154595904D01*
X106444761Y-153795904D01*
X107092380Y-154176857D02*
X107359047Y-154176857D01*
X107473333Y-154595904D02*
X107092380Y-154595904D01*
X107092380Y-153795904D01*
X107473333Y-153795904D01*
X107816190Y-154595904D02*
X107816190Y-153795904D01*
X108006666Y-153795904D01*
X108120952Y-153834000D01*
X108197142Y-153910190D01*
X108235238Y-153986380D01*
X108273333Y-154138761D01*
X108273333Y-154253047D01*
X108235238Y-154405428D01*
X108197142Y-154481619D01*
X108120952Y-154557809D01*
X108006666Y-154595904D01*
X107816190Y-154595904D01*
X109335238Y-153795904D02*
X109525714Y-154595904D01*
X109678095Y-154024476D01*
X109830476Y-154595904D01*
X110020952Y-153795904D01*
X110744761Y-153834000D02*
X110668571Y-153795904D01*
X110554285Y-153795904D01*
X110440000Y-153834000D01*
X110363809Y-153910190D01*
X110325714Y-153986380D01*
X110287619Y-154138761D01*
X110287619Y-154253047D01*
X110325714Y-154405428D01*
X110363809Y-154481619D01*
X110440000Y-154557809D01*
X110554285Y-154595904D01*
X110630476Y-154595904D01*
X110744761Y-154557809D01*
X110782857Y-154519714D01*
X110782857Y-154253047D01*
X110630476Y-154253047D01*
X111087619Y-153872095D02*
X111125714Y-153834000D01*
X111201904Y-153795904D01*
X111392380Y-153795904D01*
X111468571Y-153834000D01*
X111506666Y-153872095D01*
X111544761Y-153948285D01*
X111544761Y-154024476D01*
X111506666Y-154138761D01*
X111049523Y-154595904D01*
X111544761Y-154595904D01*
X112230476Y-153795904D02*
X112078095Y-153795904D01*
X112001904Y-153834000D01*
X111963809Y-153872095D01*
X111887619Y-153986380D01*
X111849523Y-154138761D01*
X111849523Y-154443523D01*
X111887619Y-154519714D01*
X111925714Y-154557809D01*
X112001904Y-154595904D01*
X112154285Y-154595904D01*
X112230476Y-154557809D01*
X112268571Y-154519714D01*
X112306666Y-154443523D01*
X112306666Y-154253047D01*
X112268571Y-154176857D01*
X112230476Y-154138761D01*
X112154285Y-154100666D01*
X112001904Y-154100666D01*
X111925714Y-154138761D01*
X111887619Y-154176857D01*
X111849523Y-154253047D01*
X113597142Y-154176857D02*
X113711428Y-154214952D01*
X113749523Y-154253047D01*
X113787619Y-154329238D01*
X113787619Y-154443523D01*
X113749523Y-154519714D01*
X113711428Y-154557809D01*
X113635238Y-154595904D01*
X113330476Y-154595904D01*
X113330476Y-153795904D01*
X113597142Y-153795904D01*
X113673333Y-153834000D01*
X113711428Y-153872095D01*
X113749523Y-153948285D01*
X113749523Y-154024476D01*
X113711428Y-154100666D01*
X113673333Y-154138761D01*
X113597142Y-154176857D01*
X113330476Y-154176857D01*
X114130476Y-153795904D02*
X114130476Y-154443523D01*
X114168571Y-154519714D01*
X114206666Y-154557809D01*
X114282857Y-154595904D01*
X114435238Y-154595904D01*
X114511428Y-154557809D01*
X114549523Y-154519714D01*
X114587619Y-154443523D01*
X114587619Y-153795904D01*
X114892380Y-153795904D02*
X115425714Y-153795904D01*
X114892380Y-154595904D01*
X115425714Y-154595904D01*
D11*
X77693619Y-108037333D02*
X77669809Y-108108761D01*
X77669809Y-108227809D01*
X77693619Y-108275428D01*
X77717428Y-108299238D01*
X77765047Y-108323047D01*
X77812666Y-108323047D01*
X77860285Y-108299238D01*
X77884095Y-108275428D01*
X77907904Y-108227809D01*
X77931714Y-108132571D01*
X77955523Y-108084952D01*
X77979333Y-108061142D01*
X78026952Y-108037333D01*
X78074571Y-108037333D01*
X78122190Y-108061142D01*
X78146000Y-108084952D01*
X78169809Y-108132571D01*
X78169809Y-108251619D01*
X78146000Y-108323047D01*
X77693619Y-108727809D02*
X77669809Y-108680190D01*
X77669809Y-108584952D01*
X77693619Y-108537333D01*
X77741238Y-108513523D01*
X77931714Y-108513523D01*
X77979333Y-108537333D01*
X78003142Y-108584952D01*
X78003142Y-108680190D01*
X77979333Y-108727809D01*
X77931714Y-108751619D01*
X77884095Y-108751619D01*
X77836476Y-108513523D01*
X78003142Y-108965904D02*
X77669809Y-108965904D01*
X77955523Y-108965904D02*
X77979333Y-108989714D01*
X78003142Y-109037333D01*
X78003142Y-109108761D01*
X77979333Y-109156380D01*
X77931714Y-109180190D01*
X77669809Y-109180190D01*
X77693619Y-109394476D02*
X77669809Y-109442095D01*
X77669809Y-109537333D01*
X77693619Y-109584952D01*
X77741238Y-109608761D01*
X77765047Y-109608761D01*
X77812666Y-109584952D01*
X77836476Y-109537333D01*
X77836476Y-109465904D01*
X77860285Y-109418285D01*
X77907904Y-109394476D01*
X77931714Y-109394476D01*
X77979333Y-109418285D01*
X78003142Y-109465904D01*
X78003142Y-109537333D01*
X77979333Y-109584952D01*
X77669809Y-109894476D02*
X77693619Y-109846857D01*
X77717428Y-109823047D01*
X77765047Y-109799238D01*
X77907904Y-109799238D01*
X77955523Y-109823047D01*
X77979333Y-109846857D01*
X78003142Y-109894476D01*
X78003142Y-109965904D01*
X77979333Y-110013523D01*
X77955523Y-110037333D01*
X77907904Y-110061142D01*
X77765047Y-110061142D01*
X77717428Y-110037333D01*
X77693619Y-110013523D01*
X77669809Y-109965904D01*
X77669809Y-109894476D01*
X77669809Y-110275428D02*
X78003142Y-110275428D01*
X77907904Y-110275428D02*
X77955523Y-110299238D01*
X77979333Y-110323047D01*
X78003142Y-110370666D01*
X78003142Y-110418285D01*
X77931714Y-111577428D02*
X77907904Y-111648857D01*
X77884095Y-111672666D01*
X77836476Y-111696476D01*
X77765047Y-111696476D01*
X77717428Y-111672666D01*
X77693619Y-111648857D01*
X77669809Y-111601238D01*
X77669809Y-111410761D01*
X78169809Y-111410761D01*
X78169809Y-111577428D01*
X78146000Y-111625047D01*
X78122190Y-111648857D01*
X78074571Y-111672666D01*
X78026952Y-111672666D01*
X77979333Y-111648857D01*
X77955523Y-111625047D01*
X77931714Y-111577428D01*
X77931714Y-111410761D01*
X78003142Y-112125047D02*
X77669809Y-112125047D01*
X78003142Y-111910761D02*
X77741238Y-111910761D01*
X77693619Y-111934571D01*
X77669809Y-111982190D01*
X77669809Y-112053619D01*
X77693619Y-112101238D01*
X77717428Y-112125047D01*
X78003142Y-112291714D02*
X78003142Y-112482190D01*
X78169809Y-112363142D02*
X77741238Y-112363142D01*
X77693619Y-112386952D01*
X77669809Y-112434571D01*
X77669809Y-112482190D01*
X78003142Y-112577428D02*
X78003142Y-112767904D01*
X78169809Y-112648857D02*
X77741238Y-112648857D01*
X77693619Y-112672666D01*
X77669809Y-112720285D01*
X77669809Y-112767904D01*
X77669809Y-113006000D02*
X77693619Y-112958380D01*
X77717428Y-112934571D01*
X77765047Y-112910761D01*
X77907904Y-112910761D01*
X77955523Y-112934571D01*
X77979333Y-112958380D01*
X78003142Y-113006000D01*
X78003142Y-113077428D01*
X77979333Y-113125047D01*
X77955523Y-113148857D01*
X77907904Y-113172666D01*
X77765047Y-113172666D01*
X77717428Y-113148857D01*
X77693619Y-113125047D01*
X77669809Y-113077428D01*
X77669809Y-113006000D01*
X78003142Y-113386952D02*
X77669809Y-113386952D01*
X77955523Y-113386952D02*
X77979333Y-113410761D01*
X78003142Y-113458380D01*
X78003142Y-113529809D01*
X77979333Y-113577428D01*
X77931714Y-113601238D01*
X77669809Y-113601238D01*
D10*
X121230476Y-153834000D02*
X121154285Y-153795904D01*
X121040000Y-153795904D01*
X120925714Y-153834000D01*
X120849523Y-153910190D01*
X120811428Y-153986380D01*
X120773333Y-154138761D01*
X120773333Y-154253047D01*
X120811428Y-154405428D01*
X120849523Y-154481619D01*
X120925714Y-154557809D01*
X121040000Y-154595904D01*
X121116190Y-154595904D01*
X121230476Y-154557809D01*
X121268571Y-154519714D01*
X121268571Y-154253047D01*
X121116190Y-154253047D01*
X121611428Y-154595904D02*
X121611428Y-153795904D01*
X122068571Y-154595904D01*
X122068571Y-153795904D01*
X122449523Y-154595904D02*
X122449523Y-153795904D01*
X122640000Y-153795904D01*
X122754285Y-153834000D01*
X122830476Y-153910190D01*
X122868571Y-153986380D01*
X122906666Y-154138761D01*
X122906666Y-154253047D01*
X122868571Y-154405428D01*
X122830476Y-154481619D01*
X122754285Y-154557809D01*
X122640000Y-154595904D01*
X122449523Y-154595904D01*
D12*
X132168571Y-120986857D02*
X132168571Y-121844000D01*
X132168571Y-121415428D02*
X130668571Y-121415428D01*
X130882857Y-121558285D01*
X131025714Y-121701142D01*
X131097142Y-121844000D01*
X130811428Y-120415428D02*
X130740000Y-120344000D01*
X130668571Y-120201142D01*
X130668571Y-119844000D01*
X130740000Y-119701142D01*
X130811428Y-119629714D01*
X130954285Y-119558285D01*
X131097142Y-119558285D01*
X131311428Y-119629714D01*
X132168571Y-120486857D01*
X132168571Y-119558285D01*
X130668571Y-119129714D02*
X132168571Y-118629714D01*
X130668571Y-118129714D01*
X131740000Y-116558285D02*
X131740000Y-115844000D01*
X132168571Y-116701142D02*
X130668571Y-116201142D01*
X132168571Y-115701142D01*
X132025714Y-114344000D02*
X132097142Y-114415428D01*
X132168571Y-114629714D01*
X132168571Y-114772571D01*
X132097142Y-114986857D01*
X131954285Y-115129714D01*
X131811428Y-115201142D01*
X131525714Y-115272571D01*
X131311428Y-115272571D01*
X131025714Y-115201142D01*
X130882857Y-115129714D01*
X130740000Y-114986857D01*
X130668571Y-114772571D01*
X130668571Y-114629714D01*
X130740000Y-114415428D01*
X130811428Y-114344000D01*
D10*
X85259047Y-154595904D02*
X85259047Y-153795904D01*
X85449523Y-153795904D01*
X85563809Y-153834000D01*
X85640000Y-153910190D01*
X85678095Y-153986380D01*
X85716190Y-154138761D01*
X85716190Y-154253047D01*
X85678095Y-154405428D01*
X85640000Y-154481619D01*
X85563809Y-154557809D01*
X85449523Y-154595904D01*
X85259047Y-154595904D01*
X86173333Y-154595904D02*
X86097142Y-154557809D01*
X86059047Y-154519714D01*
X86020952Y-154443523D01*
X86020952Y-154214952D01*
X86059047Y-154138761D01*
X86097142Y-154100666D01*
X86173333Y-154062571D01*
X86287619Y-154062571D01*
X86363809Y-154100666D01*
X86401904Y-154138761D01*
X86440000Y-154214952D01*
X86440000Y-154443523D01*
X86401904Y-154519714D01*
X86363809Y-154557809D01*
X86287619Y-154595904D01*
X86173333Y-154595904D01*
X86897142Y-154595904D02*
X86820952Y-154557809D01*
X86782857Y-154519714D01*
X86744761Y-154443523D01*
X86744761Y-154214952D01*
X86782857Y-154138761D01*
X86820952Y-154100666D01*
X86897142Y-154062571D01*
X87011428Y-154062571D01*
X87087619Y-154100666D01*
X87125714Y-154138761D01*
X87163809Y-154214952D01*
X87163809Y-154443523D01*
X87125714Y-154519714D01*
X87087619Y-154557809D01*
X87011428Y-154595904D01*
X86897142Y-154595904D01*
X87506666Y-154595904D02*
X87506666Y-154062571D01*
X87506666Y-154214952D02*
X87544761Y-154138761D01*
X87582857Y-154100666D01*
X87659047Y-154062571D01*
X87735238Y-154062571D01*
X88459047Y-154595904D02*
X88192380Y-154214952D01*
X88001904Y-154595904D02*
X88001904Y-153795904D01*
X88306666Y-153795904D01*
X88382857Y-153834000D01*
X88420952Y-153872095D01*
X88459047Y-153948285D01*
X88459047Y-154062571D01*
X88420952Y-154138761D01*
X88382857Y-154176857D01*
X88306666Y-154214952D01*
X88001904Y-154214952D01*
X88759047Y-154595904D02*
X88759047Y-153795904D01*
X88949523Y-153795904D01*
X89063809Y-153834000D01*
X89140000Y-153910190D01*
X89178095Y-153986380D01*
X89216190Y-154138761D01*
X89216190Y-154253047D01*
X89178095Y-154405428D01*
X89140000Y-154481619D01*
X89063809Y-154557809D01*
X88949523Y-154595904D01*
X88759047Y-154595904D01*
X89673333Y-154595904D02*
X89597142Y-154557809D01*
X89559047Y-154519714D01*
X89520952Y-154443523D01*
X89520952Y-154214952D01*
X89559047Y-154138761D01*
X89597142Y-154100666D01*
X89673333Y-154062571D01*
X89787619Y-154062571D01*
X89863809Y-154100666D01*
X89901904Y-154138761D01*
X89940000Y-154214952D01*
X89940000Y-154443523D01*
X89901904Y-154519714D01*
X89863809Y-154557809D01*
X89787619Y-154595904D01*
X89673333Y-154595904D01*
X90397142Y-154595904D02*
X90320952Y-154557809D01*
X90282857Y-154519714D01*
X90244761Y-154443523D01*
X90244761Y-154214952D01*
X90282857Y-154138761D01*
X90320952Y-154100666D01*
X90397142Y-154062571D01*
X90511428Y-154062571D01*
X90587619Y-154100666D01*
X90625714Y-154138761D01*
X90663809Y-154214952D01*
X90663809Y-154443523D01*
X90625714Y-154519714D01*
X90587619Y-154557809D01*
X90511428Y-154595904D01*
X90397142Y-154595904D01*
X91006666Y-154595904D02*
X91006666Y-154062571D01*
X91006666Y-154214952D02*
X91044761Y-154138761D01*
X91082857Y-154100666D01*
X91159047Y-154062571D01*
X91235238Y-154062571D01*
X91959047Y-154595904D02*
X91692380Y-154214952D01*
X91501904Y-154595904D02*
X91501904Y-153795904D01*
X91806666Y-153795904D01*
X91882857Y-153834000D01*
X91920952Y-153872095D01*
X91959047Y-153948285D01*
X91959047Y-154062571D01*
X91920952Y-154138761D01*
X91882857Y-154176857D01*
X91806666Y-154214952D01*
X91501904Y-154214952D01*
X124730476Y-153834000D02*
X124654285Y-153795904D01*
X124540000Y-153795904D01*
X124425714Y-153834000D01*
X124349523Y-153910190D01*
X124311428Y-153986380D01*
X124273333Y-154138761D01*
X124273333Y-154253047D01*
X124311428Y-154405428D01*
X124349523Y-154481619D01*
X124425714Y-154557809D01*
X124540000Y-154595904D01*
X124616190Y-154595904D01*
X124730476Y-154557809D01*
X124768571Y-154519714D01*
X124768571Y-154253047D01*
X124616190Y-154253047D01*
X125111428Y-154595904D02*
X125111428Y-153795904D01*
X125568571Y-154595904D01*
X125568571Y-153795904D01*
X125949523Y-154595904D02*
X125949523Y-153795904D01*
X126140000Y-153795904D01*
X126254285Y-153834000D01*
X126330476Y-153910190D01*
X126368571Y-153986380D01*
X126406666Y-154138761D01*
X126406666Y-154253047D01*
X126368571Y-154405428D01*
X126330476Y-154481619D01*
X126254285Y-154557809D01*
X126140000Y-154595904D01*
X125949523Y-154595904D01*
D13*
X124899047Y-103670904D02*
X125394285Y-103670904D01*
X125127619Y-103975666D01*
X125241904Y-103975666D01*
X125318095Y-104013761D01*
X125356190Y-104051857D01*
X125394285Y-104128047D01*
X125394285Y-104318523D01*
X125356190Y-104394714D01*
X125318095Y-104432809D01*
X125241904Y-104470904D01*
X125013333Y-104470904D01*
X124937142Y-104432809D01*
X124899047Y-104394714D01*
X125775238Y-104432809D02*
X125775238Y-104470904D01*
X125737142Y-104547095D01*
X125699047Y-104585190D01*
X126041904Y-103670904D02*
X126537142Y-103670904D01*
X126270476Y-103975666D01*
X126384761Y-103975666D01*
X126460952Y-104013761D01*
X126499047Y-104051857D01*
X126537142Y-104128047D01*
X126537142Y-104318523D01*
X126499047Y-104394714D01*
X126460952Y-104432809D01*
X126384761Y-104470904D01*
X126156190Y-104470904D01*
X126080000Y-104432809D01*
X126041904Y-104394714D01*
X126765714Y-103670904D02*
X127032380Y-104470904D01*
X127299047Y-103670904D01*
X125470476Y-106210904D02*
X125927619Y-106210904D01*
X125699047Y-107010904D02*
X125699047Y-106210904D01*
X126118095Y-106210904D02*
X126651428Y-107010904D01*
X126651428Y-106210904D02*
X126118095Y-107010904D01*
X125946666Y-109550904D02*
X125680000Y-109169952D01*
X125489523Y-109550904D02*
X125489523Y-108750904D01*
X125794285Y-108750904D01*
X125870476Y-108789000D01*
X125908571Y-108827095D01*
X125946666Y-108903285D01*
X125946666Y-109017571D01*
X125908571Y-109093761D01*
X125870476Y-109131857D01*
X125794285Y-109169952D01*
X125489523Y-109169952D01*
X126213333Y-108750904D02*
X126746666Y-109550904D01*
X126746666Y-108750904D02*
X126213333Y-109550904D01*
X125470476Y-111329000D02*
X125394285Y-111290904D01*
X125280000Y-111290904D01*
X125165714Y-111329000D01*
X125089523Y-111405190D01*
X125051428Y-111481380D01*
X125013333Y-111633761D01*
X125013333Y-111748047D01*
X125051428Y-111900428D01*
X125089523Y-111976619D01*
X125165714Y-112052809D01*
X125280000Y-112090904D01*
X125356190Y-112090904D01*
X125470476Y-112052809D01*
X125508571Y-112014714D01*
X125508571Y-111748047D01*
X125356190Y-111748047D01*
X125851428Y-112090904D02*
X125851428Y-111290904D01*
X126308571Y-112090904D01*
X126308571Y-111290904D01*
X126689523Y-112090904D02*
X126689523Y-111290904D01*
X126880000Y-111290904D01*
X126994285Y-111329000D01*
X127070476Y-111405190D01*
X127108571Y-111481380D01*
X127146666Y-111633761D01*
X127146666Y-111748047D01*
X127108571Y-111900428D01*
X127070476Y-111976619D01*
X126994285Y-112052809D01*
X126880000Y-112090904D01*
X126689523Y-112090904D01*
X121057142Y-119653523D02*
X121057142Y-119044000D01*
X121361904Y-119348761D02*
X120752380Y-119348761D01*
X121361904Y-118053523D02*
X120561904Y-118053523D01*
X120561904Y-117863047D01*
X120600000Y-117748761D01*
X120676190Y-117672571D01*
X120752380Y-117634476D01*
X120904761Y-117596380D01*
X121019047Y-117596380D01*
X121171428Y-117634476D01*
X121247619Y-117672571D01*
X121323809Y-117748761D01*
X121361904Y-117863047D01*
X121361904Y-118053523D01*
X121285714Y-116796380D02*
X121323809Y-116834476D01*
X121361904Y-116948761D01*
X121361904Y-117024952D01*
X121323809Y-117139238D01*
X121247619Y-117215428D01*
X121171428Y-117253523D01*
X121019047Y-117291619D01*
X120904761Y-117291619D01*
X120752380Y-117253523D01*
X120676190Y-117215428D01*
X120600000Y-117139238D01*
X120561904Y-117024952D01*
X120561904Y-116948761D01*
X120600000Y-116834476D01*
X120638095Y-116796380D01*
X121057142Y-115844000D02*
X121057142Y-115234476D01*
X121057142Y-119653523D02*
X121057142Y-119044000D01*
X121361904Y-119348761D02*
X120752380Y-119348761D01*
X121361904Y-118053523D02*
X120561904Y-118053523D01*
X120561904Y-117863047D01*
X120600000Y-117748761D01*
X120676190Y-117672571D01*
X120752380Y-117634476D01*
X120904761Y-117596380D01*
X121019047Y-117596380D01*
X121171428Y-117634476D01*
X121247619Y-117672571D01*
X121323809Y-117748761D01*
X121361904Y-117863047D01*
X121361904Y-118053523D01*
X121285714Y-116796380D02*
X121323809Y-116834476D01*
X121361904Y-116948761D01*
X121361904Y-117024952D01*
X121323809Y-117139238D01*
X121247619Y-117215428D01*
X121171428Y-117253523D01*
X121019047Y-117291619D01*
X120904761Y-117291619D01*
X120752380Y-117253523D01*
X120676190Y-117215428D01*
X120600000Y-117139238D01*
X120561904Y-117024952D01*
X120561904Y-116948761D01*
X120600000Y-116834476D01*
X120638095Y-116796380D01*
X121057142Y-115844000D02*
X121057142Y-115234476D01*
X125470476Y-111329000D02*
X125394285Y-111290904D01*
X125280000Y-111290904D01*
X125165714Y-111329000D01*
X125089523Y-111405190D01*
X125051428Y-111481380D01*
X125013333Y-111633761D01*
X125013333Y-111748047D01*
X125051428Y-111900428D01*
X125089523Y-111976619D01*
X125165714Y-112052809D01*
X125280000Y-112090904D01*
X125356190Y-112090904D01*
X125470476Y-112052809D01*
X125508571Y-112014714D01*
X125508571Y-111748047D01*
X125356190Y-111748047D01*
X125851428Y-112090904D02*
X125851428Y-111290904D01*
X126308571Y-112090904D01*
X126308571Y-111290904D01*
X126689523Y-112090904D02*
X126689523Y-111290904D01*
X126880000Y-111290904D01*
X126994285Y-111329000D01*
X127070476Y-111405190D01*
X127108571Y-111481380D01*
X127146666Y-111633761D01*
X127146666Y-111748047D01*
X127108571Y-111900428D01*
X127070476Y-111976619D01*
X126994285Y-112052809D01*
X126880000Y-112090904D01*
X126689523Y-112090904D01*
X125946666Y-109550904D02*
X125680000Y-109169952D01*
X125489523Y-109550904D02*
X125489523Y-108750904D01*
X125794285Y-108750904D01*
X125870476Y-108789000D01*
X125908571Y-108827095D01*
X125946666Y-108903285D01*
X125946666Y-109017571D01*
X125908571Y-109093761D01*
X125870476Y-109131857D01*
X125794285Y-109169952D01*
X125489523Y-109169952D01*
X126213333Y-108750904D02*
X126746666Y-109550904D01*
X126746666Y-108750904D02*
X126213333Y-109550904D01*
X125470476Y-106210904D02*
X125927619Y-106210904D01*
X125699047Y-107010904D02*
X125699047Y-106210904D01*
X126118095Y-106210904D02*
X126651428Y-107010904D01*
X126651428Y-106210904D02*
X126118095Y-107010904D01*
X124899047Y-103670904D02*
X125394285Y-103670904D01*
X125127619Y-103975666D01*
X125241904Y-103975666D01*
X125318095Y-104013761D01*
X125356190Y-104051857D01*
X125394285Y-104128047D01*
X125394285Y-104318523D01*
X125356190Y-104394714D01*
X125318095Y-104432809D01*
X125241904Y-104470904D01*
X125013333Y-104470904D01*
X124937142Y-104432809D01*
X124899047Y-104394714D01*
X125775238Y-104432809D02*
X125775238Y-104470904D01*
X125737142Y-104547095D01*
X125699047Y-104585190D01*
X126041904Y-103670904D02*
X126537142Y-103670904D01*
X126270476Y-103975666D01*
X126384761Y-103975666D01*
X126460952Y-104013761D01*
X126499047Y-104051857D01*
X126537142Y-104128047D01*
X126537142Y-104318523D01*
X126499047Y-104394714D01*
X126460952Y-104432809D01*
X126384761Y-104470904D01*
X126156190Y-104470904D01*
X126080000Y-104432809D01*
X126041904Y-104394714D01*
X126765714Y-103670904D02*
X127032380Y-104470904D01*
X127299047Y-103670904D01*
D10*
X124730476Y-153834000D02*
X124654285Y-153795904D01*
X124540000Y-153795904D01*
X124425714Y-153834000D01*
X124349523Y-153910190D01*
X124311428Y-153986380D01*
X124273333Y-154138761D01*
X124273333Y-154253047D01*
X124311428Y-154405428D01*
X124349523Y-154481619D01*
X124425714Y-154557809D01*
X124540000Y-154595904D01*
X124616190Y-154595904D01*
X124730476Y-154557809D01*
X124768571Y-154519714D01*
X124768571Y-154253047D01*
X124616190Y-154253047D01*
X125111428Y-154595904D02*
X125111428Y-153795904D01*
X125568571Y-154595904D01*
X125568571Y-153795904D01*
X125949523Y-154595904D02*
X125949523Y-153795904D01*
X126140000Y-153795904D01*
X126254285Y-153834000D01*
X126330476Y-153910190D01*
X126368571Y-153986380D01*
X126406666Y-154138761D01*
X126406666Y-154253047D01*
X126368571Y-154405428D01*
X126330476Y-154481619D01*
X126254285Y-154557809D01*
X126140000Y-154595904D01*
X125949523Y-154595904D01*
X88759047Y-154595904D02*
X88759047Y-153795904D01*
X88949523Y-153795904D01*
X89063809Y-153834000D01*
X89140000Y-153910190D01*
X89178095Y-153986380D01*
X89216190Y-154138761D01*
X89216190Y-154253047D01*
X89178095Y-154405428D01*
X89140000Y-154481619D01*
X89063809Y-154557809D01*
X88949523Y-154595904D01*
X88759047Y-154595904D01*
X89673333Y-154595904D02*
X89597142Y-154557809D01*
X89559047Y-154519714D01*
X89520952Y-154443523D01*
X89520952Y-154214952D01*
X89559047Y-154138761D01*
X89597142Y-154100666D01*
X89673333Y-154062571D01*
X89787619Y-154062571D01*
X89863809Y-154100666D01*
X89901904Y-154138761D01*
X89940000Y-154214952D01*
X89940000Y-154443523D01*
X89901904Y-154519714D01*
X89863809Y-154557809D01*
X89787619Y-154595904D01*
X89673333Y-154595904D01*
X90397142Y-154595904D02*
X90320952Y-154557809D01*
X90282857Y-154519714D01*
X90244761Y-154443523D01*
X90244761Y-154214952D01*
X90282857Y-154138761D01*
X90320952Y-154100666D01*
X90397142Y-154062571D01*
X90511428Y-154062571D01*
X90587619Y-154100666D01*
X90625714Y-154138761D01*
X90663809Y-154214952D01*
X90663809Y-154443523D01*
X90625714Y-154519714D01*
X90587619Y-154557809D01*
X90511428Y-154595904D01*
X90397142Y-154595904D01*
X91006666Y-154595904D02*
X91006666Y-154062571D01*
X91006666Y-154214952D02*
X91044761Y-154138761D01*
X91082857Y-154100666D01*
X91159047Y-154062571D01*
X91235238Y-154062571D01*
X91959047Y-154595904D02*
X91692380Y-154214952D01*
X91501904Y-154595904D02*
X91501904Y-153795904D01*
X91806666Y-153795904D01*
X91882857Y-153834000D01*
X91920952Y-153872095D01*
X91959047Y-153948285D01*
X91959047Y-154062571D01*
X91920952Y-154138761D01*
X91882857Y-154176857D01*
X91806666Y-154214952D01*
X91501904Y-154214952D01*
X85259047Y-154595904D02*
X85259047Y-153795904D01*
X85449523Y-153795904D01*
X85563809Y-153834000D01*
X85640000Y-153910190D01*
X85678095Y-153986380D01*
X85716190Y-154138761D01*
X85716190Y-154253047D01*
X85678095Y-154405428D01*
X85640000Y-154481619D01*
X85563809Y-154557809D01*
X85449523Y-154595904D01*
X85259047Y-154595904D01*
X86173333Y-154595904D02*
X86097142Y-154557809D01*
X86059047Y-154519714D01*
X86020952Y-154443523D01*
X86020952Y-154214952D01*
X86059047Y-154138761D01*
X86097142Y-154100666D01*
X86173333Y-154062571D01*
X86287619Y-154062571D01*
X86363809Y-154100666D01*
X86401904Y-154138761D01*
X86440000Y-154214952D01*
X86440000Y-154443523D01*
X86401904Y-154519714D01*
X86363809Y-154557809D01*
X86287619Y-154595904D01*
X86173333Y-154595904D01*
X86897142Y-154595904D02*
X86820952Y-154557809D01*
X86782857Y-154519714D01*
X86744761Y-154443523D01*
X86744761Y-154214952D01*
X86782857Y-154138761D01*
X86820952Y-154100666D01*
X86897142Y-154062571D01*
X87011428Y-154062571D01*
X87087619Y-154100666D01*
X87125714Y-154138761D01*
X87163809Y-154214952D01*
X87163809Y-154443523D01*
X87125714Y-154519714D01*
X87087619Y-154557809D01*
X87011428Y-154595904D01*
X86897142Y-154595904D01*
X87506666Y-154595904D02*
X87506666Y-154062571D01*
X87506666Y-154214952D02*
X87544761Y-154138761D01*
X87582857Y-154100666D01*
X87659047Y-154062571D01*
X87735238Y-154062571D01*
X88459047Y-154595904D02*
X88192380Y-154214952D01*
X88001904Y-154595904D02*
X88001904Y-153795904D01*
X88306666Y-153795904D01*
X88382857Y-153834000D01*
X88420952Y-153872095D01*
X88459047Y-153948285D01*
X88459047Y-154062571D01*
X88420952Y-154138761D01*
X88382857Y-154176857D01*
X88306666Y-154214952D01*
X88001904Y-154214952D01*
D12*
X132168571Y-120986857D02*
X132168571Y-121844000D01*
X132168571Y-121415428D02*
X130668571Y-121415428D01*
X130882857Y-121558285D01*
X131025714Y-121701142D01*
X131097142Y-121844000D01*
X130811428Y-120415428D02*
X130740000Y-120344000D01*
X130668571Y-120201142D01*
X130668571Y-119844000D01*
X130740000Y-119701142D01*
X130811428Y-119629714D01*
X130954285Y-119558285D01*
X131097142Y-119558285D01*
X131311428Y-119629714D01*
X132168571Y-120486857D01*
X132168571Y-119558285D01*
X130668571Y-119129714D02*
X132168571Y-118629714D01*
X130668571Y-118129714D01*
X131740000Y-116558285D02*
X131740000Y-115844000D01*
X132168571Y-116701142D02*
X130668571Y-116201142D01*
X132168571Y-115701142D01*
X132025714Y-114344000D02*
X132097142Y-114415428D01*
X132168571Y-114629714D01*
X132168571Y-114772571D01*
X132097142Y-114986857D01*
X131954285Y-115129714D01*
X131811428Y-115201142D01*
X131525714Y-115272571D01*
X131311428Y-115272571D01*
X131025714Y-115201142D01*
X130882857Y-115129714D01*
X130740000Y-114986857D01*
X130668571Y-114772571D01*
X130668571Y-114629714D01*
X130740000Y-114415428D01*
X130811428Y-114344000D01*
D10*
X121230476Y-153834000D02*
X121154285Y-153795904D01*
X121040000Y-153795904D01*
X120925714Y-153834000D01*
X120849523Y-153910190D01*
X120811428Y-153986380D01*
X120773333Y-154138761D01*
X120773333Y-154253047D01*
X120811428Y-154405428D01*
X120849523Y-154481619D01*
X120925714Y-154557809D01*
X121040000Y-154595904D01*
X121116190Y-154595904D01*
X121230476Y-154557809D01*
X121268571Y-154519714D01*
X121268571Y-154253047D01*
X121116190Y-154253047D01*
X121611428Y-154595904D02*
X121611428Y-153795904D01*
X122068571Y-154595904D01*
X122068571Y-153795904D01*
X122449523Y-154595904D02*
X122449523Y-153795904D01*
X122640000Y-153795904D01*
X122754285Y-153834000D01*
X122830476Y-153910190D01*
X122868571Y-153986380D01*
X122906666Y-154138761D01*
X122906666Y-154253047D01*
X122868571Y-154405428D01*
X122830476Y-154481619D01*
X122754285Y-154557809D01*
X122640000Y-154595904D01*
X122449523Y-154595904D01*
D11*
X77931714Y-111577428D02*
X77907904Y-111648857D01*
X77884095Y-111672666D01*
X77836476Y-111696476D01*
X77765047Y-111696476D01*
X77717428Y-111672666D01*
X77693619Y-111648857D01*
X77669809Y-111601238D01*
X77669809Y-111410761D01*
X78169809Y-111410761D01*
X78169809Y-111577428D01*
X78146000Y-111625047D01*
X78122190Y-111648857D01*
X78074571Y-111672666D01*
X78026952Y-111672666D01*
X77979333Y-111648857D01*
X77955523Y-111625047D01*
X77931714Y-111577428D01*
X77931714Y-111410761D01*
X78003142Y-112125047D02*
X77669809Y-112125047D01*
X78003142Y-111910761D02*
X77741238Y-111910761D01*
X77693619Y-111934571D01*
X77669809Y-111982190D01*
X77669809Y-112053619D01*
X77693619Y-112101238D01*
X77717428Y-112125047D01*
X78003142Y-112291714D02*
X78003142Y-112482190D01*
X78169809Y-112363142D02*
X77741238Y-112363142D01*
X77693619Y-112386952D01*
X77669809Y-112434571D01*
X77669809Y-112482190D01*
X78003142Y-112577428D02*
X78003142Y-112767904D01*
X78169809Y-112648857D02*
X77741238Y-112648857D01*
X77693619Y-112672666D01*
X77669809Y-112720285D01*
X77669809Y-112767904D01*
X77669809Y-113006000D02*
X77693619Y-112958380D01*
X77717428Y-112934571D01*
X77765047Y-112910761D01*
X77907904Y-112910761D01*
X77955523Y-112934571D01*
X77979333Y-112958380D01*
X78003142Y-113006000D01*
X78003142Y-113077428D01*
X77979333Y-113125047D01*
X77955523Y-113148857D01*
X77907904Y-113172666D01*
X77765047Y-113172666D01*
X77717428Y-113148857D01*
X77693619Y-113125047D01*
X77669809Y-113077428D01*
X77669809Y-113006000D01*
X78003142Y-113386952D02*
X77669809Y-113386952D01*
X77955523Y-113386952D02*
X77979333Y-113410761D01*
X78003142Y-113458380D01*
X78003142Y-113529809D01*
X77979333Y-113577428D01*
X77931714Y-113601238D01*
X77669809Y-113601238D01*
X77693619Y-108037333D02*
X77669809Y-108108761D01*
X77669809Y-108227809D01*
X77693619Y-108275428D01*
X77717428Y-108299238D01*
X77765047Y-108323047D01*
X77812666Y-108323047D01*
X77860285Y-108299238D01*
X77884095Y-108275428D01*
X77907904Y-108227809D01*
X77931714Y-108132571D01*
X77955523Y-108084952D01*
X77979333Y-108061142D01*
X78026952Y-108037333D01*
X78074571Y-108037333D01*
X78122190Y-108061142D01*
X78146000Y-108084952D01*
X78169809Y-108132571D01*
X78169809Y-108251619D01*
X78146000Y-108323047D01*
X77693619Y-108727809D02*
X77669809Y-108680190D01*
X77669809Y-108584952D01*
X77693619Y-108537333D01*
X77741238Y-108513523D01*
X77931714Y-108513523D01*
X77979333Y-108537333D01*
X78003142Y-108584952D01*
X78003142Y-108680190D01*
X77979333Y-108727809D01*
X77931714Y-108751619D01*
X77884095Y-108751619D01*
X77836476Y-108513523D01*
X78003142Y-108965904D02*
X77669809Y-108965904D01*
X77955523Y-108965904D02*
X77979333Y-108989714D01*
X78003142Y-109037333D01*
X78003142Y-109108761D01*
X77979333Y-109156380D01*
X77931714Y-109180190D01*
X77669809Y-109180190D01*
X77693619Y-109394476D02*
X77669809Y-109442095D01*
X77669809Y-109537333D01*
X77693619Y-109584952D01*
X77741238Y-109608761D01*
X77765047Y-109608761D01*
X77812666Y-109584952D01*
X77836476Y-109537333D01*
X77836476Y-109465904D01*
X77860285Y-109418285D01*
X77907904Y-109394476D01*
X77931714Y-109394476D01*
X77979333Y-109418285D01*
X78003142Y-109465904D01*
X78003142Y-109537333D01*
X77979333Y-109584952D01*
X77669809Y-109894476D02*
X77693619Y-109846857D01*
X77717428Y-109823047D01*
X77765047Y-109799238D01*
X77907904Y-109799238D01*
X77955523Y-109823047D01*
X77979333Y-109846857D01*
X78003142Y-109894476D01*
X78003142Y-109965904D01*
X77979333Y-110013523D01*
X77955523Y-110037333D01*
X77907904Y-110061142D01*
X77765047Y-110061142D01*
X77717428Y-110037333D01*
X77693619Y-110013523D01*
X77669809Y-109965904D01*
X77669809Y-109894476D01*
X77669809Y-110275428D02*
X78003142Y-110275428D01*
X77907904Y-110275428D02*
X77955523Y-110299238D01*
X77979333Y-110323047D01*
X78003142Y-110370666D01*
X78003142Y-110418285D01*
D10*
X113597142Y-154176857D02*
X113711428Y-154214952D01*
X113749523Y-154253047D01*
X113787619Y-154329238D01*
X113787619Y-154443523D01*
X113749523Y-154519714D01*
X113711428Y-154557809D01*
X113635238Y-154595904D01*
X113330476Y-154595904D01*
X113330476Y-153795904D01*
X113597142Y-153795904D01*
X113673333Y-153834000D01*
X113711428Y-153872095D01*
X113749523Y-153948285D01*
X113749523Y-154024476D01*
X113711428Y-154100666D01*
X113673333Y-154138761D01*
X113597142Y-154176857D01*
X113330476Y-154176857D01*
X114130476Y-153795904D02*
X114130476Y-154443523D01*
X114168571Y-154519714D01*
X114206666Y-154557809D01*
X114282857Y-154595904D01*
X114435238Y-154595904D01*
X114511428Y-154557809D01*
X114549523Y-154519714D01*
X114587619Y-154443523D01*
X114587619Y-153795904D01*
X114892380Y-153795904D02*
X115425714Y-153795904D01*
X114892380Y-154595904D01*
X115425714Y-154595904D01*
X109335238Y-153795904D02*
X109525714Y-154595904D01*
X109678095Y-154024476D01*
X109830476Y-154595904D01*
X110020952Y-153795904D01*
X110744761Y-153834000D02*
X110668571Y-153795904D01*
X110554285Y-153795904D01*
X110440000Y-153834000D01*
X110363809Y-153910190D01*
X110325714Y-153986380D01*
X110287619Y-154138761D01*
X110287619Y-154253047D01*
X110325714Y-154405428D01*
X110363809Y-154481619D01*
X110440000Y-154557809D01*
X110554285Y-154595904D01*
X110630476Y-154595904D01*
X110744761Y-154557809D01*
X110782857Y-154519714D01*
X110782857Y-154253047D01*
X110630476Y-154253047D01*
X111087619Y-153872095D02*
X111125714Y-153834000D01*
X111201904Y-153795904D01*
X111392380Y-153795904D01*
X111468571Y-153834000D01*
X111506666Y-153872095D01*
X111544761Y-153948285D01*
X111544761Y-154024476D01*
X111506666Y-154138761D01*
X111049523Y-154595904D01*
X111544761Y-154595904D01*
X112230476Y-153795904D02*
X112078095Y-153795904D01*
X112001904Y-153834000D01*
X111963809Y-153872095D01*
X111887619Y-153986380D01*
X111849523Y-154138761D01*
X111849523Y-154443523D01*
X111887619Y-154519714D01*
X111925714Y-154557809D01*
X112001904Y-154595904D01*
X112154285Y-154595904D01*
X112230476Y-154557809D01*
X112268571Y-154519714D01*
X112306666Y-154443523D01*
X112306666Y-154253047D01*
X112268571Y-154176857D01*
X112230476Y-154138761D01*
X112154285Y-154100666D01*
X112001904Y-154100666D01*
X111925714Y-154138761D01*
X111887619Y-154176857D01*
X111849523Y-154253047D01*
X106825714Y-154595904D02*
X106444761Y-154595904D01*
X106444761Y-153795904D01*
X107092380Y-154176857D02*
X107359047Y-154176857D01*
X107473333Y-154595904D02*
X107092380Y-154595904D01*
X107092380Y-153795904D01*
X107473333Y-153795904D01*
X107816190Y-154595904D02*
X107816190Y-153795904D01*
X108006666Y-153795904D01*
X108120952Y-153834000D01*
X108197142Y-153910190D01*
X108235238Y-153986380D01*
X108273333Y-154138761D01*
X108273333Y-154253047D01*
X108235238Y-154405428D01*
X108197142Y-154481619D01*
X108120952Y-154557809D01*
X108006666Y-154595904D01*
X107816190Y-154595904D01*
X103249523Y-154595904D02*
X103249523Y-153795904D01*
X103440000Y-153795904D01*
X103554285Y-153834000D01*
X103630476Y-153910190D01*
X103668571Y-153986380D01*
X103706666Y-154138761D01*
X103706666Y-154253047D01*
X103668571Y-154405428D01*
X103630476Y-154481619D01*
X103554285Y-154557809D01*
X103440000Y-154595904D01*
X103249523Y-154595904D01*
X104468571Y-154595904D02*
X104011428Y-154595904D01*
X104240000Y-154595904D02*
X104240000Y-153795904D01*
X104163809Y-153910190D01*
X104087619Y-153986380D01*
X104011428Y-154024476D01*
X100089523Y-154635904D02*
X100089523Y-153835904D01*
X100280000Y-153835904D01*
X100394285Y-153874000D01*
X100470476Y-153950190D01*
X100508571Y-154026380D01*
X100546666Y-154178761D01*
X100546666Y-154293047D01*
X100508571Y-154445428D01*
X100470476Y-154521619D01*
X100394285Y-154597809D01*
X100280000Y-154635904D01*
X100089523Y-154635904D01*
X101041904Y-153835904D02*
X101118095Y-153835904D01*
X101194285Y-153874000D01*
X101232380Y-153912095D01*
X101270476Y-153988285D01*
X101308571Y-154140666D01*
X101308571Y-154331142D01*
X101270476Y-154483523D01*
X101232380Y-154559714D01*
X101194285Y-154597809D01*
X101118095Y-154635904D01*
X101041904Y-154635904D01*
X100965714Y-154597809D01*
X100927619Y-154559714D01*
X100889523Y-154483523D01*
X100851428Y-154331142D01*
X100851428Y-154140666D01*
X100889523Y-153988285D01*
X100927619Y-153912095D01*
X100965714Y-153874000D01*
X101041904Y-153835904D01*
X95790714Y-154331142D02*
X96400238Y-154331142D01*
X96095476Y-154635904D02*
X96095476Y-154026380D01*
X97809761Y-154635904D02*
X97352619Y-154635904D01*
X97581190Y-154635904D02*
X97581190Y-153835904D01*
X97505000Y-153950190D01*
X97428809Y-154026380D01*
X97352619Y-154064476D01*
X98114523Y-153912095D02*
X98152619Y-153874000D01*
X98228809Y-153835904D01*
X98419285Y-153835904D01*
X98495476Y-153874000D01*
X98533571Y-153912095D01*
X98571666Y-153988285D01*
X98571666Y-154064476D01*
X98533571Y-154178761D01*
X98076428Y-154635904D01*
X98571666Y-154635904D01*
X98800238Y-153835904D02*
X99066904Y-154635904D01*
X99333571Y-153835904D01*
D14*
X118568437Y-138046736D02*
G75*
G03X108770643Y-138050000I-4898437J-1383264D01*
G01*
X118568437Y-140813264D02*
G75*
G02X108770643Y-140810000I-4898437J1383264D01*
G01*
X118568437Y-140813264D02*
G75*
G03X118569357Y-138050000I-4898437J1383264D01*
G01*
X113670000Y-134380000D02*
X113670000Y-144480000D01*
X113710000Y-134380000D02*
X113710000Y-144480000D01*
X113750000Y-134380000D02*
X113750000Y-144480000D01*
X113790000Y-134381000D02*
X113790000Y-144479000D01*
X113830000Y-134382000D02*
X113830000Y-144478000D01*
X113870000Y-134383000D02*
X113870000Y-144477000D01*
X113910000Y-134385000D02*
X113910000Y-144475000D01*
X113950000Y-134387000D02*
X113950000Y-144473000D01*
X113990000Y-134390000D02*
X113990000Y-144470000D01*
X114030000Y-134392000D02*
X114030000Y-144468000D01*
X114070000Y-134395000D02*
X114070000Y-144465000D01*
X114110000Y-134399000D02*
X114110000Y-144461000D01*
X114150000Y-134402000D02*
X114150000Y-144458000D01*
X114190000Y-134406000D02*
X114190000Y-144454000D01*
X114230000Y-134410000D02*
X114230000Y-144450000D01*
X114270000Y-134415000D02*
X114270000Y-144445000D01*
X114310000Y-134420000D02*
X114310000Y-144440000D01*
X114350000Y-134425000D02*
X114350000Y-144435000D01*
X114391000Y-134431000D02*
X114391000Y-144429000D01*
X114431000Y-134437000D02*
X114431000Y-144423000D01*
X114471000Y-134443000D02*
X114471000Y-144417000D01*
X114511000Y-134449000D02*
X114511000Y-144411000D01*
X114551000Y-134456000D02*
X114551000Y-144404000D01*
X114591000Y-134463000D02*
X114591000Y-144397000D01*
X114631000Y-134471000D02*
X114631000Y-144389000D01*
X114671000Y-134479000D02*
X114671000Y-144381000D01*
X114711000Y-134487000D02*
X114711000Y-144373000D01*
X114751000Y-134495000D02*
X114751000Y-144365000D01*
X114791000Y-134504000D02*
X114791000Y-144356000D01*
X114831000Y-134513000D02*
X114831000Y-144347000D01*
X114871000Y-134523000D02*
X114871000Y-144337000D01*
X114911000Y-134533000D02*
X114911000Y-144327000D01*
X114951000Y-134543000D02*
X114951000Y-144317000D01*
X114991000Y-134554000D02*
X114991000Y-138249000D01*
X114991000Y-140611000D02*
X114991000Y-144306000D01*
X115031000Y-134565000D02*
X115031000Y-138249000D01*
X115031000Y-140611000D02*
X115031000Y-144295000D01*
X115071000Y-134576000D02*
X115071000Y-138249000D01*
X115071000Y-140611000D02*
X115071000Y-144284000D01*
X115111000Y-134587000D02*
X115111000Y-138249000D01*
X115111000Y-140611000D02*
X115111000Y-144273000D01*
X115151000Y-134599000D02*
X115151000Y-138249000D01*
X115151000Y-140611000D02*
X115151000Y-144261000D01*
X115191000Y-134612000D02*
X115191000Y-138249000D01*
X115191000Y-140611000D02*
X115191000Y-144248000D01*
X115231000Y-134624000D02*
X115231000Y-138249000D01*
X115231000Y-140611000D02*
X115231000Y-144236000D01*
X115271000Y-134638000D02*
X115271000Y-138249000D01*
X115271000Y-140611000D02*
X115271000Y-144222000D01*
X115311000Y-134651000D02*
X115311000Y-138249000D01*
X115311000Y-140611000D02*
X115311000Y-144209000D01*
X115351000Y-134665000D02*
X115351000Y-138249000D01*
X115351000Y-140611000D02*
X115351000Y-144195000D01*
X115391000Y-134679000D02*
X115391000Y-138249000D01*
X115391000Y-140611000D02*
X115391000Y-144181000D01*
X115431000Y-134693000D02*
X115431000Y-138249000D01*
X115431000Y-140611000D02*
X115431000Y-144167000D01*
X115471000Y-134708000D02*
X115471000Y-138249000D01*
X115471000Y-140611000D02*
X115471000Y-144152000D01*
X115511000Y-134724000D02*
X115511000Y-138249000D01*
X115511000Y-140611000D02*
X115511000Y-144136000D01*
X115551000Y-134739000D02*
X115551000Y-138249000D01*
X115551000Y-140611000D02*
X115551000Y-144121000D01*
X115591000Y-134756000D02*
X115591000Y-138249000D01*
X115591000Y-140611000D02*
X115591000Y-144104000D01*
X115631000Y-134772000D02*
X115631000Y-138249000D01*
X115631000Y-140611000D02*
X115631000Y-144088000D01*
X115671000Y-134789000D02*
X115671000Y-138249000D01*
X115671000Y-140611000D02*
X115671000Y-144071000D01*
X115711000Y-134806000D02*
X115711000Y-138249000D01*
X115711000Y-140611000D02*
X115711000Y-144054000D01*
X115751000Y-134824000D02*
X115751000Y-138249000D01*
X115751000Y-140611000D02*
X115751000Y-144036000D01*
X115791000Y-134842000D02*
X115791000Y-138249000D01*
X115791000Y-140611000D02*
X115791000Y-144018000D01*
X115831000Y-134861000D02*
X115831000Y-138249000D01*
X115831000Y-140611000D02*
X115831000Y-143999000D01*
X115871000Y-134880000D02*
X115871000Y-138249000D01*
X115871000Y-140611000D02*
X115871000Y-143980000D01*
X115911000Y-134899000D02*
X115911000Y-138249000D01*
X115911000Y-140611000D02*
X115911000Y-143961000D01*
X115951000Y-134919000D02*
X115951000Y-138249000D01*
X115951000Y-140611000D02*
X115951000Y-143941000D01*
X115991000Y-134939000D02*
X115991000Y-138249000D01*
X115991000Y-140611000D02*
X115991000Y-143921000D01*
X116031000Y-134960000D02*
X116031000Y-138249000D01*
X116031000Y-140611000D02*
X116031000Y-143900000D01*
X116071000Y-134981000D02*
X116071000Y-138249000D01*
X116071000Y-140611000D02*
X116071000Y-143879000D01*
X116111000Y-135002000D02*
X116111000Y-138249000D01*
X116111000Y-140611000D02*
X116111000Y-143858000D01*
X116151000Y-135025000D02*
X116151000Y-138249000D01*
X116151000Y-140611000D02*
X116151000Y-143835000D01*
X116191000Y-135047000D02*
X116191000Y-138249000D01*
X116191000Y-140611000D02*
X116191000Y-143813000D01*
X116231000Y-135070000D02*
X116231000Y-138249000D01*
X116231000Y-140611000D02*
X116231000Y-143790000D01*
X116271000Y-135094000D02*
X116271000Y-138249000D01*
X116271000Y-140611000D02*
X116271000Y-143766000D01*
X116311000Y-135118000D02*
X116311000Y-138249000D01*
X116311000Y-140611000D02*
X116311000Y-143742000D01*
X116351000Y-135142000D02*
X116351000Y-138249000D01*
X116351000Y-140611000D02*
X116351000Y-143718000D01*
X116391000Y-135167000D02*
X116391000Y-138249000D01*
X116391000Y-140611000D02*
X116391000Y-143693000D01*
X116431000Y-135193000D02*
X116431000Y-138249000D01*
X116431000Y-140611000D02*
X116431000Y-143667000D01*
X116471000Y-135219000D02*
X116471000Y-138249000D01*
X116471000Y-140611000D02*
X116471000Y-143641000D01*
X116511000Y-135245000D02*
X116511000Y-138249000D01*
X116511000Y-140611000D02*
X116511000Y-143615000D01*
X116551000Y-135273000D02*
X116551000Y-138249000D01*
X116551000Y-140611000D02*
X116551000Y-143587000D01*
X116591000Y-135300000D02*
X116591000Y-138249000D01*
X116591000Y-140611000D02*
X116591000Y-143560000D01*
X116631000Y-135329000D02*
X116631000Y-138249000D01*
X116631000Y-140611000D02*
X116631000Y-143531000D01*
X116671000Y-135358000D02*
X116671000Y-138249000D01*
X116671000Y-140611000D02*
X116671000Y-143502000D01*
X116711000Y-135387000D02*
X116711000Y-138249000D01*
X116711000Y-140611000D02*
X116711000Y-143473000D01*
X116751000Y-135417000D02*
X116751000Y-138249000D01*
X116751000Y-140611000D02*
X116751000Y-143443000D01*
X116791000Y-135448000D02*
X116791000Y-138249000D01*
X116791000Y-140611000D02*
X116791000Y-143412000D01*
X116831000Y-135479000D02*
X116831000Y-138249000D01*
X116831000Y-140611000D02*
X116831000Y-143381000D01*
X116871000Y-135511000D02*
X116871000Y-138249000D01*
X116871000Y-140611000D02*
X116871000Y-143349000D01*
X116911000Y-135544000D02*
X116911000Y-138249000D01*
X116911000Y-140611000D02*
X116911000Y-143316000D01*
X116951000Y-135577000D02*
X116951000Y-138249000D01*
X116951000Y-140611000D02*
X116951000Y-143283000D01*
X116991000Y-135611000D02*
X116991000Y-138249000D01*
X116991000Y-140611000D02*
X116991000Y-143249000D01*
X117031000Y-135646000D02*
X117031000Y-138249000D01*
X117031000Y-140611000D02*
X117031000Y-143214000D01*
X117071000Y-135682000D02*
X117071000Y-138249000D01*
X117071000Y-140611000D02*
X117071000Y-143178000D01*
X117111000Y-135718000D02*
X117111000Y-138249000D01*
X117111000Y-140611000D02*
X117111000Y-143142000D01*
X117151000Y-135755000D02*
X117151000Y-138249000D01*
X117151000Y-140611000D02*
X117151000Y-143105000D01*
X117191000Y-135793000D02*
X117191000Y-138249000D01*
X117191000Y-140611000D02*
X117191000Y-143067000D01*
X117231000Y-135832000D02*
X117231000Y-138249000D01*
X117231000Y-140611000D02*
X117231000Y-143028000D01*
X117271000Y-135871000D02*
X117271000Y-138249000D01*
X117271000Y-140611000D02*
X117271000Y-142989000D01*
X117311000Y-135912000D02*
X117311000Y-138249000D01*
X117311000Y-140611000D02*
X117311000Y-142948000D01*
X117351000Y-135953000D02*
X117351000Y-142907000D01*
X117391000Y-135995000D02*
X117391000Y-142865000D01*
X117431000Y-136039000D02*
X117431000Y-142821000D01*
X117471000Y-136083000D02*
X117471000Y-142777000D01*
X117511000Y-136128000D02*
X117511000Y-142732000D01*
X117551000Y-136175000D02*
X117551000Y-142685000D01*
X117591000Y-136223000D02*
X117591000Y-142637000D01*
X117631000Y-136272000D02*
X117631000Y-142588000D01*
X117671000Y-136322000D02*
X117671000Y-142538000D01*
X117711000Y-136373000D02*
X117711000Y-142487000D01*
X117751000Y-136426000D02*
X117751000Y-142434000D01*
X117791000Y-136481000D02*
X117791000Y-142379000D01*
X117831000Y-136536000D02*
X117831000Y-142324000D01*
X117871000Y-136594000D02*
X117871000Y-142266000D01*
X117911000Y-136653000D02*
X117911000Y-142207000D01*
X117951000Y-136715000D02*
X117951000Y-142145000D01*
X117991000Y-136778000D02*
X117991000Y-142082000D01*
X118031000Y-136843000D02*
X118031000Y-142017000D01*
X118071000Y-136911000D02*
X118071000Y-141949000D01*
X118111000Y-136981000D02*
X118111000Y-141879000D01*
X118151000Y-137053000D02*
X118151000Y-141807000D01*
X118191000Y-137129000D02*
X118191000Y-141731000D01*
X118231000Y-137208000D02*
X118231000Y-141652000D01*
X118271000Y-137290000D02*
X118271000Y-141570000D01*
X118311000Y-137377000D02*
X118311000Y-141483000D01*
X118351000Y-137468000D02*
X118351000Y-141392000D01*
X118391000Y-137564000D02*
X118391000Y-141296000D01*
X118431000Y-137667000D02*
X118431000Y-141193000D01*
X118471000Y-137776000D02*
X118471000Y-141084000D01*
X118511000Y-137894000D02*
X118511000Y-140966000D01*
X118551000Y-138023000D02*
X118551000Y-140837000D01*
X118591000Y-138165000D02*
X118591000Y-140695000D01*
X118631000Y-138326000D02*
X118631000Y-140534000D01*
X118671000Y-138517000D02*
X118671000Y-140343000D01*
X118711000Y-138758000D02*
X118711000Y-140102000D01*
X118751000Y-139151000D02*
X118751000Y-139709000D01*
X108470000Y-139430000D02*
X109970000Y-139430000D01*
X109220000Y-138680000D02*
X109220000Y-140180000D01*
X79995000Y-142690000D02*
X85195000Y-142690000D01*
X85195000Y-146330000D02*
X79995000Y-146330000D01*
D15*
X109246000Y-118631000D02*
X109246000Y-117869000D01*
X93244000Y-118631000D02*
X109246000Y-118631000D01*
X93244000Y-117869000D02*
X93244000Y-118631000D01*
D14*
X82490000Y-131884000D02*
X77840000Y-131884000D01*
X82490000Y-128684000D02*
X77840000Y-128684000D01*
X77840000Y-128684000D02*
X77840000Y-129484000D01*
X78660000Y-127404000D02*
X81320000Y-127404000D01*
X78660000Y-124804000D02*
X78660000Y-127404000D01*
X81320000Y-124804000D02*
X81320000Y-127404000D01*
X78660000Y-124804000D02*
X81320000Y-124804000D01*
X78660000Y-123534000D02*
X78660000Y-122204000D01*
X78660000Y-122204000D02*
X79990000Y-122204000D01*
X96530000Y-143485000D02*
X95330000Y-143485000D01*
X95330000Y-141725000D02*
X96530000Y-141725000D01*
X95330000Y-141725000D02*
X96530000Y-141725000D01*
X96530000Y-143485000D02*
X95330000Y-143485000D01*
X83856000Y-123590000D02*
X83856000Y-124790000D01*
X82096000Y-124790000D02*
X82096000Y-123590000D01*
X96955000Y-139014000D02*
X96955000Y-137814000D01*
X98715000Y-137814000D02*
X98715000Y-139014000D01*
X104150000Y-143485000D02*
X102950000Y-143485000D01*
X102950000Y-141725000D02*
X104150000Y-141725000D01*
X88910000Y-115545000D02*
X87710000Y-115545000D01*
X87710000Y-113785000D02*
X88910000Y-113785000D01*
X116850000Y-111735000D02*
X115650000Y-111735000D01*
X115650000Y-109975000D02*
X116850000Y-109975000D01*
X88910000Y-118085000D02*
X87710000Y-118085000D01*
X87710000Y-116325000D02*
X88910000Y-116325000D01*
X88910000Y-109830000D02*
X87710000Y-109830000D01*
X87710000Y-108070000D02*
X88910000Y-108070000D01*
X93780000Y-139014000D02*
X93780000Y-137814000D01*
X95540000Y-137814000D02*
X95540000Y-139014000D01*
X96530000Y-143485000D02*
X95330000Y-143485000D01*
X95330000Y-141725000D02*
X96530000Y-141725000D01*
X113955000Y-115970000D02*
X113955000Y-117170000D01*
X112195000Y-117170000D02*
X112195000Y-115970000D01*
X88910000Y-107290000D02*
X87710000Y-107290000D01*
X87710000Y-105530000D02*
X88910000Y-105530000D01*
X88910000Y-104115000D02*
X87710000Y-104115000D01*
X87710000Y-102355000D02*
X88910000Y-102355000D01*
X88910000Y-112370000D02*
X87710000Y-112370000D01*
X87710000Y-110610000D02*
X88910000Y-110610000D01*
X93820000Y-141414000D02*
X91160000Y-141414000D01*
X93820000Y-144014000D02*
X93820000Y-141414000D01*
X91160000Y-144014000D02*
X91160000Y-141414000D01*
X93820000Y-144014000D02*
X91160000Y-144014000D01*
X93820000Y-145284000D02*
X93820000Y-146614000D01*
X93820000Y-146614000D02*
X92490000Y-146614000D01*
X109570000Y-147614000D02*
X108240000Y-147614000D01*
X109570000Y-146284000D02*
X109570000Y-147614000D01*
X109570000Y-145014000D02*
X106910000Y-145014000D01*
X106910000Y-145014000D02*
X106910000Y-142414000D01*
X109570000Y-145014000D02*
X109570000Y-142414000D01*
X109570000Y-142414000D02*
X106910000Y-142414000D01*
X89005000Y-119050000D02*
X86345000Y-119050000D01*
X89005000Y-124190000D02*
X89005000Y-119050000D01*
X86345000Y-124190000D02*
X86345000Y-119050000D01*
X89005000Y-124190000D02*
X86345000Y-124190000D01*
X89005000Y-125460000D02*
X89005000Y-126790000D01*
X89005000Y-126790000D02*
X87675000Y-126790000D01*
X121270000Y-112820000D02*
X123930000Y-112820000D01*
X121270000Y-105140000D02*
X121270000Y-112820000D01*
X123930000Y-105140000D02*
X123930000Y-112820000D01*
X121270000Y-105140000D02*
X123930000Y-105140000D01*
X121270000Y-103870000D02*
X121270000Y-102540000D01*
X121270000Y-102540000D02*
X122600000Y-102540000D01*
D10*
X116090000Y-155234000D02*
X116090000Y-148234000D01*
X109090000Y-148234000D02*
X109090000Y-155234000D01*
X116090000Y-148234000D02*
X109090000Y-148234000D01*
X116090000Y-155234000D02*
X109090000Y-155234000D01*
X76809000Y-114510000D02*
X83809000Y-114510000D01*
X83809000Y-107510000D02*
X76809000Y-107510000D01*
X83809000Y-114510000D02*
X83809000Y-107510000D01*
X76809000Y-114510000D02*
X76809000Y-107510000D01*
D14*
X92695000Y-123495000D02*
X92695000Y-126155000D01*
X97835000Y-123495000D02*
X92695000Y-123495000D01*
X97835000Y-126155000D02*
X92695000Y-126155000D01*
X97835000Y-123495000D02*
X97835000Y-126155000D01*
X99105000Y-123495000D02*
X100435000Y-123495000D01*
X100435000Y-123495000D02*
X100435000Y-124825000D01*
X81595000Y-140760000D02*
G75*
G02X83595000Y-140760000I1000000J0D01*
G01*
X83595000Y-140760000D02*
X84845000Y-140760000D01*
X84845000Y-140760000D02*
X84845000Y-133020000D01*
X84845000Y-133020000D02*
X80345000Y-133020000D01*
X80345000Y-133020000D02*
X80345000Y-140760000D01*
X80345000Y-140760000D02*
X81595000Y-140760000D01*
X115555000Y-119170000D02*
X118215000Y-119170000D01*
X115555000Y-116570000D02*
X115555000Y-119170000D01*
X118215000Y-116570000D02*
X118215000Y-119170000D01*
X115555000Y-116570000D02*
X118215000Y-116570000D01*
X115555000Y-115300000D02*
X115555000Y-113970000D01*
X115555000Y-113970000D02*
X116885000Y-113970000D01*
X81519000Y-120948000D02*
X84179000Y-120948000D01*
X81519000Y-118348000D02*
X81519000Y-120948000D01*
X84179000Y-118348000D02*
X84179000Y-120948000D01*
X81519000Y-118348000D02*
X84179000Y-118348000D01*
X81519000Y-117078000D02*
X81519000Y-115748000D01*
X81519000Y-115748000D02*
X82849000Y-115748000D01*
X85604000Y-108180000D02*
X85604000Y-107180000D01*
X83904000Y-107180000D02*
X83904000Y-108180000D01*
X94260000Y-146494000D02*
X95190000Y-146494000D01*
X97420000Y-146494000D02*
X96490000Y-146494000D01*
X97420000Y-146494000D02*
X97420000Y-144334000D01*
X94260000Y-146494000D02*
X94260000Y-145034000D01*
X101760000Y-146494000D02*
X102690000Y-146494000D01*
X104920000Y-146494000D02*
X103990000Y-146494000D01*
X104920000Y-146494000D02*
X104920000Y-144334000D01*
X101760000Y-146494000D02*
X101760000Y-145034000D01*
X118568437Y-126616736D02*
G75*
G03X108770643Y-126620000I-4898437J-1383264D01*
G01*
X118568437Y-129383264D02*
G75*
G02X108770643Y-129380000I-4898437J1383264D01*
G01*
X118568437Y-129383264D02*
G75*
G03X118569357Y-126620000I-4898437J1383264D01*
G01*
X113670000Y-122950000D02*
X113670000Y-133050000D01*
X113710000Y-122950000D02*
X113710000Y-133050000D01*
X113750000Y-122950000D02*
X113750000Y-133050000D01*
X113790000Y-122951000D02*
X113790000Y-133049000D01*
X113830000Y-122952000D02*
X113830000Y-133048000D01*
X113870000Y-122953000D02*
X113870000Y-133047000D01*
X113910000Y-122955000D02*
X113910000Y-133045000D01*
X113950000Y-122957000D02*
X113950000Y-133043000D01*
X113990000Y-122960000D02*
X113990000Y-133040000D01*
X114030000Y-122962000D02*
X114030000Y-133038000D01*
X114070000Y-122965000D02*
X114070000Y-133035000D01*
X114110000Y-122969000D02*
X114110000Y-133031000D01*
X114150000Y-122972000D02*
X114150000Y-133028000D01*
X114190000Y-122976000D02*
X114190000Y-133024000D01*
X114230000Y-122980000D02*
X114230000Y-133020000D01*
X114270000Y-122985000D02*
X114270000Y-133015000D01*
X114310000Y-122990000D02*
X114310000Y-133010000D01*
X114350000Y-122995000D02*
X114350000Y-133005000D01*
X114391000Y-123001000D02*
X114391000Y-132999000D01*
X114431000Y-123007000D02*
X114431000Y-132993000D01*
X114471000Y-123013000D02*
X114471000Y-132987000D01*
X114511000Y-123019000D02*
X114511000Y-132981000D01*
X114551000Y-123026000D02*
X114551000Y-132974000D01*
X114591000Y-123033000D02*
X114591000Y-132967000D01*
X114631000Y-123041000D02*
X114631000Y-132959000D01*
X114671000Y-123049000D02*
X114671000Y-132951000D01*
X114711000Y-123057000D02*
X114711000Y-132943000D01*
X114751000Y-123065000D02*
X114751000Y-132935000D01*
X114791000Y-123074000D02*
X114791000Y-132926000D01*
X114831000Y-123083000D02*
X114831000Y-132917000D01*
X114871000Y-123093000D02*
X114871000Y-132907000D01*
X114911000Y-123103000D02*
X114911000Y-132897000D01*
X114951000Y-123113000D02*
X114951000Y-132887000D01*
X114991000Y-123124000D02*
X114991000Y-126819000D01*
X114991000Y-129181000D02*
X114991000Y-132876000D01*
X115031000Y-123135000D02*
X115031000Y-126819000D01*
X115031000Y-129181000D02*
X115031000Y-132865000D01*
X115071000Y-123146000D02*
X115071000Y-126819000D01*
X115071000Y-129181000D02*
X115071000Y-132854000D01*
X115111000Y-123157000D02*
X115111000Y-126819000D01*
X115111000Y-129181000D02*
X115111000Y-132843000D01*
X115151000Y-123169000D02*
X115151000Y-126819000D01*
X115151000Y-129181000D02*
X115151000Y-132831000D01*
X115191000Y-123182000D02*
X115191000Y-126819000D01*
X115191000Y-129181000D02*
X115191000Y-132818000D01*
X115231000Y-123194000D02*
X115231000Y-126819000D01*
X115231000Y-129181000D02*
X115231000Y-132806000D01*
X115271000Y-123208000D02*
X115271000Y-126819000D01*
X115271000Y-129181000D02*
X115271000Y-132792000D01*
X115311000Y-123221000D02*
X115311000Y-126819000D01*
X115311000Y-129181000D02*
X115311000Y-132779000D01*
X115351000Y-123235000D02*
X115351000Y-126819000D01*
X115351000Y-129181000D02*
X115351000Y-132765000D01*
X115391000Y-123249000D02*
X115391000Y-126819000D01*
X115391000Y-129181000D02*
X115391000Y-132751000D01*
X115431000Y-123263000D02*
X115431000Y-126819000D01*
X115431000Y-129181000D02*
X115431000Y-132737000D01*
X115471000Y-123278000D02*
X115471000Y-126819000D01*
X115471000Y-129181000D02*
X115471000Y-132722000D01*
X115511000Y-123294000D02*
X115511000Y-126819000D01*
X115511000Y-129181000D02*
X115511000Y-132706000D01*
X115551000Y-123309000D02*
X115551000Y-126819000D01*
X115551000Y-129181000D02*
X115551000Y-132691000D01*
X115591000Y-123326000D02*
X115591000Y-126819000D01*
X115591000Y-129181000D02*
X115591000Y-132674000D01*
X115631000Y-123342000D02*
X115631000Y-126819000D01*
X115631000Y-129181000D02*
X115631000Y-132658000D01*
X115671000Y-123359000D02*
X115671000Y-126819000D01*
X115671000Y-129181000D02*
X115671000Y-132641000D01*
X115711000Y-123376000D02*
X115711000Y-126819000D01*
X115711000Y-129181000D02*
X115711000Y-132624000D01*
X115751000Y-123394000D02*
X115751000Y-126819000D01*
X115751000Y-129181000D02*
X115751000Y-132606000D01*
X115791000Y-123412000D02*
X115791000Y-126819000D01*
X115791000Y-129181000D02*
X115791000Y-132588000D01*
X115831000Y-123431000D02*
X115831000Y-126819000D01*
X115831000Y-129181000D02*
X115831000Y-132569000D01*
X115871000Y-123450000D02*
X115871000Y-126819000D01*
X115871000Y-129181000D02*
X115871000Y-132550000D01*
X115911000Y-123469000D02*
X115911000Y-126819000D01*
X115911000Y-129181000D02*
X115911000Y-132531000D01*
X115951000Y-123489000D02*
X115951000Y-126819000D01*
X115951000Y-129181000D02*
X115951000Y-132511000D01*
X115991000Y-123509000D02*
X115991000Y-126819000D01*
X115991000Y-129181000D02*
X115991000Y-132491000D01*
X116031000Y-123530000D02*
X116031000Y-126819000D01*
X116031000Y-129181000D02*
X116031000Y-132470000D01*
X116071000Y-123551000D02*
X116071000Y-126819000D01*
X116071000Y-129181000D02*
X116071000Y-132449000D01*
X116111000Y-123572000D02*
X116111000Y-126819000D01*
X116111000Y-129181000D02*
X116111000Y-132428000D01*
X116151000Y-123595000D02*
X116151000Y-126819000D01*
X116151000Y-129181000D02*
X116151000Y-132405000D01*
X116191000Y-123617000D02*
X116191000Y-126819000D01*
X116191000Y-129181000D02*
X116191000Y-132383000D01*
X116231000Y-123640000D02*
X116231000Y-126819000D01*
X116231000Y-129181000D02*
X116231000Y-132360000D01*
X116271000Y-123664000D02*
X116271000Y-126819000D01*
X116271000Y-129181000D02*
X116271000Y-132336000D01*
X116311000Y-123688000D02*
X116311000Y-126819000D01*
X116311000Y-129181000D02*
X116311000Y-132312000D01*
X116351000Y-123712000D02*
X116351000Y-126819000D01*
X116351000Y-129181000D02*
X116351000Y-132288000D01*
X116391000Y-123737000D02*
X116391000Y-126819000D01*
X116391000Y-129181000D02*
X116391000Y-132263000D01*
X116431000Y-123763000D02*
X116431000Y-126819000D01*
X116431000Y-129181000D02*
X116431000Y-132237000D01*
X116471000Y-123789000D02*
X116471000Y-126819000D01*
X116471000Y-129181000D02*
X116471000Y-132211000D01*
X116511000Y-123815000D02*
X116511000Y-126819000D01*
X116511000Y-129181000D02*
X116511000Y-132185000D01*
X116551000Y-123843000D02*
X116551000Y-126819000D01*
X116551000Y-129181000D02*
X116551000Y-132157000D01*
X116591000Y-123870000D02*
X116591000Y-126819000D01*
X116591000Y-129181000D02*
X116591000Y-132130000D01*
X116631000Y-123899000D02*
X116631000Y-126819000D01*
X116631000Y-129181000D02*
X116631000Y-132101000D01*
X116671000Y-123928000D02*
X116671000Y-126819000D01*
X116671000Y-129181000D02*
X116671000Y-132072000D01*
X116711000Y-123957000D02*
X116711000Y-126819000D01*
X116711000Y-129181000D02*
X116711000Y-132043000D01*
X116751000Y-123987000D02*
X116751000Y-126819000D01*
X116751000Y-129181000D02*
X116751000Y-132013000D01*
X116791000Y-124018000D02*
X116791000Y-126819000D01*
X116791000Y-129181000D02*
X116791000Y-131982000D01*
X116831000Y-124049000D02*
X116831000Y-126819000D01*
X116831000Y-129181000D02*
X116831000Y-131951000D01*
X116871000Y-124081000D02*
X116871000Y-126819000D01*
X116871000Y-129181000D02*
X116871000Y-131919000D01*
X116911000Y-124114000D02*
X116911000Y-126819000D01*
X116911000Y-129181000D02*
X116911000Y-131886000D01*
X116951000Y-124147000D02*
X116951000Y-126819000D01*
X116951000Y-129181000D02*
X116951000Y-131853000D01*
X116991000Y-124181000D02*
X116991000Y-126819000D01*
X116991000Y-129181000D02*
X116991000Y-131819000D01*
X117031000Y-124216000D02*
X117031000Y-126819000D01*
X117031000Y-129181000D02*
X117031000Y-131784000D01*
X117071000Y-124252000D02*
X117071000Y-126819000D01*
X117071000Y-129181000D02*
X117071000Y-131748000D01*
X117111000Y-124288000D02*
X117111000Y-126819000D01*
X117111000Y-129181000D02*
X117111000Y-131712000D01*
X117151000Y-124325000D02*
X117151000Y-126819000D01*
X117151000Y-129181000D02*
X117151000Y-131675000D01*
X117191000Y-124363000D02*
X117191000Y-126819000D01*
X117191000Y-129181000D02*
X117191000Y-131637000D01*
X117231000Y-124402000D02*
X117231000Y-126819000D01*
X117231000Y-129181000D02*
X117231000Y-131598000D01*
X117271000Y-124441000D02*
X117271000Y-126819000D01*
X117271000Y-129181000D02*
X117271000Y-131559000D01*
X117311000Y-124482000D02*
X117311000Y-126819000D01*
X117311000Y-129181000D02*
X117311000Y-131518000D01*
X117351000Y-124523000D02*
X117351000Y-131477000D01*
X117391000Y-124565000D02*
X117391000Y-131435000D01*
X117431000Y-124609000D02*
X117431000Y-131391000D01*
X117471000Y-124653000D02*
X117471000Y-131347000D01*
X117511000Y-124698000D02*
X117511000Y-131302000D01*
X117551000Y-124745000D02*
X117551000Y-131255000D01*
X117591000Y-124793000D02*
X117591000Y-131207000D01*
X117631000Y-124842000D02*
X117631000Y-131158000D01*
X117671000Y-124892000D02*
X117671000Y-131108000D01*
X117711000Y-124943000D02*
X117711000Y-131057000D01*
X117751000Y-124996000D02*
X117751000Y-131004000D01*
X117791000Y-125051000D02*
X117791000Y-130949000D01*
X117831000Y-125106000D02*
X117831000Y-130894000D01*
X117871000Y-125164000D02*
X117871000Y-130836000D01*
X117911000Y-125223000D02*
X117911000Y-130777000D01*
X117951000Y-125285000D02*
X117951000Y-130715000D01*
X117991000Y-125348000D02*
X117991000Y-130652000D01*
X118031000Y-125413000D02*
X118031000Y-130587000D01*
X118071000Y-125481000D02*
X118071000Y-130519000D01*
X118111000Y-125551000D02*
X118111000Y-130449000D01*
X118151000Y-125623000D02*
X118151000Y-130377000D01*
X118191000Y-125699000D02*
X118191000Y-130301000D01*
X118231000Y-125778000D02*
X118231000Y-130222000D01*
X118271000Y-125860000D02*
X118271000Y-130140000D01*
X118311000Y-125947000D02*
X118311000Y-130053000D01*
X118351000Y-126038000D02*
X118351000Y-129962000D01*
X118391000Y-126134000D02*
X118391000Y-129866000D01*
X118431000Y-126237000D02*
X118431000Y-129763000D01*
X118471000Y-126346000D02*
X118471000Y-129654000D01*
X118511000Y-126464000D02*
X118511000Y-129536000D01*
X118551000Y-126593000D02*
X118551000Y-129407000D01*
X118591000Y-126735000D02*
X118591000Y-129265000D01*
X118631000Y-126896000D02*
X118631000Y-129104000D01*
X118671000Y-127087000D02*
X118671000Y-128913000D01*
X118711000Y-127328000D02*
X118711000Y-128672000D01*
X118751000Y-127721000D02*
X118751000Y-128279000D01*
X108470000Y-128000000D02*
X109970000Y-128000000D01*
X109220000Y-127250000D02*
X109220000Y-128750000D01*
X101510000Y-136040000D02*
X100510000Y-136040000D01*
X100510000Y-137740000D02*
X101510000Y-137740000D01*
X103130000Y-130405000D02*
X103130000Y-129405000D01*
X101430000Y-129405000D02*
X101430000Y-130405000D01*
X88430000Y-145484000D02*
X90550000Y-145484000D01*
X88430000Y-142284000D02*
X88430000Y-145484000D01*
X90550000Y-145484000D02*
X90550000Y-142284000D01*
X122980000Y-123600000D02*
X119680000Y-123600000D01*
X119680000Y-123600000D02*
X119680000Y-130500000D01*
X122980000Y-123600000D02*
X122980000Y-130500000D01*
X100965000Y-130920000D02*
X100965000Y-127620000D01*
X100965000Y-127620000D02*
X94065000Y-127620000D01*
X100965000Y-130920000D02*
X94065000Y-130920000D01*
X123995000Y-130925000D02*
X123995000Y-123805000D01*
X130095000Y-130925000D02*
X130095000Y-123805000D01*
D10*
X130545000Y-114185000D02*
X123545000Y-114185000D01*
X123545000Y-121185000D02*
X130545000Y-121185000D01*
X123545000Y-114185000D02*
X123545000Y-121185000D01*
X130545000Y-114185000D02*
X130545000Y-121185000D01*
X92090000Y-155234000D02*
X92090000Y-148234000D01*
X85090000Y-148234000D02*
X85090000Y-155234000D01*
X92090000Y-148234000D02*
X85090000Y-148234000D01*
X92090000Y-155234000D02*
X85090000Y-155234000D01*
X102090000Y-155234000D02*
X102090000Y-148234000D01*
X95090000Y-148234000D02*
X95090000Y-155234000D01*
X102090000Y-148234000D02*
X95090000Y-148234000D01*
X102090000Y-155234000D02*
X95090000Y-155234000D01*
X109090000Y-155234000D02*
X109090000Y-148234000D01*
X102090000Y-148234000D02*
X102090000Y-155234000D01*
X109090000Y-148234000D02*
X102090000Y-148234000D01*
X109090000Y-155234000D02*
X102090000Y-155234000D01*
X126890000Y-155122000D02*
X126890000Y-148122000D01*
X119890000Y-148122000D02*
X119890000Y-155122000D01*
X126890000Y-148122000D02*
X119890000Y-148122000D01*
X126890000Y-155122000D02*
X119890000Y-155122000D01*
X98295000Y-135815000D02*
X92295000Y-135815000D01*
X98295000Y-131615000D02*
X92295000Y-131615000D01*
D14*
X84250000Y-127565000D02*
X86250000Y-127565000D01*
X86250000Y-129705000D02*
X84250000Y-129705000D01*
X86250000Y-132245000D02*
X84250000Y-132245000D01*
X84250000Y-130105000D02*
X86250000Y-130105000D01*
X103115000Y-135985000D02*
X103115000Y-133985000D01*
X105255000Y-133985000D02*
X105255000Y-135985000D01*
X105655000Y-135985000D02*
X105655000Y-133985000D01*
X107795000Y-133985000D02*
X107795000Y-135985000D01*
X100110000Y-135325000D02*
X101910000Y-135325000D01*
X101910000Y-132105000D02*
X99460000Y-132105000D01*
X103470000Y-129034000D02*
X103470000Y-131034000D01*
X105510000Y-131034000D02*
X105510000Y-129034000D01*
X127732157Y-135783521D02*
G75*
G03X122600000Y-135747000I-2592157J-3646479D01*
G01*
X128947105Y-141720818D02*
G75*
G03X128950000Y-137144000I-3807105J2290818D01*
G01*
X122547843Y-143076479D02*
G75*
G03X127680000Y-143113000I2592157J3646479D01*
G01*
X121600000Y-138090000D02*
X121600000Y-141290000D01*
D10*
X111003333Y-142073142D02*
X110955714Y-142120761D01*
X110812857Y-142168380D01*
X110717619Y-142168380D01*
X110574761Y-142120761D01*
X110479523Y-142025523D01*
X110431904Y-141930285D01*
X110384285Y-141739809D01*
X110384285Y-141596952D01*
X110431904Y-141406476D01*
X110479523Y-141311238D01*
X110574761Y-141216000D01*
X110717619Y-141168380D01*
X110812857Y-141168380D01*
X110955714Y-141216000D01*
X111003333Y-141263619D01*
X111955714Y-142168380D02*
X111384285Y-142168380D01*
X111670000Y-142168380D02*
X111670000Y-141168380D01*
X111574761Y-141311238D01*
X111479523Y-141406476D01*
X111384285Y-141454095D01*
X82428333Y-147562380D02*
X82095000Y-147086190D01*
X81856904Y-147562380D02*
X81856904Y-146562380D01*
X82237857Y-146562380D01*
X82333095Y-146610000D01*
X82380714Y-146657619D01*
X82428333Y-146752857D01*
X82428333Y-146895714D01*
X82380714Y-146990952D01*
X82333095Y-147038571D01*
X82237857Y-147086190D01*
X81856904Y-147086190D01*
X83380714Y-147562380D02*
X82809285Y-147562380D01*
X83095000Y-147562380D02*
X83095000Y-146562380D01*
X82999761Y-146705238D01*
X82904523Y-146800476D01*
X82809285Y-146848095D01*
X100248095Y-111704380D02*
X100248095Y-112513904D01*
X100295714Y-112609142D01*
X100343333Y-112656761D01*
X100438571Y-112704380D01*
X100629047Y-112704380D01*
X100724285Y-112656761D01*
X100771904Y-112609142D01*
X100819523Y-112513904D01*
X100819523Y-111704380D01*
X101724285Y-112037714D02*
X101724285Y-112704380D01*
X101486190Y-111656761D02*
X101248095Y-112371047D01*
X101867142Y-112371047D01*
X80692380Y-131022095D02*
X79692380Y-131022095D01*
X79692380Y-130784000D01*
X79740000Y-130641142D01*
X79835238Y-130545904D01*
X79930476Y-130498285D01*
X80120952Y-130450666D01*
X80263809Y-130450666D01*
X80454285Y-130498285D01*
X80549523Y-130545904D01*
X80644761Y-130641142D01*
X80692380Y-130784000D01*
X80692380Y-131022095D01*
X80025714Y-129593523D02*
X80692380Y-129593523D01*
X79644761Y-129831619D02*
X80359047Y-130069714D01*
X80359047Y-129450666D01*
X82406666Y-126236380D02*
X82406666Y-126950666D01*
X82359047Y-127093523D01*
X82263809Y-127188761D01*
X82120952Y-127236380D01*
X82025714Y-127236380D01*
X82882857Y-127236380D02*
X82882857Y-126236380D01*
X83263809Y-126236380D01*
X83359047Y-126284000D01*
X83406666Y-126331619D01*
X83454285Y-126426857D01*
X83454285Y-126569714D01*
X83406666Y-126664952D01*
X83359047Y-126712571D01*
X83263809Y-126760190D01*
X82882857Y-126760190D01*
X84311428Y-126236380D02*
X84120952Y-126236380D01*
X84025714Y-126284000D01*
X83978095Y-126331619D01*
X83882857Y-126474476D01*
X83835238Y-126664952D01*
X83835238Y-127045904D01*
X83882857Y-127141142D01*
X83930476Y-127188761D01*
X84025714Y-127236380D01*
X84216190Y-127236380D01*
X84311428Y-127188761D01*
X84359047Y-127141142D01*
X84406666Y-127045904D01*
X84406666Y-126807809D01*
X84359047Y-126712571D01*
X84311428Y-126664952D01*
X84216190Y-126617333D01*
X84025714Y-126617333D01*
X83930476Y-126664952D01*
X83882857Y-126712571D01*
X83835238Y-126807809D01*
X102288095Y-121737380D02*
X102859523Y-121737380D01*
X102573809Y-122737380D02*
X102573809Y-121737380D01*
X103192857Y-122737380D02*
X103192857Y-121737380D01*
X103573809Y-121737380D01*
X103669047Y-121785000D01*
X103716666Y-121832619D01*
X103764285Y-121927857D01*
X103764285Y-122070714D01*
X103716666Y-122165952D01*
X103669047Y-122213571D01*
X103573809Y-122261190D01*
X103192857Y-122261190D01*
X104145238Y-121832619D02*
X104192857Y-121785000D01*
X104288095Y-121737380D01*
X104526190Y-121737380D01*
X104621428Y-121785000D01*
X104669047Y-121832619D01*
X104716666Y-121927857D01*
X104716666Y-122023095D01*
X104669047Y-122165952D01*
X104097619Y-122737380D01*
X104716666Y-122737380D01*
X95763333Y-144707380D02*
X95430000Y-144231190D01*
X95191904Y-144707380D02*
X95191904Y-143707380D01*
X95572857Y-143707380D01*
X95668095Y-143755000D01*
X95715714Y-143802619D01*
X95763333Y-143897857D01*
X95763333Y-144040714D01*
X95715714Y-144135952D01*
X95668095Y-144183571D01*
X95572857Y-144231190D01*
X95191904Y-144231190D01*
X96334761Y-144135952D02*
X96239523Y-144088333D01*
X96191904Y-144040714D01*
X96144285Y-143945476D01*
X96144285Y-143897857D01*
X96191904Y-143802619D01*
X96239523Y-143755000D01*
X96334761Y-143707380D01*
X96525238Y-143707380D01*
X96620476Y-143755000D01*
X96668095Y-143802619D01*
X96715714Y-143897857D01*
X96715714Y-143945476D01*
X96668095Y-144040714D01*
X96620476Y-144088333D01*
X96525238Y-144135952D01*
X96334761Y-144135952D01*
X96239523Y-144183571D01*
X96191904Y-144231190D01*
X96144285Y-144326428D01*
X96144285Y-144516904D01*
X96191904Y-144612142D01*
X96239523Y-144659761D01*
X96334761Y-144707380D01*
X96525238Y-144707380D01*
X96620476Y-144659761D01*
X96668095Y-144612142D01*
X96715714Y-144516904D01*
X96715714Y-144326428D01*
X96668095Y-144231190D01*
X96620476Y-144183571D01*
X96525238Y-144135952D01*
X102288095Y-121737380D02*
X102859523Y-121737380D01*
X102573809Y-122737380D02*
X102573809Y-121737380D01*
X103192857Y-122737380D02*
X103192857Y-121737380D01*
X103573809Y-121737380D01*
X103669047Y-121785000D01*
X103716666Y-121832619D01*
X103764285Y-121927857D01*
X103764285Y-122070714D01*
X103716666Y-122165952D01*
X103669047Y-122213571D01*
X103573809Y-122261190D01*
X103192857Y-122261190D01*
X104145238Y-121832619D02*
X104192857Y-121785000D01*
X104288095Y-121737380D01*
X104526190Y-121737380D01*
X104621428Y-121785000D01*
X104669047Y-121832619D01*
X104716666Y-121927857D01*
X104716666Y-122023095D01*
X104669047Y-122165952D01*
X104097619Y-122737380D01*
X104716666Y-122737380D01*
X102288095Y-121737380D02*
X102859523Y-121737380D01*
X102573809Y-122737380D02*
X102573809Y-121737380D01*
X103192857Y-122737380D02*
X103192857Y-121737380D01*
X103573809Y-121737380D01*
X103669047Y-121785000D01*
X103716666Y-121832619D01*
X103764285Y-121927857D01*
X103764285Y-122070714D01*
X103716666Y-122165952D01*
X103669047Y-122213571D01*
X103573809Y-122261190D01*
X103192857Y-122261190D01*
X104145238Y-121832619D02*
X104192857Y-121785000D01*
X104288095Y-121737380D01*
X104526190Y-121737380D01*
X104621428Y-121785000D01*
X104669047Y-121832619D01*
X104716666Y-121927857D01*
X104716666Y-122023095D01*
X104669047Y-122165952D01*
X104097619Y-122737380D01*
X104716666Y-122737380D01*
X95763333Y-144707380D02*
X95430000Y-144231190D01*
X95191904Y-144707380D02*
X95191904Y-143707380D01*
X95572857Y-143707380D01*
X95668095Y-143755000D01*
X95715714Y-143802619D01*
X95763333Y-143897857D01*
X95763333Y-144040714D01*
X95715714Y-144135952D01*
X95668095Y-144183571D01*
X95572857Y-144231190D01*
X95191904Y-144231190D01*
X96334761Y-144135952D02*
X96239523Y-144088333D01*
X96191904Y-144040714D01*
X96144285Y-143945476D01*
X96144285Y-143897857D01*
X96191904Y-143802619D01*
X96239523Y-143755000D01*
X96334761Y-143707380D01*
X96525238Y-143707380D01*
X96620476Y-143755000D01*
X96668095Y-143802619D01*
X96715714Y-143897857D01*
X96715714Y-143945476D01*
X96668095Y-144040714D01*
X96620476Y-144088333D01*
X96525238Y-144135952D01*
X96334761Y-144135952D01*
X96239523Y-144183571D01*
X96191904Y-144231190D01*
X96144285Y-144326428D01*
X96144285Y-144516904D01*
X96191904Y-144612142D01*
X96239523Y-144659761D01*
X96334761Y-144707380D01*
X96525238Y-144707380D01*
X96620476Y-144659761D01*
X96668095Y-144612142D01*
X96715714Y-144516904D01*
X96715714Y-144326428D01*
X96668095Y-144231190D01*
X96620476Y-144183571D01*
X96525238Y-144135952D01*
X85078380Y-124832857D02*
X84602190Y-125166190D01*
X85078380Y-125404285D02*
X84078380Y-125404285D01*
X84078380Y-125023333D01*
X84126000Y-124928095D01*
X84173619Y-124880476D01*
X84268857Y-124832857D01*
X84411714Y-124832857D01*
X84506952Y-124880476D01*
X84554571Y-124928095D01*
X84602190Y-125023333D01*
X84602190Y-125404285D01*
X85078380Y-123880476D02*
X85078380Y-124451904D01*
X85078380Y-124166190D02*
X84078380Y-124166190D01*
X84221238Y-124261428D01*
X84316476Y-124356666D01*
X84364095Y-124451904D01*
X84506952Y-123309047D02*
X84459333Y-123404285D01*
X84411714Y-123451904D01*
X84316476Y-123499523D01*
X84268857Y-123499523D01*
X84173619Y-123451904D01*
X84126000Y-123404285D01*
X84078380Y-123309047D01*
X84078380Y-123118571D01*
X84126000Y-123023333D01*
X84173619Y-122975714D01*
X84268857Y-122928095D01*
X84316476Y-122928095D01*
X84411714Y-122975714D01*
X84459333Y-123023333D01*
X84506952Y-123118571D01*
X84506952Y-123309047D01*
X84554571Y-123404285D01*
X84602190Y-123451904D01*
X84697428Y-123499523D01*
X84887904Y-123499523D01*
X84983142Y-123451904D01*
X85030761Y-123404285D01*
X85078380Y-123309047D01*
X85078380Y-123118571D01*
X85030761Y-123023333D01*
X84983142Y-122975714D01*
X84887904Y-122928095D01*
X84697428Y-122928095D01*
X84602190Y-122975714D01*
X84554571Y-123023333D01*
X84506952Y-123118571D01*
X99937380Y-139056857D02*
X99461190Y-139390190D01*
X99937380Y-139628285D02*
X98937380Y-139628285D01*
X98937380Y-139247333D01*
X98985000Y-139152095D01*
X99032619Y-139104476D01*
X99127857Y-139056857D01*
X99270714Y-139056857D01*
X99365952Y-139104476D01*
X99413571Y-139152095D01*
X99461190Y-139247333D01*
X99461190Y-139628285D01*
X99937380Y-138104476D02*
X99937380Y-138675904D01*
X99937380Y-138390190D02*
X98937380Y-138390190D01*
X99080238Y-138485428D01*
X99175476Y-138580666D01*
X99223095Y-138675904D01*
X98937380Y-137771142D02*
X98937380Y-137152095D01*
X99318333Y-137485428D01*
X99318333Y-137342571D01*
X99365952Y-137247333D01*
X99413571Y-137199714D01*
X99508809Y-137152095D01*
X99746904Y-137152095D01*
X99842142Y-137199714D01*
X99889761Y-137247333D01*
X99937380Y-137342571D01*
X99937380Y-137628285D01*
X99889761Y-137723523D01*
X99842142Y-137771142D01*
X102907142Y-144707380D02*
X102573809Y-144231190D01*
X102335714Y-144707380D02*
X102335714Y-143707380D01*
X102716666Y-143707380D01*
X102811904Y-143755000D01*
X102859523Y-143802619D01*
X102907142Y-143897857D01*
X102907142Y-144040714D01*
X102859523Y-144135952D01*
X102811904Y-144183571D01*
X102716666Y-144231190D01*
X102335714Y-144231190D01*
X103859523Y-144707380D02*
X103288095Y-144707380D01*
X103573809Y-144707380D02*
X103573809Y-143707380D01*
X103478571Y-143850238D01*
X103383333Y-143945476D01*
X103288095Y-143993095D01*
X104240476Y-143802619D02*
X104288095Y-143755000D01*
X104383333Y-143707380D01*
X104621428Y-143707380D01*
X104716666Y-143755000D01*
X104764285Y-143802619D01*
X104811904Y-143897857D01*
X104811904Y-143993095D01*
X104764285Y-144135952D01*
X104192857Y-144707380D01*
X104811904Y-144707380D01*
X84797142Y-115086380D02*
X84463809Y-114610190D01*
X84225714Y-115086380D02*
X84225714Y-114086380D01*
X84606666Y-114086380D01*
X84701904Y-114134000D01*
X84749523Y-114181619D01*
X84797142Y-114276857D01*
X84797142Y-114419714D01*
X84749523Y-114514952D01*
X84701904Y-114562571D01*
X84606666Y-114610190D01*
X84225714Y-114610190D01*
X85749523Y-115086380D02*
X85178095Y-115086380D01*
X85463809Y-115086380D02*
X85463809Y-114086380D01*
X85368571Y-114229238D01*
X85273333Y-114324476D01*
X85178095Y-114372095D01*
X86701904Y-115086380D02*
X86130476Y-115086380D01*
X86416190Y-115086380D02*
X86416190Y-114086380D01*
X86320952Y-114229238D01*
X86225714Y-114324476D01*
X86130476Y-114372095D01*
X115597142Y-109486380D02*
X115263809Y-109010190D01*
X115025714Y-109486380D02*
X115025714Y-108486380D01*
X115406666Y-108486380D01*
X115501904Y-108534000D01*
X115549523Y-108581619D01*
X115597142Y-108676857D01*
X115597142Y-108819714D01*
X115549523Y-108914952D01*
X115501904Y-108962571D01*
X115406666Y-109010190D01*
X115025714Y-109010190D01*
X116549523Y-109486380D02*
X115978095Y-109486380D01*
X116263809Y-109486380D02*
X116263809Y-108486380D01*
X116168571Y-108629238D01*
X116073333Y-108724476D01*
X115978095Y-108772095D01*
X117454285Y-108486380D02*
X116978095Y-108486380D01*
X116930476Y-108962571D01*
X116978095Y-108914952D01*
X117073333Y-108867333D01*
X117311428Y-108867333D01*
X117406666Y-108914952D01*
X117454285Y-108962571D01*
X117501904Y-109057809D01*
X117501904Y-109295904D01*
X117454285Y-109391142D01*
X117406666Y-109438761D01*
X117311428Y-109486380D01*
X117073333Y-109486380D01*
X116978095Y-109438761D01*
X116930476Y-109391142D01*
X84797142Y-117486380D02*
X84463809Y-117010190D01*
X84225714Y-117486380D02*
X84225714Y-116486380D01*
X84606666Y-116486380D01*
X84701904Y-116534000D01*
X84749523Y-116581619D01*
X84797142Y-116676857D01*
X84797142Y-116819714D01*
X84749523Y-116914952D01*
X84701904Y-116962571D01*
X84606666Y-117010190D01*
X84225714Y-117010190D01*
X85749523Y-117486380D02*
X85178095Y-117486380D01*
X85463809Y-117486380D02*
X85463809Y-116486380D01*
X85368571Y-116629238D01*
X85273333Y-116724476D01*
X85178095Y-116772095D01*
X86368571Y-116486380D02*
X86463809Y-116486380D01*
X86559047Y-116534000D01*
X86606666Y-116581619D01*
X86654285Y-116676857D01*
X86701904Y-116867333D01*
X86701904Y-117105428D01*
X86654285Y-117295904D01*
X86606666Y-117391142D01*
X86559047Y-117438761D01*
X86463809Y-117486380D01*
X86368571Y-117486380D01*
X86273333Y-117438761D01*
X86225714Y-117391142D01*
X86178095Y-117295904D01*
X86130476Y-117105428D01*
X86130476Y-116867333D01*
X86178095Y-116676857D01*
X86225714Y-116581619D01*
X86273333Y-116534000D01*
X86368571Y-116486380D01*
X84797142Y-110586380D02*
X84463809Y-110110190D01*
X84225714Y-110586380D02*
X84225714Y-109586380D01*
X84606666Y-109586380D01*
X84701904Y-109634000D01*
X84749523Y-109681619D01*
X84797142Y-109776857D01*
X84797142Y-109919714D01*
X84749523Y-110014952D01*
X84701904Y-110062571D01*
X84606666Y-110110190D01*
X84225714Y-110110190D01*
X85749523Y-110586380D02*
X85178095Y-110586380D01*
X85463809Y-110586380D02*
X85463809Y-109586380D01*
X85368571Y-109729238D01*
X85273333Y-109824476D01*
X85178095Y-109872095D01*
X86606666Y-109586380D02*
X86416190Y-109586380D01*
X86320952Y-109634000D01*
X86273333Y-109681619D01*
X86178095Y-109824476D01*
X86130476Y-110014952D01*
X86130476Y-110395904D01*
X86178095Y-110491142D01*
X86225714Y-110538761D01*
X86320952Y-110586380D01*
X86511428Y-110586380D01*
X86606666Y-110538761D01*
X86654285Y-110491142D01*
X86701904Y-110395904D01*
X86701904Y-110157809D01*
X86654285Y-110062571D01*
X86606666Y-110014952D01*
X86511428Y-109967333D01*
X86320952Y-109967333D01*
X86225714Y-110014952D01*
X86178095Y-110062571D01*
X86130476Y-110157809D01*
X96762380Y-138580666D02*
X96286190Y-138914000D01*
X96762380Y-139152095D02*
X95762380Y-139152095D01*
X95762380Y-138771142D01*
X95810000Y-138675904D01*
X95857619Y-138628285D01*
X95952857Y-138580666D01*
X96095714Y-138580666D01*
X96190952Y-138628285D01*
X96238571Y-138675904D01*
X96286190Y-138771142D01*
X96286190Y-139152095D01*
X96762380Y-138104476D02*
X96762380Y-137914000D01*
X96714761Y-137818761D01*
X96667142Y-137771142D01*
X96524285Y-137675904D01*
X96333809Y-137628285D01*
X95952857Y-137628285D01*
X95857619Y-137675904D01*
X95810000Y-137723523D01*
X95762380Y-137818761D01*
X95762380Y-138009238D01*
X95810000Y-138104476D01*
X95857619Y-138152095D01*
X95952857Y-138199714D01*
X96190952Y-138199714D01*
X96286190Y-138152095D01*
X96333809Y-138104476D01*
X96381428Y-138009238D01*
X96381428Y-137818761D01*
X96333809Y-137723523D01*
X96286190Y-137675904D01*
X96190952Y-137628285D01*
X95763333Y-144707380D02*
X95430000Y-144231190D01*
X95191904Y-144707380D02*
X95191904Y-143707380D01*
X95572857Y-143707380D01*
X95668095Y-143755000D01*
X95715714Y-143802619D01*
X95763333Y-143897857D01*
X95763333Y-144040714D01*
X95715714Y-144135952D01*
X95668095Y-144183571D01*
X95572857Y-144231190D01*
X95191904Y-144231190D01*
X96334761Y-144135952D02*
X96239523Y-144088333D01*
X96191904Y-144040714D01*
X96144285Y-143945476D01*
X96144285Y-143897857D01*
X96191904Y-143802619D01*
X96239523Y-143755000D01*
X96334761Y-143707380D01*
X96525238Y-143707380D01*
X96620476Y-143755000D01*
X96668095Y-143802619D01*
X96715714Y-143897857D01*
X96715714Y-143945476D01*
X96668095Y-144040714D01*
X96620476Y-144088333D01*
X96525238Y-144135952D01*
X96334761Y-144135952D01*
X96239523Y-144183571D01*
X96191904Y-144231190D01*
X96144285Y-144326428D01*
X96144285Y-144516904D01*
X96191904Y-144612142D01*
X96239523Y-144659761D01*
X96334761Y-144707380D01*
X96525238Y-144707380D01*
X96620476Y-144659761D01*
X96668095Y-144612142D01*
X96715714Y-144516904D01*
X96715714Y-144326428D01*
X96668095Y-144231190D01*
X96620476Y-144183571D01*
X96525238Y-144135952D01*
X111877380Y-116736666D02*
X111401190Y-117070000D01*
X111877380Y-117308095D02*
X110877380Y-117308095D01*
X110877380Y-116927142D01*
X110925000Y-116831904D01*
X110972619Y-116784285D01*
X111067857Y-116736666D01*
X111210714Y-116736666D01*
X111305952Y-116784285D01*
X111353571Y-116831904D01*
X111401190Y-116927142D01*
X111401190Y-117308095D01*
X110877380Y-116403333D02*
X110877380Y-115736666D01*
X111877380Y-116165238D01*
X85773333Y-105586380D02*
X85440000Y-105110190D01*
X85201904Y-105586380D02*
X85201904Y-104586380D01*
X85582857Y-104586380D01*
X85678095Y-104634000D01*
X85725714Y-104681619D01*
X85773333Y-104776857D01*
X85773333Y-104919714D01*
X85725714Y-105014952D01*
X85678095Y-105062571D01*
X85582857Y-105110190D01*
X85201904Y-105110190D01*
X86630476Y-104586380D02*
X86440000Y-104586380D01*
X86344761Y-104634000D01*
X86297142Y-104681619D01*
X86201904Y-104824476D01*
X86154285Y-105014952D01*
X86154285Y-105395904D01*
X86201904Y-105491142D01*
X86249523Y-105538761D01*
X86344761Y-105586380D01*
X86535238Y-105586380D01*
X86630476Y-105538761D01*
X86678095Y-105491142D01*
X86725714Y-105395904D01*
X86725714Y-105157809D01*
X86678095Y-105062571D01*
X86630476Y-105014952D01*
X86535238Y-104967333D01*
X86344761Y-104967333D01*
X86249523Y-105014952D01*
X86201904Y-105062571D01*
X86154285Y-105157809D01*
X87667142Y-102037380D02*
X87333809Y-101561190D01*
X87095714Y-102037380D02*
X87095714Y-101037380D01*
X87476666Y-101037380D01*
X87571904Y-101085000D01*
X87619523Y-101132619D01*
X87667142Y-101227857D01*
X87667142Y-101370714D01*
X87619523Y-101465952D01*
X87571904Y-101513571D01*
X87476666Y-101561190D01*
X87095714Y-101561190D01*
X88619523Y-102037380D02*
X88048095Y-102037380D01*
X88333809Y-102037380D02*
X88333809Y-101037380D01*
X88238571Y-101180238D01*
X88143333Y-101275476D01*
X88048095Y-101323095D01*
X89476666Y-101370714D02*
X89476666Y-102037380D01*
X89238571Y-100989761D02*
X89000476Y-101704047D01*
X89619523Y-101704047D01*
X84697142Y-111986380D02*
X84363809Y-111510190D01*
X84125714Y-111986380D02*
X84125714Y-110986380D01*
X84506666Y-110986380D01*
X84601904Y-111034000D01*
X84649523Y-111081619D01*
X84697142Y-111176857D01*
X84697142Y-111319714D01*
X84649523Y-111414952D01*
X84601904Y-111462571D01*
X84506666Y-111510190D01*
X84125714Y-111510190D01*
X85649523Y-111986380D02*
X85078095Y-111986380D01*
X85363809Y-111986380D02*
X85363809Y-110986380D01*
X85268571Y-111129238D01*
X85173333Y-111224476D01*
X85078095Y-111272095D01*
X85982857Y-110986380D02*
X86649523Y-110986380D01*
X86220952Y-111986380D01*
X91192380Y-140367333D02*
X91906666Y-140367333D01*
X92049523Y-140414952D01*
X92144761Y-140510190D01*
X92192380Y-140653047D01*
X92192380Y-140748285D01*
X92192380Y-139891142D02*
X91192380Y-139891142D01*
X91192380Y-139510190D01*
X91240000Y-139414952D01*
X91287619Y-139367333D01*
X91382857Y-139319714D01*
X91525714Y-139319714D01*
X91620952Y-139367333D01*
X91668571Y-139414952D01*
X91716190Y-139510190D01*
X91716190Y-139891142D01*
X91192380Y-138986380D02*
X91192380Y-138319714D01*
X92192380Y-138748285D01*
X110906666Y-145986380D02*
X110906666Y-146700666D01*
X110859047Y-146843523D01*
X110763809Y-146938761D01*
X110620952Y-146986380D01*
X110525714Y-146986380D01*
X111382857Y-146986380D02*
X111382857Y-145986380D01*
X111763809Y-145986380D01*
X111859047Y-146034000D01*
X111906666Y-146081619D01*
X111954285Y-146176857D01*
X111954285Y-146319714D01*
X111906666Y-146414952D01*
X111859047Y-146462571D01*
X111763809Y-146510190D01*
X111382857Y-146510190D01*
X112525714Y-146414952D02*
X112430476Y-146367333D01*
X112382857Y-146319714D01*
X112335238Y-146224476D01*
X112335238Y-146176857D01*
X112382857Y-146081619D01*
X112430476Y-146034000D01*
X112525714Y-145986380D01*
X112716190Y-145986380D01*
X112811428Y-146034000D01*
X112859047Y-146081619D01*
X112906666Y-146176857D01*
X112906666Y-146224476D01*
X112859047Y-146319714D01*
X112811428Y-146367333D01*
X112716190Y-146414952D01*
X112525714Y-146414952D01*
X112430476Y-146462571D01*
X112382857Y-146510190D01*
X112335238Y-146605428D01*
X112335238Y-146795904D01*
X112382857Y-146891142D01*
X112430476Y-146938761D01*
X112525714Y-146986380D01*
X112716190Y-146986380D01*
X112811428Y-146938761D01*
X112859047Y-146891142D01*
X112906666Y-146795904D01*
X112906666Y-146605428D01*
X112859047Y-146510190D01*
X112811428Y-146462571D01*
X112716190Y-146414952D01*
X88008476Y-127706380D02*
X88008476Y-128420666D01*
X87960857Y-128563523D01*
X87865619Y-128658761D01*
X87722761Y-128706380D01*
X87627523Y-128706380D01*
X89008476Y-128706380D02*
X88437047Y-128706380D01*
X88722761Y-128706380D02*
X88722761Y-127706380D01*
X88627523Y-127849238D01*
X88532285Y-127944476D01*
X88437047Y-127992095D01*
X89627523Y-127706380D02*
X89722761Y-127706380D01*
X89818000Y-127754000D01*
X89865619Y-127801619D01*
X89913238Y-127896857D01*
X89960857Y-128087333D01*
X89960857Y-128325428D01*
X89913238Y-128515904D01*
X89865619Y-128611142D01*
X89818000Y-128658761D01*
X89722761Y-128706380D01*
X89627523Y-128706380D01*
X89532285Y-128658761D01*
X89484666Y-128611142D01*
X89437047Y-128515904D01*
X89389428Y-128325428D01*
X89389428Y-128087333D01*
X89437047Y-127896857D01*
X89484666Y-127801619D01*
X89532285Y-127754000D01*
X89627523Y-127706380D01*
X119506666Y-107286380D02*
X119506666Y-108000666D01*
X119459047Y-108143523D01*
X119363809Y-108238761D01*
X119220952Y-108286380D01*
X119125714Y-108286380D01*
X119887619Y-107286380D02*
X120506666Y-107286380D01*
X120173333Y-107667333D01*
X120316190Y-107667333D01*
X120411428Y-107714952D01*
X120459047Y-107762571D01*
X120506666Y-107857809D01*
X120506666Y-108095904D01*
X120459047Y-108191142D01*
X120411428Y-108238761D01*
X120316190Y-108286380D01*
X120030476Y-108286380D01*
X119935238Y-108238761D01*
X119887619Y-108191142D01*
X112101666Y-149281380D02*
X112101666Y-149995666D01*
X112054047Y-150138523D01*
X111958809Y-150233761D01*
X111815952Y-150281380D01*
X111720714Y-150281380D01*
X113054047Y-149281380D02*
X112577857Y-149281380D01*
X112530238Y-149757571D01*
X112577857Y-149709952D01*
X112673095Y-149662333D01*
X112911190Y-149662333D01*
X113006428Y-149709952D01*
X113054047Y-149757571D01*
X113101666Y-149852809D01*
X113101666Y-150090904D01*
X113054047Y-150186142D01*
X113006428Y-150233761D01*
X112911190Y-150281380D01*
X112673095Y-150281380D01*
X112577857Y-150233761D01*
X112530238Y-150186142D01*
X82047380Y-110807333D02*
X82761666Y-110807333D01*
X82904523Y-110854952D01*
X82999761Y-110950190D01*
X83047380Y-111093047D01*
X83047380Y-111188285D01*
X82475952Y-110188285D02*
X82428333Y-110283523D01*
X82380714Y-110331142D01*
X82285476Y-110378761D01*
X82237857Y-110378761D01*
X82142619Y-110331142D01*
X82095000Y-110283523D01*
X82047380Y-110188285D01*
X82047380Y-109997809D01*
X82095000Y-109902571D01*
X82142619Y-109854952D01*
X82237857Y-109807333D01*
X82285476Y-109807333D01*
X82380714Y-109854952D01*
X82428333Y-109902571D01*
X82475952Y-109997809D01*
X82475952Y-110188285D01*
X82523571Y-110283523D01*
X82571190Y-110331142D01*
X82666428Y-110378761D01*
X82856904Y-110378761D01*
X82952142Y-110331142D01*
X82999761Y-110283523D01*
X83047380Y-110188285D01*
X83047380Y-109997809D01*
X82999761Y-109902571D01*
X82952142Y-109854952D01*
X82856904Y-109807333D01*
X82666428Y-109807333D01*
X82571190Y-109854952D01*
X82523571Y-109902571D01*
X82475952Y-109997809D01*
X100887380Y-125586904D02*
X101696904Y-125586904D01*
X101792142Y-125539285D01*
X101839761Y-125491666D01*
X101887380Y-125396428D01*
X101887380Y-125205952D01*
X101839761Y-125110714D01*
X101792142Y-125063095D01*
X101696904Y-125015476D01*
X100887380Y-125015476D01*
X100982619Y-124586904D02*
X100935000Y-124539285D01*
X100887380Y-124444047D01*
X100887380Y-124205952D01*
X100935000Y-124110714D01*
X100982619Y-124063095D01*
X101077857Y-124015476D01*
X101173095Y-124015476D01*
X101315952Y-124063095D01*
X101887380Y-124634523D01*
X101887380Y-124015476D01*
X81833095Y-141212380D02*
X81833095Y-142021904D01*
X81880714Y-142117142D01*
X81928333Y-142164761D01*
X82023571Y-142212380D01*
X82214047Y-142212380D01*
X82309285Y-142164761D01*
X82356904Y-142117142D01*
X82404523Y-142021904D01*
X82404523Y-141212380D01*
X83404523Y-142212380D02*
X82833095Y-142212380D01*
X83118809Y-142212380D02*
X83118809Y-141212380D01*
X83023571Y-141355238D01*
X82928333Y-141450476D01*
X82833095Y-141498095D01*
X116051666Y-112422380D02*
X116051666Y-113136666D01*
X116004047Y-113279523D01*
X115908809Y-113374761D01*
X115765952Y-113422380D01*
X115670714Y-113422380D01*
X116527857Y-113422380D02*
X116527857Y-112422380D01*
X116908809Y-112422380D01*
X117004047Y-112470000D01*
X117051666Y-112517619D01*
X117099285Y-112612857D01*
X117099285Y-112755714D01*
X117051666Y-112850952D01*
X117004047Y-112898571D01*
X116908809Y-112946190D01*
X116527857Y-112946190D01*
X118004047Y-112422380D02*
X117527857Y-112422380D01*
X117480238Y-112898571D01*
X117527857Y-112850952D01*
X117623095Y-112803333D01*
X117861190Y-112803333D01*
X117956428Y-112850952D01*
X118004047Y-112898571D01*
X118051666Y-112993809D01*
X118051666Y-113231904D01*
X118004047Y-113327142D01*
X117956428Y-113374761D01*
X117861190Y-113422380D01*
X117623095Y-113422380D01*
X117527857Y-113374761D01*
X117480238Y-113327142D01*
X78840666Y-119832380D02*
X78840666Y-120546666D01*
X78793047Y-120689523D01*
X78697809Y-120784761D01*
X78554952Y-120832380D01*
X78459714Y-120832380D01*
X79316857Y-120832380D02*
X79316857Y-119832380D01*
X79697809Y-119832380D01*
X79793047Y-119880000D01*
X79840666Y-119927619D01*
X79888285Y-120022857D01*
X79888285Y-120165714D01*
X79840666Y-120260952D01*
X79793047Y-120308571D01*
X79697809Y-120356190D01*
X79316857Y-120356190D01*
X80745428Y-120165714D02*
X80745428Y-120832380D01*
X80507333Y-119784761D02*
X80269238Y-120499047D01*
X80888285Y-120499047D01*
X83587142Y-106322666D02*
X83634761Y-106370285D01*
X83682380Y-106513142D01*
X83682380Y-106608380D01*
X83634761Y-106751238D01*
X83539523Y-106846476D01*
X83444285Y-106894095D01*
X83253809Y-106941714D01*
X83110952Y-106941714D01*
X82920476Y-106894095D01*
X82825238Y-106846476D01*
X82730000Y-106751238D01*
X82682380Y-106608380D01*
X82682380Y-106513142D01*
X82730000Y-106370285D01*
X82777619Y-106322666D01*
X83015714Y-105465523D02*
X83682380Y-105465523D01*
X82634761Y-105703619D02*
X83349047Y-105941714D01*
X83349047Y-105322666D01*
X98887619Y-145829238D02*
X98840000Y-145924476D01*
X98744761Y-146019714D01*
X98601904Y-146162571D01*
X98554285Y-146257809D01*
X98554285Y-146353047D01*
X98792380Y-146305428D02*
X98744761Y-146400666D01*
X98649523Y-146495904D01*
X98459047Y-146543523D01*
X98125714Y-146543523D01*
X97935238Y-146495904D01*
X97840000Y-146400666D01*
X97792380Y-146305428D01*
X97792380Y-146114952D01*
X97840000Y-146019714D01*
X97935238Y-145924476D01*
X98125714Y-145876857D01*
X98459047Y-145876857D01*
X98649523Y-145924476D01*
X98744761Y-146019714D01*
X98792380Y-146114952D01*
X98792380Y-146305428D01*
X98792380Y-144924476D02*
X98792380Y-145495904D01*
X98792380Y-145210190D02*
X97792380Y-145210190D01*
X97935238Y-145305428D01*
X98030476Y-145400666D01*
X98078095Y-145495904D01*
X106387619Y-145829238D02*
X106340000Y-145924476D01*
X106244761Y-146019714D01*
X106101904Y-146162571D01*
X106054285Y-146257809D01*
X106054285Y-146353047D01*
X106292380Y-146305428D02*
X106244761Y-146400666D01*
X106149523Y-146495904D01*
X105959047Y-146543523D01*
X105625714Y-146543523D01*
X105435238Y-146495904D01*
X105340000Y-146400666D01*
X105292380Y-146305428D01*
X105292380Y-146114952D01*
X105340000Y-146019714D01*
X105435238Y-145924476D01*
X105625714Y-145876857D01*
X105959047Y-145876857D01*
X106149523Y-145924476D01*
X106244761Y-146019714D01*
X106292380Y-146114952D01*
X106292380Y-146305428D01*
X105387619Y-145495904D02*
X105340000Y-145448285D01*
X105292380Y-145353047D01*
X105292380Y-145114952D01*
X105340000Y-145019714D01*
X105387619Y-144972095D01*
X105482857Y-144924476D01*
X105578095Y-144924476D01*
X105720952Y-144972095D01*
X106292380Y-145543523D01*
X106292380Y-144924476D01*
X115678095Y-103186380D02*
X116249523Y-103186380D01*
X115963809Y-104186380D02*
X115963809Y-103186380D01*
X116582857Y-104186380D02*
X116582857Y-103186380D01*
X116963809Y-103186380D01*
X117059047Y-103234000D01*
X117106666Y-103281619D01*
X117154285Y-103376857D01*
X117154285Y-103519714D01*
X117106666Y-103614952D01*
X117059047Y-103662571D01*
X116963809Y-103710190D01*
X116582857Y-103710190D01*
X118106666Y-104186380D02*
X117535238Y-104186380D01*
X117820952Y-104186380D02*
X117820952Y-103186380D01*
X117725714Y-103329238D01*
X117630476Y-103424476D01*
X117535238Y-103472095D01*
X102288095Y-121737380D02*
X102859523Y-121737380D01*
X102573809Y-122737380D02*
X102573809Y-121737380D01*
X103192857Y-122737380D02*
X103192857Y-121737380D01*
X103573809Y-121737380D01*
X103669047Y-121785000D01*
X103716666Y-121832619D01*
X103764285Y-121927857D01*
X103764285Y-122070714D01*
X103716666Y-122165952D01*
X103669047Y-122213571D01*
X103573809Y-122261190D01*
X103192857Y-122261190D01*
X104145238Y-121832619D02*
X104192857Y-121785000D01*
X104288095Y-121737380D01*
X104526190Y-121737380D01*
X104621428Y-121785000D01*
X104669047Y-121832619D01*
X104716666Y-121927857D01*
X104716666Y-122023095D01*
X104669047Y-122165952D01*
X104097619Y-122737380D01*
X104716666Y-122737380D01*
X111003333Y-130897142D02*
X110955714Y-130944761D01*
X110812857Y-130992380D01*
X110717619Y-130992380D01*
X110574761Y-130944761D01*
X110479523Y-130849523D01*
X110431904Y-130754285D01*
X110384285Y-130563809D01*
X110384285Y-130420952D01*
X110431904Y-130230476D01*
X110479523Y-130135238D01*
X110574761Y-130040000D01*
X110717619Y-129992380D01*
X110812857Y-129992380D01*
X110955714Y-130040000D01*
X111003333Y-130087619D01*
X111384285Y-130087619D02*
X111431904Y-130040000D01*
X111527142Y-129992380D01*
X111765238Y-129992380D01*
X111860476Y-130040000D01*
X111908095Y-130087619D01*
X111955714Y-130182857D01*
X111955714Y-130278095D01*
X111908095Y-130420952D01*
X111336666Y-130992380D01*
X111955714Y-130992380D01*
X101605333Y-138771142D02*
X101557714Y-138818761D01*
X101414857Y-138866380D01*
X101319619Y-138866380D01*
X101176761Y-138818761D01*
X101081523Y-138723523D01*
X101033904Y-138628285D01*
X100986285Y-138437809D01*
X100986285Y-138294952D01*
X101033904Y-138104476D01*
X101081523Y-138009238D01*
X101176761Y-137914000D01*
X101319619Y-137866380D01*
X101414857Y-137866380D01*
X101557714Y-137914000D01*
X101605333Y-137961619D01*
X101938666Y-137866380D02*
X102557714Y-137866380D01*
X102224380Y-138247333D01*
X102367238Y-138247333D01*
X102462476Y-138294952D01*
X102510095Y-138342571D01*
X102557714Y-138437809D01*
X102557714Y-138675904D01*
X102510095Y-138771142D01*
X102462476Y-138818761D01*
X102367238Y-138866380D01*
X102081523Y-138866380D01*
X101986285Y-138818761D01*
X101938666Y-138771142D01*
X102847142Y-127200666D02*
X102894761Y-127248285D01*
X102942380Y-127391142D01*
X102942380Y-127486380D01*
X102894761Y-127629238D01*
X102799523Y-127724476D01*
X102704285Y-127772095D01*
X102513809Y-127819714D01*
X102370952Y-127819714D01*
X102180476Y-127772095D01*
X102085238Y-127724476D01*
X101990000Y-127629238D01*
X101942380Y-127486380D01*
X101942380Y-127391142D01*
X101990000Y-127248285D01*
X102037619Y-127200666D01*
X101942380Y-126295904D02*
X101942380Y-126772095D01*
X102418571Y-126819714D01*
X102370952Y-126772095D01*
X102323333Y-126676857D01*
X102323333Y-126438761D01*
X102370952Y-126343523D01*
X102418571Y-126295904D01*
X102513809Y-126248285D01*
X102751904Y-126248285D01*
X102847142Y-126295904D01*
X102894761Y-126343523D01*
X102942380Y-126438761D01*
X102942380Y-126676857D01*
X102894761Y-126772095D01*
X102847142Y-126819714D01*
X89942380Y-144022095D02*
X88942380Y-144022095D01*
X88942380Y-143784000D01*
X88990000Y-143641142D01*
X89085238Y-143545904D01*
X89180476Y-143498285D01*
X89370952Y-143450666D01*
X89513809Y-143450666D01*
X89704285Y-143498285D01*
X89799523Y-143545904D01*
X89894761Y-143641142D01*
X89942380Y-143784000D01*
X89942380Y-144022095D01*
X89037619Y-143069714D02*
X88990000Y-143022095D01*
X88942380Y-142926857D01*
X88942380Y-142688761D01*
X88990000Y-142593523D01*
X89037619Y-142545904D01*
X89132857Y-142498285D01*
X89228095Y-142498285D01*
X89370952Y-142545904D01*
X89942380Y-143117333D01*
X89942380Y-142498285D01*
X121782380Y-123150095D02*
X120782380Y-123150095D01*
X120782380Y-122912000D01*
X120830000Y-122769142D01*
X120925238Y-122673904D01*
X121020476Y-122626285D01*
X121210952Y-122578666D01*
X121353809Y-122578666D01*
X121544285Y-122626285D01*
X121639523Y-122673904D01*
X121734761Y-122769142D01*
X121782380Y-122912000D01*
X121782380Y-123150095D01*
X120782380Y-122245333D02*
X120782380Y-121626285D01*
X121163333Y-121959619D01*
X121163333Y-121816761D01*
X121210952Y-121721523D01*
X121258571Y-121673904D01*
X121353809Y-121626285D01*
X121591904Y-121626285D01*
X121687142Y-121673904D01*
X121734761Y-121721523D01*
X121782380Y-121816761D01*
X121782380Y-122102476D01*
X121734761Y-122197714D01*
X121687142Y-122245333D01*
X95874380Y-134580095D02*
X94874380Y-134580095D01*
X94874380Y-134342000D01*
X94922000Y-134199142D01*
X95017238Y-134103904D01*
X95112476Y-134056285D01*
X95302952Y-134008666D01*
X95445809Y-134008666D01*
X95636285Y-134056285D01*
X95731523Y-134103904D01*
X95826761Y-134199142D01*
X95874380Y-134342000D01*
X95874380Y-134580095D01*
X94874380Y-133103904D02*
X94874380Y-133580095D01*
X95350571Y-133627714D01*
X95302952Y-133580095D01*
X95255333Y-133484857D01*
X95255333Y-133246761D01*
X95302952Y-133151523D01*
X95350571Y-133103904D01*
X95445809Y-133056285D01*
X95683904Y-133056285D01*
X95779142Y-133103904D01*
X95826761Y-133151523D01*
X95874380Y-133246761D01*
X95874380Y-133484857D01*
X95826761Y-133580095D01*
X95779142Y-133627714D01*
X122843571Y-127698333D02*
X122843571Y-128031666D01*
X123367380Y-128031666D02*
X122367380Y-128031666D01*
X122367380Y-127555476D01*
X123367380Y-126650714D02*
X123367380Y-127222142D01*
X123367380Y-126936428D02*
X122367380Y-126936428D01*
X122510238Y-127031666D01*
X122605476Y-127126904D01*
X122653095Y-127222142D01*
X122052380Y-118427333D02*
X122766666Y-118427333D01*
X122909523Y-118474952D01*
X123004761Y-118570190D01*
X123052380Y-118713047D01*
X123052380Y-118808285D01*
X123052380Y-117427333D02*
X123052380Y-117998761D01*
X123052380Y-117713047D02*
X122052380Y-117713047D01*
X122195238Y-117808285D01*
X122290476Y-117903523D01*
X122338095Y-117998761D01*
X88101666Y-149281380D02*
X88101666Y-149995666D01*
X88054047Y-150138523D01*
X87958809Y-150233761D01*
X87815952Y-150281380D01*
X87720714Y-150281380D01*
X88530238Y-149376619D02*
X88577857Y-149329000D01*
X88673095Y-149281380D01*
X88911190Y-149281380D01*
X89006428Y-149329000D01*
X89054047Y-149376619D01*
X89101666Y-149471857D01*
X89101666Y-149567095D01*
X89054047Y-149709952D01*
X88482619Y-150281380D01*
X89101666Y-150281380D01*
X98101666Y-149281380D02*
X98101666Y-149995666D01*
X98054047Y-150138523D01*
X97958809Y-150233761D01*
X97815952Y-150281380D01*
X97720714Y-150281380D01*
X99006428Y-149614714D02*
X99006428Y-150281380D01*
X98768333Y-149233761D02*
X98530238Y-149948047D01*
X99149285Y-149948047D01*
X105101666Y-149281380D02*
X105101666Y-149995666D01*
X105054047Y-150138523D01*
X104958809Y-150233761D01*
X104815952Y-150281380D01*
X104720714Y-150281380D01*
X106006428Y-149281380D02*
X105815952Y-149281380D01*
X105720714Y-149329000D01*
X105673095Y-149376619D01*
X105577857Y-149519476D01*
X105530238Y-149709952D01*
X105530238Y-150090904D01*
X105577857Y-150186142D01*
X105625476Y-150233761D01*
X105720714Y-150281380D01*
X105911190Y-150281380D01*
X106006428Y-150233761D01*
X106054047Y-150186142D01*
X106101666Y-150090904D01*
X106101666Y-149852809D01*
X106054047Y-149757571D01*
X106006428Y-149709952D01*
X105911190Y-149662333D01*
X105720714Y-149662333D01*
X105625476Y-149709952D01*
X105577857Y-149757571D01*
X105530238Y-149852809D01*
X122901666Y-149296380D02*
X122901666Y-150010666D01*
X122854047Y-150153523D01*
X122758809Y-150248761D01*
X122615952Y-150296380D01*
X122520714Y-150296380D01*
X123282619Y-149296380D02*
X123949285Y-149296380D01*
X123520714Y-150296380D01*
X95128333Y-137167380D02*
X94652142Y-137167380D01*
X94652142Y-136167380D01*
X95985476Y-137167380D02*
X95414047Y-137167380D01*
X95699761Y-137167380D02*
X95699761Y-136167380D01*
X95604523Y-136310238D01*
X95509285Y-136405476D01*
X95414047Y-136453095D01*
X85083333Y-129214380D02*
X84750000Y-128738190D01*
X84511904Y-129214380D02*
X84511904Y-128214380D01*
X84892857Y-128214380D01*
X84988095Y-128262000D01*
X85035714Y-128309619D01*
X85083333Y-128404857D01*
X85083333Y-128547714D01*
X85035714Y-128642952D01*
X84988095Y-128690571D01*
X84892857Y-128738190D01*
X84511904Y-128738190D01*
X85464285Y-128309619D02*
X85511904Y-128262000D01*
X85607142Y-128214380D01*
X85845238Y-128214380D01*
X85940476Y-128262000D01*
X85988095Y-128309619D01*
X86035714Y-128404857D01*
X86035714Y-128500095D01*
X85988095Y-128642952D01*
X85416666Y-129214380D01*
X86035714Y-129214380D01*
X85083333Y-131500380D02*
X84750000Y-131024190D01*
X84511904Y-131500380D02*
X84511904Y-130500380D01*
X84892857Y-130500380D01*
X84988095Y-130548000D01*
X85035714Y-130595619D01*
X85083333Y-130690857D01*
X85083333Y-130833714D01*
X85035714Y-130928952D01*
X84988095Y-130976571D01*
X84892857Y-131024190D01*
X84511904Y-131024190D01*
X85416666Y-130500380D02*
X86035714Y-130500380D01*
X85702380Y-130881333D01*
X85845238Y-130881333D01*
X85940476Y-130928952D01*
X85988095Y-130976571D01*
X86035714Y-131071809D01*
X86035714Y-131309904D01*
X85988095Y-131405142D01*
X85940476Y-131452761D01*
X85845238Y-131500380D01*
X85559523Y-131500380D01*
X85464285Y-131452761D01*
X85416666Y-131405142D01*
X104764380Y-135278666D02*
X104288190Y-135612000D01*
X104764380Y-135850095D02*
X103764380Y-135850095D01*
X103764380Y-135469142D01*
X103812000Y-135373904D01*
X103859619Y-135326285D01*
X103954857Y-135278666D01*
X104097714Y-135278666D01*
X104192952Y-135326285D01*
X104240571Y-135373904D01*
X104288190Y-135469142D01*
X104288190Y-135850095D01*
X104097714Y-134421523D02*
X104764380Y-134421523D01*
X103716761Y-134659619D02*
X104431047Y-134897714D01*
X104431047Y-134278666D01*
X107050380Y-135278666D02*
X106574190Y-135612000D01*
X107050380Y-135850095D02*
X106050380Y-135850095D01*
X106050380Y-135469142D01*
X106098000Y-135373904D01*
X106145619Y-135326285D01*
X106240857Y-135278666D01*
X106383714Y-135278666D01*
X106478952Y-135326285D01*
X106526571Y-135373904D01*
X106574190Y-135469142D01*
X106574190Y-135850095D01*
X106050380Y-134373904D02*
X106050380Y-134850095D01*
X106526571Y-134897714D01*
X106478952Y-134850095D01*
X106431333Y-134754857D01*
X106431333Y-134516761D01*
X106478952Y-134421523D01*
X106526571Y-134373904D01*
X106621809Y-134326285D01*
X106859904Y-134326285D01*
X106955142Y-134373904D01*
X107002761Y-134421523D01*
X107050380Y-134516761D01*
X107050380Y-134754857D01*
X107002761Y-134850095D01*
X106955142Y-134897714D01*
X99740095Y-130754380D02*
X99740095Y-131563904D01*
X99787714Y-131659142D01*
X99835333Y-131706761D01*
X99930571Y-131754380D01*
X100121047Y-131754380D01*
X100216285Y-131706761D01*
X100263904Y-131659142D01*
X100311523Y-131563904D01*
X100311523Y-130754380D01*
X100692476Y-130754380D02*
X101311523Y-130754380D01*
X100978190Y-131135333D01*
X101121047Y-131135333D01*
X101216285Y-131182952D01*
X101263904Y-131230571D01*
X101311523Y-131325809D01*
X101311523Y-131563904D01*
X101263904Y-131659142D01*
X101216285Y-131706761D01*
X101121047Y-131754380D01*
X100835333Y-131754380D01*
X100740095Y-131706761D01*
X100692476Y-131659142D01*
X104847142Y-130200666D02*
X104894761Y-130248285D01*
X104942380Y-130391142D01*
X104942380Y-130486380D01*
X104894761Y-130629238D01*
X104799523Y-130724476D01*
X104704285Y-130772095D01*
X104513809Y-130819714D01*
X104370952Y-130819714D01*
X104180476Y-130772095D01*
X104085238Y-130724476D01*
X103990000Y-130629238D01*
X103942380Y-130486380D01*
X103942380Y-130391142D01*
X103990000Y-130248285D01*
X104037619Y-130200666D01*
X103942380Y-129343523D02*
X103942380Y-129534000D01*
X103990000Y-129629238D01*
X104037619Y-129676857D01*
X104180476Y-129772095D01*
X104370952Y-129819714D01*
X104751904Y-129819714D01*
X104847142Y-129772095D01*
X104894761Y-129724476D01*
X104942380Y-129629238D01*
X104942380Y-129438761D01*
X104894761Y-129343523D01*
X104847142Y-129295904D01*
X104751904Y-129248285D01*
X104513809Y-129248285D01*
X104418571Y-129295904D01*
X104370952Y-129343523D01*
X104323333Y-129438761D01*
X104323333Y-129629238D01*
X104370952Y-129724476D01*
X104418571Y-129772095D01*
X104513809Y-129819714D01*
X79228095Y-148736380D02*
X79228095Y-147736380D01*
X79228095Y-148212571D02*
X79799523Y-148212571D01*
X79799523Y-148736380D02*
X79799523Y-147736380D01*
X80799523Y-148736380D02*
X80228095Y-148736380D01*
X80513809Y-148736380D02*
X80513809Y-147736380D01*
X80418571Y-147879238D01*
X80323333Y-147974476D01*
X80228095Y-148022095D01*
X128978095Y-148736380D02*
X128978095Y-147736380D01*
X128978095Y-148212571D02*
X129549523Y-148212571D01*
X129549523Y-148736380D02*
X129549523Y-147736380D01*
X129978095Y-147831619D02*
X130025714Y-147784000D01*
X130120952Y-147736380D01*
X130359047Y-147736380D01*
X130454285Y-147784000D01*
X130501904Y-147831619D01*
X130549523Y-147926857D01*
X130549523Y-148022095D01*
X130501904Y-148164952D01*
X129930476Y-148736380D01*
X130549523Y-148736380D01*
X83228095Y-103736380D02*
X83228095Y-102736380D01*
X83228095Y-103212571D02*
X83799523Y-103212571D01*
X83799523Y-103736380D02*
X83799523Y-102736380D01*
X84180476Y-102736380D02*
X84799523Y-102736380D01*
X84466190Y-103117333D01*
X84609047Y-103117333D01*
X84704285Y-103164952D01*
X84751904Y-103212571D01*
X84799523Y-103307809D01*
X84799523Y-103545904D01*
X84751904Y-103641142D01*
X84704285Y-103688761D01*
X84609047Y-103736380D01*
X84323333Y-103736380D01*
X84228095Y-103688761D01*
X84180476Y-103641142D01*
X128978095Y-107986380D02*
X128978095Y-106986380D01*
X128978095Y-107462571D02*
X129549523Y-107462571D01*
X129549523Y-107986380D02*
X129549523Y-106986380D01*
X130454285Y-107319714D02*
X130454285Y-107986380D01*
X130216190Y-106938761D02*
X129978095Y-107653047D01*
X130597142Y-107653047D01*
X124401904Y-134548380D02*
X124401904Y-133548380D01*
X124640000Y-133548380D01*
X124782857Y-133596000D01*
X124878095Y-133691238D01*
X124925714Y-133786476D01*
X124973333Y-133976952D01*
X124973333Y-134119809D01*
X124925714Y-134310285D01*
X124878095Y-134405523D01*
X124782857Y-134500761D01*
X124640000Y-134548380D01*
X124401904Y-134548380D01*
X125925714Y-134548380D02*
X125354285Y-134548380D01*
X125640000Y-134548380D02*
X125640000Y-133548380D01*
X125544761Y-133691238D01*
X125449523Y-133786476D01*
X125354285Y-133834095D01*
M02*
