%TF.GenerationSoftware,KiCad,Pcbnew,(5.0.2)-1*%
%TF.CreationDate,2019-04-17T22:45:11+02:00*%
%TF.ProjectId,nfc-door-x4,6e66632d-646f-46f7-922d-78342e6b6963,rev?*%
%TF.SameCoordinates,Original*%
%TF.FileFunction,Paste,Top*%
%TF.FilePolarity,Positive*%
%FSLAX46Y46*%
G04 Gerber Fmt 4.6, Leading zero omitted, Abs format (unit mm)*
G04 Created by KiCad (PCBNEW (5.0.2)-1) date 17.04.2019 22:45:11*
%MOMM*%
%LPD*%
G01*
G04 APERTURE LIST*
%ADD10R,0.900000X1.700000*%
%ADD11R,1.700000X0.900000*%
%ADD12R,1.250000X1.000000*%
%ADD13R,0.800000X0.900000*%
%ADD14R,1.000000X1.250000*%
%ADD15R,1.600000X1.000000*%
%ADD16R,1.800000X3.500000*%
%ADD17R,3.500000X1.800000*%
%ADD18R,5.600000X2.300000*%
%ADD19R,2.200000X3.900000*%
%ADD20R,2.700000X3.200000*%
%ADD21R,1.060000X0.650000*%
%ADD22R,1.100000X2.500000*%
%ADD23R,2.500000X1.100000*%
G04 APERTURE END LIST*
D10*
X102200000Y-114105000D03*
X99300000Y-114105000D03*
X74260000Y-112200000D03*
X71360000Y-112200000D03*
X74260000Y-114740000D03*
X71360000Y-114740000D03*
D11*
X67476000Y-125990000D03*
X67476000Y-128890000D03*
D10*
X71360000Y-106485000D03*
X74260000Y-106485000D03*
D12*
X69254000Y-109930000D03*
X69254000Y-111930000D03*
X88685000Y-132155000D03*
X88685000Y-134155000D03*
D13*
X81290000Y-147984000D03*
X79390000Y-147984000D03*
X80340000Y-149984000D03*
X88790000Y-147984000D03*
X86890000Y-147984000D03*
X87840000Y-149984000D03*
D14*
X84510000Y-140140000D03*
X86510000Y-140140000D03*
D12*
X86780000Y-132155000D03*
X86780000Y-134155000D03*
D15*
X67095000Y-138640000D03*
X67095000Y-141640000D03*
D16*
X105830000Y-128750000D03*
X105830000Y-133750000D03*
D17*
X83565000Y-132520000D03*
X78565000Y-132520000D03*
D18*
X111545000Y-126915000D03*
X111545000Y-134315000D03*
D19*
X81695000Y-136965000D03*
X77895000Y-136965000D03*
D20*
X71045000Y-147760000D03*
X63145000Y-147760000D03*
D10*
X70450000Y-131885000D03*
X67550000Y-131885000D03*
X67550000Y-134425000D03*
X70450000Y-134425000D03*
D11*
X88685000Y-136785000D03*
X88685000Y-139685000D03*
X91225000Y-136785000D03*
X91225000Y-139685000D03*
D10*
X74260000Y-109660000D03*
X71360000Y-109660000D03*
D11*
X97575000Y-121270000D03*
X97575000Y-118370000D03*
D10*
X81880000Y-145855000D03*
X78980000Y-145855000D03*
D11*
X79160000Y-140214000D03*
X79160000Y-143114000D03*
D10*
X71360000Y-120455000D03*
X74260000Y-120455000D03*
X71360000Y-117915000D03*
X74260000Y-117915000D03*
X89500000Y-145855000D03*
X86600000Y-145855000D03*
D11*
X82335000Y-140214000D03*
X82335000Y-143114000D03*
D21*
X84410000Y-136015000D03*
X84410000Y-136965000D03*
X84410000Y-137915000D03*
X86610000Y-137915000D03*
X86610000Y-136015000D03*
X86610000Y-136965000D03*
D22*
X90750000Y-121960000D03*
X88750000Y-121960000D03*
X86750000Y-121960000D03*
X84750000Y-121960000D03*
X82750000Y-121960000D03*
X80750000Y-121960000D03*
D23*
X93460000Y-106260000D03*
X93460000Y-108260000D03*
X93460000Y-110260000D03*
X93460000Y-112260000D03*
X93460000Y-114260000D03*
X93460000Y-116260000D03*
X93460000Y-118260000D03*
X93460000Y-120260000D03*
X78060000Y-120260000D03*
X78060000Y-118260000D03*
X78060000Y-116260000D03*
X78060000Y-114260000D03*
X78060000Y-112260000D03*
X78060000Y-110260000D03*
X78060000Y-108260000D03*
X78060000Y-106260000D03*
M02*
